<svg xmlns="http://www.w3.org/2000/svg" viewBox="0 0 1366 768"><defs><style>.cls-1{fill:#2c9dc6;}.cls-2,.cls-40{fill:#fff;}.cls-12,.cls-13,.cls-3,.cls-32,.cls-42{fill:#e8792e;}.cls-11,.cls-12,.cls-13,.cls-3,.cls-32,.cls-33,.cls-34,.cls-35,.cls-36,.cls-4,.cls-41,.cls-42,.cls-5,.cls-6{stroke:#965930;}.cls-11,.cls-12,.cls-13,.cls-14,.cls-15,.cls-18,.cls-22,.cls-24,.cls-25,.cls-26,.cls-27,.cls-28,.cls-29,.cls-3,.cls-30,.cls-31,.cls-32,.cls-33,.cls-34,.cls-35,.cls-36,.cls-39,.cls-4,.cls-41,.cls-42,.cls-5,.cls-6{stroke-miterlimit:10;}.cls-11,.cls-13,.cls-3,.cls-5,.cls-6{stroke-width:1.65px;}.cls-10,.cls-33,.cls-36,.cls-4,.cls-9{fill:#965930;}.cls-4{stroke-width:0.33px;}.cls-10,.cls-15,.cls-16,.cls-25,.cls-29,.cls-33,.cls-4{opacity:0.25;}.cls-34,.cls-5{fill:#ffe7d9;}.cls-35,.cls-6{fill:#ffeee3;}.cls-7{fill:#7b5089;}.cls-8{fill:#f9f9f9;}.cls-11,.cls-41{fill:none;}.cls-11,.cls-12,.cls-13,.cls-42{stroke-linecap:round;}.cls-12{stroke-width:1.98px;}.cls-14,.cls-24,.cls-28{fill:#5b9dd3;}.cls-14,.cls-15,.cls-18,.cls-22,.cls-24,.cls-25,.cls-26,.cls-27,.cls-28,.cls-29,.cls-30,.cls-31{stroke:#3a3c8c;}.cls-14,.cls-18,.cls-22{stroke-width:1.34px;}.cls-15,.cls-25,.cls-29{fill:#3a3c8c;}.cls-15{stroke-width:0.05px;}.cls-16{fill:#3a3c72;}.cls-17{fill:#caceff;}.cls-18,.cls-26,.cls-30{fill:#eef;}.cls-19{fill:#9fa588;}.cls-20{fill:#b761cf;}.cls-21{fill:#894a51;}.cls-22,.cls-27,.cls-31{fill:#e9e9ff;}.cls-23{fill:#507a8c;}.cls-24,.cls-26,.cls-27{stroke-width:0.99px;}.cls-25{stroke-width:0.04px;}.cls-28,.cls-30,.cls-31{stroke-width:1.41px;}.cls-29{stroke-width:0.06px;}.cls-32,.cls-34,.cls-35,.cls-41,.cls-42{stroke-width:1.48px;}.cls-33,.cls-36,.cls-39{stroke-width:0.3px;}.cls-37{fill:#a51c1c;}.cls-38{fill:#cc3e3e;}.cls-39{fill:#eadfdf;stroke:#7c7c7c;}.cls-40{opacity:0.5;}</style></defs><g id="Hintergrund"><rect class="cls-1" x="-34.47" y="-31.47" width="1440.93" height="824.93"/><path class="cls-2" d="M1405.93-30.93V792.93H-33.93V-30.93H1405.93M1407-32H-35V794H1407V-32Z"/></g><g id="Virus"><path class="cls-3" d="M103.24,277.15c-4.14-.47-11.62-1.41-18.75-6.8-10.25-7.75-12.25-19-12.75-22.16-.77-4.77-1.67-16.67,6.69-27.05,8.78-10.9,21.57-12.45,25.69-12.95a38.4,38.4,0,0,1,21.2,2.83,36.82,36.82,0,0,1,18.17,18.77c1.5,3.41,5.49,12.89,1.79,23.9-3.85,11.49-13.44,16.84-16.76,18.69A42.1,42.1,0,0,1,103.24,277.15Z"/><path class="cls-4" d="M93.9,241.74a7.46,7.46,0,0,1-4.57-3.92c-1.47-3.54.53-8.67,4.82-10.24a8.28,8.28,0,0,1,10.32,4.69,7.85,7.85,0,0,1-.64,6.37C101.73,242,97.19,242.85,93.9,241.74Z"/><path class="cls-4" d="M119,236.24a5.55,5.55,0,0,1-3.38-3.26c-1.06-3,.48-7.35,3.71-8.74s6.67.72,7.67,3.88a7.45,7.45,0,0,1-.54,5.4A6.13,6.13,0,0,1,119,236.24Z"/><path class="cls-4" d="M99.24,276.62c0-.7,12.3,1.5,24.68-4.19,3.47-1.6,11.69-5.52,16.62-14.75.52-1,5.64-10.92,2.87-22.38,0,0-1-4-9.2-18.43h0l1,1a42.53,42.53,0,0,1,7.61,10.52,34.8,34.8,0,0,1,3.61,11.44,30.06,30.06,0,0,1-.74,12.52,31.23,31.23,0,0,1-4.91,9.84,34.6,34.6,0,0,1-9.92,8.87,41.3,41.3,0,0,1-9,4.32,42,42,0,0,1-12.6,2.1C104.5,277.59,99.24,277.07,99.24,276.62Z"/><circle class="cls-5" cx="97.03" cy="234.73" r="6.89"/><circle class="cls-6" cx="121.26" cy="230.5" r="4.98"/><path class="cls-7" d="M123.81,230.5c.57,4-4.64,4.69-5.12.67S123.33,226.47,123.81,230.5Z"/><path d="M122.32,230.63c.26,1.85-1.93,2.14-2.16.28S122.1,228.77,122.32,230.63Z"/><path class="cls-8" d="M120.82,229.68c.12.85-.89,1-1,.13S120.72,228.83,120.82,229.68Z"/><path class="cls-7" d="M100.28,234.24c.69,4.83-5.46,5.64-6,.79S99.7,229.4,100.28,234.24Z"/><path d="M98.52,234.4c.32,2.23-2.27,2.57-2.54.33S98.25,232.17,98.52,234.4Z"/><path class="cls-8" d="M96.75,233.26c.14,1-1,1.17-1.17.15S96.63,232.23,96.75,233.26Z"/><path class="cls-9" d="M91,226.6a9.53,9.53,0,0,1,3.54-1.69,6.16,6.16,0,0,1,4,0c3.06,1.16,4.59,1.74,4.85,1.88a.31.31,0,0,0,.42,0,2.13,2.13,0,0,0,.21-1.22,2.69,2.69,0,0,0-1.22-2c-1-.72-1.75-.63-3.64-.59a28.4,28.4,0,0,0-3.2,0,6.57,6.57,0,0,0-3.57,1.25,8.43,8.43,0,0,0-2.6,3.25C89.81,227.62,90.27,227.15,91,226.6Z"/><path class="cls-10" d="M90.78,227.88a9.75,9.75,0,0,1,3.53-1.69,6.24,6.24,0,0,1,4,0c3.06,1.16,4.6,1.74,4.86,1.88a.31.31,0,0,0,.42,0,2.1,2.1,0,0,0,.21-1.22,2.69,2.69,0,0,0-1.23-2c-1-.72-1.75-.63-3.63-.59a28.3,28.3,0,0,0-3.2,0,6.57,6.57,0,0,0-3.58,1.25,8.47,8.47,0,0,0-2.6,3.26C89.59,228.9,90.05,228.43,90.78,227.88Z"/><path class="cls-9" d="M126.18,223.82a9.7,9.7,0,0,0-3.65-1.3,6.2,6.2,0,0,0-3.93.43c-2.9,1.44-4.36,2.16-4.6,2.32a.32.32,0,0,1-.42,0,2.06,2.06,0,0,1-.32-1.17,2.63,2.63,0,0,1,1-2.11c.89-.79,1.66-.78,3.53-.93a27.62,27.62,0,0,1,3.16-.28,6.6,6.6,0,0,1,3.64.87,8.48,8.48,0,0,1,2.88,2.92C127.45,224.7,127,224.28,126.18,223.82Z"/><path class="cls-10" d="M126.52,225.06a9.57,9.57,0,0,0-3.64-1.31,6.26,6.26,0,0,0-3.93.43c-2.91,1.44-4.37,2.16-4.61,2.32a.32.32,0,0,1-.42,0,2.06,2.06,0,0,1-.32-1.17,2.66,2.66,0,0,1,1-2.11c.89-.79,1.67-.78,3.53-.93a27.79,27.79,0,0,1,3.16-.28,6.69,6.69,0,0,1,3.64.87,8.38,8.38,0,0,1,2.88,2.93C127.79,225.93,127.3,225.52,126.52,225.06Z"/><path class="cls-11" d="M128.34,249.88c-2.25,1.87-6.11,5.39-11.32,6.82-10.65,2.91-19.06-2.78-21.64-4.08"/><path class="cls-10" d="M95.46,253.46c-.17.35,2.19,2,4.39,3.1a25.35,25.35,0,0,0,12.19,2.7c1.64-.07,10-.4,14.73-6,.8-1,1.83-2.46,1.65-2.61s-2.34,2.26-4.84,3.95c-4.59,3.1-9.71,3-12.3,3C102.22,257.46,95.74,252.89,95.46,253.46Z"/><path class="cls-12" d="M114,209.78c3.13-.27,8.07-4.94,8.14-8.3-5.88-5.39,5.48-7.83,7.78-2.93,1.06,2.17-2.28,4.11-4.12,3.36-2.94,1.28-3.39,8.87-1.18,10.36"/><path class="cls-12" d="M127.47,198.91c1.33,3.1-6.1.33-3.75-1.48"/><path class="cls-13" d="M86.35,218.21c2.12-2.33,2.56-9.12.32-11.63-8,0-1.3-9.47,3.72-7.44,2.25.88,1.12,4.57-.74,5.26-1.28,2.95,3.55,8.82,6.18,8.41"/><path class="cls-13" d="M88.87,201c3.08,1.37-4.24,4.39-3.75,1.46"/><path class="cls-13" d="M80,225.23c-2,2.46-8.58,4-11.42,2.2-1.25-7.87-9.56.25-6.74,4.88,1.23,2.07,4.69.36,5.07-1.59,2.7-1.74,9.28,2.07,9.31,4.73"/><path class="cls-13" d="M63.43,230.5c1.85,2.82,3.64-4.9.83-3.94"/><path class="cls-13" d="M80,261.4c-2-2.43-8.65-3.84-11.45-2-1.1,7.9-9.56-.06-6.83-4.75,1.19-2.1,4.68-.45,5.1,1.49,2.73,1.69,9.24-2.24,9.21-4.91"/><path class="cls-13" d="M63.39,256.44c1.8-2.85,3.74,4.83.92,3.92"/><path class="cls-13" d="M88.06,269.39c2.07,2.37,2.38,9.17.09,11.63-8-.2-1.49,9.44,3.57,7.51,2.27-.83,1.22-4.54-.63-5.27-1.22-3,3.72-8.75,6.34-8.29"/><path class="cls-13" d="M90.24,286.61c3.11-1.31-4.15-4.48-3.72-1.55"/><path class="cls-13" d="M121.41,272.9c-2.62,1.73-4.73,8.2-3.19,11.18,7.73,1.93-1.08,9.5-5.45,6.29-2-1.41,0-4.7,2-4.92,2-2.53-1.24-9.42-3.9-9.67"/><path class="cls-13" d="M114.72,288.91c-2.65-2.09,5.19-3.21,4-.49"/><path class="cls-13" d="M138.75,260.25c-1.76,3.14-.37,10.8,2.88,13,9.06-2.12,4.12,10.18-2.17,9.24-2.8-.39-2.55-4.78-.62-6,.64-3.6-6.5-8.88-9.38-7.73"/><path class="cls-13" d="M140.66,280c-3.89-.72,3.61-6,3.87-2.61"/><path class="cls-13" d="M134.1,218.39c2.43,2,9.23,2.09,11.62-.27-.44-8,9.39-1.78,7.62,3.34-.76,2.29-4.51,1.35-5.29-.47-3-1.13-8.64,4-8.09,6.59"/><path class="cls-13" d="M151.37,220c-1.21,3.15-4.6-4-1.66-3.67"/><path class="cls-13" d="M141.54,254.59c1.64-2.68,8-5,11.07-3.55,2.18,7.66,9.46-1.39,6.11-5.65-1.47-1.91-4.7.2-4.85,2.18-2.47,2.05-9.46-.94-9.8-3.59"/><path class="cls-13" d="M157.32,247.38c-2.17-2.58-3,5.3-.36,4"/><path class="cls-14" d="M54.08,326.76c-.88.65-6,6.54-8.64,3.92-3.13-2-5.06,3.46-2.21,4.62,3.13,1.09,2.15-2.52,4.05-3.36,2.85-1.79,5.94.32,7.47.43C56,331.59,55.31,327,54.08,326.76Z"/><path class="cls-14" d="M55.08,349.89c-2.41-.68-4.18-2.2-8.45-.9-1.58,4.06-6.69,1.18-4.18-2.05,2.61-2.21,2.69,1.3,4.77,1.25,2.93.47,5.44-2.77,6.6-3.39C55.17,345,56.13,349.22,55.08,349.89Z"/><path class="cls-14" d="M97.9,357.55c-.68,2.74-2.48,4.94-.86,9.82,4.81,1.56,1.43,7.59-2.28,5-2.63-2.85,1.47-3.22,1.34-5.6.36-3.74-3.22-5.82-4.08-7.32C92.2,357.86,97.1,356.4,97.9,357.55Z"/><path class="cls-14" d="M109.46,349.54c.58,2,.36,4.56,3.28,7,3.8-1,3.87,4.64.43,4.35-2.78-.71-.34-2.86-1.3-4.37-1.14-2.62-4.45-2.64-5.58-3.26C105.79,352.15,108.48,349.1,109.46,349.54Z"/><path class="cls-14" d="M106.51,316.11c1.28,0,9.33,1.36,9.95-2.64,4.32-6.36,9.37,7.1-.81,2.33-3.54.42-5,4.45-6.21,5.54C107.9,321.51,105.57,317.14,106.51,316.11Z"/><path class="cls-14" d="M69.82,308.69c.46-2,1.73-3.92.43-7.38-3.59-1.06-1.25-5.78,1.6-3.73,2,2-1,2.48-.89,4.21-.31,2.49,2.65,4.6,3.22,5.54C74.08,308.51,70.44,309.56,69.82,308.69Z"/><path class="cls-14" d="M55.61,315.33c52.92-49.14,95,67.34,15.66,42.54-16.57-3.18-21.74-6.72-18.45-20.71C46.93,327.74,47.94,321.45,55.61,315.33Z"/><path class="cls-15" d="M72.87,357.67c20.31,4.85,39-8.75,39.47-31.71C124.46,359.36,95.71,366.92,72.87,357.67Z"/><path class="cls-16" d="M62.28,342.12c-.2-11.77-.64-2.31,8.16-5,2.32-1.31,16.19-1.05,17.8-2,8.19-6.46,13.07-3.21,5.41,6.19C86.09,358.06,78,330.8,62.28,342.12Z"/><path class="cls-15" d="M58.86,334a1,1,0,1,1-1.93-.67A1,1,0,1,1,58.86,334Z"/><path class="cls-15" d="M59.11,335.54a.51.51,0,0,1-1-.34A.51.51,0,0,1,59.11,335.54Z"/><path class="cls-16" d="M97.86,317.44c-1.25,4.66-2.52,6.68-5.57,9.46-4.57,2.73-10.16,3.06-13.34.78C76.11,324.83,99,311.84,97.86,317.44Z"/><path class="cls-16" d="M73.4,328.34c-21.59,10-18.08-31.28-2.43-5.37C73,325.35,74.18,325.67,73.4,328.34Z"/><path class="cls-14" d="M110.68,325.6a8.42,8.42,0,0,0,8.29,3.32,2.07,2.07,0,0,1,2.76-1.81c3.19,1.07,2.79,5.42-.42,5-3.67-3.6-8-1-11.67.7"/><path class="cls-14" d="M79.45,356A8.32,8.32,0,0,0,76,364.14a2.07,2.07,0,0,1,1.74,2.79c-1.13,3.15-5.44,2.62-5-.55,3.67-3.57,1.18-7.93-.45-11.61"/><path class="cls-14" d="M58,350a9,9,0,0,1-2.4,9.12,2.12,2.12,0,0,0-3.23,1.18c-1.1,3.35,2.76,5.82,4.46,2.84-.73-5.34,4.11-7.42,7.86-9.41"/><path class="cls-14" d="M56.49,317.78a8.67,8.67,0,0,1-8.13-4.09,2.08,2.08,0,0,0-.46-3.3c-2.94-1.71-6,1.45-3.58,3.65,5.19.38,6.18,5.37,7.31,9.32"/><path class="cls-14" d="M88.08,307.35a7.66,7.66,0,0,0,5.07-6.24,1.83,1.83,0,0,1-.81-2.83c1.75-2.44,5.4-1,4.2,1.65-4.05,2.18-3,6.57-2.52,10.16"/><path class="cls-17" d="M46.16,311.4c.73-1.94-1.46-1.79-2.54.18C42.91,313.35,45.51,313.65,46.16,311.4Z"/><path class="cls-17" d="M41.94,333.13c-.23-2.22,2.12-1.57,2.72.76C44.93,335.92,42,335.67,41.94,333.13Z"/><path class="cls-17" d="M45,349.93c.55-1.87-2.12-3.17-3.09-1.5C41.39,350.11,44.63,352.23,45,349.93Z"/><path class="cls-17" d="M55.31,363.34c.81-1.82-1.72-3.72-2.93-2.19C51.59,362.78,54.59,365.65,55.31,363.34Z"/><path class="cls-17" d="M76.65,366.92c-.88-1.74-3.71-.85-3.28,1C74.11,369.56,77.93,368.88,76.65,366.92Z"/><path class="cls-17" d="M95.38,371c.74-1.8,3.63-1.14,3.35.77C98.12,373.38,94.26,373,95.38,371Z"/><path class="cls-17" d="M114,357.89c1.25-1.21,2.25.57,1.15,2.07C114,361.1,112.45,359.16,114,357.89Z"/><path class="cls-17" d="M71.07,298.2c-.22-1.71-2.39-1.22-2.53.58A1.3,1.3,0,1,0,71.07,298.2Z"/><path class="cls-17" d="M95.15,298.56c1.3-1.77-1-2.19-2.63-.48C91.29,299.68,93.82,300.66,95.15,298.56Z"/><path class="cls-17" d="M121.54,314.24c-.16-1.83-3.28-3.33-3.61-1.74C118,314.14,122,316.51,121.54,314.24Z"/><path class="cls-17" d="M123.54,329.64c-.08-2-3.44-3.53-3.89-1.74C119.66,329.72,123.92,332.15,123.54,329.64Z"/><path class="cls-18" d="M63.74,337.39c4.89,1.33,25.08-.72,28.26-3.54,1.16-.56,5.16-1.65,4.22-.07-8.41,29.31-17.57-3.15-33.33,8.55C63.18,341.24,61.74,336,63.74,337.39Z"/><path class="cls-19" d="M62.55,339.3c1.75.55,21.2-4.6,20.09.46,2.87-3.28,2.6-6.16,3.16,2.38,0,1.34,2.3-3.35,2.46-4.14.38-1.59,1,2.84,6,.8a3.64,3.64,0,0,1-5.59-.72c-3.08,8.1-3.17,5.47-3.93-.53-.32.42-2,4.13-2.53,2.75C83,335.56,63.13,340.09,62.55,339.3Z"/><path class="cls-20" d="M68.13,316.79c-1.33-1.19-1.38.33-3.2,2.45-1.63,1.65.38,1.89-.37,2.19-1.41-.88-1.11,2.13-2.56,2.94-.41.4-.23.13-1.77,1.37-.41.32-.77.61-1.09.88.62.57,0,.31-.34.28,0,.17.3.32.07.36s-.06-.17-.14-.29c-1,.85-1.53,1.31-1.66,1.21-.27-.35,1.66-2.26.5-2.73.2-.2.24.23.57.38,0,.17-.2-.55-.14-.59.1-.33.29.19.35.36,1.16-1.89,5.2-3.93,3.74-6.21.33-.11.53,0,.19-.3-.27-.11,0-.49.11-.16.37.93,2.34-3.57,3.36-3.71-.26-.14-.45-.62,0-.39-.13-.2-.28-.38-.17-.59.93,1,2.2-.44,3.06-.58,0,.88-1.19,2.19-.9,2.58S68.44,316.56,68.13,316.79Z"/><path class="cls-21" d="M67.5,316h0S67.47,316,67.5,316Z"/><path class="cls-21" d="M67.5,316h0S67.47,316,67.5,316Z"/><path class="cls-21" d="M58.18,325.87c0,.05,0,0,0,0Z"/><path class="cls-21" d="M58.18,325.87c0,.05,0,0,0,0Z"/><path class="cls-22" d="M79,326.62c2.46-4.37,11.92-6.08,15.84-5.33-1.58,7.39-11.41,10.12-16.39,6.36Z"/><path class="cls-18" d="M73,327.66c-1.52-3.92-10.13-6.8-13.34-6.94-2.91-.56,2.11,6.71,3.78,7.18C65.24,329.61,74.81,330.05,73,327.66Z"/><path class="cls-20" d="M69.05,327.18c-1.12,3.1-5.13,1.6-3.94-1.48S70.24,324.1,69.05,327.18Z"/><path d="M67.92,326.7c-.51,1.44-2.2.81-1.65-.62S68.47,325.28,67.92,326.7Z"/><path class="cls-8" d="M67.21,325.45c-.24.66-1,.37-.76-.28S67.46,324.8,67.21,325.45Z"/><path class="cls-20" d="M88.69,325.68c.53,3.47-3.71,3.73-4.14.42C84,322.62,88.27,322.36,88.69,325.68Z"/><path d="M87.49,325.75c.24,1.6-1.55,1.71-1.75.18S87.29,324.22,87.49,325.75Z"/><path class="cls-8" d="M86.12,324.86c.11.74-.71.78-.8.08S86,324.16,86.12,324.86Z"/><path class="cls-23" d="M78.68,327.3c4.6-7,16.79-7.82,18.06-9.73C91.61,315.44,79.48,322.49,78.68,327.3Z"/><path class="cls-23" d="M73.55,328c-2.49-4.19-12-12.43-13-13.7C64.27,314.25,74.32,325.32,73.55,328Z"/><path class="cls-24" d="M1289.58,544.91c-.64.48-4.38,4.82-6.36,2.89-2.3-1.45-3.72,2.55-1.62,3.4,2.3.81,1.58-1.85,3-2.47,2.1-1.32,4.37.23,5.5.32C1291,548.47,1290.49,545.06,1289.58,544.91Z"/><path class="cls-24" d="M1290.32,561.94c-1.78-.5-3.08-1.62-6.22-.66-1.17,3-4.93.87-3.08-1.51,1.92-1.63,2,1,3.51.92,2.16.35,4-2,4.86-2.49C1290.38,558.33,1291.09,561.45,1290.32,561.94Z"/><path class="cls-24" d="M1321.84,567.58c-.5,2-1.83,3.64-.63,7.23a2.09,2.09,0,1,1-1.68,3.67c-1.94-2.11,1.08-2.38,1-4.13.26-2.75-2.38-4.29-3-5.39C1317.65,567.81,1321.25,566.73,1321.84,567.58Z"/><path class="cls-24" d="M1330.35,561.69c.43,1.45.27,3.35,2.41,5.18,2.8-.76,2.86,3.41.32,3.2-2-.52-.25-2.1-.95-3.22-.84-1.93-3.28-1.94-4.11-2.4C1327.65,563.61,1329.63,561.36,1330.35,561.69Z"/><path class="cls-24" d="M1328.18,537.08c.94,0,6.87,1,7.32-2,3.18-4.68,6.9,5.23-.59,1.72-2.61.3-3.69,3.27-4.58,4.07C1329.2,541.05,1327.48,537.83,1328.18,537.08Z"/><path class="cls-24" d="M1301.17,531.61c.34-1.46,1.27-2.89.31-5.43a1.55,1.55,0,1,1,1.18-2.74c1.48,1.44-.71,1.82-.65,3.09-.23,1.84,2,3.39,2.37,4.08C1304.31,531.48,1301.63,532.25,1301.17,531.61Z"/><path class="cls-24" d="M1290.71,536.5c39-36.17,69.9,49.57,11.53,31.32-12.2-2.35-16-5-13.59-15.25C1284.32,545.63,1285.07,541,1290.71,536.5Z"/><path class="cls-25" d="M1303.42,567.67c14.95,3.57,28.7-6.44,29-23.34C1341.39,568.91,1320.23,574.48,1303.42,567.67Z"/><path class="cls-16" d="M1295.62,556.22c-.14-8.66-.47-1.7,6-3.69,1.71-1,11.92-.77,13.1-1.48,6-4.76,9.62-2.37,4,4.56C1313.15,568,1307.17,547.89,1295.62,556.22Z"/><path class="cls-25" d="M1293.1,550.2a.75.75,0,1,1-1.42-.49A.75.75,0,1,1,1293.1,550.2Z"/><path class="cls-25" d="M1293.28,551.38a.38.38,0,0,1-.71-.25A.38.38,0,0,1,1293.28,551.38Z"/><path class="cls-16" d="M1321.81,538.05a12.13,12.13,0,0,1-4.1,7c-3.36,2-7.48,2.25-9.82.57C1305.8,543.49,1322.65,533.93,1321.81,538.05Z"/><path class="cls-16" d="M1303.81,546.08c-15.9,7.32-13.32-23-1.8-4C1303.49,543.88,1304.38,544.11,1303.81,546.08Z"/><path class="cls-24" d="M1331.25,544.06a6.2,6.2,0,0,0,6.1,2.45,1.53,1.53,0,0,1,2-1.34c2.35.79,2.06,4-.31,3.7-2.7-2.65-5.89-.75-8.59.52"/><path class="cls-24" d="M1308.26,566.44a6.13,6.13,0,0,0-2.56,6,1.53,1.53,0,0,1,1.29,2.06c-.84,2.31-4,1.93-3.67-.41,2.69-2.63.86-5.83-.34-8.55"/><path class="cls-24" d="M1292.48,562a6.62,6.62,0,0,1-1.76,6.71,1.56,1.56,0,0,0-2.38.87c-.81,2.46,2,4.28,3.28,2.09-.54-3.93,3-5.46,5.79-6.93"/><path class="cls-24" d="M1291.36,538.3a6.39,6.39,0,0,1-6-3,1.52,1.52,0,0,0-.34-2.43c-2.16-1.25-4.45,1.07-2.63,2.69,3.82.28,4.55,4,5.38,6.86"/><path class="cls-24" d="M1314.61,530.63a5.66,5.66,0,0,0,3.74-4.6,1.34,1.34,0,0,1-.6-2.08c1.29-1.8,4-.75,3.09,1.21-3,1.61-2.24,4.84-1.86,7.48"/><path class="cls-17" d="M1283.76,533.61c.53-1.43-1.08-1.32-1.87.13C1281.36,535,1283.27,535.27,1283.76,533.61Z"/><path class="cls-17" d="M1280.65,549.6c-.17-1.63,1.56-1.15,2,.56C1282.85,551.66,1280.7,551.47,1280.65,549.6Z"/><path class="cls-17" d="M1282.93,562c.41-1.38-1.56-2.33-2.28-1.11C1280.24,562.1,1282.62,563.66,1282.93,562Z"/><path class="cls-17" d="M1290.49,571.84c.59-1.34-1.27-2.74-2.16-1.61C1287.75,571.43,1290,573.54,1290.49,571.84Z"/><path class="cls-17" d="M1306.2,574.48c-.65-1.28-2.73-.63-2.42.75C1304.33,576.42,1307.14,575.92,1306.2,574.48Z"/><path class="cls-17" d="M1320,577.45a1.28,1.28,0,0,1,2.46.56C1322,579.24,1319.16,579,1320,577.45Z"/><path class="cls-17" d="M1333.69,567.83c.93-.89,1.66.42.85,1.52C1333.71,570.2,1332.55,568.76,1333.69,567.83Z"/><path class="cls-17" d="M1302.09,523.89c-.16-1.26-1.76-.9-1.86.42A1,1,0,1,0,1302.09,523.89Z"/><path class="cls-17" d="M1319.81,524.15c1-1.3-.71-1.61-1.93-.35C1317,525,1318.84,525.7,1319.81,524.15Z"/><path class="cls-17" d="M1339.24,535.7c-.12-1.35-2.41-2.46-2.66-1.28C1336.64,535.62,1339.58,537.37,1339.24,535.7Z"/><path class="cls-17" d="M1340.71,547c-.06-1.5-2.52-2.61-2.86-1.29C1337.86,547.09,1341,548.88,1340.71,547Z"/><path class="cls-26" d="M1296.69,552.74c3.6,1,18.47-.53,20.8-2.61.86-.41,3.8-1.21,3.11,0-6.19,21.58-12.93-2.32-24.53,6.3C1296.28,555.58,1295.22,551.7,1296.69,552.74Z"/><path class="cls-19" d="M1295.82,554.15c1.28.4,15.6-3.39,14.79.33,2.11-2.41,1.91-4.53,2.32,1.75,0,1,1.7-2.46,1.81-3,.29-1.17.74,2.09,4.45.59a2.67,2.67,0,0,1-4.11-.53c-2.27,6-2.34,4-2.9-.39-.23.3-1.46,3-1.86,2C1310.87,551.4,1296.24,554.73,1295.82,554.15Z"/><path class="cls-20" d="M1299.93,537.57c-1-.87-1,.25-2.36,1.81-1.2,1.21.28,1.39-.27,1.61-1-.65-.82,1.56-1.89,2.16-.3.3-.17.1-1.3,1l-.8.65c.46.42,0,.23-.25.21,0,.12.22.23,0,.26s0-.12-.11-.21c-.74.63-1.12,1-1.22.89-.2-.26,1.23-1.66.37-2,.15-.15.18.17.42.28,0,.12-.15-.41-.1-.43.07-.25.21.14.26.26.85-1.39,3.82-2.9,2.75-4.57.24-.08.39,0,.14-.22s0-.36.08-.12c.27.69,1.73-2.63,2.47-2.73-.19-.11-.33-.46,0-.29-.09-.14-.2-.28-.13-.43.69.71,1.62-.33,2.26-.43,0,.65-.88,1.61-.67,1.9S1300.15,537.41,1299.93,537.57Z"/><path class="cls-21" d="M1299.46,537Z"/><path class="cls-21" d="M1299.46,537Z"/><path class="cls-21" d="M1292.6,544.26s0,0,0,0Z"/><path class="cls-21" d="M1292.6,544.26s0,0,0,0Z"/><path class="cls-27" d="M1307.9,544.81c1.81-3.22,8.78-4.48,11.66-3.92-1.16,5.43-8.4,7.44-12.07,4.68Z"/><path class="cls-26" d="M1303.48,545.57c-1.12-2.88-7.45-5-9.82-5.1-2.14-.41,1.56,4.94,2.78,5.28C1297.8,547,1304.84,547.34,1303.48,545.57Z"/><path class="cls-20" d="M1300.6,545.22a1.57,1.57,0,1,1-2.9-1.08C1298.53,541.85,1301.48,543,1300.6,545.22Z"/><path d="M1299.77,544.87c-.38,1.06-1.62.59-1.22-.45S1300.18,543.83,1299.77,544.87Z"/><path class="cls-8" d="M1299.25,544c-.18.48-.75.27-.56-.21S1299.43,543.47,1299.25,544Z"/><path class="cls-20" d="M1315.06,544.12c.39,2.56-2.73,2.75-3,.31S1314.75,541.68,1315.06,544.12Z"/><path d="M1314.18,544.17c.17,1.18-1.14,1.26-1.29.13S1314,543,1314.18,544.17Z"/><path class="cls-8" d="M1313.17,543.52c.08.54-.52.57-.59.06S1313.1,543,1313.17,543.52Z"/><path class="cls-23" d="M1307.69,545.32c3.39-5.19,12.36-5.77,13.29-7.17C1317.21,536.58,1308.28,541.77,1307.69,545.32Z"/><path class="cls-23" d="M1303.92,545.81c-1.83-3.08-8.86-9.15-9.57-10.08C1297.09,535.71,1304.48,543.85,1303.92,545.81Z"/><path class="cls-28" d="M67.47,705.31c-.92.69-6.27,6.88-9.09,4.13-3.29-2.08-5.32,3.64-2.32,4.86,3.29,1.15,2.26-2.65,4.26-3.54,3-1.88,6.25.34,7.86.46C69.45,710.4,68.76,705.52,67.47,705.31Z"/><path class="cls-28" d="M68.53,729.65c-2.54-.72-4.41-2.32-8.9-1-1.66,4.27-7,1.25-4.4-2.15,2.75-2.32,2.84,1.36,5,1.32,3.07.49,5.72-2.92,6.94-3.57C68.62,724.48,69.62,728.94,68.53,729.65Z"/><path class="cls-28" d="M113.56,737.7c-.71,2.89-2.61,5.2-.9,10.33,5.06,1.64,1.51,8-2.4,5.24-2.76-3,1.54-3.39,1.41-5.89.38-3.94-3.39-6.13-4.29-7.7C107.57,738,112.72,736.49,113.56,737.7Z"/><path class="cls-28" d="M125.73,729.28c.6,2.07.38,4.79,3.44,7.4,4-1.08,4.08,4.88.46,4.58-2.92-.75-.36-3-1.37-4.6-1.2-2.75-4.69-2.78-5.87-3.43C121.87,732,124.69,728.82,125.73,729.28Z"/><path class="cls-28" d="M122.62,694.12c1.35,0,9.81,1.42,10.47-2.78,4.54-6.7,9.86,7.46-.86,2.45-3.72.44-5.27,4.68-6.53,5.82C124.09,699.79,121.63,695.19,122.62,694.12Z"/><path class="cls-28" d="M84,686.31c.49-2.09,1.82-4.13.46-7.76-3.77-1.12-1.31-6.08,1.68-3.93,2.11,2.07-1,2.61-.93,4.43-.33,2.62,2.79,4.84,3.39,5.83C88.51,686.12,84.68,687.22,84,686.31Z"/><path class="cls-28" d="M69.08,693.29C124.74,641.61,169,764.13,85.56,738c-17.44-3.35-22.87-7.07-19.42-21.79C60,706.34,61,699.73,69.08,693.29Z"/><path class="cls-29" d="M87.24,737.82c21.36,5.11,41-9.2,41.52-33.34C141.51,739.61,111.26,747.56,87.24,737.82Z"/><path class="cls-16" d="M76.1,721.47c-.21-12.38-.68-2.43,8.58-5.27,2.44-1.38,17-1.11,18.73-2.12,8.6-6.8,13.75-3.38,5.69,6.51C101.14,738.24,92.6,709.57,76.1,721.47Z"/><path class="cls-29" d="M72.5,712.87a1.08,1.08,0,1,1-2-.7A1.08,1.08,0,1,1,72.5,712.87Z"/><path class="cls-29" d="M72.76,714.55a.54.54,0,0,1-1-.35A.54.54,0,0,1,72.76,714.55Z"/><path class="cls-16" d="M113.53,695.51c-1.32,4.9-2.66,7-5.87,10-4.8,2.88-10.68,3.22-14,.82C90.64,703.28,114.72,689.62,113.53,695.51Z"/><path class="cls-16" d="M87.8,707c-22.72,10.46-19-32.91-2.57-5.65C87.34,703.83,88.61,704.17,87.8,707Z"/><path class="cls-28" d="M127,704.09a8.88,8.88,0,0,0,8.72,3.5,2.18,2.18,0,0,1,2.9-1.91c3.35,1.13,2.94,5.7-.44,5.29-3.86-3.79-8.42-1.08-12.28.74"/><path class="cls-28" d="M94.16,736.07a8.78,8.78,0,0,0-3.66,8.57,2.17,2.17,0,0,1,1.84,2.93c-1.19,3.31-5.73,2.76-5.25-.58,3.86-3.75,1.25-8.34-.48-12.21"/><path class="cls-28" d="M71.61,729.79a9.47,9.47,0,0,1-2.51,9.59,2.23,2.23,0,0,0-3.41,1.24c-1.15,3.52,2.91,6.12,4.7,3-.78-5.62,4.32-7.8,8.27-9.89"/><path class="cls-28" d="M70,695.87a9.13,9.13,0,0,1-8.56-4.31A2.17,2.17,0,0,0,61,688.1c-3.09-1.8-6.37,1.52-3.77,3.83,5.47.4,6.51,5.65,7.69,9.81"/><path class="cls-28" d="M103.23,684.9a8.09,8.09,0,0,0,5.34-6.57,1.92,1.92,0,0,1-.86-3c1.85-2.57,5.69-1.08,4.43,1.73-4.27,2.3-3.2,6.91-2.66,10.69"/><path class="cls-17" d="M59.14,689.15c.77-2-1.54-1.88-2.67.19C55.73,691.21,58.45,691.53,59.14,689.15Z"/><path class="cls-17" d="M54.71,712c-.25-2.33,2.22-1.64,2.86.8C57.84,715,54.78,714.68,54.71,712Z"/><path class="cls-17" d="M58,729.68c.59-2-2.22-3.33-3.25-1.57C54.12,729.87,57.53,732.1,58,729.68Z"/><path class="cls-17" d="M68.77,743.8c.85-1.93-1.82-3.92-3.09-2.31C64.85,743.21,68,746.22,68.77,743.8Z"/><path class="cls-17" d="M91.21,747.56c-.92-1.83-3.9-.9-3.45,1.08C88.55,750.33,92.55,749.62,91.21,747.56Z"/><path class="cls-17" d="M110.92,751.8c.77-1.9,3.82-1.2,3.52.81C113.79,754.36,109.74,754,110.92,751.8Z"/><path class="cls-17" d="M130.5,738.06c1.32-1.28,2.37.6,1.21,2.17C130.53,741.44,128.87,739.39,130.5,738.06Z"/><path class="cls-17" d="M85.34,675.28c-.22-1.81-2.52-1.29-2.65.6A1.36,1.36,0,1,0,85.34,675.28Z"/><path class="cls-17" d="M110.67,675.65c1.37-1.86-1-2.3-2.76-.51C106.61,676.83,109.28,677.86,110.67,675.65Z"/><path class="cls-17" d="M138.43,692.14c-.17-1.92-3.45-3.5-3.8-1.83C134.71,692,138.91,694.53,138.43,692.14Z"/><path class="cls-17" d="M140.53,708.35c-.08-2.14-3.61-3.72-4.08-1.83C136.45,708.43,140.94,711,140.53,708.35Z"/><path class="cls-30" d="M77.63,716.5c5.15,1.39,26.39-.76,29.72-3.73,1.23-.59,5.43-1.73,4.45-.08-8.85,30.84-18.48-3.3-35.06,9C77.05,720.55,75.53,715,77.63,716.5Z"/><path class="cls-19" d="M76.39,718.51c1.83.57,22.29-4.84,21.13.47,3-3.44,2.73-6.48,3.32,2.51,0,1.41,2.42-3.52,2.59-4.35.4-1.68,1,3,6.34.84a3.81,3.81,0,0,1-5.87-.76c-3.24,8.52-3.34,5.75-4.14-.56-.33.44-2.08,4.35-2.66,2.9C97.89,714.58,77,719.33,76.39,718.51Z"/><path class="cls-20" d="M82.25,694.82c-1.4-1.25-1.45.36-3.36,2.58-1.72,1.74.39,2-.39,2.31-1.49-.93-1.17,2.23-2.7,3.09-.43.42-.24.14-1.86,1.44-.43.33-.81.65-1.14.93.65.59,0,.32-.36.3,0,.17.32.33.07.37s-.06-.18-.15-.31c-1.07.9-1.6,1.38-1.74,1.28-.29-.37,1.74-2.38.52-2.87.21-.22.26.24.6.4,0,.17-.21-.59-.14-.62.1-.35.3.19.36.37,1.22-2,5.47-4.13,3.94-6.53.34-.11.55,0,.19-.32-.28-.11,0-.51.12-.16.39,1,2.47-3.76,3.53-3.91-.26-.14-.47-.65,0-.41-.14-.2-.3-.4-.19-.61,1,1,2.32-.47,3.23-.62,0,.93-1.26,2.31-1,2.72S82.58,694.59,82.25,694.82Z"/><path class="cls-21" d="M81.59,694h0S81.55,694,81.59,694Z"/><path class="cls-21" d="M81.59,694h0S81.55,694,81.59,694Z"/><path class="cls-21" d="M71.78,704.38s0,0,0,0Z"/><path class="cls-21" d="M71.78,704.38s0,0,0,0Z"/><path class="cls-31" d="M93.64,705.17c2.59-4.6,12.55-6.4,16.66-5.61-1.66,7.77-12,10.64-17.24,6.69Z"/><path class="cls-30" d="M87.33,706.26c-1.6-4.12-10.65-7.15-14-7.3-3.06-.59,2.23,7.06,4,7.55C79.22,708.31,89.28,708.77,87.33,706.26Z"/><path class="cls-20" d="M83.21,705.75c-1.17,3.26-5.39,1.69-4.14-1.55S84.47,702.51,83.21,705.75Z"/><path d="M82,705.25c-.54,1.51-2.32.85-1.74-.65S82.61,703.76,82,705.25Z"/><path class="cls-8" d="M81.28,703.93c-.25.7-1.06.39-.8-.29S81.55,703.25,81.28,703.93Z"/><path class="cls-20" d="M103.88,704.17c.56,3.66-3.91,3.93-4.35.45C99,701,103.43,700.69,103.88,704.17Z"/><path d="M102.61,704.25c.26,1.69-1.62,1.8-1.83.19S102.4,702.64,102.61,704.25Z"/><path class="cls-8" d="M101.18,703.32c.11.77-.75.82-.85.08S101.08,702.58,101.18,703.32Z"/><path class="cls-23" d="M93.34,705.89c4.85-7.41,17.67-8.24,19-10.24C107,693.4,94.19,700.83,93.34,705.89Z"/><path class="cls-23" d="M88,706.6c-2.62-4.41-12.66-13.07-13.67-14.41C78.19,692.16,88.76,703.8,88,706.6Z"/><path class="cls-32" d="M1266,658c-3.74-.17-10.5-.54-17.22-4.93-9.66-6.31-12.14-16.26-12.8-19.06-1-4.22-2.53-14.82,4.32-24.64,7.18-10.3,18.55-12.49,22.21-13.2a34.63,34.63,0,0,1,19.16,1.23,33,33,0,0,1,17.44,15.68c1.55,3,5.72,11.2,3.09,21.3-2.74,10.52-11,15.91-13.85,17.77A37.78,37.78,0,0,1,1266,658Z"/><path class="cls-33" d="M1260,647.91a6.23,6.23,0,0,1-2.54-3.88c-1.2-4.85,2.72-10.62,6.89-13.64,7.67-5.55,16.88-2.32,17.31-2.17a21.43,21.43,0,0,1,11.57,12.58c.46,1.3.61,2.43.07,3.26-.82,1.25-3,1.53-4.71,1-3.19-1-2.72-4.23-6-6.06-2.43-1.33-6.07-1.43-8.24.21s-1.24,3.69-4,6.27a10.73,10.73,0,0,1-4.23,2.41C1264.65,648.37,1262.08,649.18,1260,647.91Z"/><path class="cls-33" d="M1255.43,626.85a6.76,6.76,0,0,1-4.34-3.22,7.36,7.36,0,0,1,3.69-9.48,7.44,7.44,0,0,1,9.54,3.57,7,7,0,0,1-.19,5.74C1262.47,626.63,1258.45,627.65,1255.43,626.85Z"/><path class="cls-33" d="M1277.57,620.37a5,5,0,0,1-3.23-2.71c-1.13-2.62,0-6.62,2.78-8.06a5.27,5.27,0,0,1,7.12,3,6.66,6.66,0,0,1-.16,4.87A5.5,5.5,0,0,1,1277.57,620.37Z"/><path class="cls-33" d="M1250.62,608.75c-.27.34.4,1.46,1.12,2.11.94.83,1.81.76,3.52,1.23,1.46.41,1.1.55,4.2,1.8,3.49,1.4,4.07,1.28,4.47,1.09a3.36,3.36,0,0,0,1.53-3.33c-.13-1.11-.85-2.26-1.29-2.17-.63.12.12,2.57-1,3.52C1260.83,615.13,1251.5,607.65,1250.62,608.75Z"/><path class="cls-33" d="M1284.44,605.28c.34.3-.13,1.51-.73,2.27-.78,1-1.65,1.07-3.25,1.83-1.37.66-1,.73-3.83,2.5-3.19,2-3.79,2-4.22,1.84a3.35,3.35,0,0,1-2.08-3c-.06-1.12.45-2.37.9-2.37.64,0,.33,2.56,1.54,3.31C1275.49,613.34,1283.4,604.36,1284.44,605.28Z"/><path class="cls-33" d="M1262.38,657.76c0-.63,11.12.58,21.85-5.28,3-1.65,10.12-5.67,14-14.25.4-.91,4.37-10.12,1.18-20.22,0,0-1.11-3.5-9.38-15.94h0l1,.8a38.3,38.3,0,0,1,7.47,9,31.08,31.08,0,0,1,3.94,10,27,27,0,0,1,.12,11.26,28.13,28.13,0,0,1-3.79,9.12,31.22,31.22,0,0,1-8.33,8.56,36.22,36.22,0,0,1-19,7.09C1267.16,658.31,1262.41,658.17,1262.38,657.76Z"/><circle class="cls-34" cx="1257.8" cy="620.38" r="6.19"/><circle class="cls-35" cx="1279.24" cy="615.08" r="4.47"/><path class="cls-7" d="M1281.53,614.93c.76,3.55-3.87,4.49-4.55.91S1280.85,611.35,1281.53,614.93Z"/><path d="M1280.2,615.14c.35,1.64-1.6,2-1.91.39S1279.89,613.49,1280.2,615.14Z"/><path class="cls-8" d="M1278.8,614.38c.16.76-.73.94-.88.18S1278.65,613.63,1278.8,614.38Z"/><path class="cls-7" d="M1260.68,619.74c.92,4.28-4.54,5.39-5.36,1.09S1259.87,615.44,1260.68,619.74Z"/><path d="M1259.12,620c.42,2-1.88,2.44-2.26.46S1258.74,618,1259.12,620Z"/><path class="cls-8" d="M1257.46,619.08c.19.9-.86,1.12-1,.21S1257.29,618.17,1257.46,619.08Z"/><path class="cls-36" d="M1250.45,608.68a7.21,7.21,0,0,0,1.85,1.54,9.71,9.71,0,0,0,3.4,1c3.66.83,4,3.27,6.71,3.12.24,0,2-.11,2.53-1.22s-.17-2.32-.5-3c-.15-.31-.21-.31-.23-.31s0,.52,0,1.13a2.73,2.73,0,0,1-.23,1.65c-.43.53-1.47.35-2.08.23-1.76-.33-2-1-4-1.79a23.37,23.37,0,0,0-3.23-.87,18.38,18.38,0,0,1-2.06-.48A10.5,10.5,0,0,1,1250.45,608.68Z"/><path class="cls-36" d="M1284.48,605a7,7,0,0,1-1.5,1.81,9.14,9.14,0,0,1-3.07,1.52c-3.33,1.39-3.31,3.85-5.86,4.12-.23,0-1.89.2-2.6-.81s-.23-2.31,0-3c.09-.32.15-.33.17-.33s.07.51.16,1.11a2.82,2.82,0,0,0,.49,1.6c.49.45,1.45.11,2-.1,1.62-.6,1.7-1.32,3.48-2.38a20,20,0,0,1,2.93-1.37,16.17,16.17,0,0,0,1.87-.8A9.42,9.42,0,0,0,1284.48,605Z"/><path class="cls-37" d="M1258.43,642.21a12.36,12.36,0,0,1,1.79-8.22c3.38-5.18,9.86-6.37,11.09-6.57a21.27,21.27,0,0,1,15.5,3.85,15.62,15.62,0,0,1,5.8,8.2c.76,2.32.32,3,0,3.32-.93.77-3,.41-4.41-.43-1.91-1.19-1.19-2.65-2.82-4.57-1.92-2.25-5.61-3.43-8.75-3.13a10,10,0,0,0-5.07,2c-2.75,2.07-4.23,5.64-5.17,7.88-.59,1.43-.89,2.46-2,2.89a4.71,4.71,0,0,1-4.16-.89C1259.71,646.2,1258.65,645.24,1258.43,642.21Z"/><path class="cls-38" d="M1266.34,644.11c-.69.26-3.31-2.76-3.32-5.44,0-3.75,5.16-7.53,9.91-7.73,6-.27,11.3,5.26,11.2,5.45a5.15,5.15,0,0,1-.94-.33,18.76,18.76,0,0,0-2.22-1,9.55,9.55,0,0,0-4.13-.48,11,11,0,0,0-5.21,1.78,10.92,10.92,0,0,0-2.77,3,11.66,11.66,0,0,0-2.14,4.19A.66.66,0,0,1,1266.34,644.11Z"/><path class="cls-39" d="M1279.34,628c.35.36-.07,1.09-.48,1.78-.66,1.12-.56.69-1.49,1.87-.08.1-.81.79-1,.75s-.21-.77-.25-1c-.13-.89-.23-.43-.3-1.07a5.14,5.14,0,0,1,.32-2.19c.09-.27,0-.66.29-.73s.32.08.76.16l1,.18C1279.14,627.82,1279.12,627.74,1279.34,628Z"/><path class="cls-39" d="M1258.75,642.83c1.08,1,3.31-.48,2.86-1.93s-2.72-1.68-3.14-1.11c-.09.13,0,.24,0,.79C1258.69,642.22,1258.45,642.51,1258.75,642.83Z"/><path class="cls-40" d="M1261,640.91c-.93-.43-1.92,1.31-1,1.84S1262.14,641.36,1261,640.91Z"/><path class="cls-39" d="M1260.94,633.57c0,1.48,2.68,2,3.39.66s-.73-3.11-1.43-3c-.16,0-.21.14-.55.57C1261.33,633.1,1261,633.13,1260.94,633.57Z"/><path class="cls-40" d="M1263.9,633.81c-.36-1-2.28-.43-2,.6C1262.14,635.28,1264.38,634.93,1263.9,633.81Z"/><path class="cls-39" d="M1268.35,628.52c-.77,1.27,1.17,3.14,2.5,2.39s1.06-3,.41-3.31c-.14-.06-.25,0-.77.19C1268.93,628.33,1268.6,628.16,1268.35,628.52Z"/><path class="cls-40" d="M1270.7,630.32c.23-1-1.68-1.59-2-.58S1270.51,631.53,1270.7,630.32Z"/><path class="cls-39" d="M1284.76,630.21c-1.47.21-1.68,2.89-.26,3.44s3-1.1,2.82-1.78c0-.15-.16-.19-.63-.47C1285.28,630.53,1285.2,630.17,1284.76,630.21Z"/><path class="cls-40" d="M1284.85,633.22c.92-.46.16-2.31-.82-1.92S1283.79,633.84,1284.85,633.22Z"/><path class="cls-40" d="M1276.43,632.17c-.09,0,0-.69-.31-1.51a1.5,1.5,0,0,1-.1-.3,2.65,2.65,0,0,1,0-1c.07-.46.11-.7.23-.81a.82.82,0,0,1,1,0c.3.3,0,1-.18,1.65-.08.24-.1.23-.21.52C1276.54,631.58,1276.52,632.18,1276.43,632.17Z"/><path class="cls-39" d="M1266.79,642.44c-.47.19-1-.48-1.46-1.13a10.78,10.78,0,0,1-1.16-2.08c-.06-.12-.42-1.05-.32-1.18s.79.1,1.05.16c.86.22.47-.05,1.09.14a5,5,0,0,1,1.91,1.13c.21.19.59.29.56.55s-.19.26-.44.64c-.15.22-.45.7-.57.9C1267,642.31,1267.09,642.32,1266.79,642.44Z"/><path class="cls-40" d="M1264,638.15c0-.09.65.25,1.51.28l.32,0a2.5,2.5,0,0,1,.93.39c.4.25.6.37.66.53a.8.8,0,0,1-.34,1c-.4.17-1-.35-1.46-.79-.19-.17-.17-.18-.4-.39C1264.53,638.47,1264,638.22,1264,638.15Z"/><path class="cls-39" d="M1273.38,635.17c.51-1.39-1.74-2.85-2.9-1.87s-.47,3.17.21,3.33c.16,0,.24,0,.72-.33C1272.84,635.47,1273.2,635.58,1273.38,635.17Z"/><path class="cls-40" d="M1270.72,634.09c0,1,2,1.24,2.08.19C1272.9,633.38,1270.68,632.87,1270.72,634.09Z"/><path class="cls-39" d="M1287.48,641.4c1.38.54,2.87-1.7,1.9-2.87s-3.15-.52-3.32.17c0,.15,0,.24.31.72C1287.18,640.86,1287.07,641.22,1287.48,641.4Z"/><path class="cls-40" d="M1288.87,638.78c-1,0-1.27,1.94-.22,2.08C1289.55,641,1290.09,638.77,1288.87,638.78Z"/><path class="cls-39" d="M1281.4,635c1.08-.57.47-2.65-.79-2.67s-2,1.66-1.67,2.12c.08.11.18.1.63.19C1280.91,634.9,1281.07,635.15,1281.4,635Z"/><path class="cls-40" d="M1280.46,632.8c-.57.61.54,1.8,1.19,1.23S1281.11,632,1280.46,632.8Z"/><path class="cls-41" d="M1263.52,647.59a3,3,0,0,0,2-1,2.68,2.68,0,0,0,.57-1.1s.52-1.62,1.24-3.52a13.87,13.87,0,0,1,2-3,16.94,16.94,0,0,1,1.81-2.24,8.7,8.7,0,0,1,3.61-1.78,10.57,10.57,0,0,1,5.1-.25,9.13,9.13,0,0,1,5.07,2.83,7.36,7.36,0,0,1,1.41,2c.42.91.22,1.07.6,1.68a5.12,5.12,0,0,0,5,1.82,1.64,1.64,0,0,0,.85-.68,2,2,0,0,0,.1-1.24,9,9,0,0,0-.36-1.73,17.1,17.1,0,0,0-.83-2,16.62,16.62,0,0,0-.89-1.8,12.21,12.21,0,0,0-1.24-1.7,16.68,16.68,0,0,0-2.77-2.52,19.61,19.61,0,0,0-2.78-1.8,20.35,20.35,0,0,0-4.86-1.82,20.86,20.86,0,0,0-3.24-.58,18.8,18.8,0,0,0-6.6.62,18.49,18.49,0,0,0-4.86,2.15,13.29,13.29,0,0,0-4,3.43,11.64,11.64,0,0,0-1.78,3.5,12.44,12.44,0,0,0-.47,3.78,12.78,12.78,0,0,0,.26,2.79,5.39,5.39,0,0,0,.93,2.46,4.52,4.52,0,0,0,2.21,1.43A4,4,0,0,0,1263.52,647.59Z"/><path class="cls-42" d="M1271.41,597c2.79-.44,6.92-4.94,6.77-8-5.59-4.46,4.42-7.35,6.8-3.11,1.07,1.89-1.8,3.83-3.49,3.27-2.55,1.33-2.49,8.16-.42,9.36"/><path class="cls-42" d="M1282.84,586.4c1.39,2.7-5.44.69-3.45-1.08"/><path class="cls-42" d="M1247.21,606.24c1.75-2.21,1.73-8.32-.43-10.43-7.14.53-1.76-8.4,2.87-6.9,2.07.65,1.29,4-.34,4.76-1,2.72,3.72,7.69,6.06,7.15"/><path class="cls-42" d="M1248.41,590.71c2.84,1-3.53,4.2-3.27,1.55"/><path class="cls-42" d="M1241.92,612.93c-1.6,2.32-7.43,4.11-10.09,2.68-1.61-7-8.54.82-5.73,4.79,1.23,1.78,4.22,0,4.45-1.74,2.3-1.73,8.43,1.28,8.62,3.66"/><path class="cls-42" d="M1227.44,618.68c1.84,2.41,3-4.62.51-3.58"/><path class="cls-42" d="M1244.23,645.32c-2-2.05-8-2.9-10.39-1.06-.49,7.13-8.56.53-6.41-3.84.94-1.95,4.16-.69,4.66,1,2.55,1.34,8.14-2.58,7.94-5"/><path class="cls-42" d="M1229,641.91c1.44-2.66,3.65,4.1,1.07,3.46"/><path class="cls-42" d="M1251.92,652c2,2,2.7,8.06.81,10.41-7.15.32-.76,8.55,3.66,6.51,2-.89.8-4.15-.89-4.69-1.28-2.58,2.78-8.06,5.16-7.81"/><path class="cls-42" d="M1254.94,667.27c2.71-1.37-4-3.75-3.42-1.15"/><path class="cls-42" d="M1282,653.05c-2.24,1.72-3.73,7.64-2.16,10.22,7,1.25-.38,8.57-4.49,6-1.85-1.14-.25-4.22,1.5-4.53,1.61-2.39-1.7-8.36-4.09-8.43"/><path class="cls-42" d="M1277,667.81c-2.5-1.71,4.45-3.19,3.55-.69"/><path class="cls-42" d="M1296.76,640.65c-1.38,2.92.34,9.69,3.38,11.47,8-2.47,4.33,8.86-1.37,8.41-2.53-.18-2.58-4.13-.93-5.38.35-3.26-6.37-7.54-8.88-6.34"/><path class="cls-42" d="M1299.7,658.21c-3.54-.4,2.86-5.59,3.3-2.58"/><path class="cls-42" d="M1290,603.44c2.3,1.64,8.4,1.3,10.39-1-.89-7.1,8.31-2.17,7,2.52-.55,2.1-4,1.49-4.78-.09-2.76-.83-7.48,4.1-6.83,6.4"/><path class="cls-42" d="M1305.56,603.85c-.89,2.89-4.37-3.31-1.71-3.19"/><path class="cls-42" d="M1298.9,635.4c1.31-2.5,6.89-5,9.7-3.86,2.43,6.73,8.38-1.83,5.12-5.44-1.44-1.62-4.2.47-4.21,2.25-2.08,2-8.53-.26-9-2.6"/><path class="cls-42" d="M1312.59,628c-2.11-2.18-2.39,4.93-.07,3.61"/><path class="cls-32" d="M1261,304c-3.74-.17-10.5-.54-17.22-4.93-9.66-6.31-12.14-16.26-12.8-19.06-1-4.22-2.53-14.82,4.32-24.64,7.18-10.3,18.55-12.49,22.21-13.2a34.63,34.63,0,0,1,19.16,1.23,33,33,0,0,1,17.44,15.68c1.55,3,5.72,11.2,3.09,21.3-2.74,10.52-11,15.91-13.85,17.77A37.78,37.78,0,0,1,1261,304Z"/><path class="cls-33" d="M1255,293.91a6.23,6.23,0,0,1-2.54-3.88c-1.2-4.85,2.72-10.62,6.89-13.64,7.67-5.55,16.88-2.32,17.31-2.17a21.43,21.43,0,0,1,11.57,12.58c.46,1.3.61,2.43.07,3.26-.82,1.25-3,1.53-4.71,1-3.19-.95-2.72-4.23-6-6.06-2.43-1.33-6.07-1.43-8.24.21s-1.24,3.69-4,6.27a10.73,10.73,0,0,1-4.23,2.41C1259.65,294.37,1257.08,295.18,1255,293.91Z"/><path class="cls-33" d="M1250.43,272.85a6.76,6.76,0,0,1-4.34-3.22,7.36,7.36,0,0,1,3.69-9.48,7.44,7.44,0,0,1,9.54,3.57,7,7,0,0,1-.19,5.74C1257.47,272.63,1253.45,273.65,1250.43,272.85Z"/><path class="cls-33" d="M1272.57,266.37a5,5,0,0,1-3.23-2.71c-1.13-2.62,0-6.62,2.78-8.06a5.27,5.27,0,0,1,7.12,3,6.66,6.66,0,0,1-.16,4.87A5.5,5.5,0,0,1,1272.57,266.37Z"/><path class="cls-33" d="M1245.62,254.75c-.27.34.4,1.46,1.12,2.11.94.83,1.81.76,3.52,1.23,1.46.41,1.1.55,4.2,1.8,3.49,1.4,4.07,1.28,4.47,1.09a3.36,3.36,0,0,0,1.53-3.33c-.13-1.11-.85-2.26-1.29-2.17-.63.12.12,2.57-1,3.52C1255.83,261.13,1246.5,253.65,1245.62,254.75Z"/><path class="cls-33" d="M1279.44,251.28c.34.3-.13,1.51-.73,2.27-.78,1-1.65,1.07-3.25,1.83-1.37.66-1,.73-3.83,2.5-3.19,2-3.79,2-4.22,1.84a3.35,3.35,0,0,1-2.08-3c-.06-1.12.45-2.37.9-2.37.64,0,.33,2.56,1.54,3.31C1270.49,259.34,1278.4,250.36,1279.44,251.28Z"/><path class="cls-33" d="M1257.38,303.76c0-.63,11.12.58,21.85-5.28,3-1.65,10.12-5.67,14-14.25.4-.91,4.37-10.12,1.18-20.22,0,0-1.11-3.5-9.38-15.94h0l1,.8a38.3,38.3,0,0,1,7.47,8.95,31.08,31.08,0,0,1,3.94,10,27,27,0,0,1,.12,11.26,28.13,28.13,0,0,1-3.79,9.12,31.22,31.22,0,0,1-8.33,8.56,36.22,36.22,0,0,1-19,7.09C1262.16,304.31,1257.41,304.17,1257.38,303.76Z"/><circle class="cls-34" cx="1252.8" cy="266.38" r="6.19"/><circle class="cls-35" cx="1274.24" cy="261.08" r="4.47"/><path class="cls-7" d="M1276.53,260.93c.76,3.55-3.87,4.49-4.55.91S1275.85,257.35,1276.53,260.93Z"/><path d="M1275.2,261.14c.35,1.64-1.6,2-1.91.39S1274.89,259.49,1275.2,261.14Z"/><path class="cls-8" d="M1273.8,260.38c.16.76-.73.94-.88.18S1273.65,259.63,1273.8,260.38Z"/><path class="cls-7" d="M1255.68,265.74c.92,4.28-4.54,5.39-5.36,1.09S1254.87,261.44,1255.68,265.74Z"/><path d="M1254.12,266c.42,2-1.88,2.44-2.26.46S1253.74,264,1254.12,266Z"/><path class="cls-8" d="M1252.46,265.08c.19.9-.86,1.12-1,.21S1252.29,264.17,1252.46,265.08Z"/><path class="cls-36" d="M1245.45,254.68a7.21,7.21,0,0,0,1.85,1.54,9.71,9.71,0,0,0,3.4,1c3.66.83,4,3.27,6.71,3.12.24,0,2-.11,2.53-1.22s-.17-2.32-.5-3c-.15-.31-.21-.31-.23-.31s0,.52,0,1.13a2.73,2.73,0,0,1-.23,1.65c-.43.53-1.47.35-2.08.23-1.76-.33-2-1-4-1.79a23.37,23.37,0,0,0-3.23-.87,18.38,18.38,0,0,1-2.06-.48A10.5,10.5,0,0,1,1245.45,254.68Z"/><path class="cls-36" d="M1279.48,251a7,7,0,0,1-1.5,1.81,9.14,9.14,0,0,1-3.07,1.52c-3.33,1.39-3.31,3.85-5.86,4.12-.23,0-1.89.2-2.6-.81s-.23-2.31,0-3c.09-.32.15-.33.17-.33s.07.51.16,1.11a2.82,2.82,0,0,0,.49,1.6c.49.45,1.45.11,2-.1,1.62-.6,1.7-1.32,3.48-2.38a20,20,0,0,1,2.93-1.37,16.17,16.17,0,0,0,1.87-.8A9.42,9.42,0,0,0,1279.48,251Z"/><path class="cls-37" d="M1253.43,288.21a12.36,12.36,0,0,1,1.79-8.22c3.38-5.18,9.86-6.37,11.09-6.57a21.27,21.27,0,0,1,15.5,3.85,15.62,15.62,0,0,1,5.8,8.2c.76,2.32.32,3,0,3.32-.93.77-3,.41-4.41-.43-1.91-1.19-1.19-2.65-2.82-4.57-1.92-2.25-5.61-3.43-8.75-3.13a10,10,0,0,0-5.07,2c-2.75,2.07-4.23,5.64-5.17,7.88-.59,1.43-.89,2.46-2,2.89a4.71,4.71,0,0,1-4.16-.89C1254.71,292.2,1253.65,291.24,1253.43,288.21Z"/><path class="cls-38" d="M1261.34,290.11c-.69.26-3.31-2.76-3.32-5.44,0-3.75,5.16-7.53,9.91-7.73,6-.27,11.3,5.26,11.2,5.45a5.15,5.15,0,0,1-.94-.33,18.76,18.76,0,0,0-2.22-1,9.55,9.55,0,0,0-4.13-.48,11,11,0,0,0-5.21,1.78,10.92,10.92,0,0,0-2.77,3,11.66,11.66,0,0,0-2.14,4.19A.66.66,0,0,1,1261.34,290.11Z"/><path class="cls-39" d="M1274.34,274c.35.36-.07,1.09-.48,1.78-.66,1.12-.56.69-1.49,1.87-.08.1-.81.79-1,.75s-.21-.77-.25-1c-.13-.89-.23-.43-.3-1.07a5.14,5.14,0,0,1,.32-2.19c.09-.27,0-.66.29-.73s.32.08.76.16l1,.18C1274.14,273.82,1274.12,273.74,1274.34,274Z"/><path class="cls-39" d="M1253.75,288.83c1.08,1,3.31-.48,2.86-1.93s-2.72-1.68-3.14-1.11c-.09.13,0,.24,0,.79C1253.69,288.22,1253.45,288.51,1253.75,288.83Z"/><path class="cls-40" d="M1256,286.91c-.93-.43-1.92,1.31-1,1.84S1257.14,287.36,1256,286.91Z"/><path class="cls-39" d="M1255.94,279.57c0,1.48,2.68,2,3.39.66s-.73-3.11-1.43-3c-.16,0-.21.14-.55.57C1256.33,279.1,1256,279.13,1255.94,279.57Z"/><path class="cls-40" d="M1258.9,279.81c-.36-1-2.28-.43-2,.6C1257.14,281.28,1259.38,280.93,1258.9,279.81Z"/><path class="cls-39" d="M1263.35,274.52c-.77,1.27,1.17,3.14,2.5,2.39s1.06-3,.41-3.31c-.14-.06-.25,0-.77.19C1263.93,274.33,1263.6,274.16,1263.35,274.52Z"/><path class="cls-40" d="M1265.7,276.32c.23-1-1.68-1.59-2-.58S1265.51,277.53,1265.7,276.32Z"/><path class="cls-39" d="M1279.76,276.21c-1.47.21-1.68,2.89-.26,3.44s3-1.1,2.82-1.78c0-.15-.16-.19-.63-.47C1280.28,276.53,1280.2,276.17,1279.76,276.21Z"/><path class="cls-40" d="M1279.85,279.22c.92-.46.16-2.31-.82-1.92S1278.79,279.84,1279.85,279.22Z"/><path class="cls-40" d="M1271.43,278.17c-.09,0,0-.69-.31-1.51a1.5,1.5,0,0,1-.1-.3,2.65,2.65,0,0,1,0-1c.07-.46.11-.7.23-.81a.82.82,0,0,1,1-.05c.3.3,0,1-.18,1.65-.08.24-.1.23-.21.52C1271.54,277.58,1271.52,278.18,1271.43,278.17Z"/><path class="cls-39" d="M1261.79,288.44c-.47.19-1-.48-1.46-1.13a10.78,10.78,0,0,1-1.16-2.08c-.06-.12-.42-1.05-.32-1.18s.79.1,1.05.16c.86.22.47,0,1.09.14a5,5,0,0,1,1.91,1.13c.21.19.59.29.56.55s-.19.26-.44.64c-.15.22-.45.7-.57.9C1262,288.31,1262.09,288.32,1261.79,288.44Z"/><path class="cls-40" d="M1259,284.15c0-.09.65.25,1.51.28l.32,0a2.5,2.5,0,0,1,.93.39c.4.25.6.37.66.53a.8.8,0,0,1-.34.95c-.4.17-1-.35-1.46-.79-.19-.17-.17-.18-.4-.39C1259.53,284.47,1259,284.22,1259,284.15Z"/><path class="cls-39" d="M1268.38,281.17c.51-1.39-1.74-2.85-2.9-1.87s-.47,3.17.21,3.33c.16,0,.24-.05.72-.33C1267.84,281.47,1268.2,281.58,1268.38,281.17Z"/><path class="cls-40" d="M1265.72,280.09c0,1,2,1.24,2.08.19C1267.9,279.38,1265.68,278.87,1265.72,280.09Z"/><path class="cls-39" d="M1282.48,287.4c1.38.54,2.87-1.7,1.9-2.87s-3.15-.52-3.32.17c0,.15,0,.24.31.72C1282.18,286.86,1282.07,287.22,1282.48,287.4Z"/><path class="cls-40" d="M1283.87,284.78c-1,0-1.27,1.94-.22,2.08C1284.55,287,1285.09,284.77,1283.87,284.78Z"/><path class="cls-39" d="M1276.4,281c1.08-.57.47-2.65-.79-2.67s-2,1.66-1.67,2.12c.08.11.18.1.63.19C1275.91,280.9,1276.07,281.15,1276.4,281Z"/><path class="cls-40" d="M1275.46,278.8c-.57.61.54,1.8,1.19,1.23S1276.11,278,1275.46,278.8Z"/><path class="cls-41" d="M1258.52,293.59a3,3,0,0,0,2-.95,2.68,2.68,0,0,0,.57-1.1s.52-1.62,1.24-3.52a13.87,13.87,0,0,1,2-3,16.94,16.94,0,0,1,1.81-2.24,8.7,8.7,0,0,1,3.61-1.78,10.57,10.57,0,0,1,5.1-.25,9.13,9.13,0,0,1,5.07,2.83,7.36,7.36,0,0,1,1.41,2c.42.91.22,1.07.6,1.68a5.12,5.12,0,0,0,5,1.82,1.64,1.64,0,0,0,.85-.68,2,2,0,0,0,.1-1.24,9,9,0,0,0-.36-1.73,17.1,17.1,0,0,0-.83-2,16.62,16.62,0,0,0-.89-1.8,12.21,12.21,0,0,0-1.24-1.7,16.68,16.68,0,0,0-2.77-2.52,19.61,19.61,0,0,0-2.78-1.8,20.35,20.35,0,0,0-4.86-1.82,20.86,20.86,0,0,0-3.24-.58,18.8,18.8,0,0,0-6.6.62,18.49,18.49,0,0,0-4.86,2.15,13.29,13.29,0,0,0-4,3.43,11.64,11.64,0,0,0-1.78,3.5,12.44,12.44,0,0,0-.47,3.78,12.78,12.78,0,0,0,.26,2.79,5.39,5.39,0,0,0,.93,2.46,4.52,4.52,0,0,0,2.21,1.43A4,4,0,0,0,1258.52,293.59Z"/><path class="cls-42" d="M1266.41,243c2.79-.44,6.92-4.94,6.77-8-5.59-4.46,4.42-7.35,6.8-3.11,1.07,1.89-1.8,3.83-3.49,3.27-2.55,1.33-2.49,8.16-.42,9.36"/><path class="cls-42" d="M1277.84,232.4c1.39,2.7-5.44.69-3.45-1.08"/><path class="cls-42" d="M1242.21,252.24c1.75-2.21,1.73-8.32-.43-10.43-7.14.53-1.76-8.4,2.87-6.9,2.07.65,1.29,4-.34,4.76-1,2.72,3.72,7.69,6.06,7.15"/><path class="cls-42" d="M1243.41,236.71c2.84,1-3.53,4.2-3.27,1.55"/><path class="cls-42" d="M1236.92,258.93c-1.6,2.32-7.43,4.11-10.09,2.68-1.61-7-8.54.82-5.73,4.79,1.23,1.78,4.22,0,4.45-1.74,2.3-1.73,8.43,1.28,8.62,3.66"/><path class="cls-42" d="M1222.44,264.68c1.84,2.41,3-4.62.51-3.58"/><path class="cls-42" d="M1239.23,291.32c-2-2.05-8-2.9-10.39-1.06-.49,7.13-8.56.53-6.41-3.84.94-1.95,4.16-.69,4.66,1,2.55,1.34,8.14-2.58,7.94-5"/><path class="cls-42" d="M1224,287.91c1.44-2.66,3.65,4.1,1.07,3.46"/><path class="cls-42" d="M1246.92,298c2,2,2.7,8.06.81,10.41-7.15.32-.76,8.55,3.66,6.51,2-.89.8-4.15-.89-4.69-1.28-2.58,2.78-8.06,5.16-7.81"/><path class="cls-42" d="M1249.94,313.27c2.71-1.37-4-3.75-3.42-1.15"/><path class="cls-42" d="M1277,299.05c-2.24,1.72-3.73,7.64-2.16,10.22,7,1.25-.38,8.57-4.49,6-1.85-1.14-.25-4.22,1.5-4.53,1.61-2.39-1.7-8.36-4.09-8.43"/><path class="cls-42" d="M1272,313.81c-2.5-1.71,4.45-3.19,3.55-.69"/><path class="cls-42" d="M1291.76,286.65c-1.38,2.92.34,9.69,3.38,11.47,8-2.47,4.33,8.86-1.37,8.41-2.53-.18-2.58-4.13-.93-5.38.35-3.26-6.37-7.54-8.88-6.34"/><path class="cls-42" d="M1294.7,304.21c-3.54-.4,2.86-5.59,3.3-2.58"/><path class="cls-42" d="M1285,249.44c2.3,1.64,8.4,1.3,10.39-1-.89-7.1,8.31-2.17,7,2.52-.55,2.1-4,1.49-4.78-.09-2.76-.83-7.48,4.1-6.83,6.4"/><path class="cls-42" d="M1300.56,249.85c-.89,2.89-4.37-3.31-1.71-3.19"/><path class="cls-42" d="M1293.9,281.4c1.31-2.5,6.89-5,9.7-3.86,2.43,6.73,8.38-1.83,5.12-5.44-1.44-1.62-4.2.47-4.21,2.25-2.08,2-8.53-.26-9-2.6"/><path class="cls-42" d="M1307.59,274c-2.11-2.18-2.39,4.93-.07,3.61"/></g></svg>