<?xml version="1.0" encoding="utf-8"?>
<!-- Generator: Adobe Illustrator 24.1.3, SVG Export Plug-In . SVG Version: 6.00 Build 0)  -->
<svg version="1.1" id="Ebene_1" xmlns="http://www.w3.org/2000/svg" xmlns:xlink="http://www.w3.org/1999/xlink" x="0px" y="0px"
	 viewBox="0 0 1366 768" style="enable-background:new 0 0 1366 768;" xml:space="preserve">
<style type="text/css">
	.st0{fill:#2C9DC6;}
	.st1{fill:#FFFFFF;}
	.st2{fill:#E8792E;stroke:#965930;stroke-width:1.65;stroke-miterlimit:10;}
	.st3{opacity:0.25;fill:#965930;stroke:#965930;stroke-width:0.33;stroke-miterlimit:10;enable-background:new    ;}
	.st4{fill:#FFE7D9;stroke:#965930;stroke-width:1.65;stroke-miterlimit:10;}
	.st5{fill:#FFEEE3;stroke:#965930;stroke-width:1.65;stroke-miterlimit:10;}
	.st6{fill:#7B5089;}
	.st7{fill:#F9F9F9;}
	.st8{fill:#965930;}
	.st9{opacity:0.25;fill:#965930;enable-background:new    ;}
	.st10{fill:none;stroke:#965930;stroke-width:1.65;stroke-linecap:round;stroke-miterlimit:10;}
	.st11{fill:#E8792E;stroke:#965930;stroke-width:1.98;stroke-linecap:round;stroke-miterlimit:10;}
	.st12{fill:#E8792E;stroke:#965930;stroke-width:1.65;stroke-linecap:round;stroke-miterlimit:10;}
	.st13{fill:#5B9DD3;stroke:#3A3C8C;stroke-width:1.34;stroke-miterlimit:10;}
	.st14{opacity:0.25;fill:#3A3C8C;stroke:#3A3C8C;stroke-width:5.000000e-02;stroke-miterlimit:10;enable-background:new    ;}
	.st15{opacity:0.25;fill:#3A3C72;enable-background:new    ;}
	.st16{fill:#CACEFF;}
	.st17{fill:#EEEEFF;stroke:#3A3C8C;stroke-width:1.34;stroke-miterlimit:10;}
	.st18{fill:#9FA588;}
	.st19{fill:#B761CF;}
	.st20{fill:#894A51;}
	.st21{fill:#E9E9FF;stroke:#3A3C8C;stroke-width:1.34;stroke-miterlimit:10;}
	.st22{fill:#507A8C;}
	.st23{fill:#5B9DD3;stroke:#3A3C8C;stroke-width:0.99;stroke-miterlimit:10;}
	.st24{opacity:0.25;fill:#3A3C8C;stroke:#3A3C8C;stroke-width:4.000000e-02;stroke-miterlimit:10;enable-background:new    ;}
	.st25{fill:#EEEEFF;stroke:#3A3C8C;stroke-width:0.99;stroke-miterlimit:10;}
	.st26{fill:#E9E9FF;stroke:#3A3C8C;stroke-width:0.99;stroke-miterlimit:10;}
	.st27{fill:#5B9DD3;stroke:#3A3C8C;stroke-width:1.41;stroke-miterlimit:10;}
	.st28{opacity:0.25;fill:#3A3C8C;stroke:#3A3C8C;stroke-width:6.000000e-02;stroke-miterlimit:10;enable-background:new    ;}
	.st29{fill:#EEEEFF;stroke:#3A3C8C;stroke-width:1.41;stroke-miterlimit:10;}
	.st30{fill:#E9E9FF;stroke:#3A3C8C;stroke-width:1.41;stroke-miterlimit:10;}
	.st31{fill:#E8792E;stroke:#965930;stroke-width:1.48;stroke-miterlimit:10;}
	.st32{opacity:0.25;fill:#965930;stroke:#965930;stroke-width:0.3;stroke-miterlimit:10;enable-background:new    ;}
	.st33{fill:#FFE7D9;stroke:#965930;stroke-width:1.48;stroke-miterlimit:10;}
	.st34{fill:#FFEEE3;stroke:#965930;stroke-width:1.48;stroke-miterlimit:10;}
	.st35{fill:#965930;stroke:#965930;stroke-width:0.3;stroke-miterlimit:10;}
	.st36{fill:#A51C1C;}
	.st37{fill:#CC3E3E;}
	.st38{fill:#EADFDF;stroke:#7C7C7C;stroke-width:0.3;stroke-miterlimit:10;}
	.st39{opacity:0.5;fill:#FFFFFF;enable-background:new    ;}
	.st40{fill:none;stroke:#965930;stroke-width:1.48;stroke-miterlimit:10;}
	.st41{fill:#E8792E;stroke:#965930;stroke-width:1.48;stroke-linecap:round;stroke-miterlimit:10;}
	.st42{clip-path:url(#SVGID_2_);}
	.st43{clip-path:url(#SVGID_4_);}
	.st44{opacity:0.2;clip-path:url(#SVGID_8_);}
	.st45{opacity:0.3;clip-path:url(#SVGID_8_);}
	.st46{opacity:0.4;clip-path:url(#SVGID_8_);}
	.st47{clip-path:url(#SVGID_8_);}
	.st48{clip-path:url(#SVGID_80_);}
	.st49{clip-path:url(#SVGID_82_);}
	.st50{clip-path:url(#SVGID_86_);}
	.st51{opacity:0.8;clip-path:url(#SVGID_80_);}
	.st52{clip-path:url(#SVGID_96_);fill:#E8792E;}
	.st53{clip-path:url(#SVGID_96_);fill:none;stroke:#965930;stroke-width:1.6103;stroke-miterlimit:10;}
	.st54{opacity:0.25;clip-path:url(#SVGID_98_);}
	.st55{clip-path:url(#SVGID_100_);fill:#965930;}
	.st56{clip-path:url(#SVGID_100_);fill:none;stroke:#965930;stroke-width:0.3221;stroke-miterlimit:10;}
	.st57{clip-path:url(#SVGID_102_);fill:#965930;}
	.st58{clip-path:url(#SVGID_102_);fill:none;stroke:#965930;stroke-width:0.3221;stroke-miterlimit:10;}
	.st59{clip-path:url(#SVGID_104_);fill:#965930;}
	.st60{clip-path:url(#SVGID_104_);fill:none;stroke:#965930;stroke-width:0.3221;stroke-miterlimit:10;}
	.st61{clip-path:url(#SVGID_106_);fill:#FFE7D9;}
	.st62{clip-path:url(#SVGID_106_);fill:none;stroke:#965930;stroke-width:1.6103;stroke-miterlimit:10;}
	.st63{clip-path:url(#SVGID_106_);fill:#FFEEE3;}
	.st64{clip-path:url(#SVGID_106_);fill:#7B5089;}
	.st65{clip-path:url(#SVGID_106_);}
	.st66{clip-path:url(#SVGID_106_);fill:#F9F9F9;}
	.st67{clip-path:url(#SVGID_108_);fill:#965930;}
	.st68{opacity:0.25;clip-path:url(#SVGID_108_);}
	.st69{clip-path:url(#SVGID_110_);fill:#965930;}
	.st70{clip-path:url(#SVGID_112_);fill:#965930;}
	.st71{clip-path:url(#SVGID_114_);fill:#965930;}
	.st72{clip-path:url(#SVGID_116_);fill:none;stroke:#965930;stroke-width:1.6103;stroke-linecap:round;stroke-miterlimit:10;}
	.st73{clip-path:url(#SVGID_118_);fill:#E8792E;}
	.st74{clip-path:url(#SVGID_118_);fill:none;stroke:#965930;stroke-width:1.9324;stroke-linecap:round;stroke-miterlimit:10;}
	.st75{clip-path:url(#SVGID_118_);fill:none;stroke:#965930;stroke-width:1.6103;stroke-linecap:round;stroke-miterlimit:10;}
</style>
<g id="Hintergrund">
	<rect x="-34.5" y="-31.5" class="st0" width="1440.9" height="824.9"/>
	<path class="st1" d="M1405.9-30.9V793H-33.9V-30.9H1405.9 M1407-32H-35v826h1442V-32z"/>
</g>
<g id="Virus">
	<path class="st2" d="M94.8,183.7c-4.1-0.5-11.6-1.4-18.8-6.8c-10.3-7.8-12.3-19-12.8-22.2c-0.8-4.8-1.7-16.7,6.7-27
		c8.8-10.9,21.6-12.4,25.7-12.9c7.2-1.1,14.5-0.1,21.2,2.8c8.1,3.8,14.6,10.5,18.2,18.8c1.5,3.4,5.5,12.9,1.8,23.9
		c-3.9,11.5-13.4,16.8-16.8,18.7C112.4,183.1,103.6,184.8,94.8,183.7z"/>
	<path class="st3" d="M85.5,148.3c-2-0.6-3.7-2-4.6-3.9c-1.5-3.5,0.5-8.7,4.8-10.2c4.1-1.4,8.7,0.6,10.3,4.7
		c0.7,2.1,0.5,4.4-0.6,6.4C93.3,148.6,88.8,149.4,85.5,148.3z"/>
	<path class="st3" d="M110.6,142.8c-1.6-0.5-2.8-1.7-3.4-3.3c-1.1-3,0.5-7.4,3.7-8.7s6.7,0.7,7.7,3.9c0.5,1.8,0.3,3.7-0.5,5.4
		C116.6,142.7,113.4,143.8,110.6,142.8z"/>
	<path class="st3" d="M90.8,183.2c0-0.7,12.3,1.5,24.7-4.2c3.5-1.6,11.7-5.5,16.6-14.8c0.5-1,5.6-10.9,2.9-22.4c0,0-1-4-9.2-18.4
		l0,0l1,1c3.1,3.1,5.6,6.6,7.6,10.5c1.9,3.6,3.1,7.4,3.6,11.4c0.6,4.2,0.4,8.4-0.7,12.5c-1,3.5-2.7,6.9-4.9,9.8
		c-2.7,3.6-6.1,6.6-9.9,8.9c-2.8,1.8-5.8,3.2-9,4.3c-4.1,1.3-8.3,2-12.6,2.1C96.1,184.2,90.8,183.6,90.8,183.2z"/>
	<circle class="st4" cx="88.6" cy="141.3" r="6.9"/>
	<circle class="st5" cx="112.9" cy="137.1" r="5"/>
	<path class="st6" d="M115.4,137.1c0.6,4-4.6,4.7-5.1,0.7S114.9,133,115.4,137.1z"/>
	<path d="M113.9,137.2c0.3,1.9-1.9,2.1-2.2,0.3S113.7,135.3,113.9,137.2z"/>
	<path class="st7" d="M112.4,136.2c0.1,0.9-0.9,1-1,0.1S112.3,135.4,112.4,136.2z"/>
	<path class="st6" d="M91.9,140.8c0.7,4.8-5.5,5.6-6,0.8S91.3,136,91.9,140.8z"/>
	<path d="M90.1,141c0.3,2.2-2.3,2.6-2.5,0.3S89.8,138.7,90.1,141z"/>
	<path class="st7" d="M88.3,139.8c0.1,1-1,1.2-1.2,0.1S88.2,138.8,88.3,139.8z"/>
	<path class="st8" d="M82.6,133.2c1.1-0.8,2.3-1.4,3.5-1.7c1.3-0.4,2.7-0.4,4,0c3.1,1.2,4.6,1.7,4.8,1.9c0.1,0.1,0.3,0.1,0.4,0
		c0.2-0.4,0.3-0.8,0.2-1.2c-0.1-0.8-0.5-1.6-1.2-2c-1-0.7-1.8-0.6-3.6-0.6c-1.1-0.1-2.1-0.1-3.2,0c-1.3,0.1-2.5,0.5-3.6,1.3
		s-2,2-2.6,3.3C81.4,134.2,81.9,133.7,82.6,133.2z"/>
	<path class="st9" d="M82.4,134.4c1.1-0.8,2.3-1.4,3.5-1.7c1.3-0.4,2.7-0.4,4,0c3.1,1.2,4.6,1.7,4.9,1.9c0.1,0.1,0.3,0.1,0.4,0
		c0.2-0.4,0.3-0.8,0.2-1.2c-0.1-0.8-0.5-1.6-1.2-2c-1-0.7-1.8-0.6-3.6-0.6c-1.1-0.1-2.1-0.1-3.2,0c-1.3,0.1-2.5,0.5-3.6,1.3
		c-1.1,0.9-2,2-2.6,3.3C81.2,135.5,81.6,135,82.4,134.4z"/>
	<path class="st8" d="M117.8,130.4c-1.1-0.7-2.4-1.1-3.7-1.3c-1.3-0.3-2.7-0.1-3.9,0.4c-2.9,1.4-4.4,2.2-4.6,2.3
		c-0.1,0.1-0.3,0.1-0.4,0c-0.2-0.3-0.3-0.8-0.3-1.2c0-0.8,0.4-1.6,1-2.1c0.9-0.8,1.7-0.8,3.5-0.9c1-0.2,2.1-0.2,3.2-0.3
		c1.3-0.1,2.5,0.2,3.6,0.9c1.2,0.7,2.2,1.7,2.9,2.9C119,131.3,118.6,130.8,117.8,130.4z"/>
	<path class="st9" d="M118.1,131.6c-1.1-0.7-2.4-1.1-3.6-1.3c-1.3-0.3-2.7-0.1-3.9,0.4c-2.9,1.4-4.4,2.2-4.6,2.3
		c-0.1,0.1-0.3,0.1-0.4,0c-0.2-0.3-0.3-0.8-0.3-1.2c0-0.8,0.4-1.6,1-2.1c0.9-0.8,1.7-0.8,3.5-0.9c1-0.2,2.1-0.2,3.2-0.3
		c1.3-0.1,2.5,0.2,3.6,0.9c1.2,0.7,2.2,1.7,2.9,2.9C119.4,132.5,118.9,132.1,118.1,131.6z"/>
	<path class="st10" d="M119.9,156.4c-2.3,1.9-6.1,5.4-11.3,6.8c-10.7,2.9-19.1-2.8-21.6-4.1"/>
	<path class="st9" d="M87.1,160c-0.2,0.4,2.2,2,4.4,3.1c3.8,1.9,8,2.8,12.2,2.7c1.6-0.1,10-0.4,14.7-6c0.8-1,1.8-2.5,1.6-2.6
		s-2.3,2.3-4.8,3.9c-4.6,3.1-9.7,3-12.3,3C93.8,164,87.3,159.5,87.1,160z"/>
	<path class="st11" d="M105.6,116.3c3.1-0.3,8.1-4.9,8.1-8.3c-5.9-5.4,5.5-7.8,7.8-2.9c1.1,2.2-2.3,4.1-4.1,3.4
		c-2.9,1.3-3.4,8.9-1.2,10.4"/>
	<path class="st11" d="M119.1,105.5c1.3,3.1-6.1,0.3-3.8-1.5"/>
	<path class="st12" d="M77.9,124.8c2.1-2.3,2.6-9.1,0.3-11.6c-8,0-1.3-9.5,3.7-7.4c2.3,0.9,1.1,4.6-0.7,5.3
		c-1.3,2.9,3.6,8.8,6.2,8.4"/>
	<path class="st12" d="M80.5,107.6c3.1,1.4-4.2,4.4-3.8,1.5"/>
	<path class="st12" d="M71.6,131.8c-2,2.5-8.6,4-11.4,2.2c-1.3-7.9-9.6,0.3-6.7,4.9c1.2,2.1,4.7,0.4,5.1-1.6
		c2.7-1.7,9.3,2.1,9.3,4.7"/>
	<path class="st12" d="M55,137.1c1.8,2.8,3.6-4.9,0.8-3.9"/>
	<path class="st12" d="M71.6,168c-2-2.4-8.7-3.8-11.4-2c-1.1,7.9-9.6-0.1-6.8-4.8c1.2-2.1,4.7-0.4,5.1,1.5c2.7,1.7,9.2-2.2,9.2-4.9"
		/>
	<path class="st12" d="M55,163c1.8-2.9,3.7,4.8,0.9,3.9"/>
	<path class="st12" d="M79.7,176c2.1,2.4,2.4,9.2,0.1,11.6c-8-0.2-1.5,9.4,3.6,7.5c2.3-0.8,1.2-4.5-0.6-5.3c-1.2-3,3.7-8.8,6.3-8.3"
		/>
	<path class="st12" d="M81.8,193.2c3.1-1.3-4.2-4.5-3.7-1.5"/>
	<path class="st12" d="M113,179.5c-2.6,1.7-4.7,8.2-3.2,11.2c7.7,1.9-1.1,9.5-5.4,6.3c-2-1.4,0-4.7,2-4.9c2-2.5-1.2-9.4-3.9-9.7"/>
	<path class="st12" d="M106.3,195.5c-2.7-2.1,5.2-3.2,4-0.5"/>
	<path class="st12" d="M130.3,166.8c-1.8,3.1-0.4,10.8,2.9,13c9.1-2.1,4.1,10.2-2.2,9.2c-2.8-0.4-2.6-4.8-0.6-6
		c0.6-3.6-6.5-8.9-9.4-7.7"/>
	<path class="st12" d="M132.3,186.6c-3.9-0.7,3.6-6,3.9-2.6"/>
	<path class="st12" d="M125.7,125c2.4,2,9.2,2.1,11.6-0.3c-0.4-8,9.4-1.8,7.6,3.3c-0.8,2.3-4.5,1.4-5.3-0.5c-3-1.1-8.6,4-8.1,6.6"/>
	<path class="st12" d="M143,126.6c-1.2,3.1-4.6-4-1.7-3.7"/>
	<path class="st12" d="M133.1,161.2c1.6-2.7,8-5,11.1-3.6c2.2,7.7,9.5-1.4,6.1-5.6c-1.5-1.9-4.7,0.2-4.9,2.2
		c-2.5,2.1-9.5-0.9-9.8-3.6"/>
	<path class="st12" d="M148.9,153.9c-2.2-2.6-3,5.3-0.4,4"/>
	<path class="st13" d="M45.7,233.3c-0.9,0.6-6,6.5-8.6,3.9c-3.1-2-5.1,3.5-2.2,4.6c3.1,1.1,2.2-2.5,4-3.4c2.8-1.8,5.9,0.3,7.5,0.4
		C47.6,238.2,46.9,233.6,45.7,233.3z"/>
	<path class="st13" d="M46.7,256.5c-2.4-0.7-4.2-2.2-8.5-0.9c-1.6,4.1-6.7,1.2-4.2-2c2.6-2.2,2.7,1.3,4.8,1.3
		c2.9,0.5,5.4-2.8,6.6-3.4C46.8,251.6,47.7,255.8,46.7,256.5z"/>
	<path class="st13" d="M89.5,264.1c-0.7,2.7-2.5,4.9-0.9,9.8c4.8,1.6,1.4,7.6-2.3,5c-2.6-2.9,1.5-3.2,1.3-5.6
		c0.4-3.7-3.2-5.8-4.1-7.3C83.8,264.4,88.7,263,89.5,264.1z"/>
	<path class="st13" d="M101.1,256.1c0.6,2,0.4,4.6,3.3,7c3.8-1,3.9,4.6,0.4,4.4c-2.8-0.7-0.3-2.9-1.3-4.4c-1.1-2.6-4.4-2.6-5.6-3.3
		C97.4,258.7,100.1,255.7,101.1,256.1z"/>
	<path class="st13" d="M98.1,222.7c1.3,0,9.3,1.4,9.9-2.6c4.3-6.4,9.4,7.1-0.8,2.3c-3.5,0.4-5,4.5-6.2,5.5
		C99.5,228.1,97.2,223.7,98.1,222.7z"/>
	<path class="st13" d="M61.4,215.3c0.5-2,1.7-3.9,0.4-7.4c-3.6-1.1-1.3-5.8,1.6-3.7c2,2-1,2.5-0.9,4.2c-0.3,2.5,2.7,4.6,3.2,5.5
		C65.7,215.1,62,216.1,61.4,215.3z"/>
	<path class="st13" d="M47.2,221.9c52.9-49.1,95,67.3,15.7,42.5c-16.6-3.2-21.7-6.7-18.5-20.7C38.5,234.3,39.5,228,47.2,221.9z"/>
	<path class="st14" d="M64.5,264.2c20.3,4.9,39-8.8,39.5-31.7C116.1,265.9,87.3,273.5,64.5,264.2z"/>
	<path class="st15" d="M53.9,248.7c-0.2-11.8-0.6-2.3,8.2-5c2.3-1.3,16.2-1,17.8-2c8.2-6.5,13.1-3.2,5.4,6.2
		C77.7,264.6,69.6,237.4,53.9,248.7z"/>
	<path class="st14" d="M50.5,240.6c-0.2,0.5-0.8,0.8-1.3,0.6s-0.8-0.8-0.6-1.3l0,0c0.2-0.5,0.8-0.8,1.3-0.6
		C50.4,239.4,50.6,240,50.5,240.6z"/>
	<path class="st14" d="M50.7,242.1c-0.1,0.3-0.4,0.4-0.7,0.3c-0.3-0.1-0.4-0.4-0.3-0.7s0.4-0.4,0.7-0.3S50.8,241.8,50.7,242.1
		L50.7,242.1z"/>
	<path class="st15" d="M89.5,224c-1.3,4.7-2.5,6.7-5.6,9.5c-4.6,2.7-10.2,3.1-13.3,0.8C67.7,231.4,90.6,218.4,89.5,224z"/>
	<path class="st15" d="M65,234.9c-21.6,10-18.1-31.3-2.4-5.4C64.6,231.9,65.8,232.2,65,234.9z"/>
	<path class="st13" d="M102.3,232.2c1.9,2.6,5.1,3.9,8.3,3.3c0.1-1.1,1.1-2,2.2-1.9c0.2,0,0.4,0.1,0.6,0.1c3.2,1.1,2.8,5.4-0.4,5
		c-3.7-3.6-8-1-11.7,0.7"/>
	<path class="st13" d="M71,262.6c-2.6,1.8-4,5-3.4,8.1c1.1,0.1,2,1.1,1.9,2.3c0,0.2-0.1,0.4-0.1,0.5c-1.1,3.1-5.4,2.6-5-0.5
		c3.7-3.6,1.2-7.9-0.4-11.6"/>
	<path class="st13" d="M49.6,256.6c1,3.2,0.1,6.8-2.4,9.1c-1-0.7-2.3-0.4-2.9,0.6c-0.1,0.2-0.2,0.4-0.3,0.6
		c-1.1,3.4,2.8,5.8,4.5,2.8c-0.7-5.3,4.1-7.4,7.9-9.4"/>
	<path class="st13" d="M48.1,224.3c-3.3,0.3-6.4-1.3-8.1-4.1c0.8-0.8,0.8-2.1,0-2.9c-0.1-0.1-0.3-0.3-0.5-0.4
		c-2.9-1.7-6,1.5-3.6,3.6c5.2,0.4,6.2,5.4,7.3,9.3"/>
	<path class="st13" d="M79.7,213.9c2.7-1,4.7-3.4,5.1-6.2c-0.9-0.4-1.4-1.4-1.1-2.4c0.1-0.2,0.2-0.3,0.3-0.5c1.8-2.4,5.4-1,4.2,1.6
		c-4.1,2.2-3,6.6-2.5,10.2"/>
	<path class="st16" d="M37.8,218c0.7-1.9-1.5-1.8-2.5,0.2C34.5,219.9,37.1,220.2,37.8,218z"/>
	<path class="st16" d="M33.5,239.7c-0.2-2.2,2.1-1.6,2.7,0.8C36.5,242.5,33.6,242.2,33.5,239.7z"/>
	<path class="st16" d="M36.6,256.5c0.5-1.9-2.1-3.2-3.1-1.5C33,256.7,36.2,258.8,36.6,256.5z"/>
	<path class="st16" d="M46.9,269.9c0.8-1.8-1.7-3.7-2.9-2.2C43.2,269.3,46.2,272.2,46.9,269.9z"/>
	<path class="st16" d="M68.2,273.5c-0.9-1.7-3.7-0.9-3.3,1C65.7,276.1,69.5,275.4,68.2,273.5z"/>
	<path class="st16" d="M87,277.6c0.7-1.8,3.6-1.1,3.3,0.8C89.7,279.9,85.9,279.6,87,277.6z"/>
	<path class="st16" d="M105.6,264.5c1.3-1.2,2.3,0.6,1.2,2.1C105.6,267.7,104,265.7,105.6,264.5z"/>
	<path class="st16" d="M62.7,204.8c-0.2-1.7-2.4-1.2-2.5,0.6c0.1,0.7,0.8,1.2,1.5,1.1c0.7-0.1,1.2-0.8,1.1-1.5
		C62.7,204.9,62.7,204.8,62.7,204.8z"/>
	<path class="st16" d="M86.7,205.1c1.3-1.8-1-2.2-2.6-0.5C82.9,206.2,85.4,207.2,86.7,205.1z"/>
	<path class="st16" d="M113.1,220.8c-0.2-1.8-3.3-3.3-3.6-1.7C109.6,220.7,113.6,223.1,113.1,220.8z"/>
	<path class="st16" d="M115.1,236.2c-0.1-2-3.4-3.5-3.9-1.7C111.3,236.3,115.5,238.7,115.1,236.2z"/>
	<path class="st17" d="M55.3,244c4.9,1.3,25.1-0.7,28.3-3.5c1.2-0.6,5.2-1.6,4.2-0.1c-8.4,29.3-17.6-3.1-33.3,8.5
		C54.8,247.8,53.3,242.6,55.3,244z"/>
	<path class="st18" d="M54.1,245.9c1.8,0.5,21.2-4.6,20.1,0.5c2.9-3.3,2.6-6.2,3.2,2.4c0,1.3,2.3-3.4,2.5-4.1c0.4-1.6,1,2.8,6,0.8
		c-1.5,1.4-3.8,1.3-5.1-0.1c-0.2-0.2-0.3-0.4-0.4-0.6c-3.1,8.1-3.2,5.5-3.9-0.5c-0.3,0.4-2,4.1-2.5,2.8
		C74.6,242.1,54.7,246.7,54.1,245.9z"/>
	<path class="st19" d="M59.7,223.4c-1.3-1.2-1.4,0.3-3.2,2.5c-1.6,1.6,0.4,1.9-0.4,2.2c-1.4-0.9-1.1,2.1-2.6,2.9
		c-0.4,0.4-0.2,0.1-1.8,1.4c-0.4,0.3-0.8,0.6-1.1,0.9c0.6,0.6,0,0.3-0.3,0.3c0,0.2,0.3,0.3,0.1,0.4s-0.1-0.2-0.1-0.3
		c-1,0.9-1.5,1.3-1.7,1.2c-0.3-0.4,1.7-2.3,0.5-2.7c0.2-0.2,0.2,0.2,0.6,0.4c0,0.2-0.2-0.5-0.1-0.6c0.1-0.3,0.3,0.2,0.3,0.4
		c1.2-1.9,5.2-3.9,3.7-6.2c0.3-0.1,0.5,0,0.2-0.3c-0.3-0.1,0-0.5,0.1-0.2c0.4,0.9,2.3-3.6,3.4-3.7c-0.3-0.1-0.4-0.6,0-0.4
		c-0.1-0.2-0.3-0.4-0.2-0.6c0.9,1,2.2-0.4,3.1-0.6c0,0.9-1.2,2.2-0.9,2.6S60,223.1,59.7,223.4z"/>
	<path class="st20" d="M59.1,222.6L59.1,222.6L59.1,222.6z"/>
	<path class="st20" d="M59.1,222.6L59.1,222.6L59.1,222.6z"/>
	<path class="st20" d="M49.8,232.4C49.8,232.5,49.8,232.4,49.8,232.4z"/>
	<path class="st20" d="M49.8,232.4C49.8,232.5,49.8,232.4,49.8,232.4z"/>
	<path class="st21" d="M70.6,233.2c2.5-4.4,11.9-6.1,15.8-5.3C84.9,235.2,75,238,70,234.2L70.6,233.2z"/>
	<path class="st17" d="M64.6,234.2c-1.5-3.9-10.1-6.8-13.3-6.9c-2.9-0.6,2.1,6.7,3.8,7.2C56.8,236.2,66.4,236.6,64.6,234.2z"/>
	<path class="st19" d="M60.6,233.7c-1.1,3.1-5.1,1.6-3.9-1.5C57.9,229.2,61.8,230.7,60.6,233.7z"/>
	<path d="M59.5,233.3c-0.5,1.4-2.2,0.8-1.7-0.6S60.1,231.8,59.5,233.3z"/>
	<path class="st7" d="M58.8,232c-0.2,0.7-1,0.4-0.8-0.3S59.1,231.4,58.8,232z"/>
	<path class="st19" d="M80.3,232.2c0.5,3.5-3.7,3.7-4.1,0.4C75.6,229.2,79.9,228.9,80.3,232.2z"/>
	<path d="M79.1,232.3c0.2,1.6-1.6,1.7-1.8,0.2S78.9,230.8,79.1,232.3z"/>
	<path class="st7" d="M77.7,231.4c0.1,0.7-0.7,0.8-0.8,0.1S77.6,230.7,77.7,231.4z"/>
	<path class="st22" d="M70.3,233.9c4.6-7,16.8-7.8,18.1-9.7C83.2,222,71.1,229.1,70.3,233.9z"/>
	<path class="st22" d="M65.1,234.6c-2.5-4.2-12-12.4-13-13.7C55.9,220.8,65.9,231.9,65.1,234.6z"/>
	<path class="st23" d="M1284.4,464.1c-0.6,0.5-4.4,4.8-6.4,2.9c-2.3-1.5-3.7,2.5-1.6,3.4c2.3,0.8,1.6-1.8,3-2.5
		c2.1-1.3,4.4,0.2,5.5,0.3C1285.9,467.7,1285.3,464.2,1284.4,464.1z"/>
	<path class="st23" d="M1285.2,481.1c-1.8-0.5-3.1-1.6-6.2-0.7c-1.2,3-4.9,0.9-3.1-1.5c1.9-1.6,2,1,3.5,0.9c2.2,0.3,4-2,4.9-2.5
		C1285.2,477.5,1285.9,480.6,1285.2,481.1z"/>
	<path class="st23" d="M1316.7,486.8c-0.5,2-1.8,3.6-0.6,7.2c1.1,0.2,1.9,1.3,1.7,2.4c-0.2,1.1-1.3,1.9-2.4,1.7
		c-0.4-0.1-0.7-0.2-1-0.5c-1.9-2.1,1.1-2.4,1-4.1c0.3-2.8-2.4-4.3-3-5.4C1312.5,487,1316.1,485.9,1316.7,486.8z"/>
	<path class="st23" d="M1325.2,480.9c0.4,1.5,0.3,3.3,2.4,5.2c2.8-0.8,2.9,3.4,0.3,3.2c-2-0.5-0.3-2.1-0.9-3.2
		c-0.8-1.9-3.3-1.9-4.1-2.4C1322.5,482.8,1324.5,480.5,1325.2,480.9z"/>
	<path class="st23" d="M1323,456.3c0.9,0,6.9,1,7.3-2c3.2-4.7,6.9,5.2-0.6,1.7c-2.6,0.3-3.7,3.3-4.6,4.1
		C1324.1,460.2,1322.3,457,1323,456.3z"/>
	<path class="st23" d="M1296,450.8c0.3-1.5,1.3-2.9,0.3-5.4c-0.8-0.1-1.4-0.9-1.3-1.7c0.1-0.8,0.9-1.4,1.7-1.3
		c0.3,0,0.6,0.2,0.8,0.3c1.5,1.4-0.7,1.8-0.7,3.1c-0.2,1.8,2,3.4,2.4,4.1C1299.2,450.7,1296.5,451.4,1296,450.8z"/>
	<path class="st23" d="M1285.6,455.7c39-36.2,69.9,49.6,11.5,31.3c-12.2-2.3-16-5-13.6-15.3C1279.2,464.8,1279.9,460.2,1285.6,455.7
		z"/>
	<path class="st24" d="M1298.3,486.9c14.9,3.6,28.7-6.4,29-23.3C1336.2,488.1,1315.1,493.7,1298.3,486.9z"/>
	<path class="st15" d="M1290.5,475.4c-0.1-8.7-0.5-1.7,6-3.7c1.7-1,11.9-0.8,13.1-1.5c6-4.8,9.6-2.4,4,4.6
		C1308,487.2,1302,467.1,1290.5,475.4z"/>
	<path class="st24" d="M1288,469.4c-0.1,0.4-0.6,0.6-1,0.5s-0.6-0.6-0.5-1s0.6-0.6,1-0.5C1287.9,468.6,1288.1,469,1288,469.4z"/>
	<path class="st24" d="M1288.1,470.6c-0.1,0.2-0.3,0.3-0.5,0.2c-0.2-0.1-0.2-0.2-0.2-0.4c0.1-0.2,0.3-0.3,0.5-0.2
		C1288.1,470.2,1288.2,470.4,1288.1,470.6z"/>
	<path class="st15" d="M1316.7,457.2c-0.5,2.7-2,5.2-4.1,7c-3.4,2-7.5,2.3-9.8,0.6C1300.7,462.7,1317.5,453.1,1316.7,457.2z"/>
	<path class="st15" d="M1298.7,465.3c-15.9,7.3-13.3-23-1.8-4C1298.3,463.1,1299.2,463.3,1298.7,465.3z"/>
	<path class="st23" d="M1326.1,463.2c1.4,1.9,3.8,2.9,6.1,2.5c0.1-0.8,0.8-1.5,1.6-1.4c0.1,0,0.2,0,0.4,0.1c2.3,0.8,2.1,4-0.3,3.7
		c-2.7-2.7-5.9-0.8-8.6,0.5"/>
	<path class="st23" d="M1303.1,485.6c-1.9,1.3-2.9,3.7-2.6,6c0.8,0.1,1.5,0.8,1.4,1.7c0,0.1,0,0.3-0.1,0.4c-0.8,2.3-4,1.9-3.7-0.4
		c2.7-2.6,0.9-5.8-0.3-8.5"/>
	<path class="st23" d="M1287.3,481.2c0.7,2.4,0,5-1.8,6.7c-0.7-0.5-1.7-0.3-2.2,0.4c-0.1,0.1-0.2,0.3-0.2,0.5
		c-0.8,2.5,2,4.3,3.3,2.1c-0.5-3.9,3-5.5,5.8-6.9"/>
	<path class="st23" d="M1286.2,457.5c-2.4,0.2-4.7-0.9-6-3c0.6-0.6,0.6-1.5,0-2.1c-0.1-0.1-0.2-0.2-0.4-0.3
		c-2.2-1.3-4.4,1.1-2.6,2.7c3.8,0.3,4.6,4,5.4,6.9"/>
	<path class="st23" d="M1309.5,449.8c2-0.7,3.5-2.5,3.7-4.6c-0.7-0.3-1.1-1-0.8-1.7c0-0.1,0.1-0.3,0.2-0.4c1.3-1.8,4-0.8,3.1,1.2
		c-3,1.6-2.2,4.8-1.9,7.5"/>
	<path class="st16" d="M1278.6,452.8c0.5-1.4-1.1-1.3-1.9,0.1C1276.2,454.2,1278.1,454.5,1278.6,452.8z"/>
	<path class="st16" d="M1275.5,468.8c-0.2-1.6,1.6-1.2,2,0.6C1277.7,470.8,1275.6,470.7,1275.5,468.8z"/>
	<path class="st16" d="M1277.8,481.2c0.4-1.4-1.6-2.3-2.3-1.1C1275.1,481.3,1277.5,482.8,1277.8,481.2z"/>
	<path class="st16" d="M1285.3,491c0.6-1.3-1.3-2.7-2.2-1.6C1282.6,490.6,1284.9,492.7,1285.3,491z"/>
	<path class="st16" d="M1301.1,493.7c-0.7-1.3-2.7-0.6-2.4,0.8C1299.2,495.6,1302,495.1,1301.1,493.7z"/>
	<path class="st16" d="M1314.9,496.6c0.3-0.7,1-1,1.7-0.7c0.5,0.2,0.8,0.7,0.8,1.3C1316.9,498.4,1314,498.2,1314.9,496.6z"/>
	<path class="st16" d="M1328.5,487c0.9-0.9,1.7,0.4,0.8,1.5C1328.6,489.4,1327.4,487.9,1328.5,487z"/>
	<path class="st16" d="M1296.9,443.1c-0.2-1.3-1.8-0.9-1.9,0.4c0,0.6,0.4,1,0.9,1.1c0.6,0,1-0.4,1.1-0.9
		C1297.1,443.5,1297,443.3,1296.9,443.1z"/>
	<path class="st16" d="M1314.7,443.3c1-1.3-0.7-1.6-1.9-0.3C1311.9,444.2,1313.7,444.9,1314.7,443.3z"/>
	<path class="st16" d="M1334.1,454.9c-0.1-1.3-2.4-2.5-2.7-1.3C1331.5,454.8,1334.4,456.6,1334.1,454.9z"/>
	<path class="st16" d="M1335.6,466.2c-0.1-1.5-2.5-2.6-2.9-1.3C1332.7,466.3,1335.9,468.1,1335.6,466.2z"/>
	<path class="st25" d="M1291.5,471.9c3.6,1,18.5-0.5,20.8-2.6c0.9-0.4,3.8-1.2,3.1,0c-6.2,21.6-12.9-2.3-24.5,6.3
		C1291.1,474.8,1290.1,470.9,1291.5,471.9z"/>
	<path class="st18" d="M1290.7,473.3c1.3,0.4,15.6-3.4,14.8,0.3c2.1-2.4,1.9-4.5,2.3,1.8c0,1,1.7-2.5,1.8-3c0.3-1.2,0.7,2.1,4.4,0.6
		c-1.1,1-2.8,1-3.8-0.1c-0.1-0.1-0.2-0.3-0.3-0.4c-2.3,6-2.3,4-2.9-0.4c-0.2,0.3-1.5,3-1.9,2
		C1305.7,470.6,1291.1,473.9,1290.7,473.3z"/>
	<path class="st19" d="M1294.8,456.8c-1-0.9-1,0.3-2.4,1.8c-1.2,1.2,0.3,1.4-0.3,1.6c-1-0.7-0.8,1.6-1.9,2.2c-0.3,0.3-0.2,0.1-1.3,1
		l-0.8,0.7c0.5,0.4,0,0.2-0.3,0.2c0,0.1,0.2,0.2,0,0.3s0-0.1-0.1-0.2c-0.7,0.6-1.1,1-1.2,0.9c-0.2-0.3,1.2-1.7,0.4-2
		c0.2-0.2,0.2,0.2,0.4,0.3c0,0.1-0.2-0.4-0.1-0.4c0.1-0.3,0.2,0.1,0.3,0.3c0.8-1.4,3.8-2.9,2.8-4.6c0.2-0.1,0.4,0,0.1-0.2
		s0-0.4,0.1-0.1c0.3,0.7,1.7-2.6,2.5-2.7c-0.2-0.1-0.3-0.5,0-0.3c-0.1-0.1-0.2-0.3-0.1-0.4c0.7,0.7,1.6-0.3,2.3-0.4
		c0,0.7-0.9,1.6-0.7,1.9S1295,456.6,1294.8,456.8z"/>
	<path class="st20" d="M1294.3,456.2"/>
	<path class="st20" d="M1294.3,456.2"/>
	<path class="st20" d="M1287.5,463.4L1287.5,463.4z"/>
	<path class="st20" d="M1287.5,463.4L1287.5,463.4z"/>
	<path class="st26" d="M1302.8,464c1.8-3.2,8.8-4.5,11.7-3.9c-1.2,5.4-8.4,7.4-12.1,4.7L1302.8,464z"/>
	<path class="st25" d="M1298.3,464.8c-1.1-2.9-7.4-5-9.8-5.1c-2.1-0.4,1.6,4.9,2.8,5.3C1292.7,466.2,1299.7,466.5,1298.3,464.8z"/>
	<path class="st19" d="M1295.5,464.4c-0.2,0.9-1,1.4-1.8,1.3c-0.9-0.2-1.4-1-1.3-1.8c0-0.2,0.1-0.3,0.2-0.5
		C1293.4,461,1296.3,462.2,1295.5,464.4z"/>
	<path d="M1294.6,464.1c-0.4,1.1-1.6,0.6-1.2-0.5S1295,463,1294.6,464.1z"/>
	<path class="st7" d="M1294.1,463.2c-0.2,0.5-0.8,0.3-0.6-0.2S1294.3,462.7,1294.1,463.2z"/>
	<path class="st19" d="M1309.9,463.3c0.4,2.6-2.7,2.8-3,0.3S1309.6,460.9,1309.9,463.3z"/>
	<path d="M1309,463.4c0.2,1.2-1.1,1.3-1.3,0.1S1308.9,462.2,1309,463.4z"/>
	<path class="st7" d="M1308,462.7c0.1,0.5-0.5,0.6-0.6,0.1S1308,462.2,1308,462.7z"/>
	<path class="st22" d="M1302.5,464.5c3.4-5.2,12.4-5.8,13.3-7.2C1312.1,455.8,1303.1,461,1302.5,464.5z"/>
	<path class="st22" d="M1298.8,465c-1.8-3.1-8.9-9.2-9.6-10.1C1291.9,454.9,1299.3,463,1298.8,465z"/>
	<g>
		<path class="st27" d="M119.6,581.1c1.5-0.5,4.5-3.2,7.7-1.8c2.1,0.5,1.7,4.5,4.8,2.8c2.8-1.8-0.1-7.1-3.1-4.5
			c-2.3,3.2-8.6-2-9.6-2.6C118.3,575.4,118.4,580.3,119.6,581.1z"/>
		<path class="st27" d="M122.9,593.5c1.3,0.5,4.4,3.4,7.4,2.4c2.2-0.3,1.6-3.9,4.7-2.1c3.1,3-1.6,6.8-4,2.9
			c-4.7-0.6-6.3,1.3-8.6,2.4C121.2,598.7,121.4,594.1,122.9,593.5z"/>
		<path class="st27" d="M85.7,615.2c-0.6,1.7-4,4.5-3,8.3c0.3,2.5,4.6,2.2,2.3,5.6c-3.4,3.4-8-2.3-3.2-4.7c0.9-5.3-1.4-7.3-2.5-10
			C79.8,613,85.1,613.7,85.7,615.2z"/>
		<path class="st27" d="M69.9,611.4c-1.1,0.8-4.5,1.3-5.3,4.3c-0.7,1.7,2.1,3.5-0.6,4.8c-3.5,0.9-4.4-5.1-0.2-4.6
			c2.5-3,1.9-5.7,2.2-7.9C66.8,607.4,70,610.1,69.9,611.4z"/>
		<path class="st27" d="M61.1,578.8c-1.4-0.9-3.6-4.9-7.3-4.7c-9.9,6.7-6.8-8.2-1.3-2.3c1.4,4,9.5,1.3,10.8,1.1
			C64.4,573.7,62.7,578.6,61.1,578.8z"/>
		<path class="st27" d="M95.2,558.2c0.4-1.1,3.1-3.8,2.4-6.3c-0.2-1.8-3.3-1.8-1.6-4.2c2.6-2.7,5.9,1.9,2.3,3.6
			c-0.7,3.9,0.9,5.6,1.7,7.6C99.6,560,95.6,559.5,95.2,558.2z"/>
		<path class="st27" d="M122.5,585.5c5.8,13.9,1,18.6-15.6,24.6c-78.1,39.2-54.2-88.8,9.1-46.8C125,568.5,127,574.8,122.5,585.5z"/>
		<path class="st28" d="M58.9,584.1c4.4,23.7,26,34.7,46.3,26.2C83.1,623.7,51.9,620.8,58.9,584.1z"/>
		<path class="st15" d="M80.8,596.7c-9.6-8.5-5-12.7,4.6-7.3c1.8,0.7,16.2-1.9,18.8-0.9c9.6,1.4,7.5-8.4,9.3,3.8
			C95.4,583.2,91.6,612.9,80.8,596.7z"/>
		<path class="st28" d="M115.6,582.9c-0.2-0.6,0.1-1.1,0.7-1.3c0.6-0.2,1.1,0.1,1.3,0.7c0,0.1,0.1,0.3,0.2,0.4
			c0.2,0.6-0.1,1.1-0.7,1.3c-0.6,0.2-1.1-0.1-1.3-0.7C115.6,583.2,115.6,583.1,115.6,582.9z"/>
		<path class="st28" d="M116,584.4c0.2-0.1,0.5-0.2,0.7,0.1c0,0.2,0,0.4-0.2,0.5c-0.2,0.1-0.5,0.2-0.7-0.1
			C115.7,584.8,115.7,584.6,116,584.4z"/>
		<path class="st15" d="M93.9,580.2c-2.9,2.9-8.7,3.6-13.9,1.5c-3.6-2.4-5.4-4.3-7.4-8.9C70.3,567.1,96.3,576.7,93.9,580.2z"/>
		<path class="st15" d="M101.3,573.9c11.8-29.5,22.4,12.8-1.6,6C98.4,577.3,99.7,576.8,101.3,573.9z"/>
		<path class="st27" d="M62.8,590.7c-4.1-1.1-9-3.1-12.3,1.3c-3.2,0.9-4.4-3.5-1.2-5.2c0.2,0,0.4-0.2,0.6-0.2
			c1.2-0.3,2.3,0.4,2.6,1.6c3.4,0.1,6.5-1.9,8-4.9"/>
		<path class="st27" d="M105.4,607.2c-1.1,4.1-3,9,1.5,12.1c0.9,3.3-3.4,4.5-5.1,1.4c0-0.2-0.2-0.4-0.2-0.6
			c-0.3-1.2,0.4-2.4,1.6-2.7c-0.1-3.4-2-6.5-5-7.9"/>
		<path class="st27" d="M113,604.9c4.3,1.4,9.7,2.8,9.8,8.4c2.3,2.8,5.9-0.5,4.2-3.7c-0.1-0.3-0.3-0.5-0.4-0.6
			c-0.9-0.9-2.3-0.9-3.2-0.1c-3-2-4.5-5.6-4-9.1"/>
		<path class="st27" d="M121.4,571c0.5-4.2,0.7-9.6,6-10.9c2.2-2.7-1.6-5.4-4.4-3.1c-0.2,0.1-0.4,0.3-0.4,0.5c-0.6,1-0.4,2.4,0.6,3
			c-1.3,3.2-4.4,5.4-7.8,5.6"/>
		<path class="st27" d="M75.4,564.3c-0.1-3.8,0.2-8.5-4.4-10.1c-1.7-2.6,1.9-4.7,4.1-2.4c0.1,0.1,0.2,0.3,0.4,0.4
			c0.5,0.9,0.1,2.1-0.8,2.7c0.9,3,3.3,5.1,6.3,5.7"/>
		<path class="st16" d="M127.8,557.5c-1.5-1.9-3.8-1.6-2.7,0.2C126.2,560,128.8,559.2,127.8,557.5z"/>
		<path class="st16" d="M130.4,580.8c0.3-2.5,2.7-3.6,2.7-1.3C133.5,582.2,130.6,583,130.4,580.8z"/>
		<path class="st16" d="M135.7,595.4c-1.4-1.5-3.9,0.2-3,2.1C133.6,599.8,136.6,597.1,135.7,595.4z"/>
		<path class="st16" d="M127,610.4c-1.5-1.4-3.8,1-2.7,2.8C125.5,615.5,128.2,612,127,610.4z"/>
		<path class="st16" d="M106.4,621.1c0.2-2.1-2.9-2.5-3.5-0.5C101.9,622.8,106,622.8,106.4,621.1z"/>
		<path class="st16" d="M80.8,629.2c-0.6-1.9,2.2-3.1,3.3-1.4C85.6,629.8,81.6,630.9,80.8,629.2z"/>
		<path class="st16" d="M61.7,619.8c-1.4-1.4-0.7-3.4,0.8-2.4C64.3,618.5,63.1,620.8,61.7,619.8z"/>
		<path class="st16" d="M97.1,548.3c0,0.8,0.6,1.4,1.3,1.4c0.8,0,1.4-0.6,1.4-1.3C99.3,546.5,97,546.4,97.1,548.3
			C97.1,548.3,97.1,548.3,97.1,548.3z"/>
		<path class="st16" d="M74.7,551.7c-2.1-1.5-4.4-0.7-2.7,0.9C73.8,554.6,76.3,553.2,74.7,551.7z"/>
		<path class="st16" d="M50.8,571c-0.7-1.6-3.6,0.5-3.5,2.4C47.2,575.9,51,572.6,50.8,571z"/>
		<path class="st16" d="M51.6,587.3c-0.8-1.8-4,0.3-3.8,2.4C47.9,592.4,51.9,589.2,51.6,587.3z"/>
		<path class="st29" d="M113.1,592.6c-18.4-9.5-22.5,25.7-36.1-3.2c-1.2-1.4,3.1-1,4.4-0.6c3.7,2.3,25,1.1,29.9-1.1
			C113.1,585.8,112.5,591.6,113.1,592.6z"/>
		<path class="st18" d="M92.6,593.9c-0.4,1.5-2.8-2.1-3.1-2.4c0.2,6.4,0.6,9.1-4,1.3c-0.2,0.2-0.2,0.4-0.4,0.7
			c-1.2,1.7-3.6,2.2-5.3,1c5.6,1.3,5.4-3.4,6.1-1.8c0.3,0.8,3.5,5.2,3.3,3.8c-0.9-9-0.7-5.9,2.9-3c-2-5,19.1-3,20.7-3.9
			C112.3,590.4,90.9,589,92.6,593.9z"/>
		<path class="st19" d="M103.8,566.5c0.2-0.4-1.3-1.6-1.4-2.5c0.9,0,2.4,1.2,3.3,0.1c0.1,0.2,0,0.4-0.1,0.6c0.4-0.4,0.3,0.2,0.1,0.4
			c1-0.1,3.8,4.3,4.1,3.3c0.1-0.3,0.4,0,0.1,0.2c-0.3,0.4-0.1,0.2,0.2,0.3c-1.2,2.6,3.4,4,4.9,5.8c0.1-0.2,0.2-0.7,0.3-0.5
			c0.1,0,0,0.8,0,0.6c0.3-0.2,0.3-0.7,0.5-0.5c-1.1,0.7,1.2,2.3,1,2.8c-0.1,0.1-0.7-0.3-1.9-1c-0.1,0.1,0.1,0.4-0.1,0.3
			c-0.2-0.1,0.1-0.2,0-0.4c-0.4,0.1-1,0.5-0.4-0.2c-0.3-0.1-0.8-0.5-1.2-0.7c-1.9-1-1.6-0.7-2.1-1.1c-1.6-0.6-1.8-3.8-3.2-2.6
			c-0.8-0.2,1.2-0.8-0.8-2.2c-2.3-1.8-2.6-3.5-3.8-2C102.8,566.8,103.5,566.9,103.8,566.5z"/>
		<path class="st20" d="M103.7,566.1L103.7,566.1C103.8,566.1,103.7,566.1,103.7,566.1z"/>
		<path class="st20" d="M103.7,566.1L103.7,566.1C103.8,566.1,103.7,566.1,103.7,566.1z"/>
		<path class="st20" d="M115,574.8L115,574.8z"/>
		<path class="st20" d="M115,574.8L115,574.8z"/>
		<path class="st30" d="M94.3,580.1c-4.5,4.7-15.1,3.6-18.1-3.8c3.9-1.4,14.1-1.3,17.4,2.8L94.3,580.1z"/>
		<path class="st29" d="M110,577.7c1.7-0.7,5.7-9.1,2.7-8c-3.2,0.6-11.7,5.2-12.6,9.5C98.5,581.9,108.4,579.9,110,577.7z"/>
		<path class="st19" d="M107.8,575.8c1.8,2.9-2.1,5.2-3.8,2.1C102.2,575,106,572.9,107.8,575.8z"/>
		<path d="M106.7,576.3c0.8,1.4-0.8,2.4-1.6,1C104.3,575.9,105.9,574.9,106.7,576.3z"/>
		<path class="st7" d="M106.3,575.5c0.4,0.6-0.3,1.1-0.7,0.4C105.3,575.2,105.9,574.8,106.3,575.5z"/>
		<path class="st19" d="M87.7,579.5c0.2,3.4-4.3,3.9-4.3,0.2C83.3,576.2,87.7,575.8,87.7,579.5z"/>
		<path d="M86.4,579.5c0.1,1.6-1.8,1.8-1.8,0.1C84.6,578,86.4,577.9,86.4,579.5z"/>
		<path class="st7" d="M86.7,578.5c0.1,0.7-0.8,0.8-0.8,0C85.8,577.7,86.6,577.8,86.7,578.5z"/>
		<path class="st22" d="M73.7,572.7c1.6,1.8,14.5,0.5,20.4,7C92.4,574.9,78.5,569.6,73.7,572.7z"/>
		<path class="st22" d="M110.6,563.1c-0.8,1.4-9.3,11.7-11.2,16.4C98.3,576.9,106.8,563.7,110.6,563.1z"/>
	</g>
	<path class="st31" d="M1260.9,577.2c-3.7-0.2-10.5-0.5-17.2-4.9c-9.7-6.3-12.1-16.3-12.8-19.1c-1-4.2-2.5-14.8,4.3-24.6
		c7.2-10.3,18.6-12.5,22.2-13.2c6.4-1.4,13-1,19.2,1.2c7.5,2.9,13.7,8.5,17.4,15.7c1.6,3,5.7,11.2,3.1,21.3
		c-2.7,10.5-11,15.9-13.8,17.8C1276.5,575.6,1268.7,577.6,1260.9,577.2z"/>
	<path class="st32" d="M1254.9,567.1c-1.3-0.9-2.2-2.3-2.5-3.9c-1.2-4.8,2.7-10.6,6.9-13.6c7.7-5.5,16.9-2.3,17.3-2.2
		c5.4,2.4,9.6,7,11.6,12.6c0.5,1.3,0.6,2.4,0.1,3.3c-0.8,1.3-3,1.5-4.7,1c-3.2-1-2.7-4.2-6-6.1c-2.4-1.3-6.1-1.4-8.2,0.2
		s-1.2,3.7-4,6.3c-1.2,1.1-2.7,1.9-4.2,2.4C1259.5,567.6,1256.9,568.4,1254.9,567.1z"/>
	<path class="st32" d="M1250.3,546c-1.8-0.4-3.4-1.6-4.3-3.2c-1.5-3.6,0.1-7.8,3.7-9.5c3.6-1.5,7.8,0,9.5,3.6
		c0.8,1.9,0.7,3.9-0.2,5.7C1257.3,545.8,1253.3,546.8,1250.3,546z"/>
	<path class="st32" d="M1272.4,539.6c-1.4-0.4-2.6-1.4-3.2-2.7c-1.1-2.6,0-6.6,2.8-8.1c2.7-1.2,5.8,0,7,2.6c0.1,0.1,0.1,0.2,0.1,0.4
		c0.6,1.6,0.5,3.3-0.2,4.9C1277.8,539.1,1275,540.3,1272.4,539.6z"/>
	<path class="st32" d="M1245.5,527.9c-0.3,0.3,0.4,1.5,1.1,2.1c0.9,0.8,1.8,0.8,3.5,1.2c1.5,0.4,1.1,0.5,4.2,1.8
		c3.5,1.4,4.1,1.3,4.5,1.1c1.1-0.7,1.7-2,1.5-3.3c-0.1-1.1-0.8-2.3-1.3-2.2c-0.6,0.1,0.1,2.6-1,3.5
		C1255.7,534.3,1246.4,526.8,1245.5,527.9z"/>
	<path class="st32" d="M1279.3,524.5c0.3,0.3-0.1,1.5-0.7,2.3c-0.8,1-1.7,1.1-3.3,1.8c-1.4,0.7-1,0.7-3.8,2.5c-3.2,2-3.8,2-4.2,1.8
		c-1.2-0.5-2-1.7-2.1-3c-0.1-1.1,0.4-2.4,0.9-2.4c0.6,0,0.3,2.6,1.5,3.3C1270.3,532.5,1278.3,523.5,1279.3,524.5z"/>
	<path class="st32" d="M1257.2,576.9c0-0.6,11.1,0.6,21.8-5.3c3-1.7,10.1-5.7,14-14.3c0.4-0.9,4.4-10.1,1.2-20.2
		c0,0-1.1-3.5-9.4-15.9l0,0l1,0.8c2.9,2.6,5.5,5.6,7.5,9c1.9,3.1,3.2,6.5,3.9,10c0.8,3.7,0.9,7.5,0.1,11.3c-0.7,3.2-2,6.3-3.8,9.1
		c-2.2,3.4-5,6.3-8.3,8.6c-5.5,4.1-12.1,6.6-19,7.1C1262,577.5,1257.3,577.4,1257.2,576.9z"/>
	<circle class="st33" cx="1252.7" cy="539.6" r="6.2"/>
	<circle class="st34" cx="1274.1" cy="534.3" r="4.5"/>
	<path class="st6" d="M1276.4,534.1c0.8,3.5-3.9,4.5-4.6,0.9S1275.7,530.5,1276.4,534.1z"/>
	<path d="M1275.1,534.3c0.3,1.6-1.6,2-1.9,0.4S1274.7,532.7,1275.1,534.3z"/>
	<path class="st7" d="M1273.7,533.6c0.2,0.8-0.7,0.9-0.9,0.2S1273.5,532.8,1273.7,533.6z"/>
	<path class="st6" d="M1255.5,538.9c0.9,4.3-4.5,5.4-5.4,1.1S1254.7,534.6,1255.5,538.9z"/>
	<path d="M1254,539.2c0.4,2-1.9,2.4-2.3,0.5S1253.6,537.2,1254,539.2z"/>
	<path class="st7" d="M1252.3,538.3c0.2,0.9-0.9,1.1-1,0.2S1252.1,537.4,1252.3,538.3z"/>
	<path class="st35" d="M1245.3,527.9c0.5,0.6,1.2,1.1,1.8,1.5c1.1,0.5,2.2,0.9,3.4,1c3.7,0.8,4,3.3,6.7,3.1c0.2,0,2-0.1,2.5-1.2
		s-0.2-2.3-0.5-3c-0.2-0.3-0.2-0.3-0.2-0.3s0,0.5,0,1.1c0.1,0.6,0,1.1-0.2,1.7c-0.4,0.5-1.5,0.3-2.1,0.2c-1.8-0.3-2-1-4-1.8
		c-1.1-0.4-2.1-0.7-3.2-0.9c-0.7-0.1-1.4-0.3-2.1-0.5C1246.7,528.6,1246,528.3,1245.3,527.9z"/>
	<path class="st35" d="M1279.3,524.2c-0.4,0.7-0.9,1.3-1.5,1.8c-0.9,0.7-2,1.2-3.1,1.5c-3.3,1.4-3.3,3.8-5.9,4.1
		c-0.2,0-1.9,0.2-2.6-0.8s-0.2-2.3,0-3c0.1-0.3,0.2-0.3,0.2-0.3s0.1,0.5,0.2,1.1c0,0.6,0.2,1.1,0.5,1.6c0.5,0.5,1.4,0.1,2-0.1
		c1.6-0.6,1.7-1.3,3.5-2.4c0.9-0.5,1.9-1,2.9-1.4c0.6-0.2,1.3-0.5,1.9-0.8C1278.1,525.2,1278.8,524.7,1279.3,524.2z"/>
	<path class="st36" d="M1253.3,561.4c-0.4-2.9,0.3-5.8,1.8-8.2c3.4-5.2,9.9-6.4,11.1-6.6c5.5-0.8,11,0.6,15.5,3.8
		c2.8,2,4.8,4.9,5.8,8.2c0.8,2.3,0.3,3,0,3.3c-0.9,0.8-3,0.4-4.4-0.4c-1.9-1.2-1.2-2.7-2.8-4.6c-1.9-2.3-5.6-3.4-8.8-3.1
		c-1.8,0.2-3.6,0.9-5.1,2c-2.8,2.1-4.2,5.6-5.2,7.9c-0.6,1.4-0.9,2.5-2,2.9c-1.4,0.4-3,0.1-4.2-0.9
		C1254.6,565.4,1253.5,564.4,1253.3,561.4z"/>
	<path class="st37" d="M1261.2,563.3c-0.7,0.3-3.3-2.8-3.3-5.4c0-3.8,5.2-7.5,9.9-7.7c6-0.3,11.3,5.3,11.2,5.5
		c-0.3-0.1-0.6-0.2-0.9-0.3c-0.7-0.4-1.5-0.7-2.2-1c-1.3-0.5-2.7-0.6-4.1-0.5c-1.9,0.1-3.7,0.8-5.2,1.8c-1.1,0.8-2,1.8-2.8,3
		c-1,1.2-1.7,2.7-2.1,4.2C1261.6,563,1261.4,563.2,1261.2,563.3z"/>
	<path class="st38" d="M1274.2,547.2c0.3,0.4-0.1,1.1-0.5,1.8c-0.7,1.1-0.6,0.7-1.5,1.9c-0.1,0.1-0.8,0.8-1,0.8s-0.2-0.8-0.3-1
		c-0.1-0.9-0.2-0.4-0.3-1.1c-0.1-0.7,0.1-1.5,0.3-2.2c0.1-0.3,0-0.7,0.3-0.7s0.3,0.1,0.8,0.2l1,0.2
		C1274,547,1274,546.9,1274.2,547.2z"/>
	<path class="st38" d="M1253.6,562c1.1,1,3.3-0.5,2.9-1.9s-2.7-1.7-3.1-1.1c-0.1,0.1,0,0.2,0,0.8
		C1253.5,561.4,1253.3,561.7,1253.6,562z"/>
	<path class="st39" d="M1255.9,560.1c-0.9-0.4-1.9,1.3-1,1.8S1257,560.5,1255.9,560.1z"/>
	<path class="st38" d="M1255.8,552.8c0,1.5,2.7,2,3.4,0.7s-0.7-3.1-1.4-3c-0.2,0-0.2,0.1-0.6,0.6
		C1256.2,552.3,1255.9,552.3,1255.8,552.8z"/>
	<path class="st39" d="M1258.8,553c-0.4-1-2.3-0.4-2,0.6C1257,554.5,1259.2,554.1,1258.8,553z"/>
	<path class="st38" d="M1263.2,547.7c-0.8,1.3,1.2,3.1,2.5,2.4s1.1-3,0.4-3.3c-0.1-0.1-0.3,0-0.8,0.2
		C1263.8,547.5,1263.5,547.3,1263.2,547.7z"/>
	<path class="st39" d="M1265.6,549.5c0.2-1-1.7-1.6-2-0.6S1265.4,550.7,1265.6,549.5z"/>
	<path class="st38" d="M1279.6,549.4c-1.5,0.2-1.7,2.9-0.3,3.4s3-1.1,2.8-1.8c0-0.2-0.2-0.2-0.6-0.5
		C1280.1,549.7,1280.1,549.4,1279.6,549.4z"/>
	<path class="st39" d="M1279.7,552.4c0.9-0.5,0.2-2.3-0.8-1.9S1278.6,553,1279.7,552.4z"/>
	<path class="st39" d="M1271.3,551.4c-0.1,0,0-0.7-0.3-1.5c0-0.1-0.1-0.2-0.1-0.3c-0.1-0.3-0.1-0.7,0-1c0.1-0.5,0.1-0.7,0.2-0.8
		c0.3-0.2,0.7-0.2,1,0c0.3,0.3,0,1-0.2,1.7c-0.1,0.2-0.1,0.2-0.2,0.5C1271.4,550.8,1271.4,551.4,1271.3,551.4z"/>
	<path class="st38" d="M1261.6,561.6c-0.5,0.2-1-0.5-1.5-1.1s-0.9-1.3-1.2-2.1c-0.1-0.1-0.4-1-0.3-1.2s0.8,0.1,1.1,0.2
		c0.9,0.2,0.5,0,1.1,0.1c0.7,0.2,1.4,0.6,1.9,1.1c0.2,0.2,0.6,0.3,0.6,0.5s-0.2,0.3-0.4,0.6c-0.2,0.2-0.4,0.7-0.6,0.9
		C1261.9,561.5,1261.9,561.5,1261.6,561.6z"/>
	<path class="st39" d="M1258.9,557.3c0-0.1,0.7,0.3,1.5,0.3h0.3c0.3,0.1,0.6,0.2,0.9,0.4c0.4,0.3,0.6,0.4,0.7,0.5
		c0.2,0.4,0,0.8-0.3,1c-0.4,0.2-1-0.3-1.5-0.8c-0.2-0.2-0.2-0.2-0.4-0.4C1259.4,557.7,1258.9,557.4,1258.9,557.3z"/>
	<path class="st38" d="M1268.2,554.4c0.5-1.4-1.7-2.8-2.9-1.9s-0.5,3.2,0.2,3.3c0.2,0,0.2,0,0.7-0.3
		C1267.7,554.7,1268.1,554.8,1268.2,554.4z"/>
	<path class="st39" d="M1265.6,553.3c0,1,2,1.2,2.1,0.2C1267.8,552.6,1265.5,552.1,1265.6,553.3z"/>
	<path class="st38" d="M1282.3,560.6c1.4,0.5,2.9-1.7,1.9-2.9s-3.2-0.5-3.3,0.2c0,0.2,0,0.2,0.3,0.7
		C1282,560,1281.9,560.4,1282.3,560.6z"/>
	<path class="st39" d="M1283.7,558c-1,0-1.3,1.9-0.2,2.1C1284.4,560.2,1284.9,558,1283.7,558z"/>
	<path class="st38" d="M1276.3,554.2c1.1-0.6,0.5-2.7-0.8-2.7s-2,1.7-1.7,2.1c0.1,0.1,0.2,0.1,0.6,0.2
		C1275.8,554.1,1275.9,554.3,1276.3,554.2z"/>
	<path class="st39" d="M1275.3,552c-0.6,0.6,0.5,1.8,1.2,1.2S1276,551.2,1275.3,552z"/>
	<path class="st40" d="M1258.4,566.8c0.8-0.1,1.5-0.4,2-1c0.3-0.3,0.5-0.7,0.6-1.1c0,0,0.5-1.6,1.2-3.5c0.5-1.1,1.2-2.1,2-3
		c0.5-0.8,1.1-1.5,1.8-2.2c1-0.9,2.3-1.5,3.6-1.8c1.7-0.5,3.4-0.6,5.1-0.3c2,0.4,3.7,1.4,5.1,2.8c0.6,0.6,1.1,1.3,1.4,2
		c0.4,0.9,0.2,1.1,0.6,1.7c1.2,1.5,3.1,2.2,5,1.8c0.4-0.1,0.7-0.4,0.8-0.7c0.2-0.4,0.2-0.8,0.1-1.2c-0.1-0.6-0.2-1.2-0.4-1.7
		c-0.2-0.7-0.5-1.4-0.8-2s-0.6-1.2-0.9-1.8c-0.4-0.6-0.8-1.2-1.2-1.7c-0.8-0.9-1.8-1.8-2.8-2.5c-0.9-0.7-1.8-1.3-2.8-1.8
		c-1.5-0.8-3.2-1.4-4.9-1.8c-1.1-0.3-2.1-0.5-3.2-0.6c-2.2-0.2-4.5,0-6.6,0.6c-1.7,0.5-3.4,1.2-4.9,2.2c-1.5,0.9-2.9,2-4,3.4
		c-0.8,1.1-1.4,2.2-1.8,3.5c-0.3,1.2-0.5,2.5-0.5,3.8c0,0.9,0.1,1.9,0.3,2.8c0.1,0.9,0.4,1.7,0.9,2.5c0.6,0.7,1.3,1.2,2.2,1.4
		C1257.1,566.7,1257.7,566.8,1258.4,566.8z"/>
	<path class="st41" d="M1266.3,516.2c2.8-0.4,6.9-4.9,6.8-8c-5.6-4.5,4.4-7.3,6.8-3.1c1.1,1.9-1.8,3.8-3.5,3.3
		c-2.6,1.3-2.5,8.2-0.4,9.4"/>
	<path class="st41" d="M1277.7,505.6c1.4,2.7-5.4,0.7-3.4-1.1"/>
	<path class="st41" d="M1242.1,525.4c1.8-2.2,1.7-8.3-0.4-10.4c-7.1,0.5-1.8-8.4,2.9-6.9c2.1,0.7,1.3,4-0.3,4.8
		c-1,2.7,3.7,7.7,6.1,7.2"/>
	<path class="st41" d="M1243.3,509.9c2.8,1-3.5,4.2-3.3,1.5"/>
	<path class="st41" d="M1236.8,532.1c-1.6,2.3-7.4,4.1-10.1,2.7c-1.6-7-8.5,0.8-5.7,4.8c1.2,1.8,4.2,0,4.4-1.7
		c2.3-1.7,8.4,1.3,8.6,3.7"/>
	<path class="st41" d="M1222.3,537.9c1.8,2.4,3-4.6,0.5-3.6"/>
	<path class="st41" d="M1239.1,564.5c-2-2-8-2.9-10.4-1.1c-0.5,7.1-8.6,0.5-6.4-3.8c0.9-2,4.2-0.7,4.7,1c2.6,1.3,8.1-2.6,7.9-5"/>
	<path class="st41" d="M1223.9,561.1c1.4-2.7,3.7,4.1,1.1,3.5"/>
	<path class="st41" d="M1246.8,571.2c2,2,2.7,8.1,0.8,10.4c-7.2,0.3-0.8,8.5,3.7,6.5c2-0.9,0.8-4.2-0.9-4.7
		c-1.3-2.6,2.8-8.1,5.2-7.8"/>
	<path class="st41" d="M1249.8,586.5c2.7-1.4-4-3.8-3.4-1.2"/>
	<path class="st41" d="M1276.9,572.2c-2.2,1.7-3.7,7.6-2.2,10.2c7,1.3-0.4,8.6-4.5,6c-1.8-1.1-0.3-4.2,1.5-4.5
		c1.6-2.4-1.7-8.4-4.1-8.4"/>
	<path class="st41" d="M1271.9,587c-2.5-1.7,4.4-3.2,3.6-0.7"/>
	<path class="st41" d="M1291.6,559.8c-1.4,2.9,0.3,9.7,3.4,11.5c8-2.5,4.3,8.9-1.4,8.4c-2.5-0.2-2.6-4.1-0.9-5.4
		c0.3-3.3-6.4-7.5-8.9-6.3"/>
	<path class="st41" d="M1294.6,577.4c-3.5-0.4,2.9-5.6,3.3-2.6"/>
	<path class="st41" d="M1284.9,522.6c2.3,1.6,8.4,1.3,10.4-1c-0.9-7.1,8.3-2.2,7,2.5c-0.6,2.1-4,1.5-4.8-0.1
		c-2.8-0.8-7.5,4.1-6.8,6.4"/>
	<path class="st41" d="M1300.4,523c-0.9,2.9-4.4-3.3-1.7-3.2"/>
	<path class="st41" d="M1293.8,554.6c1.3-2.5,6.9-5,9.7-3.9c2.4,6.7,8.4-1.8,5.1-5.4c-1.4-1.6-4.2,0.5-4.2,2.3c-2.1,2-8.5-0.3-9-2.6
		"/>
	<path class="st41" d="M1307.4,547.2c-2.1-2.2-2.4,4.9-0.1,3.6"/>
</g>
<g>
	<g>
		<defs>
			<rect id="SVGID_1_" x="1208" y="90.8" width="128.8" height="128.8"/>
		</defs>
		<clipPath id="SVGID_2_">
			<use xlink:href="#SVGID_1_"  style="overflow:visible;"/>
		</clipPath>
		<g class="st42">
			<defs>
				<rect id="SVGID_3_" x="1208" y="90.8" width="128.8" height="128.8"/>
			</defs>
			<clipPath id="SVGID_4_">
				<use xlink:href="#SVGID_3_"  style="overflow:visible;"/>
			</clipPath>
			<g class="st43">
				<defs>
					<path id="SVGID_5_" d="M1279.9,108c-1.4,2,0,2.5,1,3.5c1,1,0.2,2.2-0.2,4c-0.4,1.9-1.1,4-2.4,5c-0.1,0.1-0.2,0.2-0.4,0.2
						c-3.7-0.3-7.3-0.1-10.6,0.5c-4.1,0.7-7.7,2-10.9,3.9c-1.9-0.4-2.2-1.1-3.7-3.2c-1.6-2.2-2.1-3.6-1.7-4.6c0.4-1,1.8-1.8,0.3-3.7
						c-1.5-1.9-3.5-0.6-4.8,0.5c-1.3,1-2.5,2-2.1,4.2c0.4,2.3,1.7,1.6,3.1,1.5c1.4-0.1,1.6,1.3,2.7,2.8c1.1,1.5,2,3.5,1.9,5
						c0,0.2-0.1,0.5-0.1,0.7c-2.9,2.6-5.5,5.8-7.6,9.7c-0.8,1.4-1.4,2.8-2,4.2c-2.1,1.3-2.7,0.9-5.4,0.2c-2.7-0.7-4-1.5-4.3-2.5
						c-0.3-1.1,0.3-2.7-2.1-3.2c-2.4-0.4-3.1,2-3.5,3.7c-0.4,1.7-0.8,3.3,1.1,4.8c1.8,1.5,2.4,0.1,3.4-0.9c1-1,2.1-0.1,3.9,0.4
						c1.8,0.5,3.8,1.3,4.7,2.7c0.2,0.3,0.4,0.7,0.5,1.1c-0.9,5.1-0.5,10.3,1.1,15.2c-0.1,0.2-0.1,0.4-0.2,0.6
						c-0.9,2.4-1.6,2.5-4.1,3.7c-2.5,1.2-4,1.4-4.9,0.8c-0.9-0.6-1.4-2.3-3.6-1.1c-2.2,1.2-1.3,3.6-0.6,5.2c0.7,1.6,1.4,3.1,3.7,3.1
						c2.3,0,1.9-1.5,2.2-2.9c0.2-1.5,1.6-1.4,3.3-2.2c1.7-0.8,3.8-1.4,5.3-0.9c1.2,0.4,2.5,1.6,3,2.1c0.5,0.8,1.1,1.5,1.7,2.2
						c3.3,3.8,7.3,6.5,11.8,8.3c1,2.1,0.6,2.8-0.3,5.5c-0.9,2.7-1.7,4-2.8,4.2c-1,0.3-2.6-0.5-3.2,2c-0.6,2.5,1.6,3.4,3.3,4
						c1.6,0.5,3.1,1.1,4.7-0.7c1.6-1.8,0.3-2.5-0.6-3.6c-0.9-1.2,0.1-2.2,0.7-4c0.6-1.8,1.6-3.9,3-4.7c0.6-0.3,1.4-0.6,2.1-0.7
						c4.2,0.8,8.6,0.8,12.8,0.3c0.4,0.1,0.9,0.3,1.2,0.4c2.3,1,2.3,1.8,3.3,4.4c1,2.7,1.1,4.2,0.5,5.1c-0.6,0.9-2.3,1.3-1.2,3.6
						c1.1,2.3,3.4,1.5,4.9,0.8c1.6-0.7,3-1.3,3.2-3.7c0.1-2.4-1.3-2.1-2.7-2.4c-1.4-0.3-1.3-1.7-2-3.5c-0.7-1.8-1.2-4-0.6-5.6
						c0.1-0.3,0.3-0.6,0.5-0.9c4.7-1.6,9.1-4.2,12.7-7.6c1.8-0.3,2.4,0.3,4.5,1.7c2.3,1.5,3.3,2.7,3.3,3.8s-1.1,2.5,1.1,3.7
						c2.2,1.2,3.6-0.8,4.5-2.4c0.9-1.5,1.7-2.9,0.4-4.9c-1.3-2-2.2-0.9-3.5-0.3c-1.3,0.6-2-0.6-3.6-1.6c-1.4-0.9-2.9-2.2-3.5-3.6
						c2.9-3.7,5-8.1,6.2-13c0.3-1.3,0.5-2.5,0.6-3.8c0.5,0,1.2,0,1.9-0.1c3-0.1,7.6,0.2,8.2,1.2c0.7,1,0.5,2.9,3.2,2.6
						c2.7-0.3,2.7-3,2.6-5c-0.1-1.9-0.2-3.7-2.5-4.7c-2.3-1-2.5,0.7-3.3,2c-0.6,1-3.2,1-5.3,0.9c-0.7,0-1.4,0-1.9,0
						c-0.9,0-1.9,0-2.8-0.1c0-7.3-2.7-14.3-7.2-19.8c0.4-0.5,1.1-1,1.9-1.8c2.1-1.9,7.3-5,8.3-4.7c1,0.3,2,1.8,3.7,0
						c1.7-1.8,0.3-3.8-0.9-5.1c-1.2-1.3-2.2-2.5-4.4-1.9c-2.2,0.7-1.5,2-1.3,3.4c0.2,1.5-4.9,4.4-6.3,5.6c-0.9,0.8-2,1.6-3.2,2.1
						c-0.7-0.7-1.3-1.3-2.1-1.9c-4-3.4-9.3-5.5-14.9-6.6c-0.5-1.3-0.2-2.2,0.3-4.3c0.6-2.8,1.3-4.2,2.3-4.6c1-0.4,2.6,0.2,2.9-2.3
						c0.3-2.5-2-3.2-3.7-3.5c-0.6-0.1-1.3-0.2-1.8-0.2C1281.7,106.5,1280.8,106.8,1279.9,108"/>
				</defs>
				<clipPath id="SVGID_6_">
					<use xlink:href="#SVGID_5_"  style="overflow:visible;"/>
				</clipPath>
			</g>
			<g class="st43">
				<defs>
					<rect id="SVGID_7_" x="1208" y="90.8" width="128.8" height="128.8"/>
				</defs>
				<clipPath id="SVGID_8_">
					<use xlink:href="#SVGID_7_"  style="overflow:visible;"/>
				</clipPath>
				<g class="st44">
					<g>
						<defs>
							<rect id="SVGID_9_" x="1244.6" y="112.7" width="13.7" height="16.4"/>
						</defs>
						<clipPath id="SVGID_10_">
							<use xlink:href="#SVGID_9_"  style="overflow:visible;"/>
						</clipPath>
					</g>
				</g>
				<g class="st45">
					<g>
						<defs>
							<rect id="SVGID_11_" x="1246.7" y="115.1" width="3.7" height="2.8"/>
						</defs>
						<clipPath id="SVGID_12_">
							<use xlink:href="#SVGID_11_"  style="overflow:visible;"/>
						</clipPath>
					</g>
				</g>
				<g class="st45">
					<g>
						<defs>
							<rect id="SVGID_13_" x="1245.7" y="117" width="6" height="4.6"/>
						</defs>
						<clipPath id="SVGID_14_">
							<use xlink:href="#SVGID_13_"  style="overflow:visible;"/>
						</clipPath>
					</g>
				</g>
				<g class="st44">
					<g>
						<defs>
							<rect id="SVGID_15_" x="1277.1" y="106.5" width="11.2" height="17.3"/>
						</defs>
						<clipPath id="SVGID_16_">
							<use xlink:href="#SVGID_15_"  style="overflow:visible;"/>
						</clipPath>
					</g>
				</g>
				<g class="st45">
					<g>
						<defs>
							<rect id="SVGID_17_" x="1282" y="108.7" width="4.2" height="2"/>
						</defs>
						<clipPath id="SVGID_18_">
							<use xlink:href="#SVGID_17_"  style="overflow:visible;"/>
						</clipPath>
					</g>
				</g>
				<g class="st45">
					<g>
						<defs>
							<rect id="SVGID_19_" x="1279.5" y="110" width="6.3" height="4.7"/>
						</defs>
						<clipPath id="SVGID_20_">
							<use xlink:href="#SVGID_19_"  style="overflow:visible;"/>
						</clipPath>
					</g>
				</g>
				<g class="st44">
					<g>
						<defs>
							<rect id="SVGID_21_" x="1296.6" y="118.6" width="19.9" height="17.9"/>
						</defs>
						<clipPath id="SVGID_22_">
							<use xlink:href="#SVGID_21_"  style="overflow:visible;"/>
						</clipPath>
					</g>
				</g>
				<g class="st45">
					<g>
						<defs>
							<rect id="SVGID_23_" x="1311.2" y="120.9" width="3" height="3.8"/>
						</defs>
						<clipPath id="SVGID_24_">
							<use xlink:href="#SVGID_23_"  style="overflow:visible;"/>
						</clipPath>
					</g>
				</g>
				<g class="st45">
					<g>
						<defs>
							<rect id="SVGID_25_" x="1307.7" y="120.1" width="4.7" height="6.4"/>
						</defs>
						<clipPath id="SVGID_26_">
							<use xlink:href="#SVGID_25_"  style="overflow:visible;"/>
						</clipPath>
					</g>
				</g>
				<g class="st44">
					<g>
						<defs>
							<rect id="SVGID_27_" x="1304.4" y="149.1" width="20.4" height="10"/>
						</defs>
						<clipPath id="SVGID_28_">
							<use xlink:href="#SVGID_27_"  style="overflow:visible;"/>
						</clipPath>
					</g>
				</g>
				<g class="st45">
					<g>
						<defs>
							<rect id="SVGID_29_" x="1320.8" y="151.9" width="1.6" height="5"/>
						</defs>
						<clipPath id="SVGID_30_">
							<use xlink:href="#SVGID_29_"  style="overflow:visible;"/>
						</clipPath>
					</g>
				</g>
				<g class="st45">
					<g>
						<defs>
							<rect id="SVGID_31_" x="1316.2" y="149.3" width="4" height="7.6"/>
						</defs>
						<clipPath id="SVGID_32_">
							<use xlink:href="#SVGID_31_"  style="overflow:visible;"/>
						</clipPath>
					</g>
				</g>
				<g class="st44">
					<g>
						<defs>
							<rect id="SVGID_33_" x="1297" y="170" width="16.4" height="15.1"/>
						</defs>
						<clipPath id="SVGID_34_">
							<use xlink:href="#SVGID_33_"  style="overflow:visible;"/>
						</clipPath>
					</g>
				</g>
				<g class="st45">
					<g>
						<defs>
							<rect id="SVGID_35_" x="1308.3" y="179" width="2.9" height="3.8"/>
						</defs>
						<clipPath id="SVGID_36_">
							<use xlink:href="#SVGID_35_"  style="overflow:visible;"/>
						</clipPath>
					</g>
				</g>
				<g class="st45">
					<g>
						<defs>
							<rect id="SVGID_37_" x="1305.3" y="176.3" width="5.7" height="5.2"/>
						</defs>
						<clipPath id="SVGID_38_">
							<use xlink:href="#SVGID_37_"  style="overflow:visible;"/>
						</clipPath>
					</g>
				</g>
				<g class="st44">
					<g>
						<defs>
							<rect id="SVGID_39_" x="1279.1" y="182.8" width="11.9" height="17.2"/>
						</defs>
						<clipPath id="SVGID_40_">
							<use xlink:href="#SVGID_39_"  style="overflow:visible;"/>
						</clipPath>
					</g>
				</g>
				<g class="st45">
					<g>
						<defs>
							<rect id="SVGID_41_" x="1284.5" y="195.4" width="4.2" height="2.1"/>
						</defs>
						<clipPath id="SVGID_42_">
							<use xlink:href="#SVGID_41_"  style="overflow:visible;"/>
						</clipPath>
					</g>
				</g>
				<g class="st45">
					<g>
						<defs>
							<rect id="SVGID_43_" x="1283.8" y="191" width="6.6" height="4.2"/>
						</defs>
						<clipPath id="SVGID_44_">
							<use xlink:href="#SVGID_43_"  style="overflow:visible;"/>
						</clipPath>
					</g>
				</g>
				<g class="st44">
					<g>
						<defs>
							<rect id="SVGID_45_" x="1253.2" y="181.3" width="12.5" height="17.4"/>
						</defs>
						<clipPath id="SVGID_46_">
							<use xlink:href="#SVGID_45_"  style="overflow:visible;"/>
						</clipPath>
					</g>
				</g>
				<g class="st45">
					<g>
						<defs>
							<rect id="SVGID_47_" x="1255.3" y="194.2" width="4.1" height="2.3"/>
						</defs>
						<clipPath id="SVGID_48_">
							<use xlink:href="#SVGID_47_"  style="overflow:visible;"/>
						</clipPath>
					</g>
				</g>
				<g class="st45">
					<g>
						<defs>
							<rect id="SVGID_49_" x="1256" y="190.4" width="5.9" height="5.2"/>
						</defs>
						<clipPath id="SVGID_50_">
							<use xlink:href="#SVGID_49_"  style="overflow:visible;"/>
						</clipPath>
					</g>
				</g>
				<g class="st44">
					<g>
						<defs>
							<rect id="SVGID_51_" x="1227.8" y="163.2" width="16.5" height="12.9"/>
						</defs>
						<clipPath id="SVGID_52_">
							<use xlink:href="#SVGID_51_"  style="overflow:visible;"/>
						</clipPath>
					</g>
				</g>
				<g class="st45">
					<g>
						<defs>
							<rect id="SVGID_53_" x="1230.1" y="169.4" width="2.1" height="4.4"/>
						</defs>
						<clipPath id="SVGID_54_">
							<use xlink:href="#SVGID_53_"  style="overflow:visible;"/>
						</clipPath>
					</g>
				</g>
				<g class="st45">
					<g>
						<defs>
							<rect id="SVGID_55_" x="1232.4" y="168.6" width="4.1" height="6.8"/>
						</defs>
						<clipPath id="SVGID_56_">
							<use xlink:href="#SVGID_55_"  style="overflow:visible;"/>
						</clipPath>
					</g>
				</g>
				<g class="st44">
					<g>
						<defs>
							<rect id="SVGID_57_" x="1226.9" y="136.9" width="16.7" height="12.1"/>
						</defs>
						<clipPath id="SVGID_58_">
							<use xlink:href="#SVGID_57_"  style="overflow:visible;"/>
						</clipPath>
					</g>
				</g>
				<g class="st45">
					<g>
						<defs>
							<rect id="SVGID_59_" x="1229" y="139" width="2" height="4.3"/>
						</defs>
						<clipPath id="SVGID_60_">
							<use xlink:href="#SVGID_59_"  style="overflow:visible;"/>
						</clipPath>
					</g>
				</g>
				<g class="st45">
					<g>
						<defs>
							<rect id="SVGID_61_" x="1230.1" y="139.6" width="4.7" height="6.4"/>
						</defs>
						<clipPath id="SVGID_62_">
							<use xlink:href="#SVGID_61_"  style="overflow:visible;"/>
						</clipPath>
					</g>
				</g>
				<g class="st46">
					<g>
						<defs>
							<rect id="SVGID_63_" x="1253.7" y="132.9" width="16.1" height="7.3"/>
						</defs>
						<clipPath id="SVGID_64_">
							<use xlink:href="#SVGID_63_"  style="overflow:visible;"/>
						</clipPath>
					</g>
				</g>
				<g class="st45">
					<g>
						<defs>
							<rect id="SVGID_65_" x="1251.6" y="151.7" width="45.7" height="22.3"/>
						</defs>
						<clipPath id="SVGID_66_">
							<use xlink:href="#SVGID_65_"  style="overflow:visible;"/>
						</clipPath>
					</g>
				</g>
				<g class="st46">
					<g>
						<defs>
							<rect id="SVGID_67_" x="1276" y="128.7" width="16" height="10.2"/>
						</defs>
						<clipPath id="SVGID_68_">
							<use xlink:href="#SVGID_67_"  style="overflow:visible;"/>
						</clipPath>
					</g>
				</g>
				<g class="st46">
					<g>
						<defs>
							<rect id="SVGID_69_" x="1279.4" y="133.8" width="10.3" height="9.9"/>
						</defs>
						<clipPath id="SVGID_70_">
							<use xlink:href="#SVGID_69_"  style="overflow:visible;"/>
						</clipPath>
					</g>
				</g>
				<g class="st47">
					<g>
						<defs>
							<rect id="SVGID_71_" x="1281.1" y="134.2" width="7.3" height="8.8"/>
						</defs>
						<clipPath id="SVGID_72_">
							<use xlink:href="#SVGID_71_"  style="overflow:visible;"/>
						</clipPath>
					</g>
				</g>
				<g class="st46">
					<g>
						<defs>
							<rect id="SVGID_73_" x="1253.7" y="139.3" width="13.8" height="14.2"/>
						</defs>
						<clipPath id="SVGID_74_">
							<use xlink:href="#SVGID_73_"  style="overflow:visible;"/>
						</clipPath>
					</g>
				</g>
				<g class="st47">
					<g>
						<defs>
							<rect id="SVGID_75_" x="1255.4" y="139.9" width="9.6" height="12.3"/>
						</defs>
						<clipPath id="SVGID_76_">
							<use xlink:href="#SVGID_75_"  style="overflow:visible;"/>
						</clipPath>
					</g>
				</g>
			</g>
			<g class="st43">
				<defs>
					<path id="SVGID_77_" d="M1278.5,152.7c-4.9,0.4-9.5,2.1-13.7,4.7c-3.9,2.4-9,8.3-11.5,12.3c-0.5,0.9-1.8,2.4,0.2,2.7
						c1.4,0.2,3.3-1.9,5-4.1c1.3-1.8,2.2-3,4.2-4c2.3-1.1,4.2-1,6-0.8c2,0.2,3.8,0.9,5.5,1.8c3.3,1.7,6.4,3.6,9.8,5.1
						c2.6,1.2,5.4,1.6,7.9,0.1c2.2-1.3,3.5-4,3.9-6.5c0.6-3.7-1.2-7.4-4.2-9.4c-2.6-1.7-5.8-2.2-8.9-2.2
						C1281.3,152.5,1279.9,152.6,1278.5,152.7"/>
				</defs>
				<clipPath id="SVGID_78_">
					<use xlink:href="#SVGID_77_"  style="overflow:visible;"/>
				</clipPath>
			</g>
			<g class="st43">
				<defs>
					<rect id="SVGID_79_" x="1208" y="90.8" width="128.8" height="128.8"/>
				</defs>
				<clipPath id="SVGID_80_">
					<use xlink:href="#SVGID_79_"  style="overflow:visible;"/>
				</clipPath>
				<g class="st48">
					<g>
						<defs>
							<rect id="SVGID_81_" x="1252.5" y="152.5" width="43.6" height="19.9"/>
						</defs>
						<clipPath id="SVGID_82_">
							<use xlink:href="#SVGID_81_"  style="overflow:visible;"/>
						</clipPath>
						<g class="st49">
							<defs>
								<path id="SVGID_83_" d="M1291.7,154.6c-3.8-2.5-8.9-2.3-13.2-1.9c-4.9,0.4-9.5,2.1-13.7,4.7c-3.9,2.4-9,8.3-11.5,12.3
									c-0.5,0.9-1.8,2.4,0.2,2.7c0.1,0,0.2,0,0.3,0c0.2-1.1,1-2.5,1.4-3.1c2.2-3.4,5.5-6.3,8.7-8.6c6.3-4.6,14.3-7.2,22-5.4
									c2.7,0.6,6,1.9,7.3,4.7c1.3,2.8,1.2,6.4-1.3,8.4c-2.3,1.9-5,2.4-7.8,2.2c2.6,1.2,5.4,1.6,7.9,0.1c2.2-1.3,3.5-4,3.9-6.5
									C1296.5,160.3,1294.7,156.6,1291.7,154.6"/>
							</defs>
							<clipPath id="SVGID_84_">
								<use xlink:href="#SVGID_83_"  style="overflow:visible;"/>
							</clipPath>
						</g>
					</g>
				</g>
				<g class="st48">
					<g>
						<defs>
							<rect id="SVGID_85_" x="1252.5" y="153" width="43.6" height="19.4"/>
						</defs>
						<clipPath id="SVGID_86_">
							<use xlink:href="#SVGID_85_"  style="overflow:visible;"/>
						</clipPath>
						<g class="st50">
							<defs>
								<path id="SVGID_87_" d="M1291.7,154.6c-1.2-0.8-2.6-1.3-4-1.7c2.1,2.1,6.3,5.1,3.7,10.2c-2,3.8-6.6,0.4-9.6-0.2
									c-5.1-1-9.8-3.2-15.1-1.7c-1.2,0.3-3.9,0.9-4.1-1.1c0-0.4,0-0.8,0.1-1.2c-3.4,2.9-7.2,7.4-9.3,10.6
									c-0.5,0.9-1.8,2.4,0.2,2.7c1.4,0.2,3.3-1.9,5-4.1c1.3-1.8,2.2-3,4.2-4c2.3-1.1,4.2-1,6-0.8c2,0.2,3.8,0.9,5.5,1.8
									c3.3,1.7,6.4,3.6,9.8,5.1c2.6,1.2,5.4,1.6,7.9,0.1c2.2-1.3,3.5-4,3.9-6.5C1296.5,160.3,1294.7,156.6,1291.7,154.6"/>
							</defs>
							<clipPath id="SVGID_88_">
								<use xlink:href="#SVGID_87_"  style="overflow:visible;"/>
							</clipPath>
						</g>
					</g>
				</g>
				<g class="st51">
					<g>
						<defs>
							<rect id="SVGID_89_" x="1256.5" y="153" width="38.8" height="17.8"/>
						</defs>
						<clipPath id="SVGID_90_">
							<use xlink:href="#SVGID_89_"  style="overflow:visible;"/>
						</clipPath>
					</g>
				</g>
				<g class="st48">
					<g>
						<defs>
							<rect id="SVGID_91_" x="1256.5" y="152.8" width="39.1" height="18.2"/>
						</defs>
						<clipPath id="SVGID_92_">
							<use xlink:href="#SVGID_91_"  style="overflow:visible;"/>
						</clipPath>
					</g>
				</g>
			</g>
			<g class="st43">
				<defs>
					<rect id="SVGID_93_" x="1208.2" y="90.8" width="56.6" height="15.7"/>
				</defs>
				<clipPath id="SVGID_94_">
					<use xlink:href="#SVGID_93_"  style="overflow:visible;"/>
				</clipPath>
			</g>
			<g class="st43">
				<defs>
					<rect id="SVGID_95_" x="1208" y="90.8" width="128.8" height="128.8"/>
				</defs>
				<clipPath id="SVGID_96_">
					<use xlink:href="#SVGID_95_"  style="overflow:visible;"/>
				</clipPath>
				<path class="st52" d="M1271.4,186c-4.1,0-11.4-0.2-18.9-4.8c-10.7-6.5-13.8-17.3-14.6-20.3c-1.2-4.6-3.3-16,3.8-26.9
					c7.5-11.5,19.7-14.2,23.7-15.1c3.5-0.8,11.6-2.5,20.9,0.7c12.4,4.2,18.1,13.9,19.5,16.4c1.8,3.2,6.6,12,4.1,23
					c-2.6,11.5-11.4,17.7-14.4,19.8C1285.3,186.1,1274.7,186.1,1271.4,186"/>
				<path class="st53" d="M1271.4,186c-4.1,0-11.4-0.2-18.9-4.8c-10.7-6.5-13.8-17.3-14.6-20.3c-1.2-4.6-3.3-16,3.8-26.9
					c7.5-11.5,19.7-14.2,23.7-15.1c3.5-0.8,11.6-2.5,20.9,0.7c12.4,4.2,18.1,13.9,19.5,16.4c1.8,3.2,6.6,12,4.1,23
					c-2.6,11.5-11.4,17.7-14.4,19.8C1285.3,186.1,1274.7,186.1,1271.4,186z"/>
			</g>
			<g class="st43">
				<defs>
					<rect id="SVGID_97_" x="1208" y="90.8" width="128.8" height="128.8"/>
				</defs>
				<clipPath id="SVGID_98_">
					<use xlink:href="#SVGID_97_"  style="overflow:visible;"/>
				</clipPath>
				<g class="st54">
					<g>
						<defs>
							<rect id="SVGID_99_" x="1253.1" y="137.9" width="15.9" height="15.1"/>
						</defs>
						<clipPath id="SVGID_100_">
							<use xlink:href="#SVGID_99_"  style="overflow:visible;"/>
						</clipPath>
						<path class="st55" d="M1258.9,152.6c-0.6-0.1-3.5-0.8-4.8-3.3c-1.8-3.3-0.3-8.5,3.7-10.4c3.9-1.9,8.8,0,10.5,3.5
							c1.5,3,0.1,6.1,0,6.2C1266.5,152.1,1262.2,153.3,1258.9,152.6"/>
						<path class="st56" d="M1258.9,152.6c-0.6-0.1-3.5-0.8-4.8-3.3c-1.8-3.3-0.3-8.5,3.7-10.4c3.9-1.9,8.8,0,10.5,3.5
							c1.5,3,0.1,6.1,0,6.2C1266.5,152.1,1262.2,153.3,1258.9,152.6z"/>
					</g>
				</g>
				<g class="st54">
					<g>
						<defs>
							<rect id="SVGID_101_" x="1278.4" y="132.3" width="12" height="12.8"/>
						</defs>
						<clipPath id="SVGID_102_">
							<use xlink:href="#SVGID_101_"  style="overflow:visible;"/>
						</clipPath>
						<path class="st57" d="M1282.7,144.7c-0.4-0.1-2.6-0.7-3.6-2.8c-1.3-2.8-0.3-7.2,2.7-8.9c2.9-1.6,6.6,0,7.8,3
							c1.1,2.6,0.1,5.1,0,5.3C1288.4,144.3,1285.2,145.4,1282.7,144.7"/>
						<path class="st58" d="M1282.7,144.7c-0.4-0.1-2.6-0.7-3.6-2.8c-1.3-2.8-0.3-7.2,2.7-8.9c2.9-1.6,6.6,0,7.8,3
							c1.1,2.6,0.1,5.1,0,5.3C1288.4,144.3,1285.2,145.4,1282.7,144.7z"/>
					</g>
				</g>
				<g class="st54">
					<g>
						<defs>
							<rect id="SVGID_103_" x="1267.3" y="123.6" width="43.5" height="62.8"/>
						</defs>
						<clipPath id="SVGID_104_">
							<use xlink:href="#SVGID_103_"  style="overflow:visible;"/>
						</clipPath>
						<path class="st59" d="M1267.5,185.9c-0.1-0.7,12.1,0.2,23.6-6.5c3.2-1.9,10.8-6.5,14.7-16c0.4-1,4.4-11.2,0.6-22
							c0,0-1.3-3.8-10.8-17c0,0,1.1,0.8,1.1,0.8c4.8,3.7,8.4,9.5,8.4,9.5c1.2,1.9,3.4,5.5,4.6,10.8c0.5,2.2,1.5,6.6,0.5,12.2
							c-0.2,1.1-1,5.3-3.8,10c-2.9,4.9-6.4,7.8-8.8,9.6c-3.6,2.9-6.9,4.4-8.3,5.1c-5.1,2.3-9.4,2.9-12,3.3
							C1272.7,186.4,1267.5,186.4,1267.5,185.9"/>
						<path class="st60" d="M1267.5,185.9c-0.1-0.7,12.1,0.2,23.6-6.5c3.2-1.9,10.8-6.5,14.7-16c0.4-1,4.4-11.2,0.6-22
							c0,0-1.3-3.8-10.8-17c0,0,1.1,0.8,1.1,0.8c4.8,3.7,8.4,9.5,8.4,9.5c1.2,1.9,3.4,5.5,4.6,10.8c0.5,2.2,1.5,6.6,0.5,12.2
							c-0.2,1.1-1,5.3-3.8,10c-2.9,4.9-6.4,7.8-8.8,9.6c-3.6,2.9-6.9,4.4-8.3,5.1c-5.1,2.3-9.4,2.9-12,3.3
							C1272.7,186.4,1267.5,186.4,1267.5,185.9z"/>
					</g>
				</g>
			</g>
			<g class="st43">
				<defs>
					<rect id="SVGID_105_" x="1208" y="90.8" width="128.8" height="128.8"/>
				</defs>
				<clipPath id="SVGID_106_">
					<use xlink:href="#SVGID_105_"  style="overflow:visible;"/>
				</clipPath>
				<path class="st61" d="M1268,145.4c0,3.7-3,6.7-6.7,6.7s-6.7-3-6.7-6.7c0-3.7,3-6.7,6.7-6.7S1268,141.7,1268,145.4"/>
				<circle class="st62" cx="1261.2" cy="145.4" r="6.7"/>
				<path class="st63" d="M1289.2,138.9c0,2.7-2.2,4.9-4.9,4.9s-4.9-2.2-4.9-4.9c0-2.7,2.2-4.9,4.9-4.9S1289.2,136.3,1289.2,138.9"
					/>
				<circle class="st62" cx="1284.3" cy="138.9" r="4.9"/>
				<path class="st64" d="M1286.8,138.7c1,3.8-4,5-4.9,1.2C1281,136,1286,134.8,1286.8,138.7"/>
				<path class="st65" d="M1285.4,139c0.4,1.8-1.7,2.3-2.1,0.5C1282.9,137.7,1285,137.2,1285.4,139"/>
				<path class="st66" d="M1283.8,138.2c0.2,0.8-0.8,1-0.9,0.2C1282.7,137.6,1283.7,137.4,1283.8,138.2"/>
				<path class="st64" d="M1264.3,144.6c1.1,4.6-4.8,6-5.8,1.4C1257.4,141.4,1263.3,140,1264.3,144.6"/>
				<path class="st65" d="M1262.6,145c0.5,2.1-2,2.7-2.4,0.6C1259.7,143.4,1262.2,142.8,1262.6,145"/>
				<path class="st66" d="M1260.8,144c0.2,1-0.9,1.2-1.1,0.3C1259.4,143.3,1260.6,143.1,1260.8,144"/>
			</g>
			<g class="st43">
				<defs>
					<rect id="SVGID_107_" x="1208" y="90.8" width="128.8" height="128.8"/>
				</defs>
				<clipPath id="SVGID_108_">
					<use xlink:href="#SVGID_107_"  style="overflow:visible;"/>
				</clipPath>
				<path class="st67" d="M1249.6,135.9c2.3-0.6,4.2-0.6,5.1-0.6c1.2,0,3.3,0,5.7,0.9c4.4,1.5,6.6,2.3,7,2.5c0.1,0,0.4,0.2,0.6,0.1
					c0.3-0.1,0.3-0.7,0.3-0.9c0-0.3-0.2-1-1.8-1.8c-1.4-0.8-2.5-0.8-5.2-1.2c-3.7-0.5-3.3-0.6-4.6-0.6c-2.1-0.1-3.5-0.2-5.1,0.2
					c-2.2,0.6-3.8,1.8-3.7,2C1247.9,136.4,1248.6,136.1,1249.6,135.9"/>
				<g class="st68">
					<g>
						<defs>
							<rect id="SVGID_109_" x="1247.6" y="135" width="20.5" height="4.7"/>
						</defs>
						<clipPath id="SVGID_110_">
							<use xlink:href="#SVGID_109_"  style="overflow:visible;"/>
						</clipPath>
						<path class="st69" d="M1249.3,136.8c2.3-0.6,4.2-0.6,5.1-0.6c1.2,0,3.3,0,5.7,0.9c4.4,1.5,6.6,2.3,7,2.5
							c0.1,0,0.4,0.2,0.6,0.1c0.3-0.1,0.3-0.7,0.3-0.9c0-0.3-0.2-1-1.8-1.8c-1.4-0.8-2.5-0.8-5.2-1.2c-3.7-0.5-3.3-0.6-4.6-0.6
							c-2.1-0.1-3.5-0.2-5.1,0.2c-2.2,0.6-3.8,1.8-3.7,2C1247.6,137.3,1248.3,137.1,1249.3,136.8"/>
					</g>
				</g>
				<path class="st67" d="M1291.6,129.9c-2.2-0.2-3.9,0.2-4.7,0.4c-1,0.2-2.9,0.7-4.7,2.1c-3.3,2.6-5,3.8-5.2,4.1
					c-0.1,0.1-0.3,0.3-0.5,0.2c-0.3-0.1-0.5-0.7-0.6-0.9c-0.1-0.3-0.2-1.1,0.9-2.3c0.9-1.1,1.9-1.4,4.2-2.4c3.1-1.3,2.7-1.3,3.8-1.6
					c1.8-0.6,3-0.9,4.6-0.8c2.1,0.2,4,1.2,4,1.4C1293.3,130.1,1292.6,130,1291.6,129.9"/>
				<g class="st68">
					<g>
						<defs>
							<rect id="SVGID_111_" x="1276.4" y="129.6" width="17.5" height="8.1"/>
						</defs>
						<clipPath id="SVGID_112_">
							<use xlink:href="#SVGID_111_"  style="overflow:visible;"/>
						</clipPath>
						<path class="st70" d="M1292.2,130.9c-2.2-0.2-3.9,0.2-4.7,0.4c-1,0.2-2.9,0.7-4.7,2.1c-3.3,2.6-5,3.8-5.2,4.1
							c-0.1,0.1-0.3,0.3-0.5,0.2c-0.3-0.1-0.5-0.7-0.6-0.9c-0.1-0.3-0.2-1.1,0.9-2.3c0.9-1.1,1.9-1.4,4.2-2.4
							c3.1-1.3,2.7-1.3,3.8-1.6c1.8-0.6,3-0.9,4.6-0.8c2.1,0.2,4,1.2,4,1.4C1293.9,131.1,1293.2,130.9,1292.2,130.9"/>
					</g>
				</g>
				<g class="st68">
					<g>
						<defs>
							<rect id="SVGID_113_" x="1264.8" y="156.7" width="26.8" height="10.5"/>
						</defs>
						<clipPath id="SVGID_114_">
							<use xlink:href="#SVGID_113_"  style="overflow:visible;"/>
						</clipPath>
						<path class="st71" d="M1266.9,165.6c2.6-2,4.9-3,6.1-3.4c1.5-0.6,4.2-1.7,7.7-1.9c6.3-0.4,9.5-0.5,10.1-0.5
							c0.1,0,0.6,0,0.8-0.2c0.3-0.4,0.1-1-0.1-1.3c-0.2-0.3-0.8-1.2-3.2-1.4c-2.2-0.2-3.6,0.2-7.2,1.2c-4.9,1.3-4.5,1.1-6.1,1.6
							c-2.8,1-4.5,1.6-6.4,3c-2.4,1.9-3.9,4.4-3.7,4.5C1265,167.2,1265.7,166.5,1266.9,165.6"/>
					</g>
				</g>
			</g>
			<g class="st43">
				<defs>
					<rect id="SVGID_115_" x="1208" y="90.8" width="128.8" height="128.8"/>
				</defs>
				<clipPath id="SVGID_116_">
					<use xlink:href="#SVGID_115_"  style="overflow:visible;"/>
				</clipPath>
				<path class="st72" d="M1262.4,168.3c1.8-2.2,4.9-5.4,9.7-7.7c9.7-4.8,19-2.5,21.7-1.8"/>
			</g>
			<g class="st43">
				<defs>
					<rect id="SVGID_117_" x="1208" y="90.8" width="128.8" height="128.8"/>
				</defs>
				<clipPath id="SVGID_118_">
					<use xlink:href="#SVGID_117_"  style="overflow:visible;"/>
				</clipPath>
				<path class="st73" d="M1275.2,119.5c3-0.6,7.4-5.6,7.1-8.9c-6.2-4.7,4.6-8.2,7.3-3.6c1.2,2-1.8,4.2-3.7,3.7
					c-2.7,1.5-2.4,9-0.1,10.2"/>
				<path class="st74" d="M1275.2,119.5c3-0.6,7.4-5.6,7.1-8.9c-6.2-4.7,4.6-8.2,7.3-3.6c1.2,2-1.8,4.2-3.7,3.7
					c-2.7,1.5-2.4,9-0.1,10.2"/>
				<path class="st73" d="M1287.3,107.6c1.6,2.9-5.9,0.9-3.8-1.1"/>
				<path class="st74" d="M1287.3,107.6c1.6,2.9-5.9,0.9-3.8-1.1"/>
				<path class="st73" d="M1249.2,130.4c1.8-2.5,1.6-9.1-0.8-11.3c-7.7,0.8-2.2-9.1,2.9-7.6c2.3,0.6,1.5,4.3-0.2,5.2
					c-1,3,4.3,8.2,6.8,7.6"/>
				<path class="st75" d="M1249.2,130.4c1.8-2.5,1.6-9.1-0.8-11.3c-7.7,0.8-2.2-9.1,2.9-7.6c2.3,0.6,1.5,4.3-0.2,5.2
					c-1,3,4.3,8.2,6.8,7.6"/>
				<path class="st73" d="M1250,113.5c3.1,1-3.7,4.7-3.5,1.8"/>
				<path class="st75" d="M1250,113.5c3.1,1-3.7,4.7-3.5,1.8"/>
				<path class="st73" d="M1243.7,137.9c-1.7,2.6-7.9,4.7-10.9,3.3c-2-7.5-9.3,1.2-6.1,5.4c1.4,1.9,4.6-0.1,4.8-2
					c2.4-2,9.2,1.1,9.5,3.7"/>
				<path class="st75" d="M1243.7,137.9c-1.7,2.6-7.9,4.7-10.9,3.3c-2-7.5-9.3,1.2-6.1,5.4c1.4,1.9,4.6-0.1,4.8-2
					c2.4-2,9.2,1.1,9.5,3.7"/>
				<path class="st73" d="M1228.1,144.7c2.1,2.6,3.1-5.1,0.4-3.9"/>
				<path class="st75" d="M1228.1,144.7c2.1,2.6,3.1-5.1,0.4-3.9"/>
				<path class="st73" d="M1247.3,173c-2.2-2.2-8.8-2.9-11.3-0.8c-0.3,7.8-9.3,0.9-7.1-3.9c1-2.2,4.5-0.9,5.1,0.9
					c2.8,1.4,8.8-3.1,8.5-5.7"/>
				<path class="st75" d="M1247.3,173c-2.2-2.2-8.8-2.9-11.3-0.8c-0.3,7.8-9.3,0.9-7.1-3.9c1-2.2,4.5-0.9,5.1,0.9
					c2.8,1.4,8.8-3.1,8.5-5.7"/>
				<path class="st73" d="M1230.7,169.9c1.5-2.9,4.1,4.3,1.3,3.7"/>
				<path class="st75" d="M1230.7,169.9c1.5-2.9,4.1,4.3,1.3,3.7"/>
				<path class="st73" d="M1255.9,180c2.2,2.1,3.2,8.7,1.2,11.3c-7.8,0.6-0.5,9.3,4.2,7c2.1-1,0.7-4.5-1.1-5.1
					c-1.5-2.8,2.7-8.9,5.3-8.7"/>
				<path class="st75" d="M1255.9,180c2.2,2.1,3.2,8.7,1.2,11.3c-7.8,0.6-0.5,9.3,4.2,7c2.1-1,0.7-4.5-1.1-5.1
					c-1.5-2.8,2.7-8.9,5.3-8.7"/>
				<path class="st73" d="M1259.7,196.5c2.9-1.6-4.5-3.9-3.8-1.1"/>
				<path class="st75" d="M1259.7,196.5c2.9-1.6-4.5-3.9-3.8-1.1"/>
				<path class="st73" d="M1288.7,180.1c-2.4,1.9-3.8,8.4-2,11.2c7.7,1.1-0.1,9.3-4.7,6.6c-2-1.2-0.4-4.6,1.5-5c1.7-2.7-2.1-9-4.7-9
					"/>
				<path class="st75" d="M1288.7,180.1c-2.4,1.9-3.8,8.4-2,11.2c7.7,1.1-0.1,9.3-4.7,6.6c-2-1.2-0.4-4.6,1.5-5c1.7-2.7-2.1-9-4.7-9
					"/>
				<path class="st73" d="M1283.8,196.3c-2.8-1.8,4.7-3.6,3.8-0.9"/>
				<path class="st75" d="M1283.8,196.3c-2.8-1.8,4.7-3.6,3.8-0.9"/>
				<path class="st73" d="M1304.3,166.1c-1.4,3.2,0.7,10.5,4.1,12.3c8.6-3,5,9.5-1.2,9.2c-2.8-0.1-3-4.4-1.2-5.8
					c0.3-3.6-7.2-8-9.9-6.6"/>
				<path class="st75" d="M1304.3,166.1c-1.4,3.2,0.7,10.5,4.1,12.3c8.6-3,5,9.5-1.2,9.2c-2.8-0.1-3-4.4-1.2-5.8
					c0.3-3.6-7.2-8-9.9-6.6"/>
				<path class="st73" d="M1308.1,185.1c-3.9-0.3,2.9-6.2,3.5-2.9"/>
				<path class="st75" d="M1308.1,185.1c-3.9-0.3,2.9-6.2,3.5-2.9"/>
				<path class="st73" d="M1295.6,125.9c2.6,1.7,9.2,1.1,11.3-1.4c-1.2-7.7,9-2.7,7.7,2.5c-0.5,2.3-4.2,1.8-5.2,0.1
					c-3-0.8-8,4.7-7.2,7.2"/>
				<path class="st75" d="M1295.6,125.9c2.6,1.7,9.2,1.1,11.3-1.4c-1.2-7.7,9-2.7,7.7,2.5c-0.5,2.3-4.2,1.8-5.2,0.1
					c-3-0.8-8,4.7-7.2,7.2"/>
				<path class="st73" d="M1312.6,125.8c-0.9,3.2-4.9-3.4-2-3.4"/>
				<path class="st75" d="M1312.6,125.8c-0.9,3.2-4.9-3.4-2-3.4"/>
				<path class="st73" d="M1306.4,160.3c1.3-2.8,7.3-5.6,10.4-4.5c2.9,7.2,9.1-2.3,5.4-6.1c-1.6-1.7-4.5,0.7-4.5,2.6
					c-2.2,2.2-9.3,0-9.9-2.5"/>
				<path class="st75" d="M1306.4,160.3c1.3-2.8,7.3-5.6,10.4-4.5c2.9,7.2,9.1-2.3,5.4-6.1c-1.6-1.7-4.5,0.7-4.5,2.6
					c-2.2,2.2-9.3,0-9.9-2.5"/>
				<path class="st73" d="M1321.1,151.8c-2.4-2.3-2.4,5.4,0,3.9"/>
				<path class="st75" d="M1321.1,151.8c-2.4-2.3-2.4,5.4,0,3.9"/>
			</g>
		</g>
	</g>
</g>
</svg>
