<?xml version="1.0" encoding="utf-8"?>
<!-- Generator: Adobe Illustrator 24.2.1, SVG Export Plug-In . SVG Version: 6.00 Build 0)  -->
<svg version="1.1" id="Ebene_1" xmlns="http://www.w3.org/2000/svg" xmlns:xlink="http://www.w3.org/1999/xlink" x="0px" y="0px"
	 viewBox="0 0 1366 768" style="enable-background:new 0 0 1366 768;" xml:space="preserve">
<style type="text/css">
	.st0{fill:#2C9DC6;}
	.st1{fill:#FFFFFF;}
	.st2{fill:#E8792E;stroke:#965930;stroke-width:1.65;stroke-miterlimit:10;}
	.st3{opacity:0.25;fill:#965930;stroke:#965930;stroke-width:0.33;stroke-miterlimit:10;enable-background:new    ;}
	.st4{fill:#FFE7D9;stroke:#965930;stroke-width:1.65;stroke-miterlimit:10;}
	.st5{fill:#FFEEE3;stroke:#965930;stroke-width:1.65;stroke-miterlimit:10;}
	.st6{fill:#7B5089;}
	.st7{fill:#F9F9F9;}
	.st8{fill:#965930;}
	.st9{opacity:0.25;fill:#965930;enable-background:new    ;}
	.st10{fill:none;stroke:#965930;stroke-width:1.65;stroke-linecap:round;stroke-miterlimit:10;}
	.st11{fill:#E8792E;stroke:#965930;stroke-width:1.98;stroke-linecap:round;stroke-miterlimit:10;}
	.st12{fill:#E8792E;stroke:#965930;stroke-width:1.65;stroke-linecap:round;stroke-miterlimit:10;}
	.st13{fill:#5B9DD3;stroke:#3A3C8C;stroke-width:1.34;stroke-miterlimit:10;}
	.st14{opacity:0.25;fill:#3A3C8C;stroke:#3A3C8C;stroke-width:5.000000e-02;stroke-miterlimit:10;enable-background:new    ;}
	.st15{opacity:0.25;fill:#3A3C72;enable-background:new    ;}
	.st16{fill:#CACEFF;}
	.st17{fill:#EEEEFF;stroke:#3A3C8C;stroke-width:1.34;stroke-miterlimit:10;}
	.st18{fill:#9FA588;}
	.st19{fill:#B761CF;}
	.st20{fill:#894A51;}
	.st21{fill:#E9E9FF;stroke:#3A3C8C;stroke-width:1.34;stroke-miterlimit:10;}
	.st22{fill:#507A8C;}
	.st23{fill:#5B9DD3;stroke:#3A3C8C;stroke-width:0.99;stroke-miterlimit:10;}
	.st24{opacity:0.25;fill:#3A3C8C;stroke:#3A3C8C;stroke-width:4.000000e-02;stroke-miterlimit:10;enable-background:new    ;}
	.st25{fill:#EEEEFF;stroke:#3A3C8C;stroke-width:0.99;stroke-miterlimit:10;}
	.st26{fill:#E9E9FF;stroke:#3A3C8C;stroke-width:0.99;stroke-miterlimit:10;}
	.st27{fill:#5B9DD3;stroke:#3A3C8C;stroke-width:1.41;stroke-miterlimit:10;}
	.st28{opacity:0.25;fill:#3A3C8C;stroke:#3A3C8C;stroke-width:6.000000e-02;stroke-miterlimit:10;enable-background:new    ;}
	.st29{fill:#EEEEFF;stroke:#3A3C8C;stroke-width:1.41;stroke-miterlimit:10;}
	.st30{fill:#E9E9FF;stroke:#3A3C8C;stroke-width:1.41;stroke-miterlimit:10;}
	.st31{fill:#E8792E;stroke:#965930;stroke-width:1.48;stroke-miterlimit:10;}
	.st32{opacity:0.25;fill:#965930;stroke:#965930;stroke-width:0.3;stroke-miterlimit:10;enable-background:new    ;}
	.st33{fill:#FFE7D9;stroke:#965930;stroke-width:1.48;stroke-miterlimit:10;}
	.st34{fill:#FFEEE3;stroke:#965930;stroke-width:1.48;stroke-miterlimit:10;}
	.st35{fill:#965930;stroke:#965930;stroke-width:0.3;stroke-miterlimit:10;}
	.st36{fill:#A51C1C;}
	.st37{fill:#CC3E3E;}
	.st38{fill:#EADFDF;stroke:#7C7C7C;stroke-width:0.3;stroke-miterlimit:10;}
	.st39{opacity:0.5;fill:#FFFFFF;enable-background:new    ;}
	.st40{fill:none;stroke:#965930;stroke-width:1.48;stroke-miterlimit:10;}
	.st41{fill:#E8792E;stroke:#965930;stroke-width:1.48;stroke-linecap:round;stroke-miterlimit:10;}
</style>
<g id="Hintergrund">
	<rect x="-34.5" y="-31.5" class="st0" width="1440.9" height="824.9"/>
	<path class="st1" d="M1405.9-30.9v823.9H-33.9V-30.9H1405.9 M1407-32H-35v826h1442V-32z"/>
</g>
<g id="Virus">
	<path class="st2" d="M94.8,183.7c-4.1-0.5-11.6-1.4-18.8-6.8c-10.3-7.8-12.3-19-12.8-22.2c-0.8-4.8-1.7-16.7,6.7-27
		c8.8-10.9,21.6-12.4,25.7-12.9c7.2-1.1,14.5-0.1,21.2,2.8c8.1,3.8,14.6,10.5,18.2,18.8c1.5,3.4,5.5,12.9,1.8,23.9
		c-3.9,11.5-13.4,16.8-16.8,18.7C112.4,183.1,103.6,184.8,94.8,183.7z"/>
	<path class="st3" d="M85.5,148.3c-2-0.6-3.7-2-4.6-3.9c-1.5-3.5,0.5-8.7,4.8-10.2c4.1-1.4,8.7,0.6,10.3,4.7
		c0.7,2.1,0.5,4.4-0.6,6.4C93.3,148.6,88.8,149.4,85.5,148.3z"/>
	<path class="st3" d="M110.6,142.8c-1.6-0.5-2.8-1.7-3.4-3.3c-1.1-3,0.5-7.4,3.7-8.7s6.7,0.7,7.7,3.9c0.5,1.8,0.3,3.7-0.5,5.4
		C116.6,142.7,113.4,143.8,110.6,142.8z"/>
	<path class="st3" d="M90.8,183.2c0-0.7,12.3,1.5,24.7-4.2c3.5-1.6,11.7-5.5,16.6-14.8c0.5-1,5.6-10.9,2.9-22.4c0,0-1-4-9.2-18.4
		l0,0l1,1c3.1,3.1,5.6,6.6,7.6,10.5c1.9,3.6,3.1,7.4,3.6,11.4c0.6,4.2,0.4,8.4-0.7,12.5c-1,3.5-2.7,6.9-4.9,9.8
		c-2.7,3.6-6.1,6.6-9.9,8.9c-2.8,1.8-5.8,3.2-9,4.3c-4.1,1.3-8.3,2-12.6,2.1C96.1,184.2,90.8,183.6,90.8,183.2z"/>
	<circle class="st4" cx="88.6" cy="141.3" r="6.9"/>
	<circle class="st5" cx="112.9" cy="137.1" r="5"/>
	<path class="st6" d="M115.4,137.1c0.6,4-4.6,4.7-5.1,0.7S114.9,133,115.4,137.1z"/>
	<path d="M113.9,137.2c0.3,1.9-1.9,2.1-2.2,0.3S113.7,135.3,113.9,137.2z"/>
	<path class="st7" d="M112.4,136.2c0.1,0.9-0.9,1-1,0.1S112.3,135.4,112.4,136.2z"/>
	<path class="st6" d="M91.9,140.8c0.7,4.8-5.5,5.6-6,0.8S91.3,136,91.9,140.8z"/>
	<path d="M90.1,141c0.3,2.2-2.3,2.6-2.5,0.3S89.8,138.7,90.1,141z"/>
	<path class="st7" d="M88.3,139.8c0.1,1-1,1.2-1.2,0.1S88.2,138.8,88.3,139.8z"/>
	<path class="st8" d="M82.6,133.2c1.1-0.8,2.3-1.4,3.5-1.7c1.3-0.4,2.7-0.4,4,0c3.1,1.2,4.6,1.7,4.8,1.9c0.1,0.1,0.3,0.1,0.4,0
		c0.2-0.4,0.3-0.8,0.2-1.2c-0.1-0.8-0.5-1.6-1.2-2c-1-0.7-1.8-0.6-3.6-0.6c-1.1-0.1-2.1-0.1-3.2,0c-1.3,0.1-2.5,0.5-3.6,1.3
		c-1.1,0.8-2,2-2.6,3.3C81.4,134.2,81.9,133.7,82.6,133.2z"/>
	<path class="st9" d="M82.4,134.4c1.1-0.8,2.3-1.4,3.5-1.7c1.3-0.4,2.7-0.4,4,0c3.1,1.2,4.6,1.7,4.9,1.9c0.1,0.1,0.3,0.1,0.4,0
		c0.2-0.4,0.3-0.8,0.2-1.2c-0.1-0.8-0.5-1.6-1.2-2c-1-0.7-1.8-0.6-3.6-0.6c-1.1-0.1-2.1-0.1-3.2,0c-1.3,0.1-2.5,0.5-3.6,1.3
		c-1.1,0.9-2,2-2.6,3.3C81.2,135.5,81.6,135,82.4,134.4z"/>
	<path class="st8" d="M117.8,130.4c-1.1-0.7-2.4-1.1-3.7-1.3c-1.3-0.3-2.7-0.1-3.9,0.4c-2.9,1.4-4.4,2.2-4.6,2.3
		c-0.1,0.1-0.3,0.1-0.4,0c-0.2-0.3-0.3-0.8-0.3-1.2c0-0.8,0.4-1.6,1-2.1c0.9-0.8,1.7-0.8,3.5-0.9c1-0.2,2.1-0.2,3.2-0.3
		c1.3-0.1,2.5,0.2,3.6,0.9c1.2,0.7,2.2,1.7,2.9,2.9C119,131.3,118.6,130.8,117.8,130.4z"/>
	<path class="st9" d="M118.1,131.6c-1.1-0.7-2.4-1.1-3.6-1.3c-1.3-0.3-2.7-0.1-3.9,0.4c-2.9,1.4-4.4,2.2-4.6,2.3
		c-0.1,0.1-0.3,0.1-0.4,0c-0.2-0.3-0.3-0.8-0.3-1.2c0-0.8,0.4-1.6,1-2.1c0.9-0.8,1.7-0.8,3.5-0.9c1-0.2,2.1-0.2,3.2-0.3
		c1.3-0.1,2.5,0.2,3.6,0.9c1.2,0.7,2.2,1.7,2.9,2.9C119.4,132.5,118.9,132.1,118.1,131.6z"/>
	<path class="st10" d="M119.9,156.4c-2.3,1.9-6.1,5.4-11.3,6.8c-10.7,2.9-19.1-2.8-21.6-4.1"/>
	<path class="st9" d="M87.1,160c-0.2,0.4,2.2,2,4.4,3.1c3.8,1.9,8,2.8,12.2,2.7c1.6-0.1,10-0.4,14.7-6c0.8-1,1.8-2.5,1.6-2.6
		s-2.3,2.3-4.8,3.9c-4.6,3.1-9.7,3-12.3,3C93.8,164,87.3,159.5,87.1,160z"/>
	<path class="st11" d="M105.6,116.3c3.1-0.3,8.1-4.9,8.1-8.3c-5.9-5.4,5.5-7.8,7.8-2.9c1.1,2.2-2.3,4.1-4.1,3.4
		c-2.9,1.3-3.4,8.9-1.2,10.4"/>
	<path class="st11" d="M119.1,105.5c1.3,3.1-6.1,0.3-3.8-1.5"/>
	<path class="st12" d="M77.9,124.8c2.1-2.3,2.6-9.1,0.3-11.6c-8,0-1.3-9.5,3.7-7.4c2.3,0.9,1.1,4.6-0.7,5.3
		c-1.3,2.9,3.6,8.8,6.2,8.4"/>
	<path class="st12" d="M80.5,107.6c3.1,1.4-4.2,4.4-3.8,1.5"/>
	<path class="st12" d="M71.6,131.8c-2,2.5-8.6,4-11.4,2.2c-1.3-7.9-9.6,0.3-6.7,4.9c1.2,2.1,4.7,0.4,5.1-1.6
		c2.7-1.7,9.3,2.1,9.3,4.7"/>
	<path class="st12" d="M55,137.1c1.8,2.8,3.6-4.9,0.8-3.9"/>
	<path class="st12" d="M71.6,168c-2-2.4-8.7-3.8-11.4-2c-1.1,7.9-9.6-0.1-6.8-4.8c1.2-2.1,4.7-0.4,5.1,1.5c2.7,1.7,9.2-2.2,9.2-4.9"
		/>
	<path class="st12" d="M55,163c1.8-2.9,3.7,4.8,0.9,3.9"/>
	<path class="st12" d="M79.7,176c2.1,2.4,2.4,9.2,0.1,11.6c-8-0.2-1.5,9.4,3.6,7.5c2.3-0.8,1.2-4.5-0.6-5.3c-1.2-3,3.7-8.8,6.3-8.3"
		/>
	<path class="st12" d="M81.8,193.2c3.1-1.3-4.2-4.5-3.7-1.5"/>
	<path class="st12" d="M113,179.5c-2.6,1.7-4.7,8.2-3.2,11.2c7.7,1.9-1.1,9.5-5.4,6.3c-2-1.4,0-4.7,2-4.9c2-2.5-1.2-9.4-3.9-9.7"/>
	<path class="st12" d="M106.3,195.5c-2.7-2.1,5.2-3.2,4-0.5"/>
	<path class="st12" d="M130.3,166.8c-1.8,3.1-0.4,10.8,2.9,13c9.1-2.1,4.1,10.2-2.2,9.2c-2.8-0.4-2.6-4.8-0.6-6
		c0.6-3.6-6.5-8.9-9.4-7.7"/>
	<path class="st12" d="M132.3,186.6c-3.9-0.7,3.6-6,3.9-2.6"/>
	<path class="st12" d="M125.7,125c2.4,2,9.2,2.1,11.6-0.3c-0.4-8,9.4-1.8,7.6,3.3c-0.8,2.3-4.5,1.4-5.3-0.5c-3-1.1-8.6,4-8.1,6.6"/>
	<path class="st12" d="M143,126.6c-1.2,3.1-4.6-4-1.7-3.7"/>
	<path class="st12" d="M133.1,161.2c1.6-2.7,8-5,11.1-3.6c2.2,7.7,9.5-1.4,6.1-5.6c-1.5-1.9-4.7,0.2-4.9,2.2
		c-2.5,2.1-9.5-0.9-9.8-3.6"/>
	<path class="st12" d="M148.9,153.9c-2.2-2.6-3,5.3-0.4,4"/>
	<path class="st13" d="M45.7,233.3c-0.9,0.6-6,6.5-8.6,3.9c-3.1-2-5.1,3.5-2.2,4.6c3.1,1.1,2.2-2.5,4-3.4c2.8-1.8,5.9,0.3,7.5,0.4
		C47.6,238.2,46.9,233.6,45.7,233.3z"/>
	<path class="st13" d="M46.7,256.5c-2.4-0.7-4.2-2.2-8.5-0.9c-1.6,4.1-6.7,1.2-4.2-2c2.6-2.2,2.7,1.3,4.8,1.3
		c2.9,0.5,5.4-2.8,6.6-3.4C46.8,251.6,47.7,255.8,46.7,256.5z"/>
	<path class="st13" d="M89.5,264.1c-0.7,2.7-2.5,4.9-0.9,9.8c4.8,1.6,1.4,7.6-2.3,5c-2.6-2.9,1.5-3.2,1.3-5.6
		c0.4-3.7-3.2-5.8-4.1-7.3C83.8,264.4,88.7,263,89.5,264.1z"/>
	<path class="st13" d="M101.1,256.1c0.6,2,0.4,4.6,3.3,7c3.8-1,3.9,4.6,0.4,4.4c-2.8-0.7-0.3-2.9-1.3-4.4c-1.1-2.6-4.4-2.6-5.6-3.3
		C97.4,258.7,100.1,255.7,101.1,256.1z"/>
	<path class="st13" d="M98.1,222.7c1.3,0,9.3,1.4,9.9-2.6c4.3-6.4,9.4,7.1-0.8,2.3c-3.5,0.4-5,4.5-6.2,5.5
		C99.5,228.1,97.2,223.7,98.1,222.7z"/>
	<path class="st13" d="M61.4,215.3c0.5-2,1.7-3.9,0.4-7.4c-3.6-1.1-1.3-5.8,1.6-3.7c2,2-1,2.5-0.9,4.2c-0.3,2.5,2.7,4.6,3.2,5.5
		C65.7,215.1,62,216.1,61.4,215.3z"/>
	<path class="st13" d="M47.2,221.9c52.9-49.1,95,67.3,15.7,42.5c-16.6-3.2-21.7-6.7-18.5-20.7C38.5,234.3,39.5,228,47.2,221.9z"/>
	<path class="st14" d="M64.5,264.2c20.3,4.9,39-8.8,39.5-31.7C116.1,265.9,87.3,273.5,64.5,264.2z"/>
	<path class="st15" d="M53.9,248.7c-0.2-11.8-0.6-2.3,8.2-5c2.3-1.3,16.2-1,17.8-2c8.2-6.5,13.1-3.2,5.4,6.2
		C77.7,264.6,69.6,237.4,53.9,248.7z"/>
	<path class="st14" d="M50.5,240.6c-0.2,0.5-0.8,0.8-1.3,0.6c-0.5-0.2-0.8-0.8-0.6-1.3l0,0c0.2-0.5,0.8-0.8,1.3-0.6
		C50.4,239.4,50.6,240,50.5,240.6z"/>
	<path class="st14" d="M50.7,242.1c-0.1,0.3-0.4,0.4-0.7,0.3c-0.3-0.1-0.4-0.4-0.3-0.7s0.4-0.4,0.7-0.3
		C50.7,241.5,50.8,241.8,50.7,242.1L50.7,242.1z"/>
	<path class="st15" d="M89.5,224c-1.3,4.7-2.5,6.7-5.6,9.5c-4.6,2.7-10.2,3.1-13.3,0.8C67.7,231.4,90.6,218.4,89.5,224z"/>
	<path class="st15" d="M65,234.9c-21.6,10-18.1-31.3-2.4-5.4C64.6,231.9,65.8,232.2,65,234.9z"/>
	<path class="st13" d="M102.3,232.2c1.9,2.6,5.1,3.9,8.3,3.3c0.1-1.1,1.1-2,2.2-1.9c0.2,0,0.4,0.1,0.6,0.1c3.2,1.1,2.8,5.4-0.4,5
		c-3.7-3.6-8-1-11.7,0.7"/>
	<path class="st13" d="M71,262.6c-2.6,1.8-4,5-3.4,8.1c1.1,0.1,2,1.1,1.9,2.3c0,0.2-0.1,0.4-0.1,0.5c-1.1,3.1-5.4,2.6-5-0.5
		c3.7-3.6,1.2-7.9-0.4-11.6"/>
	<path class="st13" d="M49.6,256.6c1,3.2,0.1,6.8-2.4,9.1c-1-0.7-2.3-0.4-2.9,0.6c-0.1,0.2-0.2,0.4-0.3,0.6
		c-1.1,3.4,2.8,5.8,4.5,2.8c-0.7-5.3,4.1-7.4,7.9-9.4"/>
	<path class="st13" d="M48.1,224.3c-3.3,0.3-6.4-1.3-8.1-4.1c0.8-0.8,0.8-2.1,0-2.9c-0.1-0.1-0.3-0.3-0.5-0.4
		c-2.9-1.7-6,1.5-3.6,3.6c5.2,0.4,6.2,5.4,7.3,9.3"/>
	<path class="st13" d="M79.7,213.9c2.7-1,4.7-3.4,5.1-6.2c-0.9-0.4-1.4-1.4-1.1-2.4c0.1-0.2,0.2-0.3,0.3-0.5c1.8-2.4,5.4-1,4.2,1.6
		c-4.1,2.2-3,6.6-2.5,10.2"/>
	<path class="st16" d="M37.8,218c0.7-1.9-1.5-1.8-2.5,0.2C34.5,219.9,37.1,220.2,37.8,218z"/>
	<path class="st16" d="M33.5,239.7c-0.2-2.2,2.1-1.6,2.7,0.8C36.5,242.5,33.6,242.2,33.5,239.7z"/>
	<path class="st16" d="M36.6,256.5c0.5-1.9-2.1-3.2-3.1-1.5C33,256.7,36.2,258.8,36.6,256.5z"/>
	<path class="st16" d="M46.9,269.9c0.8-1.8-1.7-3.7-2.9-2.2C43.2,269.3,46.2,272.2,46.9,269.9z"/>
	<path class="st16" d="M68.2,273.5c-0.9-1.7-3.7-0.9-3.3,1C65.7,276.1,69.5,275.4,68.2,273.5z"/>
	<path class="st16" d="M87,277.6c0.7-1.8,3.6-1.1,3.3,0.8C89.7,279.9,85.9,279.6,87,277.6z"/>
	<path class="st16" d="M105.6,264.5c1.3-1.2,2.3,0.6,1.2,2.1C105.6,267.7,104,265.7,105.6,264.5z"/>
	<path class="st16" d="M62.7,204.8c-0.2-1.7-2.4-1.2-2.5,0.6c0.1,0.7,0.8,1.2,1.5,1.1c0.7-0.1,1.2-0.8,1.1-1.5
		C62.7,204.9,62.7,204.8,62.7,204.8z"/>
	<path class="st16" d="M86.7,205.1c1.3-1.8-1-2.2-2.6-0.5C82.9,206.2,85.4,207.2,86.7,205.1z"/>
	<path class="st16" d="M113.1,220.8c-0.2-1.8-3.3-3.3-3.6-1.7C109.6,220.7,113.6,223.1,113.1,220.8z"/>
	<path class="st16" d="M115.1,236.2c-0.1-2-3.4-3.5-3.9-1.7C111.3,236.3,115.5,238.7,115.1,236.2z"/>
	<path class="st17" d="M55.3,244c4.9,1.3,25.1-0.7,28.3-3.5c1.2-0.6,5.2-1.6,4.2-0.1c-8.4,29.3-17.6-3.1-33.3,8.5
		C54.8,247.8,53.3,242.6,55.3,244z"/>
	<path class="st18" d="M54.1,245.9c1.8,0.5,21.2-4.6,20.1,0.5c2.9-3.3,2.6-6.2,3.2,2.4c0,1.3,2.3-3.4,2.5-4.1c0.4-1.6,1,2.8,6,0.8
		c-1.5,1.4-3.8,1.3-5.1-0.1c-0.2-0.2-0.3-0.4-0.4-0.6c-3.1,8.1-3.2,5.5-3.9-0.5c-0.3,0.4-2,4.1-2.5,2.8
		C74.6,242.1,54.7,246.7,54.1,245.9z"/>
	<path class="st19" d="M59.7,223.4c-1.3-1.2-1.4,0.3-3.2,2.5c-1.6,1.6,0.4,1.9-0.4,2.2c-1.4-0.9-1.1,2.1-2.6,2.9
		c-0.4,0.4-0.2,0.1-1.8,1.4c-0.4,0.3-0.8,0.6-1.1,0.9c0.6,0.6,0,0.3-0.3,0.3c0,0.2,0.3,0.3,0.1,0.4s-0.1-0.2-0.1-0.3
		c-1,0.9-1.5,1.3-1.7,1.2c-0.3-0.4,1.7-2.3,0.5-2.7c0.2-0.2,0.2,0.2,0.6,0.4c0,0.2-0.2-0.5-0.1-0.6c0.1-0.3,0.3,0.2,0.3,0.4
		c1.2-1.9,5.2-3.9,3.7-6.2c0.3-0.1,0.5,0,0.2-0.3c-0.3-0.1,0-0.5,0.1-0.2c0.4,0.9,2.3-3.6,3.4-3.7c-0.3-0.1-0.4-0.6,0-0.4
		c-0.1-0.2-0.3-0.4-0.2-0.6c0.9,1,2.2-0.4,3.1-0.6c0,0.9-1.2,2.2-0.9,2.6S60,223.1,59.7,223.4z"/>
	<path class="st20" d="M59.1,222.6L59.1,222.6C59.1,222.6,59.1,222.6,59.1,222.6z"/>
	<path class="st20" d="M59.1,222.6L59.1,222.6C59.1,222.6,59.1,222.6,59.1,222.6z"/>
	<path class="st20" d="M49.8,232.4C49.8,232.5,49.8,232.4,49.8,232.4z"/>
	<path class="st20" d="M49.8,232.4C49.8,232.5,49.8,232.4,49.8,232.4z"/>
	<path class="st21" d="M70.6,233.2c2.5-4.4,11.9-6.1,15.8-5.3C84.9,235.2,75,238,70,234.2L70.6,233.2z"/>
	<path class="st17" d="M64.6,234.2c-1.5-3.9-10.1-6.8-13.3-6.9c-2.9-0.6,2.1,6.7,3.8,7.2C56.8,236.2,66.4,236.6,64.6,234.2z"/>
	<path class="st19" d="M60.6,233.7c-1.1,3.1-5.1,1.6-3.9-1.5C57.9,229.2,61.8,230.7,60.6,233.7z"/>
	<path d="M59.5,233.3c-0.5,1.4-2.2,0.8-1.7-0.6S60.1,231.8,59.5,233.3z"/>
	<path class="st7" d="M58.8,232c-0.2,0.7-1,0.4-0.8-0.3S59.1,231.4,58.8,232z"/>
	<path class="st19" d="M80.3,232.2c0.5,3.5-3.7,3.7-4.1,0.4C75.6,229.2,79.9,228.9,80.3,232.2z"/>
	<path d="M79.1,232.3c0.2,1.6-1.6,1.7-1.8,0.2S78.9,230.8,79.1,232.3z"/>
	<path class="st7" d="M77.7,231.4c0.1,0.7-0.7,0.8-0.8,0.1S77.6,230.7,77.7,231.4z"/>
	<path class="st22" d="M70.3,233.9c4.6-7,16.8-7.8,18.1-9.7C83.2,222,71.1,229.1,70.3,233.9z"/>
	<path class="st22" d="M65.1,234.6c-2.5-4.2-12-12.4-13-13.7C55.9,220.8,65.9,231.9,65.1,234.6z"/>
	<path class="st23" d="M1284.4,464.1c-0.6,0.5-4.4,4.8-6.4,2.9c-2.3-1.5-3.7,2.5-1.6,3.4c2.3,0.8,1.6-1.8,3-2.5
		c2.1-1.3,4.4,0.2,5.5,0.3C1285.9,467.7,1285.3,464.2,1284.4,464.1z"/>
	<path class="st23" d="M1285.2,481.1c-1.8-0.5-3.1-1.6-6.2-0.7c-1.2,3-4.9,0.9-3.1-1.5c1.9-1.6,2,1,3.5,0.9c2.2,0.3,4-2,4.9-2.5
		C1285.2,477.5,1285.9,480.6,1285.2,481.1z"/>
	<path class="st23" d="M1316.7,486.8c-0.5,2-1.8,3.6-0.6,7.2c1.1,0.2,1.9,1.3,1.7,2.4c-0.2,1.1-1.3,1.9-2.4,1.7
		c-0.4-0.1-0.7-0.2-1-0.5c-1.9-2.1,1.1-2.4,1-4.1c0.3-2.8-2.4-4.3-3-5.4C1312.5,487,1316.1,485.9,1316.7,486.8z"/>
	<path class="st23" d="M1325.2,480.9c0.4,1.5,0.3,3.3,2.4,5.2c2.8-0.8,2.9,3.4,0.3,3.2c-2-0.5-0.3-2.1-0.9-3.2
		c-0.8-1.9-3.3-1.9-4.1-2.4C1322.5,482.8,1324.5,480.5,1325.2,480.9z"/>
	<path class="st23" d="M1323,456.3c0.9,0,6.9,1,7.3-2c3.2-4.7,6.9,5.2-0.6,1.7c-2.6,0.3-3.7,3.3-4.6,4.1
		C1324.1,460.2,1322.3,457,1323,456.3z"/>
	<path class="st23" d="M1296,450.8c0.3-1.5,1.3-2.9,0.3-5.4c-0.8-0.1-1.4-0.9-1.3-1.7c0.1-0.8,0.9-1.4,1.7-1.3
		c0.3,0,0.6,0.2,0.8,0.3c1.5,1.4-0.7,1.8-0.7,3.1c-0.2,1.8,2,3.4,2.4,4.1C1299.2,450.7,1296.5,451.4,1296,450.8z"/>
	<path class="st23" d="M1285.6,455.7c39-36.2,69.9,49.6,11.5,31.3c-12.2-2.3-16-5-13.6-15.3C1279.2,464.8,1279.9,460.2,1285.6,455.7
		z"/>
	<path class="st24" d="M1298.3,486.9c14.9,3.6,28.7-6.4,29-23.3C1336.2,488.1,1315.1,493.7,1298.3,486.9z"/>
	<path class="st15" d="M1290.5,475.4c-0.1-8.7-0.5-1.7,6-3.7c1.7-1,11.9-0.8,13.1-1.5c6-4.8,9.6-2.4,4,4.6
		C1308,487.2,1302,467.1,1290.5,475.4z"/>
	<path class="st24" d="M1288,469.4c-0.1,0.4-0.6,0.6-1,0.5c-0.4-0.1-0.6-0.6-0.5-1s0.6-0.6,1-0.5
		C1287.9,468.6,1288.1,469,1288,469.4z"/>
	<path class="st24" d="M1288.1,470.6c-0.1,0.2-0.3,0.3-0.5,0.2c-0.2-0.1-0.2-0.2-0.2-0.4c0.1-0.2,0.3-0.3,0.5-0.2
		C1288.1,470.2,1288.2,470.4,1288.1,470.6z"/>
	<path class="st15" d="M1316.7,457.2c-0.5,2.7-2,5.2-4.1,7c-3.4,2-7.5,2.3-9.8,0.6C1300.7,462.7,1317.5,453.1,1316.7,457.2z"/>
	<path class="st15" d="M1298.7,465.3c-15.9,7.3-13.3-23-1.8-4C1298.3,463.1,1299.2,463.3,1298.7,465.3z"/>
	<path class="st23" d="M1326.1,463.2c1.4,1.9,3.8,2.9,6.1,2.5c0.1-0.8,0.8-1.5,1.6-1.4c0.1,0,0.2,0,0.4,0.1c2.3,0.8,2.1,4-0.3,3.7
		c-2.7-2.7-5.9-0.8-8.6,0.5"/>
	<path class="st23" d="M1303.1,485.6c-1.9,1.3-2.9,3.7-2.6,6c0.8,0.1,1.5,0.8,1.4,1.7c0,0.1,0,0.3-0.1,0.4c-0.8,2.3-4,1.9-3.7-0.4
		c2.7-2.6,0.9-5.8-0.3-8.5"/>
	<path class="st23" d="M1287.3,481.2c0.7,2.4,0,5-1.8,6.7c-0.7-0.5-1.7-0.3-2.2,0.4c-0.1,0.1-0.2,0.3-0.2,0.5
		c-0.8,2.5,2,4.3,3.3,2.1c-0.5-3.9,3-5.5,5.8-6.9"/>
	<path class="st23" d="M1286.2,457.5c-2.4,0.2-4.7-0.9-6-3c0.6-0.6,0.6-1.5,0-2.1c-0.1-0.1-0.2-0.2-0.4-0.3
		c-2.2-1.3-4.4,1.1-2.6,2.7c3.8,0.3,4.6,4,5.4,6.9"/>
	<path class="st23" d="M1309.5,449.8c2-0.7,3.5-2.5,3.7-4.6c-0.7-0.3-1.1-1-0.8-1.7c0-0.1,0.1-0.3,0.2-0.4c1.3-1.8,4-0.8,3.1,1.2
		c-3,1.6-2.2,4.8-1.9,7.5"/>
	<path class="st16" d="M1278.6,452.8c0.5-1.4-1.1-1.3-1.9,0.1C1276.2,454.2,1278.1,454.5,1278.6,452.8z"/>
	<path class="st16" d="M1275.5,468.8c-0.2-1.6,1.6-1.2,2,0.6C1277.7,470.8,1275.6,470.7,1275.5,468.8z"/>
	<path class="st16" d="M1277.8,481.2c0.4-1.4-1.6-2.3-2.3-1.1C1275.1,481.3,1277.5,482.8,1277.8,481.2z"/>
	<path class="st16" d="M1285.3,491c0.6-1.3-1.3-2.7-2.2-1.6C1282.6,490.6,1284.9,492.7,1285.3,491z"/>
	<path class="st16" d="M1301.1,493.7c-0.7-1.3-2.7-0.6-2.4,0.8C1299.2,495.6,1302,495.1,1301.1,493.7z"/>
	<path class="st16" d="M1314.9,496.6c0.3-0.7,1-1,1.7-0.7c0.5,0.2,0.8,0.7,0.8,1.3C1316.9,498.4,1314,498.2,1314.9,496.6z"/>
	<path class="st16" d="M1328.5,487c0.9-0.9,1.7,0.4,0.8,1.5C1328.6,489.4,1327.4,487.9,1328.5,487z"/>
	<path class="st16" d="M1296.9,443.1c-0.2-1.3-1.8-0.9-1.9,0.4c0,0.6,0.4,1,0.9,1.1c0.6,0,1-0.4,1.1-0.9
		C1297.1,443.5,1297,443.3,1296.9,443.1z"/>
	<path class="st16" d="M1314.7,443.3c1-1.3-0.7-1.6-1.9-0.3C1311.9,444.2,1313.7,444.9,1314.7,443.3z"/>
	<path class="st16" d="M1334.1,454.9c-0.1-1.3-2.4-2.5-2.7-1.3C1331.5,454.8,1334.4,456.6,1334.1,454.9z"/>
	<path class="st16" d="M1335.6,466.2c-0.1-1.5-2.5-2.6-2.9-1.3C1332.7,466.3,1335.9,468.1,1335.6,466.2z"/>
	<path class="st25" d="M1291.5,471.9c3.6,1,18.5-0.5,20.8-2.6c0.9-0.4,3.8-1.2,3.1,0c-6.2,21.6-12.9-2.3-24.5,6.3
		C1291.1,474.8,1290.1,470.9,1291.5,471.9z"/>
	<path class="st18" d="M1290.7,473.3c1.3,0.4,15.6-3.4,14.8,0.3c2.1-2.4,1.9-4.5,2.3,1.8c0,1,1.7-2.5,1.8-3c0.3-1.2,0.7,2.1,4.4,0.6
		c-1.1,1-2.8,1-3.8-0.1c-0.1-0.1-0.2-0.3-0.3-0.4c-2.3,6-2.3,4-2.9-0.4c-0.2,0.3-1.5,3-1.9,2
		C1305.7,470.6,1291.1,473.9,1290.7,473.3z"/>
	<path class="st19" d="M1294.8,456.8c-1-0.9-1,0.3-2.4,1.8c-1.2,1.2,0.3,1.4-0.3,1.6c-1-0.7-0.8,1.6-1.9,2.2c-0.3,0.3-0.2,0.1-1.3,1
		l-0.8,0.7c0.5,0.4,0,0.2-0.3,0.2c0,0.1,0.2,0.2,0,0.3s0-0.1-0.1-0.2c-0.7,0.6-1.1,1-1.2,0.9c-0.2-0.3,1.2-1.7,0.4-2
		c0.2-0.2,0.2,0.2,0.4,0.3c0,0.1-0.2-0.4-0.1-0.4c0.1-0.3,0.2,0.1,0.3,0.3c0.8-1.4,3.8-2.9,2.8-4.6c0.2-0.1,0.4,0,0.1-0.2
		s0-0.4,0.1-0.1c0.3,0.7,1.7-2.6,2.5-2.7c-0.2-0.1-0.3-0.5,0-0.3c-0.1-0.1-0.2-0.3-0.1-0.4c0.7,0.7,1.6-0.3,2.3-0.4
		c0,0.7-0.9,1.6-0.7,1.9S1295,456.6,1294.8,456.8z"/>
	<path class="st20" d="M1294.3,456.2"/>
	<path class="st20" d="M1294.3,456.2"/>
	<path class="st20" d="M1287.5,463.4L1287.5,463.4z"/>
	<path class="st20" d="M1287.5,463.4L1287.5,463.4z"/>
	<path class="st26" d="M1302.8,464c1.8-3.2,8.8-4.5,11.7-3.9c-1.2,5.4-8.4,7.4-12.1,4.7L1302.8,464z"/>
	<path class="st25" d="M1298.3,464.8c-1.1-2.9-7.4-5-9.8-5.1c-2.1-0.4,1.6,4.9,2.8,5.3C1292.7,466.2,1299.7,466.5,1298.3,464.8z"/>
	<path class="st19" d="M1295.5,464.4c-0.2,0.9-1,1.4-1.8,1.3c-0.9-0.2-1.4-1-1.3-1.8c0-0.2,0.1-0.3,0.2-0.5
		C1293.4,461,1296.3,462.2,1295.5,464.4z"/>
	<path d="M1294.6,464.1c-0.4,1.1-1.6,0.6-1.2-0.5S1295,463,1294.6,464.1z"/>
	<path class="st7" d="M1294.1,463.2c-0.2,0.5-0.8,0.3-0.6-0.2S1294.3,462.7,1294.1,463.2z"/>
	<path class="st19" d="M1309.9,463.3c0.4,2.6-2.7,2.8-3,0.3S1309.6,460.9,1309.9,463.3z"/>
	<path d="M1309,463.4c0.2,1.2-1.1,1.3-1.3,0.1S1308.9,462.2,1309,463.4z"/>
	<path class="st7" d="M1308,462.7c0.1,0.5-0.5,0.6-0.6,0.1S1308,462.2,1308,462.7z"/>
	<path class="st22" d="M1302.5,464.5c3.4-5.2,12.4-5.8,13.3-7.2C1312.1,455.8,1303.1,461,1302.5,464.5z"/>
	<path class="st22" d="M1298.8,465c-1.8-3.1-8.9-9.2-9.6-10.1C1291.9,454.9,1299.3,463,1298.8,465z"/>
	<g>
		<path class="st27" d="M60.8,579.8c-0.9,0.7-6.3,6.9-9.1,4.1c-3.3-2.1-5.3,3.6-2.3,4.9c3.3,1.2,2.3-2.7,4.3-3.5
			c3-1.9,6.3,0.3,7.9,0.5C62.7,584.8,62,580,60.8,579.8z"/>
		<path class="st27" d="M61.8,604.1c-2.5-0.7-4.4-2.3-8.9-1c-1.7,4.3-7,1.3-4.4-2.2c2.8-2.3,2.8,1.4,5,1.3c3.1,0.5,5.7-2.9,6.9-3.6
			C61.9,598.9,62.9,603.4,61.8,604.1z"/>
		<path class="st27" d="M106.8,612.1c-0.7,2.9-2.6,5.2-0.9,10.3c5.1,1.6,1.5,8-2.4,5.2c-2.8-3,1.5-3.4,1.4-5.9
			c0.4-3.9-3.4-6.1-4.3-7.7C100.9,612.4,106,610.9,106.8,612.1z"/>
		<path class="st27" d="M119,603.7c0.6,2.1,0.4,4.8,3.4,7.4c4-1.1,4.1,4.9,0.5,4.6c-2.9-0.8-0.4-3-1.4-4.6c-1.2-2.8-4.7-2.8-5.9-3.4
			C115.2,606.4,118,603.3,119,603.7z"/>
		<path class="st27" d="M115.9,568.6c1.3,0,9.8,1.4,10.5-2.8c4.5-6.7,9.9,7.5-0.9,2.5c-3.7,0.4-5.3,4.7-6.5,5.8
			C117.4,574.2,114.9,569.6,115.9,568.6z"/>
		<path class="st27" d="M77.3,560.8c0.5-2.1,1.8-4.1,0.5-7.8c-3.8-1.1-1.3-6.1,1.7-3.9c2.1,2.1-1,2.6-0.9,4.4
			c-0.3,2.6,2.8,4.8,3.4,5.8C81.8,560.6,78,561.7,77.3,560.8z"/>
		<path class="st27" d="M62.4,567.7c55.7-51.7,99.9,70.8,16.5,44.7c-17.4-3.3-22.9-7.1-19.4-21.8C53.3,580.8,54.3,574.2,62.4,567.7z
			"/>
		<path class="st28" d="M80.5,612.3c21.4,5.1,41-9.2,41.5-33.3C134.8,614.1,104.5,622,80.5,612.3z"/>
		<path class="st15" d="M69.4,595.9c-0.2-12.4-0.7-2.4,8.6-5.3c2.4-1.4,17-1.1,18.7-2.1c8.6-6.8,13.8-3.4,5.7,6.5
			C94.4,612.7,85.9,584,69.4,595.9z"/>
		<path class="st28" d="M65.8,587.3c-0.1,0.6-0.6,1-1.2,0.9c-0.6-0.1-1-0.6-0.9-1.2c0-0.1,0.1-0.3,0.1-0.4c0.1-0.6,0.6-1,1.2-0.9
			c0.6,0.1,1,0.6,0.9,1.2C65.9,587.1,65.9,587.2,65.8,587.3z"/>
		<path class="st28" d="M66,589c-0.2,0.3-0.5,0.3-0.7,0.2c-0.2-0.1-0.3-0.3-0.3-0.5c0.2-0.3,0.5-0.3,0.7-0.2
			C66,588.6,66.1,588.8,66,589z"/>
		<path class="st15" d="M106.8,570c-1.3,4.9-2.7,7-5.9,10c-4.8,2.9-10.7,3.2-14,0.8C83.9,577.7,108,564.1,106.8,570z"/>
		<path class="st15" d="M81.1,581.4c-22.7,10.5-19-32.9-2.6-5.7C80.6,578.3,81.9,578.6,81.1,581.4z"/>
		<path class="st27" d="M120.3,578.5c2,2.7,5.4,4.1,8.7,3.5c0.1-1.2,1.1-2.1,2.3-2c0.2,0,0.4,0.1,0.6,0.1c3.4,1.1,2.9,5.7-0.4,5.3
			c-3.9-3.8-8.4-1.1-12.3,0.7"/>
		<path class="st27" d="M87.4,610.5c-2.8,1.9-4.2,5.2-3.7,8.6c1.2,0.1,2.1,1.2,2,2.4c0,0.2-0.1,0.4-0.1,0.6
			c-1.2,3.3-5.7,2.8-5.3-0.6c3.9-3.8,1.3-8.3-0.5-12.2"/>
		<path class="st27" d="M64.9,604.2c1,3.4,0.1,7.1-2.5,9.6c-1-0.7-2.4-0.4-3.1,0.6c-0.1,0.2-0.2,0.4-0.3,0.7c-1.2,3.5,2.9,6.1,4.7,3
			c-0.8-5.6,4.3-7.8,8.3-9.9"/>
		<path class="st27" d="M63.3,570.3c-3.4,0.3-6.8-1.4-8.6-4.3c0.9-0.8,0.9-2.2,0.1-3.1c-0.1-0.2-0.3-0.3-0.5-0.4
			c-3.1-1.8-6.4,1.5-3.8,3.8c5.5,0.4,6.5,5.7,7.7,9.8"/>
		<path class="st27" d="M96.5,559.3c2.9-1,4.9-3.5,5.3-6.6c-1-0.4-1.5-1.5-1.2-2.5c0.1-0.2,0.2-0.4,0.3-0.5c1.8-2.6,5.7-1.1,4.4,1.7
			c-4.3,2.3-3.2,6.9-2.7,10.7"/>
		<path class="st16" d="M52.4,563.6c0.8-2-1.5-1.9-2.7,0.2C49,565.7,51.7,566,52.4,563.6z"/>
		<path class="st16" d="M48,586.4c-0.3-2.3,2.2-1.6,2.9,0.8C51.1,589.4,48.1,589.1,48,586.4z"/>
		<path class="st16" d="M51.3,604.1c0.6-2-2.2-3.3-3.3-1.6C47.4,604.3,50.8,606.5,51.3,604.1z"/>
		<path class="st16" d="M62.1,618.2c0.8-1.9-1.8-3.9-3.1-2.3C58.1,617.7,61.3,620.7,62.1,618.2z"/>
		<path class="st16" d="M84.5,622c-0.9-1.8-3.9-0.9-3.4,1.1C81.8,624.8,85.8,624.1,84.5,622z"/>
		<path class="st16" d="M104.2,626.2c0.8-1.9,3.8-1.2,3.5,0.8C107.1,628.8,103,628.4,104.2,626.2z"/>
		<path class="st16" d="M123.8,612.5c1.3-1.3,2.4,0.6,1.2,2.2C123.8,615.9,122.2,613.8,123.8,612.5z"/>
		<path class="st16" d="M78.6,549.7c-0.2-1.8-2.5-1.3-2.7,0.6c0.1,0.7,0.8,1.2,1.6,1.1c0.7-0.1,1.2-0.8,1.1-1.6
			C78.6,549.8,78.6,549.8,78.6,549.7z"/>
		<path class="st16" d="M104,550.1c1.4-1.9-1-2.3-2.8-0.5C99.9,551.3,102.6,552.3,104,550.1z"/>
		<path class="st16" d="M131.7,566.6c-0.2-1.9-3.4-3.5-3.8-1.8C128,566.4,132.2,569,131.7,566.6z"/>
		<path class="st16" d="M133.8,582.8c-0.1-2.1-3.6-3.7-4.1-1.8C129.7,582.9,134.2,585.4,133.8,582.8z"/>
		<path class="st29" d="M70.9,590.9c5.2,1.4,26.4-0.8,29.7-3.7c1.2-0.6,5.4-1.7,4.4-0.1c-8.8,30.8-18.5-3.3-35.1,9
			C70.3,595,68.8,589.4,70.9,590.9z"/>
		<path class="st18" d="M69.7,593c1.8,0.6,22.3-4.8,21.1,0.5c3-3.4,2.7-6.5,3.3,2.5c0,1.4,2.4-3.5,2.6-4.3c0.4-1.7,1,3,6.3,0.8
			c-1.5,1.5-3.9,1.4-5.4-0.1c-0.2-0.2-0.3-0.4-0.5-0.6c-3.2,8.5-3.3,5.8-4.1-0.6c-0.3,0.4-2.1,4.3-2.7,2.9
			C91.2,589,70.3,593.8,69.7,593z"/>
		<path class="st19" d="M75.5,569.3c-1.4-1.3-1.4,0.4-3.4,2.6c-1.7,1.7,0.4,2-0.4,2.3c-1.5-0.9-1.2,2.2-2.7,3.1
			c-0.4,0.4-0.2,0.1-1.9,1.4c-0.4,0.3-0.8,0.7-1.1,0.9c0.7,0.6,0,0.3-0.4,0.3c0,0.2,0.3,0.3,0.1,0.4s-0.1-0.2-0.2-0.3
			c-1.1,0.9-1.6,1.4-1.7,1.3c-0.3-0.4,1.7-2.4,0.5-2.9c0.2-0.2,0.3,0.2,0.6,0.4c0,0.2-0.2-0.6-0.1-0.6c0.1-0.3,0.3,0.2,0.4,0.4
			c1.2-2,5.5-4.1,3.9-6.5c0.3-0.1,0.6,0,0.2-0.3c-0.3-0.1,0-0.5,0.1-0.2c0.4,1,2.5-3.8,3.5-3.9c-0.3-0.1-0.5-0.7,0-0.4
			c-0.1-0.2-0.3-0.4-0.2-0.6c1,1,2.3-0.5,3.2-0.6c0,0.9-1.3,2.3-1,2.7S75.9,569,75.5,569.3z"/>
		<path class="st20" d="M74.9,568.4L74.9,568.4C74.9,568.4,74.8,568.4,74.9,568.4z"/>
		<path class="st20" d="M74.9,568.4L74.9,568.4C74.9,568.4,74.8,568.4,74.9,568.4z"/>
		<path class="st20" d="M65.1,578.8L65.1,578.8z"/>
		<path class="st20" d="M65.1,578.8L65.1,578.8z"/>
		<path class="st30" d="M86.9,579.6c2.6-4.6,12.6-6.4,16.7-5.6c-1.7,7.8-12,10.6-17.2,6.7L86.9,579.6z"/>
		<path class="st29" d="M80.6,580.7c-1.6-4.1-10.7-7.2-14-7.3c-3.1-0.6,2.2,7.1,4,7.5C72.5,582.8,82.6,583.2,80.6,580.7z"/>
		<path class="st19" d="M76.5,580.2c-1.2,3.3-5.4,1.7-4.1-1.5S77.8,577,76.5,580.2z"/>
		<path d="M75.3,579.7c-0.5,1.5-2.3,0.8-1.7-0.7S75.9,578.2,75.3,579.7z"/>
		<path class="st7" d="M74.6,578.4c-0.3,0.7-1.1,0.4-0.8-0.3S74.8,577.7,74.6,578.4z"/>
		<path class="st19" d="M97.2,578.6c0.6,3.7-3.9,3.9-4.3,0.5C92.3,575.4,96.7,575.1,97.2,578.6z"/>
		<path d="M95.9,578.7c0.3,1.7-1.6,1.8-1.8,0.2S95.7,577.1,95.9,578.7z"/>
		<path class="st7" d="M94.5,577.8c0.1,0.8-0.8,0.8-0.8,0.1S94.4,577,94.5,577.8z"/>
		<path class="st22" d="M86.6,580.3c4.8-7.4,17.7-8.2,19-10.2C100.3,567.8,87.5,575.3,86.6,580.3z"/>
		<path class="st22" d="M81.3,581c-2.6-4.4-12.7-13.1-13.7-14.4C71.5,566.6,82,578.2,81.3,581z"/>
	</g>
	<path class="st31" d="M1260.9,577.2c-3.7-0.2-10.5-0.5-17.2-4.9c-9.7-6.3-12.1-16.3-12.8-19.1c-1-4.2-2.5-14.8,4.3-24.6
		c7.2-10.3,18.6-12.5,22.2-13.2c6.4-1.4,13-1,19.2,1.2c7.5,2.9,13.7,8.5,17.4,15.7c1.6,3,5.7,11.2,3.1,21.3
		c-2.7,10.5-11,15.9-13.8,17.8C1276.5,575.6,1268.7,577.6,1260.9,577.2z"/>
	<path class="st32" d="M1254.9,567.1c-1.3-0.9-2.2-2.3-2.5-3.9c-1.2-4.8,2.7-10.6,6.9-13.6c7.7-5.5,16.9-2.3,17.3-2.2
		c5.4,2.4,9.6,7,11.6,12.6c0.5,1.3,0.6,2.4,0.1,3.3c-0.8,1.3-3,1.5-4.7,1c-3.2-1-2.7-4.2-6-6.1c-2.4-1.3-6.1-1.4-8.2,0.2
		s-1.2,3.7-4,6.3c-1.2,1.1-2.7,1.9-4.2,2.4C1259.5,567.6,1256.9,568.4,1254.9,567.1z"/>
	<path class="st32" d="M1250.3,546c-1.8-0.4-3.4-1.6-4.3-3.2c-1.5-3.6,0.1-7.8,3.7-9.5c3.6-1.5,7.8,0,9.5,3.6
		c0.8,1.9,0.7,3.9-0.2,5.7C1257.3,545.8,1253.3,546.8,1250.3,546z"/>
	<path class="st32" d="M1272.4,539.6c-1.4-0.4-2.6-1.4-3.2-2.7c-1.1-2.6,0-6.6,2.8-8.1c2.7-1.2,5.8,0,7,2.6c0.1,0.1,0.1,0.2,0.1,0.4
		c0.6,1.6,0.5,3.3-0.2,4.9C1277.8,539.1,1275,540.3,1272.4,539.6z"/>
	<path class="st32" d="M1245.5,527.9c-0.3,0.3,0.4,1.5,1.1,2.1c0.9,0.8,1.8,0.8,3.5,1.2c1.5,0.4,1.1,0.5,4.2,1.8
		c3.5,1.4,4.1,1.3,4.5,1.1c1.1-0.7,1.7-2,1.5-3.3c-0.1-1.1-0.8-2.3-1.3-2.2c-0.6,0.1,0.1,2.6-1,3.5
		C1255.7,534.3,1246.4,526.8,1245.5,527.9z"/>
	<path class="st32" d="M1279.3,524.5c0.3,0.3-0.1,1.5-0.7,2.3c-0.8,1-1.7,1.1-3.3,1.8c-1.4,0.7-1,0.7-3.8,2.5c-3.2,2-3.8,2-4.2,1.8
		c-1.2-0.5-2-1.7-2.1-3c-0.1-1.1,0.4-2.4,0.9-2.4c0.6,0,0.3,2.6,1.5,3.3C1270.3,532.5,1278.3,523.5,1279.3,524.5z"/>
	<path class="st32" d="M1257.2,576.9c0-0.6,11.1,0.6,21.8-5.3c3-1.7,10.1-5.7,14-14.3c0.4-0.9,4.4-10.1,1.2-20.2
		c0,0-1.1-3.5-9.4-15.9l0,0l1,0.8c2.9,2.6,5.5,5.6,7.5,9c1.9,3.1,3.2,6.5,3.9,10c0.8,3.7,0.9,7.5,0.1,11.3c-0.7,3.2-2,6.3-3.8,9.1
		c-2.2,3.4-5,6.3-8.3,8.6c-5.5,4.1-12.1,6.6-19,7.1C1262,577.5,1257.3,577.4,1257.2,576.9z"/>
	<circle class="st33" cx="1252.7" cy="539.6" r="6.2"/>
	<circle class="st34" cx="1274.1" cy="534.3" r="4.5"/>
	<path class="st6" d="M1276.4,534.1c0.8,3.5-3.9,4.5-4.6,0.9S1275.7,530.5,1276.4,534.1z"/>
	<path d="M1275.1,534.3c0.3,1.6-1.6,2-1.9,0.4S1274.7,532.7,1275.1,534.3z"/>
	<path class="st7" d="M1273.7,533.6c0.2,0.8-0.7,0.9-0.9,0.2S1273.5,532.8,1273.7,533.6z"/>
	<path class="st6" d="M1255.5,538.9c0.9,4.3-4.5,5.4-5.4,1.1S1254.7,534.6,1255.5,538.9z"/>
	<path d="M1254,539.2c0.4,2-1.9,2.4-2.3,0.5S1253.6,537.2,1254,539.2z"/>
	<path class="st7" d="M1252.3,538.3c0.2,0.9-0.9,1.1-1,0.2S1252.1,537.4,1252.3,538.3z"/>
	<path class="st35" d="M1245.3,527.9c0.5,0.6,1.2,1.1,1.8,1.5c1.1,0.5,2.2,0.9,3.4,1c3.7,0.8,4,3.3,6.7,3.1c0.2,0,2-0.1,2.5-1.2
		s-0.2-2.3-0.5-3c-0.2-0.3-0.2-0.3-0.2-0.3s0,0.5,0,1.1c0.1,0.6,0,1.1-0.2,1.7c-0.4,0.5-1.5,0.3-2.1,0.2c-1.8-0.3-2-1-4-1.8
		c-1.1-0.4-2.1-0.7-3.2-0.9c-0.7-0.1-1.4-0.3-2.1-0.5C1246.7,528.6,1246,528.3,1245.3,527.9z"/>
	<path class="st35" d="M1279.3,524.2c-0.4,0.7-0.9,1.3-1.5,1.8c-0.9,0.7-2,1.2-3.1,1.5c-3.3,1.4-3.3,3.8-5.9,4.1
		c-0.2,0-1.9,0.2-2.6-0.8s-0.2-2.3,0-3c0.1-0.3,0.2-0.3,0.2-0.3s0.1,0.5,0.2,1.1c0,0.6,0.2,1.1,0.5,1.6c0.5,0.5,1.4,0.1,2-0.1
		c1.6-0.6,1.7-1.3,3.5-2.4c0.9-0.5,1.9-1,2.9-1.4c0.6-0.2,1.3-0.5,1.9-0.8C1278.1,525.2,1278.8,524.7,1279.3,524.2z"/>
	<path class="st36" d="M1253.3,561.4c-0.4-2.9,0.3-5.8,1.8-8.2c3.4-5.2,9.9-6.4,11.1-6.6c5.5-0.8,11,0.6,15.5,3.8
		c2.8,2,4.8,4.9,5.8,8.2c0.8,2.3,0.3,3,0,3.3c-0.9,0.8-3,0.4-4.4-0.4c-1.9-1.2-1.2-2.7-2.8-4.6c-1.9-2.3-5.6-3.4-8.8-3.1
		c-1.8,0.2-3.6,0.9-5.1,2c-2.8,2.1-4.2,5.6-5.2,7.9c-0.6,1.4-0.9,2.5-2,2.9c-1.4,0.4-3,0.1-4.2-0.9
		C1254.6,565.4,1253.5,564.4,1253.3,561.4z"/>
	<path class="st37" d="M1261.2,563.3c-0.7,0.3-3.3-2.8-3.3-5.4c0-3.8,5.2-7.5,9.9-7.7c6-0.3,11.3,5.3,11.2,5.5
		c-0.3-0.1-0.6-0.2-0.9-0.3c-0.7-0.4-1.5-0.7-2.2-1c-1.3-0.5-2.7-0.6-4.1-0.5c-1.9,0.1-3.7,0.8-5.2,1.8c-1.1,0.8-2,1.8-2.8,3
		c-1,1.2-1.7,2.7-2.1,4.2C1261.6,563,1261.4,563.2,1261.2,563.3z"/>
	<path class="st38" d="M1274.2,547.2c0.3,0.4-0.1,1.1-0.5,1.8c-0.7,1.1-0.6,0.7-1.5,1.9c-0.1,0.1-0.8,0.8-1,0.8s-0.2-0.8-0.3-1
		c-0.1-0.9-0.2-0.4-0.3-1.1c-0.1-0.7,0.1-1.5,0.3-2.2c0.1-0.3,0-0.7,0.3-0.7s0.3,0.1,0.8,0.2l1,0.2
		C1274,547,1274,546.9,1274.2,547.2z"/>
	<path class="st38" d="M1253.6,562c1.1,1,3.3-0.5,2.9-1.9s-2.7-1.7-3.1-1.1c-0.1,0.1,0,0.2,0,0.8
		C1253.5,561.4,1253.3,561.7,1253.6,562z"/>
	<path class="st39" d="M1255.9,560.1c-0.9-0.4-1.9,1.3-1,1.8S1257,560.5,1255.9,560.1z"/>
	<path class="st38" d="M1255.8,552.8c0,1.5,2.7,2,3.4,0.7s-0.7-3.1-1.4-3c-0.2,0-0.2,0.1-0.6,0.6
		C1256.2,552.3,1255.9,552.3,1255.8,552.8z"/>
	<path class="st39" d="M1258.8,553c-0.4-1-2.3-0.4-2,0.6C1257,554.5,1259.2,554.1,1258.8,553z"/>
	<path class="st38" d="M1263.2,547.7c-0.8,1.3,1.2,3.1,2.5,2.4s1.1-3,0.4-3.3c-0.1-0.1-0.3,0-0.8,0.2
		C1263.8,547.5,1263.5,547.3,1263.2,547.7z"/>
	<path class="st39" d="M1265.6,549.5c0.2-1-1.7-1.6-2-0.6S1265.4,550.7,1265.6,549.5z"/>
	<path class="st38" d="M1279.6,549.4c-1.5,0.2-1.7,2.9-0.3,3.4s3-1.1,2.8-1.8c0-0.2-0.2-0.2-0.6-0.5
		C1280.1,549.7,1280.1,549.4,1279.6,549.4z"/>
	<path class="st39" d="M1279.7,552.4c0.9-0.5,0.2-2.3-0.8-1.9S1278.6,553,1279.7,552.4z"/>
	<path class="st39" d="M1271.3,551.4c-0.1,0,0-0.7-0.3-1.5c0-0.1-0.1-0.2-0.1-0.3c-0.1-0.3-0.1-0.7,0-1c0.1-0.5,0.1-0.7,0.2-0.8
		c0.3-0.2,0.7-0.2,1,0c0.3,0.3,0,1-0.2,1.7c-0.1,0.2-0.1,0.2-0.2,0.5C1271.4,550.8,1271.4,551.4,1271.3,551.4z"/>
	<path class="st38" d="M1261.6,561.6c-0.5,0.2-1-0.5-1.5-1.1c-0.5-0.6-0.9-1.3-1.2-2.1c-0.1-0.1-0.4-1-0.3-1.2s0.8,0.1,1.1,0.2
		c0.9,0.2,0.5,0,1.1,0.1c0.7,0.2,1.4,0.6,1.9,1.1c0.2,0.2,0.6,0.3,0.6,0.5s-0.2,0.3-0.4,0.6c-0.2,0.2-0.4,0.7-0.6,0.9
		C1261.9,561.5,1261.9,561.5,1261.6,561.6z"/>
	<path class="st39" d="M1258.9,557.3c0-0.1,0.7,0.3,1.5,0.3h0.3c0.3,0.1,0.6,0.2,0.9,0.4c0.4,0.3,0.6,0.4,0.7,0.5
		c0.2,0.4,0,0.8-0.3,1c-0.4,0.2-1-0.3-1.5-0.8c-0.2-0.2-0.2-0.2-0.4-0.4C1259.4,557.7,1258.9,557.4,1258.9,557.3z"/>
	<path class="st38" d="M1268.2,554.4c0.5-1.4-1.7-2.8-2.9-1.9s-0.5,3.2,0.2,3.3c0.2,0,0.2,0,0.7-0.3
		C1267.7,554.7,1268.1,554.8,1268.2,554.4z"/>
	<path class="st39" d="M1265.6,553.3c0,1,2,1.2,2.1,0.2C1267.8,552.6,1265.5,552.1,1265.6,553.3z"/>
	<path class="st38" d="M1282.3,560.6c1.4,0.5,2.9-1.7,1.9-2.9s-3.2-0.5-3.3,0.2c0,0.2,0,0.2,0.3,0.7
		C1282,560,1281.9,560.4,1282.3,560.6z"/>
	<path class="st39" d="M1283.7,558c-1,0-1.3,1.9-0.2,2.1C1284.4,560.2,1284.9,558,1283.7,558z"/>
	<path class="st38" d="M1276.3,554.2c1.1-0.6,0.5-2.7-0.8-2.7s-2,1.7-1.7,2.1c0.1,0.1,0.2,0.1,0.6,0.2
		C1275.8,554.1,1275.9,554.3,1276.3,554.2z"/>
	<path class="st39" d="M1275.3,552c-0.6,0.6,0.5,1.8,1.2,1.2S1276,551.2,1275.3,552z"/>
	<path class="st40" d="M1258.4,566.8c0.8-0.1,1.5-0.4,2-1c0.3-0.3,0.5-0.7,0.6-1.1c0,0,0.5-1.6,1.2-3.5c0.5-1.1,1.2-2.1,2-3
		c0.5-0.8,1.1-1.5,1.8-2.2c1-0.9,2.3-1.5,3.6-1.8c1.7-0.5,3.4-0.6,5.1-0.3c2,0.4,3.7,1.4,5.1,2.8c0.6,0.6,1.1,1.3,1.4,2
		c0.4,0.9,0.2,1.1,0.6,1.7c1.2,1.5,3.1,2.2,5,1.8c0.4-0.1,0.7-0.4,0.8-0.7c0.2-0.4,0.2-0.8,0.1-1.2c-0.1-0.6-0.2-1.2-0.4-1.7
		c-0.2-0.7-0.5-1.4-0.8-2c-0.3-0.6-0.6-1.2-0.9-1.8c-0.4-0.6-0.8-1.2-1.2-1.7c-0.8-0.9-1.8-1.8-2.8-2.5c-0.9-0.7-1.8-1.3-2.8-1.8
		c-1.5-0.8-3.2-1.4-4.9-1.8c-1.1-0.3-2.1-0.5-3.2-0.6c-2.2-0.2-4.5,0-6.6,0.6c-1.7,0.5-3.4,1.2-4.9,2.2c-1.5,0.9-2.9,2-4,3.4
		c-0.8,1.1-1.4,2.2-1.8,3.5c-0.3,1.2-0.5,2.5-0.5,3.8c0,0.9,0.1,1.9,0.3,2.8c0.1,0.9,0.4,1.7,0.9,2.5c0.6,0.7,1.3,1.2,2.2,1.4
		C1257.1,566.7,1257.7,566.8,1258.4,566.8z"/>
	<path class="st41" d="M1266.3,516.2c2.8-0.4,6.9-4.9,6.8-8c-5.6-4.5,4.4-7.3,6.8-3.1c1.1,1.9-1.8,3.8-3.5,3.3
		c-2.6,1.3-2.5,8.2-0.4,9.4"/>
	<path class="st41" d="M1277.7,505.6c1.4,2.7-5.4,0.7-3.4-1.1"/>
	<path class="st41" d="M1242.1,525.4c1.8-2.2,1.7-8.3-0.4-10.4c-7.1,0.5-1.8-8.4,2.9-6.9c2.1,0.7,1.3,4-0.3,4.8
		c-1,2.7,3.7,7.7,6.1,7.2"/>
	<path class="st41" d="M1243.3,509.9c2.8,1-3.5,4.2-3.3,1.5"/>
	<path class="st41" d="M1236.8,532.1c-1.6,2.3-7.4,4.1-10.1,2.7c-1.6-7-8.5,0.8-5.7,4.8c1.2,1.8,4.2,0,4.4-1.7
		c2.3-1.7,8.4,1.3,8.6,3.7"/>
	<path class="st41" d="M1222.3,537.9c1.8,2.4,3-4.6,0.5-3.6"/>
	<path class="st41" d="M1239.1,564.5c-2-2-8-2.9-10.4-1.1c-0.5,7.1-8.6,0.5-6.4-3.8c0.9-2,4.2-0.7,4.7,1c2.6,1.3,8.1-2.6,7.9-5"/>
	<path class="st41" d="M1223.9,561.1c1.4-2.7,3.7,4.1,1.1,3.5"/>
	<path class="st41" d="M1246.8,571.2c2,2,2.7,8.1,0.8,10.4c-7.2,0.3-0.8,8.5,3.7,6.5c2-0.9,0.8-4.2-0.9-4.7
		c-1.3-2.6,2.8-8.1,5.2-7.8"/>
	<path class="st41" d="M1249.8,586.5c2.7-1.4-4-3.8-3.4-1.2"/>
	<path class="st41" d="M1276.9,572.2c-2.2,1.7-3.7,7.6-2.2,10.2c7,1.3-0.4,8.6-4.5,6c-1.8-1.1-0.3-4.2,1.5-4.5
		c1.6-2.4-1.7-8.4-4.1-8.4"/>
	<path class="st41" d="M1271.9,587c-2.5-1.7,4.4-3.2,3.6-0.7"/>
	<path class="st41" d="M1291.6,559.8c-1.4,2.9,0.3,9.7,3.4,11.5c8-2.5,4.3,8.9-1.4,8.4c-2.5-0.2-2.6-4.1-0.9-5.4
		c0.3-3.3-6.4-7.5-8.9-6.3"/>
	<path class="st41" d="M1294.6,577.4c-3.5-0.4,2.9-5.6,3.3-2.6"/>
	<path class="st41" d="M1284.9,522.6c2.3,1.6,8.4,1.3,10.4-1c-0.9-7.1,8.3-2.2,7,2.5c-0.6,2.1-4,1.5-4.8-0.1
		c-2.8-0.8-7.5,4.1-6.8,6.4"/>
	<path class="st41" d="M1300.4,523c-0.9,2.9-4.4-3.3-1.7-3.2"/>
	<path class="st41" d="M1293.8,554.6c1.3-2.5,6.9-5,9.7-3.9c2.4,6.7,8.4-1.8,5.1-5.4c-1.4-1.6-4.2,0.5-4.2,2.3c-2.1,2-8.5-0.3-9-2.6
		"/>
	<path class="st41" d="M1307.4,547.2c-2.1-2.2-2.4,4.9-0.1,3.6"/>
	<g>
		<path class="st31" d="M1262.2,202.6c-3.7-0.2-10.5-0.5-17.2-4.9c-9.7-6.3-12.1-16.3-12.8-19.1c-1-4.2-2.5-14.8,4.3-24.6
			c7.2-10.3,18.6-12.5,22.2-13.2c6.4-1.4,13-1,19.2,1.2c7.5,2.9,13.7,8.5,17.4,15.7c1.6,3,5.7,11.2,3.1,21.3
			c-2.7,10.5-11,15.9-13.8,17.8C1277.9,201,1270.1,203,1262.2,202.6z"/>
		<path class="st32" d="M1256.2,192.5c-1.3-0.9-2.2-2.3-2.5-3.9c-1.2-4.9,2.7-10.6,6.9-13.6c7.7-5.5,16.9-2.3,17.3-2.2
			c5.4,2.4,9.6,7,11.6,12.6c0.5,1.3,0.6,2.4,0.1,3.3c-0.8,1.3-3,1.5-4.7,1c-3.2-1-2.7-4.2-6-6.1c-2.4-1.3-6.1-1.4-8.2,0.2
			s-1.2,3.7-4,6.3c-1.2,1.1-2.7,1.9-4.2,2.4C1260.9,193,1258.3,193.8,1256.2,192.5z"/>
		<path class="st32" d="M1251.6,171.5c-1.8-0.4-3.4-1.6-4.3-3.2c-1.5-3.6,0.1-7.8,3.7-9.5c3.6-1.5,7.8,0,9.5,3.6
			c0.8,1.9,0.7,3.9-0.2,5.7C1258.7,171.2,1254.7,172.3,1251.6,171.5z"/>
		<path class="st32" d="M1273.8,165c-1.4-0.4-2.6-1.4-3.2-2.7c-1.1-2.6,0-6.6,2.8-8.1c2.7-1.2,5.8,0,7,2.6c0.1,0.1,0.1,0.2,0.1,0.4
			c0.6,1.6,0.5,3.3-0.2,4.9C1279.1,164.5,1276.4,165.7,1273.8,165z"/>
		<path class="st32" d="M1246.8,153.4c-0.3,0.3,0.4,1.5,1.1,2.1c0.9,0.8,1.8,0.8,3.5,1.2c1.5,0.4,1.1,0.5,4.2,1.8
			c3.5,1.4,4.1,1.3,4.5,1.1c1.1-0.7,1.7-2,1.5-3.3c-0.1-1.1-0.8-2.3-1.3-2.2c-0.6,0.1,0.1,2.6-1,3.5
			C1257,159.7,1247.7,152.3,1246.8,153.4z"/>
		<path class="st32" d="M1280.6,149.9c0.3,0.3-0.1,1.5-0.7,2.3c-0.8,1-1.7,1.1-3.3,1.8c-1.4,0.7-1,0.7-3.8,2.5c-3.2,2-3.8,2-4.2,1.8
			c-1.2-0.5-2-1.7-2.1-3c-0.1-1.1,0.4-2.4,0.9-2.4c0.6,0,0.3,2.6,1.5,3.3C1271.7,157.9,1279.6,149,1280.6,149.9z"/>
		<path class="st32" d="M1258.6,202.4c0-0.6,11.1,0.6,21.8-5.3c3-1.6,10.1-5.7,14-14.3c0.4-0.9,4.4-10.1,1.2-20.2
			c0,0-1.1-3.5-9.4-15.9l0,0l1,0.8c2.9,2.6,5.5,5.6,7.5,8.9c1.9,3.1,3.2,6.5,3.9,10c0.8,3.7,0.9,7.5,0.1,11.3
			c-0.7,3.2-2,6.3-3.8,9.1c-2.2,3.4-5,6.3-8.3,8.6c-5.5,4.1-12.1,6.6-19,7.1C1263.4,202.9,1258.6,202.8,1258.6,202.4z"/>
		<circle class="st33" cx="1254" cy="165" r="6.2"/>
		<circle class="st34" cx="1275.4" cy="159.7" r="4.5"/>
		<path class="st6" d="M1277.7,159.5c0.8,3.5-3.9,4.5-4.6,0.9S1277.1,156,1277.7,159.5z"/>
		<path d="M1276.4,159.7c0.3,1.6-1.6,2-1.9,0.4S1276.1,158.1,1276.4,159.7z"/>
		<path class="st7" d="M1275,159c0.2,0.8-0.7,0.9-0.9,0.2S1274.9,158.2,1275,159z"/>
		<path class="st6" d="M1256.9,164.3c0.9,4.3-4.5,5.4-5.4,1.1S1256.1,160,1256.9,164.3z"/>
		<path d="M1255.3,164.6c0.4,2-1.9,2.4-2.3,0.5S1254.9,162.6,1255.3,164.6z"/>
		<path class="st7" d="M1253.7,163.7c0.2,0.9-0.9,1.1-1,0.2S1253.5,162.8,1253.7,163.7z"/>
		<path class="st35" d="M1246.7,153.3c0.5,0.6,1.2,1.1,1.8,1.5c1.1,0.5,2.2,0.9,3.4,1c3.7,0.8,4,3.3,6.7,3.1c0.2,0,2-0.1,2.5-1.2
			s-0.2-2.3-0.5-3c-0.2-0.3-0.2-0.3-0.2-0.3s0,0.5,0,1.1c0.1,0.6,0,1.1-0.2,1.6c-0.4,0.5-1.5,0.4-2.1,0.2c-1.8-0.3-2-1-4-1.8
			c-1.1-0.4-2.1-0.7-3.2-0.9c-0.7-0.1-1.4-0.3-2.1-0.5C1248.1,154,1247.3,153.7,1246.7,153.3z"/>
		<path class="st35" d="M1280.7,149.6c-0.4,0.7-0.9,1.3-1.5,1.8c-0.9,0.7-2,1.2-3.1,1.5c-3.3,1.4-3.3,3.8-5.9,4.1
			c-0.2,0-1.9,0.2-2.6-0.8s-0.2-2.3,0-3c0.1-0.3,0.2-0.3,0.2-0.3s0.1,0.5,0.2,1.1c0,0.6,0.2,1.1,0.5,1.6c0.5,0.5,1.4,0.1,2-0.1
			c1.6-0.6,1.7-1.3,3.5-2.4c0.9-0.5,1.9-1,2.9-1.4c0.6-0.2,1.3-0.5,1.9-0.8C1279.5,150.6,1280.1,150.1,1280.7,149.6z"/>
		<path class="st36" d="M1254.6,186.8c-0.4-2.9,0.3-5.8,1.8-8.2c3.4-5.2,9.9-6.4,11.1-6.6c5.5-0.8,11,0.6,15.5,3.9
			c2.8,2,4.8,4.9,5.8,8.2c0.8,2.3,0.3,3,0,3.3c-0.9,0.8-3,0.4-4.4-0.4c-1.9-1.2-1.2-2.6-2.8-4.6c-1.9-2.3-5.6-3.4-8.8-3.1
			c-1.8,0.2-3.6,0.9-5.1,2c-2.8,2.1-4.2,5.6-5.2,7.9c-0.6,1.4-0.9,2.5-2,2.9c-1.4,0.4-3,0.1-4.2-0.9
			C1255.9,190.8,1254.9,189.8,1254.6,186.8z"/>
		<path class="st37" d="M1262.5,188.7c-0.7,0.3-3.3-2.8-3.3-5.4c0-3.8,5.2-7.5,9.9-7.7c6-0.3,11.3,5.3,11.2,5.5
			c-0.3-0.1-0.6-0.2-0.9-0.3c-0.7-0.4-1.5-0.7-2.2-1c-1.3-0.5-2.7-0.6-4.1-0.5c-1.9,0.1-3.7,0.8-5.2,1.8c-1.1,0.8-2,1.8-2.8,3
			c-1,1.2-1.7,2.7-2.1,4.2C1262.9,188.4,1262.8,188.6,1262.5,188.7z"/>
		<path class="st38" d="M1275.5,172.6c0.3,0.4-0.1,1.1-0.5,1.8c-0.7,1.1-0.6,0.7-1.5,1.9c-0.1,0.1-0.8,0.8-1,0.8s-0.2-0.8-0.3-1
			c-0.1-0.9-0.2-0.4-0.3-1.1c-0.1-0.7,0.1-1.5,0.3-2.2c0.1-0.3,0-0.7,0.3-0.7s0.3,0.1,0.8,0.2l1,0.2
			C1275.3,172.4,1275.3,172.3,1275.5,172.6z"/>
		<path class="st38" d="M1255,187.4c1.1,1,3.3-0.5,2.9-1.9s-2.7-1.7-3.1-1.1c-0.1,0.1,0,0.2,0,0.8
			C1254.9,186.8,1254.7,187.1,1255,187.4z"/>
		<path class="st39" d="M1257.2,185.5c-0.9-0.4-1.9,1.3-1,1.8S1258.3,186,1257.2,185.5z"/>
		<path class="st38" d="M1257.1,178.2c0,1.5,2.7,2,3.4,0.7s-0.7-3.1-1.4-3c-0.2,0-0.2,0.1-0.6,0.6
			C1257.5,177.7,1257.2,177.7,1257.1,178.2z"/>
		<path class="st39" d="M1260.1,178.4c-0.4-1-2.3-0.4-2,0.6C1258.3,179.9,1260.6,179.5,1260.1,178.4z"/>
		<path class="st38" d="M1264.6,173.1c-0.8,1.3,1.2,3.1,2.5,2.4s1.1-3,0.4-3.3c-0.1-0.1-0.3,0-0.8,0.2
			C1265.1,172.9,1264.8,172.8,1264.6,173.1z"/>
		<path class="st39" d="M1266.9,174.9c0.2-1-1.7-1.6-2-0.6S1266.7,176.1,1266.9,174.9z"/>
		<path class="st38" d="M1281,174.8c-1.5,0.2-1.7,2.9-0.3,3.4s3-1.1,2.8-1.8c0-0.1-0.2-0.2-0.6-0.5
			C1281.5,175.1,1281.4,174.8,1281,174.8z"/>
		<path class="st39" d="M1281.1,177.8c0.9-0.5,0.2-2.3-0.8-1.9S1280,178.4,1281.1,177.8z"/>
		<path class="st39" d="M1272.6,176.8c-0.1,0,0-0.7-0.3-1.5c0-0.1-0.1-0.2-0.1-0.3c-0.1-0.3-0.1-0.7,0-1c0.1-0.5,0.1-0.7,0.2-0.8
			c0.3-0.2,0.7-0.3,1,0c0.3,0.3,0,1-0.2,1.6c-0.1,0.2-0.1,0.2-0.2,0.5C1272.7,176.2,1272.7,176.8,1272.6,176.8z"/>
		<path class="st38" d="M1263,187c-0.5,0.2-1-0.5-1.5-1.1c-0.5-0.6-0.9-1.3-1.2-2.1c-0.1-0.1-0.4-1-0.3-1.2s0.8,0.1,1.1,0.2
			c0.9,0.2,0.5,0,1.1,0.1c0.7,0.2,1.4,0.6,1.9,1.1c0.2,0.2,0.6,0.3,0.6,0.5s-0.2,0.3-0.4,0.6c-0.2,0.2-0.4,0.7-0.6,0.9
			C1263.2,186.9,1263.3,186.9,1263,187z"/>
		<path class="st39" d="M1260.2,182.8c0-0.1,0.7,0.3,1.5,0.3h0.3c0.3,0.1,0.6,0.2,0.9,0.4c0.4,0.3,0.6,0.4,0.7,0.5
			c0.1,0.4,0,0.8-0.3,1c-0.4,0.2-1-0.4-1.5-0.8c-0.2-0.2-0.2-0.2-0.4-0.4C1260.7,183.1,1260.2,182.8,1260.2,182.8z"/>
		<path class="st38" d="M1269.6,179.8c0.5-1.4-1.7-2.9-2.9-1.9s-0.5,3.2,0.2,3.3c0.2,0,0.2,0,0.7-0.3
			C1269,180.1,1269.4,180.2,1269.6,179.8z"/>
		<path class="st39" d="M1266.9,178.7c0,1,2,1.2,2.1,0.2C1269.1,178,1266.9,177.5,1266.9,178.7z"/>
		<path class="st38" d="M1283.7,186c1.4,0.5,2.9-1.7,1.9-2.9s-3.2-0.5-3.3,0.2c0,0.1,0,0.2,0.3,0.7
			C1283.4,185.5,1283.3,185.8,1283.7,186z"/>
		<path class="st39" d="M1285.1,183.4c-1,0-1.3,1.9-0.2,2.1C1285.8,185.6,1286.3,183.4,1285.1,183.4z"/>
		<path class="st38" d="M1277.6,179.6c1.1-0.6,0.5-2.6-0.8-2.7s-2,1.7-1.7,2.1c0.1,0.1,0.2,0.1,0.6,0.2
			C1277.1,179.5,1277.3,179.8,1277.6,179.6z"/>
		<path class="st39" d="M1276.7,177.4c-0.6,0.6,0.5,1.8,1.2,1.2S1277.3,176.6,1276.7,177.4z"/>
		<path class="st40" d="M1259.7,192.2c0.8-0.1,1.5-0.4,2-1c0.3-0.3,0.5-0.7,0.6-1.1c0,0,0.5-1.6,1.2-3.5c0.5-1.1,1.2-2.1,2-3
			c0.5-0.8,1.1-1.5,1.8-2.2c1-0.9,2.3-1.5,3.6-1.8c1.7-0.5,3.4-0.6,5.1-0.3c2,0.4,3.7,1.4,5.1,2.8c0.6,0.6,1.1,1.3,1.4,2
			c0.4,0.9,0.2,1.1,0.6,1.7c1.2,1.5,3.1,2.2,5,1.8c0.4-0.1,0.7-0.4,0.8-0.7c0.2-0.4,0.2-0.8,0.1-1.2c-0.1-0.6-0.2-1.2-0.4-1.7
			c-0.2-0.7-0.5-1.4-0.8-2c-0.3-0.6-0.6-1.2-0.9-1.8c-0.4-0.6-0.8-1.2-1.2-1.7c-0.8-0.9-1.8-1.8-2.8-2.5c-0.9-0.7-1.8-1.3-2.8-1.8
			c-1.5-0.8-3.2-1.4-4.9-1.8c-1.1-0.3-2.1-0.5-3.2-0.6c-2.2-0.2-4.5,0-6.6,0.6c-1.7,0.5-3.4,1.2-4.9,2.1c-1.5,0.9-2.9,2-4,3.4
			c-0.8,1.1-1.4,2.2-1.8,3.5c-0.3,1.2-0.5,2.5-0.5,3.8c0,0.9,0.1,1.9,0.3,2.8c0.1,0.9,0.4,1.7,0.9,2.5c0.6,0.7,1.3,1.2,2.2,1.4
			C1258.4,192.2,1259.1,192.3,1259.7,192.2z"/>
		<path class="st41" d="M1267.6,141.6c2.8-0.4,6.9-4.9,6.8-8c-5.6-4.5,4.4-7.4,6.8-3.1c1.1,1.9-1.8,3.8-3.5,3.3
			c-2.6,1.3-2.5,8.2-0.4,9.4"/>
		<path class="st41" d="M1279,131c1.4,2.7-5.4,0.7-3.4-1.1"/>
		<path class="st41" d="M1243.4,150.8c1.8-2.2,1.7-8.3-0.4-10.4c-7.1,0.5-1.8-8.4,2.9-6.9c2.1,0.6,1.3,4-0.3,4.8
			c-1,2.7,3.7,7.7,6.1,7.1"/>
		<path class="st41" d="M1244.6,135.3c2.8,1-3.5,4.2-3.3,1.6"/>
		<path class="st41" d="M1238.1,157.5c-1.6,2.3-7.4,4.1-10.1,2.7c-1.6-7-8.5,0.8-5.7,4.8c1.2,1.8,4.2,0,4.4-1.7
			c2.3-1.7,8.4,1.3,8.6,3.7"/>
		<path class="st41" d="M1223.6,163.3c1.8,2.4,3-4.6,0.5-3.6"/>
		<path class="st41" d="M1240.4,189.9c-2-2-8-2.9-10.4-1.1c-0.5,7.1-8.6,0.5-6.4-3.8c0.9-2,4.2-0.7,4.7,1c2.6,1.3,8.1-2.6,7.9-5"/>
		<path class="st41" d="M1225.2,186.5c1.4-2.7,3.7,4.1,1.1,3.5"/>
		<path class="st41" d="M1248.1,196.6c2,2,2.7,8.1,0.8,10.4c-7.2,0.3-0.8,8.5,3.7,6.5c2-0.9,0.8-4.1-0.9-4.7
			c-1.3-2.6,2.8-8.1,5.2-7.8"/>
		<path class="st41" d="M1251.1,211.9c2.7-1.4-4-3.8-3.4-1.1"/>
		<path class="st41" d="M1278.2,197.7c-2.2,1.7-3.7,7.6-2.2,10.2c7,1.3-0.4,8.6-4.5,6c-1.8-1.1-0.3-4.2,1.5-4.5
			c1.6-2.4-1.7-8.4-4.1-8.4"/>
		<path class="st41" d="M1273.2,212.4c-2.5-1.7,4.4-3.2,3.6-0.7"/>
		<path class="st41" d="M1293,185.3c-1.4,2.9,0.3,9.7,3.4,11.5c8-2.5,4.3,8.9-1.4,8.4c-2.5-0.2-2.6-4.1-0.9-5.4
			c0.3-3.3-6.4-7.5-8.9-6.3"/>
		<path class="st41" d="M1295.9,202.8c-3.5-0.4,2.9-5.6,3.3-2.6"/>
		<path class="st41" d="M1286.2,148c2.3,1.6,8.4,1.3,10.4-1c-0.9-7.1,8.3-2.2,7,2.5c-0.6,2.1-4,1.5-4.8-0.1
			c-2.8-0.8-7.5,4.1-6.8,6.4"/>
		<path class="st41" d="M1301.8,148.5c-0.9,2.9-4.4-3.3-1.7-3.2"/>
		<path class="st41" d="M1295.1,180c1.3-2.5,6.9-5,9.7-3.9c2.4,6.7,8.4-1.8,5.1-5.4c-1.4-1.6-4.2,0.5-4.2,2.3c-2.1,2-8.5-0.3-9-2.6"
			/>
		<path class="st41" d="M1308.8,172.6c-2.1-2.2-2.4,4.9-0.1,3.6"/>
	</g>
</g>
</svg>
