<svg xmlns="http://www.w3.org/2000/svg" viewBox="0 0 330 255"><defs><style>.cls-1,.cls-14,.cls-15{fill:#e8792e;}.cls-1,.cls-13,.cls-14,.cls-15,.cls-2,.cls-3,.cls-4{stroke:#965930;}.cls-1,.cls-11,.cls-13,.cls-14,.cls-15,.cls-2,.cls-3,.cls-4{stroke-miterlimit:10;}.cls-1,.cls-15,.cls-3,.cls-4{stroke-width:3.87px;}.cls-2,.cls-7,.cls-8{fill:#965930;}.cls-11,.cls-2{stroke-width:0.77px;}.cls-2,.cls-8{opacity:0.25;}.cls-3{fill:#ffe7d9;}.cls-4{fill:#ffeee3;}.cls-5{fill:#7b5089;}.cls-6{fill:#f9f9f9;}.cls-9{fill:#a51c1c;}.cls-10{fill:#cc3e3e;}.cls-11{fill:#eadfdf;stroke:#7c7c7c;}.cls-12{fill:#fff;opacity:0.5;}.cls-13{fill:none;}.cls-13,.cls-14{stroke-width:4.64px;}.cls-14,.cls-15{stroke-linecap:round;}.cls-16{fill:#aac95b;}.cls-16,.cls-17,.cls-18,.cls-19,.cls-20,.cls-21,.cls-22{fill-rule:evenodd;}.cls-17{fill:#dee890;}.cls-18{fill:#79c6f2;}.cls-19{fill:#e29764;}.cls-20{fill:#b761cf;}.cls-21{fill:#9ad5ef;}.cls-22{fill:#be7fd3;}</style></defs><g id="Layer_5" data-name="Layer 5"><path class="cls-1" d="M200.87,210.73c9.77-.11,27.44-.53,45.36-11.42,25.75-15.65,33.06-41.41,35-48.67,2.91-10.94,7.84-38.47-9.21-64.68-17.88-27.5-47.37-34.16-56.85-36.3-8.48-1.92-27.73-6-50.12,1.59-29.67,10.06-43.36,33.35-46.83,39.47-4.31,7.6-15.87,28.76-9.86,55.33,6.27,27.7,27.38,42.46,34.67,47.55C167.56,210.75,193.08,210.81,200.87,210.73Z"/><path class="cls-2" d="M231.06,130.34c1.42-.32,8.31-1.91,11.59-8,4.26-7.92.82-20.35-8.81-25-9.46-4.61-21.06.11-25.2,8.51-3.59,7.27-.23,14.53,0,15C212.71,129.19,223.12,132.17,231.06,130.34Z"/><path class="cls-2" d="M173.81,111.58a13,13,0,0,0,8.66-6.82c3.18-6.72.61-17.26-6.58-21.25s-15.73.09-18.83,7.22c-2.68,6.17-.16,12.33,0,12.72A14.4,14.4,0,0,0,173.81,111.58Z"/><path class="cls-2" d="M210.34,210.44c.16-1.63-29.06.59-56.59-15.62-7.72-4.55-25.95-15.63-35.26-38.35-1-2.41-10.57-26.8-1.39-52.88,0,0,3.19-9,25.82-40.82h0l-2.62,2C128.79,73.58,120,87.51,120,87.51a82.08,82.08,0,0,0-11.13,25.83,70.86,70.86,0,0,0-1.24,29.37,73.36,73.36,0,0,0,9.12,24.12c7,11.82,15.43,18.62,21,23a96.81,96.81,0,0,0,20,12.22A98,98,0,0,0,186.68,210C197.82,211.47,210.23,211.5,210.34,210.44Z"/><circle class="cls-3" cx="225.41" cy="113.26" r="16.16"/><circle class="cls-4" cx="169.91" cy="97.64" r="11.67"/><path class="cls-5" d="M164,97c-2.29,9.22,9.71,12,11.78,2.77C178,90.59,166,87.76,164,97Z"/><path d="M167.4,97.7c-1.05,4.26,4,5.45,5,1.17S168.36,93.42,167.4,97.7Z"/><path class="cls-6" d="M171.12,95.85c-.48,2,1.83,2.49,2.27.53S171.56,93.88,171.12,95.85Z"/><path class="cls-5" d="M218,111.35c-2.75,11.09,11.41,14.44,13.9,3.28C234.6,103.54,220.44,100.2,218,111.35Z"/><path d="M222,112.14c-1.26,5.12,4.7,6.53,5.86,1.38S223.17,107,222,112.14Z"/><path class="cls-6" d="M226.42,109.89c-.58,2.34,2.15,3,2.68.63S227,107.53,226.42,109.89Z"/><path class="cls-7" d="M241.4,95.72a22.76,22.76,0,0,0-7.84-4.79,14.62,14.62,0,0,0-9.32-.85c-7.41,2-11.12,3-11.76,3.25a.75.75,0,0,1-1-.17c-.45-.63-.31-2.2-.2-2.91a6.34,6.34,0,0,1,3.34-4.45c2.43-1.43,4.23-1,8.62-.51,6,.73,5.44.34,7.46.86,3.4.87,5.56,1.42,8,3.76,3.24,3.07,5.49,7.77,5.29,8.21C243.93,98.38,243,97.17,241.4,95.72Z"/><path class="cls-8" d="M241.62,98.77A22.6,22.6,0,0,0,233.77,94a14.6,14.6,0,0,0-9.31-.85c-7.42,2-11.13,3-11.76,3.25a.77.77,0,0,1-1-.18,5.09,5.09,0,0,1-.19-2.9,6.28,6.28,0,0,1,3.33-4.45c2.44-1.44,4.23-1,8.63-.51,6,.72,5.44.34,7.45.85,3.41.87,5.57,1.42,8,3.76,3.25,3.07,5.49,7.77,5.3,8.21C244.15,101.42,243.2,100.21,241.62,98.77Z"/><path class="cls-7" d="M160,80.91a22.46,22.46,0,0,1,8.82-2.18,14.59,14.59,0,0,1,9.06,1.93c6.45,4,9.67,6.07,10.2,6.51a.74.74,0,0,0,1,.13,4.88,4.88,0,0,0,1-2.67,6.16,6.16,0,0,0-1.86-5.15c-1.89-2.06-3.7-2.22-8-3-5.89-1.09-5.25-1.28-7.31-1.39-3.47-.19-5.68-.31-8.7,1.16-4,1.92-7.46,5.66-7.4,6.14C156.83,82.65,158.09,81.8,160,80.91Z"/><path class="cls-8" d="M158.91,83.7a22.46,22.46,0,0,1,8.82-2.18,14.54,14.54,0,0,1,9.06,1.94c6.45,4,9.67,6.06,10.2,6.5a.74.74,0,0,0,1,.13,4.88,4.88,0,0,0,1-2.67,6.16,6.16,0,0,0-1.86-5.15c-1.89-2.06-3.7-2.22-8-3-5.89-1.08-5.25-1.28-7.31-1.39-3.47-.19-5.68-.31-8.7,1.16-4,1.92-7.46,5.66-7.4,6.14C155.74,85.44,157,84.59,158.91,83.7Z"/><path class="cls-2" d="M145.65,147.62a13.3,13.3,0,0,0-6.46,8.72c-2.58,10.43,9.19,21.52,21.24,26.81,22.14,9.7,47.21.69,48.38.26,0,0,22.14-8.29,30.15-29.14,1.09-2.85,1.34-5.24-.3-6.84-2.47-2.41-8.68-2.45-13.24-1-8.69,2.77-6.89,9.53-15.79,14.15-6.53,3.39-16.64,4.51-22.91,1.6-6.12-2.84-4-7.4-12.05-12.12a33.29,33.29,0,0,0-12.09-4C158.57,145.49,151.3,144.44,145.65,147.62Z"/><path class="cls-9" d="M142.46,143.26c-.68,4.18-1.91,11.79,3.59,19.86,8.64,12.69,26.75,16,30.22,16.56,23.07,3.82,41.58-6.51,44.53-8.21,12.21-7.06,16.19-15.63,17.89-19.3,2.57-5.53,1.43-7.24.45-8-2.5-1.91-8.57-1.19-12.57.76-5.62,2.73-3.83,6.26-8.79,10.77-5.82,5.29-16.47,7.86-25.3,6.92a29.54,29.54,0,0,1-14-5.14c-7.42-5.17-11-13.83-13.21-19.28-1.43-3.48-2.09-6-5.22-7.09-3.62-1.29-8.74-.08-11.93,1.85C146.8,133.76,143.64,136,142.46,143.26Z"/><path class="cls-10" d="M165.2,139.22c-1.91-.68-9.88,6.42-10.37,12.84-.69,9,13.24,18.46,26.63,19.28,17,1,32.94-11.89,32.67-12.35a19.54,19.54,0,0,0-2.71.72,59,59,0,0,1-6.46,2.16,32.22,32.22,0,0,1-11.77.89,33.61,33.61,0,0,1-14.43-4.65c-1.63-1-3.54-2.48-7.27-7.38-3.53-4.63-4.92-7.94-5.33-10.23A1.56,1.56,0,0,0,165.2,139.22Z"/><path class="cls-11" d="M199.07,178.91c1.07-.86,0-2.63-1-4.32-1.66-2.75-1.44-1.69-3.87-4.59-.21-.25-2.14-2-2.59-1.86s-.73,1.83-.89,2.45c-.52,2.12-.72,1-1,2.54a10.21,10.21,0,0,0,.51,5.29c.2.66,0,1.58.68,1.78.36.11.9-.17,2.17-.34.77-.11,2.37-.31,3-.37C198.48,179.25,198.4,179.44,199.07,178.91Z"/><path class="cls-11" d="M143.49,141.78c3.23-2.38,9.27,1.38,7.74,4.84-1.22,3.25-8,3.85-9.08,2.45-.24-.31-.1-.58.19-1.89C143.2,143.24,142.58,142.53,143.49,141.78Z"/><path class="cls-12" d="M149.52,146.55c-2.7,1-5.17-3.28-2.48-4.49C149.35,141.05,152.83,145.55,149.52,146.55Z"/><path class="cls-11" d="M148,164.19c.37-3.57,7.92-4.64,9.7-1.35,1.82,2.95-2.64,7.43-4.6,7.12-.44-.06-.56-.34-1.44-1.4C149.05,165.36,148,165.25,148,164.19Z"/><path class="cls-12" d="M156.43,163.81c-1.17,2.29-6.52.87-5.57-1.57C151.71,160.17,158,161.14,156.43,163.81Z"/><path class="cls-11" d="M168.08,176.82c-2-3.1,3.87-7.44,7.49-5.56,3.45,1.59,2.46,7.32.59,8-.42.15-.7,0-2.14-.49C169.7,177.32,168.73,177.71,168.08,176.82Z"/><path class="cls-12" d="M175.07,172.67c.45,2.41-5.06,3.7-5.8,1.26C168.68,171.83,174.72,169.75,175.07,172.67Z"/><path class="cls-11" d="M214.81,173.9c-4.12-.61-4.22-7.07-.1-8.29,3.73-1.3,8.3,2.83,7.65,4.46-.15.36-.49.44-1.87,1.1C216.34,173.14,216.05,174,214.81,173.9Z"/><path class="cls-12" d="M215.62,166.65c2.5,1.17,0,5.57-2.69,4.56C210.63,170.33,212.73,165.1,215.62,166.65Z"/><path class="cls-12" d="M191.6,168.61c-.26,0-.16,1.66-1.15,3.59a4.23,4.23,0,0,0-.33.73,5,5,0,0,0-.16,2.42c.13,1.13.19,1.69.52,2a2.58,2.58,0,0,0,2.85.18c.93-.71.32-2.49-.19-4-.2-.59-.25-.56-.51-1.27C191.8,170,191.84,168.6,191.6,168.61Z"/><path class="cls-11" d="M166.18,143.27c-1.31-.48-2.86,1.09-4.35,2.61-2.41,2.44-1.34,1.83-3.64,4.94-.2.27-1.39,2.49-1.13,2.8s2.26-.19,3-.32c2.49-.47,1.34.15,3.12-.25a15.82,15.82,0,0,0,5.6-2.6c.64-.43,1.72-.64,1.7-1.27,0-.33-.51-.64-1.14-1.56-.39-.56-1.16-1.73-1.46-2.21C166.76,143.59,167,143.57,166.18,143.27Z"/><path class="cls-12" d="M157.57,153.4c.1.2,1.86-.56,4.32-.59a5.91,5.91,0,0,0,.9,0,8.07,8.07,0,0,0,2.7-.88c1.18-.57,1.77-.85,2-1.22a1.74,1.74,0,0,0-.79-2.32c-1.11-.43-2.83.78-4.27,1.8-.57.4-.52.42-1.2.92C159.05,152.66,157.47,153.21,157.57,153.4Z"/><path class="cls-11" d="M183.5,161.19c1.21,3.38-5.43,6.74-8.54,4.29-3-2.13-.77-7.63,1.21-8,.44-.07.67.14,2,.84C182,160.43,183.07,160.2,183.5,161.19Z"/><path class="cls-12" d="M175.78,163.6c.1-2.46,5.76-2.85,5.93-.31C181.82,165.46,175.47,166.54,175.78,163.6Z"/><path class="cls-11" d="M224.5,147.17c4-1.19,7.84,4.28,4.88,7-2.57,2.66-9,1-9.38-.64-.08-.37.18-.57,1-1.71C223.58,148.45,223.33,147.58,224.5,147.17Z"/><path class="cls-12" d="M228,153.56c-2.9,0-3.24-4.75-.25-5C230.28,148.34,231.43,153.68,228,153.56Z"/><path class="cls-11" d="M206.17,162.14c2.94,1.44.85,6.41-2.71,6.38-3.28.11-5.39-4.13-4.34-5.23.23-.24.52-.22,1.8-.4C204.75,162.36,205.26,161.76,206.17,162.14Z"/><path class="cls-12" d="M203.12,167.36c-1.52-1.49,1.85-4.27,3.59-2.86C208.17,165.72,204.8,169.23,203.12,167.36Z"/><path class="cls-13" d="M157.82,130.67a8.85,8.85,0,0,1,5.45,2.41,5.74,5.74,0,0,1,1.41,2.7s1.18,3.93,2.88,8.53c.81,2.2,2.5,3.86,5.26,7.38,2.38,3,3.56,4.55,4.72,5.5a24.78,24.78,0,0,0,9.9,4.52,34.79,34.79,0,0,0,14.39.95,31.71,31.71,0,0,0,9.67-3,29.14,29.14,0,0,0,5.16-3.43,19.54,19.54,0,0,0,4.37-4.72c1.34-2.15.81-2.56,2-4a12.16,12.16,0,0,1,5.66-3.43c1.54-.55,5.49-1.95,8.91-.6a4.29,4.29,0,0,1,2.29,1.7c.28.5.43,1.15.06,3a19.76,19.76,0,0,1-1.33,4.13,39.54,39.54,0,0,1-2.69,4.71,46.56,46.56,0,0,1-2.84,4.28,31,31,0,0,1-3.84,4,48.81,48.81,0,0,1-8.26,5.86,61.42,61.42,0,0,1-8.21,4.15,66.16,66.16,0,0,1-14.07,4,64.57,64.57,0,0,1-9.27,1.17,60.47,60.47,0,0,1-18.55-1.93,55.14,55.14,0,0,1-13.38-5.51c-3.31-1.92-7.23-4.2-10.59-8.51a24.74,24.74,0,0,1-4.39-8.52,25.31,25.31,0,0,1-.67-9.11,27.86,27.86,0,0,1,1.25-6.7c.9-2.69,1.41-4.24,3.07-5.84a14,14,0,0,1,6.5-3.3A13.44,13.44,0,0,1,157.82,130.67Z"/><path class="cls-14" d="M191.86,51.06c-7.24-1.37-17.65-13.45-17-21.31,15-11.17-10.92-19.56-17.47-8.68-3,4.82,4.35,10.14,8.81,8.81,6.56,3.7,5.83,21.52.31,24.47"/><path class="cls-14" d="M162.9,22.48c-3.83,6.92,14.15,2.23,9.1-2.55"/><path class="cls-15" d="M254.24,77.24c-4.38-5.93-3.8-21.86,2-27.18,18.58,2,5.29-21.78-6.91-18.25-5.46,1.52-3.7,10.4.47,12.46,2.3,7.16-10.35,19.73-16.4,18.15"/><path class="cls-15" d="M252.43,36.6c-7.51,2.46,8.85,11.25,8.4,4.31"/><path class="cls-15" d="M267.49,95.13c4,6.22,19.06,11.37,26.11,7.85,4.79-18.06,22.23,2.85,14.57,13-3.37,4.55-11-.26-11.46-4.9-5.88-4.7-22.14,2.61-22.82,8.83"/><path class="cls-15" d="M304.8,111.36c-5,6.13-7.34-12.29-1-9.39"/><path class="cls-15" d="M258.76,179.49c5.24-5.18,21.1-6.89,27.2-1.91.7,18.67,22.31,2.11,17.06-9.46-2.28-5.18-10.82-2.17-12.26,2.26-6.76,3.3-21-7.42-20.31-13.63"/><path class="cls-15" d="M298.73,171.87c-3.52-7.08-9.87,10.38-3.07,8.94"/><path class="cls-15" d="M238.11,196.24c-5.38,5-7.71,20.81-3,27.1,18.63,1.42,1.24,22.37-10.11,16.68-5.09-2.48-1.75-10.89,2.73-12.16,3.55-6.63-6.6-21.29-12.84-20.83"/><path class="cls-15" d="M229,235.88c-6.94-3.79,10.75-9.46,9.05-2.72"/><path class="cls-15" d="M159.5,196.51c5.71,4.67,9.09,20.25,4.78,26.84-18.49,2.68.28,22.41,11.22,16,4.91-2.82,1-11-3.54-11.94-4-6.38,5.14-21.69,11.39-21.65"/><path class="cls-15" d="M171.32,235.44c6.67-4.25-11.37-8.7-9.21-2.09"/><path class="cls-15" d="M122.05,162.91c3.36,7.73-1.7,25.26-9.79,29.63-20.65-7.1-12,22.78,2.86,22.07,6.63-.24,7.08-10.55,2.89-13.94-.64-8.56,17.25-19.17,23.71-15.81"/><path class="cls-15" d="M112.9,208.49c9.25-.76-7-14.83-8.39-7"/><path class="cls-15" d="M142.83,66.35c-6.14,4.08-22,2.7-27.05-3.37,2.92-18.46-21.49-6.38-18.57,6,1.24,5.52,10.2,4.21,12.46.15C117,67.19,128.86,80.45,127,86.41"/><path class="cls-15" d="M102.14,66.12c2.09,7.62,11.69-8.28,4.74-8.18"/><path class="cls-16" d="M88.9,83.22c-.66,5.88-4.55,15.48-6.13,24.6-4.26,23.54-6.17,55.7.21,78.81,3,10.59,3.66,11.87,3,13.87-1,3-4.85,2.29-8.44-10.47-7.64-26.57-5.6-56.24,1.17-82.94C86,77.93,89.42,78,88.9,83.22Z"/><path class="cls-17" d="M39.34,86.87c2,5.54,7.8,14.19,11.37,22.65,9.21,22.17,18.05,53.09,16.83,77.05-.57,10.9-1,12.31.09,14.19,1.6,2.63,5.17,1.13,5.92-12.12,1.69-27.54-6.77-56.1-19.08-80.72C41,81,37.65,81.79,39.34,86.87Z"/><path class="cls-16" d="M54.1,80.41c1,5.83,5.55,15.22,7.71,24.15,5.73,23.3,9.77,55.16,4.79,78.75-2.16,10.71-2.82,12-2.07,14,1.22,2.82,5,2,7.8-11,5.83-27,1.88-56.47-6.48-82.78C56.64,75,53.26,75.15,54.1,80.41Z"/><path class="cls-17" d="M63,75.5c.85,5.83,5.17,15.32,7.14,24.34,5.27,23.4,8.46,55.44,3,78.84-2.54,10.62-3.19,11.93-2.44,13.91,1.13,2.91,4.88,2.07,8-10.81C85.13,155,81.93,125.4,74.14,98.9,65.58,70.15,62.2,70.24,63,75.5Z"/><path class="cls-16" d="M111.21,91c-2.07,5.54-8.18,14-11.94,22.36-9.86,21.9-19.54,52.53-19,76.59.28,10.9.66,12.31-.47,14.19-1.69,2.53-5.26,1-5.64-12.31-.94-27.54,8.27-55.82,21.33-80.16C109.7,85.23,113,86,111.21,91Z"/><path class="cls-16" d="M80.1,161c2-13.53,5.45-18.88,18-24,2.07-.84,8.08-3.1,8.08-3-4.23,10.71-1.41,22.92-16.72,27.43-.94.29-9.59,1.23-9.31-.47Z"/><path class="cls-17" d="M82,160.13c.19-.85,6.49-10.34,7.24-11.09,4.7-4.51,9-5.07,11.56-8.08,1-1.32-.19,1.88-.38,2.54-.85,2.63-7.33,2.91-10.34,9-.65,1.41-6,6.67-7.8,7.61Z"/><path class="cls-16" d="M70,157.82c-1-15.79-4.51-22.18-18.33-29.13-2.25-1.13-8.92-4.33-8.92-4.23-6.3,36,27.34,35.24,27.25,33.36Z"/><path class="cls-17" d="M67.82,156.69c-.1-1-6.39-12.5-7.14-13.44-5.08-5.64-12.5-10.81-15-14.47-1.13-1.69,4.42,8.74,5,9.4,3.67,3.66,5.92,1.69,8.74,9,.66,1.59,6.3,8.17,8.18,9.39Z"/><path class="cls-18" d="M29.78,68C24,64.32,17,52.39,11.36,59.81c-3.38,4.51.76,7.89,3.2,10.24.66.75-3.85,3.57-3.67,6.2.38,4.14,9.21,7,17.76-2.25,4-4.51,5.36-3.38,1.13-6Z"/><path class="cls-18" d="M35,64.79c3-6.11,14.19-14.19,6.11-18.89-5-2.91-7.8,1.6-10,4.23-.66.75-4-3.38-6.58-2.91-4.14.75-6.11,9.86,4.23,17.19,5,3.48,3.94,5,6.2.38Z"/><path class="cls-18" d="M37.21,71.18c5.92,3.29,13.43,14.94,18.6,7.14,3.1-4.79-1.22-7.89-3.76-10.15-.75-.66,3.39-7.8,3-10.43-.56-4.23-9.21-2.63-17.1,7.33-3.76,4.7-5.17,3.67-.75,6.11Z"/><path class="cls-18" d="M31.38,72.68C28,80.39,15.22,84.62,22.45,90.54c4.51,3.57,8.74.84,11.18-1.41.76-.66,7,3.57,9.4,2.63,7.71-2.82,3.57-9-5.64-17.76-4.32-4.23-4-5.92-6-1.32Z"/><path class="cls-19" d="M31.85,71.46c4.13,2.07,5.73-3,3.66-5.64C31.94,61.41,25,68,31.85,71.46Z"/><path class="cls-20" d="M89.28,62.5c-.55-9.71-8-12-8.79-22.39-.37-5.09,6.57-4.17,8.7-1.85,3.24,3.24,6.29-6.2,8.61.28,1.2,3.14,12.49-.65,11.1,7.77C108.72,47.42,89.84,72,89.28,62.5Z"/><path class="cls-20" d="M93.73,63.89c9.44-2.78,9.9-10.64,19.89-13.7,4.81-1.48,5.46,5.46,3.8,8.06-2.5,3.88,7.4,4.71,1.57,8.51-2.78,1.85,3.52,12-5,12.58-1.11.1-29.42-12.77-20.26-15.45Z"/><path class="cls-20" d="M90.67,67c4,9.12,11.94,8.56,16.26,18.23,2.16,4.7-4.7,6.21-7.61,4.89-2.44-1.22-4,4.42-6.39,5.17-1.6.56-3.85-3.29-5.83-5.54-2.25-2.54-7.7,8.17-9.39-.38-.19-1,9-31.2,13-22.37Z"/><path class="cls-20" d="M83.63,67.8C77.05,75.22,80.9,82.27,74,90.26c-3.39,3.94-7.61-1.7-7.61-4.8,0-2.72-5.74-1.88-7.43-3.66-1.22-1.22,1.32-4.89,2.54-7.61,1.5-3.1-10.62-3.57-3.57-8.74.94-.66,32.14-4.89,25.75,2.35Z"/><path class="cls-20" d="M86.6,63.43c-6.11-4.26-18.41.92-25-3.52-3.24-2.13.55-5.83,3-6.11,1.94-.18-4.44-3.33-2.32-7.21.65-1.11,7-2.13,9.17-1.48,1.75.55-2-4.35,4-5.37.74-.19,2,4.72,3.24,6,.56.65,13.88,21.75,8,17.68Z"/><path class="cls-19" d="M85.79,59c-7.14,6.49-.47,20.39,10.43,9.87C101.67,63.57,93.59,52,85.79,59Z"/><path class="cls-21" d="M53.27,88.75c-6.86.57-19.45-5-19.54,4.32-.1,5.74,5.26,5.92,8.64,6.39.94.19-.94,5.17.76,7.15,2.72,3.19,11.55.18,12.87-12.41.56-6,2.35-5.92-2.73-5.45Z"/><path class="cls-21" d="M55.62,83.11c-1.31-6.67,2.92-19.92-6.39-18.88-5.73.65-5.35,6-5.45,9.3-.09,1-5.17-.28-7,1.69-2.82,3.1.93,11.56,13.62,11.28,6.11-.19,6.11,1.59,5.26-3.39Z"/><path class="cls-21" d="M61.17,86.87c6.76-.84,19.73,4,19.17-5.35-.28-5.74-5.64-5.64-9-5.92-.94-.1-2-8.27-3.76-10.15-2.92-3-9,3.38-9.4,16.07-.19,6-2,6,3,5.35Z"/><path class="cls-21" d="M57.41,91.57c1.88,8.18-5.83,19.26,3.48,19.55,5.73.28,7.51-4.42,8.17-7.71.19-1,7.61-1.31,9.12-3.48,4.41-6.86-2.54-9.3-15.13-10.9-6-.75-6.77-2.44-5.64,2.54Z"/><path class="cls-19" d="M57,90.26c4.61-.76,2.92-5.83-.37-6.68-5.55-1.41-7.14,8,.37,6.68Z"/><path class="cls-18" d="M115.2,85.84c-6.77.56-19.45-5-19.55,4.42-.09,5.63,5.27,5.82,8.65,6.29,1,.19-.94,5.17.75,7.14,2.73,3.2,11.65.19,12.88-12.31.56-6.11,2.34-5.92-2.73-5.54Z"/><path class="cls-18" d="M117.55,80.2c-1.22-6.67,2.91-19.92-6.39-18.89-5.64.66-5.36,6-5.45,9.4,0,.94-5.17-.38-7,1.6-2.82,3.1,1,11.56,13.63,11.27,6.11-.18,6.2,1.6,5.26-3.38Z"/><path class="cls-18" d="M123.19,84c6.76-.85,19.64,4,19.17-5.36-.38-5.73-5.73-5.64-9-5.92-1-.09-2-8.27-3.86-10.15-2.91-3-9,3.39-9.39,16.07-.19,6-2,6,3.1,5.36Z"/><path class="cls-18" d="M119.33,88.66c1.88,8.17-5.82,19.26,3.48,19.64,5.73.19,7.52-4.51,8.18-7.8.18-1,7.61-1.22,9.11-3.48,4.51-6.86-2.54-9.3-15.13-10.9-6-.75-6.76-2.35-5.64,2.54Z"/><path class="cls-19" d="M119.05,87.34c4.51-.75,2.82-5.82-.47-6.67-5.45-1.41-7.14,8,.47,6.67Z"/><path class="cls-22" d="M54.68,58.21c-3.76.94-4.13,3.95-8.08,5-2,.57-2.07-2.16-1.31-3.19,1-1.51-2.92-2-.57-3.39C45.85,56,43.6,51.82,47,51.73c.37,0,11.37,5.54,7.7,6.48Z"/><path class="cls-22" d="M54.87,56.33c-1.78-3.38-4.79-3-6.76-6.67-.94-1.79,1.69-2.54,2.91-2.07,1.69.66,1.22-3.19,3.1-1.22.94.94,4.42-2.25,5.26,1,.1.38-2.82,12.31-4.51,8.93Z"/><path class="cls-22" d="M56.19,57.37c3.19-2.17,2.35-5.17,5.73-7.52,1.69-1.22,2.72,1.31,2.44,2.54-.28,1,2,1.22,2.45,2.06.28.57-.94,1.79-1.7,2.63-.84,1,3.67,2.35.47,3.67-.37.09-12.59-1.22-9.39-3.38Z"/><path class="cls-22" d="M56.94,60c3.29,2,5.73,0,9.3,2.06,1.69,1-.09,3.11-1.31,3.29-1,.19-.29,2.35-.85,3.1-.38.57-2-.18-3.1-.47-1.32-.28-.66,4.33-3.1,2-.28-.28-4.14-11.94-.94-10Z"/><path class="cls-22" d="M55.25,59.15c-1.22,2.73,1.69,7.14.47,10-.66,1.41-2.35.19-2.63-.66s-.94,1.88-2.64,1.32c-.47-.09-1.31-2.54-1.22-3.38s-1.59,1.12-2.44-1.13C46.7,65,48.48,64.13,49,63.57c.19-.28,7.42-7,6.3-4.42Z"/><path class="cls-19" d="M53.37,59.81c3,2.25,7.89-1.22,3-4.7-2.34-1.69-6.2,2.26-3,4.7Z"/><path class="cls-15" d="M116,147c-3.21-6.65-17.57-13.56-25-10.9-6.9,17.36-21.73-5.48-12.91-14.63,3.88-4.12,10.92,1.58,10.79,6.23,5.27,5.37,22.29,0,23.71-6"/><path class="cls-15" d="M80.93,126.44c5.68-5.5,5.82,13.08-.1,9.45"/></g></svg>