<?xml version="1.0" encoding="utf-8"?>
<!-- Generator: Adobe Illustrator 24.2.1, SVG Export Plug-In . SVG Version: 6.00 Build 0)  -->
<svg version="1.1" id="Ebene_1" xmlns="http://www.w3.org/2000/svg" xmlns:xlink="http://www.w3.org/1999/xlink" x="0px" y="0px"
	 viewBox="0 0 1229.6 799.9" style="enable-background:new 0 0 1229.6 799.9;" xml:space="preserve">
<style type="text/css">
	.st0{fill:none;stroke:#000000;}
	.st1{fill:none;stroke:#000000;stroke-miterlimit:10;}
	.st2{stroke:#000000;stroke-miterlimit:10;}
	.st3{fill:#FFFFFF;stroke:#000000;}
	.st4{stroke:#000000;}
	.st5{fill:none;}
	.st6{font-family:'FrutigerCE-Roman';}
	.st7{font-size:12px;}
	.st8{fill:#FFFFFF;stroke:#000000;stroke-miterlimit:10;}
</style>
<rect x="5.6" y="24" pointer-events="all" class="st0" width="1160" height="770"/>
<path pointer-events="stroke" class="st1" d="M460.6,137h53.6"/>
<path pointer-events="all" class="st2" d="M519.5,137l-7,3.5l1.8-3.5l-1.8-3.5L519.5,137z"/>
<path pointer-events="all" class="st3" d="M346.6,117h108c3.3,0,6,2.7,6,6v28c0,3.3-2.7,6-6,6h-108c-3.3,0-6-2.7-6-6v-28
	C340.6,119.7,343.3,117,346.6,117z"/>
<path pointer-events="stroke" class="st1" d="M640.6,137h258.6"/>
<path pointer-events="all" class="st2" d="M904.5,137l-7,3.5l1.8-3.5l-1.8-3.5L904.5,137z"/>
<path pointer-events="all" class="st3" d="M526.6,117h108c3.3,0,6,2.7,6,6v28c0,3.3-2.7,6-6,6h-108c-3.3,0-6-2.7-6-6v-28
	C520.6,119.7,523.3,117,526.6,117z"/>
<path pointer-events="stroke" class="st1" d="M70.6,137h83.6"/>
<path pointer-events="all" class="st2" d="M159.5,137l-7,3.5l1.8-3.5l-1.8-3.5L159.5,137z"/>
<ellipse pointer-events="all" class="st4" cx="50.6" cy="137" rx="20" ry="20"/>
<rect x="785.6" y="697" pointer-events="all" class="st5" width="40" height="20"/>
<g transform="translate(-0.5 -0.5)">
	<text transform="matrix(1 0 0 1 791.615 711)" class="st6 st7">Ende</text>
</g>
<rect x="948.1" y="165" pointer-events="all" class="st5" width="40" height="20"/>
<g transform="translate(-0.5 -0.5)">
	<text transform="matrix(1 0 0 1 963.9578 179)" class="st6 st7">ja</text>
</g>
<rect x="1005.6" y="371" pointer-events="all" class="st5" width="40" height="20"/>
<g transform="translate(-0.5 -0.5)">
	<text transform="matrix(1 0 0 1 985.213 379.6563)" class="st6 st7">ja</text>
</g>
<path pointer-events="stroke" class="st1" d="M885.1,647H877"/>
<path pointer-events="all" class="st2" d="M871.7,647l7-3.5L877,647l1.8,3.5L871.7,647z"/>
<path pointer-events="all" class="st3" d="M891.1,627h108c3.3,0,6,2.7,6,6v28c0,3.3-2.7,6-6,6h-108c-3.3,0-6-2.7-6-6v-28
	C885.1,629.7,887.8,627,891.1,627z"/>
<path pointer-events="stroke" class="st1" d="M945.6,508v7.6"/>
<path pointer-events="all" class="st2" d="M945.6,520.9l-3.5-7l3.5,1.8l3.5-1.8L945.6,520.9z"/>
<path pointer-events="all" class="st3" d="M891.6,468h108c3.3,0,6,2.7,6,6v28c0,3.3-2.7,6-6,6h-108c-3.3,0-6-2.7-6-6v-28
	C885.6,470.7,888.3,468,891.6,468z"/>
<path pointer-events="stroke" class="st1" d="M750.6,647H737"/>
<path pointer-events="all" class="st2" d="M731.7,647l7-3.5L737,647l1.8,3.5L731.7,647z"/>
<path pointer-events="all" class="st3" d="M756.7,622.3h110.4c3.4,0,6.1,3.4,6.1,7.6v35.5c0,4.2-2.8,7.6-6.1,7.6H756.7
	c-3.4,0-6.1-3.4-6.1-7.6v-35.5C750.6,625.7,753.4,622.3,756.7,622.3z"/>
<path pointer-events="stroke" class="st1" d="M600.6,647h-9.1"/>
<path pointer-events="all" class="st2" d="M586.2,647l7-3.5l-1.8,3.5l1.8,3.5L586.2,647z"/>
<path pointer-events="all" class="st3" d="M608.8,612h111.1c5.9,0,10.7,4.7,10.7,10.5v49c0,5.8-4.8,10.5-10.7,10.5H608.8
	c-5.9,0-10.7-4.7-10.7-10.5v-49C598.1,616.7,602.9,612,608.8,612z"/>
<path pointer-events="stroke" class="st1" d="M945.6,277v27.6"/>
<path pointer-events="all" class="st2" d="M945.6,309.9l-3.5-7l3.5,1.8l3.5-1.8L945.6,309.9z"/>
<path pointer-events="all" class="st3" d="M887.9,207h113.7c6,0,11,4.7,11,10.5v49c0,5.8-4.9,10.5-11,10.5H887.9
	c-6,0-11-4.7-11-10.5v-49C876.9,211.7,881.8,207,887.9,207z"/>
<path pointer-events="stroke" class="st1" d="M740.6,351H707"/>
<path pointer-events="all" class="st2" d="M701.7,351l7-3.5L707,351l1.8,3.5L701.7,351z"/>
<path pointer-events="all" class="st3" d="M746.6,331h108c3.3,0,6,2.7,6,6v28c0,3.3-2.7,6-6,6h-108c-3.3,0-6-2.7-6-6v-28
	C740.6,333.7,743.3,331,746.6,331z"/>
<rect x="885.1" y="297" pointer-events="all" class="st5" width="40" height="20"/>
<g transform="translate(-0.5 -0.5)">
	<text transform="matrix(1 0 0 1 901.0924 314.5)" class="st6 st7">nein</text>
</g>
<path pointer-events="all" class="st8" d="M945.6,311l42.5,40l-42.5,40l-42.5-40L945.6,311z"/>
<rect x="916.9" y="340" pointer-events="all" class="st5" width="58.4" height="20"/>
<path pointer-events="stroke" class="st1" d="M455.1,647H437"/>
<path pointer-events="all" class="st2" d="M431.7,647l7-3.5L437,647l1.8,3.5L431.7,647z"/>
<path pointer-events="all" class="st3" d="M461.1,627h118c3.3,0,6,2.7,6,6v28c0,3.3-2.7,6-6,6h-118c-3.3,0-6-2.7-6-6v-28
	C455.1,629.7,457.8,627,461.1,627z"/>
<path pointer-events="stroke" class="st1" d="M570.6,351H544"/>
<path pointer-events="all" class="st2" d="M538.7,351l7-3.5L544,351l1.8,3.5L538.7,351z"/>
<path pointer-events="all" class="st3" d="M576.6,331h118c3.3,0,6,2.7,6,6v28c0,3.3-2.7,6-6,6h-118c-3.3,0-6-2.7-6-6v-28
	C570.6,333.7,573.3,331,576.6,331z"/>
<path pointer-events="stroke" class="st1" d="M225.6,607V163.4"/>
<path pointer-events="all" class="st2" d="M225.6,158.1l3.5,7l-3.5-1.8l-3.5,1.8L225.6,158.1z"/>
<path pointer-events="stroke" class="st1" d="M225.6,687l37.5,0.1v66.5h31.1"/>
<path pointer-events="all" class="st2" d="M299.5,753.5l-7,3.5l1.7-3.5l-1.8-3.5L299.5,753.5z"/>
<path pointer-events="all" class="st8" d="M225.6,607l50,40l-50,40l-50-40L225.6,607z"/>
<g transform="translate(-0.5 -0.5)">
	<text transform="matrix(1 0 0 1 206.28 649)" class="st6 st7">Level ?</text>
</g>
<rect x="220.6" y="687" pointer-events="all" class="st5" width="40" height="20"/>
<g transform="translate(-0.5 -0.5)">
	<text transform="matrix(1 0 0 1 232.1198 701)" class="st6 st7">&gt; 3</text>
</g>
<rect x="220.6" y="587" pointer-events="all" class="st5" width="40" height="20"/>
<g transform="translate(-0.5 -0.5)">
	<text transform="matrix(1 0 0 1 232.1198 601)" class="st6 st7">&lt; 3</text>
</g>
<path pointer-events="stroke" class="st1" d="M300.6,647H282"/>
<path pointer-events="all" class="st2" d="M276.7,647l7-3.5L282,647l1.8,3.5L276.7,647z"/>
<path pointer-events="all" class="st3" d="M308.1,622h115c4.1,0,7.5,3.4,7.5,7.5v35c0,4.1-3.4,7.5-7.5,7.5h-115
	c-4.1,0-7.5-3.4-7.5-7.5v-35C300.6,625.4,304,622,308.1,622z"/>
<path pointer-events="stroke" class="st1" d="M430.6,753.5h18.1"/>
<path pointer-events="all" class="st2" d="M454,753.5l-7,3.5l1.8-3.5L447,750L454,753.5z"/>
<path pointer-events="all" class="st3" d="M308.6,727h114.1c4.4,0,8,3.6,8,8v37c0,4.4-3.6,8-8,8H308.6c-4.4,0-8-3.6-8-8v-37
	C300.6,730.6,304.2,727,308.6,727z"/>
<path pointer-events="stroke" class="st1" d="M945.6,454v7.6"/>
<path pointer-events="all" class="st2" d="M945.6,466.9l-3.5-7l3.5,1.8l3.5-1.8L945.6,466.9z"/>
<path pointer-events="all" class="st3" d="M893.1,404h105c4.1,0,7.5,3.4,7.5,7.5v35c0,4.1-3.4,7.5-7.5,7.5h-105
	c-4.1,0-7.5-3.4-7.5-7.5v-35C885.6,407.4,889,404,893.1,404z"/>
<path pointer-events="stroke" class="st1" d="M1100.6,567H1002"/>
<path pointer-events="all" class="st2" d="M996.7,567l7-3.5l-1.8,3.5l1.8,3.5L996.7,567z"/>
<rect x="1100.6" y="547" pointer-events="all" class="st3" width="120" height="40"/>
<g transform="translate(-0.5 -0.5)">
	<text transform="matrix(1 0 0 1 1132.6228 571)" class="st6 st7">Maus klick</text>
</g>
<path pointer-events="stroke" class="st1" d="M945.6,612l-0.3,8.6"/>
<path pointer-events="all" class="st2" d="M945.2,625.9l-3.3-7.1l3.4,1.9l3.6-1.6L945.2,625.9z"/>
<path pointer-events="all" class="st8" d="M945.6,522l50,45l-50,45l-50-45L945.6,522z"/>
<path pointer-events="stroke" class="st1" d="M585.1,753.5h20h-24.5h13.5"/>
<path pointer-events="all" class="st2" d="M599.5,753.5l-7,3.5l1.8-3.5l-1.8-3.5L599.5,753.5z"/>
<path pointer-events="all" class="st3" d="M463.1,727h114.1c4.4,0,8,3.6,8,8v37c0,4.4-3.6,8-8,8H463.1c-4.4,0-8-3.6-8-8v-37
	C455.1,730.6,458.7,727,463.1,727z"/>
<path pointer-events="stroke" class="st1" d="M730.6,753.5h33.6"/>
<path pointer-events="all" class="st2" d="M769.5,753.5l-7,3.5l1.8-3.5l-1.8-3.5L769.5,753.5z"/>
<path pointer-events="all" class="st3" d="M608.6,727h114.1c4.4,0,8,3.6,8,8v37c0,4.4-3.6,8-8,8H608.6c-4.4,0-8-3.6-8-8v-37
	C600.6,730.6,604.2,727,608.6,727z"/>
<path pointer-events="stroke" class="st1" d="M437.6,351l-212,0.1V163.4"/>
<path pointer-events="all" class="st2" d="M225.6,158.1l3.5,7l-3.5-1.8l-3.5,1.8L225.6,158.1z"/>
<path pointer-events="all" class="st8" d="M487.6,311l50,40l-50,40l-50-40L487.6,311z"/>
<path pointer-events="stroke" class="st1" d="M487.6,47v257.6"/>
<path pointer-events="all" class="st2" d="M487.6,309.9l-3.5-7l3.5,1.8l3.5-1.8L487.6,309.9z"/>
<rect x="427.6" y="7" pointer-events="all" class="st3" width="120" height="40"/>
<g transform="translate(-0.5 -0.5)">
	<text transform="matrix(1 0 0 1 459.6228 31)" class="st6 st7">Maus klick</text>
</g>
<path pointer-events="all" class="st8" d="M945.6,97l40,40l-40,40l-40-40L945.6,97z"/>
<rect x="918.6" y="131" pointer-events="all" class="st5" width="55" height="11"/>
<rect x="973.6" y="106" pointer-events="all" class="st5" width="40" height="20"/>
<g transform="translate(-0.5 -0.5)">
	<text transform="matrix(1 0 0 1 982.2839 120)" class="st6 st7">nein</text>
</g>
<path pointer-events="stroke" class="st1" d="M1085.6,117l30,0.1v-50h-170v23.5"/>
<path pointer-events="all" class="st2" d="M945.6,95.9l-3.5-7l3.5,1.8l3.5-1.8L945.6,95.9z"/>
<path pointer-events="all" class="st3" d="M1026.6,117h118c3.3,0,6,2.7,6,6v28c0,3.3-2.7,6-6,6h-118c-3.3,0-6-2.7-6-6v-28
	C1020.6,119.7,1023.3,117,1026.6,117z"/>
<path pointer-events="stroke" class="st1" d="M290.6,137h43.6"/>
<path pointer-events="all" class="st2" d="M339.5,137l-7,3.5l1.8-3.5l-1.8-3.5L339.5,137z"/>
<path pointer-events="all" class="st3" d="M166.6,117h118c3.3,0,6,2.7,6,6v28c0,3.3-2.7,6-6,6h-118c-3.3,0-6-2.7-6-6v-28
	C160.6,119.7,163.3,117,166.6,117z"/>
<g transform="translate(-0.5 -0.5)">
	<rect x="160" y="125.2" class="st5" width="131.1" height="26.2"/>
	<text transform="matrix(1 0 0 1 192.2258 134.2129)" class="st6 st7">alle Buttons</text>
	<text transform="matrix(1 0 0 1 190.5258 148.6129)" class="st6 st7">deaktivieren</text>
</g>
<g transform="translate(-0.5 -0.5)">
	<rect x="340" y="124.4" class="st5" width="121.1" height="26.2"/>
	<text transform="matrix(1 0 0 1 344.216 133.3937)" class="st6 st7">Zufällige Handfarbe </text>
	<text transform="matrix(1 0 0 1 367.216 147.7937)" class="st6 st7">bestimmten</text>
</g>
<g transform="translate(-0.5 -0.5)">
	<rect x="520" y="124.4" class="st5" width="121.1" height="26.2"/>
	<text transform="matrix(1 0 0 1 547.892 133.3937)" class="st6 st7">Virus mittig</text>
	<text transform="matrix(1 0 0 1 552.192 147.7937)" class="st6 st7">platzieren</text>
</g>
<g transform="translate(-0.5 -0.5)">
	<rect x="1021.1" y="124.4" class="st5" width="130" height="26.2"/>
	<text transform="matrix(1 0 0 1 1052.786 133.3937)" class="st6 st7">alle Buttons</text>
	<text transform="matrix(1 0 0 1 1051.0861 147.7937)" class="st6 st7">deaktivieren</text>
</g>
<g transform="translate(-0.5 -0.5)">
	<rect x="880.6" y="228.8" class="st5" width="130" height="26.2"/>
	<text transform="matrix(1 0 0 1 880.8887 237.8337)" class="st6 st7">Animationsreihenfolge </text>
	<text transform="matrix(1 0 0 1 902.1887 252.2337)" class="st6 st7">wird abgespielt </text>
</g>
<g transform="translate(-0.5 -0.5)">
	<rect x="904.2" y="337.4" class="st5" width="83.9" height="26.2"/>
	<text transform="matrix(1 0 0 1 932.1238 346.3937)" class="st6 st7">Virus</text>
	<text transform="matrix(1 0 0 1 925.4237 360.7937)" class="st6 st7">sicher ? </text>
</g>
<g transform="translate(-0.5 -0.5)">
	<rect x="906.1" y="124.4" class="st5" width="78.9" height="26.2"/>
	<text transform="matrix(1 0 0 1 920.5598 133.3932)" class="st6 st7">Virus auf </text>
	<text transform="matrix(1 0 0 1 930.5598 147.7932)" class="st6 st7">Hand</text>
</g>
<path pointer-events="stroke" class="st1" d="M945.6,177v23.6"/>
<path pointer-events="all" class="st2" d="M945.6,205.9l-3.5-7l3.5,1.8l3.5-1.8L945.6,205.9z"/>
<path pointer-events="stroke" class="st1" d="M985.6,137h28.6"/>
<path pointer-events="all" class="st2" d="M1019.5,137l-7,3.5l1.8-3.5l-1.8-3.5L1019.5,137z"/>
<path pointer-events="stroke" class="st1" d="M225.6,157L225.6,157"/>
<path pointer-events="all" class="st2" d="M225.6,157L225.6,157L225.6,157L225.6,157z"/>
<path pointer-events="stroke" class="st1" d="M945.6,391v6.6"/>
<path pointer-events="all" class="st2" d="M945.6,402.9l-3.5-7l3.5,1.8l3.5-1.8L945.6,402.9z"/>
<ellipse pointer-events="all" class="st0" cx="805.6" cy="753.5" rx="35" ry="35"/>
<ellipse pointer-events="all" class="st4" cx="805.6" cy="753.5" rx="27.8" ry="27.8"/>
<path pointer-events="stroke" class="st1" d="M903.1,351H867"/>
<path pointer-events="all" class="st2" d="M861.7,351l7-3.5L867,351l1.8,3.5L861.7,351z"/>
<rect x="30.6" y="97" pointer-events="all" class="st5" width="40" height="20"/>
<g transform="translate(-0.5 -0.5)">
	<text transform="matrix(1 0 0 1 37.9568 111)" class="st6 st7">Start</text>
</g>
<rect x="886.6" y="414.7" class="st5" width="118.1" height="29.3"/>
<text transform="matrix(1 0 0 1 889.6185 423.7414)" class="st6 st7">Hand mit Virus wird </text>
<text transform="matrix(1 0 0 1 891.9185 438.1414)" class="st6 st7">nochmal angezeigt</text>
<rect x="887.1" y="475.7" class="st5" width="118.1" height="24.5"/>
<text transform="matrix(1 0 0 1 907.8184 484.7424)" class="st6 st7">Weiterbutton</text>
<text transform="matrix(1 0 0 1 922.8184 499.1424)" class="st6 st7">aktiviert</text>
<rect x="741.6" y="338.8" class="st5" width="118.1" height="24.5"/>
<text transform="matrix(1 0 0 1 752.2922 347.7598)" class="st6 st7">Retrybutton wird </text>
<text transform="matrix(1 0 0 1 777.2922 362.1598)" class="st6 st7">aktiviert</text>
<rect x="570.6" y="338.8" class="st5" width="128.6" height="24.5"/>
<text transform="matrix(1 0 0 1 576.2513 347.7589)" class="st6 st7">Text des Mentorvirus </text>
<text transform="matrix(1 0 0 1 592.5513 362.1589)" class="st6 st7">wird angepasst</text>
<rect x="444.3" y="328.9" class="st5" width="86.7" height="40.6"/>
<text transform="matrix(1 0 0 1 465.9561 337.8584)" class="st6 st7">auf den </text>
<text transform="matrix(1 0 0 1 453.6561 352.2584)" class="st6 st7">Retrybutton </text>
<text transform="matrix(1 0 0 1 465.6561 366.6584)" class="st6 st7">geklickt</text>
<rect x="888.8" y="555.2" class="st5" width="118.1" height="29.3"/>
<text transform="matrix(1 0 0 1 909.5583 564.1874)" class="st6 st7">Weiterbutton </text>
<text transform="matrix(1 0 0 1 914.2584 578.5874)" class="st6 st7">angeklickt ? </text>
<rect x="885.1" y="634.4" class="st5" width="118.1" height="29.3"/>
<text transform="matrix(1 0 0 1 899.8416 643.3624)" class="st6 st7">Level wird um 1 </text>
<text transform="matrix(1 0 0 1 925.1416 657.7625)" class="st6 st7">erhöht</text>
<rect x="455.1" y="633.1" class="st5" width="129.2" height="29.3"/>
<text transform="matrix(1 0 0 1 461.054 642.0612)" class="st6 st7">Text des Mentorvirus </text>
<text transform="matrix(1 0 0 1 477.354 656.4612)" class="st6 st7">wird angepasst</text>
<rect x="301" y="628.6" class="st5" width="129.2" height="43.4"/>
<text transform="matrix(1 0 0 1 302.2796 637.6433)" class="st6 st7">Position des Virus wird </text>
<text transform="matrix(1 0 0 1 319.5796 652.0433)" class="st6 st7">für die Heatmap </text>
<text transform="matrix(1 0 0 1 333.2796 666.4433)" class="st6 st7">gespeichert</text>
<rect x="301.4" y="731.9" class="st5" width="129.2" height="43.4"/>
<text transform="matrix(1 0 0 1 317.0072 740.8615)" class="st6 st7">Heatmap mit den </text>
<text transform="matrix(1 0 0 1 309.0072 755.2615)" class="st6 st7">Positionen der Viren </text>
<text transform="matrix(1 0 0 1 323.7072 769.6615)" class="st6 st7">wird angezeigt</text>
<rect x="455.5" y="740.9" class="st5" width="129.2" height="24.9"/>
<text transform="matrix(1 0 0 1 461.4476 749.9045)" class="st6 st7">Weiterbutton für die </text>
<text transform="matrix(1 0 0 1 469.1476 764.3044)" class="st6 st7">Karte konfiguriert</text>
<rect x="601" y="749" class="st5" width="129.2" height="12.6"/>
<text transform="matrix(1 0 0 1 602.9999 758.001)" class="st6 st7">Weiterbutton aktiviert</text>
<rect x="751.6" y="627" class="st5" width="118.1" height="38.4"/>
<text transform="matrix(1 0 0 1 762.9456 635.9997)" class="st6 st7">Gebiet, in das der </text>
<text transform="matrix(1 0 0 1 751.6456 650.3997)" class="st6 st7">Virus platziert wurde, </text>
<text transform="matrix(1 0 0 1 762.6456 664.7997)" class="st6 st7">wird deakätiviert</text>
<rect x="598.6" y="619.6" class="st5" width="131.1" height="57.7"/>
<text transform="matrix(1 0 0 1 607.5066 628.646)" class="st6 st7">Passende Animation </text>
<text transform="matrix(1 0 0 1 634.2066 643.046)" class="st6 st7">wird in die </text>
<text transform="matrix(1 0 0 1 599.5066 657.446)" class="st6 st7">Animationsreihenfolge </text>
<text transform="matrix(1 0 0 1 622.8066 671.846)" class="st6 st7">aufgenommen</text>
</svg>
