<svg xmlns="http://www.w3.org/2000/svg" viewBox="0 0 81.79 76.92"><defs><style>.cls-1{fill:#ad56c7;}.cls-2{fill:#713a80;}.cls-3{fill:#ffceb5;}.cls-4{fill:#824d3c;}.cls-5{fill:#ff5063;}.cls-6{fill:#4d2517;}.cls-7{fill:#e9b8a0;}.cls-8{fill:#adecf7;}.cls-9{fill:#ffdfd0;}.cls-10{fill:#805344;}.cls-11{fill:#2a5562;}.cls-12{fill:#729da8;}.cls-13{fill:none;stroke:#1a1a1a;stroke-linecap:round;stroke-miterlimit:10;stroke-width:0.66px;}</style></defs><g id="Ebene_2" data-name="Ebene 2"><g id="Ebene_5" data-name="Ebene 5"><rect class="cls-1" x="4.43" y="31.08" width="28.26" height="45.84" rx="12.06" transform="translate(37.12 108.01) rotate(-180)"/><rect class="cls-2" x="4.35" y="62.17" width="28.26" height="14.76" rx="6.3"/><rect class="cls-1" x="4.38" y="51.8" width="28.26" height="16.33"/><ellipse class="cls-3" cx="18.47" cy="18.83" rx="11.89" ry="13.6"/><path class="cls-4" d="M16,16.51q1.22,0,2.43,0c4.16,0,8.21-.19,12.11-.55C30.23,9.55,24.92,5,18.47,4.43,8.68,3.58,3.16,17.16,7.48,24.9c1.71.28,9.44-7.66,10.05-8.47"/><path class="cls-4" d="M14.1,16.47h.19"/><path class="cls-4" d="M12.29,16.4h.28"/><ellipse class="cls-5" cx="13.39" cy="9.04" rx="1.63" ry="2" transform="translate(-0.29 0.44) rotate(-1.86)"/><ellipse class="cls-5" cx="16.65" cy="8.86" rx="1.63" ry="2" transform="translate(-0.28 0.55) rotate(-1.86)"/><path class="cls-6" d="M13.25,2.48a7.62,7.62,0,0,1,2,6.13A7.67,7.67,0,0,0,5,8.66a7.46,7.46,0,0,0-2.38,4.62,7.4,7.4,0,0,1-.57-.55A7.56,7.56,0,0,1,2.43,2,7.7,7.7,0,0,1,13.25,2.48Z"/><ellipse class="cls-7" cx="18.59" cy="19.26" rx="2.32" ry="3.32"/><rect class="cls-8" x="52.42" y="30.05" width="29.08" height="46.88" rx="12.41" transform="translate(133.92 106.97) rotate(180)"/><ellipse class="cls-9" cx="68.27" cy="18.34" rx="12.97" ry="13.45"/><path class="cls-10" d="M62.56,15.64c.78,0,1.56.09,2.35.12"/><path class="cls-10" d="M66,15.8c.76,0,1.51,0,2.27,0,4.38,0,7.89,8.24,11.9,7.6,3.43-7.85-1-20-11.86-19.45C61,4.38,56.89,8.19,55.6,14.78c1.21.19,2.54.44,3.78.58"/><path class="cls-11" d="M69.64,2.41c-.12.48.56,1,1.51,1.21s1.82-.07,1.94-.56-.56-1-1.52-1.21S69.76,1.92,69.64,2.41Z"/><path class="cls-12" d="M69.08,12.27c-3.83-.73-7.53-1.61-11-2.61a.62.62,0,0,1-.48-.85c2.38-4.53,8-7.17,13.79-6.08s9.72,5.56,9.82,10.56a.69.69,0,0,1-.82.61C76.69,13.54,72.92,13,69.08,12.27Z"/><path class="cls-8" d="M75.4,13.31q-3.12-.44-6.32-1c-2.13-.4-4.21-.86-6.24-1.35.4-4.26,2.16-9.4,8.52-8.19S77,9.27,75.4,13.31Z"/><path class="cls-11" d="M57.49,8.66A.55.55,0,0,0,57,9a.45.45,0,0,0,.23.6c1.28.41,13.31,3.12,17.11,3.71l.7.09c1.9.19,5.42.66,6.27.62l.14,0h0l.05-.05,0,0,0-.05,0,0,0-.05.06-.09a.8.8,0,0,0,.07-.2.25.25,0,0,0,0-.07s0-.1,0-.18v-.12s0,0,0-.06l0-.06C81.53,12.85,59.08,8.46,57.49,8.66Z"/><ellipse class="cls-7" cx="69.19" cy="19.22" rx="2.53" ry="3.57"/><rect class="cls-12" x="52.34" y="61.83" width="29.08" height="15.09" rx="6.44"/><rect class="cls-8" x="52.37" y="51.24" width="29.08" height="16.7"/><line class="cls-13" x1="32.59" y1="25.64" x2="36.46" y2="26.56"/><line class="cls-13" x1="31.85" y1="23.97" x2="35.83" y2="23.86"/><line class="cls-13" x1="34.67" y1="28.73" x2="31.17" y2="26.84"/><line class="cls-13" x1="50.27" y1="25.64" x2="46.4" y2="26.56"/><line class="cls-13" x1="51.01" y1="23.97" x2="47.03" y2="23.86"/><line class="cls-13" x1="48.19" y1="28.73" x2="51.69" y2="26.84"/></g></g></svg>