<?xml version="1.0" encoding="utf-8"?>
<!-- Generator: Adobe Illustrator 24.2.1, SVG Export Plug-In . SVG Version: 6.00 Build 0)  -->
<svg version="1.1" id="Ebene_1" xmlns="http://www.w3.org/2000/svg" xmlns:xlink="http://www.w3.org/1999/xlink" x="0px" y="0px"
	 viewBox="0 0 361.6 197.5" style="enable-background:new 0 0 361.6 197.5;" xml:space="preserve">
<style type="text/css">
	.st0{fill:#B761CF;}
	.st1{fill:#D9AFE8;}
	.st2{fill:#79C6F2;}
	.st3{fill:#3A3E71;}
	.st4{fill:#FFFFFF;}
	.st5{fill:#6684C0;}
	.st6{fill:#AAC95B;}
	.st7{fill:#EAFFA9;}
	.st8{fill:#3A5095;}
	.st9{fill:#C95843;}
</style>
<g id="OBJECTS">
	<path class="st0" d="M42.4,145.6c0-11.7-9.5-21.2-21.2-21.2S0,133.9,0,145.6c0,6.5,2.9,12.6,8,16.6l-3.9,7.6h2.4l4.9-5.3
		c6.2,3.3,13.7,3.2,19.9-0.1l5,5.5h2.4l-4-7.8C39.5,157.9,42.4,151.9,42.4,145.6z"/>
	<circle class="st1" cx="21.2" cy="146" r="17.2"/>
	<path class="st0" d="M31.7,147.5H20.3l-5.9-11.8c-0.4-0.7-0.1-1.6,0.7-2c0.7-0.4,1.6-0.1,2,0.7l5.1,10.2h9.6c0.8,0,1.5,0.7,1.5,1.5
		S32.5,147.5,31.7,147.5z"/>
	<path class="st2" d="M36.9,94.1L33,95.2l-1.2-5.5c-0.2-0.9,0.3-1.8,1.2-2l0,0c0.8-0.2,1.7,0.3,2,1.1L36.9,94.1z"/>
	<path class="st3" d="M54.2,166.6c0.6,2,1.2,3.5,1.5,3.4s0.1-1.7-0.4-3.7L54.2,166.6z"/>
	<path class="st4" d="M56.6,158.1c-1.7-3.9-3.1-7.9-4.3-12L37,90.8l-5.9,1.6l15.3,55.3c1.1,4.1,2,8.3,2.5,12.5l0.2,1.3
		c0,0.2,0.1,0.4,0.2,0.5l4.9,6.2c0.3,0.3,0.7,0.5,1.2,0.4l0,0c0.4-0.1,0.7-0.5,0.8-0.9l1-7.8c0-0.2,0-0.4-0.1-0.6L56.6,158.1z"/>
	<rect x="35.3" y="91" transform="matrix(0.9639 -0.2662 0.2662 0.9639 -27.0857 14.0679)" class="st3" width="6.1" height="31.9"/>
	<polygon class="st4" points="50.4,163.5 57,161.7 57.1,160.5 49.7,162.6 	"/>
	
		<rect x="47.7" y="135.6" transform="matrix(0.9627 -0.2707 0.2707 0.9627 -36.7658 18.5315)" class="st5" width="2.2" height="13.9"/>
	<rect x="48.6" y="142.3" transform="matrix(0.9627 -0.2707 0.2707 0.9627 -37.6114 18.8958)" class="st4" width="2.2" height="7"/>
	
		<rect x="39.5" y="121.8" transform="matrix(0.9639 -0.2662 0.2662 0.9639 -31.0337 15.7406)" class="st5" width="6.1" height="1.1"/>
	
		<rect x="31.5" y="92.9" transform="matrix(0.9639 -0.2662 0.2662 0.9639 -23.6296 12.5686)" class="st5" width="6.1" height="1.1"/>
	<polygon class="st0" points="50.3,89.8 55.3,158 58.3,155.1 53.5,89.6 	"/>
	<polygon class="st0" points="47.2,90.1 52,155.6 55.3,157.5 50.3,89.8 	"/>
	<path class="st4" d="M56.5,156.1c-0.4-0.7-1.3-1-2-0.6c-0.3,0.2-0.6,0.5-0.7,0.8c-0.4-0.6-1.2-0.9-1.9-0.8l2.4,6.4l2.5-0.2l1.5-6.7
		C57.6,155.1,56.9,155.5,56.5,156.1z"/>
	<path class="st3" d="M55.6,161.8c-0.4,0-0.8,0.1-1.2,0.2l1.2,3.3c0,0.1,0.1,0.2,0.3,0.2l0,0c0.1,0,0.2-0.1,0.2-0.2l0.7-3.4
		C56.4,161.8,56,161.8,55.6,161.8z"/>
	
		<rect x="47.1" y="87.6" transform="matrix(0.9973 -7.306810e-02 7.306810e-02 0.9973 -6.3465 3.9123)" class="st4" width="6.4" height="2.2"/>
	<path class="st2" d="M51.3,82.3l-3,0.2c-0.9,0.1-1.6,0.9-1.6,1.8l0,0l0.3,3.6l6.4-0.5l-0.3-3.6C53,82.9,52.2,82.2,51.3,82.3z"/>
	<polygon class="st6" points="61,88 62.5,156.2 65.6,153.6 64.2,87.9 	"/>
	<polygon class="st6" points="57.8,88 59.2,153.7 62.5,155.8 61,88 	"/>
	<path class="st4" d="M63.8,154.5c-0.3-0.5-0.8-0.8-1.4-0.9c-0.6,0.1-1.1,0.4-1.3,0.9c-0.4-0.6-1.1-0.9-1.9-0.9l2.1,6.5l2.5-0.1
		l1.8-6.6C64.9,153.5,64.2,153.9,63.8,154.5z"/>
	<path class="st3" d="M62.5,160.1c-0.4,0-0.8,0.1-1.2,0.1l1.1,3.3c0,0.1,0.1,0.2,0.3,0.2l0,0c0.1,0,0.2-0.1,0.2-0.2l0.9-3.4
		C63.4,160.1,63,160.1,62.5,160.1z"/>
	
		<rect x="57.8" y="85.7" transform="matrix(0.9998 -2.146460e-02 2.146460e-02 0.9998 -1.8491 1.3294)" class="st4" width="6.4" height="2.2"/>
	<path class="st2" d="M62.3,80.4l-3,0.1c-0.9,0-1.7,0.8-1.7,1.7l0,0l0.1,3.6l6.4-0.1L64,82.1C64,81.2,63.3,80.4,62.3,80.4z"/>
	<path class="st2" d="M33.7,119.8H72l0,0v49.8c0,1.6-1.3,2.9-2.9,2.9H36.6c-1.6,0-2.9-1.3-2.9-2.9C33.7,169.6,33.7,119.8,33.7,119.8
		z"/>
	<path class="st6" d="M325.4,81.7c0.6,8.1-3.6,15.9-10.9,19.7c-4.4,2.6-9.6,1.8-14,0c-3.2-1.6-5.9-4-7.9-7
		c-2.6-5.3-4.4-9.6-3.5-15.8c0.9-4.4,1.8-8.8,5.3-11.4c3.5-3.5,8.2-5.4,13.1-5.3c2.6,0,4.4,0.9,7,1.8c4.4,2.6,7.9,6.1,9.4,10.2
		C324.9,76.3,325.4,79,325.4,81.7z"/>
	<path class="st7" d="M320.6,82.2c0,8.6-2.6,20-13.1,20.9c-4.1,0-7.9-2.4-9.6-6.1c-0.9-3.5-2.6-6.1-3.5-9.6c0-5.3-0.9-11.4,1.8-16.7
		c0.8-1.9,2-3.7,3.5-5.3c1.8-2.6,5.3-2.6,7.9-3.5c1.9,0.2,3.7,0.8,5.3,1.8c3.5,2.6,5.3,7,6.8,10.5C320.3,76.8,320.6,79.5,320.6,82.2
		z"/>
	<path class="st6" d="M315.7,82.6c-0.3,7.3-0.3,20.5-7.3,18.8c-13.1-3.5-14-33.3-0.9-38.6c4.4-1.8,6.1,7,7.5,11.6
		C315.5,77.1,315.7,79.9,315.7,82.6z"/>
	<path class="st7" d="M311.5,82.8c-0.5,7.1,0.4,14.2-4,20.3c-6.1-12.3-6.1-28.9,0-41.2c2.6,3.5,3.5,7.9,3.6,12.6
		C311.3,77.1,311.5,79.9,311.5,82.8z"/>
	<path class="st5" d="M286.2,98.6L295,128c0,0,3.5,2.6,11.2,2.8c4.5,0.1,9-0.5,13.3-1.8l9.8-29.4L286.2,98.6z"/>
	<path class="st8" d="M285.8,94.8h43.6c1,0,1.8,0.8,1.8,1.8v8.3c0,1-0.8,1.8-1.8,1.8h-43.6c-1,0-1.8-0.8-1.8-1.8v-8.3
		C284,95.5,284.8,94.8,285.8,94.8z"/>
	<path class="st2" d="M358.7,156.7c-0.1,0-0.3,0-0.3,0.1v-0.5h-102c-1.6,0-2.9,3.9-2.9,8.5s1.3,8.5,2.9,8.5h102v-0.1
		c0,0,0.1,0.1,0.3,0.1c1.6,0,2.9-3.7,2.9-8.3S360.3,156.7,358.7,156.7z"/>
	<path class="st5" d="M354.3,159.1h-19.6c0.9,1.1,1.2,3.8,1.2,6.6s-0.3,4.9-1.2,6.6h19.6c1,0,1.8-3,1.8-6.6S355.3,159.1,354.3,159.1
		z"/>
	<path class="st5" d="M260.4,165.3c-0.1-2.3,0.4-4.6,1.3-6.8h-3.6c-1,0-1.8,3-1.8,6.6s0.8,6.6,1.8,6.6h3.5
		C260.7,169.6,260.4,167.5,260.4,165.3z"/>
	<path class="st0" d="M349.4,141.5c-0.1,0-0.5-0.1-0.5-0.1h-80.8c-1.3,0-2.3,3.2-2.3,7.4s1,7.4,2.3,7.4h81v0.3c0,0,0.3,0.1,0.4,0.1
		c1.3,0,2.2-3.4,2.2-7.7S350.6,141.5,349.4,141.5z"/>
	<path class="st0" d="M349.4,141.5h-81.2c-1.3,0-2.3,3.3-2.3,7.1h85.8C351.7,144.8,350.6,141.5,349.4,141.5z"/>
	<path class="st9" d="M270.5,149.1c-0.1-2.2,0.4-4.5,1.4-6.5h-1.6c-1,0-1.8,3-1.8,6.6s0.8,6.6,1.8,6.6h1.7
		C271.2,154.6,270.5,152,270.5,149.1z"/>
	<rect x="305.7" y="145.9" class="st1" width="40.6" height="3.3"/>
	<path class="st6" d="M336,126.3L336,126.3l-0.1,0.3h-60.4v-0.2c-1.6,0-1.9,3.4-1.9,7.5s0.3,7.4,1.9,7.5v0.2H336v-0.2h0.1
		c1.1,0,1.9-3.4,1.9-7.5S337.1,126.3,336,126.3z"/>
	<path class="st2" d="M200.4,168.3c-3.6-5.2-3.9-12.2-3.9-12.2h-23.7c0,0-0.3,7-3.9,12.2s-11,8.4-11,8.4h53.6
		C211.4,176.7,204,173.5,200.4,168.3z"/>
	<path class="st2" d="M74.6,0H294c4.3,0,7.8,3.5,7.8,7.8v144.5c0,4.3-3.5,7.8-7.8,7.8H74.6c-4.3,0-7.8-3.5-7.8-7.8V7.8
		C66.8,3.5,70.3,0,74.6,0z"/>
	<path class="st5" d="M66.8,137.9v14.4c0,4.3,3.5,7.8,7.8,7.8l0,0H294c4.3,0,7.8-3.5,7.8-7.8v-14.4H66.8z"/>
	<path class="st5" d="M156.8,173.3H213c0.5,0,0.9,0.4,0.9,0.9v4.3c0,0.5-0.4,0.9-0.9,0.9h-56.2c-0.5,0-0.9-0.4-0.9-0.9v-4.3
		C155.9,173.7,156.3,173.3,156.8,173.3z"/>
	<path class="st3" d="M78.8,7.8h210.4c1.9,0,3.4,1.5,3.4,3.4v115.1c0,1.9-1.5,3.4-3.4,3.4H78.8c-1.9,0-3.4-1.5-3.4-3.4V11.2
		C75.3,9.3,76.9,7.8,78.8,7.8z"/>
	<path class="st4" d="M87.2,16.7c-2,0-3.6,1.6-3.6,3.6v96.6c0,2.2,1.5,3.9,3.4,3.9l0,0h195.7c1.9,0,3.4-1.7,3.4-3.9l0,0V20.3
		c0-2-1.6-3.6-3.6-3.6H87.2z"/>
	<polygon class="st2" points="113.1,184 249.2,184 271.4,194.6 88,194.6 	"/>
	<rect x="88" y="194.6" class="st2" width="183.4" height="2.9"/>
	<path class="st3" d="M183.9,142h1.2c3.1,0,5.6,2.5,5.6,5.6v1.2c0,3.1-2.5,5.6-5.6,5.6h-1.2c-3.1,0-5.6-2.5-5.6-5.6v-1.2
		C178.2,144.5,180.8,142,183.9,142z"/>
	<polygon class="st5" points="128.8,187.9 121.8,187.9 126.3,185.9 132.8,185.9 	"/>
	<polygon class="st5" points="120.2,187.9 113.2,187.9 118.5,185.9 124.9,185.9 	"/>
	<polygon class="st5" points="145.9,187.9 138.9,187.9 142,185.9 148.5,185.9 	"/>
	<polygon class="st5" points="137.3,187.9 130.3,187.9 134.2,185.9 140.6,185.9 	"/>
	<polygon class="st5" points="163.1,187.9 156.1,187.9 157.9,185.9 164.3,185.9 	"/>
	<polygon class="st5" points="154.5,187.9 147.5,187.9 150,185.9 156.4,185.9 	"/>
	<polygon class="st5" points="180.2,187.9 173.2,187.9 173.6,185.9 180,185.9 	"/>
	<polygon class="st5" points="171.6,187.9 164.6,187.9 165.7,185.9 172.1,185.9 	"/>
	<polygon class="st5" points="197.3,187.9 190.3,187.9 189.3,185.9 195.8,185.9 	"/>
	<polygon class="st5" points="188.8,187.9 181.8,187.9 181.5,185.9 187.9,185.9 	"/>
	<polygon class="st5" points="214.4,188 207.4,188 205,185.9 211.5,185.9 	"/>
	<polygon class="st5" points="205.9,188 198.9,187.9 197.2,185.9 203.6,185.9 	"/>
	<polygon class="st5" points="231.6,188 224.6,188 220.9,185.9 227.3,185.9 	"/>
	<polygon class="st5" points="223.1,188 216.1,188 213,185.9 219.4,185.9 	"/>
	<polygon class="st5" points="248.7,188 241.7,188 236.6,185.9 243,185.9 	"/>
	<polygon class="st5" points="240.2,188 233.2,188 228.7,185.9 235.2,185.9 	"/>
	<polygon class="st5" points="124.2,190.3 116.6,190.3 121.1,188.3 128.2,188.3 	"/>
	<polygon class="st5" points="114.9,190.3 107.2,190.2 112.4,188.3 119.5,188.3 	"/>
	<polygon class="st5" points="143,190.3 135.3,190.3 138.5,188.3 145.6,188.3 	"/>
	<polygon class="st5" points="133.6,190.3 125.9,190.3 129.8,188.3 136.9,188.3 	"/>
	<polygon class="st5" points="161.9,190.4 154.2,190.3 156,188.3 163.1,188.3 	"/>
	<polygon class="st5" points="152.5,190.3 144.8,190.3 147.3,188.3 154.4,188.3 	"/>
	<polygon class="st5" points="180.6,190.4 172.9,190.4 173.3,188.3 180.4,188.4 	"/>
	<polygon class="st5" points="171.3,190.4 163.6,190.4 164.6,188.3 171.8,188.3 	"/>
	<polygon class="st5" points="199.4,190.4 191.8,190.4 190.8,188.4 197.9,188.4 	"/>
	<polygon class="st5" points="190.1,190.4 182.4,190.4 182.1,188.4 189.2,188.4 	"/>
	<polygon class="st5" points="218.2,190.4 210.5,190.4 208.1,188.4 215.2,188.4 	"/>
	<polygon class="st5" points="208.8,190.4 201.1,190.4 199.4,188.4 206.6,188.4 	"/>
	<polygon class="st5" points="237.1,190.5 229.4,190.5 225.6,188.4 232.7,188.4 	"/>
	<polygon class="st5" points="227.7,190.5 220,190.4 216.9,188.4 224.1,188.4 	"/>
	<polygon class="st5" points="255.8,190.5 248.1,190.5 243,188.4 250.1,188.4 	"/>
	<polygon class="st5" points="246.4,190.5 238.8,190.5 234.3,188.4 241.4,188.4 	"/>
	<polygon class="st5" points="119.6,192.6 111.3,192.6 115.8,190.6 123.6,190.6 	"/>
	<polygon class="st5" points="109.4,192.6 101.1,192.6 106.3,190.6 114.1,190.6 	"/>
	<polygon class="st5" points="140,192.7 131.6,192.6 134.8,190.6 142.6,190.7 	"/>
	<polygon class="st5" points="129.8,192.6 121.4,192.6 125.3,190.6 133.1,190.6 	"/>
	<polygon class="st5" points="180.6,192.8 152.1,192.7 153.9,190.7 180.4,190.7 	"/>
	<polygon class="st5" points="150.3,192.7 142,192.7 144.4,190.7 152.2,190.7 	"/>
	<polygon class="st5" points="201.3,192.8 192.9,192.8 191.9,190.8 199.7,190.8 	"/>
	<polygon class="st5" points="191.1,192.8 182.8,192.8 182.4,190.7 190.2,190.8 	"/>
	<polygon class="st5" points="221.6,192.9 213.3,192.9 210.9,190.8 218.7,190.8 	"/>
	<polygon class="st5" points="211.5,192.9 203.1,192.8 201.4,190.8 209.2,190.8 	"/>
	<polygon class="st5" points="242.1,192.9 233.8,192.9 230,190.8 237.8,190.8 	"/>
	<polygon class="st5" points="232,192.9 223.6,192.9 220.5,190.8 228.3,190.8 	"/>
	<polygon class="st5" points="262.5,193 254.2,192.9 249,190.9 256.8,190.9 	"/>
	<polygon class="st5" points="252.3,192.9 244,192.9 239.5,190.8 247.3,190.9 	"/>
</g>
</svg>
