<svg xmlns="http://www.w3.org/2000/svg" viewBox="0 0 55 132"><defs><style>.cls-1{fill:#fbb03b;}.cls-2{fill:#ffd685;}.cls-3{fill:#924929;}.cls-4{fill:#ffd5be;}.cls-5,.cls-6{fill:#fca39a;}.cls-5{opacity:0.51;}.cls-6{opacity:0.49;}.cls-7{fill:#9e5147;}.cls-8{fill:#fff;}.cls-9{fill:#002030;}.cls-10{fill:#19313a;}</style></defs><g id="Diandra"><path class="cls-1" d="M36.68,60.79a234.49,234.49,0,0,1,7.6,31.27"/><path class="cls-1" d="M35.23,61.19a234.41,234.41,0,0,1,7.61,31.27c.34,1.89,3.23,1.09,2.89-.8a234.78,234.78,0,0,0-7.61-31.27c-.59-1.82-3.49-1-2.89.8Z"/><path class="cls-1" d="M9.22,89.83a196.22,196.22,0,0,1,6.81-32"/><path class="cls-1" d="M10.72,89.83a194.79,194.79,0,0,1,6.75-31.57c.55-1.85-2.35-2.65-2.89-.8A199,199,0,0,0,7.72,89.83c-.23,1.92,2.77,1.9,3,0Z"/><path class="cls-1" d="M18.23,127.54c-2.58-.81-5-.5-6,.43a3.46,3.46,0,0,0-1,1.71,2.32,2.32,0,0,0,0,.86c.38,1.44,10.14.93,11.42.86a9.25,9.25,0,0,0,0-1.29,10.39,10.39,0,0,0-.49-2.57Z"/><polygon class="cls-2" points="22.67 102.12 22.33 127.66 18.95 127.66 18.95 102.12 22.67 102.12"/><path class="cls-1" d="M35.36,127.54c2.58-.81,5-.5,6,.43a3.43,3.43,0,0,1,1,1.71,2.32,2.32,0,0,1,0,.86c-.39,1.44-10.15.93-11.43.86a11.09,11.09,0,0,1,0-1.29,10.84,10.84,0,0,1,.5-2.57Z"/><polygon class="cls-2" points="30.92 102.12 31.26 127.66 34.65 127.66 34.65 102.12 30.92 102.12"/><path class="cls-3" d="M48.69,60.7a3.57,3.57,0,0,1-2.41.29c-4.66-.15-4.82-4.06-3.16-7.11A13.85,13.85,0,0,0,44.78,43a50,50,0,0,0-2.52-8.35,22.11,22.11,0,0,0-1.06-2.51c-.54-1.19-1.12-2.35-1.73-3.46A18.6,18.6,0,0,0,35,22.35c-2.68-2.28-6.7-2.65-10.32-2.16a22.69,22.69,0,0,0-3,.63c-2.24.63-4.42,1.08-6.31,2.48a8.89,8.89,0,0,0-3,4.63,85.26,85.26,0,0,0-1.91,8.69c-.46,2.9-1.34,8.12-1,11.17a24.93,24.93,0,0,0,2.41,8.7c.75,1.74,2,2.61.9,4.5-.9,1.45-2.71,2.32-4.21,3.19a3.82,3.82,0,0,0,5.42.87c.75,2.9,4.81.43,6.77.58a75.75,75.75,0,0,1,8.13,1.16c1.66.29,2.56.87,4.21.58s2.26-1.74,3.47-2c.75-.15,2.86.87,3.76,1a12.65,12.65,0,0,0,4.07-.14,30.79,30.79,0,0,0-1.51-3C44.93,64.61,50.2,63.89,48.69,60.7Z"/><path class="cls-2" d="M24.26,104.58h4.42c6,0,10.87-5.64,10.87-12.54V67.33c0-6.9-4.89-12.55-10.87-12.55H24.26c-6,0-10.87,5.65-10.87,12.55V92C13.39,98.94,18.28,104.58,24.26,104.58Z"/><path class="cls-1" d="M35.6,104.58H17.19c-2.14,0-3.88-2-3.88-4.47V93c0-2.46,1.74-4.47,3.88-4.47H35.6c2.13,0,3.88,2,3.88,4.47v7.09C39.48,102.57,37.73,104.58,35.6,104.58Z"/><rect class="cls-2" x="13.34" y="77.3" width="26.17" height="17.74"/><ellipse class="cls-4" cx="26.22" cy="38.33" rx="13.17" ry="16.94"/><path class="cls-5" d="M17.41,46.72a2.35,2.35,0,0,1,2.21-2.47,2.48,2.48,0,0,1,0,4.93A2.34,2.34,0,0,1,17.41,46.72Z"/><path class="cls-6" d="M31.62,46.4a2.22,2.22,0,1,1,2.21,2.47A2.34,2.34,0,0,1,31.62,46.4Z"/><path class="cls-3" d="M40.17,45.27c-.64,2.21-2.31,3.74-4,5.1h0c2.7-9-2.06-18.17-7.58-22.76,0,3.4-3.08,5.44-5.27,5.78A8.07,8.07,0,0,0,24.5,28.8a61.68,61.68,0,0,1-6.17,7A19.14,19.14,0,0,0,12.49,43c-3.72-6.11.45-14.56,4.43-18.47,8.73-8.83,20.3-1.69,24.54,10.7Z"/><path class="cls-4" d="M11,90.56a2,2,0,0,0-.23,1.13c.1.81.79,1.09,1.85,2.44l.46.62a1.31,1.31,0,0,1-.33.88,1.07,1.07,0,0,1-1.23.18c-.65-.42-.77-1.16-1.21-1.13-.14,0-.32.12-.53.47,0,.28.05.71.11,1.24a7.82,7.82,0,0,1,.1.84,2.13,2.13,0,0,1-.39,1.56,1,1,0,0,1-.74.32C8.19,99,8,97.71,8,97.54a8.06,8.06,0,0,1,0-1c0-.47,0-.87.06-1.13a.2.2,0,0,0-.17-.11.25.25,0,0,0-.17.06A9.15,9.15,0,0,0,6.83,97c-.16.31-.73,1.41-1.47,1.48a.9.9,0,0,1-.82-.42,1.24,1.24,0,0,1-.08-.89,3.56,3.56,0,0,1,.94-1.51c.65-.74,1.16-1.12,1.07-1.37a.21.21,0,0,0-.12-.1c-.25-.12-.57.23-1.09.56a1.93,1.93,0,0,1-1.43.49.73.73,0,0,1-.5-.43,1.15,1.15,0,0,1,.18-1c.06-.1.19-.27,1.1-.81l.83-.47c.6-.34.9-.5,1-.56.62-.47.64-1.06,1-1.39C7.87,90.17,8.84,89.85,11,90.56Z"/><path class="cls-4" d="M9.18,92.41s0,.11,0,.27,0,.14-.05.27c-.06.34-.1.59-.27.73,0,0-.15.13-.22.08s0-.19,0-.39a2.66,2.66,0,0,1,.2-.58.88.88,0,0,1,.26-.34C9.15,92.39,9.18,92.4,9.18,92.41Z"/><path class="cls-4" d="M9.68,92.4s0,.12,0,.28,0,.13,0,.27a1.18,1.18,0,0,0,0,.78s.11.16.18.14.09-.17.12-.37a3.3,3.3,0,0,0,0-.62.91.91,0,0,0-.14-.41C9.72,92.39,9.69,92.4,9.68,92.4Z"/><path class="cls-4" d="M8.39,92.25s0,.12-.06.27,0,.14-.05.27c-.08.34-.13.59-.31.72,0,0-.16.12-.22.07s0-.19,0-.39A2.74,2.74,0,0,1,8,92.62a.81.81,0,0,1,.28-.33C8.36,92.23,8.39,92.25,8.39,92.25Z"/><path class="cls-4" d="M42.16,91.29a2,2,0,0,1,.27,1.12c-.07.81-.75,1.12-1.76,2.51-.2.27-.34.5-.44.64a1.35,1.35,0,0,0,.36.87,1.06,1.06,0,0,0,1.23.13c.63-.44.73-1.19,1.17-1.17.14,0,.32.11.54.45,0,.28,0,.72-.07,1.25s-.07.58-.07.84a2.08,2.08,0,0,0,.45,1.55,1,1,0,0,0,.75.3c.66-.13.77-1.44.79-1.61s0-.48,0-1-.07-.86-.11-1.13a.28.28,0,0,1,.18-.12.37.37,0,0,1,.17.06,9.17,9.17,0,0,1,.95,1.65c.17.3.77,1.38,1.51,1.42a.88.88,0,0,0,.81-.44,1.24,1.24,0,0,0,0-.9,3.58,3.58,0,0,0-1-1.48c-.67-.72-1.2-1.08-1.11-1.33a.23.23,0,0,1,.11-.11c.25-.12.58.21,1.1.53a2,2,0,0,0,1.45.44A.78.78,0,0,0,50,95.3a1.16,1.16,0,0,0-.22-1c-.06-.1-.2-.26-1.12-.77l-.84-.44c-.61-.31-.92-.47-1-.53-.63-.45-.67-1-1-1.35C45.28,90.79,44.3,90.5,42.16,91.29Z"/><path class="cls-4" d="M44,93.07s0,.12.05.27,0,.14.06.27c.07.34.12.59.3.73,0,0,.15.12.22.07s0-.19,0-.39a2.26,2.26,0,0,0-.22-.57.76.76,0,0,0-.27-.34C44.07,93.05,44,93.07,44,93.07Z"/><path class="cls-4" d="M43.54,93.09s0,.11.05.27,0,.14.06.27a1.19,1.19,0,0,1,0,.78s-.09.17-.17.15-.1-.17-.12-.37a2.22,2.22,0,0,1,0-.61.89.89,0,0,1,.12-.42C43.51,93.08,43.53,93.09,43.54,93.09Z"/><path class="cls-4" d="M44.82,92.89s0,.11.07.27,0,.14.07.26c.08.34.14.59.33.72,0,0,.15.11.22,0s0-.19,0-.38a2.12,2.12,0,0,0-.24-.57.74.74,0,0,0-.29-.32C44.85,92.87,44.83,92.89,44.82,92.89Z"/><path class="cls-7" d="M27.91,44.78c-.54.47-.94.94-1.69,1s-1.06-.4-1.45-1c-.06-.1-.23-.1-.21.06.21,1.76,3,1.54,3.38,0,0,0,0-.08,0,0Z"/><path class="cls-8" d="M31.5,36.62a3,3,0,0,0-2.77,2.23c-.5,1.92.51,3.8,2.74,3.72s3.24-1.72,3-3.25A2.89,2.89,0,0,0,31.5,36.62Z"/><path class="cls-9" d="M28.69,39.19A3,3,0,0,1,32,37a2.72,2.72,0,0,1,1.51,1c.4.57.46,1.3.84,1.86.06.09.22.15.27,0A2.6,2.6,0,0,0,34,37.45a3.34,3.34,0,0,0-2-1.13,3.09,3.09,0,0,0-2.21.55,3,3,0,0,0-1.13,2.29c0,.06.05.09.06,0Z"/><ellipse class="cls-10" cx="31.38" cy="40" rx="2.14" ry="2.48" transform="translate(-0.12 0.09) rotate(-0.17)"/><path class="cls-8" d="M30.35,41.17A.75.75,0,0,0,31,42a.8.8,0,1,0-.69-.79Z"/><path class="cls-8" d="M20.3,36.62a2.94,2.94,0,0,1,2.77,2.23c.5,1.92-.5,3.8-2.73,3.72-2.39-.08-3.24-1.72-3-3.25A2.91,2.91,0,0,1,20.3,36.62Z"/><path class="cls-9" d="M23.11,39.19A3,3,0,0,0,19.76,37a2.7,2.7,0,0,0-1.5,1c-.41.57-.46,1.3-.84,1.86-.06.09-.22.15-.28,0a2.58,2.58,0,0,1,.69-2.44,3.31,3.31,0,0,1,2-1.13,3.07,3.07,0,0,1,2.2.55,3,3,0,0,1,1.13,2.29c0,.06,0,.09-.06,0Z"/><ellipse class="cls-10" cx="20.43" cy="40" rx="2.48" ry="2.14" transform="translate(-19.63 60.3) rotate(-89.83)"/><path class="cls-8" d="M21.45,41.17a.69.69,0,1,1-.68-.8A.74.74,0,0,1,21.45,41.17Z"/><path class="cls-7" d="M30,50.53a6.58,6.58,0,0,0-7.94.32c-.22.2.17.45.36.28,2-1.86,5.34-1.68,7.53-.41.12.07.13-.13.05-.19Z"/></g></svg>