<svg id="Ebene_1" data-name="Ebene 1" xmlns="http://www.w3.org/2000/svg" viewBox="0 0 699.68 635.42"><defs><style>.cls-1{fill:#a9c95a;}.cls-2{fill:#9b66a8;}.cls-3{fill:#7bc5ef;}.cls-4{fill:#d48342;}.cls-5{opacity:0.31;}.cls-6{fill:#015561;}.cls-7{fill:#4d5927;}.cls-8{fill:#3b3047;}.cls-12,.cls-9{fill:#fff;}.cls-10{opacity:0.1;}.cls-11{fill:#f9bf9e;}.cls-12{opacity:0.4;}.cls-13{fill:#18a4a4;}.cls-14{fill:#067788;}</style></defs><path class="cls-1" d="M289,241.69c-1.52,14.46-12.29,25.58-24.06,24.83S244.89,253.43,246.4,239s12.29-25.58,24.06-24.83S290.54,227.22,289,241.69Z"/><path class="cls-2" d="M312.4,246.83c-6.62,10.22-20.53,15.13-31.07,11s-13.71-15.83-7.09-26.05,20.53-15.14,31.07-11S319,236.6,312.4,246.83Z"/><path class="cls-3" d="M248.11,242.42c-1,11.26-11.29,19.65-23.06,18.72s-20.53-10.8-19.56-22.06,11.28-19.65,23-18.72S249.07,231.16,248.11,242.42Z"/><path class="cls-3" d="M352.52,245.66c-1,11.26-11.29,19.65-23.06,18.72s-20.53-10.8-19.57-22.06S321.18,222.68,333,223.6,353.48,234.4,352.52,245.66Z"/><path class="cls-4" d="M201.77,238.12l1.7,151.82a1.34,1.34,0,0,0,1.37,1.28l114.75-1.47c.75,0,14.91-6,14.9-6.71l1.35-136.58-14.09-3.63a1.39,1.39,0,0,1-1.64-.17l-8.29-7.61A1.4,1.4,0,0,0,310,235l-10.31,8a1.4,1.4,0,0,1-1.63,0l-11.55-7.88a1.4,1.4,0,0,0-1.45-.07l-15.53,8.43a1.4,1.4,0,0,1-1.44-.06l-12.24-8.11a1.41,1.41,0,0,0-1.48,0l-14.54,8.48a1.41,1.41,0,0,1-1.48,0l-12.1-8a1.4,1.4,0,0,0-1.62.06l-10.3,8a1.38,1.38,0,0,1-1.7,0L204,237.1A1.36,1.36,0,0,0,201.77,238.12Z"/><g class="cls-5"><rect class="cls-6" x="221.03" y="281.56" width="78.55" height="30.38" transform="translate(-3.03 2.69) rotate(-0.59)"/></g><path class="cls-6" d="M356.63,241.94l2.6,144.45a2.57,2.57,0,0,1-2.6,2.37l-16.87-3.92-20.17,4.91-1.23-147,18.95,4.62,17.51-7A1.74,1.74,0,0,1,356.63,241.94Z"/><rect class="cls-7" x="388.3" y="306.83" width="65.57" height="90.24" transform="translate(-1.43 1.72) rotate(-0.23)"/><rect class="cls-1" x="388.3" y="306.85" width="55.75" height="90.24" transform="translate(-1.43 1.7) rotate(-0.23)"/><rect class="cls-7" x="388.32" y="343.22" width="65.57" height="24.31" transform="translate(-1.44 1.72) rotate(-0.23)"/><ellipse class="cls-7" cx="421.1" cy="355.28" rx="20.45" ry="26.9" transform="matrix(1, 0, 0, 1, -1.75, 2.09)"/><path class="cls-8" d="M388.1,307c0,3.89,14.71,7,32.82,6.9s32.77-3.28,32.75-7.16-14.71-7-32.82-6.9S388.08,303.08,388.1,307Z"/><path class="cls-9" d="M423.8,306.82c0,1.2,4.57,2.16,10.18,2.14s10.17-1,10.16-2.23-4.56-2.16-10.18-2.13S423.8,305.61,423.8,306.82Z"/><path class="cls-9" d="M367.29,268.26h-6.8V238.19h-32v30.07h-6.79c-7.29,0-13.19,5.65-13.19,12.62V387.2a7,7,0,0,0,7.16,6.85H375a5.36,5.36,0,0,0,5.48-5.24V280.88C380.48,273.91,374.58,268.26,367.29,268.26Z"/><path class="cls-9" d="M367.29,268.26h-6.8V238.19h-32v30.07h-6.79c-7.29,0-13.19,5.65-13.19,12.62V387.2a7,7,0,0,0,7.16,6.85H375a5.36,5.36,0,0,0,5.48-5.24V280.88C380.48,273.91,374.58,268.26,367.29,268.26Z"/><g class="cls-10"><path class="cls-11" d="M317,387.2V280.88c0-7,5.91-12.62,13.19-12.62h6.8V238.19h-8.48v30.07h-6.79c-7.29,0-13.19,5.65-13.19,12.62V387.2a7,7,0,0,0,7.16,6.85h8.47A7,7,0,0,1,317,387.2Z"/></g><g class="cls-10"><path class="cls-11" d="M367.29,268.26h-6.8V238.19H353v30.07h6.79c7.29,0,13.2,5.65,13.2,12.62V388.81a5.37,5.37,0,0,1-5.48,5.24H375a5.36,5.36,0,0,0,5.48-5.24V280.88C380.48,273.91,374.58,268.26,367.29,268.26Z"/></g><rect class="cls-9" x="321.74" y="236.42" width="45.47" height="9.76" rx="1.32"/><g class="cls-10"><rect class="cls-11" x="321.74" y="236.42" width="45.47" height="9.76" rx="1.32"/></g><rect class="cls-3" x="308.01" y="296.52" width="72.95" height="46.95"/><rect class="cls-12" x="308.01" y="305.4" width="72.95" height="11.8"/><rect class="cls-13" x="465.44" y="348.44" width="53.09" height="49.32" rx="1.5"/><rect class="cls-9" x="465.44" y="360.53" width="53.09" height="25.15"/><rect class="cls-13" x="480.8" y="369.02" width="22.37" height="10.6"/><path class="cls-1" d="M559.56,300.94c-.78,8.83-6.32,15.61-12.38,15.15s-10.33-8-9.55-16.81S544,283.67,550,284.13,560.35,292.11,559.56,300.94Z"/><path class="cls-2" d="M571.59,304.08c-3.4,6.23-10.56,9.23-16,6.69s-7.05-9.66-3.64-15.89,10.56-9.24,16-6.7S575,297.84,571.59,304.08Z"/><path class="cls-3" d="M538.51,301.39c-.5,6.87-5.81,12-11.87,11.42s-10.56-6.59-10.07-13.46,5.81-12,11.87-11.42S539,294.52,538.51,301.39Z"/><path class="cls-3" d="M592.24,303.36c-.5,6.88-5.81,12-11.87,11.43s-10.56-6.59-10.07-13.46,5.81-12,11.87-11.43S592.74,296.49,592.24,303.36Z"/><path class="cls-4" d="M514.66,298.77l.88,92.62a.74.74,0,0,0,.7.78l59-.9c.39,0,7.68-3.65,7.67-4.09l.7-83.33-7.25-2.21a.65.65,0,0,1-.85-.11l-4.27-4.64a.62.62,0,0,0-.92,0l-5.3,4.86a.62.62,0,0,1-.84,0l-5.94-4.81a.65.65,0,0,0-.75,0l-8,5.15a.63.63,0,0,1-.74,0l-6.3-4.95a.63.63,0,0,0-.76,0l-7.49,5.18a.63.63,0,0,1-.76,0l-6.22-4.89a.64.64,0,0,0-.84,0l-5.3,4.9a.64.64,0,0,1-.88,0l-4.46-4.09A.7.7,0,0,0,514.66,298.77Z"/><g class="cls-5"><polygon class="cls-6" points="565.08 343.55 524.66 344.05 524.49 325.51 564.91 325.02 565.08 343.55"/></g><path class="cls-6" d="M594.35,301.09l1.34,88.13a1.43,1.43,0,0,1-1.33,1.45l-8.68-2.39-10.39,3-.63-89.67,9.75,2.81,9-4.26A1,1,0,0,1,594.35,301.09Z"/><path class="cls-14" d="M591.54,400.42H198.11a6.36,6.36,0,0,1-6.43-5.59L162.36,101.35c-1.45-14.49-12.93-26.29-27.93-28.71L38.66,57.24a6.21,6.21,0,0,1-5.3-7.12,6.43,6.43,0,0,1,7.44-5.07l95.77,15.4c20.75,3.34,36.65,19.67,38.65,39.72l3.46,34.63,454.06,72.53a6.5,6.5,0,0,1,4.28,2.61,6,6,0,0,1,1,4.76L597.86,395.53A6.4,6.4,0,0,1,591.54,400.42ZM204,388.06H586.31L624,218.46,180,147.54Z"/><path class="cls-14" d="M619.8,273.17a3.93,3.93,0,0,1-.49,0L181.15,241.9a6.28,6.28,0,0,1-6-6.62,6.36,6.36,0,0,1,6.92-5.71l438.16,31.26a6.27,6.27,0,0,1,6,6.62A6.35,6.35,0,0,1,619.8,273.17Z"/><path class="cls-14" d="M604.45,343.05h-.36L191.3,321a6.29,6.29,0,0,1-6.09-6.52,6.4,6.4,0,0,1,6.81-5.83l412.79,22a6.18,6.18,0,1,1-.36,12.36Z"/><path class="cls-14" d="M528.35,398.11A7.08,7.08,0,0,1,527,398a6.19,6.19,0,0,1-5-7.35l42.48-187.78a6.5,6.5,0,0,1,7.68-4.73,6.19,6.19,0,0,1,4.95,7.35L534.66,393.23A6.42,6.42,0,0,1,528.35,398.11Z"/><path class="cls-14" d="M459.85,398.68a7.37,7.37,0,0,1-1-.07,6.22,6.22,0,0,1-5.34-7.09l33.38-197.87a6.43,6.43,0,0,1,7.4-5.11,6.21,6.21,0,0,1,5.35,7.08L466.22,393.49A6.38,6.38,0,0,1,459.85,398.68Z"/><path class="cls-14" d="M394.82,398.68a4.43,4.43,0,0,1-.63,0,6.25,6.25,0,0,1-5.8-6.75l21.87-213.85a6.37,6.37,0,0,1,7.05-5.55,6.25,6.25,0,0,1,5.8,6.75L401.24,393.1A6.34,6.34,0,0,1,394.82,398.68Z"/><path class="cls-14" d="M331.53,399.26h0a6.31,6.31,0,0,1-6.41-6.22l1.55-226.79a6.44,6.44,0,0,1,6.5-6.15,6.34,6.34,0,0,1,6.42,6.22L338,393.12A6.32,6.32,0,0,1,331.53,399.26Z"/><path class="cls-14" d="M261.29,399.84a6.33,6.33,0,0,1-6.45-6l-6.09-239.74a6.3,6.3,0,0,1,6.29-6.33h.17a6.34,6.34,0,0,1,6.45,6l6.09,239.74a6.3,6.3,0,0,1-6.3,6.33Z"/><path class="cls-14" d="M354.68,524.83c-32.09,0-62.52,0-87.12-.07-17.22,0-31.58-.08-41.64-.15-20.16-.14-20.16-.14-21.83-4.17-.47-1.12-.7-1.69-15.84-157.81a6.27,6.27,0,0,1,5.83-6.73,6.39,6.39,0,0,1,7,5.59c3.61,37.24,12.46,128.11,14.81,150.67,37.86.5,268.89.26,361.09.12h0a6.19,6.19,0,1,1,0,12.36s-91.64.14-183.33.18Z"/><ellipse class="cls-2" cx="251" cy="568.3" rx="38.63" ry="36.96"/><path class="cls-14" d="M284.3,519.14l-17.61,47.64a17.91,17.91,0,0,1-19.55,11.15h0a11.48,11.48,0,0,1-9.88-13.38l8.87-45.41H284.3Z"/><ellipse class="cls-2" cx="490.01" cy="568.3" rx="38.63" ry="36.96"/><path class="cls-14" d="M523.32,519.14l-17.61,47.64a17.91,17.91,0,0,1-19.56,11.15h0a11.49,11.49,0,0,1-9.88-13.38l8.87-45.41h38.18Z"/><path class="cls-2" d="M31.78,65.32l82.47,12c8.06,1.17,15.6-4.13,16.82-11.85l.44-2.78c1.23-7.72-4.31-14.92-12.37-16.1l-82.48-12c-8.06-1.17-15.59,4.13-16.82,11.85l-.44,2.78C18.17,56.94,23.71,64.14,31.78,65.32Z"/></svg>