<svg xmlns="http://www.w3.org/2000/svg" viewBox="0 0 108 133"><defs><style>.cls-1{fill:#1fb51f;}.cls-2{fill:#7dff7d;}.cls-3{fill:#ffd5be;}.cls-4{fill:#9e5147;}.cls-12,.cls-5{fill:#42210b;}.cls-5{opacity:0.09;}.cls-6{fill:#8e3257;}.cls-7{fill:#ee7ba5;}.cls-8{fill:#fff;}.cls-9{fill:#002030;}.cls-10{fill:#19313a;}.cls-11{fill:#a78d8d;}</style></defs><g id="Flo"><path class="cls-1" d="M59,59A219.77,219.77,0,0,1,69,93.1"/><path class="cls-1" d="M57.55,59.4a218.46,218.46,0,0,1,10,34.1c.41,1.89,3.3,1.09,2.9-.79a221.09,221.09,0,0,0-10-34.11c-.7-1.78-3.6-1-2.9.8Z"/><path class="cls-1" d="M32,89a169.73,169.73,0,0,1,7.72-29.36"/><path class="cls-1" d="M33.45,89.4A170.33,170.33,0,0,1,41.16,60c.65-1.82-2.25-2.61-2.89-.79A170,170,0,0,0,30.55,88.6c-.3,1.89,2.59,2.7,2.9.8Z"/><path class="cls-1" d="M41.39,129c-2.63-.86-5.09-.53-6.09.45a3.65,3.65,0,0,0-1,1.81,2.54,2.54,0,0,0,0,.9c.39,1.52,10.36,1,11.67.9a10.13,10.13,0,0,0,0-1.35,10.9,10.9,0,0,0-.51-2.71Z"/><polygon class="cls-2" points="45.93 102.7 45.58 129 42.12 129 42.12 102.7 45.93 102.7"/><path class="cls-1" d="M58.9,129c2.63-.86,5.09-.53,6.09.45a3.65,3.65,0,0,1,1,1.81,2.54,2.54,0,0,1,0,.9c-.39,1.52-10.37,1-11.67.9a10.13,10.13,0,0,1,0-1.35,10.9,10.9,0,0,1,.51-2.71Z"/><polygon class="cls-2" points="54.36 102.7 54.7 129 58.16 129 58.16 102.7 54.36 102.7"/><path class="cls-2" d="M47.55,105.3h4.52c6.11,0,11.11-6,11.11-13.21V66c0-7.27-5-13.22-11.11-13.22H47.55c-6.11,0-11.11,6-11.11,13.22V92.09C36.44,99.35,41.44,105.3,47.55,105.3Z"/><path class="cls-1" d="M59.14,105.3H40.32c-2.17,0-4-2.12-4-4.71V93.12c0-2.59,1.79-4.71,4-4.71H59.14c2.18,0,4,2.12,4,4.71v7.47C63.1,103.18,61.32,105.3,59.14,105.3Z"/><rect class="cls-2" x="36.39" y="76.55" width="26.73" height="18.69"/><ellipse class="cls-3" cx="49.55" cy="35.49" rx="13.46" ry="17.86"/><ellipse class="cls-3" cx="35.89" cy="36.02" rx="2.62" ry="4.36"/><ellipse class="cls-3" cx="63.01" cy="36.49" rx="2.62" ry="4.36"/><path class="cls-4" d="M51.28,42.28c-.55.5-1,1-1.72,1s-1.09-.42-1.48-1c-.07-.1-.24-.1-.22.06.22,1.86,3.07,1.63,3.45,0,0,0,0-.08,0,0Z"/><path class="cls-4" d="M36.86,36.48c0,.08,0,.21-.07.15-.24-.29-.43-.66-.67-.93a1.19,1.19,0,0,0-.78-.43,1.51,1.51,0,0,0-.08.89,3.72,3.72,0,0,0,.41,1.16,3.39,3.39,0,0,0,.51.55s0,.07,0,.08c-.66.11-1.35-1.68-1.25-2.6-.36.19-.62.67-.49,1.47,0,0,0,0,0,0C33.52,34.17,36.1,34,36.86,36.48Z"/><path class="cls-4" d="M62.38,37.18c0,.07,0,.21.07.14.24-.29.43-.66.67-.92A1.17,1.17,0,0,1,63.9,36a1.55,1.55,0,0,1,.08.9A3.76,3.76,0,0,1,63.57,38a3.39,3.39,0,0,1-.51.55s0,.08,0,.08c.66.12,1.35-1.68,1.25-2.6.36.19.62.68.49,1.48,0,0,0,0,0,0C65.72,34.87,63.14,34.67,62.38,37.18Z"/><path class="cls-5" d="M60,44c0,5-4.7,9-10.5,9S39,49,39,44"/><path class="cls-6" d="M53.54,46.72S53,50,49.81,50.06A3.65,3.65,0,0,1,46,46.64s.63,0,3.58,0Z"/><path class="cls-7" d="M50.51,50a4.21,4.21,0,0,1-2.28-.12,3.44,3.44,0,0,1,2.23-1.71,3.12,3.12,0,0,1,2.44.43A3.84,3.84,0,0,1,50.51,50Z"/><path class="cls-3" d="M33.77,88.49a2.34,2.34,0,0,0-.26,1.32c.11,1,.89,1.28,2.1,2.87.23.3.41.57.52.73a1.53,1.53,0,0,1-.38,1,1.16,1.16,0,0,1-1.39.21c-.74-.49-.88-1.36-1.37-1.32-.16,0-.37.13-.61.55,0,.33.06.84.13,1.46s.1.68.11,1a2.45,2.45,0,0,1-.45,1.83,1.11,1.11,0,0,1-.84.39c-.75-.12-.93-1.65-.95-1.85a10.23,10.23,0,0,1,0-1.18c0-.56.05-1,.08-1.34a.31.31,0,0,0-.2-.13.36.36,0,0,0-.19.07,11.12,11.12,0,0,0-1,2c-.18.36-.82,1.65-1.66,1.74a1,1,0,0,1-.94-.49,1.47,1.47,0,0,1-.09-1,4.28,4.28,0,0,1,1.07-1.78c.74-.87,1.32-1.32,1.21-1.6a.27.27,0,0,0-.13-.13c-.28-.13-.64.27-1.23.67s-1.09.72-1.63.57a.89.89,0,0,1-.58-.5,1.46,1.46,0,0,1,.21-1.13c.08-.12.22-.32,1.26-1l.94-.54c.68-.4,1-.6,1.11-.67.7-.55.72-1.24,1.1-1.63C30.21,88,31.31,87.65,33.77,88.49Z"/><path class="cls-3" d="M31.7,90.66s0,.13-.05.32,0,.16,0,.31a1.5,1.5,0,0,1-.31.87s-.17.14-.25.09,0-.22,0-.46a3.18,3.18,0,0,1,.22-.68,1.12,1.12,0,0,1,.3-.41C31.67,90.64,31.7,90.65,31.7,90.66Z"/><path class="cls-3" d="M32.27,90.65s0,.13-.05.32a1.92,1.92,0,0,1,0,.32,1.53,1.53,0,0,0,0,.92s.12.19.21.16.1-.2.13-.43a3.53,3.53,0,0,0,0-.72,1,1,0,0,0-.15-.49C32.31,90.64,32.28,90.65,32.27,90.65Z"/><path class="cls-3" d="M30.81,90.48s0,.13-.07.31a2.61,2.61,0,0,0-.06.32,1.46,1.46,0,0,1-.35.84s-.18.14-.25.08,0-.22,0-.45a2.85,2.85,0,0,1,.26-.67.94.94,0,0,1,.31-.4C30.78,90.45,30.8,90.47,30.81,90.48Z"/><path class="cls-3" d="M65.82,89.49a2.32,2.32,0,0,1,.31,1.27c-.08.93-.86,1.28-2,2.86-.22.31-.39.57-.5.73a1.49,1.49,0,0,0,.41,1,1.2,1.2,0,0,0,1.4.16c.72-.51.84-1.36,1.33-1.34.16,0,.37.12.62.51,0,.33,0,.82-.08,1.43s-.08.66-.08,1a2.38,2.38,0,0,0,.51,1.76,1.11,1.11,0,0,0,.85.34c.75-.14.89-1.63.9-1.83a10.24,10.24,0,0,0,0-1.15c0-.54-.08-1-.12-1.29a.28.28,0,0,1,.2-.13.33.33,0,0,1,.19,0,10.91,10.91,0,0,1,1.09,1.89c.19.35.87,1.58,1.72,1.62a1,1,0,0,0,.92-.5,1.36,1.36,0,0,0,0-1,3.81,3.81,0,0,0-1.12-1.69c-.77-.82-1.36-1.24-1.26-1.52a.2.2,0,0,1,.12-.12c.29-.15.66.24,1.26.6a2.28,2.28,0,0,0,1.64.5.93.93,0,0,0,.57-.52A1.31,1.31,0,0,0,74.46,93c-.08-.12-.23-.31-1.28-.88-.28-.16-.37-.19-1-.5s-1-.55-1.13-.61c-.73-.51-.77-1.18-1.16-1.54C69.37,88.91,68.25,88.58,65.82,89.49Z"/><path class="cls-3" d="M68,91.52s0,.13.06.31a2.65,2.65,0,0,1,.06.3,1.36,1.36,0,0,0,.34.83s.18.14.25.08,0-.22,0-.44a2.45,2.45,0,0,0-.25-.66.82.82,0,0,0-.31-.38C68,91.5,68,91.51,68,91.52Z"/><path class="cls-3" d="M67.39,91.53s0,.13.06.31,0,.16.06.31a1.4,1.4,0,0,1,0,.89s-.11.2-.2.17-.11-.19-.14-.42a2.92,2.92,0,0,1,0-.7.86.86,0,0,1,.14-.47C67.35,91.53,67.38,91.53,67.39,91.53Z"/><path class="cls-3" d="M68.85,91.31s0,.13.08.3a2.38,2.38,0,0,1,.07.31c.1.38.17.66.38.81,0,0,.18.12.25.06s0-.21,0-.44a3.08,3.08,0,0,0-.27-.64,1.06,1.06,0,0,0-.33-.37C68.88,91.29,68.86,91.3,68.85,91.31Z"/><path class="cls-8" d="M55.61,33.32a3.25,3.25,0,0,0-3.11,2.12c-.56,1.84.57,3.63,3.07,3.56,2.68-.08,3.64-1.64,3.36-3.1A3.11,3.11,0,0,0,55.61,33.32Z"/><path class="cls-9" d="M52.46,35.76a3.36,3.36,0,0,1,3.75-2.07,3.07,3.07,0,0,1,1.69,1c.46.54.52,1.24,1,1.78.06.08.24.13.31,0,.4-.76-.22-1.77-.77-2.33a3.93,3.93,0,0,0-4.74-.56,2.72,2.72,0,0,0-1.26,2.19s0,.09.07,0Z"/><ellipse class="cls-10" cx="55.08" cy="36.63" rx="2.37" ry="2.4" transform="translate(16.37 90.27) rotate(-87.81)"/><path class="cls-8" d="M53.16,36.75a.77.77,0,1,1,.76.77A.77.77,0,0,1,53.16,36.75Z"/><path class="cls-8" d="M43.67,33.31a3.23,3.23,0,0,1,3.1,2.12c.57,1.84-.57,3.64-3.07,3.57-2.68-.08-3.63-1.64-3.36-3.11A3.12,3.12,0,0,1,43.67,33.31Z"/><path class="cls-9" d="M46.82,35.76a3.36,3.36,0,0,0-3.76-2.07,3,3,0,0,0-1.69,1c-.45.54-.51,1.24-.94,1.78-.07.09-.25.14-.31,0-.4-.77.21-1.78.77-2.34A4,4,0,0,1,43.15,33a3.94,3.94,0,0,1,2.47.52,2.79,2.79,0,0,1,1.27,2.19c0,.06,0,.09-.07,0Z"/><ellipse class="cls-10" cx="44.19" cy="36.62" rx="2.4" ry="2.38" transform="translate(-1.49 1.88) rotate(-2.4)"/><path class="cls-8" d="M46.12,36.75a.75.75,0,0,0-.77-.75.76.76,0,0,0-.77.76.77.77,0,0,0,1.54,0Z"/><path class="cls-11" d="M60.49,28.51c-.62.17-1.22.26-1.79.41a21.25,21.25,0,0,0-2.15-5A19.61,19.61,0,0,0,55,21.11a6.32,6.32,0,0,1,5.38,3.2,22.6,22.6,0,0,1,2.33,8.05l0,.31c-.38.09-.76.2-1.17.27C61.26,31.49,60.85,30,60.49,28.51Z"/><path class="cls-11" d="M38.68,27.78c.62.17,1.21.26,1.78.41a21.68,21.68,0,0,1,2.15-5,18.77,18.77,0,0,1,1.53-2.83,6.31,6.31,0,0,0-5.38,3.2,22.85,22.85,0,0,0-2.34,8.05l0,.31c.38.09.76.2,1.17.27C37.91,30.76,38.32,29.28,38.68,27.78Z"/><path class="cls-12" d="M36.4,28c.6,2.47,3.59,1.23,4.69.27,1.6-1.37,1.4-1.51,3.2-1.37,1.4,0,2.29-.69,3.29-1.92,2.2,3.15,8.19,7.54,10.88,2.74,1,4.39,5.4,3.43,7.39,1,3.5-4.25-1.89-4.53-4.19-4.53,1.2-1.78,3.49-2.47,3.89-5.21-1.89.14-3.79,1-5.69,1.1.6-.55,4.3-3.85,3-5.22-.4-.41-3.7,2.06-4.69,1.79-2-.55-2.8-3.16-4.9-3.43a6.5,6.5,0,0,0-4.89,2.19,20,20,0,0,1,2-4.39c-1.9.27-2.8,2.74-4.2,4.25-1.59,1.65-3.19,2.06-5.09,2.89-2.89,1.23-5,5.07-5.09,9.19Z"/></g></svg>