<svg xmlns="http://www.w3.org/2000/svg" viewBox="0 0 56 133"><defs><style>.cls-1,.cls-3{fill:#1fb51f;}.cls-2{fill:#7dff7d;}.cls-3{stroke:#1fb51f;stroke-miterlimit:10;}.cls-4{fill:#ffd5be;}.cls-5{fill:#9e5147;}.cls-6,.cls-8{fill:#42210b;}.cls-6{opacity:0.09;}.cls-7{fill:#a78d8d;}.cls-9{fill:#8e3257;}.cls-10{fill:#ee7ba5;}.cls-11{fill:#002030;}</style></defs><g id="Flo"><path class="cls-1" d="M19.39,129c-2.63-.86-5.09-.53-6.09.45a3.65,3.65,0,0,0-1,1.81,2.54,2.54,0,0,0,0,.9c.39,1.52,10.36,1,11.67.9a10.13,10.13,0,0,0,0-1.35,10.9,10.9,0,0,0-.51-2.71Z"/><polygon class="cls-2" points="23.93 102.7 23.58 129 20.12 129 20.12 102.7 23.93 102.7"/><path class="cls-1" d="M36.9,129c2.63-.86,5.09-.53,6.09.45a3.65,3.65,0,0,1,1,1.81,2.54,2.54,0,0,1,0,.9c-.39,1.52-10.37,1-11.67.9a10.13,10.13,0,0,1,0-1.35,10.9,10.9,0,0,1,.51-2.71Z"/><polygon class="cls-2" points="32.36 102.7 32.7 129 36.16 129 36.16 102.7 32.36 102.7"/><path class="cls-3" d="M39.75,60.54C43.83,64.55,45,71.48,44,77a88.89,88.89,0,0,1-3.42,12.15c-.33.9-.61,1.65-.8,2.13l-2.12-.06a54.74,54.74,0,0,0,3.65-11.92c2-11.43-2.64-15-3.33-15.55Z"/><path class="cls-3" d="M15.93,60.16c-4.08,4-5.26,10.94-4.28,16.42a88.89,88.89,0,0,0,3.42,12.15c.33.9.61,1.64.8,2.13L18,90.8a54.85,54.85,0,0,1-3.65-11.93c-2-11.42,2.64-15,3.33-15.54Z"/><path class="cls-2" d="M25.55,105.3h4.52c6.11,0,11.11-6,11.11-13.21V66c0-7.27-5-13.22-11.11-13.22H25.55c-6.11,0-11.11,6-11.11,13.22V92.09C14.44,99.35,19.44,105.3,25.55,105.3Z"/><path class="cls-1" d="M37.14,105.3H18.32c-2.17,0-4-2.12-4-4.71V93.12c0-2.59,1.79-4.71,4-4.71H37.14c2.18,0,4,2.12,4,4.71v7.47C41.1,103.18,39.32,105.3,37.14,105.3Z"/><rect class="cls-2" x="14.39" y="76.55" width="26.73" height="18.69"/><ellipse class="cls-4" cx="27.55" cy="35.49" rx="13.46" ry="17.86"/><ellipse class="cls-4" cx="13.89" cy="36.02" rx="2.62" ry="4.36"/><ellipse class="cls-4" cx="41.01" cy="36.49" rx="2.62" ry="4.36"/><path class="cls-5" d="M29.28,42.28c-.55.5-1,1-1.72,1s-1.09-.42-1.48-1c-.07-.1-.24-.1-.22.06.22,1.86,3.07,1.63,3.45,0,0,0,0-.08,0,0Z"/><path class="cls-5" d="M14.86,36.48c0,.08,0,.21-.07.15-.24-.29-.43-.66-.67-.93a1.19,1.19,0,0,0-.78-.43,1.51,1.51,0,0,0-.08.89,3.72,3.72,0,0,0,.41,1.16,3.39,3.39,0,0,0,.51.55s0,.07,0,.08c-.66.11-1.35-1.68-1.25-2.6-.36.19-.62.67-.49,1.47,0,0,0,0,0,0C11.52,34.17,14.1,34,14.86,36.48Z"/><path class="cls-5" d="M40.38,37.18c0,.07,0,.21.07.14.24-.29.43-.66.67-.92A1.17,1.17,0,0,1,41.9,36a1.55,1.55,0,0,1,.08.9A3.76,3.76,0,0,1,41.57,38a3.39,3.39,0,0,1-.51.55s0,.08,0,.08c.66.12,1.35-1.68,1.25-2.6.36.19.62.68.49,1.48,0,0,0,0,0,0C43.72,34.87,41.14,34.67,40.38,37.18Z"/><path class="cls-6" d="M38,44c0,5-4.7,9-10.5,9S17,49,17,44"/><path class="cls-7" d="M38.49,28.51c-.62.17-1.22.26-1.79.41a21.25,21.25,0,0,0-2.15-5A19.61,19.61,0,0,0,33,21.11a6.32,6.32,0,0,1,5.38,3.2,22.6,22.6,0,0,1,2.33,8.05l0,.31c-.38.09-.76.2-1.17.27C39.26,31.49,38.85,30,38.49,28.51Z"/><path class="cls-7" d="M16.68,27.78c.62.17,1.21.26,1.78.41a21.68,21.68,0,0,1,2.15-5,18.77,18.77,0,0,1,1.53-2.83,6.31,6.31,0,0,0-5.38,3.2,22.85,22.85,0,0,0-2.34,8.05l0,.31c.38.09.76.2,1.17.27C15.91,30.76,16.32,29.28,16.68,27.78Z"/><path class="cls-8" d="M14.4,28c.6,2.47,3.59,1.23,4.69.27,1.6-1.37,1.4-1.51,3.2-1.37,1.4,0,2.29-.69,3.29-1.92,2.2,3.15,8.19,7.54,10.88,2.74,1,4.39,5.4,3.43,7.39,1,3.5-4.25-1.89-4.53-4.19-4.53,1.2-1.78,3.49-2.47,3.89-5.21-1.89.14-3.79,1-5.69,1.1.6-.55,4.3-3.85,3-5.22-.4-.41-3.7,2.06-4.69,1.79-2-.55-2.8-3.16-4.9-3.43a6.5,6.5,0,0,0-4.89,2.19,20,20,0,0,1,2-4.39c-1.9.27-2.8,2.74-4.2,4.25-1.59,1.65-3.19,2.06-5.09,2.89-2.89,1.23-5,5.07-5.09,9.19Z"/><path class="cls-4" d="M40.24,82.25a2.25,2.25,0,0,1-.91.94c-.82.43-1.53,0-3.49-.17-.38,0-.69,0-.88,0a1.37,1.37,0,0,0-.61.87A1.19,1.19,0,0,0,35,85.14c.81.33,1.59,0,1.84.4.08.14.09.38-.1.8-.28.17-.71.42-1.25.7s-.6.28-.85.44a2.4,2.4,0,0,0-1.22,1.38,1.15,1.15,0,0,0,.17.9c.52.56,1.85-.13,2-.22a8,8,0,0,0,1-.65c.44-.32.79-.6,1-.79a.24.24,0,0,1,.21.1.31.31,0,0,1,.06.19,10.55,10.55,0,0,1-1,1.93c-.19.35-.86,1.58-.45,2.33a1,1,0,0,0,.92.5,1.36,1.36,0,0,0,.89-.5A3.94,3.94,0,0,0,39,90.79c.28-1.08.31-1.81.6-1.87a.26.26,0,0,1,.17,0c.27.17.15.68.17,1.39A2.18,2.18,0,0,0,40.42,92a.83.83,0,0,0,.73.2c.5-.11.75-.69.79-.79A3.6,3.6,0,0,0,42,89.85c0-.32,0-.41-.09-1.08s-.1-1.17-.09-1.28c0-.89.58-1.28.68-1.8C42.63,84.93,42.31,83.81,40.24,82.25Z"/><path class="cls-4" d="M15.44,81.86a2.23,2.23,0,0,0,.91,1c.82.43,1.54,0,3.49-.17.38,0,.69,0,.88,0a1.41,1.41,0,0,1,.62.87,1.22,1.22,0,0,1-.62,1.27c-.82.33-1.6,0-1.85.4-.08.14-.09.38.1.8.28.17.71.42,1.25.7s.6.28.86.44a2.43,2.43,0,0,1,1.21,1.37,1.17,1.17,0,0,1-.17.91c-.52.56-1.85-.13-2-.22a8,8,0,0,1-1-.65c-.44-.32-.79-.6-1-.79a.26.26,0,0,0-.21.09.36.36,0,0,0-.06.2,10.88,10.88,0,0,0,1,1.93c.19.35.86,1.58.45,2.32a1,1,0,0,1-.92.51,1.4,1.4,0,0,1-.89-.5,3.94,3.94,0,0,1-.82-1.86c-.29-1.08-.32-1.81-.6-1.88a.23.23,0,0,0-.18,0c-.27.16-.15.68-.17,1.39a2.18,2.18,0,0,1-.46,1.65.86.86,0,0,1-.73.2c-.5-.11-.75-.69-.79-.79a3.63,3.63,0,0,1-.05-1.55c0-.32,0-.41.09-1.08s.1-1.17.1-1.28c-.05-.89-.59-1.28-.69-1.81C13.05,84.55,13.37,83.43,15.44,81.86Z"/><path class="cls-9" d="M33,49.87s-.7-4.17-4.71-4.2A4.63,4.63,0,0,0,23.4,50s.81,0,4.54,0Z"/><path class="cls-10" d="M28.28,50.1a14.66,14.66,0,0,0,3.8-.56,8.58,8.58,0,0,0-4.18-.87,9.86,9.86,0,0,0-4,.83A11.21,11.21,0,0,0,28.28,50.1Z"/><path class="cls-11" d="M37.72,33.14c-.15-.07-7.16,2.22-6.68,4.27s6.82,1.33,7,1.19-4.89-.11-5.14-1.6S37.86,33.21,37.72,33.14Z"/><path class="cls-11" d="M18,33.14c.15-.07,7.16,2.22,6.68,4.27s-6.82,1.33-7,1.19,4.89-.11,5.14-1.6S17.84,33.21,18,33.14Z"/></g></svg>