<svg xmlns="http://www.w3.org/2000/svg" viewBox="0 0 56 133"><defs><style>.cls-1{fill:#1fb51f;}.cls-2{fill:#7dff7d;}.cls-3{fill:#ffd5be;}.cls-4{fill:#9e5147;}.cls-10,.cls-5{fill:#42210b;}.cls-5{opacity:0.09;}.cls-6{fill:#a78d8d;}.cls-7{fill:#fff;}.cls-8{fill:#002030;}.cls-9{fill:#19313a;}</style></defs><g id="Flo"><path class="cls-1" d="M37,59A219.77,219.77,0,0,1,47,93.1"/><path class="cls-1" d="M35.55,59.4a218.46,218.46,0,0,1,10,34.1c.41,1.89,3.3,1.09,2.9-.79a221.09,221.09,0,0,0-10-34.11c-.7-1.78-3.6-1-2.9.8Z"/><path class="cls-1" d="M10,89a169.73,169.73,0,0,1,7.72-29.36"/><path class="cls-1" d="M11.45,89.4A170.33,170.33,0,0,1,19.16,60c.65-1.82-2.25-2.61-2.89-.79A170,170,0,0,0,8.55,88.6c-.3,1.89,2.59,2.7,2.9.8Z"/><path class="cls-1" d="M19.39,129c-2.63-.86-5.09-.53-6.09.45a3.65,3.65,0,0,0-1,1.81,2.54,2.54,0,0,0,0,.9c.39,1.52,10.36,1,11.67.9a10.13,10.13,0,0,0,0-1.35,10.9,10.9,0,0,0-.51-2.71Z"/><polygon class="cls-2" points="23.93 102.7 23.58 129 20.12 129 20.12 102.7 23.93 102.7"/><path class="cls-1" d="M36.9,129c2.63-.86,5.09-.53,6.09.45a3.65,3.65,0,0,1,1,1.81,2.54,2.54,0,0,1,0,.9c-.39,1.52-10.37,1-11.67.9a10.13,10.13,0,0,1,0-1.35,10.9,10.9,0,0,1,.51-2.71Z"/><polygon class="cls-2" points="32.36 102.7 32.7 129 36.16 129 36.16 102.7 32.36 102.7"/><path class="cls-2" d="M25.55,105.3h4.52c6.11,0,11.11-6,11.11-13.21V66c0-7.27-5-13.22-11.11-13.22H25.55c-6.11,0-11.11,6-11.11,13.22V92.09C14.44,99.35,19.44,105.3,25.55,105.3Z"/><path class="cls-1" d="M37.14,105.3H18.32c-2.17,0-4-2.12-4-4.71V93.12c0-2.59,1.79-4.71,4-4.71H37.14c2.18,0,4,2.12,4,4.71v7.47C41.1,103.18,39.32,105.3,37.14,105.3Z"/><rect class="cls-2" x="14.39" y="76.55" width="26.73" height="18.69"/><ellipse class="cls-3" cx="27.55" cy="35.49" rx="13.46" ry="17.86"/><ellipse class="cls-3" cx="13.89" cy="36.02" rx="2.62" ry="4.36"/><ellipse class="cls-3" cx="41.01" cy="36.49" rx="2.62" ry="4.36"/><path class="cls-4" d="M29.28,42.28c-.55.5-1,1-1.72,1s-1.09-.42-1.48-1c-.07-.1-.24-.1-.22.06.22,1.86,3.07,1.63,3.45,0,0,0,0-.08,0,0Z"/><path class="cls-4" d="M14.86,36.48c0,.08,0,.21-.07.15-.24-.29-.43-.66-.67-.93a1.19,1.19,0,0,0-.78-.43,1.51,1.51,0,0,0-.08.89,3.72,3.72,0,0,0,.41,1.16,3.39,3.39,0,0,0,.51.55s0,.07,0,.08c-.66.11-1.35-1.68-1.25-2.6-.36.19-.62.67-.49,1.47,0,0,0,0,0,0C11.52,34.17,14.1,34,14.86,36.48Z"/><path class="cls-4" d="M40.38,37.18c0,.07,0,.21.07.14.24-.29.43-.66.67-.92A1.17,1.17,0,0,1,41.9,36a1.55,1.55,0,0,1,.08.9A3.76,3.76,0,0,1,41.57,38a3.39,3.39,0,0,1-.51.55s0,.08,0,.08c.66.12,1.35-1.68,1.25-2.6.36.19.62.68.49,1.48,0,0,0,0,0,0C43.72,34.87,41.14,34.67,40.38,37.18Z"/><path class="cls-5" d="M38,44c0,5-4.7,9-10.5,9S17,49,17,44"/><path class="cls-3" d="M11.77,88.49a2.34,2.34,0,0,0-.26,1.32c.11,1,.89,1.28,2.1,2.87.23.3.41.57.52.73a1.53,1.53,0,0,1-.38,1,1.16,1.16,0,0,1-1.39.21c-.74-.49-.88-1.36-1.37-1.32-.16,0-.37.13-.61.55,0,.33.06.84.13,1.46s.1.68.11,1a2.45,2.45,0,0,1-.45,1.83,1.11,1.11,0,0,1-.84.39c-.75-.12-.93-1.65-.95-1.85a10.23,10.23,0,0,1,0-1.18c0-.56.05-1,.08-1.34a.31.31,0,0,0-.2-.13.36.36,0,0,0-.19.07,11.12,11.12,0,0,0-1,2c-.18.36-.82,1.65-1.66,1.74a1,1,0,0,1-.94-.49,1.47,1.47,0,0,1-.09-1,4.28,4.28,0,0,1,1.07-1.78c.74-.87,1.32-1.32,1.21-1.6a.27.27,0,0,0-.13-.13c-.28-.13-.64.27-1.23.67s-1.09.72-1.63.57a.89.89,0,0,1-.58-.5,1.46,1.46,0,0,1,.21-1.13c.08-.12.22-.32,1.26-1l.94-.54c.68-.4,1-.6,1.11-.67.7-.55.72-1.24,1.1-1.63C8.21,88,9.31,87.65,11.77,88.49Z"/><path class="cls-3" d="M9.7,90.66s0,.13,0,.32,0,.16-.05.31a1.5,1.5,0,0,1-.31.87s-.17.14-.25.09,0-.22,0-.46a3.18,3.18,0,0,1,.22-.68,1.12,1.12,0,0,1,.3-.41C9.67,90.64,9.7,90.65,9.7,90.66Z"/><path class="cls-3" d="M10.27,90.65s0,.13,0,.32a1.92,1.92,0,0,1-.05.32,1.53,1.53,0,0,0,0,.92s.12.19.21.16.1-.2.13-.43a3.53,3.53,0,0,0,0-.72,1,1,0,0,0-.15-.49C10.31,90.64,10.28,90.65,10.27,90.65Z"/><path class="cls-3" d="M8.81,90.48s0,.13-.07.31a2.61,2.61,0,0,0-.06.32,1.46,1.46,0,0,1-.35.84s-.18.14-.25.08,0-.22,0-.45a2.85,2.85,0,0,1,.26-.67.94.94,0,0,1,.31-.4C8.78,90.45,8.8,90.47,8.81,90.48Z"/><path class="cls-3" d="M43.82,89.49a2.32,2.32,0,0,1,.31,1.27c-.08.93-.86,1.28-2,2.86-.22.31-.39.57-.5.73a1.49,1.49,0,0,0,.41,1,1.2,1.2,0,0,0,1.4.16c.72-.51.84-1.36,1.33-1.34.16,0,.37.12.62.51,0,.33,0,.82-.08,1.43s-.08.66-.08,1a2.38,2.38,0,0,0,.51,1.76,1.11,1.11,0,0,0,.85.34c.75-.14.89-1.63.9-1.83a10.24,10.24,0,0,0,0-1.15c0-.54-.08-1-.12-1.29a.28.28,0,0,1,.2-.13.33.33,0,0,1,.19,0,10.91,10.91,0,0,1,1.09,1.89c.19.35.87,1.58,1.72,1.62a1,1,0,0,0,.92-.5,1.36,1.36,0,0,0,0-1,3.81,3.81,0,0,0-1.12-1.69c-.77-.82-1.36-1.24-1.26-1.52a.2.2,0,0,1,.12-.12c.29-.15.66.24,1.26.6a2.28,2.28,0,0,0,1.64.5.93.93,0,0,0,.57-.52A1.31,1.31,0,0,0,52.46,93c-.08-.12-.23-.31-1.28-.88-.28-.16-.37-.19-1-.5s-1-.55-1.13-.61c-.73-.51-.77-1.18-1.16-1.54C47.37,88.91,46.25,88.58,43.82,89.49Z"/><path class="cls-3" d="M46,91.52s0,.13.06.31a2.65,2.65,0,0,1,.06.3,1.36,1.36,0,0,0,.34.83s.18.14.25.08,0-.22,0-.44a2.45,2.45,0,0,0-.25-.66.82.82,0,0,0-.31-.38C46,91.5,46,91.51,46,91.52Z"/><path class="cls-3" d="M45.39,91.53s0,.13.06.31,0,.16.06.31a1.4,1.4,0,0,1,0,.89s-.11.2-.2.17-.11-.19-.14-.42a2.92,2.92,0,0,1,0-.7.86.86,0,0,1,.14-.47C45.35,91.53,45.38,91.53,45.39,91.53Z"/><path class="cls-3" d="M46.85,91.31s0,.13.08.3a2.38,2.38,0,0,1,.07.31c.1.38.17.66.38.81,0,0,.18.12.25.06s0-.21-.05-.44a3.08,3.08,0,0,0-.27-.64,1.06,1.06,0,0,0-.33-.37C46.88,91.29,46.86,91.3,46.85,91.31Z"/><path class="cls-6" d="M38.49,28.51c-.62.17-1.22.26-1.79.41a21.25,21.25,0,0,0-2.15-5A19.61,19.61,0,0,0,33,21.11a6.32,6.32,0,0,1,5.38,3.2,22.6,22.6,0,0,1,2.33,8.05l0,.31c-.38.09-.76.2-1.17.27C39.26,31.49,38.85,30,38.49,28.51Z"/><path class="cls-7" d="M33.6,33a3,3,0,0,0-2.86,2.24c-.53,1.94.52,3.83,2.83,3.75,2.47-.08,3.36-1.73,3.1-3.27A3,3,0,0,0,33.6,33Z"/><path class="cls-8" d="M30.69,35.55a3.07,3.07,0,0,1,3.48-2.19,2.86,2.86,0,0,1,1.56,1c.42.57.47,1.3.86,1.87.07.09.23.15.29,0a2.58,2.58,0,0,0-.71-2.46,3.43,3.43,0,0,0-2.09-1.13,3.22,3.22,0,0,0-2.28.55,3,3,0,0,0-1.17,2.3c0,.06,0,.1.06,0Z"/><ellipse class="cls-9" cx="33.47" cy="36.37" rx="2.22" ry="2.5" transform="translate(-0.13 0.12) rotate(-0.21)"/><path class="cls-7" d="M32.41,37.55a.76.76,0,0,0,.72.79.75.75,0,0,0,.7-.8.76.76,0,0,0-.71-.8A.78.78,0,0,0,32.41,37.55Z"/><path class="cls-7" d="M21.8,32.94a3,3,0,0,1,2.79,2.26c.51,2-.51,3.87-2.76,3.8-2.41-.09-3.28-1.76-3-3.31A3,3,0,0,1,21.8,32.94Z"/><path class="cls-8" d="M24.63,35.55a3,3,0,0,0-3.38-2.21,2.68,2.68,0,0,0-1.53,1c-.41.58-.46,1.32-.84,1.9-.06.09-.22.15-.28,0a2.64,2.64,0,0,1,.69-2.49,3.36,3.36,0,0,1,2-1.15,2.92,2.92,0,0,1,3.37,2.89c0,.06-.05.09-.07,0Z"/><ellipse class="cls-9" cx="21.92" cy="36.37" rx="2.53" ry="2.17" transform="translate(-14.52 58.19) rotate(-89.84)"/><path class="cls-7" d="M23,37.57a.7.7,0,1,1-.69-.81A.75.75,0,0,1,23,37.57Z"/><path class="cls-6" d="M16.68,27.78c.62.17,1.21.26,1.78.41a21.68,21.68,0,0,1,2.15-5,18.77,18.77,0,0,1,1.53-2.83,6.31,6.31,0,0,0-5.38,3.2,22.85,22.85,0,0,0-2.34,8.05l0,.31c.38.09.76.2,1.17.27C15.91,30.76,16.32,29.28,16.68,27.78Z"/><path class="cls-4" d="M31.72,47.53a6.58,6.58,0,0,0-7.94.32c-.22.2.17.45.36.28,2-1.86,5.34-1.68,7.53-.41.12.07.13-.13,0-.19Z"/><path class="cls-10" d="M14.4,28c.6,2.47,3.59,1.23,4.69.27,1.6-1.37,1.4-1.51,3.2-1.37,1.4,0,2.29-.69,3.29-1.92,2.2,3.15,8.19,7.54,10.88,2.74,1,4.39,5.4,3.43,7.39,1,3.5-4.25-1.89-4.53-4.19-4.53,1.2-1.78,3.49-2.47,3.89-5.21-1.89.14-3.79,1-5.69,1.1.6-.55,4.3-3.85,3-5.22-.4-.41-3.7,2.06-4.69,1.79-2-.55-2.8-3.16-4.9-3.43a6.5,6.5,0,0,0-4.89,2.19,20,20,0,0,1,2-4.39c-1.9.27-2.8,2.74-4.2,4.25-1.59,1.65-3.19,2.06-5.09,2.89-2.89,1.23-5,5.07-5.09,9.19Z"/></g></svg>