<?xml version="1.0" encoding="utf-8"?>
<!-- Generator: Adobe Illustrator 24.2.1, SVG Export Plug-In . SVG Version: 6.00 Build 0)  -->
<svg version="1.1" xmlns="http://www.w3.org/2000/svg" xmlns:xlink="http://www.w3.org/1999/xlink" x="0px" y="0px"
	 viewBox="0 0 1043 2437" style="enable-background:new 0 0 1043 2437;" xml:space="preserve">
<style type="text/css">
	.st0{fill:#A56399;}
	.st1{fill:#FFD5BE;}
	.st2{fill:#D67CBF;}
	.st3{fill:#280906;}
	.st4{fill:#9E5147;}
	.st5{fill:#FFFFFF;}
	.st6{fill:#002030;}
	.st7{fill:#19313A;}
	.st8{fill:#FCA39A;}
</style>
<g id="Ebene_1">
	<g id="Arme">
		<path class="st0" d="M432.1,868c-186.9,52.4-306.6,180.6-335.3,294.6C68.6,1275.2,76.6,1423,76.6,1423c1.1,19.8,2.5,36.2,3.6,46.9
			l74,12.6c-9.1-60.8-16.8-158.2,9.6-257.7c62.6-236.8,262.6-278,292.3-283.4L432.1,868z"/>
		<path class="st1" d="M150.7,1438.4c1.2,12.4,5.6,19.5,9.1,23.7c12,14,29.9,11.4,68.6,24.7c7.5,2.6,13.5,4.9,17.2,6.5
			c1.4,2.1,6.7,10.8,4,20.1c-3.1,10.7-14.9,17.5-23.3,17.3c-18.6-0.6-30.4-13-39-7.5c-2.8,1.8-5.2,5.8-5.2,14.8
			c3.8,5.1,9.9,12.9,17.8,22c7.7,8.8,9,9.7,12.4,14.5c5.9,8.3,14.5,20.7,11.1,33.6c-0.3,1.3-3.2,11.4-11.4,14.5
			c-15,5.6-34.4-16.9-37-19.8c-3.2-3.8-6.4-8.8-12.6-18.8c-5.6-9.1-9.9-16.7-12.8-22c-2.7-1.4-6.1-0.3-7.5,2.4
			c-0.1,0.2-0.2,0.3-0.2,0.5c-2.8,5.7,1.6,34,2.2,41.7s2.4,34.5-12.2,44.2c-6.7,4.2-15,4.8-22.3,1.6c-7.8-3.7-10.9-11.4-12.6-15.8
			c-1.5-3.8-4.4-13.3,0.8-38.9c4.3-21.2,10.2-34.1,5.2-37.6c-1.1-0.7-2.5-0.9-3.8-0.7c-6.6,0.7-8.9,10.7-15.6,22.9
			c-5.6,10.3-12.2,22.3-23.6,25.3c-1,0.2-9.2,2.3-15.9-2.3c-8.5-5.9-8.1-18.1-8.1-20c0.1-2.6,0.6-7.3,12.9-27.6
			c3.3-5.4,4.3-6.8,11.4-18.1c8.3-13.1,12.4-19.7,13.3-21.6c7.1-15.9,0.2-27,3-37C80.8,1466.5,96.9,1449.5,150.7,1438.4z"/>
		<path class="st1" d="M135.8,1493.4c0.9,0.1,1.2,2.2,2.4,5.6c0.9,2.5,1.3,2.9,2.4,5.6c3,7,5.2,12.2,3.4,16.8
			c-0.1,0.2-1.6,4-3.5,3.9c-1.7-0.1-2.9-3.2-4.5-7.4c-1.6-4.2-2.6-8.6-3.1-13.1c-0.3-3.2-0.4-6.4,1.1-9.4
			C135,1493.4,135.6,1493.4,135.8,1493.4z"/>
		<path class="st1" d="M146.1,1487.7c-0.6,0.7,0.8,2.4,2.5,5.6c1.2,2.4,1.2,2.9,2.4,5.6c3.1,6.9,5.5,12.1,10.3,14.3
			c0.2,0.1,4.1,1.9,5.5,0.5c1.2-1.2-0.3-4.2-2.3-8.2c-2.1-4.1-4.6-7.9-7.7-11.4c-2.2-2.6-4.6-4.8-8-6.1
			C146.7,1487.2,146.2,1487.6,146.1,1487.7z"/>
		<path class="st1" d="M117.4,1499.5c0.9,0.2,1.1,2.3,2.2,5.7c0.8,2.5,1.1,2.9,2.1,5.7c2.6,7.1,4.6,12.4,2.6,17
			c-0.1,0.2-1.8,3.9-3.7,3.7c-1.7-0.2-2.8-3.3-4.2-7.6c-1.4-4.3-2.2-8.7-2.4-13.2c-0.2-3.2-0.1-6.4,1.6-9.4
			C116.6,1499.4,117.3,1499.5,117.4,1499.5z"/>
	</g>
	<g id="Layer_13">
		<path class="st0" d="M562.8,879.4c190.2,39.2,318.5,158.7,355.1,270.4c36.1,110.3,38.5,258.4,38.5,258.4c0.3,19.8,0,36.3-0.3,47
			l-72.9,17.9c4.8-61.3,5.6-159-27.6-256.3c-79.1-231.9-281.5-258.9-311.5-262.2L562.8,879.4z"/>
		<path class="st1" d="M883.5,1428.7c-0.3,12.4-4.2,19.9-7.4,24.2c-11,14.8-29,13.5-66.7,29.4c-7.3,3.1-13.1,5.9-16.7,7.7
			c-1.2,2.2-6,11.2-2.6,20.3c3.9,10.5,16.1,16.5,24.4,15.6c18.5-1.9,29.4-15.1,38.4-10.2c2.9,1.6,5.6,5.4,6.2,14.4
			c-3.5,5.4-8.9,13.6-16.2,23.2c-7,9.4-8.3,10.3-11.4,15.3c-5.3,8.7-13,21.6-8.7,34.3c0.4,1.2,4,11.2,12.3,13.6
			c15.4,4.5,33.2-19.3,35.5-22.4c3-4,5.7-9.2,11.2-19.6c5-9.4,8.7-17.4,11.2-22.8c1.5-0.8,3.3-0.9,5-0.4c1.3,0.6,2.3,1.6,3,2.8
			c3.2,5.5,0.8,34,0.8,41.7s0,34.6,15.3,43.2c7,3.7,15.3,3.7,22.3,0c7.5-4.2,10.1-12.1,11.5-16.7c1.2-4,3.5-13.6-3.5-38.8
			c-5.7-20.8-12.5-33.3-7.9-37.1c1.1-0.8,2.4-1.1,3.7-1c6.7,0.2,9.6,10.1,17.1,21.7c6.3,9.9,13.8,21.4,25.3,23.6
			c1,0.2,9.4,1.7,15.7-3.4c8.1-6.5,6.8-18.6,6.7-20.6c-0.3-2.6-1.1-7.2-14.8-26.7c-3.6-5.2-4.8-6.5-12.6-17.2
			c-9.2-12.5-13.8-18.8-14.8-20.6c-8.2-15.3-2.1-27-5.5-36.7C955.3,1451.8,938,1436,883.5,1428.7z"/>
		<path class="st1" d="M902.3,1482.5c-0.9,0.2-1.1,2.3-2,5.7c-0.7,2.6-1.1,3-2,5.7c-2.5,7.2-4.3,12.5-2.2,17
			c0.1,0.2,1.8,3.9,3.8,3.6c1.7-0.2,2.7-3.4,4-7.7c1.3-4.3,2-8.7,2.1-13.2c0.1-3.3-0.1-6.4-1.8-9.3
			C903.1,1482.4,902.4,1482.5,902.3,1482.5z"/>
		<path class="st1" d="M891.6,1477.5c0.6,0.6-0.6,2.5-2.1,5.7c-1.1,2.4-1,3-2.1,5.7c-2.7,7.1-4.6,12.4-9.2,15
			c-0.2,0.1-4,2.2-5.4,0.9c-1.2-1.1,0-4.2,1.7-8.3c1.8-4.2,4.1-8.2,6.8-11.9c2-2.7,4.2-5.2,7.5-6.7
			C891,1477,891.5,1477.4,891.6,1477.5z"/>
		<path class="st1" d="M921,1487.3c-0.9,0.2-1,2.4-1.7,5.8c-0.6,2.6-0.9,3-1.7,5.8c-2.1,7.3-3.7,12.7-1.4,17.1c0.1,0.2,2,3.8,4,3.4
			c1.7-0.3,2.5-3.5,3.6-7.8c1.1-4.4,1.6-8.8,1.5-13.3c-0.1-3.2-0.4-6.4-2.3-9.2C921.8,1487.2,921.2,1487.2,921,1487.3z"/>
	</g>
	<g id="Layer_11">
		<path class="st0" d="M580.3,2311.4c-60.3-15.1-116.6-9.4-139.4,8c-19.5,14.9-23.2,31.9-23.2,31.9c-1.6,7.5-0.7,14,0,16
			c9,26.9,237.2,17.3,267.1,16c0.6-8,0.6-16,0-23.9c-1.4-16.5-5.3-32.6-11.6-47.9L580.3,2311.4z"/>
		<polygon class="st2" points="573.1,1768.1 581.6,2312.9 666.4,2312.9 666.4,1768.1 		"/>
	</g>
	<g id="Layer_12">
		<path class="st0" d="M372.3,2309.6c-58.4-15.3-112.8-9.5-134.9,8.1c-18.9,15-22.5,32.3-22.5,32.3c-1.6,7.6-0.6,14.2,0,16.1
			c8.8,27.2,229.6,17.5,258.5,16.1c0.6-8.1,0.6-16.1,0-24.2c-1.3-16.6-5.1-32.9-11.2-48.4H372.3z"/>
		<polygon class="st2" points="371.8,1771.1 380.1,2310.6 463.5,2310.6 463.5,1771.1 		"/>
	</g>
	<g id="Layer_2">
		<path class="st2" d="M513.6,1832.8L513.6,1832.8c153.1,0,278.4-121,278.4-268.9v-506.3c0-147.9-125.3-268.9-278.4-268.9l0,0
			c-153.1,0-278.4,121-278.4,268.9v506.3C235.2,1711.8,360.5,1832.8,513.6,1832.8z"/>
		<path class="st0" d="M669.7,1832.8H354.3c-66.4,0-120.7-52.4-120.7-116.6v-103c0-64.1,54.3-116.6,120.7-116.6h315.4
			c66.4,0,120.7,52.4,120.7,116.6v103C790.4,1780.3,736.1,1832.8,669.7,1832.8z"/>
		<rect x="234.2" y="1260.7" class="st2" width="556.7" height="371.9"/>
	</g>
	<g id="Layer_1">
		<path class="st3" d="M799.4,452.4c0,0,64.2-8.6,65.6-145.4c1.8-177.4-224.9-364.4-477.8-185.5c-139.1-33.6-236.4,81.6-228.4,239.6
			c9.2,182.1,6.3,347.1,131.9,388S505,764.3,505,764.3L799.4,452.4z"/>
		<path class="st3" d="M239.9,453.8c0,0-64.7-8.6-66.1-145.4C172.1,131,400.3-56,654.8,122.9c140.1-33.6,238,81.6,230,239.6
			c-9.2,182.1-6.3,347.1-132.8,388s-215.7,15.3-215.7,15.3L239.9,453.8z"/>
		<ellipse class="st1" cx="517.5" cy="464.9" rx="312.5" ry="348.8"/>
		<ellipse class="st1" cx="205" cy="464.9" rx="60.9" ry="85.3"/>
		<ellipse class="st1" cx="829.9" cy="464.9" rx="60.9" ry="85.3"/>
		<path class="st3" d="M531.6,77.2c0,0-44.8,229.8-323.8,343.6c0,0,2.9-158.5,89.4-263.6S531.6,77.2,531.6,77.2z"/>
		<path class="st3" d="M866,337c-10.7,75-61.6,116.2-70,102.1s4.1-79.2,0-99L866,337"/>
		<path class="st3" d="M490.6,112.8c0,0,47.7,203.1,344.5,303.6c0,0-3.1-140.1-95.2-232.9S490.6,112.8,490.6,112.8z"/>
		<path class="st3" d="M173,348.4c10.6,75,61.6,116.2,70,102.1s-4.1-79.2,0-99L173,348.4"/>
		<polygon class="st2" points="785.6,419.6 749,383.9 821.8,312.9 858.4,348.6 		"/>
		<polygon class="st2" points="249.7,419.6 286.3,383.9 213.5,312.9 176.9,348.6 		"/>
		<path class="st3" d="M869.4,711.3c-6,27.3-20.7,64.9-44.7,79.3s-83.9-52.2-61.8-101.3c12.4-27.6,40.4-40.7,54.9-42.6
			S877.3,675.8,869.4,711.3z"/>
		<path class="st3" d="M877.7,832c-6,27.3-20.7,65-44.7,79.3s-83.9-52.2-61.8-101.3c12.4-27.6,40.4-40.7,54.9-42.6
			S885.5,796.6,877.7,832z"/>
		<path class="st3" d="M887.7,961.4c-6,27.3-20.7,64.9-44.7,79.3s-83.9-52.2-61.8-101.3c12.4-27.6,40.4-40.7,54.9-42.6
			S895.5,925.9,887.7,961.4z"/>
		<path class="st3" d="M270.8,713.6c-3.4,27.8-14.5,66.6-36.9,83.1s-88.5-44-71.2-95c9.8-28.7,36.4-44.4,50.6-47.7
			S275.2,677.5,270.8,713.6z"/>
		<path class="st3" d="M274,834.6c-3.4,27.8-14.5,66.6-36.9,83.1s-88.5-44-71.2-95c9.8-28.7,36.4-44.4,50.6-47.7
			S278.5,798.5,274,834.6z"/>
		<path class="st3" d="M270.9,956.7c-3.4,27.8-14.5,66.6-36.9,83.1c-22.4,16.5-88.5-44-71.2-95c9.8-28.7,36.4-44.4,50.6-47.7
			S275.3,920.6,270.9,956.7z"/>
		<path class="st4" d="M549.7,557c-13.5,9.7-23.2,19.2-41.8,19.6c-17.1,0.3-26.4-8-35.9-19.7c-1.6-2-5.8-2-5.3,1.2
			c5.3,35.6,74.4,31.2,83.8,0C550.7,557.6,550.4,556.5,549.7,557L549.7,557z"/>
		<path class="st4" d="M814.8,481.9c-0.5,1.7,0.3,4.9,1.6,3.3c5.4-6.7,9.8-15.5,15.4-21.6c6-6.7,12.1-9.7,17.9-10.1
			c1.9,6,3.8,10.5,1.9,21c-1.6,9-5,19.5-9.4,27c-3.4,5.9-7.8,8.5-11.7,12.9c-0.3,0.3-0.8,1.8-0.3,1.9c15.3,2.7,31-39.4,28.9-60.8
			c8.3,4.4,14.1,15.7,11.3,34.5c-0.1,0.9,0.4,0.5,0.6-0.1C891.7,427.8,832.3,423.3,814.8,481.9z"/>
		<path class="st4" d="M221.3,481.9c0.5,1.7-0.3,4.9-1.6,3.3c-5.4-6.7-9.8-15.5-15.4-21.6c-6-6.7-12.1-9.7-17.9-10.1
			c-1.9,6-3.8,10.5-1.9,21c1.6,9,5,19.5,9.4,27c3.4,5.9,7.8,8.5,11.7,12.9c0.3,0.3,0.7,1.8,0.3,1.9c-15.3,2.7-31.1-39.4-29-60.8
			c-8.3,4.4-14.1,15.7-11.3,34.5c0.1,0.9-0.4,0.5-0.6-0.1C144.5,427.8,203.8,423.3,221.3,481.9z"/>
	</g>
	<g id="eyes_straight">
		<path class="st5" d="M657.5,391.5c-23.2-0.2-57.6,14-67.7,48.5c-12.3,42,12.4,82.9,66.8,81.3c58.5-1.8,79.4-37.5,73.3-70.9
			C723.5,414.6,698.2,391.9,657.5,391.5z"/>
		<path class="st6" d="M588.8,447.4c11.1-33.8,48.7-54.5,82-47.4c13.5,2.9,28,10.7,36.8,21.7c9.9,12.4,11.2,28.3,20.5,40.6
			c1.5,2,5.3,3.1,6.7,0.4c8.8-17.5-4.6-40.6-16.7-53.3c-12.6-13.3-31.5-22.3-49.3-24.5c-18.2-2.3-38.3,1.8-53.9,11.9
			c-18.8,12.2-24.2,28.2-27.6,50C587.1,448,588.3,448.8,588.8,447.4L588.8,447.4z"/>
		
			<ellipse transform="matrix(1.343857e-02 -0.9999 0.9999 1.343857e-02 170.3157 1106.6488)" class="st7" cx="646" cy="467" rx="54.2" ry="52.4"/>
		<path class="st5" d="M604,470c0.1-9.6,7.6-17.3,16.9-17.2s16.7,7.9,16.6,17.4s-7.6,17.3-16.9,17.2S603.9,479.6,604,470z"/>
		<path class="st5" d="M378.8,391.5c23.2-0.2,57.6,14,67.7,48.5c12.3,42-12.4,82.9-66.8,81.3c-58.5-1.8-79.4-37.5-73.3-70.9
			C312.9,414.6,338.1,391.9,378.8,391.5z"/>
		<path class="st6" d="M447.5,447.4c-11.1-33.8-48.7-54.5-82-47.4c-13.5,2.9-28,10.7-36.8,21.7c-9.9,12.4-11.2,28.3-20.5,40.6
			c-1.5,2-5.3,3.1-6.7,0.4c-8.8-17.5,4.6-40.6,16.7-53.3c12.6-13.3,31.5-22.3,49.3-24.5c18.2-2.3,38.3,1.8,53.9,11.9
			c18.8,12.2,24.2,28.2,27.6,50C449.2,448,448,448.8,447.5,447.4L447.5,447.4z"/>
		
			<ellipse transform="matrix(0.9999 -1.343863e-02 1.343863e-02 0.9999 -6.2408 5.2877)" class="st7" cx="390.3" cy="467" rx="52.4" ry="54.2"/>
		<path class="st5" d="M432.3,470c-0.1-9.6-7.6-17.3-16.9-17.2s-16.7,7.9-16.6,17.4s7.6,17.3,16.9,17.2S432.4,479.6,432.3,470z"/>
	</g>
	<g id="eyes_right">
		<path class="st5" d="M657.5,391.5c-23.2-0.2-57.6,14-67.7,48.5c-12.3,42,12.4,82.9,66.8,81.3c58.5-1.8,79.4-37.5,73.3-70.9
			C723.5,414.6,698.2,391.9,657.5,391.5z"/>
		<path class="st6" d="M588.8,447.4c11.1-33.8,48.7-54.5,82-47.4c13.5,2.9,28,10.7,36.8,21.7c9.9,12.4,11.2,28.3,20.5,40.6
			c1.5,2,5.3,3.1,6.7,0.4c8.8-17.5-4.6-40.6-16.7-53.3c-12.6-13.3-31.5-22.3-49.3-24.5c-18.2-2.3-38.3,1.8-53.9,11.9
			c-18.8,12.2-24.2,28.2-27.6,50C587.1,448,588.3,448.8,588.8,447.4L588.8,447.4z"/>
		
			<ellipse transform="matrix(1.343857e-02 -0.9999 0.9999 1.343857e-02 195.1539 1115.5067)" class="st7" cx="662.9" cy="458.9" rx="54.2" ry="52.4"/>
		<path class="st5" d="M671.7,453.7c0.1-9.6,7.6-17.3,16.9-17.2s16.7,7.9,16.6,17.4s-7.6,17.3-16.9,17.2S671.6,463.2,671.7,453.7z"
			/>
		<path class="st5" d="M378.8,391.5c23.2-0.2,57.6,14,67.7,48.5c12.3,42-12.4,82.9-66.8,81.3c-58.5-1.8-79.4-37.5-73.3-70.9
			C312.9,414.6,338.1,391.9,378.8,391.5z"/>
		<path class="st6" d="M447.5,447.4c-11.1-33.8-48.7-54.5-82-47.4c-13.5,2.9-28,10.7-36.8,21.7c-9.9,12.4-11.2,28.3-20.5,40.6
			c-1.5,2-5.3,3.1-6.7,0.4c-8.8-17.5,4.6-40.6,16.7-53.3c12.6-13.3,31.5-22.3,49.3-24.5c18.2-2.3,38.3,1.8,53.9,11.9
			c18.8,12.2,24.2,28.2,27.6,50C449.2,448,448,448.8,447.5,447.4L447.5,447.4z"/>
		
			<ellipse transform="matrix(0.9999 -1.343863e-02 1.343863e-02 0.9999 -6.1315 5.2218)" class="st7" cx="385.5" cy="458.8" rx="52.4" ry="54.2"/>
		<path class="st5" d="M432.3,453.7c-0.1-9.6-7.6-17.3-16.9-17.2s-16.7,7.9-16.6,17.4s7.6,17.3,16.9,17.2S432.4,463.2,432.3,453.7z"
			/>
	</g>
</g>
<g id="Ebene_2">
	<path class="st8" d="M294.5,601c1.4-28.3,25.4-50.1,53.6-48.8c26.9-2.5,50.8,17.3,53.3,44.2c2.5,26.9-17.3,50.8-44.2,53.3
		c-3,0.3-6.1,0.3-9.1,0C319.8,651.1,295.8,629.3,294.5,601z"/>
	<path class="st8" d="M638.5,594.9c-2.8-29.6,18.9-55.9,48.5-58.7c29.6-2.8,55.9,18.9,58.7,48.5c2.8,29.6-18.9,55.9-48.5,58.7
		c-1.7,0.2-3.4,0.2-5,0.2C663.9,644.9,640,623.1,638.5,594.9z"/>
	<path class="st4" d="M549,556.5c-11.1,10.8-25.5,17.5-41,19c-14.2,0.1-27.5-7.2-35-19.2c-1.7-1.9-5.7-1.9-5.3,1.1
		c5.3,35,72.8,30.6,82.1,0c0,0,0-1.5,0,0L549,556.5z"/>
	<path class="st5" d="M654.4,394.6c-30-0.2-56.7,18.9-66.3,47.3c-12,42.2,12,81.3,65.4,79.6c57.2-1.7,77.7-36.7,71.8-69.5
		C720.5,417.2,689.5,392,654.4,394.6z"/>
	<path class="st6" d="M587.2,449.3c11.4-33.2,45.4-53.2,80-46.9c14,2.9,26.7,10.4,36.1,21.1c9.7,12,11,27.7,21.1,39.7
		c1.5,1.9,5.3,3.2,6.5,0c8.7-17.1-4.4-39.7-16.3-52.1c-13-13.1-29.9-21.5-48.1-24.1c-18.4-2.3-37,1.8-52.8,11.6
		c-16.1,11.2-26.1,29.3-27,49c0,1.3,1.1,1.9,1.5,0L587.2,449.3z"/>
	
		<ellipse transform="matrix(1.343857e-02 -0.9999 0.9999 1.343857e-02 166.1225 1105.1278)" class="st7" cx="643.1" cy="468.4" rx="53" ry="51.3"/>
	<path class="st5" d="M602,471.4c0.2-9.1,7.8-16.3,16.9-16s16.3,7.8,16,16.9c-0.2,9-7.7,16.2-16.7,16c-9.1-0.1-16.4-7.6-16.3-16.7
		C602,471.6,602,471.5,602,471.4z"/>
	<path class="st5" d="M381.8,394.6c30.1-0.4,57.1,18.7,66.7,47.3c11.1,31.3-5.3,65.7-36.7,76.8c-9.2,3.3-19.1,4.2-28.8,2.8
		c-57.2-1.7-77.7-36.7-71.8-69.5C316.1,417.3,346.9,392.3,381.8,394.6z"/>
	<path class="st6" d="M448.6,449.3c-11.6-33.2-45.7-52.9-80.2-46.4c-13.9,3-26.5,10.4-35.9,21.1c-9.7,12-11,27.7-20.1,39.7
		c-1.5,1.9-5.3,3.2-6.5,0c-8.7-17.1,4.4-39.7,16.3-52.1c13-13.1,29.9-21.5,48.1-24.1c18.4-2.2,37,1.9,52.8,11.6
		c16.1,11.2,26.1,29.3,27,49c0,1.3-1.1,1.9-1.5,0L448.6,449.3z"/>
	
		<ellipse transform="matrix(0.9999 -1.343863e-02 1.343863e-02 0.9999 -6.259 5.3245)" class="st7" cx="393.1" cy="468.4" rx="51.3" ry="53"/>
	<path class="st5" d="M434.2,471.4c-0.2-9.1-7.8-16.3-16.9-16c-9.1,0.2-16.3,7.8-16,16.9c0.2,9,7.7,16.2,16.7,16
		C427.1,488.1,434.3,480.6,434.2,471.4z"/>
	<path class="st5" d="M654.4,394.6c-30-0.2-56.7,18.9-66.3,47.3c-12,42.2,12,81.3,65.4,79.6c57.2-1.7,77.7-36.7,71.8-69.5
		C720.5,417.2,689.5,392,654.4,394.6z"/>
	<path class="st6" d="M587.2,449.3c11.4-33.2,45.4-53.2,80-46.9c14,2.9,26.7,10.4,36.1,21.1c9.7,12,11,27.7,21.1,39.7
		c1.5,1.9,5.3,3.2,6.5,0c8.7-17.1-4.4-39.7-16.3-52.1c-13-13.1-29.9-21.5-48.1-24.1c-18.4-2.3-37,1.8-52.8,11.6
		c-16.1,11.2-26.1,29.3-27,49c0,1.3,1.1,1.9,1.5,0L587.2,449.3z"/>
	
		<ellipse transform="matrix(1.343564e-02 -0.9999 0.9999 1.343564e-02 190.2959 1113.7936)" class="st7" cx="659.6" cy="460.5" rx="53" ry="51.3"/>
	<path class="st5" d="M668.3,455.4c0.4-9.1,8-16.2,17.1-15.8c9.1,0.4,16.2,8,15.8,17.1c-0.3,8.9-7.7,15.9-16.7,15.8
		C675.4,472.3,668.1,464.6,668.3,455.4C668.3,455.4,668.3,455.4,668.3,455.4z"/>
	<path class="st5" d="M381.8,394.6c30.1-0.4,57.1,18.7,66.7,47.3c11.1,31.3-5.3,65.7-36.7,76.8c-9.2,3.3-19.1,4.2-28.8,2.8
		c-57.2-1.7-77.7-36.7-71.8-69.5C316.1,417.3,346.9,392.3,381.8,394.6z"/>
	<path class="st6" d="M448.6,449.3c-11.6-33.2-45.7-52.9-80.2-46.4c-13.9,3-26.5,10.4-35.9,21.1c-9.7,12-11,27.7-20.1,39.7
		c-1.5,1.9-5.3,3.2-6.5,0c-8.7-17.1,4.4-39.7,16.3-52.1c13-13.1,29.9-21.5,48.1-24.1c18.4-2.2,37,1.9,52.8,11.6
		c16.1,11.2,26.1,29.3,27,49c0,1.3-1.1,1.9-1.5,0L448.6,449.3z"/>
	
		<ellipse transform="matrix(0.9999 -1.343863e-02 1.343863e-02 0.9999 -6.1525 5.2599)" class="st7" cx="388.3" cy="460.4" rx="51.3" ry="53"/>
	<path class="st5" d="M434.2,455.4c-0.4-9.1-8-16.2-17.1-15.8c-9.1,0.4-16.2,8-15.8,17.1c0.3,8.9,7.7,15.9,16.7,15.8
		C427.1,472,434.2,464.5,434.2,455.4z"/>
	<path class="st5" d="M381.6,393.7c29.8,0,56,19.6,64.6,48.1c11.4,31.2-4.6,65.8-35.9,77.2c-8.8,3.2-18.2,4.3-27.5,3.3
		c-55.7-1.9-75.6-37.2-69.9-70.3C317,417.6,347,392.1,381.6,393.7z"/>
	<path class="st6" d="M447.3,449.1c-10.8-32.9-44.2-52.8-78.3-46.7c-13.7,3-26,10.4-35,21.1c-9.5,12.2-10.8,28.1-19.6,40.3
		c-1.5,1.9-5.1,3-6.3,0c-8.4-17.5,4.4-40.3,15.8-52.8c12.4-13.3,29.1-21.8,47.1-24.3c18-2.3,36.2,1.8,51.5,11.6
		c16.1,11.7,25.8,30.3,26.2,50.2c0,1.1-1.1,1.9-1.5,0L447.3,449.1z"/>
	
		<ellipse transform="matrix(6.457721e-03 -1 1 6.457721e-03 -84.5333 848.2937)" class="st7" cx="384.6" cy="466.7" rx="53.6" ry="50"/>
	<path class="st5" d="M408.4,491.9c1,8.8-5.3,16.8-14.1,17.8c-8.8,1-16.8-5.3-17.8-14.1c-0.1-1.2-0.1-2.5,0-3.7
		c-1-8.8,5.3-16.8,14.1-17.8c8.8-1,16.8,5.3,17.8,14.1C408.6,489.5,408.6,490.7,408.4,491.9z"/>
	<path class="st5" d="M654.4,394.6c-30-0.2-56.7,18.9-66.3,47.3c-12,42.2,12,81.3,65.4,79.6c57.2-1.7,77.7-36.7,71.8-69.5
		C720.5,417.2,689.5,392,654.4,394.6z"/>
	<path class="st6" d="M587.2,449.3c11.4-33.2,45.4-53.2,80-46.9c14,2.9,26.7,10.4,36.1,21.1c9.7,12,11,27.7,21.1,39.7
		c1.5,1.9,5.3,3.2,6.5,0c8.7-17.1-4.4-39.7-16.3-52.1c-13-13.1-29.9-21.5-48.1-24.1c-18.4-2.3-37,1.8-52.8,11.6
		c-16.1,11.2-26.1,29.3-27,49c0,1.3,1.1,1.9,1.5,0L587.2,449.3z"/>
	
		<ellipse transform="matrix(0.9999 -1.343863e-02 1.343863e-02 0.9999 -6.2117 8.796)" class="st7" cx="651.4" cy="466.6" rx="51.3" ry="53"/>
	<path class="st5" d="M626.9,491.5c0.4,9.1,8,16.2,17.1,15.8c9.1-0.4,16.2-8,15.8-17.1c-0.3-8.9-7.7-15.9-16.7-15.8
		C634,474.6,626.7,482.3,626.9,491.5C626.9,491.5,626.9,491.5,626.9,491.5z"/>
	<g id="Diandra">
		<path class="st4" d="M599.5,686.1c-51.2-35.4-119.6-32.6-167.8,6.8c-4.4,4.2,3.6,9.7,7.6,5.9c42.2-39.3,112.9-35.3,159.2-8.4
			c2.5,1.5,2.5-2.7,0-4.2L599.5,686.1z"/>
	</g>
</g>
</svg>
