<svg xmlns="http://www.w3.org/2000/svg" viewBox="0 0 1043 2437"><defs><style>.cls-1{fill:#a56399;}.cls-2{fill:#ffd5be;}.cls-3{fill:#d67cbf;}.cls-4{fill:#280906;}.cls-5{fill:#fca39a;}.cls-6{fill:#9e5147;}.cls-7{fill:#fff;}.cls-8{fill:#002030;}.cls-9{fill:#19313a;}</style></defs><g id="Arme"><path class="cls-1" d="M432.14,868C245.2,920.38,125.51,1048.62,96.88,1162.56,68.6,1275.15,76.6,1423,76.59,1423c1.08,19.83,2.53,36.22,3.58,46.91l74,12.64c-9.12-60.77-16.75-158.17,9.55-257.65C226.31,988.1,426.36,946.9,456,941.48Z"/><path class="cls-2" d="M150.72,1438.38c1.18,12.39,5.56,19.53,9.11,23.67,12,14,29.92,11.44,68.62,24.68,7.47,2.56,13.46,4.93,17.21,6.47,1.38,2.11,6.74,10.76,4,20.11-3.12,10.7-14.89,17.54-23.28,17.29-18.61-.57-30.4-13-39-7.47-2.78,1.8-5.2,5.8-5.22,14.76,3.84,5.13,9.85,12.89,17.76,22,7.67,8.85,9,9.68,12.44,14.51,5.87,8.3,14.53,20.67,11.09,33.57-.34,1.27-3.2,11.42-11.35,14.47-15,5.61-34.44-16.92-37-19.85-3.25-3.77-6.35-8.78-12.55-18.8-5.61-9.06-9.91-16.71-12.77-22a5.58,5.58,0,0,0-7.76,2.92c-2.79,5.72,1.63,34,2.18,41.67s2.39,34.51-12.21,44.19a23.61,23.61,0,0,1-22.26,1.6c-7.82-3.69-10.9-11.41-12.59-15.83-1.47-3.85-4.42-13.27.75-38.94,4.27-21.19,10.17-34.08,5.25-37.55a5.42,5.42,0,0,0-3.77-.71c-6.64.69-8.92,10.71-15.55,22.87-5.61,10.29-12.25,22.33-23.61,25.35-1,.25-9.24,2.31-15.92-2.32-8.5-5.9-8.14-18.07-8.08-20,.09-2.64.6-7.28,12.86-27.62,3.26-5.42,4.29-6.85,11.39-18.09,8.29-13.12,12.43-19.68,13.29-21.61,7.09-15.87.16-27,3-37C80.77,1466.48,96.9,1449.48,150.72,1438.38Z"/><path class="cls-2" d="M135.77,1493.43c.91.11,1.23,2.25,2.42,5.58.89,2.49,1.27,2.86,2.42,5.57,3,7,5.17,12.19,3.39,16.85-.06.16-1.56,4-3.54,3.88-1.74-.12-2.94-3.21-4.52-7.4a51.17,51.17,0,0,1-3.07-13.09c-.34-3.24-.38-6.39,1.12-9.45C135,1493.39,135.61,1493.41,135.77,1493.43Z"/><path class="cls-2" d="M146.11,1487.69c-.57.66.8,2.4,2.46,5.56,1.23,2.37,1.24,2.88,2.45,5.56,3.14,6.94,5.47,12.08,10.27,14.32.16.08,4.15,1.89,5.48.54,1.17-1.18-.3-4.18-2.31-8.2a54.79,54.79,0,0,0-7.66-11.4c-2.21-2.55-4.56-4.85-8-6.11C146.66,1487.15,146.2,1487.58,146.11,1487.69Z"/><path class="cls-2" d="M117.41,1499.49c.9.15,1.12,2.29,2.15,5.66.76,2.53,1.13,2.92,2.14,5.67,2.62,7.12,4.56,12.39,2.55,17-.07.16-1.77,3.92-3.74,3.7-1.73-.2-2.78-3.34-4.16-7.58a51,51,0,0,1-2.41-13.19c-.18-3.24-.06-6.38,1.6-9.37C116.61,1499.41,117.26,1499.46,117.41,1499.49Z"/></g><g id="Layer_13" data-name="Layer 13"><path class="cls-1" d="M562.78,879.38c190.16,39.19,318.54,158.72,355.09,270.37,36.11,110.33,38.5,258.38,38.5,258.38.33,19.85,0,36.3-.27,47L883.2,1473c4.84-61.26,5.61-159-27.6-256.35C776.53,984.8,574.08,957.73,544.14,954.4Z"/><path class="cls-2" d="M883.51,1428.67c-.31,12.44-4.17,19.87-7.43,24.25-11,14.82-29,13.51-66.71,29.43-7.28,3.08-13.08,5.86-16.72,7.66-1.23,2.21-6,11.2-2.6,20.34,3.86,10.46,16.08,16.46,24.43,15.62,18.52-1.87,29.42-15.14,38.42-10.19,2.9,1.6,5.6,5.42,6.25,14.36-3.47,5.38-8.92,13.55-16.17,23.21-7,9.37-8.34,10.29-11.4,15.34-5.27,8.7-13,21.64-8.7,34.27.43,1.25,4,11.17,12.33,13.64,15.39,4.54,33.17-19.3,35.47-22.39,3-4,5.72-9.21,11.2-19.64,5-9.43,8.72-17.37,11.2-22.79a6.55,6.55,0,0,1,5-.41,6.62,6.62,0,0,1,3,2.78c3.18,5.51.75,34,.75,41.72s0,34.59,15.27,43.23a23.65,23.65,0,0,0,22.32,0c7.54-4.23,10.07-12.14,11.45-16.67,1.19-4,3.48-13.55-3.48-38.8-5.74-20.83-12.53-33.28-7.88-37.09a5.42,5.42,0,0,1,3.72-1c6.67.22,9.64,10.06,17.11,21.73,6.33,9.87,13.79,21.42,25.34,23.62,1,.19,9.38,1.66,15.71-3.43,8.07-6.48,6.85-18.59,6.65-20.55-.26-2.63-1.11-7.22-14.76-26.66-3.63-5.17-4.76-6.52-12.63-17.24-9.19-12.51-13.78-18.76-14.77-20.62-8.19-15.34-2.06-27-5.54-36.67C955.26,1451.8,938,1436,883.51,1428.67Z"/><path class="cls-2" d="M902.29,1482.54c-.9.17-1.07,2.32-2,5.73-.71,2.55-1.07,3-2,5.73-2.47,7.19-4.3,12.52-2.21,17,.08.16,1.85,3.89,3.82,3.62,1.72-.23,2.7-3.41,4-7.69A51.87,51.87,0,0,0,906,1493.7c.11-3.26-.08-6.4-1.79-9.35C903.09,1482.44,902.44,1482.51,902.29,1482.54Z"/><path class="cls-2" d="M891.57,1477.53c.61.62-.64,2.46-2.06,5.73-1.07,2.44-1,3-2.06,5.72-2.65,7.13-4.61,12.43-9.24,15-.16.09-4,2.19-5.43.93-1.25-1.09,0-4.19,1.73-8.34a54.41,54.41,0,0,1,6.85-11.91c2-2.7,4.2-5.16,7.49-6.65C891,1477,891.47,1477.43,891.57,1477.53Z"/><path class="cls-2" d="M921,1487.29c-.89.22-.95,2.37-1.74,5.8-.59,2.58-.92,3-1.74,5.81-2.11,7.28-3.68,12.67-1.36,17.08.08.15,2,3.79,4,3.43,1.71-.32,2.54-3.53,3.61-7.85a50.89,50.89,0,0,0,1.49-13.33c-.06-3.25-.4-6.37-2.26-9.23C921.82,1487.15,921.17,1487.25,921,1487.29Z"/></g><g id="Layer_11" data-name="Layer 11"><path class="cls-1" d="M580.28,2311.4c-60.34-15.14-116.57-9.35-139.35,8-19.53,14.86-23.22,31.92-23.22,31.92-1.64,7.52-.66,14,0,16,9,26.92,237.2,17.3,267.08,16a150.46,150.46,0,0,0,0-23.94,159,159,0,0,0-11.61-47.88Z"/><polygon class="cls-3" points="573.08 1768.14 581.56 2312.93 666.38 2312.93 666.38 1768.14 573.08 1768.14"/></g><g id="Layer_12" data-name="Layer 12"><path class="cls-1" d="M372.33,2309.58c-58.39-15.31-112.81-9.46-134.86,8.06-18.89,15-22.47,32.27-22.47,32.27-1.58,7.61-.63,14.17,0,16.13,8.75,27.22,229.55,17.49,258.47,16.14a158.72,158.72,0,0,0,0-24.2,167,167,0,0,0-11.24-48.4Z"/><polygon class="cls-3" points="371.82 1771.06 380.15 2310.63 463.54 2310.63 463.54 1771.06 371.82 1771.06"/></g><g id="Layer_2" data-name="Layer 2"><path class="cls-3" d="M513.61,1832.77h0c153.11,0,278.37-121,278.37-268.91v-506.3c0-147.9-125.26-268.91-278.37-268.91h0c-153.1,0-278.37,121-278.37,268.91v506.3C235.24,1711.76,360.51,1832.77,513.61,1832.77Z"/><path class="cls-1" d="M669.72,1832.77H354.29c-66.36,0-120.66-52.45-120.66-116.55v-103c0-64.11,54.3-116.56,120.66-116.56H669.72c66.36,0,120.65,52.45,120.65,116.56v103C790.37,1780.32,736.08,1832.77,669.72,1832.77Z"/><rect class="cls-3" x="234.25" y="1260.65" width="556.74" height="371.88"/></g><g id="Layer_1" data-name="Layer 1"><path class="cls-4" d="M799.39,452.42S863.64,443.79,865,307C866.77,129.61,640.1-57.43,387.23,121.5,248.11,87.87,150.84,203.09,158.82,361.06c9.19,182.06,6.3,347.06,131.9,388S505,764.32,505,764.32Z"/><path class="cls-4" d="M239.89,453.81s-64.69-8.62-66.06-145.37C172.05,131,400.26-56,654.84,122.9c140.06-33.64,238,81.59,230,239.56-9.25,182.05-6.35,347.06-132.8,388s-215.68,15.28-215.68,15.28Z"/><ellipse class="cls-2" cx="517.48" cy="464.87" rx="312.45" ry="348.77"/><ellipse class="cls-2" cx="205.03" cy="464.87" rx="60.93" ry="85.26"/><ellipse class="cls-2" cx="829.93" cy="464.87" rx="60.93" ry="85.26"/><path class="cls-4" d="M531.63,77.16S486.82,307,207.88,420.73c0,0,2.88-158.54,89.43-263.59S531.63,77.16,531.63,77.16Z"/><path class="cls-4" d="M866,337c-10.65,75-61.6,116.17-70,102.07s4.11-79.16,0-99l70-3"/><path class="cls-4" d="M490.62,112.81s47.69,203.13,344.51,303.62c0,0-3.07-140.1-95.17-232.94S490.62,112.81,490.62,112.81Z"/><path class="cls-4" d="M173,348.43c10.65,75,61.6,116.16,70,102.07s-4.12-79.16,0-99.05l-70-3"/><polygon class="cls-3" points="785.61 419.61 749.03 383.93 821.83 312.91 858.41 348.59 785.61 419.61"/><polygon class="cls-3" points="249.7 419.61 286.27 383.93 213.47 312.91 176.89 348.59 249.7 419.61"/><path class="cls-4" d="M869.44,711.29c-6,27.34-20.73,64.93-44.65,79.26S740.85,738.36,763,689.23c12.44-27.61,40.41-40.71,54.91-42.64S877.27,675.79,869.44,711.29Z"/><path class="cls-4" d="M877.69,832.05C871.66,859.39,857,897,833,911.31S749.1,859.12,771.23,810c12.43-27.62,40.41-40.72,54.9-42.64S885.52,796.56,877.69,832.05Z"/><path class="cls-4" d="M887.7,961.38c-6,27.34-20.72,64.93-44.65,79.26s-83.94-52.2-61.81-101.32c12.43-27.61,40.41-40.71,54.9-42.63S895.53,925.88,887.7,961.38Z"/><path class="cls-4" d="M270.79,713.56c-3.41,27.79-14.46,66.6-36.92,83.14s-88.51-44-71.15-95c9.76-28.67,36.36-44.37,50.61-47.66S275.22,677.48,270.79,713.56Z"/><path class="cls-4" d="M274,834.56c-3.41,27.79-14.47,66.61-36.92,83.14s-88.52-44-71.16-95c9.76-28.67,36.37-44.37,50.61-47.66S278.47,798.48,274,834.56Z"/><path class="cls-4" d="M270.87,956.69c-3.41,27.79-14.47,66.6-36.92,83.14s-88.52-44-71.16-95c9.76-28.67,36.37-44.37,50.61-47.66S275.3,920.61,270.87,956.69Z"/><path class="cls-5" d="M289.53,602.59c0-27.55,24.52-49.89,54.76-49.89s54.77,22.34,54.77,49.89-24.52,49.89-54.77,49.89S289.53,630.14,289.53,602.59Z"/><path class="cls-5" d="M641.59,596.27c0-27.56,24.52-49.9,54.76-49.9s54.77,22.34,54.77,49.9-24.52,49.89-54.77,49.89S641.59,623.82,641.59,596.27Z"/><path class="cls-6" d="M549.74,557c-13.46,9.66-23.21,19.23-41.79,19.58-17.11.32-26.36-8-35.92-19.7-1.65-2-5.79-2-5.31,1.16,5.34,35.64,74.44,31.24,83.83,0,.13-.41-.16-1.49-.81-1Z"/><path class="cls-6" d="M814.79,481.9c-.51,1.71.32,4.88,1.58,3.32,5.43-6.66,9.8-15.46,15.36-21.63,6-6.68,12.11-9.72,17.93-10.15,1.92,6,3.76,10.51,1.88,20.95-1.64,9.05-5,19.47-9.41,27-3.43,5.89-7.81,8.49-11.66,12.89-.3.33-.75,1.84-.33,1.91,15.28,2.71,31.05-39.36,28.94-60.82,8.27,4.36,14.13,15.74,11.3,34.52-.14.88.42.55.64-.13C891.66,427.83,832.32,423.28,814.79,481.9Z"/><path class="cls-6" d="M221.33,481.9c.51,1.71-.31,4.88-1.58,3.32-5.42-6.66-9.79-15.46-15.36-21.63-6-6.68-12.11-9.72-17.92-10.15-1.93,6-3.76,10.51-1.88,20.95,1.63,9.05,5,19.47,9.41,27,3.43,5.89,7.81,8.49,11.66,12.89.29.33.74,1.84.33,1.91-15.28,2.71-31.06-39.36-29-60.82-8.26,4.36-14.13,15.74-11.29,34.52.13.88-.42.55-.65-.13C144.46,427.83,203.81,423.28,221.33,481.9Z"/></g><g id=":_" data-name=":)"><path class="cls-6" d="M450.11,691.17c45.08,26.78,119.67,15.22,154.76-22.92,3.75-4.08-4.38-8-7.69-4.37-35.3,38.51-100.76,42.23-146.51,23.62-2.54-1-2.16,2.72-.56,3.67Z"/><path class="cls-6" d="M596.6,650.87c-4.38,4.47.11,12.53,3.71,15.88,4.14,3.85,11.35,7.49,17.12,5.49,2-.68,4.07-3.06,1.92-5-1.7-1.5-5.84-.19-8.05-.65-8.06-1.69-10.42-8.38-12.93-15.21-.29-.81-1.15-1.18-1.77-.54Z"/></g><g id="eyes_straight"><path class="cls-7" d="M657.46,391.46c-23.25-.22-57.58,14-67.7,48.5-12.32,42,12.36,82.91,66.83,81.26,58.45-1.78,79.36-37.54,73.33-70.89C723.45,414.61,698.23,391.85,657.46,391.46Z"/><path class="cls-8" d="M588.77,447.36c11.09-33.82,48.66-54.51,82-47.36,13.48,2.89,28,10.66,36.83,21.72,9.91,12.35,11.22,28.32,20.51,40.63,1.48,1.95,5.35,3.15,6.73.4,8.84-17.55-4.61-40.58-16.69-53.34-12.59-13.32-31.51-22.28-49.3-24.52-18.16-2.29-38.34,1.76-53.92,11.89-18.75,12.19-24.2,28.22-27.61,50-.19,1.23,1,2,1.49.57Z"/><ellipse class="cls-9" cx="645.97" cy="467.01" rx="54.2" ry="52.44" transform="translate(170.32 1106.65) rotate(-89.23)"/><path class="cls-7" d="M604,470c.06-9.57,7.62-17.28,16.88-17.22s16.71,7.86,16.64,17.43-7.62,17.27-16.88,17.22S603.92,479.56,604,470Z"/><path class="cls-7" d="M378.84,391.46c23.25-.22,57.58,14,67.7,48.5,12.31,42-12.36,82.91-66.83,81.26-58.46-1.78-79.36-37.54-73.33-70.89C312.85,414.61,338.07,391.85,378.84,391.46Z"/><path class="cls-8" d="M447.53,447.36c-11.09-33.82-48.67-54.51-82-47.36-13.48,2.89-28,10.66-36.84,21.72-9.9,12.35-11.21,28.32-20.51,40.63-1.47,1.95-5.34,3.15-6.72.4-8.84-17.55,4.61-40.58,16.69-53.34,12.58-13.32,31.51-22.28,49.3-24.52,18.16-2.29,38.34,1.76,53.92,11.89,18.75,12.19,24.2,28.22,27.61,50,.19,1.23-1,2-1.49.57Z"/><ellipse class="cls-9" cx="390.33" cy="467.01" rx="52.44" ry="54.2" transform="translate(-6.24 5.29) rotate(-0.77)"/><path class="cls-7" d="M432.32,470c-.07-9.57-7.62-17.28-16.88-17.22s-16.71,7.86-16.65,17.43,7.63,17.27,16.88,17.22S432.38,479.56,432.32,470Z"/></g><g id="eyes_right"><path class="cls-7" d="M657.46,391.46c-23.25-.22-57.58,14-67.7,48.5-12.32,42,12.36,82.91,66.83,81.26,58.45-1.78,79.36-37.54,73.33-70.89C723.45,414.61,698.23,391.85,657.46,391.46Z"/><path class="cls-8" d="M588.77,447.36c11.09-33.82,48.66-54.51,82-47.36,13.48,2.89,28,10.66,36.83,21.72,9.91,12.35,11.22,28.32,20.51,40.63,1.48,1.95,5.35,3.15,6.73.4,8.84-17.55-4.61-40.58-16.69-53.34-12.59-13.32-31.51-22.28-49.3-24.52-18.16-2.29-38.34,1.76-53.92,11.89-18.75,12.19-24.2,28.22-27.61,50-.19,1.23,1,2,1.49.57Z"/><ellipse class="cls-9" cx="662.88" cy="458.85" rx="54.2" ry="52.44" transform="translate(195.16 1115.51) rotate(-89.23)"/><path class="cls-7" d="M671.65,453.67c.06-9.57,7.62-17.28,16.88-17.22s16.71,7.86,16.64,17.43-7.62,17.28-16.87,17.22S671.59,463.24,671.65,453.67Z"/><path class="cls-7" d="M378.84,391.46c23.25-.22,57.58,14,67.7,48.5,12.31,42-12.36,82.91-66.83,81.26-58.46-1.78-79.36-37.54-73.33-70.89C312.85,414.61,338.07,391.85,378.84,391.46Z"/><path class="cls-8" d="M447.53,447.36c-11.09-33.82-48.67-54.51-82-47.36-13.48,2.89-28,10.66-36.84,21.72-9.9,12.35-11.21,28.32-20.51,40.63-1.47,1.95-5.34,3.15-6.72.4-8.84-17.55,4.61-40.58,16.69-53.34,12.58-13.32,31.51-22.28,49.3-24.52,18.16-2.29,38.34,1.76,53.92,11.89,18.75,12.19,24.2,28.22,27.61,50,.19,1.23-1,2-1.49.57Z"/><ellipse class="cls-9" cx="385.48" cy="458.85" rx="52.44" ry="54.2" transform="translate(-6.13 5.22) rotate(-0.77)"/><path class="cls-7" d="M432.32,453.67c-.07-9.57-7.62-17.28-16.88-17.22s-16.71,7.86-16.65,17.43,7.63,17.28,16.88,17.22S432.38,463.24,432.32,453.67Z"/></g><g id="eyes_down"><path class="cls-7" d="M378.73,390.76c22.68-.23,56.18,14.18,66,49.06,12,42.42-12.06,83.86-65.21,82.18-57-1.79-77.43-38-71.54-71.7C314.34,414.17,339,391.15,378.73,390.76Z"/><path class="cls-8" d="M445.75,447.3c-10.83-34.21-47.49-55.14-80-47.91-13.16,2.93-27.29,10.79-35.94,22-9.67,12.49-10.95,28.65-20,41.1-1.43,2-5.21,3.18-6.56.4-8.62-17.75,4.5-41,16.29-53.95,12.28-13.47,30.74-22.54,48.1-24.81,17.72-2.31,37.41,1.79,52.61,12,18.3,12.33,23.62,28.54,26.94,50.58.19,1.24-1,2-1.45.58Z"/><ellipse class="cls-9" cx="381.69" cy="465.19" rx="54.82" ry="51.16" transform="translate(-85.95 843.88) rotate(-89.63)"/><path class="cls-7" d="M406.14,491.07c-.06,9.68-7.43,17.48-16.46,17.42s-16.31-7.95-16.24-17.63,7.43-17.48,16.46-17.42S406.21,481.39,406.14,491.07Z"/><path class="cls-7" d="M657.46,391.46c-23.25-.22-57.58,14-67.7,48.5-12.32,42,12.36,82.91,66.83,81.26,58.45-1.78,79.36-37.54,73.33-70.89C723.45,414.61,698.23,391.85,657.46,391.46Z"/><path class="cls-8" d="M588.77,447.36c11.09-33.82,48.66-54.51,82-47.36,13.48,2.89,28,10.66,36.83,21.72,9.91,12.35,11.22,28.32,20.51,40.63,1.48,1.95,5.35,3.15,6.73.4,8.84-17.55-4.61-40.58-16.69-53.34-12.59-13.32-31.51-22.28-49.3-24.52-18.16-2.29-38.34,1.76-53.92,11.89-18.75,12.19-24.2,28.22-27.61,50-.19,1.23,1,2,1.49.57Z"/><ellipse class="cls-9" cx="654.42" cy="465.05" rx="52.44" ry="54.2" transform="translate(-6.19 8.83) rotate(-0.77)"/><path class="cls-7" d="M629.36,490.63c.06,9.57,7.61,17.28,16.87,17.23s16.71-7.87,16.65-17.43-7.62-17.28-16.88-17.22S629.29,481.07,629.36,490.63Z"/></g></svg>