<svg xmlns="http://www.w3.org/2000/svg" viewBox="0 0 55 131"><defs><style>.cls-1{fill:#a56399;}.cls-2{fill:#d67cbf;}.cls-3{fill:#ffd5be;}.cls-4{fill:#280906;}.cls-5{fill:#fca39a;}.cls-6{fill:#9e5147;}.cls-7{fill:#fff;}.cls-8{fill:#002030;}.cls-9{fill:#19313a;}</style></defs><g id="Flo"><path class="cls-1" d="M21.07,59.81C12.76,63.25,8,69.82,7.28,75.22a48.38,48.38,0,0,0,.51,12.09c.16.91.31,1.65.42,2.14l3.47.17a30.26,30.26,0,0,1-1-11.91A17.34,17.34,0,0,1,22.57,63.06Z"/><path class="cls-1" d="M30.11,59.61c8.27,3.55,13,10.17,13.6,15.58a48.24,48.24,0,0,1-.65,12.08c-.17.91-.34,1.65-.45,2.14l-3.48.12a29.93,29.93,0,0,0,1.13-11.89,17.34,17.34,0,0,0-11.69-14.8Z"/><path class="cls-1" d="M32.46,126.59c2.8-.7,5.4-.43,6.46.37A2.82,2.82,0,0,1,40,128.44a1.72,1.72,0,0,1,0,.74c-.42,1.24-11,.8-12.38.74a6.85,6.85,0,0,1,0-1.11,7.45,7.45,0,0,1,.54-2.22Z"/><polygon class="cls-2" points="32.8 101.42 32.4 126.66 28.47 126.66 28.47 101.42 32.8 101.42"/><path class="cls-1" d="M18.54,126.5c-2.71-.71-5.23-.43-6.25.38a2.8,2.8,0,0,0-1,1.49,1.6,1.6,0,0,0,0,.75c.4,1.26,10.63.81,12,.75a7,7,0,0,0,0-1.12,7.38,7.38,0,0,0-.52-2.25Z"/><polygon class="cls-2" points="18.51 101.55 18.9 126.55 22.76 126.55 22.76 101.55 18.51 101.55"/><path class="cls-2" d="M25.08,104.41h0A12.72,12.72,0,0,0,38,92V68.49A12.72,12.72,0,0,0,25.08,56h0A12.72,12.72,0,0,0,12.19,68.49V92A12.72,12.72,0,0,0,25.08,104.41Z"/><path class="cls-1" d="M32.32,104.41H17.7A5.52,5.52,0,0,1,12.11,99V94.24a5.52,5.52,0,0,1,5.59-5.4H32.32a5.52,5.52,0,0,1,5.59,5.4V99A5.52,5.52,0,0,1,32.32,104.41Z"/><rect class="cls-2" x="12.14" y="77.9" width="25.8" height="17.23"/><path class="cls-3" d="M11.28,87.61a2,2,0,0,0,.55,1c.63.58,1.44.37,3.3.76l.82.2a1.18,1.18,0,0,1,.3.9,1.2,1.2,0,0,1-1,.93c-.86.08-1.48-.43-1.84-.13-.12.1-.21.3-.16.71.2.21.52.54.94.91s.47.4.65.6a2,2,0,0,1,.7,1.49,1,1,0,0,1-.44.72c-.66.35-1.68-.58-1.81-.7a7.43,7.43,0,0,1-.69-.8l-.71-.94a.26.26,0,0,0-.22,0,.28.28,0,0,0-.12.15,8.57,8.57,0,0,0,.34,1.9c.06.35.3,1.58-.32,2.1a1.07,1.07,0,0,1-1,.2A1.2,1.2,0,0,1,9.92,97a3.1,3.1,0,0,1-.18-1.79c.07-1,.27-1.63,0-1.76a.23.23,0,0,0-.18,0c-.3.07-.35.54-.59,1.14s-.44,1.09-.94,1.29a1,1,0,0,1-.75,0A1.14,1.14,0,0,1,6.83,95c0-.12,0-.34.44-1.34.12-.27.16-.34.42-.9s.46-1,.49-1.07c.24-.77-.14-1.24-.07-1.71C8.22,89.29,8.87,88.42,11.28,87.61Z"/><path class="cls-3" d="M10.9,90.22s.07.1.14.24.08.13.14.25c.18.3.31.53.25.75,0,0,0,.2-.14.2s-.15-.13-.25-.31a2.53,2.53,0,0,1-.21-.59.82.82,0,0,1,0-.44C10.86,90.22,10.89,90.22,10.9,90.22Z"/><path class="cls-3" d="M11.34,89.9s.05.11.15.24.07.13.14.24c.18.31.32.53.55.61,0,0,.2.06.26,0s0-.19-.15-.36a2.9,2.9,0,0,0-.42-.49.94.94,0,0,0-.4-.23C11.37,89.87,11.35,89.89,11.34,89.9Z"/><path class="cls-3" d="M10.09,90.6s.06.1.13.25.07.13.13.25c.16.31.28.54.21.76,0,0-.06.19-.15.2s-.15-.14-.23-.33a2.25,2.25,0,0,1-.19-.59.82.82,0,0,1,0-.44C10.05,90.6,10.08,90.6,10.09,90.6Z"/><path class="cls-3" d="M39.56,87.53a2,2,0,0,1-.56,1c-.64.57-1.45.34-3.31.71l-.83.2a1.18,1.18,0,0,0-.3.9,1.17,1.17,0,0,0,1,.93c.86.09,1.48-.41,1.84-.1.12.1.2.29.15.71-.21.21-.53.53-.95.9a7.26,7.26,0,0,0-.66.59,2,2,0,0,0-.72,1.47,1,1,0,0,0,.44.74c.65.35,1.68-.57,1.82-.69a7.13,7.13,0,0,0,.69-.79c.31-.38.55-.7.72-.93a.34.34,0,0,1,.23,0,.35.35,0,0,1,.11.16,8.66,8.66,0,0,1-.36,1.9c-.07.34-.32,1.57.29,2.1a1.1,1.1,0,0,0,1,.21,1.21,1.21,0,0,0,.67-.65,3.2,3.2,0,0,0,.2-1.79c-.06-1-.26-1.63,0-1.76a.23.23,0,0,1,.18,0c.3.07.34.55.57,1.15s.43,1.1.93,1.3a.92.92,0,0,0,.75,0,1.09,1.09,0,0,0,.49-.87c0-.12,0-.34-.42-1.34-.12-.27-.15-.34-.41-.9s-.45-1-.48-1.08c-.23-.77.16-1.24.09-1.71C42.6,89.24,42,88.37,39.56,87.53Z"/><path class="cls-3" d="M39.91,90.15s-.07.09-.15.24a2.1,2.1,0,0,1-.14.24c-.18.3-.31.53-.26.75,0,0,0,.2.14.2s.15-.13.25-.31a2,2,0,0,0,.22-.58.73.73,0,0,0,0-.44C40,90.15,39.92,90.15,39.91,90.15Z"/><path class="cls-3" d="M39.47,89.82s0,.11-.15.24-.07.13-.14.24c-.19.3-.33.52-.56.6,0,0-.2.06-.26,0s0-.19.16-.37a3,3,0,0,1,.42-.47.81.81,0,0,1,.4-.23C39.45,89.79,39.47,89.81,39.47,89.82Z"/><path class="cls-3" d="M40.72,90.54s-.07.1-.14.24-.07.13-.13.25c-.16.31-.29.54-.22.76,0,0,.06.2.15.2s.15-.14.24-.33a2.71,2.71,0,0,0,.19-.59.74.74,0,0,0,0-.44C40.75,90.54,40.72,90.54,40.72,90.54Z"/><path class="cls-4" d="M38.33,40.45s3-.4,3-6.73c.08-8.23-10.43-16.89-22.14-8.6-6.45-1.56-11,3.78-10.59,11.1.43,8.43.3,16.08,6.12,18a18.27,18.27,0,0,0,9.92.7Z"/><path class="cls-4" d="M12.4,40.52s-3-.4-3.06-6.74c-.08-8.22,10.49-16.89,22.29-8.6,6.49-1.56,11,3.78,10.65,11.1-.43,8.44-.29,16.08-6.15,18a18.48,18.48,0,0,1-10,.71Z"/><ellipse class="cls-3" cx="25.26" cy="41.03" rx="14.48" ry="16.16"/><ellipse class="cls-3" cx="10.79" cy="41.03" rx="2.82" ry="3.95"/><ellipse class="cls-3" cx="39.74" cy="41.03" rx="2.82" ry="3.95"/><path class="cls-4" d="M25.92,23.06S23.84,33.71,10.92,39c0,0,.13-7.34,4.14-12.21S25.92,23.06,25.92,23.06Z"/><path class="cls-4" d="M41.41,35.1c-.49,3.48-2.85,5.38-3.24,4.73s.19-3.67,0-4.59l3.24-.14"/><path class="cls-4" d="M24,24.72s2.21,9.41,16,14.06c0,0-.14-6.49-4.41-10.79S24,24.72,24,24.72Z"/><path class="cls-4" d="M9.3,35.63c.5,3.48,2.86,5.39,3.25,4.73s-.19-3.67,0-4.59L9.3,35.63"/><polygon class="cls-2" points="37.69 38.93 35.99 37.28 39.37 33.99 41.06 35.64 37.69 38.93"/><polygon class="cls-2" points="12.86 38.93 14.55 37.28 11.18 33.99 9.48 35.64 12.86 38.93"/><path class="cls-4" d="M41.57,52.45c-.28,1.26-1,3-2.07,3.67s-3.89-2.42-2.86-4.7a3.56,3.56,0,0,1,2.54-2C39.85,49.36,41.93,50.8,41.57,52.45Z"/><path class="cls-4" d="M42,58c-.28,1.27-1,3-2.06,3.67S36,59.3,37,57a3.59,3.59,0,0,1,2.54-2C40.24,55,42.32,56.4,42,58Z"/><path class="cls-4" d="M42.42,64c-.28,1.27-1,3-2.07,3.68s-3.89-2.42-2.87-4.7A3.59,3.59,0,0,1,40,61C40.7,61,42.78,62.39,42.42,64Z"/><path class="cls-4" d="M13.83,52.55c-.16,1.29-.67,3.09-1.71,3.85S8,54.37,8.83,52a3.59,3.59,0,0,1,2.34-2.21C11.83,49.64,14,50.88,13.83,52.55Z"/><path class="cls-4" d="M14,58.16c-.15,1.29-.67,3.08-1.71,3.85S8.17,60,9,57.61a3.56,3.56,0,0,1,2.34-2.21C12,55.25,14.19,56.49,14,58.16Z"/><path class="cls-4" d="M13.84,63.82c-.16,1.28-.67,3.08-1.71,3.85s-4.11-2-3.3-4.4a3.56,3.56,0,0,1,2.34-2.21C11.83,60.91,14,62.15,13.84,63.82Z"/><path class="cls-5" d="M14.7,47.41a2.43,2.43,0,0,1,2.54-2.31,2.32,2.32,0,1,1,0,4.62A2.43,2.43,0,0,1,14.7,47.41Z"/><path class="cls-5" d="M31,47.12a2.55,2.55,0,1,1,2.54,2.31A2.44,2.44,0,0,1,31,47.12Z"/><path class="cls-6" d="M26.76,45.3a3.22,3.22,0,0,1-1.94.9,1.94,1.94,0,0,1-1.66-.91c-.08-.09-.27-.09-.25.05.25,1.66,3.45,1.45,3.89,0,0,0,0-.07,0,0Z"/><path class="cls-6" d="M39,41.82c0,.08,0,.22.07.15.25-.31.46-.72.71-1a1.28,1.28,0,0,1,.83-.47,1.61,1.61,0,0,1,.09,1,4,4,0,0,1-.43,1.25,4.57,4.57,0,0,1-.54.6s0,.08,0,.08c.71.13,1.44-1.82,1.34-2.81.38.2.66.73.53,1.6,0,0,0,0,0,0C42.6,39.31,39.85,39.1,39,41.82Z"/><path class="cls-6" d="M11.54,41.82c0,.08,0,.22-.07.15-.25-.31-.46-.72-.71-1a1.28,1.28,0,0,0-.83-.47,1.61,1.61,0,0,0-.09,1,4,4,0,0,0,.43,1.25,4.57,4.57,0,0,0,.54.6s0,.08,0,.08c-.71.13-1.44-1.82-1.34-2.81-.38.2-.66.73-.52,1.6,0,0,0,0,0,0C8,39.31,10.73,39.1,11.54,41.82Z"/><path class="cls-7" d="M31.75,37.63a3.29,3.29,0,0,0-3.14,2.24c-.57,2,.57,3.85,3.1,3.77,2.71-.08,3.68-1.74,3.4-3.29A3.16,3.16,0,0,0,31.75,37.63Z"/><path class="cls-8" d="M28.57,40.22A3.37,3.37,0,0,1,32.36,38a3.13,3.13,0,0,1,1.71,1c.46.57.52,1.31,1,1.88.07.09.25.15.31,0,.41-.81-.21-1.88-.77-2.47a4,4,0,0,0-2.28-1.14,3.85,3.85,0,0,0-2.5.55,3,3,0,0,0-1.28,2.32c0,.06.05.09.07,0Z"/><ellipse class="cls-9" cx="31.22" cy="41.13" rx="2.51" ry="2.43" transform="translate(-10.33 71.79) rotate(-89.23)"/><path class="cls-7" d="M29.27,41.27a.78.78,0,1,1,.77.8A.78.78,0,0,1,29.27,41.27Z"/><path class="cls-7" d="M18.84,37.63A3.29,3.29,0,0,1,22,39.87a2.85,2.85,0,0,1-3.1,3.77c-2.71-.08-3.68-1.74-3.4-3.29A3.16,3.16,0,0,1,18.84,37.63Z"/><path class="cls-8" d="M22,40.22a3.37,3.37,0,0,0-3.8-2.2,3.14,3.14,0,0,0-1.7,1c-.46.57-.52,1.31-.95,1.88-.07.09-.25.15-.31,0-.41-.81.21-1.88.77-2.47a4,4,0,0,1,2.28-1.14,3.86,3.86,0,0,1,2.5.55,3,3,0,0,1,1.28,2.32c0,.06-.05.09-.07,0Z"/><ellipse class="cls-9" cx="19.37" cy="41.13" rx="2.43" ry="2.51" transform="translate(-0.55 0.26) rotate(-0.77)"/><path class="cls-7" d="M21.32,41.27a.78.78,0,1,0-.77.8A.79.79,0,0,0,21.32,41.27Z"/><path class="cls-7" d="M31.75,37.63a3.29,3.29,0,0,0-3.14,2.24c-.57,2,.57,3.85,3.1,3.77,2.71-.08,3.68-1.74,3.4-3.29A3.16,3.16,0,0,0,31.75,37.63Z"/><path class="cls-8" d="M28.57,40.22A3.37,3.37,0,0,1,32.36,38a3.13,3.13,0,0,1,1.71,1c.46.57.52,1.31,1,1.88.07.09.25.15.31,0,.41-.81-.21-1.88-.77-2.47a4,4,0,0,0-2.28-1.14,3.85,3.85,0,0,0-2.5.55,3,3,0,0,0-1.28,2.32c0,.06.05.09.07,0Z"/><ellipse class="cls-9" cx="32" cy="40.75" rx="2.51" ry="2.43" transform="translate(-9.18 72.2) rotate(-89.23)"/><path class="cls-7" d="M32.41,40.51a.78.78,0,1,1,.77.81A.79.79,0,0,1,32.41,40.51Z"/><path class="cls-7" d="M18.84,37.63A3.29,3.29,0,0,1,22,39.87a2.85,2.85,0,0,1-3.1,3.77c-2.71-.08-3.68-1.74-3.4-3.29A3.16,3.16,0,0,1,18.84,37.63Z"/><path class="cls-8" d="M22,40.22a3.37,3.37,0,0,0-3.8-2.2,3.14,3.14,0,0,0-1.7,1c-.46.57-.52,1.31-.95,1.88-.07.09-.25.15-.31,0-.41-.81.21-1.88.77-2.47a4,4,0,0,1,2.28-1.14,3.86,3.86,0,0,1,2.5.55,3,3,0,0,1,1.28,2.32c0,.06-.05.09-.07,0Z"/><ellipse class="cls-9" cx="19.15" cy="40.75" rx="2.43" ry="2.51" transform="translate(-0.55 0.26) rotate(-0.77)"/><path class="cls-7" d="M21.32,40.51a.78.78,0,1,0-.77.81A.81.81,0,0,0,21.32,40.51Z"/><path class="cls-7" d="M18.83,37.59a3.2,3.2,0,0,1,3.06,2.28,2.85,2.85,0,0,1-3,3.81c-2.64-.09-3.58-1.76-3.31-3.33A3.12,3.12,0,0,1,18.83,37.59Z"/><path class="cls-8" d="M21.94,40.21A3.29,3.29,0,0,0,18.23,38a3,3,0,0,0-1.66,1c-.45.58-.51,1.33-.93,1.91-.07.09-.24.14-.3,0-.4-.83.21-1.91.75-2.5a3.75,3.75,0,0,1,2.23-1.15,3.65,3.65,0,0,1,2.44.55A3,3,0,0,1,22,40.19c0,.05-.05.09-.07,0Z"/><ellipse class="cls-9" cx="18.97" cy="41.04" rx="2.54" ry="2.37" transform="translate(-22.19 59.75) rotate(-89.63)"/><path class="cls-7" d="M20.1,42.24a.76.76,0,1,1-1.51,0,.76.76,0,1,1,1.51,0Z"/><path class="cls-7" d="M31.75,37.63a3.29,3.29,0,0,0-3.14,2.24c-.57,2,.57,3.85,3.1,3.77,2.71-.08,3.68-1.74,3.4-3.29A3.16,3.16,0,0,0,31.75,37.63Z"/><path class="cls-8" d="M28.57,40.22A3.37,3.37,0,0,1,32.36,38a3.13,3.13,0,0,1,1.71,1c.46.57.52,1.31,1,1.88.07.09.25.15.31,0,.41-.81-.21-1.88-.77-2.47a4,4,0,0,0-2.28-1.14,3.85,3.85,0,0,0-2.5.55,3,3,0,0,0-1.28,2.32c0,.06.05.09.07,0Z"/><ellipse class="cls-9" cx="31.61" cy="41.04" rx="2.43" ry="2.51" transform="translate(-0.55 0.43) rotate(-0.77)"/><path class="cls-7" d="M30.45,42.22a.78.78,0,1,0,.77-.81A.79.79,0,0,0,30.45,42.22Z"/></g><g id="Diandra"><path class="cls-6" d="M29.15,51.44a6.62,6.62,0,0,0-7.95.32c-.21.2.17.46.36.28,2-1.86,5.35-1.67,7.54-.4.12.07.12-.13,0-.2Z"/></g></svg>