<svg xmlns="http://www.w3.org/2000/svg" xmlns:xlink="http://www.w3.org/1999/xlink" viewBox="0 0 310 182"><defs><style>.cls-1{isolation:isolate;}.cls-2{fill:#f4efea;}.cls-3{fill:#7f798c;opacity:0.62;}.cls-10,.cls-12,.cls-15,.cls-16,.cls-18,.cls-3,.cls-5{mix-blend-mode:multiply;}.cls-4{fill:#ffdbbd;}.cls-12,.cls-15,.cls-5{fill:#871a39;}.cls-16,.cls-5{opacity:0.35;}.cls-6{fill:#664d5e;}.cls-7{opacity:0.73;fill:url(#ŃŚÁŻž_ŪŪŻť_ūŗšŤŚŪÚ_8);}.cls-11,.cls-14,.cls-19,.cls-7{mix-blend-mode:color-dodge;}.cls-8{fill:#ffecbf;}.cls-9{opacity:0.42;}.cls-10{fill:#822946;opacity:0.48;}.cls-11{opacity:0.14;fill:url(#ŃŚÁŻž_ŪŪŻť_ūŗšŤŚŪÚ_8-2);}.cls-12{opacity:0.19;}.cls-13{fill:#696470;}.cls-14{opacity:0.53;fill:url(#ŃŚÁŻž_ŪŪŻť_ūŗšŤŚŪÚ_8-3);}.cls-15{opacity:0.17;}.cls-16,.cls-18{fill:#631326;}.cls-17{fill:#487d86;}.cls-18{opacity:0.2;}.cls-19{opacity:0.25;fill:url(#ŃŚÁŻž_ŪŪŻť_ūŗšŤŚŪÚ_8-4);}.cls-20{fill:#633547;}.cls-21{fill:#599ba9;}.cls-22{fill:#f7debc;}</style><linearGradient id="ŃŚÁŻž_ŪŪŻť_ūŗšŤŚŪÚ_8" x1="217.98" y1="120.52" x2="259.35" y2="171.9" gradientTransform="translate(-0.19 -4.3) rotate(0.06)" gradientUnits="userSpaceOnUse"><stop offset="0" stop-color="#fffce7"/><stop offset="1"/></linearGradient><linearGradient id="ŃŚÁŻž_ŪŪŻť_ūŗšŤŚŪÚ_8-2" x1="-10.4" y1="0.87" x2="98.63" y2="59.09" gradientTransform="matrix(1, 0, 0, 1, 0, 0)" xlink:href="#ŃŚÁŻž_ŪŪŻť_ūŗšŤŚŪÚ_8"/><linearGradient id="ŃŚÁŻž_ŪŪŻť_ūŗšŤŚŪÚ_8-3" x1="114.37" y1="161.29" x2="185.61" y2="177.81" gradientTransform="matrix(1, 0, 0, 1, 0, 0)" xlink:href="#ŃŚÁŻž_ŪŪŻť_ūŗšŤŚŪÚ_8"/><linearGradient id="ŃŚÁŻž_ŪŪŻť_ūŗšŤŚŪÚ_8-4" x1="16.53" y1="170.12" x2="75.01" y2="170.12" gradientTransform="matrix(1, 0, 0, 1, 0, 0)" xlink:href="#ŃŚÁŻž_ŪŪŻť_ūŗšŤŚŪÚ_8"/></defs><g class="cls-1"><g id="_ŽÓť_1" data-name="—ŽÓť_1"><polygon class="cls-2" points="288.25 108.62 279.35 174.15 188.89 174.15 192.44 102.25 192.45 101.86 288.25 108.62"/><polygon class="cls-3" points="200.07 111.89 197.44 163.47 203.49 163.47 202.06 174.15 188.89 174.15 192.44 102.25 198.51 103.59 198.51 102.25 288.25 108.62 287.33 115.39 200.07 111.89"/><polygon class="cls-4" points="307.15 107.81 307.04 108.83 306.73 111.61 273.05 109.13 203.61 104.02 203.61 104.02 195.34 103.49 195.01 103.47 194.15 83.87 195.65 84.41 221.51 93.65 244.53 101.87 244.23 102.77 307.15 107.81"/><polygon class="cls-5" points="307.12 107.91 307.04 108.83 306.73 111.61 273.05 109.13 271.15 108.98 303.2 111.11 303.2 109.01 272.91 105.41 307.12 107.91"/><polygon class="cls-6" points="310 107.21 309.7 108.41 208.45 100.2 195.41 99.14 192.04 98.87 193.54 82.97 195.65 83.41 232.7 91.12 310 107.21"/><polygon class="cls-5" points="232.7 91.12 208.54 98.57 208.45 100.2 208.45 100.33 204.94 100.02 203.61 104.02 203.61 104.02 195.34 103.49 195.41 99.14 195.65 84.41 195.65 83.41 232.7 91.12"/><polygon class="cls-7" points="208.89 173.56 207.68 173.56 202.07 115.39 275.79 119.31 273.05 122.59 208.89 173.56"/><polygon class="cls-3" points="208.89 173.86 203.85 116.81 275.79 119.31 271.17 173.63 208.89 173.86"/><polygon class="cls-8" points="209.81 173.87 207.08 120.34 272.75 121.99 269.96 173.32 209.81 173.87"/><g class="cls-9"><polygon class="cls-10" points="271.23 124.72 270.92 129.58 208.34 128.9 270.01 128.67 271.23 124.72 271.23 124.72"/><polygon class="cls-10" points="270.93 129.58 270.63 134.44 209.25 133.76 269.73 133.53 270.92 129.58 270.93 129.58"/><polygon class="cls-10" points="270.61 134.44 270.3 139.3 210.15 138.62 269.39 138.39 270.61 134.44 270.61 134.44"/><polygon class="cls-10" points="270.31 139.3 270.01 144.16 210.14 143.18 269.11 143.25 270.3 139.3 270.31 139.3"/></g><g class="cls-9"><polygon class="cls-10" points="269.69 144.46 269.38 149.32 211.35 148.96 268.47 148.41 269.69 144.46 269.69 144.46"/><polygon class="cls-10" points="269.39 149.32 269.08 154.19 210.74 153.51 268.19 153.27 269.38 149.32 269.39 149.32"/><polygon class="cls-10" points="269.07 154.19 268.76 159.04 211.95 158.07 267.85 158.13 269.07 154.19 269.07 154.19"/><polygon class="cls-10" points="268.77 159.04 268.47 163.91 211.03 163.54 268.15 162.99 268.76 159.04 268.77 159.04"/><polygon class="cls-10" points="268.15 164.51 267.85 169.37 211.63 168.7 267.23 168.46 268.14 164.51 268.15 164.51"/></g><polygon class="cls-8" points="197.44 53.07 197.29 56.2 196.97 62.98 193.02 145.96 192.18 163.5 192.15 164.17 192.1 165.25 22.94 165.25 22.94 165.18 17.81 74.8 17.78 74.34 17.46 68.74 17.4 67.59 17.4 67.58 17.15 63.22 17.09 62.22 16.86 58.05 16.53 52.36 190.44 53.04 196.73 53.07 196.9 53.07 197.44 53.07"/><polygon class="cls-5" points="197.44 56.2 197.03 62.98 196.97 62.98 137.51 63.75 77.43 63.75 28.64 62.51 17.13 62.22 17.09 62.22 16.86 58.05 197.29 56.2 197.44 56.2"/><polygon class="cls-6" points="20.45 15.32 3.36 54.14 5.49 58.77 209.19 58.77 209.19 53.07 196.01 15.32 20.45 15.32"/><polygon class="cls-2" points="5.49 58.77 3.36 54.14 73.3 55.7 209.19 53.64 209.19 58.77 5.49 58.77"/><polygon class="cls-11" points="3.36 53.78 20.45 15.32 102 15.32 100.22 19.24 21.88 17.82 19.38 23.51 68.17 27.07 75.29 37.05 40.39 31.35 38.97 39.54 13.33 38.11 9.05 43.45 5.85 50.93 12.26 52.36 73.3 55.7 3.36 53.78"/><polygon class="cls-12" points="97.76 15.32 196.01 15.32 209.19 53.78 140.46 54.68 194.59 52.36 204.56 52.36 204.92 46.3 202.78 39.89 166.46 42.03 119.81 42.03 117.67 31.51 197.44 33.84 199.22 30.99 194.95 17.46 97.76 15.32"/><polygon class="cls-12" points="115.56 40.61 114.9 45.59 80.38 47.37 20.45 48.44 20.45 51.29 117.31 54.68 115.56 40.61"/><polygon class="cls-13" points="195.95 163.47 195.95 163.49 195.18 171.66 194.95 174.15 150.38 174.51 150.31 174.51 19.38 175.57 16.53 165.25 22.94 165.18 161.51 163.81 192.18 163.5 192.32 163.5 195.95 163.47"/><polygon class="cls-14" points="121.23 164.18 122.66 171.3 123.37 174.86 123.37 171.3 123.37 165.25 176.03 164.09 121.23 164.18"/><polygon class="cls-8" points="184.62 37.76 175.28 164.18 125.82 164.18 116.6 39.7 116.25 34.91 150.43 8.2 184.62 37.76"/><polygon class="cls-5" points="197.08 57.97 187.57 163.03 190.32 163.47 188.86 174.15 180.38 174.15 180.38 164.2 174.18 164.2 174.18 164.18 183.19 42.33 150.43 13.19 116.6 39.7 116.25 34.91 150.43 8.2 183.91 21.02 207.41 47.31 197.08 57.97"/><polygon class="cls-15" points="116.25 39.89 126.96 163.97 141.87 163.97 127.64 163.47 127.64 159.55 126.57 153.85 162.54 153.49 126.57 152.07 126.57 149.22 144.02 149.22 126.22 148.51 125.15 134.26 137.97 133.55 157.2 134.26 125.86 131.77 124.44 126.43 123.72 112.54 142.24 112.19 123.01 111.12 122.3 106.49 122.3 99.72 136.9 99.36 155.77 99.36 121.94 97.94 121.59 94.02 140.46 94.02 121.94 92.6 120.88 82.98 135.12 82.63 159.34 82.63 120.52 81.56 119.45 70.16 119.45 63.4 137.26 61.97 161.83 61.62 119.09 61.26 116.25 39.89"/><polygon class="cls-15" points="89.89 68.74 17.46 68.74 17.4 67.59 17.4 67.58 89.89 68.74"/><polygon class="cls-15" points="117.31 75.86 17.81 74.8 17.78 74.34 71.02 73.37 117.31 75.86"/><polygon class="cls-15" points="123.77 131.77 52.7 131.02 52.68 130.69 90.71 129.99 123.77 131.77"/><polygon class="cls-15" points="93.15 138.89 22.07 138.14 22.05 137.81 60.08 137.11 93.15 138.89"/><polygon class="cls-16" points="105.6 114.7 106.53 162.38 105.58 162.38 105.15 114.69 96.09 114.32 93.86 163.82 89.17 163.82 93.3 111.12 116.43 111.31 116.62 115.15 105.6 114.7"/><polygon class="cls-2" points="94.04 111.75 91.78 164.01 118.75 164.01 116.43 112.68 94.04 111.75"/><polygon class="cls-17" points="96.15 133.29 105.1 133.29 104.75 114.7 96.15 114.7 96.15 133.29"/><polygon class="cls-17" points="106.86 133.29 106.07 114.7 114.41 114.7 115.53 133.55 106.86 133.29"/><polygon class="cls-2" points="100.25 114.32 100.53 133.54 100.89 133.54 100.89 114.32 100.25 114.32"/><polygon class="cls-2" points="95.98 121.36 105.32 121.14 105.32 120.85 95.98 120.85 95.98 121.36"/><polygon class="cls-2" points="95.82 127.58 105.15 127.3 105.15 126.95 95.82 126.95 95.82 127.58"/><polygon class="cls-2" points="110.23 114.33 110.72 133.54 111.08 133.54 110.87 114.32 110.23 114.33"/><polygon class="cls-2" points="106.04 121.42 115.37 121.07 115.37 120.78 106.04 120.92 106.04 121.42"/><polygon class="cls-2" points="105.95 127.65 115.28 127.23 115.27 126.88 105.94 127.02 105.95 127.65"/><polygon class="cls-16" points="105.97 115.33 106.88 163.01 105.96 163.01 105.54 115.31 96.79 114.95 94.67 164.01 91.83 164.01 94.1 111.75 116.48 112.68 116.62 115.78 105.97 115.33"/><path class="cls-18" d="M104.49,135.33H96.66l-1.43,27.42h10ZM96,161.69,97.12,136h6.43l.59,25.65Z"/><path class="cls-18" d="M115.18,135.33h-7.13l.72,27.42h8.9Zm-6.41,1.07h5.8l2,25.29h-7.25Z"/><polygon class="cls-2" points="37.19 28.85 40.04 32.06 66.03 12.12 92.39 30.64 95.59 27.43 65.68 8.2 37.19 28.85"/><polygon class="cls-5" points="65.32 107.56 87.4 122.51 123.77 125.23 121.59 104 65.32 107.56"/><polygon class="cls-2" points="68.88 169.58 70.25 175.22 123.37 175.22 121.23 165.25 75.46 165.25 76.28 169.58 68.88 169.58"/><polygon class="cls-2" points="121.94 105.78 117 105.67 107.16 106 107.15 106 103.99 106.11 103.7 106.12 65.41 107.42 65.11 103.6 65.05 102.89 58.99 103.07 58.67 101.99 86.28 93.06 117.31 83.02 119.11 82.43 121.94 105.78"/><polygon class="cls-6" points="121.59 100.79 65.03 103.61 58.55 104 58.31 101.98 119.85 81.39 121.59 100.79"/><path class="cls-5" d="M68.88,169.58l1.37,5.64h3.47L73,170.88l36.18-.86-31.79-.44-.82-3.47,16.22-.86H75.46l.82,4.33Z"/><polygon class="cls-5" points="69.56 106.95 103.99 106.11 103.7 106.12 65.41 107.42 65.11 103.6 105.72 101.27 69.64 104.46 69.56 106.95"/><polygon class="cls-5" points="58.2 101.86 78.85 101.86 120.16 98.3 120.16 93.31 83.48 95.09 97.73 90.82 119.45 89.04 119.32 84.77 104.23 86.61 120.16 81.56 121.59 100.79 58.55 104 58.2 101.86"/><polygon class="cls-19" points="19.38 175.57 17.96 166.31 26.15 167.03 75.01 164.67 16.53 165.25 19.38 175.57"/><polygon class="cls-5" points="77.33 110.05 77.33 144.37 31.56 144.37 28.24 110.05 77.33 110.05"/><polygon class="cls-20" points="77.33 111.53 77.33 144.37 35.22 144.37 31.93 111.53 77.33 111.53"/><polygon class="cls-21" points="77.33 113 77.33 143.26 37.09 143.26 36.53 138.13 35.96 132.85 33.78 113 77.33 113"/><polygon class="cls-20" points="33.04 118.91 77.32 118.91 77.32 119.64 33.78 119.64 33.04 118.91"/><polygon class="cls-20" points="44.85 112.26 47.58 144.37 48.29 144.37 46.7 112.26 44.85 112.26"/><polygon class="cls-20" points="67 112.26 69.09 144.37 69.71 144.37 68.84 112.26 67 112.26"/><polygon class="cls-5" points="164.68 30.64 164.34 33.83 164.11 35.95 160.76 67.31 138.32 67.31 136.49 34.92 136.37 32.78 136.19 29.57 164.68 30.64"/><polygon class="cls-20" points="164.34 33.83 164.11 35.95 160.76 67.31 138.32 67.31 136.49 34.92 136.37 32.78 164.34 33.83"/><polygon class="cls-21" points="162.54 35.95 162.07 40.96 161.21 50.02 159.56 67.31 139.6 67.31 137.97 34.92 152.31 35.52 162.54 35.95"/><polygon class="cls-20" points="137.97 48.44 162.18 47.73 161.83 49.51 137.97 49.51 137.97 48.44"/><polygon class="cls-5" points="165.75 105.42 165.4 108.61 165.18 110.74 161.83 142.1 139.39 142.1 137.56 109.7 137.44 107.56 137.26 104.35 165.75 105.42"/><polygon class="cls-20" points="165.4 108.61 165.18 110.74 161.47 144.24 139.04 144.24 137.56 109.7 137.44 107.56 165.4 108.61"/><polygon class="cls-21" points="163.61 110.74 163.13 115.74 162.27 124.8 160.63 142.1 140.67 142.1 139.04 109.7 153.38 110.31 163.61 110.74"/><polygon class="cls-20" points="139.04 123.22 163.25 122.51 162.9 124.29 139.04 124.29 139.04 123.22"/><polygon class="cls-5" points="84.55 46.66 98.8 36.69 103.78 37.4 108.41 32.77 88.82 15.68 68.88 15.32 76.74 46.03 84.55 46.66"/><polygon class="cls-22" points="94.88 27.07 92.74 29.92 85.97 26 84.84 42.48 84.55 46.66 48.58 46.66 45.36 29.6 45.11 28.24 45.02 27.79 40.15 32.06 37.19 28.85 65.68 8.2 94.88 27.07"/><polygon class="cls-5" points="48.58 46.66 45.36 29.6 46.8 31.35 47.16 35.62 47.87 39.18 71.38 39.89 47.86 40.61 48.94 45.95 62.47 44.88 84.55 46.66 48.58 46.66"/><polygon class="cls-5" points="85.97 26 84.84 42.48 84.55 29.21 66.03 15.32 46.09 28.14 52.5 28.85 45.36 29.6 45.11 28.24 45.38 27.79 66.03 12.12 85.97 26"/><polygon class="cls-5" points="77.07 24.94 76.82 29.57 76 44.17 57.05 43.51 55.35 43.45 53.57 24.94 77.07 24.94"/><polygon class="cls-20" points="76.82 29.57 76.74 30.99 76 44.17 58.34 43.56 57.05 43.51 55.71 29.57 76.82 29.57"/><polygon class="cls-21" points="76.74 30.99 76 44.17 73.24 44.07 61.71 43.68 58.34 43.56 57.13 30.99 76.74 30.99"/><polygon class="cls-2" points="110.19 40.61 105.64 34.8 150.43 3.57 192.45 36.33 187.83 41.05 150.43 8.2 110.19 40.61"/></g></g></svg>