<svg id="Ebene_1" data-name="Ebene 1" xmlns="http://www.w3.org/2000/svg" viewBox="0 0 895 602"><defs><style>.cls-1{fill:#f6b68f;}.cls-2,.cls-3{fill:none;stroke:#f4ae8e;stroke-linecap:round;stroke-linejoin:round;}.cls-2{stroke-width:8px;}.cls-3{stroke-width:6px;}.cls-4{fill:#ffc9b1;}.cls-4,.cls-6,.cls-7,.cls-9{opacity:0.6;}.cls-5{fill:#f4de16;stroke:#ffe20d;stroke-miterlimit:10;opacity:0.41;}.cls-6,.cls-8{fill:#f2992f;}.cls-7{fill:#da3129;}.cls-9{fill:#ef733a;}</style></defs><path class="cls-1" d="M625.79,612.3,614.7,472.66s-2.6-17.44,8.65-24.41c10.56-6.55,31.81-21.56,34.36-23.37l.49-.37,22.69-21.8c.48-.39,19.72-22.38,19.9-22.67L715.66,358a8,8,0,0,1,.58-.82L748,317.43h0c.17-.16,24.65-28.12,25.51-33.31,3.84-10.53,7.79-28.77-21.63-26.16-24.23,1.75-72.45,58.84-77,64.41a9,9,0,0,1-.79.85c-2,1.88-10.3,9.5-17.85,12.54-4.73,1.91-12.69-16.94-16-33.33-2.2-10.89-.86-19.18-1.09-23.69,0-.93,7.67-49.71,8.45-52.85.43-1.73,4-25.43,8.22-48.15,4.29-23,9.24-45.09,10-48.64,5.59-28.32,12.31-61.91,7.91-72.27-3.73-9.3-16.11-13.3-26.08-3.6-11,10.68-26.83,68-27.69,70.64l-12.54,51.25c-.05.19-9,40.09-10.82,43.79C594.8,222.4,587,225,584.41,218c-4.25-11.43,3.59-62.67,3.59-62.67l5.07-49.82,4.76-46.4s.86-14,1.73-25.29a95.4,95.4,0,0,0-1.17-18C592.66-8.1,565.65-2.68,559.45,28.06c-4.81,18.34-10.51,64.41-10.51,64.41l-6.79,52.43-2.58,30.29,0,.45c-.08,2.54-.68,27.9-4,37-2.47,6.72-7.76,3.93-9.52-7.85-2.59-17.44-6-46.22-6-46.22L513.58,103c.17-.74-2.13-17.35-3.14-33.41-.76-13.56-5-34.19-5.19-34.88C501,21.92,483.87,9,472.93,38.52c-4.89,16.27-3.59,66.16-3.59,66.16l1.86,44.58L476.26,198l3.46,36.62s-5.93,11.45-10.25,1c-2-4.91-5-13.46-7.79-20.93-3.13-8.45-5.75-16-5.75-16l-9.52-31.4s-8.65-27-15.57-47.08c-4.2-15.4-30.14-28.37-29.73,10.76.1,8.73,1.89,19.59,3.77,28.48,3.28,15.51,7,30.71,7.79,33.13.07.24,12.38,49.18,12.38,49.18.11.47,2.3,14.86,2.33,15.35.69,12.44,8.53,167.84,39.36,196.39h0l-8.09,163.79Z"/><path class="cls-2" d="M641.32,320.43s-80.21-15.91-96.58,69.84"/><line class="cls-3" x1="434.32" y1="240.27" x2="462.32" y2="231.27"/><line class="cls-3" x1="424.32" y1="196.27" x2="447.32" y2="191.27"/><line class="cls-3" x1="414.32" y1="156.27" x2="433.32" y2="152.27"/><line class="cls-3" x1="487.32" y1="221.27" x2="522.32" y2="212.27"/><line class="cls-3" x1="479.32" y1="149.27" x2="511.32" y2="144.27"/><line class="cls-3" x1="476.32" y1="81.27" x2="505.32" y2="79.27"/><line class="cls-3" x1="560.32" y1="61.27" x2="592.32" y2="64.27"/><line class="cls-3" x1="637.32" y1="99.27" x2="663.32" y2="106.27"/><line class="cls-3" x1="620.32" y1="150.27" x2="652.32" y2="160.27"/><line class="cls-3" x1="604.32" y1="216.27" x2="638.32" y2="226.27"/><line class="cls-3" x1="542.32" y1="209.27" x2="578.32" y2="211.27"/><line class="cls-3" x1="661.29" y1="336.26" x2="680.35" y2="384.27"/><line class="cls-3" x1="709.32" y1="289.27" x2="730.32" y2="321.27"/><line class="cls-3" x1="549.32" y1="127.27" x2="585.32" y2="130.27"/><path class="cls-1" d="M228.79,610.13,217.7,472.84s-2.6-17.15,8.65-24c10.56-6.44,31.81-21.2,34.36-23l.49-.37,22.69-21.42c.48-.39,19.72-22,19.9-22.3l14.87-21.68a9.19,9.19,0,0,1,.58-.81L351,320.21h0c.17-.15,24.65-27.64,25.51-32.74,3.84-10.36,7.79-28.3-21.63-25.73-24.23,1.72-72.45,57.86-77,63.33a8.93,8.93,0,0,1-.79.84c-2,1.85-10.3,9.33-17.85,12.33-4.73,1.87-12.69-16.66-16-32.77-2.2-10.71-.86-18.86-1.09-23.3,0-.91,7.67-48.88,8.45-52,.43-1.7,4-25,8.22-47.34,4.29-22.64,9.24-44.34,9.95-47.83,5.59-27.84,12.31-60.87,7.91-71-3.73-9.14-16.11-13.08-26.08-3.54-11,10.5-26.83,66.88-27.69,69.45h0l-12.54,50.4c0,.18-9,39.41-10.82,43-1.73,3.43-9.52,6-12.12-.86-4.25-11.23,3.59-61.62,3.59-61.62l5.07-49,4.76-45.63s.86-13.72,1.73-24.87a92.14,92.14,0,0,0-1.17-17.7c-5.73-23.55-32.74-18.22-38.94,12C157.64,53.74,151.94,99,151.94,99l-6.79,51.55-2.58,29.77,0,.45c-.08,2.49-.68,27.43-4,36.35-2.47,6.61-7.76,3.87-9.52-7.71-2.59-17.15-6-45.44-6-45.44l-6.38-54.61c.17-.72-2.13-17.06-3.14-32.84-.76-13.34-5-33.62-5.19-34.3C104,29.67,86.87,17,75.93,46,71,62,72.34,111,72.34,111l1.86,43.83,5.06,47.91,3.46,36s-5.93,11.26-10.25,1c-2-4.82-5-13.23-7.79-20.58-3.13-8.31-5.75-15.73-5.75-15.73l-9.52-30.86S40.76,146,33.84,126.28C29.64,111.15,3.7,98.4,4.11,136.87c.1,8.58,1.89,19.26,3.77,28,3.28,15.26,7,30.2,7.79,32.58.07.24,12.38,48.35,12.38,48.35.11.47,2.3,14.62,2.33,15.1.69,12.23,8.53,165,39.36,193.09h0L61.65,615Z"/><path class="cls-4" d="M198.3,29a14.93,14.93,0,0,0-12.44-17.46c-8-1.07-15.26,5.08-16.62,13.28L167,39l29.1,4.3Z"/><path class="cls-4" d="M26.57,127.63c-2.11-6.48-8.21-10.28-13.5-8.34-5.11,1.88-7.3,8.68-5.25,15l3.67,10.92,18.82-6.58Z"/><path class="cls-4" d="M274.1,78.23c2-8.13-2.54-16.16-10-17.7-7.23-1.5-14.42,4.07-16.34,12l-3.18,13.76,26.37,5.84Z"/><path class="cls-4" d="M105.91,46.43c-.08-8.36-6.4-15-14-14.72-7.37.31-13,7.46-12.92,15.6l.27,14.12,27-.77Z"/><path class="cls-4" d="M370.68,296.6c7-7.72,7.95-18.14,2.08-23-5.68-4.72-15.82-2-22.61,5.53l-11.67,13.14L359,309.88Z"/><path class="cls-5" d="M150,596.5c-2.65-7.72-1.49-14.1,0-26,.57-4.55,1.13-6.76,6-25,6-22.52,7.48-27.86,10-36,3.6-11.61,5.59-16.78,8-22,.22-.49,1-2,2.09-4.31,2.7-5.66,4.54-9.85,4.91-10.69,3.77-8.54,10.22-19.82,15-30,4.08-8.71,7.39-19.14,14-40,2.28-7.2,3.85-12.8,7-24,1.43-5.11,2.23-8.13,3-12,.43-2.18.52-2.93,1-5,.7-3,1.2-4.37,3-10,2.52-7.89,2.67-8.78,4-10,2.68-2.47,4.67-1.23,6-3,2.94-3.9-5.2-12-9-25,0,0-1.71-5.85-2-17-.92-34.74,30.19-57.15,22-74-5.73-11.79-28.23-15.81-36-9-5.68,5-1.9,14.38-8,18-5.36,3.18-15-.08-20-6s-4.69-13.64-1-36.91c5.83-36.33,9.31-44.3,4-51.09-6-7.64-20.62-10.48-28-5-2.4,1.78-6.93,6.6-7,64,0,7.21.05,19.68-8,26-1.1.87-4.94,3.88-9,3-4.5-1-8.52-6.55-13-29-2.84-14.26-3.2-22-5-39-4.6-43.58-6.78-38.55-6-51,.64-10.27,2.33-17-2-21-5.2-4.82-17-3.74-23,2-8.2,7.79-2.26,20.75,2,50,6.6,45.3-1.61,56.37,10,89,3.75,10.55,7.19,16.84,13,28,40.49,77.8,60.55,117.14,52,139-9.48,24.22-43,40.93-59,33-19.77-9.83-5.31-54-39-101-2.2-3.07-13.78-19.24-19-17-4.57,2-2.34,16.58,2,45,4,26.47,6.88,31.12,9,34,5.52,7.49,10.31,8.51,20,21a138.42,138.42,0,0,1,10,15,189.23,189.23,0,0,1,13,26c5.8,14.46,7.83,25.58,11,43,3.33,18.3,5,27.53,5,41,0,9.2-.8,16.55,0,31,.45,8.17,1.36,17.43,5,24,1.41,2.54,2.27,4.36,4,8,2.3,4.84,2.77,6.3,3,8,.58,4.29-1,5.36,0,7,1.59,2.58,6.25,1.12,17,1,9.94-.11,12.76.91,14-1C157.81,608.71,152.85,604.79,150,596.5Z"/><path class="cls-6" d="M114.35,577.17c4.59,19.31,14.83,29.52,10.15,34.83-1,1.09-2.22,1.6-12,2-13.27.54-20.08,0-29,0-17,.07-18.22,2.26-21,0-6.24-5.08-1-17,2-44,.17-1.48.78-14.32,2-40,.52-11,1.25-27.11,2-47,.06-16.07.45-23.53,1-26a6.26,6.26,0,0,0,0-3,7.44,7.44,0,0,0-3-4c-4.43-3.23-10.66-19.9-11.4-21.91-2.23-6-13.86-37.55-7.6-41.09,5.22-2.95,20.56,14.89,24,19C99.58,439.58,106,480.41,110,506c.72,4.58,1.84,11.72,2.68,21.44C115.35,558.32,110.52,561,114.35,577.17Z"/><path class="cls-6" d="M242.58,337.45c-3.22-2.39-7.72-1.14-8.18-1-8,2.35-9.34,14.16-15.59,38.62-5.3,20.75-10.21,35.2-11.75,39.61C193.5,453.5,184.18,464,174.58,486.14c-4.11,9.47-6.44,16.79-8,21.39-4.06,12.2-30.35,91.13-9.93,103.46,2,1.23,1.57,0,24.55,0h27.61c13.12.51,19,1.55,21.48-2,1.11-1.58,1-3.19,0-11.11-1.25-10.16-1.87-15.24-2.05-16.15-1.92-9.55-3-26.34-5.11-59.55-2.31-36.34-3.46-54.51-3.07-60.56,1.44-22.61,5.89-40.33,10.23-57.54C239.94,365.79,250.84,343.59,242.58,337.45Z"/><path class="cls-5" d="M39.49,143.63c-.36,1.79-2,3.66-16.49,7.87-10.6,3.08-15.29,3.69-17.09,1.41a2.14,2.14,0,0,1-.25-.34c-.41-.73-.53-2.15-.8-8.94-.51-12.61-.4-15.43-.13-16.92,0-.19.07-.36.13-.61,1-4.65,4.4-13.83,10.14-14.6,3.18-.43,7.61,1.66,8.41,2.06l.34.16c4.44,2.28,7.65,7.73,8.25,8.78,3.06,5.32,1.8,5.43,6.44,17C39.37,141.84,39.7,142.54,39.49,143.63Z"/><path class="cls-5" d="M635,86.5c2.14,3.09,5.59,1.59,17,4,12.94,2.73,15.71,6.17,19,4,2.16-1.42,2.77-8.28,4-22a45.72,45.72,0,0,0-1-15c-.47-1-3.39-7.24-10-9a15.35,15.35,0,0,0-10,1c-7,2.87-10.15,9.15-14,17C635.41,75.85,632.19,82.43,635,86.5Z"/><path class="cls-5" d="M457,244.5c-2.06,2.51-2,7.22,0,10,3.22,4.51,10.88,3.07,33,0,26-3.62,34.38-4.27,35-8,.47-2.86-3.84-6-8-9a37.52,37.52,0,0,0-14-6c-5.39-1.17-15.29-3.32-22,2-3.09,2.45-1.92,3.64-5,6C468.88,245,460.63,240.07,457,244.5Z"/><path class="cls-5" d="M470,303.5c-1.16-4,32-16.61,54-25,31.78-12.1,48.9-18.62,51-15,1.92,3.32-8.84,15.05-22,21-8.77,4-10.39,1.65-24,5-19.43,4.79-22.64,11.11-41,14C486.28,303.77,470.77,306.15,470,303.5Z"/><path class="cls-5" d="M605,190.5c9.34-11.06,44.94-2,47,10,.79,4.61-3.93,6.44-10,19-3.76,7.78-5.27,14-7,21-4.29,17.49-2.8,29.16-4,38-3.64,26.84-21.57,50.89-50,89-4.77,6.39-14,18.45-10,27a12.92,12.92,0,0,0,10,7c11.89,1.15,17.52-18.55,33-32,19.28-16.76,31.39-4.3,60-17,42.14-18.71,52.59-62,74-57,4.55,1.07,11.17,4.69,11,8s-6.86,4.23-14,9c-7.56,5.05-10.46,10.95-15,18-19.52,30.33-37.82,33.19-43,55-.74,3.1-1.31,7-4,12-1.88,3.49-3.76,5.57-16,18-4.59,4.66-6.91,7-8,8-5.81,5.26-9.74,7.65-16,12-18,12.54-21,17.35-26,16-3.94-1.05-4.4-4.57-8-9-11.83-14.57-31.5-6.88-51-18-2.21-1.26-16.46-9.63-21-23-11.46-33.74,45.73-79.08,41-84-2.91-3-27.68,10.91-49,29-12.81,10.87-22,21.84-30,19a11.31,11.31,0,0,1-7-10c0-8.34,12.17-12.79,33-25,22.65-13.28,17.14-13.05,42-28,16.92-10.17,24.63-13.16,37-24,17.77-15.57,17.29-21.46,17-23-1.82-9.77-19.07-8.64-23-21-1.79-5.61,1.4-7,4-25C604,195.38,602.48,193.49,605,190.5Z"/><path class="cls-6" d="M476.5,524c4.41-41.21,6.52-46.35,9-51,18.33-34.39,61.35-50.81,80-45a123,123,0,0,0,17,5c11.54,2.38,14.23.94,20,4,.81.43,10.89,5.95,13,16,.93,4.44-.54,5.73-1,14-.38,6.83.32,11.49,1,17,1.43,11.62,1.88,23.34,3,35,3.64,38,2,34.73,5,63,2.77,26.31,4,27,2,30-11.41,17.7-50.39-7-116,4-16.14,2.69-23.05,5.73-30,1S468.19,601.71,476.5,524Z"/><path class="cls-7" d="M493.5,302c-.66-2.13,15.68-8.95,23-12,17.59-7.34,21.26-7.2,38-14s24-11.4,25-10c1.25,1.85-9.83,12-20,19-6.86,4.73-16.4,11.18-30,14-1.62.34-6.74.89-17,2C495.16,302.88,493.68,302.59,493.5,302Z"/><path class="cls-7" d="M508.5,350c1-6.41,9.7-7.76,27-16,17.48-8.32,26.22-12.48,35-19a58.46,58.46,0,0,1,21-9c3.62-.74,4.67-.55,5,0,1.4,2.34-9.66,12.21-20,19-13.7,9-16.34,6.14-30,14-19.52,11.23-26.07,23.91-33,21C510,358.53,507.91,353.73,508.5,350Z"/><path class="cls-8" d="M757.5,306a36.35,36.35,0,0,0-14,7c-4.17,3.43-5.74,6.44-16,21-2,2.88-3.7,5.22-4.78,6.73-1.63,1.74-4.09,4.38-7,7.73-4.23,4.88-2.74,3.73-21.84,22.54-.78,3-4.39,3-8.39,22a44,44,0,0,1-3,6,55,55,0,0,1-7,9c.08.08,3.34-2.87,8-8,6.25-6.87,6-7.7,11-13a91.83,91.83,0,0,0,6-7c3.35-4.34,3.32-5.23,8-12,.48-.69,2.39-3.47,5-7,3.32-4.48,7-9,7-9,5.69-7,11.28-14,17-21C742.24,325.23,749.09,316.78,757.5,306Z"/><path class="cls-7" d="M454.5,193c-1.25.15-2.52,12.34,1,25,2.29,8.23,8.76,24.15,17,24,3.58-.07,6.28-3.17,7-4,3.44-4,3.35-9,3-16-.65-12.89-1-19.33-2-25-2.29-12.74-6-26.19-7-26-1.2.24,1.77,21.35,2,23,.08.58,1.18,8.3,2,16,0,.12,0,.24,0,.41.5,4.73.71,8.17,1,12.59.48,8.49.46,9,0,10-1.05,2.25-3.57,5.3-6,5s-2.59-4.88-8-17c-1.81-4.05-3.58-7.49-5-13-.36-1.41-.48-2.07-1-4C457.5,200.29,455.49,192.88,454.5,193Z"/><path class="cls-7" d="M516.5,133c-1.81,0-3.59,29.51,2,60,2.65,14.43,6.22,25.07,12,26a7.89,7.89,0,0,0,5-1.14c4.81-2.66,6-9,6.79-14.79A246.43,246.43,0,0,0,544.5,178c.94-17.4,5.46-38.51,1-47-.21-.39-.57-1-1-1-1.77.11-2,11.42-4,37-.49,6.26-.64,7.95-1,13-.47,6.62-.53,8.53-1,14,0,0-.34,3.91-1,9-.64,4.87-.4,1.84-1,6a11.31,11.31,0,0,1-1,4c-.37.71-1.46,2.82-3,3-2.3.27-4.44-3.9-5-5-1.78-3.49-1.65-5.7-2.42-13.27-.56-5.52-.61-4.2-1.69-13.82-.34-3-.64-5-.89-6.91C518,142.68,517.54,133,516.5,133Z"/><path class="cls-7" d="M147.5,135c-2.73,0-6.36,86-12,86a6.43,6.43,0,0,1-3-2,9.52,9.52,0,0,1-2-4c-.75-3.29-6-42.45-13-96-5.08-49.65-5.84-60-6.84-60.93,0-.36-.11-.71-.16-1.07-2.65-17.69-6.39-21.87-9-24-1.14-.93-6.37-5.18-12-4-6,1.25-9.86,8-13,18-6.22,19.68-4.84,37.06-4,57,.71,16.85,3.11,84.78,5,98v.07c.13.88,1.16,8.18,2,15.93,0,.12,0,.24,0,.41.5,4.73.71,8.17,1,12.59.48,8.49.46,9,0,10-1,2.25-3.57,5.3-6,5s-2.59-4.88-8-17c-1.81-4.05-3.58-7.49-5-13-.36-1.41-.48-2.07-1-4-1-3.71-3-11.12-4-11-1.25.15-2.52,12.34,1,25,2.29,8.23,8.76,24.15,17,24,1.76,0,3.53-1.37,7-4,5.54-4.19,10.73-8.12,13-13,3.52-7.56-1.82-13.46-5-27-2.49-10.57.08-9.89-1-32-.72-14.74-1.36-27.79-5-44a155.81,155.81,0,0,1-4-28c-.24-4.88-.24-9.83,3-14,4-5.15,10.46-5.94,11-6,7.76-.84,11.54,4.7,15,4.26a60.07,60.07,0,0,1,1,9.74,60.57,60.57,0,0,1-1,12c-1.35,7.8,2.42,23.68,4,32,.38,2,.92,6.34,2,15,3.16,25.39,2.14,29.53,5,43,2.41,11.34,5.61,25.72,13,27,2.84.49,5.5-1.1,7-2s6.5-4.23,9-16c1.81-8.51-.05-10.46,0-25,0-5.45.35-10.63,1-21a97,97,0,0,0-1-22C147.87,135.12,147.6,135,147.5,135Z"/><path class="cls-7" d="M591.5,112c-3.13-.68-16.08,47.29-15,86,0,0,1,25.8,8.88,28.36a10.16,10.16,0,0,0,5.13,0c5.39-1.31,8.56-6.42,11-11.33a92.69,92.69,0,0,0,8-25c5-27.55,6.86-26,10-49,1.35-9.89,2.73-22.88,2-23s-2.21,9.81-7,29c-3.79,15.17-4.76,17.18-8,31-2.37,10.1-3.56,15.16-4,18-1.06,6.79-3.64,13.26-5,20a7.65,7.65,0,0,1-2,4,7.1,7.1,0,0,1-6,2,7.27,7.27,0,0,1-5.33-4.1,8.71,8.71,0,0,1-.67-2.9c-.48-4.08-.12-6.84,0-11,.06-2.16,0-2.56,0-5,0-2.22.08-8.48,1-18,.77-8,1.82-14.88,2.48-18.9.26-1.61.47-2.8.52-3.1C588.94,150.7,594.25,112.6,591.5,112Z"/><path class="cls-7" d="M193.5,121c-3.13-.68-16.08,47.29-15,86,0,0,.95,25.8,8.88,28.36a10.16,10.16,0,0,0,5.13,0c5.39-1.31,8.56-6.42,11-11.33a92.69,92.69,0,0,0,8-25c5-27.55,6.86-26,10-49,1.35-9.89,2.73-22.88,2-23s-2.21,9.81-7,29c-3.79,15.17-4.76,17.18-8,31-2.37,10.1-3.56,15.16-4,18-1.06,6.79-3.64,13.26-5,20a7.65,7.65,0,0,1-2,4,7.1,7.1,0,0,1-6,2,7.27,7.27,0,0,1-5.33-4.1,8.71,8.71,0,0,1-.67-2.9c-.48-4.08-.12-6.84,0-11,.06-2.16,0-2.56,0-5,0-2.22.08-8.48,1-18,.77-8,1.82-14.88,2.48-18.9.26-1.61.47-2.8.52-3.1C190.94,159.7,196.25,121.6,193.5,121Z"/><path class="cls-7" d="M649.5,207c-1.84-.54-8.91,14.39-13,30-4.83,18.42-4.93,35.62-5,48-.07,11.55.71,13,0,22-1.1,14-3.79,18-1,24a25.51,25.51,0,0,0,19,14c10.09,1.41,18-4.7,31-15,9.85-7.82,10.86-10.77,27-26,10.18-9.61,14.88-13.73,21-18,10.67-7.44,16.44-11.36,24-11,11.55.54,16.34,10.56,21,8s5-15.25-1-21c-1.55-1.49-3.19-2.05-6-3a33.51,33.51,0,0,0-17-1c-5.68,1.1-10.11,3.38-17,8a187.87,187.87,0,0,0-27,22,289.4,289.4,0,0,0-20,22c-4.65,5.79-6.38,8.5-11,13-5.88,5.72-14.58,14.2-21,12-2.27-.78-3.93-2.78-7-11-4.68-12.54-8.81-23.63-8-40,.33-6.55,1-10.15,3-21C647.61,229.7,651.65,207.63,649.5,207Z"/><path class="cls-7" d="M472.5,57c5.61,8,24.88,5.39,29-2,.35-.63.9-2.08,2-5,1.88-5,2.82-7.46,3-9,.83-7-5-12.91-6-14-1.43-1.53-5.62-6-11-6-9.6.07-16.53,14.58-18,25C470.9,50.23,470.33,53.92,472.5,57Z"/><path class="cls-7" d="M160.5,46c3.49,5.38,16.41-3.18,35-1,1.57.18,4.2.56,6-1,.77-.67,2.44-2.61,0-17-1.45-8.54-2.42-10.15-3-11s-4.38-6.24-11-7c-7.46-.86-13.06,4.95-16,8-4.76,4.94-6.45,10.15-9,18C160.47,41.26,159.45,44.38,160.5,46Z"/><path class="cls-7" d="M258.5,88c6.29,1.69,10.05,4,14,2a10,10,0,0,0,4-4c1.07-2,.88-3.22,1-9,.15-7.32.51-7.67,0-10a15.87,15.87,0,0,0-3-7c-3.35-4.11-9.18-5.73-14-5-6.06.92-9.49,5.41-13,10-1.19,1.55-11,14.39-7,20C242.83,88.27,246.86,84.88,258.5,88Z"/><path class="cls-7" d="M560.12,35.37c6.07,10,35.49,6.31,39.38-4.37.51-1.41.34-3.27,0-7-.66-7.2-1.16-12.68-5-17a18.06,18.06,0,0,0-14.12-5.9c-12.07.74-18.43,15.52-20.24,23.23C559.09,28.83,558.27,32.33,560.12,35.37Z"/><path class="cls-7" d="M220.5,455c.7.22,1.36-1.17,4-4,5.83-6.24,11.6-9.05,15-11,11.49-6.58,32.19-24,37-28,5.48-4.6,7.12-6.61,46-56,25.85-32.85,25.71-32.7,26-33,6.26-6.4,18.62-18.12,27-34,2.23-4.22,5.44-11.13,3-18a15.82,15.82,0,0,0-5-7c-7.86-6.2-19.63-2.41-24-1a39.63,39.63,0,0,0-7,3c-21.05,11.77-50,43-50,43-18.45,20.07-27.78,30.08-33,29-13.26-2.75-16.55-36.39-17-41-3.27-33.44,9.59-55.4,6-57s-21.63,20.35-25,47a76.3,76.3,0,0,0,3,32c2,6.8,3.5,11.73,8,16,3.53,3.35,6.14,3.68,8,7,3.18,5.67.2,12.94-1,16-5.06,12.87-6.6,26.89-11,40C221.17,425.82,217.53,454.05,220.5,455Z"/><path class="cls-9" d="M150.5,151c1.44-.08-1.22-13,6-19,3.78-3.12,8.69-3.06,11-3,1,0,10.63.4,16,7,1.29,1.59,2,3.16,3,3,1.33-.23,2-3.57,3-9a26.8,26.8,0,0,1,3-8c.26-.44.64-1.06,1-1,1.23.2.77,8,1,8s.72-12.16,2-25c.66-6.59,1.24-8.82,2-17,.58-6.21.45-6.77,1-11,1-7.85,1.78-8.67,2-14,.21-5.17-.48-5.33,0-10s1.61-8.8,1-9c-.23-.08-.5.49-1,1-1.93,2-5.51,1.31-8,1a56.58,56.58,0,0,0-11,0,45.63,45.63,0,0,0-11,2,21.77,21.77,0,0,1-6,1,5.57,5.57,0,0,1-4-1c-.62-.54-.73-1-1-1-1.34.09-1.83,7.63-2,10-.66,9.07-2.84,18-4,27-3.2,24.8-4.8,37.22-5,38a57.55,57.55,0,0,0-2,14C147.37,143.87,149.43,151.06,150.5,151Z"/><path class="cls-9" d="M208.5,213c.6.5,2.44-1.08,4-2,5.53-3.26,12.5-1.09,16,0,7,2.17,17,8.4,18,17,.64,5.62-2.73,11-1,12,.77.43,2.23-.17,3-1,.61-.67.66-1.36,1-3,.48-2.32.6-2.06,1-4a124,124,0,0,0,2-14c.43-5.94,1.48-9.18,4-21,3.89-18.25,3.11-18.59,9-49,3-15.43,4.48-23.14,5-25,3.26-11.78,3.86-24.19,7-36,.06-.24.46-1.73,0-2-.79-.45-2.47,3.57-6,5-3,1.22-4.47-.59-13-2-4.36-.72-8-1-8-1-5.73-.44-8.55-.07-10-2-1.27-1.7-.51-3.88-1-4-1-.25-4.15,9.4-5,12-7,21.51-9.35,23.4-11,34-1,6.26-.07,5-1,15-2.42,25.92-9.79,47.61-11,58a35.46,35.46,0,0,1-1,6C209.39,210.17,207.85,212.47,208.5,213Z"/></svg>