<svg xmlns="http://www.w3.org/2000/svg" viewBox="0 0 76 76"><defs><style>.cls-1{opacity:0.2;}.cls-2{fill:#b7eff9;}.cls-3{fill:#7da8b2;}.cls-4{fill:#ffe4d7;}.cls-5{fill:#8c5e4d;}.cls-6{fill:#30606d;}</style></defs><g id="Schatten"><g class="cls-1"><ellipse cx="38.07" cy="68.5" rx="21.2" ry="6.5" transform="translate(-1.14 0.65) rotate(-0.96)"/></g></g><g id="people"><rect class="cls-2" x="25.08" y="27.73" width="26.07" height="42.02" rx="13.03" transform="translate(76.23 97.47) rotate(-180)"/><rect class="cls-3" x="25.01" y="56.22" width="26.07" height="13.53" rx="6.76"/><rect class="cls-2" x="25.04" y="46.72" width="26.07" height="14.97"/><ellipse class="cls-4" cx="38.14" cy="17.12" rx="11.63" ry="12.05"/><ellipse class="cls-4" cx="26.51" cy="17.8" rx="2.27" ry="2.51"/><ellipse class="cls-4" cx="49.77" cy="17.8" rx="2.27" ry="2.51"/><path class="cls-5" d="M38.14,4.25c6.54,0,10.2,3.78,11.36,9.68-1.09.18-2.27.4-3.39.52a21.09,21.09,0,0,1-5-6.53,26.21,26.21,0,0,0,2.14,6.78c-.69.05-1.4.08-2.1.11a22.75,22.75,0,0,1-1.39-6.95,30.74,30.74,0,0,0,.44,7c-.67,0-1.35,0-2,0A72.22,72.22,0,0,1,26.87,14C28.69,8.28,33.05,4.25,38.14,4.25Z"/><path class="cls-6" d="M36.71,2c.12.51-.47,1.07-1.31,1.25s-1.63-.09-1.75-.6S34.12,1.55,35,1.37,36.59,1.46,36.71,2Z"/><path class="cls-3" d="M37.53,12.27a92.59,92.59,0,0,0,9.79-2.62.64.64,0,0,0,.41-.88A11.47,11.47,0,0,0,35.18,2.3a10.85,10.85,0,0,0-8.46,10.93.67.67,0,0,0,.76.63A95.44,95.44,0,0,0,37.53,12.27Z"/><path class="cls-2" d="M31.9,13.3c1.86-.29,3.73-.62,5.63-1s3.74-.85,5.54-1.34c-.49-4.45-2.23-9.84-7.89-8.63S30.35,9.07,31.9,13.3Z"/><path class="cls-6" d="M47.87,9a.5.5,0,0,0-.59-.29c-14.38,3.78-21.82,5.06-26,4.95s-5.1,2.15,5,.74A121.71,121.71,0,0,0,47.56,9.59.45.45,0,0,0,47.87,9Z"/></g></svg>