<svg xmlns="http://www.w3.org/2000/svg" viewBox="0 0 80 80"><defs><style>.cls-1{opacity:0.53;}.cls-2{fill:#d48342;}.cls-3{fill:none;stroke:#d48342;stroke-miterlimit:10;stroke-width:9px;}.cls-4{fill:#b7eff9;}.cls-5{fill:#7da8b2;}.cls-6{fill:#ffe4d7;}.cls-7{fill:#ff9852;opacity:0.4;}.cls-8{fill:#8c5e4d;}.cls-9{fill:#30606d;}</style></defs><g id="Schatten"><g class="cls-1"><ellipse class="cls-2" cx="40.04" cy="73" rx="21.2" ry="6.5" transform="translate(-1.22 0.68) rotate(-0.96)"/></g></g><g id="people"><path class="cls-3" d="M28.51,17.79a2.4,2.4,0,0,0-2.26,2.51,2.4,2.4,0,0,0,2.26,2.52,1.93,1.93,0,0,0,.42-.05A11.91,11.91,0,0,0,36,30.89a13.08,13.08,0,0,0-9,12.37v6h0v15h.1A6.14,6.14,0,0,0,27,65.48a6.79,6.79,0,0,0,6.76,6.77H46.31a6.79,6.79,0,0,0,6.77-6.77A6.88,6.88,0,0,0,53,64.19h.16V60.12c0-.3,0-.6,0-.91v-16A13.08,13.08,0,0,0,44.22,30.9a11.92,11.92,0,0,0,7.14-8.13,1.84,1.84,0,0,0,.41.05A2.41,2.41,0,0,0,54,20.3a2.41,2.41,0,0,0-2.27-2.51l-.14,0a12,12,0,0,0-.28-1.35l.15,0a14.6,14.6,0,0,0-1.66-4.56.5.5,0,0,0,0-.36.43.43,0,0,0-.13-.17s0-.05,0-.07a11.61,11.61,0,0,0-11-6.68.49.49,0,0,0,0-.12c-.12-.51-.9-.78-1.75-.6s-1.43.74-1.31,1.25a.61.61,0,0,0,.05.12,10.93,10.93,0,0,0-7,10.49v0a33.59,33.59,0,0,1-5.47.41c-4.24-.1-5.1,2.15,5,.74l.55-.08c-.07.32-.13.65-.18,1Z"/><rect class="cls-4" x="27.08" y="30.23" width="26.07" height="42.02" rx="13.03" transform="translate(80.23 102.47) rotate(-180)"/><rect class="cls-5" x="27.01" y="58.72" width="26.07" height="13.53" rx="6.76"/><rect class="cls-4" x="27.04" y="49.22" width="26.07" height="14.97"/><ellipse class="cls-6" cx="40.14" cy="19.62" rx="11.63" ry="12.05"/><ellipse class="cls-6" cx="28.51" cy="20.3" rx="2.27" ry="2.51"/><ellipse class="cls-6" cx="51.77" cy="20.3" rx="2.27" ry="2.51"/><path class="cls-7" d="M51.67,17.79l-.15,0a12,12,0,0,0-.28-1.35l.15,0a14.4,14.4,0,0,0-1.71-4.56.45.45,0,0,0,0-.36.43.43,0,0,0-.13-.17s0-.05,0-.07A12,12,0,0,0,38.24,4.59a.48.48,0,0,0,0-.12c-.13-.51-.93-.78-1.8-.6S35,4.61,35.08,5.12c0,0,0,.08.05.12A10.94,10.94,0,0,0,28,15.73v0a35.57,35.57,0,0,1-5.62.41c-4.37-.1-5.25,2.15,5.16.74l.57-.08c-.07.32-.13.65-.18,1l-.15,0a2.52,2.52,0,0,0,0,5,2,2,0,0,0,.43-.05,11.92,11.92,0,0,0,23.06,0,2,2,0,0,0,.43.05,2.52,2.52,0,0,0,0-5Z"/><path class="cls-8" d="M40.14,6.75c6.54,0,10.2,3.78,11.36,9.68-1.09.18-2.27.4-3.39.52a21.09,21.09,0,0,1-5-6.53,26.21,26.21,0,0,0,2.14,6.78c-.69.05-1.4.08-2.1.11a22.75,22.75,0,0,1-1.39-6.95,30.74,30.74,0,0,0,.44,7c-.67,0-1.35,0-2,0a72.22,72.22,0,0,1-11.31-.88C30.69,10.78,35.05,6.75,40.14,6.75Z"/><path class="cls-9" d="M38.71,4.47c.12.51-.47,1.07-1.31,1.25s-1.63-.09-1.75-.6S36.12,4.05,37,3.87,38.59,4,38.71,4.47Z"/><path class="cls-5" d="M39.53,14.77a92.59,92.59,0,0,0,9.79-2.62.64.64,0,0,0,.41-.88A11.47,11.47,0,0,0,37.18,4.8a10.85,10.85,0,0,0-8.46,10.93.67.67,0,0,0,.76.63A95.44,95.44,0,0,0,39.53,14.77Z"/><path class="cls-4" d="M33.9,15.8c1.86-.29,3.73-.62,5.63-1s3.74-.85,5.54-1.34C44.58,9,42.84,3.59,37.18,4.8S32.35,11.57,33.9,15.8Z"/><path class="cls-9" d="M49.87,11.51a.5.5,0,0,0-.59-.29c-14.38,3.78-21.82,5.06-26,5s-5.1,2.15,5,.74a121.71,121.71,0,0,0,21.27-4.82.45.45,0,0,0,.31-.58Z"/></g></svg>