<svg xmlns="http://www.w3.org/2000/svg" viewBox="0 0 461.46 262.61"><defs><style>.cls-1{fill:#fff;}.cls-2{fill:#546264;}.cls-3{fill:#3b4248;}.cls-4{fill:#1f2024;}.cls-5{fill:#3c434d;}.cls-6{fill:#e64543;}.cls-7{fill:#42509b;}.cls-8{fill:#e74747;}.cls-9{fill:#fbd990;}.cls-10{fill:#6ba4d3;}.cls-11{fill:#e74646;}</style></defs><g id="Ebene_2" data-name="Ebene 2"><path class="cls-1" d="M442.37,196.45V39a5.11,5.11,0,0,0-.08-1c-.4-2.55-2.86-12.62-16.16-12.62H135.68a6.11,6.11,0,0,0-4.79,2.31L58.25,119a6,6,0,0,1-2.94,2l-25.42,8.08a6.13,6.13,0,0,0-4.27,5.83v65.54a6.13,6.13,0,0,0,6.12,6.13H436.25a6.13,6.13,0,0,0,6.12-6.13Z"/></g><g id="Ebene_3" data-name="Ebene 3"><rect class="cls-2" x="11.41" y="198.48" width="440.1" height="22.85" rx="7.36" transform="translate(462.91 419.81) rotate(-180)"/><rect class="cls-3" x="415.97" y="198.99" width="40.51" height="21.83" rx="10.91" transform="translate(872.46 419.81) rotate(-180)"/><rect class="cls-3" x="9.34" y="198.99" width="40.51" height="21.83" rx="10.91" transform="translate(59.2 419.81) rotate(-180)"/><circle class="cls-4" cx="352.61" cy="221.33" r="37.31"/><circle class="cls-5" cx="352.61" cy="221.33" r="18.65"/><circle class="cls-4" cx="115.04" cy="221.33" r="37.31"/><circle class="cls-5" cx="115.04" cy="221.33" r="18.65"/></g><g id="Ebene_5" data-name="Ebene 5"><rect class="cls-6" x="25.62" y="135.51" width="416.75" height="35.53" transform="translate(467.99 306.55) rotate(180)"/><rect class="cls-7" x="166.48" y="9.21" width="17.44" height="16.24" transform="translate(350.39 34.66) rotate(180)"/><rect class="cls-8" x="147.71" y="9.21" width="17.44" height="16.24" transform="translate(312.85 34.66) rotate(180)"/><rect class="cls-9" x="25.62" y="170.57" width="19.75" height="16.24" transform="translate(70.99 357.37) rotate(180)"/><rect class="cls-9" x="422.62" y="170.57" width="19.75" height="16.24" transform="translate(864.99 357.37) rotate(180)"/><polygon class="cls-10" points="210.53 48.18 128.96 48.18 83.55 111.69 209.44 111.69 210.53 48.18"/><rect class="cls-11" x="280.41" y="65.9" width="66.34" height="27.26" transform="translate(627.16 159.05) rotate(180)"/><rect class="cls-11" x="280.33" y="66.34" width="66.5" height="27.19" transform="translate(233.65 393.52) rotate(-90)"/></g></svg>