<svg xmlns="http://www.w3.org/2000/svg" viewBox="0 0 604.8 262.61"><defs><style>.cls-1,.cls-2,.cls-3{fill:none;stroke:#434b52;stroke-linecap:round;stroke-linejoin:round;}.cls-1{stroke-width:1.71px;}.cls-2{stroke-width:2.26px;}.cls-3{stroke-width:1.92px;}.cls-4{fill:#fff;}.cls-5{fill:#5e6d70;}.cls-6{fill:#434b52;}.cls-7{fill:#222328;}.cls-8{fill:#454d57;}.cls-9{fill:#ea4e4d;}.cls-10{fill:#4b5aa5;}.cls-11{fill:#ea5150;}.cls-12{fill:#fcde9b;}.cls-13{fill:#77add9;}.cls-14{fill:#ea504f;}</style></defs><g id="Ebene_7" data-name="Ebene 7"><line class="cls-1" x1="177.47" y1="117.58" x2="132.18" y2="117.58"/><line class="cls-1" x1="168.47" y1="123.93" x2="105.04" y2="123.93"/><line class="cls-1" x1="129.92" y1="151.05" x2="57.27" y2="151.05"/><line class="cls-1" x1="71.71" y1="158.49" x2="133.86" y2="158.49"/><line class="cls-1" x1="87.03" y1="165.93" x2="123.35" y2="165.93"/><line class="cls-2" x1="116.93" y1="201.99" x2="138.88" y2="201.99"/><line class="cls-2" x1="121.27" y1="206.5" x2="144.08" y2="206.5"/><line class="cls-2" x1="93.25" y1="200.83" x2="106.25" y2="200.83"/><line class="cls-2" x1="88.05" y1="204.88" x2="103.07" y2="205.17"/><path class="cls-2" d="M90.19,197.13a7.48,7.48,0,0,0-5.61,7.39c.22,3.82,3.77,5.78,4,5.89"/><path class="cls-2" d="M115.11,198.23A8.53,8.53,0,0,0,116.75,210"/><path class="cls-2" d="M76.36,209.18c-.18-.19-4.08-4.26-2.73-8.9a8,8,0,0,1,3.14-4.38c2.26-1.44,4-.55,5.21-2.06,1-1.3-.06-2.45,1-4.38.09-.19,1.94-3.57,5.47-4,3.91-.44,6.64,3.16,7.26,4,3.13,4.14,2,9.16,1.78,10"/><path class="cls-2" d="M76.36,209.18c-2,3.82-1.4,7.87.83,9.58a6.14,6.14,0,0,0,5.47.82c1.92-.7,2.85-2.44,4-2.05.64.22.57.86,1.23,1.37,1.39,1,4,.09,5.21-.69,2.62-1.76,3.37-6.46,1.78-11.63"/><path class="cls-3" d="M122,207.12a6.48,6.48,0,0,1,.82,5.48,6.37,6.37,0,0,1-3.56,3.83c-.23.1-3.2,1.3-5.06-.13-1.27-1-.77-2.19-1.92-2.88-1.59-.94-3.16,1-5.06.27s-2.82-3.21-2.61-5.2,1.65-3.6,3.15-5.34c1.26-1.45,2-1.86,1.92-2.73-.06-1.12-1.28-1.35-2.46-3.15a6,6,0,0,1-1.24-3.43c.16-2.38,3.16-4.43,5.88-4.86a7.79,7.79,0,0,1,7.81,3.5,7.68,7.68,0,0,1,0,7.94"/></g><g id="Ebene_5" data-name="Ebene 5"><path class="cls-4" d="M163.19,198V40.55a5.18,5.18,0,0,1,.08-1c.4-2.54,2.86-12.62,16.16-12.62H469.88a6.11,6.11,0,0,1,4.79,2.31l72.64,91.31a6.1,6.1,0,0,0,2.94,2l25.42,8.07a6.13,6.13,0,0,1,4.27,5.84v65.54a6.12,6.12,0,0,1-6.12,6.12H169.31a6.12,6.12,0,0,1-6.12-6.12Z"/><rect class="cls-5" x="154.05" y="200.06" width="440.1" height="22.85" rx="7.36"/><rect class="cls-6" x="149.07" y="200.58" width="40.51" height="21.83" rx="10.91"/><rect class="cls-6" x="555.7" y="200.58" width="40.51" height="21.83" rx="10.91"/><circle class="cls-7" cx="252.95" cy="222.92" r="37.31"/><circle class="cls-8" cx="252.95" cy="222.92" r="18.65"/><circle class="cls-7" cx="490.52" cy="222.92" r="37.31"/><circle class="cls-8" cx="490.52" cy="222.92" r="18.65"/><rect class="cls-9" x="163.19" y="137.09" width="416.75" height="35.53"/><rect class="cls-10" x="421.64" y="10.79" width="17.44" height="16.24"/><rect class="cls-11" x="440.41" y="10.79" width="17.44" height="16.24"/><rect class="cls-12" x="560.19" y="172.15" width="19.75" height="16.24"/><rect class="cls-12" x="163.19" y="172.15" width="19.75" height="16.24"/><polygon class="cls-13" points="395.03 49.77 476.6 49.77 522.01 113.27 396.12 113.27 395.03 49.77"/><rect class="cls-14" x="258.81" y="67.48" width="66.34" height="27.26"/><rect class="cls-14" x="258.73" y="67.92" width="66.5" height="27.19" transform="translate(210.46 373.5) rotate(-90)"/></g></svg>