<svg xmlns="http://www.w3.org/2000/svg" viewBox="0 0 115.16 130.38"><defs><style>.cls-1,.cls-2,.cls-3{fill:none;stroke:#434b52;stroke-linecap:round;stroke-linejoin:round;}.cls-1{stroke-width:1.71px;}.cls-2{stroke-width:2.26px;}.cls-3{stroke-width:1.92px;}</style></defs><g id="Ebene_7" data-name="Ebene 7"><line class="cls-1" x1="124.17" y1="19.08" x2="78.87" y2="19.08"/><line class="cls-1" x1="115.16" y1="25.42" x2="51.73" y2="25.42"/><line class="cls-1" x1="76.61" y1="52.54" x2="3.96" y2="52.54"/><line class="cls-1" x1="18.4" y1="59.98" x2="80.55" y2="59.98"/><line class="cls-1" x1="33.72" y1="67.42" x2="70.04" y2="67.42"/><line class="cls-2" x1="63.62" y1="103.49" x2="85.58" y2="103.49"/><line class="cls-2" x1="67.96" y1="107.99" x2="90.77" y2="107.99"/><line class="cls-2" x1="39.94" y1="102.33" x2="52.94" y2="102.33"/><line class="cls-2" x1="34.74" y1="106.38" x2="49.76" y2="106.66"/><path class="cls-2" d="M36.88,98.63A7.48,7.48,0,0,0,31.27,106c.22,3.82,3.77,5.78,4,5.89"/><path class="cls-2" d="M61.8,99.72a8.55,8.55,0,0,0,1.64,11.78"/><path class="cls-2" d="M23.06,110.67c-.19-.18-4.09-4.26-2.74-8.89a7.94,7.94,0,0,1,3.15-4.38c2.25-1.44,4-.55,5.2-2.06,1-1.3-.06-2.45,1-4.38.1-.19,1.94-3.57,5.47-4,3.91-.44,6.64,3.15,7.26,4,3.13,4.13,2,9.16,1.78,10"/><path class="cls-2" d="M23.06,110.67c-2,3.82-1.41,7.88.82,9.59a6.14,6.14,0,0,0,5.47.82c1.92-.7,2.85-2.44,4-2,.64.22.57.86,1.23,1.36,1.39,1.06,4.05.1,5.21-.68,2.62-1.76,3.37-6.46,1.78-11.64"/><path class="cls-3" d="M68.64,108.62a6.21,6.21,0,0,1-2.74,9.31c-.23.1-3.2,1.29-5.06-.14-1.27-1-.77-2.19-1.92-2.87-1.59-1-3.16,1-5.06.27S51,112,51.26,110s1.65-3.6,3.14-5.34c1.26-1.45,2-1.87,1.92-2.74-.06-1.11-1.27-1.34-2.46-3.15a6,6,0,0,1-1.24-3.42c.16-2.38,3.16-4.43,5.88-4.86A7.78,7.78,0,0,1,66.31,94a7.68,7.68,0,0,1,0,7.94"/></g></svg>