<?xml version="1.0" encoding="utf-8"?>
<!-- Generator: Adobe Illustrator 24.2.1, SVG Export Plug-In . SVG Version: 6.00 Build 0)  -->
<svg version="1.1" id="Ebene_1" xmlns="http://www.w3.org/2000/svg" xmlns:xlink="http://www.w3.org/1999/xlink" x="0px" y="0px"
	 viewBox="0 0 55 107.9" style="enable-background:new 0 0 55 107.9;" xml:space="preserve">
<style type="text/css">
	.st0{fill:#BA2525;}
	.st1{fill:#FF5A6E;}
	.st2{fill:#E22B2B;}
	.st3{fill:#F2C2AA;}
	.st4{fill:#572A17;}
	.st5{fill:#3F1D12;}
	.st6{fill:#FFD5BE;}
	.st7{fill:#9E5147;}
	.st8{fill:#FCA39A;}
	.st9{fill:#FFFFFF;}
	.st10{fill:#002030;}
	.st11{fill:#19313A;}
	.st12{fill:#8E3257;}
	.st13{fill:#EE7BA5;}
</style>
<g id="Flo">
	<path class="st0" d="M13.6,70.1l3-0.2c-1.2-2.4-1.4-7.1-1.7-11.4c0.5-10.6,5.2-13.2,6.3-13.7l-1.9-2.8c-1.8,1.1-3.3,2.5-4.5,4.2
		c-2.6,3.8-2.7,7.9-2.8,11.8C11.9,62.2,12.4,66.2,13.6,70.1z"/>
	<path class="st0" d="M41.4,70.1l-3-0.2c1.1-2.4,1.3-7.1,1.6-11.4c-0.4-10.6-5.2-13.2-6.2-13.7l1.9-2.8c1.8,1.1,3.3,2.5,4.5,4.2
		c2.6,3.8,2.7,7.9,2.8,11.8C43.1,62.2,42.5,66.2,41.4,70.1z"/>
	<path class="st1" d="M34.8,104.5c2.3-0.7,4.5-0.4,5.3,0.3c0.4,0.4,0.7,0.9,0.9,1.4c0.1,0.2,0.1,0.5,0,0.7
		c-0.3,1.2-9.1,0.8-10.2,0.7c0-0.4,0-0.7,0-1.1c0.1-0.7,0.2-1.4,0.5-2.1L34.8,104.5z"/>
	<polygon class="st2" points="30.8,80.5 31.1,104.6 34.2,104.6 34.2,80.5 	"/>
	<path class="st1" d="M20.7,104.4c-2.2-0.7-4.3-0.4-5.2,0.4c-0.4,0.4-0.7,0.9-0.9,1.4c0,0.2,0,0.5,0,0.7c0.3,1.2,8.8,0.8,9.9,0.7
		c0-0.4,0-0.7,0-1.1c-0.1-0.7-0.2-1.5-0.4-2.2H20.7z"/>
	<polygon class="st2" points="20.7,80.2 21,104.3 24.2,104.3 24.2,80.2 	"/>
	<path class="st2" d="M27.5,83.3L27.5,83.3c6,0,10.9-5.3,10.9-11.7v-22c0-6.4-4.9-11.7-10.9-11.7l0,0c-6,0-10.9,5.3-10.9,11.7v22
		C16.6,78.1,21.5,83.3,27.5,83.3z"/>
	<path class="st0" d="M33.6,83.3H21.2c-2.7-0.1-4.8-2.4-4.7-5.1v-4.5c-0.1-2.7,2-5,4.7-5.1h12.3c2.7,0.1,4.8,2.4,4.7,5.1v4.5
		C38.4,81,36.3,83.2,33.6,83.3z"/>
	<rect x="16.5" y="58.5" class="st2" width="21.8" height="16.2"/>
	<path class="st3" d="M39,68.2c-0.1,0.4-0.4,0.7-0.7,0.9c-0.7,0.5-1.3,0.2-3,0.4l-0.8,0.1c-0.2,0.2-0.4,0.5-0.4,0.8
		c0,0.4,0.3,0.8,0.7,0.9c0.7,0.2,1.3-0.3,1.6,0.1c0.1,0.1,0.1,0.3,0,0.7c-0.2,0.2-0.5,0.4-1,0.7S35,73,34.8,73.2
		c-0.4,0.3-0.7,0.8-0.8,1.3c0,0.3,0.1,0.5,0.3,0.7c0.5,0.4,1.6-0.4,1.7-0.5c0.3-0.2,0.5-0.4,0.7-0.7c0.3-0.3,0.6-0.6,0.8-0.8
		c0.1,0,0.1,0,0.2,0c0,0,0.1,0.1,0.1,0.2c-0.2,0.6-0.4,1.2-0.6,1.7c-0.1,0.3-0.5,1.4-0.1,1.9c0.2,0.2,0.5,0.3,0.8,0.3
		c0.3-0.1,0.5-0.3,0.7-0.5c0.3-0.5,0.5-1,0.5-1.6c0.1-0.9,0-1.5,0.3-1.6c0,0,0.1,0,0.2,0c0.3,0.1,0.2,0.5,0.3,1.1s0.2,1,0.6,1.3
		c0.2,0.1,0.4,0.1,0.7,0c0.3-0.2,0.5-0.4,0.6-0.8c0-0.1,0.1-0.3-0.1-1.3c-0.1-0.3-0.1-0.3-0.2-0.8s-0.2-0.9-0.2-1
		c-0.1-0.7,0.3-1.1,0.4-1.5C41.4,70,41,69.1,39,68.2z"/>
	<path class="st3" d="M15.8,68.2c0.1,0.4,0.4,0.7,0.7,0.9c0.6,0.5,1.3,0.2,3,0.4l0.8,0.1c0.2,0.2,0.4,0.5,0.4,0.8
		c0,0.4-0.3,0.8-0.7,0.9c-0.7,0.2-1.4-0.3-1.6,0.1c-0.1,0.1-0.1,0.3,0,0.7c0.2,0.2,0.5,0.4,1,0.7s0.5,0.3,0.7,0.5
		c0.4,0.3,0.8,0.8,0.9,1.3c0,0.3-0.1,0.5-0.3,0.7c-0.5,0.4-1.6-0.4-1.7-0.5c-0.3-0.2-0.5-0.4-0.7-0.7c-0.3-0.3-0.6-0.6-0.8-0.8
		c-0.1,0-0.1,0-0.2,0c0,0-0.1,0.1-0.1,0.2c0.2,0.6,0.4,1.2,0.6,1.7c0.1,0.3,0.5,1.4,0.1,1.9c-0.2,0.2-0.5,0.3-0.8,0.3
		c-0.3-0.1-0.5-0.3-0.7-0.5c-0.3-0.5-0.5-1-0.5-1.6c-0.1-0.9-0.1-1.5-0.3-1.6c-0.1,0-0.1,0-0.2,0c-0.2,0.1-0.2,0.5-0.3,1.1
		s-0.2,1-0.6,1.3c-0.2,0.1-0.4,0.1-0.6,0c-0.3-0.2-0.5-0.4-0.6-0.8c0-0.1-0.1-0.3,0.1-1.3c0.1-0.3,0.1-0.3,0.2-0.8s0.2-0.9,0.2-1
		c0.1-0.7-0.4-1.1-0.4-1.5C13.5,70,13.9,69.1,15.8,68.2z"/>
	<path class="st4" d="M17,5.1c1.9,2.3,2.8,5.2,2.4,8.1c-3.6-3.4-9.2-3.4-12.7,0.1C5,15,4,17.1,3.7,19.5C3.4,19.2,3.2,19,3,18.7
		C-0.5,14.5-0.3,8.3,3.6,4.4c3.6-3.5,9.3-3.5,12.9,0.1C16.7,4.7,16.8,4.9,17,5.1z"/>
	<path class="st4" d="M37.5,5.1c-1.9,2.3-2.8,5.2-2.4,8.1c3.6-3.4,9.2-3.4,12.7,0.1c1.7,1.7,2.7,3.8,3,6.2c0.2-0.2,0.5-0.5,0.7-0.7
		c3.5-4.2,3.3-10.4-0.6-14.3c-3.6-3.5-9.3-3.5-12.9,0C37.9,4.7,37.7,4.9,37.5,5.1z"/>
	<ellipse class="st5" cx="27.3" cy="20.9" rx="13.3" ry="14.4"/>
	<ellipse class="st6" cx="27.3" cy="23.4" rx="12.6" ry="15.5"/>
	<ellipse class="st6" cx="14.7" cy="23.4" rx="2.4" ry="3.8"/>
	<ellipse class="st6" cx="39.8" cy="23.4" rx="2.5" ry="3.8"/>
	<path class="st4" d="M27.3,7c-7.2,0-13,5.9-13.4,13.4c1.7,0.2,3.5,0.3,5.3,0.4l3-5.7c0,0-1.3,4.1-1.7,5.8h0.3
		c0.9-1.7,2.7-5.8,2.7-5.8l-1,5.9h0.2l2.3-5.9L24.5,21c0.9,0,1.8,0,2.7,0c4.6,0,9.1-0.2,13.4-0.6C40.3,12.9,34.5,7,27.3,7z"/>
	<path class="st7" d="M39.3,24.6c0,0.1,0,0.2,0.1,0.1c0.2-0.3,0.4-0.6,0.6-0.8c0.2-0.2,0.4-0.3,0.7-0.4c0.1,0.2,0.1,0.5,0.1,0.8
		c-0.1,0.4-0.2,0.7-0.4,1c-0.1,0.2-0.3,0.3-0.5,0.5v0.1c0.6,0.1,1.3-1.5,1.2-2.2c0.3,0.2,0.6,0.6,0.5,1.3l0,0
		C42.4,22.6,40,22.4,39.3,24.6z"/>
	<path class="st7" d="M15.2,24c0,0.1,0,0.2-0.1,0.1c-0.2-0.2-0.4-0.6-0.6-0.8c-0.2-0.2-0.4-0.3-0.7-0.4c-0.1,0.2-0.1,0.5-0.1,0.8
		c0.1,0.4,0.2,0.7,0.4,1c0.1,0.2,0.3,0.3,0.5,0.5v0.1c-0.6,0.1-1.3-1.5-1.2-2.3c-0.3,0.2-0.6,0.6-0.5,1.3l0,0
		C12.1,22,14.5,21.8,15.2,24z"/>
	<ellipse class="st1" cx="34.7" cy="8.9" rx="2.3" ry="2.5"/>
	<ellipse class="st1" cx="38" cy="12.4" rx="2.3" ry="2.5"/>
	<ellipse class="st1" cx="19.8" cy="8.9" rx="2.3" ry="2.5"/>
	<ellipse class="st1" cx="16.5" cy="12.4" rx="2.3" ry="2.5"/>
	<path class="st8" d="M18.6,31.5c0-1.2,1-2.1,2.2-2c1.2,0,2.1,1,2,2.2c0,1.1-1,2-2.1,2C19.5,33.6,18.5,32.7,18.6,31.5
		C18.6,31.5,18.6,31.5,18.6,31.5z"/>
	<path class="st8" d="M32.1,31.2c0-1.2,1-2.1,2.2-2c1.2,0,2.1,1,2,2.2c0,1.1-1,2-2.1,2C33.1,33.4,32.1,32.4,32.1,31.2
		C32.1,31.2,32.1,31.2,32.1,31.2z"/>
	<path class="st7" d="M28.6,29.5c-0.4,0.5-1,0.8-1.6,0.9c-0.6,0-1.1-0.3-1.4-0.9c-0.1-0.1-0.2-0.1-0.2,0
		C25.6,31,28.3,30.8,28.6,29.5C28.6,29.5,28.6,29.4,28.6,29.5L28.6,29.5z"/>
	<path class="st9" d="M32.6,22.2c-1.3,0-2.3,0.9-2.6,2.1c-0.5,1.8,0.5,3.6,2.6,3.5s3.1-1.6,2.9-3.1C35.3,23.2,34,22.1,32.6,22.2z"/>
	<path class="st10" d="M29.9,24.6c0.4-1.4,1.8-2.3,3.2-2.1c0.6,0.1,1.1,0.5,1.4,0.9c0.4,0.5,0.4,1.2,0.8,1.8c0.1,0.1,0.2,0.1,0.3,0
		c0.2-0.8,0-1.7-0.7-2.3c-0.5-0.6-1.2-0.9-1.9-1c-0.7-0.1-1.5,0.1-2.1,0.5C30.2,22.9,29.8,23.7,29.9,24.6
		C29.8,24.6,29.8,24.7,29.9,24.6L29.9,24.6z"/>
	<ellipse transform="matrix(3.141593e-03 -1 1 3.141593e-03 6.5636 57.4768)" class="st11" cx="32.1" cy="25.4" rx="2.4" ry="2"/>
	<path class="st9" d="M30.5,25.6c0.1-0.4,0.4-0.6,0.8-0.6c0.4,0.1,0.6,0.4,0.6,0.8c0,0.3-0.3,0.6-0.7,0.6
		C30.7,26.3,30.4,26,30.5,25.6z"/>
	<path class="st9" d="M21.7,22.2c1.3,0,2.3,0.9,2.6,2.1c0.5,1.8-0.5,3.6-2.6,3.5c-2.3-0.1-3.1-1.6-2.9-3.1
		C18.9,23.2,20.2,22.1,21.7,22.2z"/>
	<path class="st10" d="M24.4,24.6c-0.4-1.4-1.8-2.3-3.2-2.1c-0.6,0.1-1.1,0.5-1.4,0.9c-0.4,0.5-0.4,1.2-0.8,1.8
		c-0.1,0.1-0.2,0.1-0.3,0c-0.2-0.8,0-1.7,0.6-2.3c0.5-0.6,1.2-0.9,1.9-1c0.7-0.1,1.5,0.1,2.1,0.5C24,22.9,24.4,23.7,24.4,24.6
		C24.4,24.6,24.4,24.7,24.4,24.6L24.4,24.6z"/>
	
		<ellipse transform="matrix(1 -3.141572e-03 3.141572e-03 1 -7.982543e-02 6.959365e-02)" class="st11" cx="22.1" cy="25.4" rx="2.1" ry="2.4"/>
	<path class="st9" d="M23.8,25.6c0-0.4-0.3-0.7-0.6-0.7c0,0,0,0,0,0c-0.4-0.1-0.8,0.2-0.9,0.7s0.2,0.8,0.7,0.9s0.8-0.2,0.9-0.7
		C23.7,25.6,23.8,25.6,23.8,25.6z"/>
	<path class="st12" d="M31,33.1c0,0-0.5,3.4-3.6,3.4c-2,0.1-3.7-1.5-3.8-3.5c0,0,0.6,0,3.5,0L31,33.1z"/>
	<path class="st13" d="M27.5,36.5c-0.6,0.1-1.3,0-1.9-0.2c0.6-0.5,1.3-0.8,2.1-0.9c0.7-0.1,1.4,0,2,0.3
		C29.1,36.2,28.3,36.4,27.5,36.5z"/>
</g>
</svg>
