<svg xmlns="http://www.w3.org/2000/svg" viewBox="0 0 55 131"><defs><style>.cls-1{fill:#ba2525;}.cls-2{fill:#ff5a6e;}.cls-3{fill:#e22b2b;}.cls-4{fill:#f2c2aa;}.cls-5{fill:#572a17;}.cls-6{fill:#3f1d12;}.cls-7{fill:#ffd5be;}.cls-8{fill:#9e5147;}.cls-9{fill:#fca39a;}.cls-10{fill:#fff;}.cls-11{fill:#002030;}.cls-12{fill:#19313a;}.cls-13{fill:#8e3257;}.cls-14{fill:#ee7ba5;}</style></defs><g id="Flo"><path class="cls-1" d="M13.57,93.25l3-.17c-1.16-2.41-1.38-7.06-1.67-11.4C15.39,71.07,20.11,68.5,21.19,68L19.3,65.2a14,14,0,0,0-4.49,4.2c-2.57,3.77-2.69,7.9-2.82,11.81A38.51,38.51,0,0,0,13.57,93.25Z"/><path class="cls-1" d="M41.36,93.25l-3-.17C39.48,90.66,39.7,86,40,81.67c-.44-10.6-5.17-13.18-6.24-13.68l1.89-2.8a14.13,14.13,0,0,1,4.49,4.2c2.56,3.78,2.69,7.9,2.81,11.82A38,38,0,0,1,41.36,93.25Z"/><path class="cls-2" d="M34.81,127.56c2.31-.67,4.46-.42,5.34.35a2.78,2.78,0,0,1,.88,1.42,1.54,1.54,0,0,1,0,.7c-.34,1.2-9.08.77-10.22.71a7.49,7.49,0,0,1,0-1.06,8,8,0,0,1,.45-2.12Z"/><polygon class="cls-3" points="30.84 103.58 31.15 127.72 34.2 127.72 34.2 103.58 30.84 103.58"/><path class="cls-2" d="M20.73,127.52c-2.24-.68-4.32-.42-5.17.36a2.87,2.87,0,0,0-.86,1.43,2,2,0,0,0,0,.71c.34,1.21,8.79.78,9.9.72a9.54,9.54,0,0,0,0-1.07,8.68,8.68,0,0,0-.43-2.15Z"/><polygon class="cls-3" points="20.69 103.31 21 127.45 24.2 127.45 24.2 103.31 20.69 103.31"/><path class="cls-3" d="M27.47,106.45h0c6,0,10.89-5.26,10.89-11.7v-22c0-6.44-4.9-11.7-10.89-11.7h0c-6,0-10.89,5.26-10.89,11.7v22C16.58,101.19,21.48,106.45,27.47,106.45Z"/><path class="cls-1" d="M33.58,106.45H21.24a4.92,4.92,0,0,1-4.73-5.07V96.9a4.92,4.92,0,0,1,4.73-5.07H33.58A4.92,4.92,0,0,1,38.3,96.9v4.48A4.92,4.92,0,0,1,33.58,106.45Z"/><rect class="cls-3" x="16.54" y="81.57" width="21.78" height="16.17"/><path class="cls-4" d="M39,91.29a2,2,0,0,1-.66.89c-.65.46-1.31.19-3,.37l-.75.11a1.19,1.19,0,0,0-.42.79.94.94,0,0,0,.67.93c.73.15,1.35-.25,1.61.06.09.1.13.28,0,.65-.22.18-.55.44-1,.74s-.47.32-.67.48A2.07,2.07,0,0,0,34,97.59a.85.85,0,0,0,.25.7c.51.37,1.56-.37,1.69-.47a6.05,6.05,0,0,0,.73-.66c.34-.32.61-.59.79-.78a.24.24,0,0,1,.19,0,.23.23,0,0,1,.07.15,8.9,8.9,0,0,1-.63,1.7c-.12.3-.55,1.39-.11,1.93a.86.86,0,0,0,.84.27,1.28,1.28,0,0,0,.7-.53A3.41,3.41,0,0,0,39,98.33c.11-.91,0-1.5.29-1.59a.19.19,0,0,1,.15,0c.25.09.21.53.31,1.09s.18,1,.58,1.26a.78.78,0,0,0,.65,0,1.13,1.13,0,0,0,.57-.75c0-.1.07-.3-.13-1.25-.06-.26-.08-.32-.21-.85s-.22-.93-.23-1c-.06-.71.35-1.11.37-1.54C41.38,93.1,41,92.25,39,91.29Z"/><path class="cls-4" d="M15.84,91.29a2,2,0,0,0,.66.89c.65.46,1.31.19,3,.37l.75.11a1.19,1.19,0,0,1,.42.79.94.94,0,0,1-.67.93c-.73.15-1.35-.25-1.61.06-.09.1-.13.28,0,.65.22.18.55.44,1,.74s.47.32.67.48a2.07,2.07,0,0,1,.87,1.28.85.85,0,0,1-.25.7c-.51.37-1.56-.37-1.69-.47a6.75,6.75,0,0,1-.74-.66c-.33-.32-.6-.59-.78-.78a.24.24,0,0,0-.19,0,.23.23,0,0,0-.07.15,8.9,8.9,0,0,0,.63,1.7c.12.3.55,1.39.11,1.93a.87.87,0,0,1-.84.27,1.28,1.28,0,0,1-.7-.53,3.29,3.29,0,0,1-.48-1.61c-.11-.91-.05-1.5-.29-1.59a.21.21,0,0,0-.16,0c-.24.09-.2.53-.3,1.09s-.18,1-.58,1.26a.78.78,0,0,1-.65,0,1.13,1.13,0,0,1-.57-.75c0-.1-.07-.3.13-1.25.06-.26.08-.32.21-.85s.22-.93.23-1c.06-.71-.35-1.11-.37-1.54C13.49,93.1,13.9,92.25,15.84,91.29Z"/><path class="cls-5" d="M17,28.18a10.57,10.57,0,0,1,2.4,8.14,9.07,9.07,0,0,0-12.71.1,10.31,10.31,0,0,0-3,6.16A10,10,0,0,1,3,41.84a10.6,10.6,0,0,1,.6-14.3A9.1,9.1,0,0,1,17,28.18Z"/><path class="cls-5" d="M37.5,28.18a10.57,10.57,0,0,0-2.41,8.14,9.07,9.07,0,0,1,12.71.1,10.33,10.33,0,0,1,3,6.16,9.85,9.85,0,0,0,.7-.74,10.6,10.6,0,0,0-.6-14.3A9.09,9.09,0,0,0,37.5,28.18Z"/><ellipse class="cls-6" cx="27.27" cy="44.03" rx="13.26" ry="14.38"/><ellipse class="cls-7" cx="27.27" cy="46.46" rx="12.57" ry="15.45"/><ellipse class="cls-7" cx="14.69" cy="46.46" rx="2.45" ry="3.78"/><ellipse class="cls-7" cx="39.84" cy="46.46" rx="2.45" ry="3.78"/><path class="cls-5" d="M27.26,30.11c-7.18,0-13,5.94-13.45,13.41,1.73.16,3.49.3,5.27.4l3-5.73s-1.3,4.1-1.73,5.8h.31c.87-1.69,2.72-5.81,2.72-5.81l-1,5.88h.22l2.26-5.89-.32,5.93q1.35,0,2.7,0c4.62,0,9.12-.22,13.45-.63C40.32,36.05,34.45,30.11,27.26,30.11Z"/><path class="cls-8" d="M39.3,47.66c0,.06,0,.18.06.12.22-.25.4-.57.62-.8a1.09,1.09,0,0,1,.73-.37,1.2,1.2,0,0,1,.08.77,3.21,3.21,0,0,1-.39,1,2.61,2.61,0,0,1-.47.47s0,.07,0,.07c.62.1,1.26-1.45,1.17-2.24.34.16.57.58.46,1.27,0,0,0,0,0,0C42.41,45.66,40,45.49,39.3,47.66Z"/><path class="cls-8" d="M15.22,47.09c0,.07,0,.18-.06.12-.22-.24-.4-.57-.63-.79a1.14,1.14,0,0,0-.72-.38,1.21,1.21,0,0,0-.08.77,3.34,3.34,0,0,0,.38,1,2.72,2.72,0,0,0,.48.48s0,.07,0,.07c-.62.1-1.26-1.46-1.17-2.25-.34.16-.58.58-.46,1.28,0,0,0,0,0,0C12.11,45.09,14.51,44.92,15.22,47.09Z"/><ellipse class="cls-2" cx="34.7" cy="32" rx="2.34" ry="2.5"/><ellipse class="cls-2" cx="38.02" cy="35.53" rx="2.34" ry="2.5"/><ellipse class="cls-2" cx="19.83" cy="32" rx="2.34" ry="2.5"/><ellipse class="cls-2" cx="16.52" cy="35.53" rx="2.34" ry="2.5"/><path class="cls-9" d="M18.56,54.58a2.11,2.11,0,1,1,2.11,2.19A2.15,2.15,0,0,1,18.56,54.58Z"/><path class="cls-9" d="M32.13,54.3a2.11,2.11,0,1,1,2.11,2.19A2.15,2.15,0,0,1,32.13,54.3Z"/><path class="cls-8" d="M28.59,52.58a2.59,2.59,0,0,1-1.61.86,1.62,1.62,0,0,1-1.39-.87c-.06-.09-.22-.09-.2,0,.2,1.57,2.87,1.37,3.23,0,0,0,0-.06,0,0Z"/><path class="cls-10" d="M32.56,45.27a2.8,2.8,0,0,0-2.65,2.1c-.48,1.83.49,3.61,2.62,3.54s3.1-1.63,2.87-3.08A2.76,2.76,0,0,0,32.56,45.27Z"/><path class="cls-11" d="M29.87,47.7a2.83,2.83,0,0,1,3.21-2.06,2.51,2.51,0,0,1,1.44.94c.39.54.44,1.23.8,1.77.06.08.21.14.27,0a2.44,2.44,0,0,0-.66-2.32A3.21,3.21,0,0,0,33,45a3,3,0,0,0-2.11.52,2.81,2.81,0,0,0-1.08,2.17c0,.06,0,.09.05,0Z"/><ellipse class="cls-12" cx="32.11" cy="48.55" rx="2.36" ry="2.05" transform="translate(-16.54 80.51) rotate(-89.82)"/><path class="cls-10" d="M30.47,48.68a.66.66,0,1,1,.65.76A.71.71,0,0,1,30.47,48.68Z"/><path class="cls-10" d="M21.66,45.27a2.8,2.8,0,0,1,2.65,2.1c.48,1.83-.48,3.61-2.61,3.54-2.29-.08-3.11-1.63-2.87-3.08A2.75,2.75,0,0,1,21.66,45.27Z"/><path class="cls-11" d="M24.35,47.7a2.83,2.83,0,0,0-3.21-2.06,2.54,2.54,0,0,0-1.44.94c-.39.54-.44,1.23-.8,1.77-.06.08-.21.14-.26,0a2.44,2.44,0,0,1,.65-2.32A3.21,3.21,0,0,1,21.22,45a3,3,0,0,1,2.11.52,2.87,2.87,0,0,1,1.08,2.17c0,.06,0,.09-.06,0Z"/><ellipse class="cls-12" cx="22.11" cy="48.55" rx="2.05" ry="2.36" transform="translate(-0.15 0.07) rotate(-0.18)"/><path class="cls-10" d="M23.75,48.68a.7.7,0,0,0-.66-.75.76.76,0,1,0,.66.75Z"/><path class="cls-13" d="M31,56.22s-.54,3.36-3.65,3.4a3.66,3.66,0,0,1-3.78-3.48s.62,0,3.51,0Z"/><path class="cls-14" d="M27.53,59.56a5,5,0,0,1-1.91-.16,3.63,3.63,0,0,1,2.08-.9,3.43,3.43,0,0,1,2,.35A4.24,4.24,0,0,1,27.53,59.56Z"/></g></svg>