<?xml version="1.0" encoding="utf-8"?>
<!-- Generator: Adobe Illustrator 24.1.3, SVG Export Plug-In . SVG Version: 6.00 Build 0)  -->
<svg version="1.1" xmlns="http://www.w3.org/2000/svg" xmlns:xlink="http://www.w3.org/1999/xlink" x="0px" y="0px"
	 viewBox="0 0 4000 5000" style="enable-background:new 0 0 4000 5000;" xml:space="preserve">
<style type="text/css">
	.st0{fill:#BA2525;}
	.st1{fill:#FF5A6E;}
	.st2{fill:#E22B2B;}
	.st3{fill:#F2C2AA;}
	.st4{fill:#572A17;}
	.st5{fill:#3F1D12;}
	.st6{fill:#FFD5BE;}
	.st7{fill:#9E5147;}
	.st8{fill:#8E3257;}
	.st9{fill:#EE7BA5;}
	.st10{display:none;}
	.st11{display:inline;}
	.st12{fill:none;stroke:#D16994;stroke-width:0.25;stroke-linecap:round;stroke-miterlimit:10;}
	.st13{display:inline;fill:none;stroke:#9E5147;stroke-width:1.5;stroke-linecap:round;stroke-miterlimit:10;}
	.st14{display:inline;fill:#EE7BA5;}
	.st15{display:inline;fill:#9E5147;}
	.st16{display:inline;fill:#8E3257;}
	.st17{fill:#FCA39A;}
	.st18{fill:#FFFFFF;}
	.st19{fill:#002030;}
	.st20{fill:#19313A;}
	.st21{display:inline;fill:#002030;}
</style>
<g id="arm_left">
	<g>
		<path class="st0" d="M1411.09,3167.08c47.11-2.38,94.21-4.76,141.32-7.15c-53.69-101.3-64.01-296.36-77.43-478.35
			c20.66-444.75,240.97-552.66,291.17-573.63l-88.12-117.56c-56.66,30.13-139.64,84.02-209.26,176.09
			c-119.78,158.39-125.72,331.5-131.34,495.6C1333.52,2776.05,1341.21,2955.3,1411.09,3167.08z"/>
	</g>
</g>
<g id="arm_right">
	<g>
		<path class="st0" d="M2706.62,3166.83c-47.11-2.38-94.21-4.76-141.32-7.15c53.69-101.3,64.01-296.36,77.43-478.35
			c-20.66-444.75-240.97-552.66-291.17-573.63l88.12-117.56c56.66,30.13,139.64,84.02,209.26,176.09
			c119.78,158.39,125.72,331.5,131.34,495.6C2784.19,2775.79,2776.5,2955.04,2706.62,3166.83z"/>
	</g>
</g>
<g id="right_leg">
	<g>
		<path class="st1" d="M2395.71,4611.39c107.67-28.15,208.02-17.38,248.67,14.83c34.84,27.61,41.45,59.32,41.45,59.32
			c2.91,13.98,1.16,26.05,0,29.66c-16.14,50.03-423.29,32.14-476.62,29.66c-1.04-13.69-1.22-28.58,0-44.49
			c2.63-34.45,11.06-64.45,20.72-88.98H2395.71z"/>
		<polygon class="st2" points="2216.09,3600.45 2230.31,4612.89 2372.51,4612.89 2372.51,3600.45 		"/>
	</g>
</g>
<g id="left_leg">
	<g>
		<path class="st1" d="M1746.32,4598.62c-104.2-28.45-201.31-17.57-240.65,14.99c-33.72,27.91-40.11,59.96-40.11,59.96
			c-2.82,14.13-1.13,26.33,0,29.98c15.62,50.58,409.63,32.49,461.25,29.98c1.01-13.84,1.18-28.89,0-44.97
			c-2.55-34.82-10.7-65.15-20.05-89.95H1746.32z"/>
		<polygon class="st2" points="1742.63,3588.96 1757.52,4601.4 1906.45,4601.4 1906.45,3588.96 		"/>
	</g>
</g>
<g id="body">
	<g>
		<path class="st2" d="M2058.85,3720.56L2058.85,3720.56c279.26,0,507.74-220.71,507.74-490.48V2306.6
			c0-269.76-228.48-490.48-507.74-490.48h0c-279.26,0-507.74,220.71-507.74,490.48v923.48
			C1551.11,3499.85,1779.59,3720.56,2058.85,3720.56z"/>
		<path class="st0" d="M2343.57,3720.56h-575.32c-121.04,0-220.08-95.67-220.08-212.59v-187.88c0-116.93,99.03-212.59,220.08-212.59
			h575.32c121.04,0,220.08,95.67,220.08,212.59v187.88C2563.65,3624.9,2464.62,3720.56,2343.57,3720.56z"/>
		<rect x="1549.3" y="2677.04" class="st2" width="1015.47" height="678.29"/>
	</g>
</g>
<g id="right_hand">
	<g>
		<path class="st3" d="M2591.3,3094.45c-9.72,20.93-10.63,18.81-19.59,24.57c-30.3,19.46-61.02,8.04-139.02,15.73
			c-15.06,1.49-27.33,3.24-35.04,4.43c-3.8,3.1-18.77,15.92-19.58,33.13c-0.93,19.7,16.13,36.1,31.45,38.95
			c33.95,6.31,62.89-10.59,75.07,2.41c3.92,4.19,5.84,12.04,0.39,27.52c-10.07,7.34-25.68,18.38-45.55,31.04
			c-19.28,12.28-22.25,13.18-31.36,20.17c-15.69,12.04-38.9,29.99-40.59,53.6c-0.17,2.34-1.23,20.97,11.64,29.42
			c23.7,15.57,72.55-15.72,78.88-19.78c8.17-5.24,16.84-12.68,34.18-27.55c15.68-13.44,28.14-24.96,36.51-32.89
			c1.91-0.24,6.07-0.5,9.04,1.84c0,0,2.59,2.05,3.18,6.24c1.53,10.97-23.76,58.01-29.45,71.06c-5.62,12.88-25.45,58.62-5.03,81.05
			c8.63,9.48,24.46,14.45,39.23,11.47c16.38-3.31,26.66-15.42,32.43-22.39c5.01-6.06,16.11-21.17,22.5-67.5
			c5.27-38.23,2.51-62.8,13.51-66.86c3.05-1.13,5.87-0.2,7.25,0.25c11.56,3.79,9.54,21.98,14.07,45.56
			c3.84,19.96,8.44,43.33,27.13,52.98c1.58,0.82,15.26,7.61,30.16,2.23c18.97-6.85,25.76-28,26.85-31.42
			c1.47-4.58,3.38-12.8-6.3-52.71c-2.58-10.62-3.55-13.49-9.49-35.68c-6.93-25.89-10.4-38.83-10.77-42.5
			c-3.08-30.16,8.97-62.41,15.03-79.59C2718.98,3138.22,2681.7,3134.68,2591.3,3094.45z"/>
	</g>
</g>
<g id="left_hand">
	<g>
		<path class="st3" d="M1527.86,3097.51c9.72,20.93,10.63,18.81,19.59,24.57c30.3,19.46,61.02,8.04,139.02,15.73
			c15.06,1.49,27.33,3.24,35.04,4.43c3.8,3.1,18.77,15.92,19.58,33.13c0.93,19.7-16.13,36.1-31.44,38.95
			c-33.95,6.31-62.89-10.59-75.07,2.41c-3.92,4.19-5.84,12.04-0.39,27.52c10.07,7.34,25.68,18.38,45.55,31.04
			c19.28,12.28,22.25,13.18,31.36,20.17c15.69,12.04,38.9,29.99,40.59,53.6c0.17,2.34,1.23,20.97-11.64,29.42
			c-23.7,15.57-72.55-15.72-78.88-19.78c-8.17-5.24-16.84-12.68-34.18-27.55c-15.68-13.44-28.14-24.96-36.51-32.89
			c-1.91-0.24-6.07-0.5-9.04,1.84c0,0-2.6,2.05-3.18,6.24c-1.53,10.97,23.76,58.01,29.45,71.06c5.62,12.88,25.45,58.62,5.03,81.05
			c-8.63,9.48-24.46,14.45-39.23,11.47c-16.38-3.31-26.66-15.42-32.43-22.39c-5.01-6.06-16.11-21.17-22.5-67.5
			c-5.27-38.23-2.51-62.8-13.51-66.86c-3.05-1.13-5.87-0.2-7.25,0.25c-11.56,3.79-9.54,21.98-14.07,45.56
			c-3.84,19.96-8.44,43.33-27.13,52.98c-1.58,0.82-15.26,7.61-30.16,2.23c-18.97-6.85-25.76-28-26.85-31.42
			c-1.47-4.58-3.38-12.8,6.3-52.71c2.58-10.62,3.55-13.49,9.49-35.68c6.93-25.89,10.4-38.83,10.77-42.5
			c3.08-30.16-8.97-62.41-15.03-79.59C1400.18,3141.29,1437.45,3137.75,1527.86,3097.51z"/>
	</g>
</g>
<g id="head">
	<g id="XMLID_62_">
		<path id="XMLID_70_" class="st4" d="M1572.46,438.02c91.65,96.11,128.42,221.68,112.13,341.43
			c-167.34-142.8-423.59-143.95-592.54,4.15c-80.17,70.28-127.1,162.34-140.13,258.12c-11.35-9.69-22.3-20.01-32.78-31
			c-164.95-172.98-152.41-441.41,28-599.56C1127.56,253.03,1407.52,265.05,1572.46,438.02z"/>
		<path id="XMLID_69_" class="st4" d="M2526.53,438.02c-91.65,96.11-128.42,221.68-112.13,341.43
			c167.34-142.8,423.59-143.95,592.54,4.15c80.17,70.28,127.1,162.34,140.13,258.12c11.35-9.69,22.3-20.01,32.78-31
			c164.94-172.98,152.41-441.41-28-599.56C2971.43,253.03,2691.47,265.05,2526.53,438.02z"/>
		<ellipse id="XMLID_68_" class="st5" cx="2049.49" cy="1102.75" rx="618.03" ry="603.05"/>
		<ellipse id="XMLID_67_" class="st6" cx="2049.49" cy="1204.71" rx="586.2" ry="648"/>
		<g id="XMLID_64_">
			<ellipse id="XMLID_66_" class="st6" cx="1463.3" cy="1204.71" rx="114.31" ry="158.4"/>
			<ellipse id="XMLID_65_" class="st6" cx="2635.69" cy="1204.71" rx="114.31" ry="158.4"/>
		</g>
		<path id="XMLID_63_" class="st4" d="M2049.3,518.91c-335.03,0-608.73,248.82-627.12,562.27c80.6,6.92,162.49,12.48,245.43,16.74
			l141.79-240.13c0,0-60.48,171.99-80.41,243.08c4.75,0.2,9.53,0.36,14.29,0.55c40.44-70.74,126.89-243.64,126.89-243.64
			l-47.55,246.46c3.4,0.1,6.81,0.17,10.21,0.27l105.12-246.74l-14.78,248.78c41.84,0.7,83.83,1.16,126.12,1.16
			c215.34,0,425.13-9.22,627.12-26.55C2658.03,767.72,2384.33,518.91,2049.3,518.91z"/>
	</g>
	<path id="XMLID_61_" class="st7" d="M2610.32,1254.76c-0.97,2.65,0.59,7.57,2.98,5.16c10.24-10.34,18.5-23.97,29-33.54
		c11.36-10.36,22.87-15.08,33.85-15.74c3.64,9.28,7.1,16.28,3.55,32.47c-3.08,14.03-9.53,30.2-17.77,41.82
		c-6.48,9.14-14.75,13.16-22.02,19.98c-0.55,0.52-1.4,2.85-0.62,2.97c28.86,4.2,58.65-61.03,54.67-94.31
		c15.61,6.76,26.68,24.42,21.33,53.52c-0.25,1.37,0.79,0.86,1.22-0.19C2755.48,1170.93,2643.41,1163.86,2610.32,1254.76z"/>
	<path id="XMLID_60_" class="st7" d="M1487.83,1231.05c0.97,2.65-0.59,7.57-2.98,5.16c-10.24-10.34-18.5-23.97-29-33.54
		c-11.36-10.36-22.87-15.08-33.85-15.74c-3.64,9.28-7.1,16.28-3.55,32.47c3.08,14.03,9.53,30.2,17.77,41.82
		c6.48,9.13,14.75,13.16,22.02,19.98c0.55,0.52,1.4,2.85,0.62,2.97c-28.86,4.2-58.65-61.03-54.67-94.31
		c-15.6,6.76-26.68,24.42-21.33,53.53c0.25,1.37-0.79,0.86-1.22-0.19C1342.67,1147.21,1454.74,1140.15,1487.83,1231.05z"/>
</g>
<g id="hair_clip">
	<g id="XMLID_81_">
		<ellipse id="XMLID_83_" class="st1" cx="2396.15" cy="598.01" rx="109.21" ry="104.71"/>
		<ellipse id="XMLID_82_" class="st1" cx="2550.6" cy="746.1" rx="109.21" ry="104.71"/>
	</g>
	<g id="XMLID_77_">
		<ellipse id="XMLID_80_" class="st1" cx="1702.84" cy="598.01" rx="109.21" ry="104.71"/>
		<ellipse id="XMLID_79_" class="st1" cx="1548.39" cy="746.1" rx="109.21" ry="104.71"/>
	</g>
</g>
<g id=":D_1_">
	<path id="XMLID_40_" class="st8" d="M2194.5,1639.32c0,0-20.34,114.93-137.18,115.87c-134.68,1.08-142.28-119.06-142.28-119.06
		s23.54-1.06,132.13,0.83C2121.27,1638.24,2194.5,1639.32,2194.5,1639.32z"/>
	<path id="XMLID_39_" class="st9" d="M2065.92,1755.08c-30.24,1.31-54.72-3.65-72.96-10.94c18.22-15.39,47.52-20.87,79.39-23.91
		c28.88-2.76,48.62-2.09,68.35,7.5C2137.06,1733.2,2107.87,1753.26,2065.92,1755.08z"/>
</g>
<g id=":0" class="st10">
	<g class="st11">
		<ellipse class="st8" cx="2142.19" cy="2280.3" rx="61.31" ry="36.79"/>
		<path id="XMLID_255_" class="st9" d="M2151.67,2318.98c-14.06,0.97-24.98-1.07-33.56-4.66c8.26-9.95,21.1-17.04,35.94-18.57
			c13.44-1.38,25.95,2.06,35.32,8.74C2180.72,2311.87,2168.65,2317.82,2151.67,2318.98z"/>
	</g>
</g>
<g id=":O" class="st10">
	<g class="st11">
		<ellipse class="st8" cx="2147.11" cy="2279.61" rx="43.52" ry="37.72"/>
		<path id="XMLID_401_" class="st9" d="M2151.78,2316.19c-9.98,0.69-17.73-0.76-23.83-3.31c5.86-7.06,14.98-12.1,25.51-13.18
			c9.54-0.98,18.42,1.46,25.07,6.21C2172.4,2311.14,2163.83,2315.36,2151.78,2316.19z"/>
	</g>
</g>
<g id=":o" class="st10">
	<g class="st11">
		<ellipse class="st8" cx="2142.11" cy="2279.61" rx="59.12" ry="43.04"/>
		<path id="XMLID_447_" class="st9" d="M2148.45,2321.34c-13.56,0.78-24.09-0.87-32.36-3.77c7.96-8.06,20.35-13.81,34.65-15.04
			c12.96-1.12,25.02,1.67,34.05,7.08C2176.46,2315.58,2164.83,2320.4,2148.45,2321.34z"/>
	</g>
</g>
<g id=":_x29_" class="st10">
	<g class="st11">
		<g id="XMLID_379_">
			<path id="XMLID_380_" class="st7" d="M2073.36,2284.6c45.08,26.78,119.67,15.22,154.76-22.92c3.75-4.08-4.38-7.99-7.69-4.37
				c-35.29,38.51-100.76,42.23-146.51,23.62C2071.38,2279.89,2071.76,2283.65,2073.36,2284.6L2073.36,2284.6z"/>
		</g>
		<g id="XMLID_377_">
			<path id="XMLID_378_" class="st7" d="M2219.84,2244.29c-4.38,4.48,0.12,12.53,3.71,15.88c4.14,3.85,11.35,7.49,17.11,5.49
				c1.96-0.68,4.08-3.06,1.92-4.97c-1.7-1.5-5.84-0.2-8.05-0.66c-8.06-1.69-10.42-8.37-12.92-15.21
				C2221.33,2244.02,2220.47,2243.65,2219.84,2244.29L2219.84,2244.29z"/>
		</g>
	</g>
</g>
<g id=":_x28_" class="st10">
	<g class="st11">
		<g id="XMLID_3_">
			<path id="XMLID_4_" class="st7" d="M2214.38,2288.7c-41.58-31.94-117.02-29.32-156.39,4.38c-4.21,3.6,3.4,8.45,7.12,5.25
				c39.62-34.04,105.06-29.96,148.28-6.05C2215.79,2293.61,2215.85,2289.83,2214.38,2288.7L2214.38,2288.7z"/>
		</g>
	</g>
</g>
<g id=":P" class="st10">
	<g class="st11">
		<path class="st9" d="M2166.99,2294.55c-4.74-7.54,9.75-55.04,31.49-60.57c2.49-0.63,8.03-1.92,11.82,2.97
			c7.3,9.42,4.5,37.07-3.87,45.08c-1.31,1.25-3.44,2.16-7.71,3.97c-5.46,2.31-9.43,3.15-12.85,3.97
			C2169.56,2293.84,2168.23,2296.52,2166.99,2294.55z"/>
		<line class="st12" x1="2184.42" y1="2287.61" x2="2198.9" y2="2249.35"/>
	</g>
	<path class="st13" d="M2068.46,2280.27c0,0,50.6,46.72,139.14,0"/>
	<path class="st14" d="M2189.77,2295.22"/>
</g>
<g id=":OO" class="st10">
	<g class="st11">
		<ellipse class="st8" cx="2154.11" cy="2284.61" rx="33.9" ry="24.68"/>
		<path id="XMLID_497_" class="st9" d="M2157.75,2308.56c-7.77,0.57-13.74,0.37-18.39-0.23c4.76-2.48,11.98-4.42,20.18-5.14
			c7.43-0.65,14.25-0.17,19.27,1.12C2173.9,2306.21,2167.13,2307.87,2157.75,2308.56z"/>
	</g>
</g>
<g id=":S" class="st10">
	<path class="st15" d="M2063.78,2275.61c1.64-4.65,8.69-14.78,19.29-16.47c17.95-2.87,24.61,18.43,41.96,16.47
		c14.77-1.67,16.36-16.58,30.66-16.47c13.55,0.1,17.31,13.78,32.91,13.83c11.99,0.04,20.14-8.02,20.81-6.94
		c0.52,0.83-1.5,3.06-2.41,4.06c-1.05,1.15-8.34,8.94-18.4,9.81c-16.61,1.43-25.16-17.36-36.84-13.17
		c-2.45,0.88-2.82,0.68-6.25,4.88c-3.09,3.78-19.97,13.99-32.78,10.06c-10.03-3.08-17.76-14.54-26.7-15.6
		c-0.51-0.06-1-0.07-1.5-0.05c-6.75,0.31-12.84,5.98-13.88,6.94c-3.77,3.47-5.93,7.42-6.94,6.94
		C2062.83,2279.48,2063.64,2276.01,2063.78,2275.61z"/>
	<path class="st16" d="M2151.87,2279.15"/>
	<path class="st16" d="M2143.97,2275.2"/>
	<path class="st15" d="M2108.44,2287.05"/>
	<path class="st15" d="M2112.39,2275.2"/>
	<path class="st15" d="M2171.61,2275.2"/>
	<path class="st15" d="M2132.13,2275.2"/>
</g>
<g id="Layer_3">
</g>
<g id="Layer_2">
	<g id="XMLID_52_">
		<g id="XMLID_53_">
			<path id="XMLID_75_" class="st17" d="M1643.49,1545.04c0-50.74,44.05-91.89,98.39-91.89c54.33,0,98.39,41.14,98.39,91.89
				s-44.05,91.88-98.39,91.88C1687.54,1636.92,1643.49,1595.79,1643.49,1545.04z"/>
			<path id="XMLID_74_" class="st17" d="M2275.96,1533.4c0-50.74,44.05-91.89,98.39-91.89c54.33,0,98.38,41.14,98.38,91.89
				s-44.05,91.88-98.38,91.88C2320.01,1625.28,2275.96,1584.15,2275.96,1533.4z"/>
			<g id="XMLID_72_">
				<path id="XMLID_73_" class="st7" d="M2110.96,1461.04c-24.19,17.8-41.7,35.43-75.08,36.07c-30.74,0.59-47.36-14.84-64.53-36.28
					c-2.95-3.69-10.39-3.72-9.54,2.13c9.6,65.64,133.73,57.54,150.61-0.04C2112.64,1462.17,2112.12,1460.19,2110.96,1461.04
					L2110.96,1461.04z"/>
			</g>
		</g>
	</g>
</g>
<g id="eyes_x5F_straight">
	<g id="XMLID_25_">
		<path id="XMLID_30_" class="st18" d="M2296.31,1154.46c-42.41-0.4-105.03,25.58-123.48,88.46
			c-22.46,76.5,22.54,151.21,121.9,148.2c106.61-3.23,144.75-68.46,133.74-129.29C2416.66,1196.67,2370.67,1155.16,2296.31,1154.46z
			"/>
		<g id="XMLID_28_">
			<path id="XMLID_29_" class="st19" d="M2171.02,1256.41c20.23-61.68,88.76-99.43,149.49-86.39c24.59,5.28,51.01,19.46,67.18,39.62
				c18.07,22.53,20.46,51.66,37.41,74.12c2.68,3.55,9.75,5.73,12.27,0.73c16.12-32.01-8.42-74.01-30.44-97.3
				c-22.95-24.28-57.47-40.64-89.93-44.72c-33.11-4.17-69.93,3.22-98.34,21.7c-34.2,22.23-44.14,51.46-50.36,91.2
				C2167.95,1257.6,2170.17,1258.99,2171.02,1256.41L2171.02,1256.41z"/>
		</g>
		
			<ellipse id="XMLID_27_" transform="matrix(0.0134 -0.9999 0.9999 0.0134 952.6347 3550.0286)" class="st20" cx="2275.34" cy="1292.25" rx="98.86" ry="95.64"/>
		<path id="XMLID_26_" class="st18" d="M2198.76,1297.68c0.12-17.45,13.89-31.52,30.78-31.41c16.89,0.11,30.48,14.34,30.36,31.79
			c-0.12,17.45-13.9,31.51-30.79,31.41C2212.23,1329.36,2198.65,1315.13,2198.76,1297.68z"/>
	</g>
	<g id="XMLID_24_">
	</g>
	<g id="XMLID_23_">
	</g>
	<g id="XMLID_17_">
		<path id="XMLID_22_" class="st18" d="M1788.12,1154.46c42.41-0.4,105.03,25.58,123.48,88.46c22.46,76.5-22.54,151.21-121.9,148.2
			c-106.61-3.23-144.75-68.46-133.74-129.29C1667.76,1196.67,1713.76,1155.16,1788.12,1154.46z"/>
		<g id="XMLID_20_">
			<path id="XMLID_21_" class="st19" d="M1913.4,1256.41c-20.23-61.68-88.76-99.43-149.49-86.39
				c-24.59,5.28-51.01,19.46-67.18,39.62c-18.07,22.53-20.46,51.66-37.41,74.12c-2.68,3.55-9.75,5.73-12.27,0.73
				c-16.12-32.01,8.42-74.01,30.44-97.3c22.95-24.28,57.47-40.64,89.93-44.72c33.11-4.17,69.93,3.22,98.34,21.7
				c34.2,22.23,44.14,51.46,50.36,91.2C1916.47,1257.6,1914.25,1258.99,1913.4,1256.41L1913.4,1256.41z"/>
		</g>
		
			<ellipse id="XMLID_19_" transform="matrix(0.9999 -0.0134 0.0134 0.9999 -17.1986 24.4223)" class="st20" cx="1809.08" cy="1292.25" rx="95.64" ry="98.86"/>
		<path id="XMLID_18_" class="st18" d="M1885.66,1297.68c-0.12-17.45-13.89-31.52-30.78-31.41c-16.89,0.11-30.48,14.34-30.36,31.79
			c0.12,17.45,13.9,31.51,30.79,31.41S1885.78,1315.13,1885.66,1297.68z"/>
	</g>
</g>
<g id="eyes_x5F_closed" class="st10">
	<g id="XMLID_510_" class="st11">
		<g id="XMLID_513_">
			<path id="XMLID_514_" class="st19" d="M2202.52,2051.01c11.14,35.2,48.86,56.74,82.29,49.3c13.54-3.01,28.08-11.1,36.98-22.61
				c9.95-12.85,11.26-29.48,20.59-42.3c1.48-2.03,5.37-3.27,6.75-0.41c8.87,18.27-4.63,42.23-16.76,55.52
				c-12.64,13.86-31.64,23.19-49.5,25.52c-18.23,2.38-38.49-1.84-54.14-12.39c-18.83-12.69-24.3-29.37-27.72-52.04
				C2200.83,2050.33,2202.05,2049.54,2202.52,2051.01L2202.52,2051.01z"/>
		</g>
	</g>
	<g id="XMLID_502_" class="st11">
		<g id="XMLID_505_">
			<path id="XMLID_506_" class="st19" d="M2062.48,2051.01c-11.14,35.2-48.86,56.74-82.29,49.3c-13.54-3.01-28.08-11.1-36.98-22.61
				c-9.95-12.86-11.26-29.48-20.59-42.3c-1.48-2.03-5.37-3.27-6.75-0.41c-8.87,18.27,4.63,42.23,16.76,55.52
				c12.64,13.86,31.64,23.19,49.5,25.52c18.23,2.38,38.49-1.84,54.14-12.39c18.83-12.69,24.3-29.37,27.72-52.04
				C2064.17,2050.33,2062.95,2049.54,2062.48,2051.01z"/>
		</g>
	</g>
</g>
<g id="eyes_x5F_sqeesed" class="st10">
	<path class="st21" d="M1919.1,1984.93c3.25-1.61,154.89,47.98,144.38,92.36c-9.76,41.18-147.48,28.75-150.43,25.59
		c-2.72-2.93,105.8-2.37,111.12-34.49C2029.81,2034.4,1916.13,1986.41,1919.1,1984.93z"/>
	<path class="st21" d="M2345.9,1984.93c-3.25-1.61-154.89,47.98-144.38,92.36c9.76,41.18,147.48,28.75,150.43,25.59
		c2.72-2.93-105.8-2.37-111.12-34.49C2235.19,2034.4,2348.87,1986.41,2345.9,1984.93z"/>
</g>
<g id="eyes_x5F_up" class="st10">
	<g id="XMLID_566_" class="st11">
		<path id="XMLID_571_" class="st18" d="M2271.81,1984.7c-23.25-0.22-57.58,14.02-67.7,48.5c-12.31,41.94,12.36,82.9,66.83,81.25
			c58.45-1.77,79.36-37.53,73.32-70.88C2337.8,2007.84,2312.58,1985.08,2271.81,1984.7z"/>
		<g id="XMLID_569_">
			<path id="XMLID_570_" class="st19" d="M2203.12,2040.6c11.09-33.82,48.67-54.51,81.96-47.36c13.48,2.89,27.97,10.67,36.83,21.72
				c9.91,12.35,11.22,28.32,20.51,40.64c1.47,1.95,5.35,3.14,6.72,0.4c8.84-17.55-4.61-40.58-16.69-53.34
				c-12.58-13.31-31.51-22.28-49.3-24.52c-18.15-2.29-38.34,1.77-53.92,11.9c-18.75,12.19-24.2,28.21-27.61,50
				C2201.44,2041.25,2202.66,2042.01,2203.12,2040.6L2203.12,2040.6z"/>
		</g>
		
			<ellipse id="XMLID_568_" transform="matrix(0.0134 -0.9999 0.9999 0.0134 186.3891 4293.0898)" class="st20" cx="2268.78" cy="2052.09" rx="54.2" ry="52.44"/>
		<path id="XMLID_567_" class="st18" d="M2243.71,2022.43c0.06-9.57,7.62-17.28,16.88-17.22s16.71,7.86,16.65,17.43
			c-0.06,9.57-7.62,17.28-16.88,17.22C2251.09,2039.8,2243.64,2031.99,2243.71,2022.43z"/>
	</g>
	<g id="XMLID_537_" class="st11">
		<path id="XMLID_563_" class="st18" d="M1993.19,1984.7c23.25-0.22,57.58,14.02,67.7,48.5c12.31,41.94-12.36,82.9-66.83,81.25
			c-58.45-1.77-79.36-37.53-73.32-70.88C1927.2,2007.84,1952.42,1985.08,1993.19,1984.7z"/>
		<g id="XMLID_542_">
			<path id="XMLID_562_" class="st19" d="M2061.88,2040.6c-11.09-33.82-48.67-54.51-81.96-47.36
				c-13.48,2.89-27.97,10.67-36.83,21.72c-9.91,12.35-11.22,28.32-20.51,40.64c-1.47,1.95-5.35,3.14-6.72,0.4
				c-8.84-17.55,4.61-40.58,16.69-53.34c12.59-13.31,31.51-22.28,49.3-24.52c18.15-2.29,38.34,1.77,53.92,11.9
				c18.75,12.19,24.2,28.21,27.61,50C2063.56,2041.25,2062.34,2042.01,2061.88,2040.6L2061.88,2040.6z"/>
		</g>
		
			<ellipse id="XMLID_541_" transform="matrix(0.9999 -0.0134 0.0134 0.9999 -27.3904 27.0052)" class="st20" cx="1996.22" cy="2052.09" rx="52.44" ry="54.2"/>
		<path id="XMLID_540_" class="st18" d="M2021.29,2022.43c-0.06-9.57-7.62-17.28-16.88-17.22s-16.71,7.86-16.65,17.43
			c0.06,9.57,7.62,17.28,16.88,17.22S2021.36,2031.99,2021.29,2022.43z"/>
	</g>
</g>
<g id="eyes_x5F_left" class="st10">
	<g id="XMLID_605_" class="st11">
		<path id="XMLID_610_" class="st18" d="M2271.81,1984.7c-23.25-0.22-57.58,14.02-67.7,48.5c-12.31,41.94,12.36,82.9,66.83,81.25
			c58.45-1.77,79.36-37.53,73.32-70.88C2337.8,2007.84,2312.58,1985.08,2271.81,1984.7z"/>
		<g id="XMLID_608_">
			<path id="XMLID_609_" class="st19" d="M2203.12,2040.6c11.09-33.82,48.67-54.51,81.96-47.36c13.48,2.89,27.97,10.67,36.83,21.72
				c9.91,12.35,11.22,28.32,20.51,40.64c1.47,1.95,5.35,3.14,6.72,0.4c8.84-17.55-4.61-40.58-16.69-53.34
				c-12.58-13.31-31.51-22.28-49.3-24.52c-18.15-2.29-38.34,1.77-53.92,11.9c-18.75,12.19-24.2,28.21-27.61,50
				C2201.44,2041.25,2202.66,2042.01,2203.12,2040.6L2203.12,2040.6z"/>
		</g>
		
			<ellipse id="XMLID_607_" transform="matrix(0.0134 -0.9999 0.9999 0.0134 182.8297 4289.4819)" class="st20" cx="2265.17" cy="2052.09" rx="54.2" ry="52.44"/>
		<path id="XMLID_606_" class="st18" d="M2218.33,2046.91c0.06-9.57,7.62-17.28,16.88-17.22s16.71,7.86,16.65,17.43
			c-0.06,9.57-7.62,17.28-16.88,17.22C2225.72,2064.28,2218.27,2056.47,2218.33,2046.91z"/>
	</g>
	<g id="XMLID_599_" class="st11">
		<path id="XMLID_604_" class="st18" d="M1993.19,1984.7c23.25-0.22,57.58,14.02,67.7,48.5c12.31,41.94-12.36,82.9-66.83,81.25
			c-58.45-1.77-79.36-37.53-73.32-70.88C1927.2,2007.84,1952.42,1985.08,1993.19,1984.7z"/>
		<g id="XMLID_602_">
			<path id="XMLID_603_" class="st19" d="M2061.88,2040.6c-11.09-33.82-48.67-54.51-81.96-47.36
				c-13.48,2.89-27.97,10.67-36.83,21.72c-9.91,12.35-11.22,28.32-20.51,40.64c-1.47,1.95-5.35,3.14-6.72,0.4
				c-8.84-17.55,4.61-40.58,16.69-53.34c12.59-13.31,31.51-22.28,49.3-24.52c18.15-2.29,38.34,1.77,53.92,11.9
				c18.75,12.19,24.2,28.21,27.61,50C2063.56,2041.25,2062.34,2042.01,2061.88,2040.6L2061.88,2040.6z"/>
		</g>
		
			<ellipse id="XMLID_601_" transform="matrix(0.9999 -0.0134 0.0134 0.9999 -27.3911 26.8916)" class="st20" cx="1987.77" cy="2052.09" rx="52.44" ry="54.2"/>
		<path id="XMLID_600_" class="st18" d="M1979,2046.91c-0.06-9.57-7.62-17.28-16.88-17.22s-16.71,7.86-16.65,17.43
			c0.06,9.57,7.62,17.28,16.88,17.22C1971.61,2064.28,1979.06,2056.47,1979,2046.91z"/>
	</g>
</g>
<g id="eyes_x5F_right" class="st10">
	<g id="XMLID_643_" class="st11">
		<path id="XMLID_648_" class="st18" d="M1993.19,1984.7c23.25-0.22,57.58,14.02,67.7,48.5c12.31,41.94-12.36,82.9-66.83,81.25
			c-58.45-1.77-79.36-37.53-73.32-70.88C1927.2,2007.84,1952.42,1985.08,1993.19,1984.7z"/>
		<g id="XMLID_646_">
			<path id="XMLID_647_" class="st19" d="M2061.88,2040.6c-11.09-33.82-48.67-54.51-81.96-47.36
				c-13.48,2.89-27.97,10.67-36.83,21.72c-9.91,12.35-11.22,28.32-20.51,40.64c-1.47,1.95-5.35,3.14-6.72,0.4
				c-8.84-17.55,4.61-40.58,16.69-53.34c12.59-13.31,31.51-22.28,49.3-24.52c18.15-2.29,38.34,1.77,53.92,11.9
				c18.75,12.19,24.2,28.21,27.61,50C2063.56,2041.25,2062.34,2042.01,2061.88,2040.6L2061.88,2040.6z"/>
		</g>
		
			<ellipse id="XMLID_645_" transform="matrix(0.9999 -0.0134 0.0134 0.9999 -27.3901 27.0537)" class="st20" cx="1999.83" cy="2052.09" rx="52.44" ry="54.2"/>
		<path id="XMLID_644_" class="st18" d="M2046.67,2046.91c-0.06-9.57-7.62-17.28-16.88-17.22c-9.26,0.06-16.71,7.86-16.65,17.43
			c0.06,9.57,7.62,17.28,16.88,17.22S2046.73,2056.47,2046.67,2046.91z"/>
	</g>
	<g id="XMLID_637_" class="st11">
		<path id="XMLID_642_" class="st18" d="M2271.81,1984.7c-23.25-0.22-57.58,14.02-67.7,48.5c-12.31,41.94,12.36,82.9,66.83,81.25
			c58.45-1.77,79.36-37.53,73.32-70.88C2337.8,2007.84,2312.58,1985.08,2271.81,1984.7z"/>
		<g id="XMLID_640_">
			<path id="XMLID_641_" class="st19" d="M2203.12,2040.6c11.09-33.82,48.67-54.51,81.96-47.36c13.48,2.89,27.97,10.67,36.83,21.72
				c9.91,12.35,11.22,28.32,20.51,40.64c1.47,1.95,5.35,3.14,6.72,0.4c8.84-17.55-4.61-40.58-16.69-53.34
				c-12.58-13.31-31.51-22.28-49.3-24.52c-18.15-2.29-38.34,1.77-53.92,11.9c-18.75,12.19-24.2,28.21-27.61,50
				C2201.44,2041.25,2202.66,2042.01,2203.12,2040.6L2203.12,2040.6z"/>
		</g>
		
			<ellipse id="XMLID_639_" transform="matrix(0.0134 -0.9999 0.9999 0.0134 194.7343 4301.5479)" class="st20" cx="2277.23" cy="2052.09" rx="54.2" ry="52.44"/>
		<path id="XMLID_638_" class="st18" d="M2286,2046.91c0.06-9.57,7.62-17.28,16.88-17.22s16.71,7.86,16.65,17.43
			c-0.06,9.57-7.62,17.28-16.88,17.22S2285.94,2056.47,2286,2046.91z"/>
	</g>
</g>
<g id="eyes_x5F_down" class="st10">
	<g id="XMLID_681_" class="st11">
		<path id="XMLID_686_" class="st18" d="M2271.81,1984.7c-23.25-0.22-57.58,14.02-67.7,48.5c-12.31,41.94,12.36,82.9,66.83,81.25
			c58.45-1.77,79.36-37.53,73.32-70.88C2337.8,2007.84,2312.58,1985.08,2271.81,1984.7z"/>
		<g id="XMLID_684_">
			<path id="XMLID_685_" class="st19" d="M2203.12,2040.6c11.09-33.82,48.67-54.51,81.96-47.36c13.48,2.89,27.97,10.67,36.83,21.72
				c9.91,12.35,11.22,28.32,20.51,40.64c1.47,1.95,5.35,3.14,6.72,0.4c8.84-17.55-4.61-40.58-16.69-53.34
				c-12.58-13.31-31.51-22.28-49.3-24.52c-18.15-2.29-38.34,1.77-53.92,11.9c-18.75,12.19-24.2,28.21-27.61,50
				C2201.44,2041.25,2202.66,2042.01,2203.12,2040.6L2203.12,2040.6z"/>
		</g>
		
			<ellipse id="XMLID_683_" transform="matrix(0.9999 -0.0134 0.0134 0.9999 -27.449 30.6676)" class="st20" cx="2268.78" cy="2058.29" rx="52.44" ry="54.2"/>
		<path id="XMLID_682_" class="st18" d="M2243.71,2083.87c0.06,9.57,7.62,17.28,16.88,17.22s16.71-7.86,16.65-17.43
			c-0.06-9.57-7.62-17.28-16.88-17.22C2251.09,2066.5,2243.64,2074.3,2243.71,2083.87z"/>
	</g>
	<g id="XMLID_675_" class="st11">
		<path id="XMLID_680_" class="st18" d="M1993.08,1983.99c22.69-0.22,56.18,14.18,66.06,49.06c12.01,42.43-12.06,83.86-65.21,82.19
			c-57.03-1.79-77.43-37.96-71.54-71.7C1928.69,2007.4,1953.3,1984.38,1993.08,1983.99z"/>
		<g id="XMLID_678_">
			<path id="XMLID_679_" class="st19" d="M2060.1,2040.53c-10.82-34.21-47.48-55.14-79.97-47.91
				c-13.15,2.93-27.29,10.79-35.94,21.97c-9.67,12.49-10.94,28.65-20.01,41.1c-1.44,1.97-5.22,3.18-6.56,0.4
				c-8.62-17.75,4.5-41.04,16.29-53.96c12.28-13.46,30.75-22.54,48.11-24.8c17.71-2.32,37.41,1.79,52.61,12.04
				c18.29,12.33,23.61,28.54,26.94,50.58C2061.74,2041.2,2060.55,2041.96,2060.1,2040.53L2060.1,2040.53z"/>
		</g>
		
			<ellipse id="XMLID_677_" transform="matrix(6.424647e-03 -1 1 6.424647e-03 -75.1727 4041.1997)" class="st20" cx="1996.04" cy="2058.43" rx="54.82" ry="51.16"/>
		<path id="XMLID_676_" class="st18" d="M2020.5,2084.31c-0.06,9.68-7.43,17.48-16.47,17.42s-16.31-7.95-16.24-17.63
			c0.06-9.68,7.44-17.47,16.47-17.42S2020.56,2074.63,2020.5,2084.31z"/>
	</g>
</g>
</svg>
