<?xml version="1.0" encoding="utf-8"?>
<!-- Generator: Adobe Illustrator 24.2.1, SVG Export Plug-In . SVG Version: 6.00 Build 0)  -->
<svg version="1.1" id="Ebene_1" xmlns="http://www.w3.org/2000/svg" xmlns:xlink="http://www.w3.org/1999/xlink" x="0px" y="0px"
	 viewBox="0 0 2573.6 4518.1" style="enable-background:new 0 0 2573.6 4518.1;" xml:space="preserve">
<style type="text/css">
	.st0{fill:#BA2525;}
	.st1{fill:#FF5A6E;}
	.st2{fill:#E22B2B;}
	.st3{fill:#F2C2AA;}
	.st4{fill:#572A17;}
	.st5{fill:#3F1D12;}
	.st6{fill:#FFD5BE;}
	.st7{fill:#9E5147;}
	.st8{display:none;}
	.st9{display:inline;}
	.st10{fill:#8E3257;}
	.st11{fill:#EE7BA5;}
	.st12{fill:none;stroke:#D16994;stroke-width:0.25;stroke-linecap:round;stroke-miterlimit:10;}
	.st13{display:inline;fill:none;stroke:#9E5147;stroke-width:1.5;stroke-linecap:round;stroke-miterlimit:10;}
	.st14{display:inline;fill:#EE7BA5;}
	.st15{display:inline;fill:#9E5147;}
	.st16{display:inline;fill:#8E3257;}
	.st17{fill:#FCA39A;}
	.st18{fill:#FFFFFF;}
	.st19{fill:#002030;}
	.st20{fill:#19313A;}
	.st21{display:inline;fill:#002030;}
</style>
<g id="arm_left">
	<g>
		<path class="st0" d="M650.2,2894.8c47.1-2.4,94.2-4.8,141.3-7.1c-53.7-101.3-64-296.4-77.4-478.4
			c20.7-444.8,241-552.7,291.2-573.6l-88.1-117.6c-56.7,30.1-139.6,84-209.3,176.1c-119.8,158.4-125.7,331.5-131.3,495.6
			C572.7,2503.8,580.4,2683,650.2,2894.8z"/>
	</g>
</g>
<g id="arm_right">
	<g>
		<path class="st0" d="M1945.8,2894.6c-47.1-2.4-94.2-4.8-141.3-7.1c53.7-101.3,64-296.4,77.4-478.4
			c-20.7-444.8-241-552.7-291.2-573.6l88.1-117.6c56.7,30.1,139.6,84,209.3,176.1c119.8,158.4,125.7,331.5,131.3,495.6
			C2023.3,2503.5,2015.6,2682.8,1945.8,2894.6z"/>
	</g>
</g>
<g id="right_leg">
	<g>
		<path class="st1" d="M1634.9,4339.1c107.7-28.1,208-17.4,248.7,14.8c34.8,27.6,41.4,59.3,41.4,59.3c2.9,14,1.2,26,0,29.7
			c-16.1,50-423.3,32.1-476.6,29.7c-1-13.7-1.2-28.6,0-44.5c2.6-34.5,11.1-64.5,20.7-89H1634.9z"/>
		<polygon class="st2" points="1455.2,3328.2 1469.5,4340.6 1611.7,4340.6 1611.7,3328.2 		"/>
	</g>
</g>
<g id="left_leg">
	<g>
		<path class="st1" d="M985.5,4326.4c-104.2-28.5-201.3-17.6-240.7,15c-33.7,27.9-40.1,60-40.1,60c-2.8,14.1-1.1,26.3,0,30
			c15.6,50.6,409.6,32.5,461.3,30c1-13.8,1.2-28.9,0-45c-2.6-34.8-10.7-65.1-20.1-90L985.5,4326.4L985.5,4326.4z"/>
		<polygon class="st2" points="981.8,3316.7 996.7,4329.1 1145.6,4329.1 1145.6,3316.7 		"/>
	</g>
</g>
<g id="body">
	<g>
		<path class="st2" d="M1298,3448.3L1298,3448.3c279.3,0,507.7-220.7,507.7-490.5v-923.5c0-269.8-228.5-490.5-507.7-490.5l0,0
			c-279.3,0-507.7,220.7-507.7,490.5v923.5C790.3,3227.6,1018.7,3448.3,1298,3448.3z"/>
		<path class="st0" d="M1582.7,3448.3h-575.3c-121,0-220.1-95.7-220.1-212.6v-187.9c0-116.9,99-212.6,220.1-212.6h575.3
			c121,0,220.1,95.7,220.1,212.6v187.9C1802.8,3352.6,1703.8,3448.3,1582.7,3448.3z"/>
		<rect x="788.4" y="2404.8" class="st2" width="1015.5" height="678.3"/>
	</g>
</g>
<g id="right_hand">
	<g>
		<path class="st3" d="M1830.4,2822.2c-9.7,20.9-10.6,18.8-19.6,24.6c-30.3,19.5-61,8-139,15.7c-15.1,1.5-27.3,3.2-35,4.4
			c-3.8,3.1-18.8,15.9-19.6,33.1c-0.9,19.7,16.1,36.1,31.4,38.9c33.9,6.3,62.9-10.6,75.1,2.4c3.9,4.2,5.8,12,0.4,27.5
			c-10.1,7.3-25.7,18.4-45.6,31c-19.3,12.3-22.3,13.2-31.4,20.2c-15.7,12-38.9,30-40.6,53.6c-0.2,2.3-1.2,21,11.6,29.4
			c23.7,15.6,72.6-15.7,78.9-19.8c8.2-5.2,16.8-12.7,34.2-27.6c15.7-13.4,28.1-25,36.5-32.9c1.9-0.2,6.1-0.5,9,1.8
			c0,0,2.6,2.1,3.2,6.2c1.5,11-23.8,58-29.4,71.1c-5.6,12.9-25.4,58.6-5,81.1c8.6,9.5,24.5,14.4,39.2,11.5
			c16.4-3.3,26.7-15.4,32.4-22.4c5-6.1,16.1-21.2,22.5-67.5c5.3-38.2,2.5-62.8,13.5-66.9c3.1-1.1,5.9-0.2,7.3,0.3
			c11.6,3.8,9.5,22,14.1,45.6c3.8,20,8.4,43.3,27.1,53c1.6,0.8,15.3,7.6,30.2,2.2c19-6.9,25.8-28,26.9-31.4
			c1.5-4.6,3.4-12.8-6.3-52.7c-2.6-10.6-3.6-13.5-9.5-35.7c-6.9-25.9-10.4-38.8-10.8-42.5c-3.1-30.2,9-62.4,15-79.6
			C1958.1,2866,1920.8,2862.4,1830.4,2822.2z"/>
	</g>
</g>
<g id="left_hand">
	<g>
		<path class="st3" d="M767,2825.3c9.7,20.9,10.6,18.8,19.6,24.6c30.3,19.5,61,8,139,15.7c15.1,1.5,27.3,3.2,35,4.4
			c3.8,3.1,18.8,15.9,19.6,33.1c0.9,19.7-16.1,36.1-31.4,38.9c-33.9,6.3-62.9-10.6-75.1,2.4c-3.9,4.2-5.8,12-0.4,27.5
			c10.1,7.3,25.7,18.4,45.6,31c19.3,12.3,22.3,13.2,31.4,20.2c15.7,12,38.9,30,40.6,53.6c0.2,2.3,1.2,21-11.6,29.4
			c-23.7,15.6-72.6-15.7-78.9-19.8c-8.2-5.2-16.8-12.7-34.2-27.6c-15.7-13.4-28.1-25-36.5-32.9c-1.9-0.2-6.1-0.5-9,1.8
			c0,0-2.6,2.1-3.2,6.2c-1.5,11,23.8,58,29.4,71.1c5.6,12.9,25.4,58.6,5,81.1c-8.6,9.5-24.5,14.4-39.2,11.5
			c-16.4-3.3-26.7-15.4-32.4-22.4c-5-6.1-16.1-21.2-22.5-67.5c-5.3-38.2-2.5-62.8-13.5-66.9c-3.1-1.1-5.9-0.2-7.3,0.3
			c-11.6,3.8-9.5,22-14.1,45.6c-3.8,20-8.4,43.3-27.1,53c-1.6,0.8-15.3,7.6-30.2,2.2c-19-6.9-25.8-28-26.8-31.4
			c-1.5-4.6-3.4-12.8,6.3-52.7c2.6-10.6,3.6-13.5,9.5-35.7c6.9-25.9,10.4-38.8,10.8-42.5c3.1-30.2-9-62.4-15-79.6
			C639.3,2869,676.6,2865.5,767,2825.3z"/>
	</g>
</g>
<g id="head">
	<g id="XMLID_62_">
		<path id="XMLID_70_" class="st4" d="M811.6,165.8c91.7,96.1,128.4,221.7,112.1,341.4c-167.3-142.8-423.6-144-592.5,4.2
			C251,581.6,204.1,673.7,191.1,769.5c-11.3-9.7-22.3-20-32.8-31c-165-173-152.4-441.4,28-599.6C366.7-19.2,646.7-7.2,811.6,165.8z"
			/>
		<path id="XMLID_69_" class="st4" d="M1765.7,165.8c-91.6,96.1-128.4,221.7-112.1,341.4c167.3-142.8,423.6-144,592.5,4.2
			c80.2,70.3,127.1,162.3,140.1,258.1c11.4-9.7,22.3-20,32.8-31c164.9-173,152.4-441.4-28-599.6
			C2210.6-19.2,1930.6-7.2,1765.7,165.8z"/>
		<ellipse id="XMLID_68_" class="st5" cx="1288.6" cy="830.5" rx="618" ry="603.1"/>
		<ellipse id="XMLID_67_" class="st6" cx="1288.6" cy="932.5" rx="586.2" ry="648"/>
		<g id="XMLID_64_">
			<ellipse id="XMLID_66_" class="st6" cx="702.4" cy="932.5" rx="114.3" ry="158.4"/>
			<ellipse id="XMLID_65_" class="st6" cx="1874.8" cy="932.5" rx="114.3" ry="158.4"/>
		</g>
		<path id="XMLID_63_" class="st4" d="M1288.4,246.7c-335,0-608.7,248.8-627.1,562.3c80.6,6.9,162.5,12.5,245.4,16.7l141.8-240.1
			c0,0-60.5,172-80.4,243.1c4.8,0.2,9.5,0.4,14.3,0.6c40.4-70.7,126.9-243.6,126.9-243.6L1061.8,832c3.4,0.1,6.8,0.2,10.2,0.3
			l105.1-246.7l-14.8,248.8c41.8,0.7,83.8,1.2,126.1,1.2c215.3,0,425.1-9.2,627.1-26.6C1897.2,495.5,1623.5,246.7,1288.4,246.7z"/>
	</g>
	<path id="XMLID_61_" class="st7" d="M1849.5,982.5c-1,2.7,0.6,7.6,3,5.2c10.2-10.3,18.5-24,29-33.5c11.4-10.4,22.9-15.1,33.9-15.7
		c3.6,9.3,7.1,16.3,3.6,32.5c-3.1,14-9.5,30.2-17.8,41.8c-6.5,9.1-14.8,13.2-22,20c-0.6,0.5-1.4,2.8-0.6,3
		c28.9,4.2,58.6-61,54.7-94.3c15.6,6.8,26.7,24.4,21.3,53.5c-0.3,1.4,0.8,0.9,1.2-0.2C1994.6,898.7,1882.6,891.6,1849.5,982.5z"/>
	<path id="XMLID_60_" class="st7" d="M727,958.8c1,2.7-0.6,7.6-3,5.2c-10.2-10.3-18.5-24-29-33.5c-11.4-10.4-22.9-15.1-33.8-15.7
		c-3.6,9.3-7.1,16.3-3.6,32.5c3.1,14,9.5,30.2,17.8,41.8c6.5,9.1,14.8,13.2,22,20c0.6,0.5,1.4,2.8,0.6,3
		c-28.9,4.2-58.7-61-54.7-94.3c-15.6,6.8-26.7,24.4-21.3,53.5c0.3,1.4-0.8,0.9-1.2-0.2C581.8,875,693.9,867.9,727,958.8z"/>
</g>
<g id="hair_clip">
	<g id="XMLID_81_">
		<ellipse id="XMLID_83_" class="st1" cx="1635.3" cy="325.8" rx="109.2" ry="104.7"/>
		<ellipse id="XMLID_82_" class="st1" cx="1789.7" cy="473.8" rx="109.2" ry="104.7"/>
	</g>
	<g id="XMLID_77_">
		<ellipse id="XMLID_80_" class="st1" cx="942" cy="325.8" rx="109.2" ry="104.7"/>
		<ellipse id="XMLID_79_" class="st1" cx="787.5" cy="473.8" rx="109.2" ry="104.7"/>
	</g>
</g>
<g id=":0" class="st8">
	<g class="st9">
		<ellipse class="st10" cx="1381.3" cy="2008" rx="61.3" ry="36.8"/>
		<path id="XMLID_255_" class="st11" d="M1390.8,2046.7c-14.1,1-25-1.1-33.6-4.7c8.3-9.9,21.1-17,35.9-18.6
			c13.4-1.4,25.9,2.1,35.3,8.7C1419.9,2039.6,1407.8,2045.6,1390.8,2046.7z"/>
	</g>
</g>
<g id=":O" class="st8">
	<g class="st9">
		<ellipse class="st10" cx="1386.3" cy="2007.4" rx="43.5" ry="37.7"/>
		<path id="XMLID_401_" class="st11" d="M1390.9,2043.9c-10,0.7-17.7-0.8-23.8-3.3c5.9-7.1,15-12.1,25.5-13.2
			c9.5-1,18.4,1.5,25.1,6.2C1411.5,2038.9,1403,2043.1,1390.9,2043.9z"/>
	</g>
</g>
<g id=":o" class="st8">
	<g class="st9">
		<ellipse class="st10" cx="1381.3" cy="2007.4" rx="59.1" ry="43"/>
		<path id="XMLID_447_" class="st11" d="M1387.6,2049.1c-13.6,0.8-24.1-0.9-32.4-3.8c8-8.1,20.4-13.8,34.6-15
			c13-1.1,25,1.7,34.1,7.1C1415.6,2043.3,1404,2048.1,1387.6,2049.1z"/>
	</g>
</g>
<g id=":_x29_" class="st8">
	<g class="st9">
		<g id="XMLID_379_">
			<path id="XMLID_380_" class="st7" d="M1312.5,2012.3c45.1,26.8,119.7,15.2,154.8-22.9c3.8-4.1-4.4-8-7.7-4.4
				c-35.3,38.5-100.8,42.2-146.5,23.6C1310.5,2007.6,1310.9,2011.4,1312.5,2012.3L1312.5,2012.3z"/>
		</g>
		<g id="XMLID_377_">
			<path id="XMLID_378_" class="st7" d="M1459,1972c-4.4,4.5,0.1,12.5,3.7,15.9c4.1,3.9,11.4,7.5,17.1,5.5c2-0.7,4.1-3.1,1.9-5
				c-1.7-1.5-5.8-0.2-8.1-0.7c-8.1-1.7-10.4-8.4-12.9-15.2C1460.5,1971.8,1459.6,1971.4,1459,1972L1459,1972z"/>
		</g>
	</g>
</g>
<g id=":_x28_" class="st8">
	<g class="st9">
		<g id="XMLID_3_">
			<path id="XMLID_4_" class="st7" d="M1453.5,2016.4c-41.6-31.9-117-29.3-156.4,4.4c-4.2,3.6,3.4,8.4,7.1,5.3
				c39.6-34,105.1-30,148.3-6.1C1454.9,2021.4,1455,2017.6,1453.5,2016.4L1453.5,2016.4z"/>
		</g>
	</g>
</g>
<g id=":P" class="st8">
	<g class="st9">
		<path class="st11" d="M1406.1,2022.3c-4.7-7.5,9.8-55,31.5-60.6c2.5-0.6,8-1.9,11.8,3c7.3,9.4,4.5,37.1-3.9,45.1
			c-1.3,1.3-3.4,2.2-7.7,4c-5.5,2.3-9.4,3.1-12.9,4C1408.7,2021.6,1407.4,2024.3,1406.1,2022.3z"/>
		<line class="st12" x1="1423.6" y1="2015.4" x2="1438" y2="1977.1"/>
	</g>
	<path class="st13" d="M1307.6,2008c0,0,50.6,46.7,139.1,0"/>
	<path class="st14" d="M1428.9,2023"/>
</g>
<g id=":OO" class="st8">
	<g class="st9">
		<ellipse class="st10" cx="1393.3" cy="2012.4" rx="33.9" ry="24.7"/>
		<path id="XMLID_497_" class="st11" d="M1396.9,2036.3c-7.8,0.6-13.7,0.4-18.4-0.2c4.8-2.5,12-4.4,20.2-5.1
			c7.4-0.6,14.3-0.2,19.3,1.1C1413,2034,1406.3,2035.6,1396.9,2036.3z"/>
	</g>
</g>
<g id=":S" class="st8">
	<path class="st15" d="M1302.9,2003.4c1.6-4.6,8.7-14.8,19.3-16.5c17.9-2.9,24.6,18.4,42,16.5c14.8-1.7,16.4-16.6,30.7-16.5
		c13.6,0.1,17.3,13.8,32.9,13.8c12,0,20.1-8,20.8-6.9c0.5,0.8-1.5,3.1-2.4,4.1c-1.1,1.1-8.3,8.9-18.4,9.8
		c-16.6,1.4-25.2-17.4-36.8-13.2c-2.4,0.9-2.8,0.7-6.3,4.9c-3.1,3.8-20,14-32.8,10.1c-10-3.1-17.8-14.5-26.7-15.6
		c-0.5-0.1-1-0.1-1.5-0.1c-6.8,0.3-12.8,6-13.9,6.9c-3.8,3.5-5.9,7.4-6.9,6.9C1302,2007.2,1302.8,2003.8,1302.9,2003.4z"/>
	<path class="st16" d="M1391,2006.9"/>
	<path class="st16" d="M1383.1,2002.9"/>
	<path class="st15" d="M1347.6,2014.8"/>
	<path class="st15" d="M1351.5,2002.9"/>
	<path class="st15" d="M1410.8,2002.9"/>
	<path class="st15" d="M1371.3,2002.9"/>
</g>
<g id="Layer_3">
</g>
<g id="Layer_2">
	<g id="XMLID_52_">
		<g id="XMLID_53_">
			<path id="XMLID_75_" class="st17" d="M882.6,1272.8c0-50.7,44.1-91.9,98.4-91.9c54.3,0,98.4,41.1,98.4,91.9s-44.1,91.9-98.4,91.9
				S882.6,1323.5,882.6,1272.8z"/>
			<path id="XMLID_74_" class="st17" d="M1515.1,1261.1c0-50.7,44.1-91.9,98.4-91.9c54.3,0,98.4,41.1,98.4,91.9
				s-44.1,91.9-98.4,91.9C1559.2,1353,1515.1,1311.9,1515.1,1261.1z"/>
			<g id="XMLID_72_">
				<path id="XMLID_73_" class="st7" d="M1350.1,1188.8c-24.2,17.8-41.7,35.4-75.1,36.1c-30.7,0.6-47.4-14.8-64.5-36.3
					c-2.9-3.7-10.4-3.7-9.5,2.1c9.6,65.6,133.7,57.5,150.6,0C1351.8,1189.9,1351.3,1187.9,1350.1,1188.8L1350.1,1188.8z"/>
			</g>
		</g>
	</g>
</g>
<g id="eyes_x5F_straight">
	<g id="XMLID_25_">
		<path id="XMLID_30_" class="st18" d="M1535.5,882.2c-42.4-0.4-105,25.6-123.5,88.5c-22.5,76.5,22.5,151.2,121.9,148.2
			c106.6-3.2,144.8-68.5,133.7-129.3C1655.8,924.4,1609.8,882.9,1535.5,882.2z"/>
		<g id="XMLID_28_">
			<path id="XMLID_29_" class="st19" d="M1410.2,984.2c20.2-61.7,88.8-99.4,149.5-86.4c24.6,5.3,51,19.5,67.2,39.6
				c18.1,22.5,20.5,51.7,37.4,74.1c2.7,3.6,9.8,5.7,12.3,0.7c16.1-32-8.4-74-30.4-97.3c-22.9-24.3-57.5-40.6-89.9-44.7
				c-33.1-4.2-69.9,3.2-98.3,21.7c-34.2,22.2-44.1,51.5-50.4,91.2C1407.1,985.3,1409.3,986.7,1410.2,984.2L1410.2,984.2z"/>
		</g>
		
			<ellipse id="XMLID_27_" transform="matrix(1.340014e-02 -0.9999 0.9999 1.340014e-02 474.2156 2520.5669)" class="st20" cx="1514.4" cy="1020" rx="98.9" ry="95.6"/>
		<path id="XMLID_26_" class="st18" d="M1437.9,1025.4c0.1-17.4,13.9-31.5,30.8-31.4c16.9,0.1,30.5,14.3,30.4,31.8
			c-0.1,17.4-13.9,31.5-30.8,31.4C1451.4,1057.1,1437.8,1042.9,1437.9,1025.4z"/>
	</g>
	<g id="XMLID_24_">
	</g>
	<g id="XMLID_23_">
	</g>
	<g id="XMLID_17_">
		<path id="XMLID_22_" class="st18" d="M1027.3,882.2c42.4-0.4,105,25.6,123.5,88.5c22.5,76.5-22.5,151.2-121.9,148.2
			c-106.6-3.2-144.8-68.5-133.7-129.3C906.9,924.4,952.9,882.9,1027.3,882.2z"/>
		<g id="XMLID_20_">
			<path id="XMLID_21_" class="st19" d="M1152.5,984.2c-20.2-61.7-88.8-99.4-149.5-86.4c-24.6,5.3-51,19.5-67.2,39.6
				c-18.1,22.5-20.5,51.7-37.4,74.1c-2.7,3.6-9.8,5.7-12.3,0.7c-16.1-32,8.4-74,30.4-97.3c22.9-24.3,57.5-40.6,89.9-44.7
				c33.1-4.2,69.9,3.2,98.3,21.7c34.2,22.2,44.1,51.5,50.4,91.2C1155.6,985.3,1153.4,986.7,1152.5,984.2L1152.5,984.2z"/>
		</g>
		
			<ellipse id="XMLID_19_" transform="matrix(0.9999 -1.340014e-02 1.340014e-02 0.9999 -13.5746 14.1371)" class="st20" cx="1048.2" cy="1020" rx="95.6" ry="98.9"/>
		<path id="XMLID_18_" class="st18" d="M1124.8,1025.4c-0.1-17.4-13.9-31.5-30.8-31.4s-30.5,14.3-30.4,31.8
			c0.1,17.4,13.9,31.5,30.8,31.4S1124.9,1042.9,1124.8,1025.4z"/>
	</g>
</g>
<g id="eyes_x5F_closed" class="st8">
	<g id="XMLID_510_" class="st9">
		<g id="XMLID_513_">
			<path id="XMLID_514_" class="st19" d="M1441.7,1778.8c11.1,35.2,48.9,56.7,82.3,49.3c13.5-3,28.1-11.1,37-22.6
				c9.9-12.9,11.3-29.5,20.6-42.3c1.5-2,5.4-3.3,6.8-0.4c8.9,18.3-4.6,42.2-16.8,55.5c-12.6,13.9-31.6,23.2-49.5,25.5
				c-18.2,2.4-38.5-1.8-54.1-12.4c-18.8-12.7-24.3-29.4-27.7-52C1440,1778.1,1441.2,1777.3,1441.7,1778.8L1441.7,1778.8z"/>
		</g>
	</g>
	<g id="XMLID_502_" class="st9">
		<g id="XMLID_505_">
			<path id="XMLID_506_" class="st19" d="M1301.6,1778.8c-11.1,35.2-48.9,56.7-82.3,49.3c-13.5-3-28.1-11.1-37-22.6
				c-9.9-12.9-11.3-29.5-20.6-42.3c-1.5-2-5.4-3.3-6.8-0.4c-8.9,18.3,4.6,42.2,16.8,55.5c12.6,13.9,31.6,23.2,49.5,25.5
				c18.2,2.4,38.5-1.8,54.1-12.4c18.8-12.7,24.3-29.4,27.7-52C1303.3,1778.1,1302.1,1777.3,1301.6,1778.8z"/>
		</g>
	</g>
</g>
<g id="eyes_x5F_sqeesed" class="st8">
	<path class="st21" d="M1158.2,1712.7c3.3-1.6,154.9,48,144.4,92.4c-9.8,41.2-147.5,28.8-150.4,25.6c-2.7-2.9,105.8-2.4,111.1-34.5
		C1269,1762.1,1155.3,1714.2,1158.2,1712.7z"/>
	<path class="st21" d="M1585,1712.7c-3.3-1.6-154.9,48-144.4,92.4c9.8,41.2,147.5,28.8,150.4,25.6c2.7-2.9-105.8-2.4-111.1-34.5
		C1474.3,1762.1,1588,1714.2,1585,1712.7z"/>
</g>
<g id="eyes_x5F_up" class="st8">
	<g id="XMLID_566_" class="st9">
		<path id="XMLID_571_" class="st18" d="M1511,1712.4c-23.3-0.2-57.6,14-67.7,48.5c-12.3,41.9,12.4,82.9,66.8,81.3
			c58.4-1.8,79.4-37.5,73.3-70.9C1576.9,1735.6,1551.7,1712.8,1511,1712.4z"/>
		<g id="XMLID_569_">
			<path id="XMLID_570_" class="st19" d="M1442.3,1768.3c11.1-33.8,48.7-54.5,82-47.4c13.5,2.9,28,10.7,36.8,21.7
				c9.9,12.3,11.2,28.3,20.5,40.6c1.5,1.9,5.4,3.1,6.7,0.4c8.8-17.6-4.6-40.6-16.7-53.3c-12.6-13.3-31.5-22.3-49.3-24.5
				c-18.1-2.3-38.3,1.8-53.9,11.9c-18.8,12.2-24.2,28.2-27.6,50C1440.6,1769,1441.8,1769.8,1442.3,1768.3L1442.3,1768.3z"/>
		</g>
		
			<ellipse id="XMLID_568_" transform="matrix(1.340014e-02 -0.9999 0.9999 1.340014e-02 -292.0001 3263.6191)" class="st20" cx="1507.8" cy="1779.8" rx="54.2" ry="52.4"/>
		<path id="XMLID_567_" class="st18" d="M1482.9,1750.2c0.1-9.6,7.6-17.3,16.9-17.2s16.7,7.9,16.6,17.4c-0.1,9.6-7.6,17.3-16.9,17.2
			C1490.2,1767.5,1482.8,1759.7,1482.9,1750.2z"/>
	</g>
	<g id="XMLID_537_" class="st9">
		<path id="XMLID_563_" class="st18" d="M1232.3,1712.4c23.3-0.2,57.6,14,67.7,48.5c12.3,41.9-12.4,82.9-66.8,81.3
			c-58.4-1.8-79.4-37.5-73.3-70.9C1166.3,1735.6,1191.6,1712.8,1232.3,1712.4z"/>
		<g id="XMLID_542_">
			<path id="XMLID_562_" class="st19" d="M1301,1768.3c-11.1-33.8-48.7-54.5-82-47.4c-13.5,2.9-28,10.7-36.8,21.7
				c-9.9,12.3-11.2,28.3-20.5,40.6c-1.5,1.9-5.3,3.1-6.7,0.4c-8.8-17.6,4.6-40.6,16.7-53.3c12.6-13.3,31.5-22.3,49.3-24.5
				c18.2-2.3,38.3,1.8,53.9,11.9c18.8,12.2,24.2,28.2,27.6,50C1302.7,1769,1301.5,1769.8,1301,1768.3L1301,1768.3z"/>
		</g>
		
			<ellipse id="XMLID_541_" transform="matrix(0.9999 -1.340014e-02 1.340014e-02 0.9999 -23.7398 16.7127)" class="st20" cx="1235.3" cy="1779.9" rx="52.4" ry="54.2"/>
		<path id="XMLID_540_" class="st18" d="M1260.4,1750.2c-0.1-9.6-7.6-17.3-16.9-17.2s-16.7,7.9-16.7,17.4
			c0.1,9.6,7.6,17.3,16.9,17.2S1260.5,1759.7,1260.4,1750.2z"/>
	</g>
</g>
<g id="eyes_x5F_left" class="st8">
	<g id="XMLID_605_" class="st9">
		<path id="XMLID_610_" class="st18" d="M1511,1712.4c-23.3-0.2-57.6,14-67.7,48.5c-12.3,41.9,12.4,82.9,66.8,81.3
			c58.4-1.8,79.4-37.5,73.3-70.9C1576.9,1735.6,1551.7,1712.8,1511,1712.4z"/>
		<g id="XMLID_608_">
			<path id="XMLID_609_" class="st19" d="M1442.3,1768.3c11.1-33.8,48.7-54.5,82-47.4c13.5,2.9,28,10.7,36.8,21.7
				c9.9,12.3,11.2,28.3,20.5,40.6c1.5,1.9,5.4,3.1,6.7,0.4c8.8-17.6-4.6-40.6-16.7-53.3c-12.6-13.3-31.5-22.3-49.3-24.5
				c-18.1-2.3-38.3,1.8-53.9,11.9c-18.8,12.2-24.2,28.2-27.6,50C1440.6,1769,1441.8,1769.8,1442.3,1768.3L1442.3,1768.3z"/>
		</g>
		
			<ellipse id="XMLID_607_" transform="matrix(1.340014e-02 -0.9999 0.9999 1.340014e-02 -295.5614 3260.0137)" class="st20" cx="1504.2" cy="1779.8" rx="54.2" ry="52.4"/>
		<path id="XMLID_606_" class="st18" d="M1457.5,1774.7c0.1-9.6,7.6-17.3,16.9-17.2s16.7,7.9,16.6,17.4s-7.6,17.3-16.9,17.2
			C1464.9,1792,1457.4,1784.2,1457.5,1774.7z"/>
	</g>
	<g id="XMLID_599_" class="st9">
		<path id="XMLID_604_" class="st18" d="M1232.3,1712.4c23.3-0.2,57.6,14,67.7,48.5c12.3,41.9-12.4,82.9-66.8,81.3
			c-58.4-1.8-79.4-37.5-73.3-70.9C1166.3,1735.6,1191.6,1712.8,1232.3,1712.4z"/>
		<g id="XMLID_602_">
			<path id="XMLID_603_" class="st19" d="M1301,1768.3c-11.1-33.8-48.7-54.5-82-47.4c-13.5,2.9-28,10.7-36.8,21.7
				c-9.9,12.3-11.2,28.3-20.5,40.6c-1.5,1.9-5.3,3.1-6.7,0.4c-8.8-17.6,4.6-40.6,16.7-53.3c12.6-13.3,31.5-22.3,49.3-24.5
				c18.2-2.3,38.3,1.8,53.9,11.9c18.8,12.2,24.2,28.2,27.6,50C1302.7,1769,1301.5,1769.8,1301,1768.3L1301,1768.3z"/>
		</g>
		
			<ellipse id="XMLID_601_" transform="matrix(0.9999 -1.340014e-02 1.340014e-02 0.9999 -23.7406 16.5995)" class="st20" cx="1226.8" cy="1779.9" rx="52.4" ry="54.2"/>
		<path id="XMLID_600_" class="st18" d="M1218.1,1774.7c-0.1-9.6-7.6-17.3-16.9-17.2s-16.7,7.9-16.7,17.4
			c0.1,9.6,7.6,17.3,16.9,17.2S1218.2,1784.2,1218.1,1774.7z"/>
	</g>
</g>
<g id="eyes_x5F_right" class="st8">
	<g id="XMLID_643_" class="st9">
		<path id="XMLID_648_" class="st18" d="M1232.3,1712.4c23.3-0.2,57.6,14,67.7,48.5c12.3,41.9-12.4,82.9-66.8,81.3
			c-58.4-1.8-79.4-37.5-73.3-70.9C1166.3,1735.6,1191.6,1712.8,1232.3,1712.4z"/>
		<g id="XMLID_646_">
			<path id="XMLID_647_" class="st19" d="M1301,1768.3c-11.1-33.8-48.7-54.5-82-47.4c-13.5,2.9-28,10.7-36.8,21.7
				c-9.9,12.3-11.2,28.3-20.5,40.6c-1.5,1.9-5.3,3.1-6.7,0.4c-8.8-17.6,4.6-40.6,16.7-53.3c12.6-13.3,31.5-22.3,49.3-24.5
				c18.2-2.3,38.3,1.8,53.9,11.9c18.8,12.2,24.2,28.2,27.6,50C1302.7,1769,1301.5,1769.8,1301,1768.3L1301,1768.3z"/>
		</g>
		
			<ellipse id="XMLID_645_" transform="matrix(0.9999 -1.340895e-02 1.340895e-02 0.9999 -23.755 16.7722)" class="st20" cx="1238.9" cy="1779.9" rx="52.4" ry="54.2"/>
		<path id="XMLID_644_" class="st18" d="M1285.8,1774.7c-0.1-9.6-7.6-17.3-16.9-17.2s-16.7,7.9-16.7,17.4
			c0.1,9.6,7.6,17.3,16.9,17.2S1285.9,1784.2,1285.8,1774.7z"/>
	</g>
	<g id="XMLID_637_" class="st9">
		<path id="XMLID_642_" class="st18" d="M1511,1712.4c-23.3-0.2-57.6,14-67.7,48.5c-12.3,41.9,12.4,82.9,66.8,81.3
			c58.4-1.8,79.4-37.5,73.3-70.9C1576.9,1735.6,1551.7,1712.8,1511,1712.4z"/>
		<g id="XMLID_640_">
			<path id="XMLID_641_" class="st19" d="M1442.3,1768.3c11.1-33.8,48.7-54.5,82-47.4c13.5,2.9,28,10.7,36.8,21.7
				c9.9,12.3,11.2,28.3,20.5,40.6c1.5,1.9,5.4,3.1,6.7,0.4c8.8-17.6-4.6-40.6-16.7-53.3c-12.6-13.3-31.5-22.3-49.3-24.5
				c-18.1-2.3-38.3,1.8-53.9,11.9c-18.8,12.2-24.2,28.2-27.6,50C1440.6,1769,1441.8,1769.8,1442.3,1768.3L1442.3,1768.3z"/>
		</g>
		
			<ellipse id="XMLID_639_" transform="matrix(1.340014e-02 -0.9999 0.9999 1.340014e-02 -283.6639 3272.0857)" class="st20" cx="1516.3" cy="1779.8" rx="54.2" ry="52.4"/>
		<path id="XMLID_638_" class="st18" d="M1525.1,1774.7c0.1-9.6,7.6-17.3,16.9-17.2s16.7,7.9,16.6,17.4s-7.6,17.3-16.9,17.2
			S1525.1,1784.2,1525.1,1774.7z"/>
	</g>
</g>
<g id="eyes_x5F_down" class="st8">
	<g id="XMLID_681_" class="st9">
		<path id="XMLID_686_" class="st18" d="M1511,1712.4c-23.3-0.2-57.6,14-67.7,48.5c-12.3,41.9,12.4,82.9,66.8,81.3
			c58.4-1.8,79.4-37.5,73.3-70.9C1576.9,1735.6,1551.7,1712.8,1511,1712.4z"/>
		<g id="XMLID_684_">
			<path id="XMLID_685_" class="st19" d="M1442.3,1768.3c11.1-33.8,48.7-54.5,82-47.4c13.5,2.9,28,10.7,36.8,21.7
				c9.9,12.3,11.2,28.3,20.5,40.6c1.5,1.9,5.4,3.1,6.7,0.4c8.8-17.6-4.6-40.6-16.7-53.3c-12.6-13.3-31.5-22.3-49.3-24.5
				c-18.1-2.3-38.3,1.8-53.9,11.9c-18.8,12.2-24.2,28.2-27.6,50C1440.6,1769,1441.8,1769.8,1442.3,1768.3L1442.3,1768.3z"/>
		</g>
		
			<ellipse id="XMLID_683_" transform="matrix(0.9999 -1.340014e-02 1.340014e-02 0.9999 -23.7985 20.3655)" class="st20" cx="1507.8" cy="1786.1" rx="52.4" ry="54.2"/>
		<path id="XMLID_682_" class="st18" d="M1482.9,1811.6c0.1,9.6,7.6,17.3,16.9,17.2s16.7-7.9,16.6-17.4c-0.1-9.6-7.6-17.3-16.9-17.2
			C1490.2,1794.2,1482.8,1802,1482.9,1811.6z"/>
	</g>
	<g id="XMLID_675_" class="st9">
		<path id="XMLID_680_" class="st18" d="M1232.2,1711.7c22.7-0.2,56.2,14.2,66.1,49.1c12,42.4-12.1,83.9-65.2,82.2
			c-57-1.8-77.4-38-71.5-71.7C1167.8,1735.1,1192.4,1712.1,1232.2,1711.7z"/>
		<g id="XMLID_678_">
			<path id="XMLID_679_" class="st19" d="M1299.2,1768.3c-10.8-34.2-47.5-55.1-80-47.9c-13.2,2.9-27.3,10.8-35.9,22
				c-9.7,12.5-10.9,28.7-20,41.1c-1.4,2-5.2,3.2-6.6,0.4c-8.6-17.8,4.5-41,16.3-54c12.3-13.5,30.8-22.5,48.1-24.8
				c17.7-2.3,37.4,1.8,52.6,12c18.3,12.3,23.6,28.5,26.9,50.6C1300.9,1768.9,1299.7,1769.7,1299.2,1768.3L1299.2,1768.3z"/>
		</g>
		
			<ellipse id="XMLID_677_" transform="matrix(6.428539e-03 -1 1 6.428539e-03 -558.8028 3009.8513)" class="st20" cx="1235.2" cy="1786.1" rx="54.8" ry="51.2"/>
		<path id="XMLID_676_" class="st18" d="M1259.6,1812.1c-0.1,9.7-7.4,17.5-16.5,17.4s-16.3-7.9-16.2-17.6
			c0.1-9.7,7.4-17.5,16.5-17.4S1259.7,1802.4,1259.6,1812.1z"/>
	</g>
</g>
<path class="st7" d="M1137.1,1425.6c7.5-18.8,26.3-30,45-33.8c41.3-7.5,56.3,37.5,97.6,33.8c33.8-3.8,37.5-33.8,71.3-33.8
	s41.3,30,75.1,30c18.8,0,33.8-7.5,48.8-15l-3.8,7.5c-11.3,11.3-26.3,18.8-41.3,18.8c-37.5,3.8-56.3-37.5-86.3-26.3
	c-7.5,0-7.5,0-15,11.3c-22.5,18.8-48.8,26.3-75.1,22.5c-22.5-7.5-41.3-30-60-33.8h-3.8c-11.3,0-22.5,7.5-33.8,15
	c-7.5,7.5-15,15-15,15L1137.1,1425.6z"/>
</svg>
