<svg xmlns="http://www.w3.org/2000/svg" viewBox="0 0 2500 3000"><defs><style>.cls-1{fill:#ba2525;}.cls-2{fill:#ff5a6e;}.cls-3{fill:#e22b2b;}.cls-4{fill:#f2c2aa;}.cls-5{fill:#572a17;}.cls-6{fill:#3f1d12;}.cls-7{fill:#ffd5be;}.cls-10,.cls-8,.cls-9{fill:none;stroke:#79c6f2;stroke-linecap:round;stroke-miterlimit:10;}.cls-8{stroke-width:6.16px;}.cls-9{stroke-width:6.69px;}.cls-10{stroke-width:6.42px;}.cls-11{fill:#9e5147;}.cls-12{fill:#8e3257;}.cls-13{fill:#ee7ba5;}.cls-14{fill:#fca39a;}.cls-15{fill:#fff;}.cls-16{fill:#002030;}.cls-17{fill:#19313a;}.cls-18{fill:#79c6f2;}</style></defs><g id="arm_left" data-name="arm left"><path class="cls-1" d="M936,1848.14l77.48-3.91C984,1788.69,978.37,1681.74,971,1582c11.32-243.84,132.11-303,159.64-314.5L1082.34,1203c-31.07,16.52-76.56,46.06-114.73,96.54-65.67,86.84-68.93,181.75-72,271.72C893.46,1633.75,897.67,1732,936,1848.14Z"/></g><g id="arm_right" data-name="arm right"><path class="cls-1" d="M1646.27,1848l-77.48-3.91c29.44-55.54,35.09-162.49,42.45-262.26-11.32-243.84-132.11-303-159.64-314.5l48.31-64.45c31.07,16.52,76.56,46.06,114.73,96.54,65.67,86.84,68.93,181.75,72,271.72C1688.8,1633.61,1684.58,1731.89,1646.27,1848Z"/></g><g id="right_leg" data-name="right leg"><path class="cls-2" d="M1478.81,2637c59-15.43,114-9.53,136.34,8.13,19.1,15.14,22.72,32.53,22.72,32.53,1.6,7.66.64,14.28,0,16.26-8.85,27.43-232.07,17.62-261.31,16.26a159.92,159.92,0,0,1,0-24.39,167.74,167.74,0,0,1,11.36-48.79Z"/><polygon class="cls-3" points="1377.33 2085.74 1385.13 2640.82 1463.09 2640.82 1463.09 2085.74 1377.33 2085.74"/></g><g id="left_leg" data-name="left leg"><path class="cls-2" d="M1118.77,2636.19c-57.12-15.6-110.37-9.64-131.93,8.22-18.49,15.3-22,32.87-22,32.87-1.55,7.75-.62,14.44,0,16.44,8.56,27.73,224.58,17.81,252.88,16.44a170.33,170.33,0,0,0,0-24.66,176,176,0,0,0-11-49.31Z"/><polygon class="cls-3" points="1117.75 2079.45 1125.91 2634.52 1207.57 2634.52 1207.57 2079.45 1117.75 2079.45"/></g><g id="body"><path class="cls-3" d="M1291.12,2151.6h0c153.11,0,278.37-121,278.37-268.91V1376.38c0-147.9-125.26-268.91-278.37-268.91h0c-153.1,0-278.37,121-278.37,268.91v506.31C1012.75,2030.59,1138,2151.6,1291.12,2151.6Z"/><path class="cls-1" d="M1447.23,2151.6H1131.8c-66.36,0-120.66-52.46-120.66-116.56V1932c0-64.11,54.3-116.56,120.66-116.56h315.43c66.36,0,120.65,52.45,120.65,116.56v103C1567.88,2099.14,1513.59,2151.6,1447.23,2151.6Z"/><rect class="cls-3" x="1011.76" y="1579.47" width="556.74" height="371.88"/></g><g id="right_hand" data-name="right hand"><path class="cls-4" d="M1587,1803c-5.33,11.47-12.06,17.28-17,20.44-16.62,10.67-33.46,4.41-76.22,8.63-8.26.81-15,1.77-19.21,2.42-2.09,1.7-10.29,8.73-10.74,18.17-.51,10.8,8.85,19.79,17.24,21.35,18.61,3.46,34.48-5.81,41.16,1.32,2.15,2.3,3.2,6.6.22,15.09-5.52,4-14.08,10.08-25,17-10.57,6.73-12.2,7.22-17.19,11-8.6,6.6-21.32,16.45-22.25,29.39-.09,1.28-.67,11.49,6.38,16.12,13,8.54,39.78-8.61,43.25-10.84,4.48-2.87,9.23-7,18.73-15.1,8.6-7.37,15.43-13.69,20-18a6.83,6.83,0,0,1,5,1,5.53,5.53,0,0,1,1.74,3.42c.84,6-13,31.81-16.15,39s-14,32.14-2.75,44.44c4.73,5.2,13.41,7.92,21.51,6.29,9-1.82,14.62-8.46,17.77-12.28,2.75-3.33,8.84-11.61,12.34-37,2.89-21,1.38-34.43,7.4-36.66a5.94,5.94,0,0,1,4,.14c6.34,2.08,5.23,12.05,7.71,25,2.11,11,4.63,23.76,14.88,29.05.86.45,8.36,4.17,16.53,1.22,10.4-3.75,14.13-15.35,14.73-17.22.8-2.52,1.85-7-3.46-28.9-1.41-5.82-1.94-7.4-5.2-19.56-3.8-14.2-5.7-21.29-5.91-23.3-1.68-16.54,8.93-25.63,9.49-35.61C1646.83,1844.63,1636.57,1825.09,1587,1803Z"/></g><g id="left_hand" data-name="left hand"><path class="cls-4" d="M993.77,1803c5.33,11.47,12.06,17.28,17,20.44,16.61,10.67,33.46,4.41,76.22,8.63,8.26.81,15,1.77,19.21,2.42,2.08,1.7,10.29,8.73,10.73,18.17.51,10.8-8.84,19.79-17.24,21.35-18.61,3.46-34.48-5.81-41.16,1.32-2.15,2.3-3.2,6.6-.21,15.09,5.52,4,14.08,10.08,25,17,10.57,6.73,12.2,7.22,17.19,11,8.61,6.6,21.33,16.45,22.26,29.39.09,1.28.67,11.49-6.38,16.12-13,8.54-39.78-8.61-43.25-10.84-4.48-2.87-9.23-7-18.74-15.1-8.59-7.37-15.43-13.69-20-18a6.81,6.81,0,0,0-5,1,5.51,5.51,0,0,0-1.75,3.42c-.83,6,13,31.81,16.15,39s14,32.14,2.76,44.44c-4.74,5.2-13.41,7.92-21.51,6.29-9-1.82-14.62-8.46-17.78-12.28-2.74-3.33-8.83-11.61-12.33-37-2.89-21-1.38-34.43-7.41-36.66a5.91,5.91,0,0,0-4,.14c-6.34,2.08-5.23,12.05-7.72,25-2.1,11-4.62,23.76-14.87,29.05-.87.45-8.37,4.17-16.54,1.22-10.4-3.75-14.12-15.35-14.72-17.22-.8-2.52-1.85-7,3.45-28.9,1.42-5.82,2-7.4,5.21-19.56,3.8-14.2,5.7-21.29,5.9-23.3,1.69-16.54-8.93-25.63-9.49-35.61C933.94,1844.63,944.21,1825.09,993.77,1803Z"/></g><g id="head"><path class="cls-5" d="M1024.46,351.91c50.24,52.69,70.4,121.53,61.47,187.19-91.74-78.29-232.23-78.92-324.86,2.28-44,38.53-69.69,89-76.83,141.52a241.25,241.25,0,0,1-18-17c-90.43-94.83-83.56-242,15.35-328.71S934,257.07,1024.46,351.91Z"/><path class="cls-5" d="M1547.53,351.91c-50.25,52.69-70.41,121.53-61.48,187.19,91.75-78.29,232.24-78.92,324.87,2.28,43.95,38.53,69.68,89,76.82,141.52a237.4,237.4,0,0,0,18-17c90.44-94.83,83.57-242-15.34-328.71S1638,257.07,1547.53,351.91Z"/><ellipse class="cls-6" cx="1285.99" cy="716.35" rx="338.84" ry="330.63"/><ellipse class="cls-7" cx="1285.99" cy="772.25" rx="321.39" ry="355.28"/><path class="cls-8" d="M944.13,831.44c0,98.53,71.45,89.13,159.73,89.13"/><path class="cls-8" d="M1615,831.44c0,98.53-71.44,89.13-159.73,89.13"/><ellipse class="cls-7" cx="964.6" cy="772.25" rx="62.67" ry="86.84"/><ellipse class="cls-7" cx="1607.38" cy="772.25" rx="62.67" ry="86.84"/><path class="cls-9" d="M1006.26,924.76c33.62-92.55,23.81-213.92-20.54-272.69"/><path class="cls-10" d="M1569.14,924.76c-34-93.67-29-215,9.86-272.69"/><path class="cls-5" d="M1285.89,396.25c-183.69,0-333.75,136.42-343.83,308.27q66.29,5.7,134.56,9.18l77.74-131.65s-33.16,94.3-44.08,133.27l7.83.31c22.17-38.79,69.57-133.58,69.57-133.58l-26.07,135.12c1.86.06,3.74.1,5.6.15l57.63-135.27-8.1,136.4c22.94.38,46,.63,69.15.63,118.06,0,233.08-5.05,343.82-14.56C1619.63,532.67,1469.57,396.25,1285.89,396.25Z"/><path class="cls-11" d="M1593.47,799.69c-.53,1.46.33,4.15,1.64,2.83,5.61-5.67,10.14-13.14,15.9-18.39,6.23-5.68,12.54-8.27,18.56-8.63,2,5.09,3.89,8.93,1.94,17.81-1.69,7.69-5.22,16.55-9.74,22.93-3.55,5-8.08,7.21-12.07,11-.31.29-.77,1.57-.34,1.63,15.82,2.3,32.15-33.46,30-51.71,8.55,3.71,14.62,13.39,11.69,29.35-.14.75.43.47.67-.11C1673.06,753.73,1611.62,749.86,1593.47,799.69Z"/><path class="cls-11" d="M978.05,786.69c.54,1.46-.32,4.15-1.63,2.83-5.62-5.67-10.14-13.14-15.9-18.39-6.23-5.68-12.54-8.27-18.56-8.63-2,5.09-3.89,8.93-2,17.81,1.69,7.69,5.23,16.55,9.75,22.93,3.55,5,8.08,7.21,12.07,11,.3.29.77,1.57.34,1.63-15.82,2.3-32.15-33.46-30-51.71-8.56,3.71-14.63,13.39-11.69,29.35.14.75-.44.47-.67-.11C898.47,740.73,959.91,736.86,978.05,786.69Z"/></g><g id="hair_clip" data-name="hair clip"><ellipse class="cls-2" cx="1476.05" cy="439.62" rx="59.88" ry="57.41"/><ellipse class="cls-2" cx="1560.73" cy="520.81" rx="59.88" ry="57.41"/><ellipse class="cls-2" cx="1095.94" cy="439.62" rx="59.88" ry="57.41"/><ellipse class="cls-2" cx="1011.26" cy="520.81" rx="59.88" ry="57.41"/></g><g id=":D"><path class="cls-12" d="M1365.5,1010.53s-11.16,63-75.21,63.53c-73.84.59-78-65.28-78-65.28s12.91-.58,72.44.46C1325.34,1009.94,1365.5,1010.53,1365.5,1010.53Z"/><path class="cls-13" d="M1294.08,1073.12c-16.56,1.19-29.33-.19-39.31-2.91,10-8.44,25.28-14.65,42.76-16.32,15.83-1.51,30.43,1,41.25,6.24C1328.41,1066.46,1314.06,1071.7,1294.08,1073.12Z"/></g><g id="Layer_2" data-name="Layer 2"><path class="cls-14" d="M1063.4,958.84c0-27.82,24.15-50.37,53.94-50.37s53.94,22.55,53.94,50.37-24.15,50.38-53.94,50.38S1063.4,986.66,1063.4,958.84Z"/><path class="cls-14" d="M1410.15,952.46c0-27.82,24.15-50.38,53.95-50.38S1518,924.64,1518,952.46s-24.15,50.38-53.94,50.38S1410.15,980.28,1410.15,952.46Z"/><path class="cls-11" d="M1319.7,912.79c-13.27,9.76-22.87,19.42-41.17,19.78-16.85.32-26-8.14-35.38-19.9-1.62-2-5.7-2-5.23,1.17,5.26,36,73.32,31.55,82.57,0,.12-.41-.16-1.5-.79-1Z"/></g><g id="eyes_straight"><path class="cls-15" d="M1421.31,744.7c-23.25-.22-57.58,14-67.7,48.5-12.31,41.94,12.36,82.91,66.83,81.25,58.45-1.77,79.36-37.53,73.33-70.88C1487.3,767.84,1462.08,745.08,1421.31,744.7Z"/><path class="cls-16" d="M1352.62,800.6c11.09-33.82,48.67-54.52,82-47.37,13.48,2.9,28,10.67,36.83,21.72,9.91,12.35,11.22,28.33,20.52,40.64,1.47,1.95,5.34,3.14,6.72.4,8.84-17.56-4.61-40.58-16.69-53.35-12.59-13.31-31.51-22.28-49.3-24.52-18.16-2.29-38.34,1.77-53.92,11.9-18.75,12.19-24.2,28.21-27.61,50-.19,1.23,1,2,1.49.58Z"/><ellipse class="cls-17" cx="1409.82" cy="820.25" rx="54.2" ry="52.44" transform="translate(570.7 2218.92) rotate(-89.23)"/><path class="cls-15" d="M1367.83,823.23c.07-9.57,7.62-17.28,16.88-17.23s16.71,7.86,16.64,17.43-7.62,17.28-16.87,17.22S1367.77,832.79,1367.83,823.23Z"/><path class="cls-15" d="M1142.69,744.7c23.25-.22,57.58,14,67.7,48.5,12.31,41.94-12.36,82.91-66.83,81.25-58.45-1.77-79.36-37.53-73.33-70.88C1076.7,767.84,1101.92,745.08,1142.69,744.7Z"/><path class="cls-16" d="M1211.38,800.6c-11.09-33.82-48.67-54.52-82-47.37-13.48,2.9-28,10.67-36.83,21.72-9.91,12.35-11.22,28.33-20.52,40.64-1.47,1.95-5.34,3.14-6.72.4-8.84-17.56,4.61-40.58,16.69-53.35,12.59-13.31,31.51-22.28,49.3-24.52,18.16-2.29,38.34,1.77,53.92,11.9,18.75,12.19,24.2,28.21,27.61,50,.19,1.23-1,2-1.49.58Z"/><ellipse class="cls-17" cx="1154.18" cy="820.25" rx="52.44" ry="54.2" transform="translate(-10.92 15.58) rotate(-0.77)"/><path class="cls-15" d="M1196.17,823.23c-.07-9.57-7.62-17.28-16.88-17.23s-16.71,7.86-16.64,17.43,7.62,17.28,16.87,17.22S1196.23,832.79,1196.17,823.23Z"/><path class="cls-18" d="M996,925l67.09-11.94,230.8-37.37L1579,917s-81,211.39-272.17,218.73S1005.18,1001.32,996,925Z"/></g></svg>