<?xml version="1.0" encoding="utf-8"?>
<!-- Generator: Adobe Illustrator 24.2.1, SVG Export Plug-In . SVG Version: 6.00 Build 0)  -->
<svg version="1.1" id="Ebene_1" xmlns="http://www.w3.org/2000/svg" xmlns:xlink="http://www.w3.org/1999/xlink" x="0px" y="0px"
	 viewBox="0 0 1422.3 2503.3" style="enable-background:new 0 0 1422.3 2503.3;" xml:space="preserve">
<style type="text/css">
	.st0{fill:#BA2525;}
	.st1{fill:#FF5A6E;}
	.st2{fill:#E22B2B;}
	.st3{fill:#F2C2AA;}
	.st4{fill:#572A17;}
	.st5{fill:#3F1D12;}
	.st6{fill:#FFD5BE;}
	.st7{fill:none;stroke:#79C6F2;stroke-width:6.16;stroke-linecap:round;stroke-miterlimit:10;}
	.st8{fill:none;stroke:#79C6F2;stroke-width:6.69;stroke-linecap:round;stroke-miterlimit:10;}
	.st9{fill:none;stroke:#79C6F2;stroke-width:6.42;stroke-linecap:round;stroke-miterlimit:10;}
	.st10{fill:#9E5147;}
	.st11{fill:#8E3257;}
	.st12{fill:#EE7BA5;}
	.st13{fill:#FCA39A;}
	.st14{fill:#FFFFFF;}
	.st15{fill:#002030;}
	.st16{fill:#19313A;}
	.st17{fill:#79C6F2;}
</style>
<g id="arm_left">
	<path class="st0" d="M371.4,1605.2l77.5-3.9c-29.5-55.5-35.1-162.5-42.5-262.2c11.3-243.8,132.1-303,159.6-314.5l-48.3-64.5
		c-31.1,16.5-76.6,46.1-114.7,96.5c-65.7,86.8-68.9,181.8-72,271.7C328.9,1390.8,333.1,1489.1,371.4,1605.2z"/>
</g>
<g id="arm_right">
	<path class="st0" d="M1081.7,1605.1l-77.5-3.9c29.4-55.5,35.1-162.5,42.4-262.3c-11.3-243.8-132.1-303-159.6-314.5l48.3-64.4
		c31.1,16.5,76.6,46.1,114.7,96.5c65.7,86.8,68.9,181.8,72,271.7C1124.2,1390.7,1120,1489,1081.7,1605.1z"/>
</g>
<g id="right_leg">
	<path class="st1" d="M870.9,2394.1c59-15.4,114-9.5,136.3,8.1c19.1,15.1,22.7,32.5,22.7,32.5c1.6,7.7,0.6,14.3,0,16.3
		c-8.9,27.4-232.1,17.6-261.3,16.3c-0.6-8.1-0.6-16.3,0-24.4c1.3-16.7,5.2-33.2,11.4-48.8H870.9z"/>
	<polygon class="st2" points="769.4,1842.8 777.2,2397.9 855.2,2397.9 855.2,1842.8 	"/>
</g>
<g id="left_leg">
	<path class="st1" d="M662.5,2393.3c57.1-15.6,110.4-9.6,131.9,8.2c18.5,15.3,22,32.9,22,32.9c1.5,7.8,0.6,14.4,0,16.4
		c-8.6,27.7-224.6,17.8-252.9,16.4c-0.6-8.2-0.6-16.5,0-24.7c1.3-16.9,5-33.5,11-49.3H662.5z"/>
	<polygon class="st2" points="663.5,1836.5 655.4,2391.6 573.7,2391.6 573.7,1836.5 	"/>
</g>
<g id="body">
	<path class="st2" d="M726.5,1908.7L726.5,1908.7c153.1,0,278.4-121,278.4-268.9v-506.3c0-147.9-125.3-268.9-278.4-268.9l0,0
		c-153.1,0-278.4,121-278.4,268.9v506.3C448.2,1787.7,573.4,1908.7,726.5,1908.7z"/>
	<path class="st0" d="M882.7,1908.7H567.2c-66.4,0-120.7-52.5-120.7-116.6v-103c0-64.1,54.3-116.6,120.7-116.6h315.4
		c66.4,0,120.7,52.4,120.7,116.6v103C1003.3,1856.2,949,1908.7,882.7,1908.7z"/>
	<rect x="447.2" y="1336.5" class="st2" width="556.7" height="371.9"/>
</g>
<g id="right_hand">
	<path class="st3" d="M1022.4,1560.1c-5.3,11.5-12.1,17.3-17,20.4c-16.6,10.7-33.5,4.4-76.2,8.6c-8.3,0.8-15,1.8-19.2,2.4
		c-2.1,1.7-10.3,8.7-10.7,18.2c-0.5,10.8,8.8,19.8,17.2,21.3c18.6,3.5,34.5-5.8,41.2,1.3c2.2,2.3,3.2,6.6,0.2,15.1
		c-5.5,4-14.1,10.1-25,17c-10.6,6.7-12.2,7.2-17.2,11c-8.6,6.6-21.3,16.4-22.2,29.4c-0.1,1.3-0.7,11.5,6.4,16.1
		c13,8.5,39.8-8.6,43.2-10.8c4.5-2.9,9.2-7,18.7-15.1c8.6-7.4,15.4-13.7,20-18c1.7-0.3,3.5,0,5,1c1,0.9,1.6,2.1,1.7,3.4
		c0.8,6-13,31.8-16.2,39s-14,32.1-2.8,44.4c4.7,5.2,13.4,7.9,21.5,6.3c9-1.8,14.6-8.5,17.8-12.3c2.8-3.3,8.8-11.6,12.3-37
		c2.9-21,1.4-34.4,7.4-36.7c1.3-0.4,2.7-0.4,4,0.1c6.3,2.1,5.2,12.1,7.7,25c2.1,11,4.6,23.8,14.9,29.1c0.9,0.4,8.4,4.2,16.5,1.2
		c10.4-3.8,14.1-15.3,14.7-17.2c0.8-2.5,1.8-7-3.5-28.9c-1.4-5.8-1.9-7.4-5.2-19.6c-3.8-14.2-5.7-21.3-5.9-23.3
		c-1.7-16.5,8.9-25.6,9.5-35.6C1082.3,1601.7,1072,1582.2,1022.4,1560.1z"/>
</g>
<g id="left_hand">
	<path class="st3" d="M429.2,1560.1c5.3,11.5,12.1,17.3,17,20.4c16.6,10.7,33.5,4.4,76.2,8.6c8.3,0.8,15,1.8,19.2,2.4
		c2.1,1.7,10.3,8.7,10.7,18.2c0.5,10.8-8.8,19.8-17.2,21.3c-18.6,3.5-34.5-5.8-41.2,1.3c-2.2,2.3-3.2,6.6-0.2,15.1
		c5.5,4,14.1,10.1,25,17c10.6,6.7,12.2,7.2,17.2,11c8.6,6.6,21.3,16.4,22.3,29.4c0.1,1.3,0.7,11.5-6.4,16.1
		c-13,8.5-39.8-8.6-43.2-10.8c-4.5-2.9-9.2-7-18.7-15.1c-8.6-7.4-15.4-13.7-20-18c-1.7-0.3-3.5,0-5,1c-1,0.9-1.6,2.1-1.8,3.4
		c-0.8,6,13,31.8,16.2,39s14,32.1,2.8,44.4c-4.7,5.2-13.4,7.9-21.5,6.3c-9-1.8-14.6-8.5-17.8-12.3c-2.7-3.3-8.8-11.6-12.3-37
		c-2.9-21-1.4-34.4-7.4-36.7c-1.3-0.4-2.7-0.4-4,0.1c-6.3,2.1-5.2,12.1-7.7,25c-2.1,11-4.6,23.8-14.9,29.1
		c-0.9,0.4-8.4,4.2-16.5,1.2c-10.4-3.8-14.1-15.3-14.7-17.2c-0.8-2.5-1.8-7,3.5-28.9c1.4-5.8,2-7.4,5.2-19.6
		c3.8-14.2,5.7-21.3,5.9-23.3c1.7-16.5-8.9-25.6-9.5-35.6C369.4,1601.7,379.6,1582.2,429.2,1560.1z"/>
</g>
<g id="head">
	<path class="st4" d="M459.9,109c50.2,52.7,70.4,121.5,61.5,187.2c-91.7-78.3-232.2-78.9-324.9,2.3c-44,38.5-69.7,89-76.8,141.5
		c-6.3-5.4-12.3-11-18-17C11.2,328.1,18.1,181,117,94.3S369.4,14.1,459.9,109z"/>
	<path class="st4" d="M983,109c-50.2,52.7-70.4,121.5-61.5,187.2c91.8-78.3,232.2-78.9,324.9,2.3c43.9,38.5,69.7,89,76.8,141.5
		c6.3-5.3,12.3-11,18-17c90.4-94.8,83.6-242-15.3-328.7S1073.4,14.1,983,109z"/>
	<ellipse class="st5" cx="721.4" cy="473.4" rx="338.8" ry="330.6"/>
	<ellipse class="st6" cx="721.4" cy="529.3" rx="321.4" ry="355.3"/>
	<path class="st7" d="M379.6,588.5c0,98.5,71.5,89.1,159.7,89.1"/>
	<path class="st7" d="M1050.4,588.5c0,98.5-71.4,89.1-159.7,89.1"/>
	<ellipse class="st6" cx="400" cy="529.3" rx="62.7" ry="86.8"/>
	<ellipse class="st6" cx="1042.8" cy="529.3" rx="62.7" ry="86.8"/>
	<path class="st8" d="M441.7,681.8c33.6-92.5,23.8-213.9-20.5-272.7"/>
	<path class="st9" d="M1004.6,681.8c-34-93.7-29-215,9.9-272.7"/>
	<path class="st4" d="M721.3,153.3c-183.7,0-333.8,136.4-343.8,308.3c44.2,3.8,89,6.9,134.6,9.2l77.7-131.6
		c0,0-33.2,94.3-44.1,133.3l7.8,0.3c22.2-38.8,69.6-133.6,69.6-133.6L597,474.2c1.9,0.1,3.7,0.1,5.6,0.2l57.6-135.3l-8.1,136.4
		c22.9,0.4,46,0.6,69.2,0.6c118.1,0,233.1-5,343.8-14.6C1055.1,289.7,905,153.3,721.3,153.3z"/>
	<path class="st10" d="M1028.9,556.8c-0.5,1.5,0.3,4.2,1.6,2.8c5.6-5.7,10.1-13.1,15.9-18.4c6.2-5.7,12.5-8.3,18.6-8.6
		c2,5.1,3.9,8.9,1.9,17.8c-1.7,7.7-5.2,16.5-9.7,22.9c-3.6,5-8.1,7.2-12.1,11c-0.3,0.3-0.8,1.6-0.3,1.6c15.8,2.3,32.2-33.5,30-51.7
		c8.6,3.7,14.6,13.4,11.7,29.3c-0.1,0.8,0.4,0.5,0.7-0.1C1108.5,510.8,1047,506.9,1028.9,556.8z"/>
	<path class="st10" d="M413.5,543.8c0.5,1.5-0.3,4.2-1.6,2.8c-5.6-5.7-10.1-13.1-15.9-18.4c-6.2-5.7-12.5-8.3-18.6-8.6
		c-2,5.1-3.9,8.9-2,17.8c1.7,7.7,5.2,16.5,9.8,22.9c3.5,5,8.1,7.2,12.1,11c0.3,0.3,0.8,1.6,0.3,1.6c-15.8,2.3-32.2-33.5-30-51.7
		c-8.6,3.7-14.6,13.4-11.7,29.3c0.1,0.8-0.4,0.5-0.7-0.1C333.9,497.8,395.3,493.9,413.5,543.8z"/>
</g>
<g id="hair_clip">
	<ellipse class="st1" cx="911.5" cy="196.7" rx="59.9" ry="57.4"/>
	<ellipse class="st1" cx="996.2" cy="277.9" rx="59.9" ry="57.4"/>
	<ellipse class="st1" cx="531.4" cy="196.7" rx="59.9" ry="57.4"/>
	<ellipse class="st1" cx="446.7" cy="277.9" rx="59.9" ry="57.4"/>
</g>
<g id=":D">
	<path class="st11" d="M800.9,767.6c0,0-11.2,63-75.2,63.5c-73.8,0.6-78-65.3-78-65.3s12.9-0.6,72.4,0.5
		C760.8,767,800.9,767.6,800.9,767.6z"/>
	<path class="st12" d="M729.5,830.2c-16.6,1.2-29.3-0.2-39.3-2.9c10-8.4,25.3-14.7,42.8-16.3c15.8-1.5,30.4,1,41.2,6.2
		C763.8,823.5,749.5,828.8,729.5,830.2z"/>
</g>
<g id="Layer_2">
	<path class="st13" d="M498.8,715.9c0-27.8,24.2-50.4,53.9-50.4s53.9,22.5,53.9,50.4s-24.2,50.4-53.9,50.4S498.8,743.7,498.8,715.9z
		"/>
	<path class="st13" d="M845.6,709.5c0-27.8,24.2-50.4,53.9-50.4s53.9,22.6,53.9,50.4s-24.2,50.4-53.9,50.4S845.6,737.4,845.6,709.5z
		"/>
	<path class="st10" d="M755.1,669.9c-13.3,9.8-22.9,19.4-41.2,19.8c-16.8,0.3-26-8.1-35.4-19.9c-1.6-2-5.7-2-5.2,1.2
		c5.3,36,73.3,31.5,82.6,0C756,670.5,755.8,669.4,755.1,669.9L755.1,669.9z"/>
</g>
<g id="eyes_straight">
	<path class="st14" d="M856.7,501.8c-23.2-0.2-57.6,14-67.7,48.5c-12.3,41.9,12.4,82.9,66.8,81.2c58.4-1.8,79.4-37.5,73.3-70.9
		C922.7,524.9,897.5,502.2,856.7,501.8z"/>
	<path class="st15" d="M788,557.7c11.1-33.8,48.7-54.5,82-47.4c13.5,2.9,28,10.7,36.8,21.7c9.9,12.3,11.2,28.3,20.5,40.6
		c1.5,2,5.3,3.1,6.7,0.4c8.8-17.6-4.6-40.6-16.7-53.3c-12.6-13.3-31.5-22.3-49.3-24.5c-18.2-2.3-38.3,1.8-53.9,11.9
		c-18.8,12.2-24.2,28.2-27.6,50C786.4,558.3,787.6,559.1,788,557.7L788,557.7z"/>
	
		<ellipse transform="matrix(1.343857e-02 -0.9999 0.9999 1.343857e-02 256.6131 1414.7432)" class="st16" cx="845.2" cy="577.3" rx="54.2" ry="52.4"/>
	<path class="st14" d="M803.3,580.3c0.1-9.6,7.6-17.3,16.9-17.2s16.7,7.9,16.6,17.4s-7.6,17.3-16.9,17.2S803.2,589.9,803.3,580.3z"
		/>
	<path class="st14" d="M578.1,501.8c23.2-0.2,57.6,14,67.7,48.5c12.3,41.9-12.4,82.9-66.8,81.2c-58.4-1.8-79.4-37.5-73.3-70.9
		C512.1,524.9,537.3,502.2,578.1,501.8z"/>
	<path class="st15" d="M646.8,557.7c-11.1-33.8-48.7-54.5-82-47.4c-13.5,2.9-28,10.7-36.8,21.7c-9.9,12.3-11.2,28.3-20.5,40.6
		c-1.5,2-5.3,3.1-6.7,0.4c-8.8-17.6,4.6-40.6,16.7-53.3c12.6-13.3,31.5-22.3,49.3-24.5c18.2-2.3,38.3,1.8,53.9,11.9
		c18.8,12.2,24.2,28.2,27.6,50C648.4,558.3,647.3,559.1,646.8,557.7L646.8,557.7z"/>
	
		<ellipse transform="matrix(0.9999 -1.343863e-02 1.343863e-02 0.9999 -7.7052 7.9756)" class="st16" cx="589.6" cy="577.3" rx="52.4" ry="54.2"/>
	<path class="st14" d="M631.6,580.3c-0.1-9.6-7.6-17.3-16.9-17.2s-16.7,7.9-16.6,17.4s7.6,17.3,16.9,17.2S631.7,589.9,631.6,580.3z"
		/>
	<path class="st17" d="M431.4,682.1l67.1-11.9l230.8-37.4l285.1,41.3c0,0-81,211.4-272.2,218.7S440.6,758.4,431.4,682.1z"/>
</g>
</svg>
