<svg id="Ebene_1" data-name="Ebene 1" xmlns="http://www.w3.org/2000/svg" viewBox="0 0 4000 5000"><defs><style>.cls-1{fill:#ba2525;}.cls-2{fill:#ff5a6e;}.cls-3{fill:#e22b2b;}.cls-4{fill:#f2c2aa;}.cls-5{fill:#572a17;}.cls-6{fill:#3f1d12;}.cls-7{fill:#ffd5be;}.cls-8{fill:#9e5147;}.cls-9{fill:#8e3257;}.cls-10{fill:#ee7ba5;}.cls-11{fill:#fca39a;}.cls-12{fill:#fff;}.cls-13{fill:#002030;}.cls-14{fill:#19313a;}</style></defs><g id="arm_left" data-name="arm left"><path class="cls-1" d="M1411.09,3167.08l141.32-7.15c-53.69-101.3-64-296.36-77.43-478.35,20.66-444.75,241-552.66,291.17-573.63L1678,1990.39c-56.66,30.13-139.64,84-209.26,176.09-119.78,158.39-125.72,331.5-131.34,495.6C1333.52,2776.05,1341.21,2955.3,1411.09,3167.08Z"/></g><g id="arm_right" data-name="arm right"><path class="cls-1" d="M2706.62,3166.83l-141.32-7.15c53.69-101.3,64-296.36,77.43-478.35-20.66-444.75-241-552.66-291.17-573.63l88.12-117.56c56.66,30.13,139.64,84,209.26,176.09,119.78,158.39,125.72,331.5,131.34,495.6C2784.19,2775.79,2776.5,2955,2706.62,3166.83Z"/></g><g id="right_leg" data-name="right leg"><path class="cls-2" d="M2338.39,4611.39c107.67-28.15,208-17.38,248.67,14.83,34.84,27.61,41.45,59.32,41.45,59.32,2.91,14,1.16,26.05,0,29.66-16.14,50-423.29,32.14-476.62,29.66a292,292,0,0,1,0-44.49,306.24,306.24,0,0,1,20.72-89Z"/><polygon class="cls-3" points="2158.77 3600.45 2172.99 4612.89 2315.19 4612.89 2315.19 3600.45 2158.77 3600.45"/></g><g id="left_leg" data-name="left leg"><path class="cls-2" d="M1962.2,4610.11c104.2-28.45,201.31-17.57,240.65,15,33.72,27.91,40.11,60,40.11,60,2.82,14.13,1.13,26.33,0,30-15.62,50.58-409.63,32.49-461.25,30a307.79,307.79,0,0,1,0-45,321.28,321.28,0,0,1,20-89.95H1962.2Z"/><polygon class="cls-3" points="1965.89 3600.45 1951 4612.89 1802.07 4612.89 1802.07 3600.45 1965.89 3600.45"/></g><g id="body"><path class="cls-3" d="M2058.85,3720.56h0c279.26,0,507.74-220.71,507.74-490.48V2306.6c0-269.76-228.48-490.48-507.74-490.48h0c-279.26,0-507.74,220.71-507.74,490.48v923.48C1551.11,3499.85,1779.59,3720.56,2058.85,3720.56Z"/><path class="cls-1" d="M2343.57,3720.56H1768.25c-121,0-220.08-95.67-220.08-212.59V3320.09c0-116.93,99-212.59,220.08-212.59h575.32c121,0,220.08,95.67,220.08,212.59V3508C2563.65,3624.9,2464.62,3720.56,2343.57,3720.56Z"/><rect class="cls-3" x="1549.3" y="2677.04" width="1015.47" height="678.29"/></g><g id="right_hand" data-name="right hand"><path class="cls-4" d="M2591.3,3094.45c-9.72,20.93-10.63,18.81-19.59,24.57-30.3,19.46-61,8-139,15.73-15.06,1.49-27.33,3.24-35,4.43-3.8,3.1-18.77,15.92-19.58,33.13-.93,19.7,16.13,36.1,31.45,39,33.95,6.31,62.89-10.59,75.07,2.41,3.92,4.19,5.84,12,.39,27.52-10.07,7.34-25.68,18.38-45.55,31-19.28,12.28-22.25,13.18-31.36,20.17-15.69,12-38.9,30-40.59,53.6-.17,2.34-1.23,21,11.64,29.42,23.7,15.57,72.55-15.72,78.88-19.78,8.17-5.24,16.84-12.68,34.18-27.55,15.68-13.44,28.14-25,36.51-32.89,1.91-.24,6.07-.5,9,1.84a10.07,10.07,0,0,1,3.18,6.24c1.53,11-23.76,58-29.45,71.06-5.62,12.88-25.45,58.62-5,81,8.63,9.48,24.46,14.45,39.23,11.47,16.38-3.31,26.66-15.42,32.43-22.39,5-6.06,16.11-21.17,22.5-67.5,5.27-38.23,2.51-62.8,13.51-66.86a10.74,10.74,0,0,1,7.25.25c11.56,3.79,9.54,22,14.07,45.56,3.84,20,8.44,43.33,27.13,53,1.58.82,15.26,7.61,30.16,2.23,19-6.85,25.76-28,26.85-31.42,1.47-4.58,3.38-12.8-6.3-52.71-2.58-10.62-3.55-13.49-9.49-35.68-6.93-25.89-10.4-38.83-10.77-42.5-3.08-30.16,9-62.41,15-79.59C2719,3138.22,2681.7,3134.68,2591.3,3094.45Z"/></g><g id="left_hand" data-name="left hand"><path class="cls-4" d="M1527.86,3097.51c9.72,20.93,10.63,18.81,19.59,24.57,30.3,19.46,61,8,139,15.73,15.06,1.49,27.33,3.24,35,4.43,3.8,3.1,18.77,15.92,19.58,33.13.93,19.7-16.13,36.1-31.44,39-34,6.31-62.89-10.59-75.07,2.41-3.92,4.19-5.84,12-.39,27.52,10.07,7.34,25.68,18.38,45.55,31,19.28,12.28,22.25,13.18,31.36,20.17,15.69,12,38.9,30,40.59,53.6.17,2.34,1.23,21-11.64,29.42-23.7,15.57-72.55-15.72-78.88-19.78-8.17-5.24-16.84-12.68-34.18-27.55-15.68-13.44-28.14-25-36.51-32.89-1.91-.24-6.07-.5-9,1.84a10,10,0,0,0-3.18,6.24c-1.53,11,23.76,58,29.45,71.06,5.62,12.88,25.45,58.62,5,81-8.63,9.48-24.46,14.45-39.23,11.47-16.38-3.31-26.66-15.42-32.43-22.39-5-6.06-16.11-21.17-22.5-67.5-5.27-38.23-2.51-62.8-13.51-66.86a10.74,10.74,0,0,0-7.25.25c-11.56,3.79-9.54,22-14.07,45.56-3.84,20-8.44,43.33-27.13,53-1.58.82-15.26,7.61-30.16,2.23-19-6.85-25.76-28-26.85-31.42-1.47-4.58-3.38-12.8,6.3-52.71,2.58-10.62,3.55-13.49,9.49-35.68,6.93-25.89,10.4-38.83,10.77-42.5,3.08-30.16-9-62.41-15-79.59C1400.18,3141.29,1437.45,3137.75,1527.86,3097.51Z"/></g><g id="head"><path class="cls-5" d="M1572.46,438c91.65,96.11,128.42,221.68,112.13,341.43-167.34-142.8-423.59-144-592.54,4.15-80.17,70.28-127.1,162.34-140.13,258.12a440.21,440.21,0,0,1-32.78-31c-164.95-173-152.41-441.41,28-599.56S1407.52,265.05,1572.46,438Z"/><path class="cls-5" d="M2526.53,438c-91.65,96.11-128.42,221.68-112.13,341.43,167.34-142.8,423.59-144,592.54,4.15,80.17,70.28,127.1,162.34,140.13,258.12a440.21,440.21,0,0,0,32.78-31c164.94-173,152.41-441.41-28-599.56S2691.47,265.05,2526.53,438Z"/><ellipse class="cls-6" cx="2049.49" cy="1102.75" rx="618.03" ry="603.05"/><ellipse class="cls-7" cx="2049.49" cy="1204.71" rx="586.2" ry="648"/><ellipse class="cls-7" cx="1463.3" cy="1204.71" rx="114.31" ry="158.4"/><ellipse class="cls-7" cx="2635.69" cy="1204.71" rx="114.31" ry="158.4"/><path class="cls-5" d="M2049.3,518.91c-335,0-608.73,248.82-627.12,562.27q120.9,10.38,245.43,16.74L1809.4,857.79s-60.48,172-80.41,243.08c4.75.2,9.53.36,14.29.55,40.44-70.74,126.89-243.64,126.89-243.64l-47.55,246.46c3.4.1,6.81.17,10.21.27L1938,857.77l-14.78,248.78c41.84.7,83.83,1.16,126.12,1.16,215.34,0,425.13-9.22,627.12-26.55C2658,767.72,2384.33,518.91,2049.3,518.91Z"/><path class="cls-8" d="M2610.32,1254.76c-1,2.65.59,7.57,3,5.16,10.24-10.34,18.5-24,29-33.54,11.36-10.36,22.87-15.08,33.85-15.74,3.64,9.28,7.1,16.28,3.55,32.47-3.08,14-9.53,30.2-17.77,41.82-6.48,9.14-14.75,13.16-22,20-.55.52-1.4,2.85-.62,3,28.86,4.2,58.65-61,54.67-94.31,15.61,6.76,26.68,24.42,21.33,53.52-.25,1.37.79.86,1.22-.19C2755.48,1170.93,2643.41,1163.86,2610.32,1254.76Z"/><path class="cls-8" d="M1487.83,1231.05c1,2.65-.59,7.57-3,5.16-10.24-10.34-18.5-24-29-33.54-11.36-10.36-22.87-15.08-33.85-15.74-3.64,9.28-7.1,16.28-3.55,32.47,3.08,14,9.53,30.2,17.77,41.82,6.48,9.13,14.75,13.16,22,20,.55.52,1.4,2.85.62,3-28.86,4.2-58.65-61-54.67-94.31-15.6,6.76-26.68,24.42-21.33,53.53.25,1.37-.79.86-1.22-.19C1342.67,1147.21,1454.74,1140.15,1487.83,1231.05Z"/></g><g id="hair_clip" data-name="hair clip"><ellipse class="cls-2" cx="2396.15" cy="598.01" rx="109.21" ry="104.71"/><ellipse class="cls-2" cx="2550.6" cy="746.1" rx="109.21" ry="104.71"/><ellipse class="cls-2" cx="1702.84" cy="598.01" rx="109.21" ry="104.71"/><ellipse class="cls-2" cx="1548.39" cy="746.1" rx="109.21" ry="104.71"/></g><g id=":D"><path class="cls-9" d="M2194.5,1639.32s-20.34,114.93-137.18,115.87c-134.68,1.08-142.28-119.06-142.28-119.06s23.54-1.06,132.13.83C2121.27,1638.24,2194.5,1639.32,2194.5,1639.32Z"/><path class="cls-10" d="M2065.92,1755.08c-30.24,1.31-54.72-3.65-73-10.94,18.22-15.39,47.52-20.87,79.39-23.91,28.88-2.76,48.62-2.09,68.35,7.5C2137.06,1733.2,2107.87,1753.26,2065.92,1755.08Z"/></g><g id="Layer_2" data-name="Layer 2"><path class="cls-11" d="M1643.49,1545c0-50.74,44-91.89,98.39-91.89s98.39,41.14,98.39,91.89-44,91.88-98.39,91.88S1643.49,1595.79,1643.49,1545Z"/><path class="cls-11" d="M2276,1533.4c0-50.74,44.05-91.89,98.39-91.89s98.38,41.14,98.38,91.89-44.05,91.88-98.38,91.88S2276,1584.15,2276,1533.4Z"/><path class="cls-8" d="M2111,1461c-24.19,17.8-41.7,35.43-75.08,36.07-30.74.59-47.36-14.84-64.53-36.28-2.95-3.69-10.39-3.72-9.54,2.13,9.6,65.64,133.73,57.54,150.61,0,.22-.75-.3-2.73-1.46-1.88Z"/></g><g id="eyes_straight"><path class="cls-12" d="M2296.31,1154.46c-42.41-.4-105,25.58-123.48,88.46-22.46,76.5,22.54,151.21,121.9,148.2,106.61-3.23,144.75-68.46,133.74-129.29C2416.66,1196.67,2370.67,1155.16,2296.31,1154.46Z"/><path class="cls-13" d="M2171,1256.41c20.23-61.68,88.76-99.43,149.49-86.39,24.59,5.28,51,19.46,67.18,39.62,18.07,22.53,20.46,51.66,37.41,74.12,2.68,3.55,9.75,5.73,12.27.73,16.12-32-8.42-74-30.44-97.3-22.95-24.28-57.47-40.64-89.93-44.72-33.11-4.17-69.93,3.22-98.34,21.7-34.2,22.23-44.14,51.46-50.36,91.2-.35,2.23,1.87,3.62,2.72,1Z"/><ellipse class="cls-14" cx="2275.25" cy="1292.23" rx="98.86" ry="95.64" transform="translate(952.64 3549.96) rotate(-89.23)"/><path class="cls-12" d="M2198.76,1297.68c.12-17.45,13.89-31.52,30.78-31.41s30.48,14.34,30.36,31.79-13.9,31.51-30.79,31.41S2198.65,1315.13,2198.76,1297.68Z"/><path class="cls-12" d="M1788.12,1154.46c42.41-.4,105,25.58,123.48,88.46,22.46,76.5-22.54,151.21-121.9,148.2-106.61-3.23-144.75-68.46-133.74-129.29C1667.76,1196.67,1713.76,1155.16,1788.12,1154.46Z"/><path class="cls-13" d="M1913.4,1256.41c-20.23-61.68-88.76-99.43-149.49-86.39-24.59,5.28-51,19.46-67.18,39.62-18.07,22.53-20.46,51.66-37.41,74.12-2.68,3.55-9.75,5.73-12.27.73-16.12-32,8.42-74,30.44-97.3,23-24.28,57.47-40.64,89.93-44.72,33.11-4.17,69.93,3.22,98.34,21.7,34.2,22.23,44.14,51.46,50.36,91.2.35,2.23-1.87,3.62-2.72,1Z"/><ellipse class="cls-14" cx="1809.02" cy="1292.3" rx="95.64" ry="98.86" transform="translate(-17.15 24.36) rotate(-0.77)"/><path class="cls-12" d="M1885.66,1297.68c-.12-17.45-13.89-31.52-30.78-31.41s-30.48,14.34-30.36,31.79,13.9,31.51,30.79,31.41S1885.78,1315.13,1885.66,1297.68Z"/></g></svg>