<svg xmlns="http://www.w3.org/2000/svg" viewBox="0 0 341 866"><defs><style>.cls-1{fill:#ba2525;}.cls-2{fill:#f2c2aa;}</style></defs><g id="arm_left" data-name="arm left"><path class="cls-1" d="M75,671.14l77.48-3.91C123,611.69,117.37,504.74,110,405c11.32-243.84,132.11-303,159.64-314.5L221.34,26c-31.07,16.52-76.56,46.06-114.73,96.54-65.67,86.84-68.93,181.75-72,271.72C32.46,456.75,36.67,555,75,671.14Z"/></g><g id="left_hand" data-name="left hand"><path class="cls-2" d="M132.77,626c5.33,11.47,12.06,17.28,17,20.44,16.61,10.67,33.46,4.41,76.22,8.63,8.26.81,15,1.77,19.21,2.42,2.08,1.7,10.29,8.73,10.73,18.17.51,10.8-8.84,19.79-17.24,21.35-18.61,3.46-34.48-5.81-41.16,1.32-2.15,2.3-3.2,6.6-.21,15.09,5.52,4,14.08,10.08,25,17,10.57,6.73,12.2,7.22,17.19,11,8.61,6.6,21.33,16.45,22.26,29.39.09,1.28.67,11.49-6.38,16.12-13,8.54-39.78-8.61-43.25-10.84-4.48-2.87-9.23-7-18.74-15.1-8.59-7.37-15.43-13.69-20-18a6.81,6.81,0,0,0-4.95,1,5.51,5.51,0,0,0-1.75,3.42c-.83,6,13,31.81,16.15,39s14,32.14,2.76,44.44c-4.74,5.2-13.41,7.92-21.51,6.29-9-1.82-14.62-8.46-17.78-12.28-2.74-3.33-8.83-11.61-12.33-37-2.89-21-1.38-34.43-7.41-36.66a5.91,5.91,0,0,0-4,.14c-6.34,2.08-5.23,12-7.72,25-2.1,10.95-4.62,23.76-14.87,29-.87.45-8.37,4.17-16.54,1.22C73,802.87,69.28,791.27,68.68,789.4c-.8-2.52-1.85-7,3.45-28.9,1.42-5.82,2-7.4,5.21-19.56,3.8-14.2,5.7-21.29,5.9-23.3C84.93,701.1,74.31,692,73.75,682,72.94,667.63,83.21,648.09,132.77,626Z"/></g></svg>