<svg id="Ebene_1" data-name="Ebene 1" xmlns="http://www.w3.org/2000/svg" viewBox="0 0 2573.6 4518.1"><defs><style>.cls-1{fill:#ba2525;}.cls-2{fill:#ff5a6e;}.cls-3{fill:#e22b2b;}.cls-4{fill:#f2c2aa;}.cls-5{fill:#572a17;}.cls-6{fill:#3f1d12;}.cls-7{fill:#ffd5be;}.cls-8{fill:#9e5147;}.cls-9{fill:#fca39a;}.cls-10{fill:#ee7ba5;}.cls-11,.cls-12{fill:none;stroke-linecap:round;stroke-miterlimit:10;}.cls-11{stroke:#d16994;stroke-width:5px;}.cls-12{stroke:#9e5147;stroke-width:16px;}.cls-13{fill:#fff;}.cls-14{fill:#002030;}.cls-15{fill:#19313a;}</style></defs><g id="arm_left" data-name="arm left"><path class="cls-1" d="M650.2,2894.8q70.65-3.6,141.3-7.1c-53.7-101.3-64-296.4-77.4-478.4,20.7-444.8,241-552.7,291.2-573.6l-88.1-117.6c-56.7,30.1-139.6,84-209.3,176.1-119.8,158.4-125.7,331.5-131.3,495.6C572.7,2503.8,580.4,2683,650.2,2894.8Z"/></g><g id="arm_right" data-name="arm right"><path class="cls-1" d="M1945.8,2894.6q-70.65-3.6-141.3-7.1c53.7-101.3,64-296.4,77.4-478.4-20.7-444.8-241-552.7-291.2-573.6l88.1-117.6c56.7,30.1,139.6,84,209.3,176.1,119.8,158.4,125.7,331.5,131.3,495.6C2023.3,2503.5,2015.6,2682.8,1945.8,2894.6Z"/></g><g id="right_leg" data-name="right leg"><path class="cls-2" d="M1634.9,4339.1c107.7-28.1,208-17.4,248.7,14.8,34.8,27.6,41.4,59.3,41.4,59.3,2.9,14,1.2,26,0,29.7-16.1,50-423.3,32.1-476.6,29.7a300,300,0,0,1,0-44.5,306.75,306.75,0,0,1,20.7-89Z"/><polygon class="cls-3" points="1455.2 3328.2 1469.5 4340.6 1611.7 4340.6 1611.7 3328.2 1455.2 3328.2"/></g><g id="left_leg" data-name="left leg"><path class="cls-2" d="M985.5,4326.4c-104.2-28.5-201.3-17.6-240.7,15-33.7,27.9-40.1,60-40.1,60-2.8,14.1-1.1,26.3,0,30,15.6,50.6,409.6,32.5,461.3,30a306.78,306.78,0,0,0,0-45,322.57,322.57,0,0,0-20.1-90Z"/><polygon class="cls-3" points="981.8 3316.7 996.7 4329.1 1145.6 4329.1 1145.6 3316.7 981.8 3316.7"/></g><g id="body"><path class="cls-3" d="M1298,3448.3h0c279.3,0,507.7-220.7,507.7-490.5V2034.3c0-269.8-228.5-490.5-507.7-490.5h0c-279.3,0-507.7,220.7-507.7,490.5v923.5C790.3,3227.6,1018.7,3448.3,1298,3448.3Z"/><path class="cls-1" d="M1582.7,3448.3H1007.4c-121,0-220.1-95.7-220.1-212.6V3047.8c0-116.9,99-212.6,220.1-212.6h575.3c121,0,220.1,95.7,220.1,212.6v187.9C1802.8,3352.6,1703.8,3448.3,1582.7,3448.3Z"/><rect class="cls-3" x="788.4" y="2404.8" width="1015.5" height="678.3"/></g><g id="right_hand" data-name="right hand"><path class="cls-4" d="M1830.4,2822.2c-9.7,20.9-10.6,18.8-19.6,24.6-30.3,19.5-61,8-139,15.7-15.1,1.5-27.3,3.2-35,4.4-3.8,3.1-18.8,15.9-19.6,33.1-.9,19.7,16.1,36.1,31.4,38.9,33.9,6.3,62.9-10.6,75.1,2.4,3.9,4.2,5.8,12,.4,27.5-10.1,7.3-25.7,18.4-45.6,31-19.3,12.3-22.3,13.2-31.4,20.2-15.7,12-38.9,30-40.6,53.6-.2,2.3-1.2,21,11.6,29.4,23.7,15.6,72.6-15.7,78.9-19.8,8.2-5.2,16.8-12.7,34.2-27.6,15.7-13.4,28.1-25,36.5-32.9,1.9-.2,6.1-.5,9,1.8a10.27,10.27,0,0,1,3.2,6.2c1.5,11-23.8,58-29.4,71.1-5.6,12.9-25.4,58.6-5,81.1,8.6,9.5,24.5,14.4,39.2,11.5,16.4-3.3,26.7-15.4,32.4-22.4,5-6.1,16.1-21.2,22.5-67.5,5.3-38.2,2.5-62.8,13.5-66.9a10.7,10.7,0,0,1,7.3.3c11.6,3.8,9.5,22,14.1,45.6,3.8,20,8.4,43.3,27.1,53,1.6.8,15.3,7.6,30.2,2.2,19-6.9,25.8-28,26.9-31.4,1.5-4.6,3.4-12.8-6.3-52.7-2.6-10.6-3.6-13.5-9.5-35.7-6.9-25.9-10.4-38.8-10.8-42.5-3.1-30.2,9-62.4,15-79.6C1958.1,2866,1920.8,2862.4,1830.4,2822.2Z"/></g><g id="left_hand" data-name="left hand"><path class="cls-4" d="M767,2825.3c9.7,20.9,10.6,18.8,19.6,24.6,30.3,19.5,61,8,139,15.7,15.1,1.5,27.3,3.2,35,4.4,3.8,3.1,18.8,15.9,19.6,33.1.9,19.7-16.1,36.1-31.4,38.9-33.9,6.3-62.9-10.6-75.1,2.4-3.9,4.2-5.8,12-.4,27.5,10.1,7.3,25.7,18.4,45.6,31,19.3,12.3,22.3,13.2,31.4,20.2,15.7,12,38.9,30,40.6,53.6.2,2.3,1.2,21-11.6,29.4-23.7,15.6-72.6-15.7-78.9-19.8-8.2-5.2-16.8-12.7-34.2-27.6-15.7-13.4-28.1-25-36.5-32.9-1.9-.2-6.1-.5-9,1.8a10.27,10.27,0,0,0-3.2,6.2c-1.5,11,23.8,58,29.4,71.1,5.6,12.9,25.4,58.6,5,81.1-8.6,9.5-24.5,14.4-39.2,11.5-16.4-3.3-26.7-15.4-32.4-22.4-5-6.1-16.1-21.2-22.5-67.5-5.3-38.2-2.5-62.8-13.5-66.9a10.7,10.7,0,0,0-7.3.3c-11.6,3.8-9.5,22-14.1,45.6-3.8,20-8.4,43.3-27.1,53-1.6.8-15.3,7.6-30.2,2.2-19-6.9-25.8-28-26.8-31.4-1.5-4.6-3.4-12.8,6.3-52.7,2.6-10.6,3.6-13.5,9.5-35.7,6.9-25.9,10.4-38.8,10.8-42.5,3.1-30.2-9-62.4-15-79.6C639.3,2869,676.6,2865.5,767,2825.3Z"/></g><g id="head"><path class="cls-5" d="M811.6,165.8C903.3,261.9,940,387.5,923.7,507.2c-167.3-142.8-423.6-144-592.5,4.2C251,581.6,204.1,673.7,191.1,769.5c-11.3-9.7-22.3-20-32.8-31-165-173-152.4-441.4,28-599.6S646.7-7.2,811.6,165.8Z"/><path class="cls-5" d="M1765.7,165.8c-91.6,96.1-128.4,221.7-112.1,341.4,167.3-142.8,423.6-144,592.5,4.2,80.2,70.3,127.1,162.3,140.1,258.1a434.68,434.68,0,0,0,32.8-31c164.9-173,152.4-441.4-28-599.6S1930.6-7.2,1765.7,165.8Z"/><ellipse class="cls-6" cx="1288.6" cy="830.5" rx="618" ry="603.1"/><ellipse class="cls-7" cx="1288.6" cy="932.5" rx="586.2" ry="648"/><ellipse class="cls-7" cx="702.4" cy="932.5" rx="114.3" ry="158.4"/><ellipse class="cls-7" cx="1874.8" cy="932.5" rx="114.3" ry="158.4"/><path class="cls-5" d="M1288.4,246.7c-335,0-608.7,248.8-627.1,562.3q120.9,10.35,245.4,16.7l141.8-240.1s-60.5,172-80.4,243.1l14.3.6c40.4-70.7,126.9-243.6,126.9-243.6L1061.8,832l10.2.3,105.1-246.7-14.8,248.8c41.8.7,83.8,1.2,126.1,1.2,215.3,0,425.1-9.2,627.1-26.6C1897.2,495.5,1623.5,246.7,1288.4,246.7Z"/><path class="cls-8" d="M1849.5,982.5c-1,2.7.6,7.6,3,5.2,10.2-10.3,18.5-24,29-33.5,11.4-10.4,22.9-15.1,33.9-15.7,3.6,9.3,7.1,16.3,3.6,32.5-3.1,14-9.5,30.2-17.8,41.8-6.5,9.1-14.8,13.2-22,20-.6.5-1.4,2.8-.6,3,28.9,4.2,58.6-61,54.7-94.3,15.6,6.8,26.7,24.4,21.3,53.5-.3,1.4.8.9,1.2-.2C1994.6,898.7,1882.6,891.6,1849.5,982.5Z"/><path class="cls-8" d="M727,958.8c1,2.7-.6,7.6-3,5.2-10.2-10.3-18.5-24-29-33.5-11.4-10.4-22.9-15.1-33.8-15.7-3.6,9.3-7.1,16.3-3.6,32.5,3.1,14,9.5,30.2,17.8,41.8,6.5,9.1,14.8,13.2,22,20,.6.5,1.4,2.8.6,3-28.9,4.2-58.7-61-54.7-94.3-15.6,6.8-26.7,24.4-21.3,53.5.3,1.4-.8.9-1.2-.2C581.8,875,693.9,867.9,727,958.8Z"/></g><g id="hair_clip" data-name="hair clip"><ellipse class="cls-2" cx="1635.3" cy="325.8" rx="109.2" ry="104.7"/><ellipse class="cls-2" cx="1789.7" cy="473.8" rx="109.2" ry="104.7"/><ellipse class="cls-2" cx="942" cy="325.8" rx="109.2" ry="104.7"/><ellipse class="cls-2" cx="787.5" cy="473.8" rx="109.2" ry="104.7"/></g><g id="Layer_2" data-name="Layer 2"><path class="cls-9" d="M882.6,1272.8c0-50.7,44.1-91.9,98.4-91.9s98.4,41.1,98.4,91.9-44.1,91.9-98.4,91.9S882.6,1323.5,882.6,1272.8Z"/><path class="cls-9" d="M1515.1,1261.1c0-50.7,44.1-91.9,98.4-91.9s98.4,41.1,98.4,91.9-44.1,91.9-98.4,91.9S1515.1,1311.9,1515.1,1261.1Z"/><path class="cls-8" d="M1350.1,1188.8c-24.2,17.8-41.7,35.4-75.1,36.1-30.7.6-47.4-14.8-64.5-36.3-2.9-3.7-10.4-3.7-9.5,2.1,9.6,65.6,133.7,57.5,150.6,0,.2-.8-.3-2.8-1.5-1.9Z"/></g><path class="cls-10" d="M1352,1450.14c-8.75-13.93,18-101.64,58.14-111.86,4.59-1.17,14.83-3.55,21.84,5.48,13.48,17.39,8.3,68.46-7.15,83.24-2.42,2.32-6.35,4-14.23,7.33a131.65,131.65,0,0,1-23.72,7.33C1356.75,1448.82,1354.29,1453.77,1352,1450.14Z"/><line class="cls-11" x1="1384.19" y1="1437.32" x2="1410.94" y2="1366.67"/><path class="cls-12" d="M1170.06,1423.77s93.44,86.27,257,0"/><path class="cls-13" d="M1540.25,884.61c-42.93-.41-106.33,25.89-125,89.56-22.73,77.46,22.82,153.1,123.42,150.05,107.94-3.28,146.55-69.31,135.41-130.9C1662.11,927.35,1615.54,885.32,1540.25,884.61Z"/><path class="cls-14" d="M1413.41,987.83c20.48-62.45,89.87-100.67,151.35-87.47,24.9,5.35,51.65,19.7,68,40.11,18.29,22.81,20.71,52.31,37.88,75,2.71,3.6,9.87,5.81,12.42.74,16.32-32.41-8.52-74.93-30.83-98.51-23.24-24.58-58.18-41.14-91-45.28-33.53-4.23-70.8,3.26-99.57,22-34.62,22.51-44.69,52.1-51,92.34-.36,2.27,1.89,3.67,2.75,1.06Z"/><ellipse class="cls-15" cx="1534.65" cy="1009.05" rx="100.09" ry="96.83" transform="translate(505.07 2530.01) rotate(-89.23)"/><path class="cls-13" d="M1488.36,954.28c.12-17.67,14.07-31.91,31.16-31.8s30.86,14.51,30.75,32.18-14.08,31.91-31.17,31.8S1488.24,971.94,1488.36,954.28Z"/><path class="cls-13" d="M1025.74,884.61c42.94-.41,106.33,25.89,125,89.56,22.74,77.46-22.82,153.1-123.42,150.05-107.94-3.28-146.55-69.31-135.4-130.9C903.88,927.35,950.45,885.32,1025.74,884.61Z"/><path class="cls-14" d="M1152.59,987.83c-20.49-62.45-89.87-100.67-151.36-87.47-24.89,5.35-51.64,19.7-68,40.11-18.3,22.81-20.71,52.31-37.88,75-2.72,3.6-9.87,5.81-12.42.74-16.32-32.41,8.52-74.93,30.82-98.51,23.24-24.58,58.19-41.14,91-45.28,33.52-4.23,70.79,3.26,99.56,22,34.63,22.51,44.7,52.1,51,92.34.35,2.27-1.9,3.67-2.75,1.06Z"/><ellipse class="cls-15" cx="1031.34" cy="1009.05" rx="96.83" ry="100.09" transform="translate(-13.46 13.95) rotate(-0.77)"/><path class="cls-13" d="M1077.64,954.28c-.12-17.67-14.07-31.91-31.17-31.8s-30.86,14.51-30.74,32.18,14.07,31.91,31.17,31.8S1077.75,971.94,1077.64,954.28Z"/></svg>