<svg xmlns="http://www.w3.org/2000/svg" viewBox="0 0 108 131"><defs><style>.cls-1{fill:#2090b2;}.cls-2{fill:#99c3ff;}.cls-3{fill:#ffd5be;}.cls-4{fill:#9e5147;}.cls-5{fill:#754c24;}.cls-6{fill:#fff;}.cls-7{fill:#002030;}.cls-8{fill:#19313a;}</style></defs><g id="Leander"><path class="cls-1" d="M65.53,54.78a209.17,209.17,0,0,1,10,33.14"/><path class="cls-1" d="M64.09,55.17a210.55,210.55,0,0,1,10,33.15c.41,1.89,3.31,1.09,2.89-.79A210.23,210.23,0,0,0,67,54.38c-.72-1.77-3.62-1-2.89.79Z"/><path class="cls-1" d="M38.53,85.55a177.39,177.39,0,0,1,7.72-30.11"/><path class="cls-1" d="M40,85.94a176.58,176.58,0,0,1,7.72-30.1c.62-1.83-2.27-2.62-2.9-.8a177.6,177.6,0,0,0-7.71,30.11c-.3,1.89,2.59,2.7,2.89.79Z"/><path class="cls-1" d="M47.92,126.57c-2.63-.88-5.09-.54-6.09.47a3.76,3.76,0,0,0-1,1.85,2.65,2.65,0,0,0,0,.92c.39,1.56,10.37,1,11.67.93a10.73,10.73,0,0,0,0-1.39,11.41,11.41,0,0,0-.51-2.78Z"/><polygon class="cls-2" points="52.46 99.6 52.12 126.57 48.66 126.57 48.66 99.6 52.46 99.6"/><path class="cls-1" d="M65.43,126.57c2.63-.88,5.09-.54,6.09.47a3.76,3.76,0,0,1,1,1.85,2.65,2.65,0,0,1,0,.92c-.39,1.56-10.36,1-11.67.93a10.73,10.73,0,0,1,0-1.39,11.41,11.41,0,0,1,.51-2.78Z"/><polygon class="cls-2" points="60.89 99.6 61.24 126.57 64.7 126.57 64.7 99.6 60.89 99.6"/><path class="cls-2" d="M54.08,102.27H58.6c6.11,0,11.11-6.1,11.11-13.56V62c0-7.46-5-13.56-11.11-13.56H54.08C48,48.44,43,54.54,43,62V88.71C43,96.17,48,102.27,54.08,102.27Z"/><path class="cls-1" d="M65.67,102.27H46.85c-2.17,0-4-2.18-4-4.84V89.77c0-2.66,1.78-4.83,4-4.83H65.67c2.18,0,4,2.17,4,4.83v7.66C69.63,100.09,67.85,102.27,65.67,102.27Z"/><rect class="cls-2" x="42.93" y="72.77" width="26.73" height="19.17"/><ellipse class="cls-3" cx="56.08" cy="30.66" rx="13.46" ry="18.31"/><ellipse class="cls-3" cx="42.43" cy="31.21" rx="2.62" ry="4.48"/><ellipse class="cls-3" cx="69.54" cy="31.69" rx="2.62" ry="4.48"/><path class="cls-4" d="M57.81,37.63c-.55.51-1,1-1.72,1s-1.09-.43-1.48-1.05c-.07-.11-.24-.11-.22.06.22,1.9,3.07,1.67,3.46,0,0,0,0-.08,0,0Z"/><path class="cls-4" d="M43.39,31.68c0,.08,0,.22-.07.15-.24-.29-.43-.68-.67-.95a1.13,1.13,0,0,0-.77-.44,1.43,1.43,0,0,0-.08.91,3.74,3.74,0,0,0,.4,1.18,3.17,3.17,0,0,0,.51.57s0,.08,0,.08c-.66.12-1.34-1.72-1.25-2.66-.36.19-.61.69-.49,1.51,0,0,0,0,0,0C40.06,29.31,42.63,29.11,43.39,31.68Z"/><path class="cls-4" d="M68.92,32.39c0,.08,0,.22.06.15.24-.29.43-.68.67-.95a1.19,1.19,0,0,1,.78-.44,1.58,1.58,0,0,1,.08.91,3.9,3.9,0,0,1-.41,1.19,4,4,0,0,1-.5.56s0,.08,0,.09c.66.11,1.35-1.73,1.26-2.67.35.19.61.69.49,1.51,0,0,0,0,0,0C72.25,30,69.68,29.82,68.92,32.39Z"/><path class="cls-4" d="M52.27,43.2A6.62,6.62,0,0,0,60.13,42c.19-.22-.22-.43-.39-.24C58,43.81,54.63,44,52.3,43c-.13,0-.11.15,0,.2Z"/><path class="cls-4" d="M59.71,41c-.22.24,0,.68.19.86a.94.94,0,0,0,.87.3c.1,0,.2-.17.1-.27s-.3,0-.41,0c-.41-.09-.53-.45-.66-.82,0,0-.06-.07-.09,0Z"/><path class="cls-5" d="M72,28.19a1.09,1.09,0,0,1-.42-.59,3.73,3.73,0,0,1,0-1c-.12-.51-.27-1-.41-1.5-.28-1-.48-2-.72-2.94a8.11,8.11,0,0,0-1.32-2.82c-.6-.87-1.12-1.83-1.77-2.65a8,8,0,0,0-5-3.15,15,15,0,0,0-2.63-.43l.15-.07a4.55,4.55,0,0,0,1.6-1l.2-.34s-2.08.38-2.67.44c-1,.11-2,.2-3,.22a25.88,25.88,0,0,1-2.64-.09,3,3,0,0,1,.26-.16c.51-.29,1.09-.33,1.6-.6a.07.07,0,0,0,0-.12.65.65,0,0,0-.29-.06,6.76,6.76,0,0,0-3-.3,5,5,0,0,0-2.69,1.13,6.94,6.94,0,0,0-1.85,2.17,4.2,4.2,0,0,0-.72,1.94A4.74,4.74,0,0,1,46,14.09a.06.06,0,0,0-.12,0,3.55,3.55,0,0,0,.32,2.42l0,.06c-.33-.17-.66-.32-1-.46-.6-.28-1.74-.59-2.3-.08-.08.07,0,.23.1.19.63-.29,1.63.36,2.2.6l.3.14a7.7,7.7,0,0,0-1.49.56,6.15,6.15,0,0,0-.81.48,8.33,8.33,0,0,1-1,.92,8.61,8.61,0,0,0-.86.85,5.34,5.34,0,0,0-.35.48,3.8,3.8,0,0,1-.48.89l0,0A7.71,7.71,0,0,0,40,23.4c.11,0,.83-.9,1.15-1.14l.05,0a6.57,6.57,0,0,0-.32,1.47,14.2,14.2,0,0,0,.09,4,10.22,10.22,0,0,0,1.38,3.65,6.68,6.68,0,0,1,.46,1c.17.31.34.62.52.92s.21.37.32.56l.18.16.12.27a3.73,3.73,0,0,1,.16.35q.35.55.72,1.08v0a7.07,7.07,0,0,0-.14-2.16,4,4,0,0,1-.09-.48c0-.77,0-1.56,0-2.33,0-.29,0-.51.06-.59A12.49,12.49,0,0,1,45,27.9c0-.15.08-.29.11-.42l.09-.22a9.06,9.06,0,0,1,1.59-2.93.13.13,0,0,0,0-.09,8.72,8.72,0,0,1,.7-.88l.21-.2.06.06a20.74,20.74,0,0,0,2.49,2.2,8.83,8.83,0,0,0,2.6,1.22A3.3,3.3,0,0,0,54.9,27h0L55,27c.07,0-1.67-.42-1.85-1.47a6.16,6.16,0,0,0,1.32.43,14.42,14.42,0,0,0,3,.05,7.45,7.45,0,0,0,2.88-.51s0-.07,0-.06c-.31,0-4,.32-5.36-.1-.19-.06-.85-.3-1.05-.34a13.38,13.38,0,0,0,1.89.1,10.33,10.33,0,0,1,1.73-.26A8.05,8.05,0,0,0,59,24.38a23.44,23.44,0,0,1,4-.68c1.26,0,2.22.89,3.09,1.74a5.62,5.62,0,0,1,1.73,3.09A20.22,20.22,0,0,1,68,32.35a2.71,2.71,0,0,1,0,.4,9,9,0,0,1,.13,2.67c.14-.17.4-.27.5-.46a8.1,8.1,0,0,1,.81-1.17A4.54,4.54,0,0,0,70,32.71c.17-.41.23-1,.42-1.36A8.51,8.51,0,0,0,70.91,29c.06-.35.11-.73.14-1.11a1.31,1.31,0,0,0,.71.32C71.84,28.19,72.05,28.22,72,28.19ZM45.65,25l-.32.39a2.19,2.19,0,0,1,.39-.5Z"/><path class="cls-3" d="M40.39,84.3a2.8,2.8,0,0,0-.23,1.36c.1,1,.8,1.31,1.88,2.94.21.31.37.58.47.75a1.68,1.68,0,0,1-.34,1.06,1,1,0,0,1-1.25.21c-.66-.5-.79-1.4-1.23-1.36-.15,0-.33.14-.54.57,0,.34,0,.86.11,1.5s.09.69.1,1a2.83,2.83,0,0,1-.4,1.87c0,.06-.39.46-.76.4-.67-.12-.84-1.69-.86-1.9a11.57,11.57,0,0,1,0-1.21c0-.57,0-1,.06-1.37a.24.24,0,0,0-.17-.13.26.26,0,0,0-.18.07,12,12,0,0,0-.91,2c-.17.37-.74,1.69-1.5,1.78a.9.9,0,0,1-.85-.5,1.71,1.71,0,0,1-.07-1.08,4.42,4.42,0,0,1,1-1.82c.66-.9,1.18-1.35,1.09-1.65a.26.26,0,0,0-.12-.13c-.26-.13-.58.28-1.11.69s-1,.74-1.46.59a.83.83,0,0,1-.52-.52,1.59,1.59,0,0,1,.19-1.16c.06-.12.19-.33,1.12-1l.85-.56c.61-.41.92-.61,1-.68.63-.57.65-1.28,1-1.68C37.2,83.83,38.18,83.44,40.39,84.3Z"/><path class="cls-3" d="M38,87.25s0,.13-.05.32,0,.17,0,.33a1.52,1.52,0,0,1-.28.88s-.15.15-.22.1,0-.23,0-.47a3,3,0,0,1,.2-.7,1,1,0,0,1,.27-.42C38,87.22,38,87.24,38,87.25Z"/><path class="cls-3" d="M38.54,87.24s0,.14,0,.33,0,.17,0,.32a1.72,1.72,0,0,0,0,1s.1.19.18.16.09-.2.11-.44a3.56,3.56,0,0,0,0-.74,1.2,1.2,0,0,0-.14-.5C38.57,87.23,38.54,87.24,38.54,87.24Z"/><path class="cls-3" d="M73,85a2.45,2.45,0,0,1,.28,1.31c-.07,1-.79,1.31-1.85,2.93-.21.32-.36.58-.46.75a1.51,1.51,0,0,0,.38,1,1,1,0,0,0,1.29.16c.67-.52.77-1.39,1.23-1.37.15,0,.34.12.58.53,0,.33,0,.84-.08,1.46a7.92,7.92,0,0,0-.07,1,2.63,2.63,0,0,0,.46,1.81s.42.43.79.35c.7-.15.82-1.68.83-1.87a8.65,8.65,0,0,0,0-1.18c0-.56-.07-1-.1-1.33a.25.25,0,0,1,.18-.14.25.25,0,0,1,.17.06,11.35,11.35,0,0,1,1,1.94c.18.35.81,1.62,1.59,1.66a.92.92,0,0,0,.85-.52,1.58,1.58,0,0,0,0-1,4.14,4.14,0,0,0-1-1.74c-.71-.84-1.26-1.26-1.17-1.55A.26.26,0,0,1,78,89.1c.26-.14.61.25,1.16.62s1,.68,1.52.51a.83.83,0,0,0,.52-.53A1.43,1.43,0,0,0,81,88.59c-.07-.12-.21-.31-1.18-.9l-.89-.52c-.64-.37-1-.55-1-.62-.67-.52-.71-1.21-1.07-1.58C76.31,84.43,75.28,84.09,73,85Z"/><path class="cls-3" d="M75,87.1s0,.14,0,.32a2.84,2.84,0,0,1,.06.31,1.4,1.4,0,0,0,.32.85s.16.14.23.08,0-.22,0-.45a3.8,3.8,0,0,0-.23-.67,1,1,0,0,0-.29-.4C75,87.08,75,87.1,75,87.1Z"/><path class="cls-3" d="M74.48,87.12s0,.13.06.32,0,.16,0,.31a1.49,1.49,0,0,1,0,.92s-.1.19-.19.17-.09-.2-.12-.43a2.62,2.62,0,0,1,0-.72,1,1,0,0,1,.13-.48C74.45,87.11,74.47,87.12,74.48,87.12Z"/><path class="cls-3" d="M75.83,86.89s0,.13.07.31a2.82,2.82,0,0,1,.07.31,1.46,1.46,0,0,0,.35.83s.17.13.23.07,0-.22,0-.45a3.6,3.6,0,0,0-.26-.66.94.94,0,0,0-.3-.38C75.86,86.86,75.84,86.88,75.83,86.89Z"/><path class="cls-6" d="M61.86,29.76a3,3,0,0,0-2.83,2,2.54,2.54,0,0,0,2.79,3.35c2.44-.07,3.32-1.55,3.07-2.93A2.86,2.86,0,0,0,61.86,29.76Z"/><path class="cls-7" d="M59,32.07a3,3,0,0,1,3.42-2A2.76,2.76,0,0,1,64,31c.42.51.47,1.17.86,1.68.06.08.22.13.28,0,.37-.73-.19-1.68-.7-2.21a3.51,3.51,0,0,0-2.06-1,3.44,3.44,0,0,0-2.25.49,2.62,2.62,0,0,0-1.15,2.07c0,.05,0,.08.06,0Z"/><ellipse class="cls-8" cx="62.09" cy="32.55" rx="2.24" ry="2.19" transform="translate(28.36 94) rotate(-88.9)"/><path class="cls-6" d="M62.45,32.33a.72.72,0,0,1,.71-.71.72.72,0,0,1,0,1.43A.71.71,0,0,1,62.45,32.33Z"/><path class="cls-6" d="M50.23,29.76a2.94,2.94,0,0,1,2.82,2c.52,1.73-.51,3.42-2.79,3.35-2.44-.07-3.31-1.55-3.06-2.93A2.85,2.85,0,0,1,50.23,29.76Z"/><path class="cls-7" d="M53.09,32.07a3,3,0,0,0-3.42-2,2.8,2.8,0,0,0-1.54.9c-.41.51-.47,1.17-.85,1.68-.07.08-.23.13-.28,0-.37-.73.19-1.68.69-2.21a3.57,3.57,0,0,1,2.06-1A3.43,3.43,0,0,1,52,30a2.63,2.63,0,0,1,1.16,2.07c0,.05,0,.08-.07,0Z"/><ellipse class="cls-8" cx="50.5" cy="32.55" rx="2.19" ry="2.24" transform="translate(-0.61 0.97) rotate(-1.1)"/><path class="cls-6" d="M52.46,32.33a.71.71,0,0,0-.71-.71.72.72,0,1,0,.71.71Z"/></g></svg>