<svg xmlns="http://www.w3.org/2000/svg" viewBox="0 0 74 74"><defs><style>.cls-1{opacity:0.2;}.cls-2{fill:#b761cf;}.cls-3{fill:#7c428c;}.cls-4{fill:#572a17;}.cls-5{fill:#3f1d12;}.cls-6{fill:#ffd5be;}.cls-7{fill:#8e5744;}.cls-8{fill:#ff5a6e;}</style></defs><g id="Schatten"><g class="cls-1"><ellipse cx="37.59" cy="66.5" rx="21.2" ry="6.5" transform="translate(-1.11 0.64) rotate(-0.96)"/></g></g><g id="people"><rect class="cls-2" x="24.98" y="27.25" width="25.07" height="40.67" rx="12.53" transform="translate(75.03 95.16) rotate(-180)"/><rect class="cls-3" x="24.91" y="54.82" width="25.07" height="13.09" rx="6.55"/><rect class="cls-2" x="24.83" y="45.63" width="25.07" height="14.48" transform="translate(-0.88 0.63) rotate(-0.96)"/><path class="cls-4" d="M30.49,3.1A6,6,0,0,1,32,7.92,6.07,6.07,0,0,0,23.94,8,6,6,0,0,0,22,11.62a4.57,4.57,0,0,1-.45-.43A6,6,0,0,1,22,2.72,6.08,6.08,0,0,1,30.49,3.1Z"/><path class="cls-4" d="M43.51,3.1A6,6,0,0,0,42,7.92,6.07,6.07,0,0,1,50.06,8,6,6,0,0,1,52,11.62a4.57,4.57,0,0,0,.45-.43A6,6,0,0,0,52,2.72,6.08,6.08,0,0,0,43.51,3.1Z"/><ellipse class="cls-5" cx="37.58" cy="14.43" rx="11.12" ry="11.23"/><ellipse class="cls-6" cx="37.58" cy="16.33" rx="10.54" ry="12.07"/><ellipse class="cls-6" cx="27.04" cy="16.33" rx="2.06" ry="2.95"/><ellipse class="cls-6" cx="48.13" cy="16.33" rx="2.06" ry="2.95"/><path class="cls-7" d="M37.58,3.56A10.79,10.79,0,0,0,26.84,13.81c1.38.13,2.78.23,4.2.31l2.43-4.38s-1,3.13-1.38,4.43h.25c.69-1.29,2.17-4.44,2.17-4.44l-.81,4.49h.17l1.8-4.5-.25,4.53,2.16,0c3.69,0,7.28-.17,10.74-.49A10.79,10.79,0,0,0,37.58,3.56Z"/><ellipse class="cls-8" cx="43.82" cy="5.03" rx="1.96" ry="1.95"/><ellipse class="cls-8" cx="46.6" cy="7.79" rx="1.96" ry="1.95"/><ellipse class="cls-8" cx="31.34" cy="5.03" rx="1.96" ry="1.95"/><ellipse class="cls-8" cx="28.57" cy="7.79" rx="1.96" ry="1.95"/></g></svg>