<svg xmlns="http://www.w3.org/2000/svg" viewBox="0 0 80 80"><defs><style>.cls-1{opacity:0.53;}.cls-2{fill:#d48342;}.cls-3{fill:none;stroke:#d48342;stroke-miterlimit:10;stroke-width:9px;}.cls-4{fill:#b761cf;}.cls-5{fill:#7c428c;}.cls-6{fill:#3f1d12;}.cls-7{fill:#ffd5be;}.cls-8{fill:#ff9852;opacity:0.4;}.cls-9{fill:#572a17;}.cls-10{fill:#8e5744;}.cls-11{fill:#ff5a6e;}</style></defs><g id="Schatten"><g class="cls-1"><ellipse class="cls-2" cx="42.6" cy="72.67" rx="21.2" ry="6.5"/></g></g><g id="people"><path class="cls-3" d="M57.13,5.65A6.08,6.08,0,0,0,48.6,6h0a2,2,0,0,0-1.07.54,2.16,2.16,0,0,0-.36.51,11,11,0,0,0-9,0,2.49,2.49,0,0,0-.36-.51,2,2,0,0,0-2.14-.42L35.58,6a6.06,6.06,0,0,0-8.52-.38,6,6,0,0,0-.39,8.47l.45.44A6,6,0,0,1,29,10.91,6,6,0,0,1,32.2,9.42a1.94,1.94,0,0,0,.07,2.68,2.18,2.18,0,0,0,.43.32,11.37,11.37,0,0,0-1.1,4,3,3,0,0,0-1.53,2.84c0,1.63.92,2.95,2.06,2.95a1.19,1.19,0,0,0,.32-.05,11.61,11.61,0,0,0,6.78,8.5,12.57,12.57,0,0,0-9.16,12.05v5.85h0V63.05h.1A6.38,6.38,0,0,0,30,64.3a6.57,6.57,0,0,0,6.55,6.55h12a6.57,6.57,0,0,0,6.55-6.55A6.39,6.39,0,0,0,55,63.05h.15V59.19c0-.29,0-.58,0-.88V42.71a12.57,12.57,0,0,0-9.08-12,11.6,11.6,0,0,0,6.84-8.52,1.13,1.13,0,0,0,.32.05c1.13,0,2.05-1.32,2.05-2.95a3,3,0,0,0-1.53-2.84,11,11,0,0,0-1.1-4,2.24,2.24,0,0,0,.44-.32,1.92,1.92,0,0,0,.34-2.27,6,6,0,0,1,1.73,1.08,5.87,5.87,0,0,1,1.91,3.65,6.25,6.25,0,0,0,.45-.44A6,6,0,0,0,57.13,5.65Z"/><rect class="cls-4" x="30.07" y="30.18" width="25.07" height="40.67" rx="12.53" transform="translate(85.22 101.03) rotate(-180)"/><rect class="cls-5" x="30" y="57.75" width="25.07" height="13.09" rx="6.55"/><rect class="cls-4" x="30.03" y="48.56" width="25.07" height="14.48"/><ellipse class="cls-6" cx="42.67" cy="17.36" rx="11.12" ry="11.23"/><ellipse class="cls-7" cx="42.67" cy="19.26" rx="10.54" ry="12.07"/><ellipse class="cls-7" cx="32.13" cy="19.26" rx="2.06" ry="2.95"/><ellipse class="cls-7" cx="53.22" cy="19.26" rx="2.06" ry="2.95"/><path class="cls-8" d="M57,5.1a6,6,0,0,0-8.5.39h0a2,2,0,0,0-1.07.55,2.21,2.21,0,0,0-.36.52,10.71,10.71,0,0,0-9,0,2.21,2.21,0,0,0-.36-.52,2,2,0,0,0-2.13-.43l-.1-.13a6,6,0,0,0-8.51-.39,6.2,6.2,0,0,0-.38,8.65,4.78,4.78,0,0,0,.45.45A6.12,6.12,0,0,1,29,10.47,5.9,5.9,0,0,1,32.18,9a2,2,0,0,0,.07,2.73,2.18,2.18,0,0,0,.43.32,11.85,11.85,0,0,0-1.1,4.09A3,3,0,0,0,30.06,19c0,1.67.92,3,2.05,3a1.77,1.77,0,0,0,.32-.05c1.13,5.37,5.26,9.36,10.2,9.36s9.06-4,10.19-9.36a1.77,1.77,0,0,0,.32.05c1.13,0,2-1.35,2-3a3,3,0,0,0-1.52-2.9A11.85,11.85,0,0,0,52.57,12a2.18,2.18,0,0,0,.43-.32,2,2,0,0,0,.35-2.32,6,6,0,0,1,1.72,1.1A6.19,6.19,0,0,1,57,14.2a6.25,6.25,0,0,0,.44-.45A6.18,6.18,0,0,0,57,5.1Z"/><path class="cls-9" d="M35.58,6a5.89,5.89,0,0,1,1.53,4.82,6.08,6.08,0,0,0-8.08.06,6,6,0,0,0-1.91,3.65l-.45-.44a6,6,0,0,1,.39-8.47A6.06,6.06,0,0,1,35.58,6Z"/><path class="cls-9" d="M48.6,6a6,6,0,0,0-1.53,4.82,6.08,6.08,0,0,1,8.08.06,5.87,5.87,0,0,1,1.91,3.65,6.25,6.25,0,0,0,.45-.44,6,6,0,0,0-.38-8.47A6.08,6.08,0,0,0,48.6,6Z"/><path class="cls-10" d="M42.67,6.49A10.81,10.81,0,0,0,31.93,16.75c1.38.12,2.78.22,4.21.3l2.42-4.38s-1,3.14-1.37,4.43h.24c.69-1.29,2.17-4.44,2.17-4.44l-.81,4.5H39l1.8-4.5-.26,4.54,2.16,0c3.69,0,7.28-.17,10.74-.48A10.8,10.8,0,0,0,42.67,6.49Z"/><ellipse class="cls-11" cx="48.91" cy="7.96" rx="1.96" ry="1.95"/><ellipse class="cls-11" cx="51.69" cy="10.72" rx="1.96" ry="1.95"/><ellipse class="cls-11" cx="36.44" cy="7.96" rx="1.96" ry="1.95"/><ellipse class="cls-11" cx="33.66" cy="10.72" rx="1.96" ry="1.95"/></g></svg>