<svg xmlns="http://www.w3.org/2000/svg" viewBox="0 0 48 129"><defs><style>.cls-1{fill:#ba2525;}.cls-2{fill:#e57373;}.cls-3{fill:#603813;}.cls-4{fill:#ffd5be;}.cls-5,.cls-6{fill:#fca39a;}.cls-5{opacity:0.51;}.cls-6{opacity:0.49;}.cls-7{fill:#9e5147;}.cls-8{fill:#fff;}.cls-9{fill:#002030;}.cls-10{fill:#19313a;}.cls-11{fill:#8e3257;}.cls-12{fill:#ee7ba5;}</style></defs><g id="Marie"><path class="cls-1" d="M32,122.49c2.47-.84,4.77-.52,5.7.44a3.6,3.6,0,0,1,1,1.76,2.48,2.48,0,0,1,0,.89c-.37,1.48-9.71,1-10.94.88,0-.41,0-.85,0-1.33a11.45,11.45,0,0,1,.48-2.64Z"/><polygon class="cls-2" points="27.73 96.32 28.06 122.61 31.3 122.61 31.3 96.32 27.73 96.32"/><path class="cls-1" d="M15.58,122.49c-2.47-.84-4.77-.52-5.71.44a3.6,3.6,0,0,0-.95,1.76,3.09,3.09,0,0,0,0,.89c.37,1.48,9.72,1,10.94.88a9.82,9.82,0,0,0,0-1.33,11.48,11.48,0,0,0-.47-2.64Z"/><polygon class="cls-2" points="19.83 96.32 19.51 122.61 16.27 122.61 16.27 96.32 19.83 96.32"/><path class="cls-1" d="M7,83.68a215.6,215.6,0,0,1,6.52-32.91"/><path class="cls-1" d="M8.45,83.68a212.78,212.78,0,0,1,6.47-32.51,1.51,1.51,0,0,0-2.9-.8A218.27,218.27,0,0,0,5.45,83.68c-.21,1.91,2.79,1.9,3,0Z"/><path class="cls-1" d="M33.24,53.79A256.19,256.19,0,0,1,40.53,86"/><path class="cls-1" d="M31.8,54.18a256.56,256.56,0,0,1,7.28,32.19c.32,1.9,3.21,1.09,2.89-.8a254.27,254.27,0,0,0-7.28-32.18c-.56-1.85-3.46-1.06-2.89.79Z"/><path class="cls-3" d="M32.32,29.21a9,9,0,0,1,1.58,1.84,10.5,10.5,0,0,1,1.62,5.05c.33,4.71-2.79,5.7-2.23,9.26.42,2.72,2.37,3,2.9,6.19a10,10,0,0,1-.63,5.17L10.87,54.85s2.28-6.89,1.49-9.19.88-10,.88-10-4.13-7-2-9.95,7.21-8,8.88-9a12.86,12.86,0,0,1,4.22-1.53,3.55,3.55,0,0,1,2.55.62,11.74,11.74,0,0,1,5.19,6.58A13.25,13.25,0,0,1,32.32,29.21Z"/><path class="cls-2" d="M21.35,98.86h4.24C31.31,98.86,36,93.05,36,86V60.51c0-7.1-4.69-12.91-10.41-12.91H21.35c-5.72,0-10.41,5.81-10.41,12.91V86C10.94,93.05,15.63,98.86,21.35,98.86Z"/><path class="cls-1" d="M32.21,98.86H14.58c-2,0-3.71-2.07-3.71-4.6V87c0-2.53,1.67-4.6,3.71-4.6H32.21c2,0,3.71,2.07,3.71,4.6v7.3C35.92,96.79,34.25,98.86,32.21,98.86Z"/><rect class="cls-2" x="10.9" y="70.77" width="25.05" height="18.26"/><ellipse class="cls-4" cx="23.23" cy="30.67" rx="12.61" ry="17.44"/><ellipse class="cls-4" cx="35.84" cy="30.67" rx="2.46" ry="4.26"/><path class="cls-5" d="M14.79,39.29a2.36,2.36,0,0,1,2.12-2.53,2.58,2.58,0,0,1,0,5.07A2.36,2.36,0,0,1,14.79,39.29Z"/><path class="cls-6" d="M28.4,39a2.35,2.35,0,0,1,2.11-2.53,2.58,2.58,0,0,1,0,5.07A2.36,2.36,0,0,1,28.4,39Z"/><path class="cls-7" d="M24.85,37.3c-.52.49-.9,1-1.62,1s-1-.41-1.38-1c-.07-.1-.23-.1-.21.06.21,1.81,2.88,1.59,3.24,0,0,0,0-.08,0-.05Z"/><path class="cls-7" d="M35.25,31.34c0,.07,0,.2.07.14.22-.28.4-.65.62-.91a1.14,1.14,0,0,1,.73-.42,1.56,1.56,0,0,1,.08.88,3.82,3.82,0,0,1-.39,1.12,2.5,2.5,0,0,1-.47.54s0,.08,0,.08c.62.11,1.26-1.64,1.17-2.54.34.18.58.66.46,1.44,0,0,0,0,0,0C38.38,29.08,36,28.89,35.25,31.34Z"/><path class="cls-3" d="M28.83,14.87a10.59,10.59,0,0,1,4.79,3.61,12.54,12.54,0,0,1,2,7.32,15.57,15.57,0,0,1-1,4.36,36.69,36.69,0,0,0-1.37-6.48c-.68-1.74-2.93-3.75-3.92-5.1A4.35,4.35,0,0,1,28.83,14.87Z"/><path class="cls-3" d="M26.69,15.58a6.71,6.71,0,0,0-7.23-2c-4.72,1.36-7.75,5.2-9.87,9.47S5.14,33.29,7,36.24,9.87,42,9,43.86s-2.36,3.07-1.25,4.3A3.87,3.87,0,0,1,9,52.1c-.27,2.09-4.17,5.41-2.64,7.25s4.45,2.34,4.87,4.67-2.09,4.43-2.09,4.43a5,5,0,0,0,3.62-.61,4.73,4.73,0,0,0,2-5.75c-.59-1.23-2.71-2.86-3-4.46s1.4-3.81,2.23-6-.28-3.82-.28-5.54,1.53-3.93,1.81-5.9-2-3.81-1.67-6.88-.28-4.18,2.92-6.28A37.29,37.29,0,0,0,25,18.9,12.55,12.55,0,0,0,26.69,15.58Z"/><path class="cls-3" d="M27,17.17s5.7,6.49,7.31,8.43-2-7.61-2-7.61l-4.71-3.63Z"/><path class="cls-3" d="M24.82,17s.11.41.29,1a2,2,0,0,0,.17.38,12.51,12.51,0,0,0,1.57,2,38.65,38.65,0,0,0,5.43,4.86c1.24.71,2.18,3.2,2.18,3.2l-3.6-10.84-7.14-3.27Z"/><path class="cls-3" d="M27.71,20.48a29.67,29.67,0,0,0,7.22,8.88l-1.14-7.29Z"/><path class="cls-3" d="M21.13,14a12.84,12.84,0,0,1,5.32.33,4,4,0,0,1,.8.41,2.33,2.33,0,0,1,.81.9,1,1,0,0,1-.37,1.5c-1.2.67-4,.35-4,.35l-4.19-3.24,12.71,5.37-4.42-.33,5.4-.51s-1.25-.95-2.74-2c-2.25-1.54-5-3.25-4.94-2.14.14,1.86,2.28,4,2.28,4l2.85-.83s-4.49-5.63-6.42-3,7.29,3.95,7.29,3.95v1.95L31.4,17S26.07,11.5,21.13,14Z"/><path class="cls-3" d="M19.25,17.27A39.49,39.49,0,0,0,27,16.88"/><ellipse class="cls-3" cx="29.72" cy="16.57" rx="1.58" ry="5.26" transform="translate(-1.58 29.93) rotate(-52.25)"/><ellipse class="cls-3" cx="20.91" cy="15.16" rx="5.11" ry="1.81" transform="translate(-3.08 5.59) rotate(-14.2)"/><path class="cls-4" d="M38.5,84.2a2.2,2.2,0,0,1,.25,1.15c-.06.84-.72,1.16-1.68,2.59-.19.27-.33.51-.42.66a1.36,1.36,0,0,0,.34.89,1,1,0,0,0,1.18.14c.6-.46.7-1.23,1.12-1.21.13,0,.31.11.52.46,0,.3,0,.74-.07,1.29s-.07.6-.07.87a2.31,2.31,0,0,0,.43,1.59s.38.38.72.31c.63-.13.74-1.48.75-1.66a8.24,8.24,0,0,0,0-1c0-.49-.06-.9-.09-1.17a.21.21,0,0,1,.16-.12.24.24,0,0,1,.16.05,10,10,0,0,1,.92,1.7c.16.32.73,1.43,1.45,1.47a.83.83,0,0,0,.77-.46,1.34,1.34,0,0,0,0-.92A3.51,3.51,0,0,0,44,89.28c-.65-.74-1.15-1.12-1.07-1.37a.26.26,0,0,1,.11-.12c.24-.12.55.22,1.06.55s.93.6,1.38.45a.73.73,0,0,0,.47-.46,1.35,1.35,0,0,0-.2-1c-.07-.1-.2-.27-1.08-.79l-.81-.45c-.58-.33-.88-.49-.95-.55-.61-.46-.64-1.07-1-1.4S40.54,83.38,38.5,84.2Z"/><path class="cls-4" d="M40.29,86s0,.11.05.27,0,.15.06.28a1.22,1.22,0,0,0,.28.75s.15.12.21.07,0-.2,0-.4a2.86,2.86,0,0,0-.21-.59.92.92,0,0,0-.26-.35C40.32,86,40.3,86,40.29,86Z"/><path class="cls-4" d="M39.82,86.05s0,.11,0,.28a1.66,1.66,0,0,0,.05.28,1.25,1.25,0,0,1,0,.8s-.09.18-.16.15-.09-.17-.12-.38a2.88,2.88,0,0,1,0-.63.93.93,0,0,1,.12-.43C39.78,86,39.81,86.05,39.82,86.05Z"/><path class="cls-4" d="M41,85.85s0,.11.07.27,0,.14.06.28a1.24,1.24,0,0,0,.32.73s.15.11.21.06,0-.2,0-.4a3.12,3.12,0,0,0-.24-.58.79.79,0,0,0-.27-.33C41.07,85.82,41.05,85.84,41,85.85Z"/><path class="cls-4" d="M8.66,84.43a2.13,2.13,0,0,0-.22,1.16c.09.83.75,1.12,1.77,2.51l.44.64a1.4,1.4,0,0,1-.32.9,1,1,0,0,1-1.18.19c-.61-.44-.73-1.2-1.15-1.17-.14,0-.31.12-.51.49,0,.29,0,.74.11,1.28s.08.59.09.86a2.26,2.26,0,0,1-.38,1.6.92.92,0,0,1-.71.34c-.63-.11-.78-1.45-.8-1.62a7.89,7.89,0,0,1,0-1c0-.49,0-.89.07-1.17a.32.32,0,0,0-.17-.11.29.29,0,0,0-.16.06,9.41,9.41,0,0,0-.87,1.74c-.15.31-.69,1.44-1.4,1.51a.83.83,0,0,1-.79-.42,1.26,1.26,0,0,1-.07-.92,3.47,3.47,0,0,1,.9-1.56c.62-.76,1.11-1.15,1-1.4a.22.22,0,0,0-.11-.11c-.24-.12-.55.23-1,.58s-.92.63-1.37.5a.72.72,0,0,1-.49-.44,1.29,1.29,0,0,1,.17-1c.07-.1.19-.28,1.06-.83.23-.15.3-.18.79-.48L4.27,86c.6-.49.61-1.1.93-1.43C5.66,84,6.59,83.69,8.66,84.43Z"/><path class="cls-4" d="M6.92,86.33s0,.12,0,.28,0,.14,0,.27a1.35,1.35,0,0,1-.26.76s-.15.13-.21.08,0-.19,0-.4a3.46,3.46,0,0,1,.19-.6.87.87,0,0,1,.25-.35C6.89,86.31,6.91,86.32,6.92,86.33Z"/><path class="cls-4" d="M7.4,86.32s0,.12-.05.28,0,.15,0,.28a1.33,1.33,0,0,0,0,.81s.1.16.17.14.09-.18.11-.38a2.7,2.7,0,0,0,0-.63.8.8,0,0,0-.13-.43C7.43,86.31,7.4,86.32,7.4,86.32Z"/><path class="cls-4" d="M6.16,86.17s0,.12-.06.27,0,.15,0,.28a1.25,1.25,0,0,1-.29.74s-.15.12-.22.07,0-.2,0-.4a3.9,3.9,0,0,1,.22-.59,1,1,0,0,1,.26-.34C6.13,86.15,6.15,86.16,6.16,86.17Z"/><path class="cls-8" d="M17.91,28.89a2.85,2.85,0,0,1,2.65,2.28c.48,2-.49,3.92-2.62,3.84a2.78,2.78,0,0,1-2.87-3.35A2.85,2.85,0,0,1,17.91,28.89Z"/><path class="cls-9" d="M20.59,31.52a2.82,2.82,0,0,0-3.2-2.23,2.55,2.55,0,0,0-1.44,1c-.39.59-.44,1.34-.81,1.92-.05.09-.21.15-.26,0a2.82,2.82,0,0,1,.65-2.52,3.14,3.14,0,0,1,1.93-1.15,2.78,2.78,0,0,1,2.11.56,3.14,3.14,0,0,1,1.08,2.36c0,.05,0,.09-.06,0Z"/><ellipse class="cls-10" cx="18.17" cy="32.07" rx="2.05" ry="2.56" transform="translate(-0.06 0.04) rotate(-0.11)"/><path class="cls-8" d="M20,31.82a.67.67,0,1,0-.65.82A.75.75,0,0,0,20,31.82Z"/><path class="cls-8" d="M28.81,28.89a2.85,2.85,0,0,0-2.65,2.28c-.48,2,.48,3.92,2.62,3.84a2.78,2.78,0,0,0,2.87-3.35C31.39,30,30.41,28.9,28.81,28.89Z"/><path class="cls-9" d="M26.12,31.52a2.83,2.83,0,0,1,3.21-2.23,2.58,2.58,0,0,1,1.44,1c.39.59.44,1.34.8,1.92.06.09.21.15.27,0a2.82,2.82,0,0,0-.66-2.52,3.09,3.09,0,0,0-1.93-1.15,2.78,2.78,0,0,0-2.11.56,3.21,3.21,0,0,0-1.08,2.36c0,.05,0,.09.06,0Z"/><ellipse class="cls-10" cx="29.02" cy="32.07" rx="2.56" ry="2.05" transform="translate(-3.1 61.02) rotate(-89.89)"/><path class="cls-8" d="M29.37,31.82A.74.74,0,0,1,30,31a.75.75,0,0,1,.65.82.67.67,0,1,1-1.31,0Z"/><path class="cls-11" d="M27,41.64s-.52,3.23-3.5,3.26a3.52,3.52,0,0,1-3.61-3.35s.6,0,3.36,0Z"/><path class="cls-12" d="M24.13,44.8A3.72,3.72,0,0,1,22,44.68,3.25,3.25,0,0,1,24.08,43a2.83,2.83,0,0,1,2.28.42A3.58,3.58,0,0,1,24.13,44.8Z"/></g></svg>