<?xml version="1.0" encoding="utf-8"?>
<!-- Generator: Adobe Illustrator 24.2.1, SVG Export Plug-In . SVG Version: 6.00 Build 0)  -->
<svg version="1.1" id="Ebene_1" xmlns="http://www.w3.org/2000/svg" xmlns:xlink="http://www.w3.org/1999/xlink" x="0px" y="0px"
	 viewBox="0 0 792.4 539.1" style="enable-background:new 0 0 792.4 539.1;" xml:space="preserve">
<style type="text/css">
	.st0{fill:none;stroke:#79C6F2;stroke-width:6.16;stroke-linecap:round;stroke-miterlimit:10;}
	.st1{fill:none;stroke:#79C6F2;stroke-width:6.69;stroke-linecap:round;stroke-miterlimit:10;}
	.st2{fill:none;stroke:#79C6F2;stroke-width:6.42;stroke-linecap:round;stroke-miterlimit:10;}
	.st3{fill:#8E3257;}
	.st4{fill:#EE7BA5;}
	.st5{fill:#FCA39A;}
	.st6{fill:#9E5147;}
	.st7{fill:#79C6F2;}
</style>
<g id="head">
	<path class="st0" d="M74.6,203.1c0,98.5,73.5,67.3,161.8,67.3"/>
	<path class="st0" d="M745.2,208.9c0,98.5-69.1,61.5-157.4,61.5"/>
	<path class="st1" d="M138.8,274.6c33.6-92.6,44.1-158.9-0.2-217.7"/>
	<path class="st2" d="M701.6,274.6c-34-93.7-52.5-158-13.7-215.6"/>
</g>
<g id=":D">
	<path class="st3" d="M498,360.4c0,0-11.2,63-75.2,63.5c-73.8,0.6-78-65.3-78-65.3s12.9-0.6,72.4,0.5
		C457.8,359.8,498,360.4,498,360.4z"/>
	<path class="st4" d="M426.6,423c-16.6,1.2-29.3-0.2-39.3-2.9c10-8.4,25.3-14.6,42.8-16.3c15.8-1.5,30.4,1,41.2,6.2
		C460.9,416.3,446.6,421.5,426.6,423z"/>
</g>
<g id="Layer_2">
	<path class="st5" d="M195.9,308.7c0-27.8,24.1-50.4,53.9-50.4s53.9,22.5,53.9,50.4s-24.1,50.4-53.9,50.4S195.9,336.5,195.9,308.7z"
		/>
	<path class="st5" d="M542.7,302.3c0-27.8,24.2-50.4,54-50.4s53.9,22.6,53.9,50.4s-24.2,50.4-53.9,50.4S542.7,330.1,542.7,302.3z"/>
	<path class="st6" d="M452.2,262.6c-13.3,9.8-22.9,19.4-41.2,19.8c-16.9,0.3-26-8.1-35.4-19.9c-1.6-2-5.7-2-5.2,1.2
		c5.3,36,73.3,31.5,82.6,0C453.1,263.3,452.8,262.2,452.2,262.6L452.2,262.6z"/>
</g>
<g id="eyes_straight">
	<path class="st7" d="M128.5,274.8l67.1-11.9l230.8-37.4l285.1,41.3c0,0-81,211.4-272.2,218.7S137.7,351.1,128.5,274.8z"/>
</g>
</svg>
