<svg xmlns="http://www.w3.org/2000/svg" viewBox="0 0 108 129"><defs><style>.cls-1{fill:#ba2525;}.cls-2{fill:#e57373;}.cls-3{fill:#603813;}.cls-4{fill:#ffd5be;}.cls-5,.cls-6{fill:#fca39a;}.cls-5{opacity:0.51;}.cls-6{opacity:0.49;}.cls-7{fill:#9e5147;}.cls-8{fill:#fff;}.cls-9{fill:#002030;}.cls-10{fill:#19313a;}.cls-11{fill:#8e3257;}.cls-12{fill:#ee7ba5;}</style></defs><g id="Marie"><path class="cls-1" d="M59.36,122.49c2.58-.84,5-.52,6,.44a3.55,3.55,0,0,1,1,1.76,2.75,2.75,0,0,1,0,.89c-.39,1.48-10.15,1-11.43.88a9.82,9.82,0,0,1,0-1.33,10.91,10.91,0,0,1,.49-2.64Z"/><polygon class="cls-2" points="54.92 96.32 55.26 122.61 58.64 122.61 58.64 96.32 54.92 96.32"/><path class="cls-1" d="M42.22,122.49c-2.58-.84-5-.52-6,.44a3.55,3.55,0,0,0-1,1.76,2.75,2.75,0,0,0,0,.89c.39,1.48,10.16,1,11.43.88a9.82,9.82,0,0,0,0-1.33,10.91,10.91,0,0,0-.49-2.64Z"/><polygon class="cls-2" points="46.66 96.32 46.32 122.61 42.94 122.61 42.94 96.32 46.66 96.32"/><path class="cls-1" d="M33.2,83.68A206.85,206.85,0,0,1,40,50.77"/><path class="cls-1" d="M34.7,83.68a206,206,0,0,1,6.76-32.51,1.5,1.5,0,0,0-2.89-.8A211.29,211.29,0,0,0,31.7,83.68c-.22,1.91,2.78,1.9,3,0Z"/><path class="cls-1" d="M60.67,53.79A245.16,245.16,0,0,1,68.28,86"/><path class="cls-1" d="M59.22,54.18a246.42,246.42,0,0,1,7.62,32.19c.32,1.89,3.22,1.09,2.89-.8a247.86,247.86,0,0,0-7.61-32.18c-.58-1.84-3.48-1-2.9.79Z"/><path class="cls-3" d="M59.71,29.21a9,9,0,0,1,1.65,1.84,10.17,10.17,0,0,1,1.69,5.05c.34,4.71-2.91,5.7-2.33,9.26.44,2.72,2.48,3,3,6.19a9.7,9.7,0,0,1-.65,5.17L37.3,54.85s2.38-6.89,1.56-9.19.92-10,.92-10-4.32-7-2.12-9.95,7.53-8,9.28-9a13.88,13.88,0,0,1,4.41-1.53,3.83,3.83,0,0,1,2.66.62,11.72,11.72,0,0,1,5.42,6.58A12.67,12.67,0,0,1,59.71,29.21Z"/><path class="cls-2" d="M48.25,98.86h4.43c6,0,10.87-5.81,10.87-12.91V60.51c0-7.1-4.89-12.91-10.87-12.91H48.25c-6,0-10.88,5.81-10.88,12.91V86C37.37,93.05,42.27,98.86,48.25,98.86Z"/><path class="cls-1" d="M59.6,98.86H41.17c-2.13,0-3.87-2.07-3.87-4.6V87c0-2.53,1.74-4.6,3.87-4.6H59.6c2.13,0,3.87,2.07,3.87,4.6v7.3C63.47,96.79,61.73,98.86,59.6,98.86Z"/><rect class="cls-2" x="37.33" y="70.77" width="26.17" height="18.26"/><ellipse class="cls-4" cx="50.21" cy="30.67" rx="13.17" ry="17.44"/><ellipse class="cls-4" cx="63.39" cy="30.67" rx="2.57" ry="4.26"/><path class="cls-5" d="M41.4,39.29a2.23,2.23,0,1,1,2.21,2.54A2.39,2.39,0,0,1,41.4,39.29Z"/><path class="cls-6" d="M55.61,39a2.23,2.23,0,1,1,2.21,2.54A2.38,2.38,0,0,1,55.61,39Z"/><path class="cls-7" d="M51.9,37.3c-.54.49-.93,1-1.68,1s-1.07-.41-1.45-1c-.07-.1-.24-.1-.22.06.22,1.81,3,1.59,3.39,0,0,0,0-.08,0-.05Z"/><path class="cls-7" d="M62.77,31.34c0,.07,0,.2.07.14.23-.28.42-.65.65-.91a1.22,1.22,0,0,1,.76-.42,1.4,1.4,0,0,1,.08.88,3.56,3.56,0,0,1-.4,1.12,2.87,2.87,0,0,1-.49.54s0,.08,0,.08c.64.11,1.31-1.64,1.22-2.54.35.18.6.66.48,1.44,0,0,0,0,0,0C66,29.08,63.52,28.89,62.77,31.34Z"/><path class="cls-3" d="M56.06,14.87a11.13,11.13,0,0,1,5,3.61,12.19,12.19,0,0,1,2.12,7.32,15.31,15.31,0,0,1-1,4.36,35.92,35.92,0,0,0-1.43-6.48c-.71-1.74-3.07-3.75-4.1-5.1A4.18,4.18,0,0,1,56.06,14.87Z"/><path class="cls-3" d="M53.83,15.58a7.18,7.18,0,0,0-7.55-2C41.34,15,38.18,18.81,36,23.08S31.31,33.29,33.2,36.24s3,5.78,2.18,7.62-2.47,3.07-1.31,4.3a3.77,3.77,0,0,1,1.31,3.94c-.29,2.09-4.36,5.41-2.76,7.25s4.65,2.34,5.09,4.67-2.18,4.43-2.18,4.43a5.42,5.42,0,0,0,3.77-.61c2-1.11,3.06-3.86,2.11-5.75-.62-1.23-2.83-2.86-3.12-4.46s1.45-3.81,2.32-6-.29-3.82-.29-5.54,1.6-3.93,1.89-5.9-2-3.81-1.74-6.88-.29-4.18,3.05-6.28a38,38,0,0,0,8.57-8.11A12.69,12.69,0,0,0,53.83,15.58Z"/><path class="cls-3" d="M54.14,17.17s6,6.49,7.64,8.43S59.72,18,59.72,18L54.8,14.36Z"/><path class="cls-3" d="M51.87,17s.11.41.3,1a3.07,3.07,0,0,0,.18.38,13.79,13.79,0,0,0,1.64,2,40.11,40.11,0,0,0,5.68,4.86c1.3.71,2.27,3.2,2.27,3.2L58.19,17.53l-7.47-3.27Z"/><path class="cls-3" d="M54.89,20.48a30.11,30.11,0,0,0,7.55,8.88l-1.2-7.29Z"/><path class="cls-3" d="M48,14a14,14,0,0,1,5.55.33,4.1,4.1,0,0,1,.84.41,2.44,2.44,0,0,1,.85.9,1,1,0,0,1-.39,1.5c-1.26.67-4.12.35-4.12.35l-4.38-3.24,13.28,5.37L55,19.3l5.64-.51s-1.31-.95-2.87-2c-2.34-1.54-5.25-3.25-5.16-2.14.15,1.86,2.39,4,2.39,4l3-.83s-4.7-5.63-6.71-3,7.62,3.95,7.62,3.95v1.95L58.75,17S53.18,11.5,48,14Z"/><path class="cls-3" d="M46.06,17.27a43,43,0,0,0,8.1-.39"/><ellipse class="cls-3" cx="57" cy="16.57" rx="1.6" ry="5.41" transform="translate(9.89 52.69) rotate(-53.69)"/><ellipse class="cls-3" cx="47.79" cy="15.16" rx="5.33" ry="1.82" transform="translate(-2.22 11.54) rotate(-13.45)"/><path class="cls-4" d="M66.16,84.2a2.08,2.08,0,0,1,.27,1.15c-.07.84-.75,1.16-1.76,2.59-.2.27-.35.51-.44.66a1.35,1.35,0,0,0,.36.89,1,1,0,0,0,1.23.14c.63-.46.73-1.23,1.17-1.21.14,0,.32.11.54.46,0,.3,0,.74-.07,1.29s-.07.6-.07.87a2.19,2.19,0,0,0,.45,1.59,1,1,0,0,0,.75.31c.65-.13.77-1.48.78-1.66a6.61,6.61,0,0,0,0-1c0-.49-.07-.9-.1-1.17a.25.25,0,0,1,.17-.12.27.27,0,0,1,.17.05,9.44,9.44,0,0,1,1,1.7c.17.32.77,1.43,1.51,1.47a.88.88,0,0,0,.81-.46,1.29,1.29,0,0,0,0-.92,3.7,3.7,0,0,0-1-1.52c-.67-.74-1.2-1.12-1.11-1.37a.22.22,0,0,1,.11-.12c.25-.12.57.22,1.1.55s1,.6,1.45.45a.77.77,0,0,0,.49-.46,1.21,1.21,0,0,0-.22-1c-.06-.1-.2-.27-1.12-.79l-.84-.45c-.61-.33-.92-.49-1-.55-.63-.46-.67-1.07-1-1.4C69.27,83.68,68.3,83.38,66.16,84.2Z"/><path class="cls-4" d="M68,86s0,.11,0,.27,0,.15.06.28a1.28,1.28,0,0,0,.29.75s.16.12.22.07,0-.2,0-.4a2.48,2.48,0,0,0-.22-.59.94.94,0,0,0-.27-.35C68.06,86,68,86,68,86Z"/><path class="cls-4" d="M67.54,86.05s0,.11,0,.28,0,.14,0,.28a1.2,1.2,0,0,1,0,.8s-.09.18-.17.15-.1-.17-.13-.38a2.46,2.46,0,0,1,0-.63.82.82,0,0,1,.12-.43C67.51,86,67.53,86.05,67.54,86.05Z"/><path class="cls-4" d="M68.82,85.85s0,.11.07.27,0,.14.06.28a1.31,1.31,0,0,0,.33.73s.16.11.23.06,0-.2-.05-.4a2.55,2.55,0,0,0-.24-.58.84.84,0,0,0-.29-.33C68.85,85.82,68.83,85.84,68.82,85.85Z"/><path class="cls-4" d="M35,84.43a2.07,2.07,0,0,0-.23,1.16c.1.83.79,1.12,1.85,2.51.2.27.36.49.46.64a1.37,1.37,0,0,1-.33.9,1.06,1.06,0,0,1-1.23.19c-.65-.44-.77-1.2-1.21-1.17-.14,0-.32.12-.53.49,0,.29,0,.74.11,1.28s.09.59.1.86a2.18,2.18,0,0,1-.4,1.6,1,1,0,0,1-.74.34c-.66-.11-.82-1.45-.84-1.62a6.81,6.81,0,0,1,0-1c0-.49,0-.89.06-1.17a.25.25,0,0,0-.17-.11.34.34,0,0,0-.17.06,8.86,8.86,0,0,0-.9,1.74c-.16.31-.73,1.44-1.47,1.51a.88.88,0,0,1-.83-.42,1.26,1.26,0,0,1-.07-.92,3.45,3.45,0,0,1,.94-1.56c.65-.76,1.16-1.15,1.06-1.4a.17.17,0,0,0-.11-.11c-.25-.12-.57.23-1.09.58s-1,.63-1.43.5a.76.76,0,0,1-.51-.44,1.29,1.29,0,0,1,.18-1c.07-.1.2-.28,1.11-.83.24-.15.31-.18.83-.48l1-.58c.63-.49.64-1.1,1-1.43C31.85,84,32.82,83.69,35,84.43Z"/><path class="cls-4" d="M33.17,86.33s0,.12-.05.28,0,.14,0,.27c-.06.35-.1.61-.28.76,0,0-.15.13-.21.08s0-.19,0-.4a2.92,2.92,0,0,1,.2-.6.89.89,0,0,1,.26-.35C33.14,86.31,33.16,86.32,33.17,86.33Z"/><path class="cls-4" d="M33.67,86.32s0,.12,0,.28,0,.15-.05.28a1.26,1.26,0,0,0,0,.81s.1.16.18.14.09-.18.11-.38a2.59,2.59,0,0,0,0-.63.91.91,0,0,0-.14-.43C33.7,86.31,33.68,86.32,33.67,86.32Z"/><path class="cls-4" d="M32.38,86.17s0,.12-.06.27,0,.15-.06.28a1.25,1.25,0,0,1-.3.74s-.16.12-.22.07,0-.2,0-.4a2.48,2.48,0,0,1,.22-.59.91.91,0,0,1,.28-.34C32.35,86.15,32.37,86.16,32.38,86.17Z"/><path class="cls-8" d="M44.65,28.89a3,3,0,0,1,2.77,2.28c.5,2-.51,3.92-2.73,3.84a2.82,2.82,0,0,1-3-3.35A2.92,2.92,0,0,1,44.65,28.89Z"/><path class="cls-9" d="M47.46,31.52a3,3,0,0,0-3.35-2.23,2.71,2.71,0,0,0-1.51,1c-.4.59-.46,1.34-.84,1.92-.06.09-.21.15-.27,0a2.75,2.75,0,0,1,.68-2.52,3.29,3.29,0,0,1,2-1.15,3,3,0,0,1,2.2.56,3.12,3.12,0,0,1,1.13,2.36c0,.05,0,.09-.06,0Z"/><ellipse class="cls-10" cx="44.92" cy="32.07" rx="2.14" ry="2.56" transform="translate(-0.08 0.11) rotate(-0.14)"/><path class="cls-8" d="M46.84,31.82a.76.76,0,0,0-.69-.81.83.83,0,1,0,.69.81Z"/><path class="cls-8" d="M56,28.89a3,3,0,0,0-2.77,2.28c-.5,2,.51,3.92,2.74,3.84a2.81,2.81,0,0,0,3-3.35A2.92,2.92,0,0,0,56,28.89Z"/><path class="cls-9" d="M53.23,31.52a3,3,0,0,1,3.35-2.23,2.67,2.67,0,0,1,1.51,1c.41.59.46,1.34.84,1.92.06.09.22.15.27,0a2.7,2.7,0,0,0-.68-2.52,3.27,3.27,0,0,0-2-1.15,3,3,0,0,0-2.21.56,3.12,3.12,0,0,0-1.13,2.36c0,.05,0,.09.06,0Z"/><ellipse class="cls-10" cx="56.26" cy="32.07" rx="2.56" ry="2.14" transform="translate(24.06 88.25) rotate(-89.86)"/><path class="cls-8" d="M56.62,31.82a.7.7,0,1,1,.68.82A.76.76,0,0,1,56.62,31.82Z"/><path class="cls-11" d="M54.11,41.64s-.54,3.23-3.64,3.26a3.59,3.59,0,0,1-3.78-3.35s.62,0,3.51,0Z"/><path class="cls-12" d="M51.15,44.8a4.07,4.07,0,0,1-2.24-.12A3.4,3.4,0,0,1,51.09,43a3.07,3.07,0,0,1,2.39.42A3.73,3.73,0,0,1,51.15,44.8Z"/></g></svg>