<svg xmlns="http://www.w3.org/2000/svg" viewBox="0 0 774 542"><defs><style>.cls-1{isolation:isolate;}.cls-2{fill:#cc8d8c;}.cls-3{fill:#d48342;}.cls-4{fill:#f15934;}.cls-5{fill:#ffecbf;}.cls-6{fill:#edb17d;}.cls-7{fill:#0a7e89;}.cls-8{fill:#089dac;}.cls-9{fill:#facf90;}.cls-10{fill:#bd7184;}.cls-10,.cls-14,.cls-15{mix-blend-mode:multiply;}.cls-11{fill:#c78483;}.cls-12{fill:#ce9792;}.cls-13{fill:#df4e2b;}.cls-15,.cls-20{fill:#e8b5c4;}.cls-16{fill:#ffdc9b;}.cls-17{fill:#463959;}.cls-18{fill:#67547d;}.cls-19{fill:#fee6ad;}.cls-21{fill:#e8bfaa;}.cls-22{fill:#ffb145;}.cls-23{fill:#f09b39;}</style></defs><g class="cls-1"><g id="Hintergrund"><polygon class="cls-2" points="46.93 481.58 41.19 481.58 41.19 514.75 257.67 514.75 254.6 481.58 46.93 481.58"/><polygon class="cls-3" points="248.51 481.58 46.93 481.58 32.06 183.5 248.51 183.5 248.51 481.58"/><polygon class="cls-4" points="77.51 426.06 66.84 426.06 66.13 419.36 77.98 419.58 77.51 426.06"/><polygon class="cls-4" points="65.64 416.3 55.61 416.3 54.94 410.01 66.08 410.22 65.64 416.3"/><polygon class="cls-4" points="53.83 393.25 42.87 393.25 42.13 386.36 54.31 386.59 53.83 393.25"/><polygon class="cls-4" points="52.7 373.13 43.07 373.13 42.43 367.08 53.12 367.29 52.7 373.13"/><polygon class="cls-4" points="111.51 337.2 100.48 337.2 99.75 330.27 112 330.5 111.51 337.2"/><polygon class="cls-4" points="121.17 316.95 111.47 316.95 110.83 310.86 121.6 311.07 121.17 316.95"/><polygon class="cls-4" points="115.36 291.82 104.66 291.82 103.95 285.1 115.83 285.33 115.36 291.82"/><polygon class="cls-4" points="106.74 282.86 96.85 282.86 96.19 276.66 107.17 276.87 106.74 282.86"/><polygon class="cls-4" points="89.89 273.33 79.41 273.33 78.71 266.75 90.35 266.97 89.89 273.33"/><polygon class="cls-4" points="110.89 306.03 101.14 306.03 100.49 299.91 111.32 300.11 110.89 306.03"/><polygon class="cls-4" points="196.91 407.56 186.44 407.56 185.75 400.99 197.36 401.21 196.91 407.56"/><polygon class="cls-4" points="187.54 399.59 176.62 399.59 175.9 392.73 188.02 392.96 187.54 399.59"/><polygon class="cls-4" points="185.72 380.9 175.2 380.9 174.5 374.29 186.18 374.51 185.72 380.9"/><polygon class="cls-4" points="183.55 364.88 173.28 364.88 172.59 358.42 184 358.64 183.55 364.88"/><polygon class="cls-4" points="172.92 358.12 162.12 358.12 161.4 351.34 173.39 351.57 172.92 358.12"/><polygon class="cls-4" points="153.17 357.73 142.24 357.73 141.52 350.87 153.65 351.1 153.17 357.73"/><polygon class="cls-4" points="185.34 437.39 174.72 437.39 174.01 430.72 185.81 430.94 185.34 437.39"/><polygon class="cls-4" points="166.07 426.22 155.18 426.22 154.45 419.38 166.55 419.61 166.07 426.22"/><polygon class="cls-4" points="63.65 458.68 52.94 458.68 52.22 451.95 64.12 452.17 63.65 458.68"/><polygon class="cls-4" points="77.1 473.08 66.56 473.08 65.86 466.46 77.56 466.69 77.1 473.08"/><polygon class="cls-4" points="81.06 448.48 71.13 448.48 70.47 442.24 81.5 442.45 81.06 448.48"/><polygon class="cls-4" points="213.57 372.22 202.81 372.22 202.09 365.46 214.04 365.68 213.57 372.22"/><polygon class="cls-4" points="214.44 356.99 204.52 356.99 203.86 350.76 214.87 350.97 214.44 356.99"/><polygon class="cls-4" points="203.3 340.5 192.7 340.5 191.99 333.84 203.76 334.06 203.3 340.5"/><polygon class="cls-4" points="204.3 315.86 193.79 315.86 193.09 309.26 204.76 309.49 204.3 315.86"/><polygon class="cls-4" points="197.25 341.89 186.83 341.89 186.13 335.35 197.7 335.57 197.25 341.89"/><polygon class="cls-4" points="194.92 329.72 184.3 329.72 183.6 323.06 195.39 323.28 194.92 329.72"/><polygon class="cls-4" points="177.28 309.91 166.6 309.91 165.89 303.2 177.75 303.43 177.28 309.91"/><polygon class="cls-4" points="165.76 230.31 155.24 230.31 154.53 223.7 166.22 223.92 165.76 230.31"/><polygon class="cls-4" points="146.32 223.02 136.59 223.02 135.95 216.91 146.74 217.12 146.32 223.02"/><polygon class="cls-4" points="148.3 205.37 137.7 205.37 136.99 198.71 148.76 198.94 148.3 205.37"/><polygon class="cls-4" points="131.37 202.81 120.42 202.81 119.69 195.94 131.84 196.17 131.37 202.81"/><polygon class="cls-4" points="212.67 209.59 202.05 209.59 201.34 202.92 213.14 203.14 212.67 209.59"/><polygon class="cls-4" points="196.4 225.4 186.72 225.4 186.07 219.32 196.83 219.52 196.4 225.4"/><polygon class="cls-4" points="185.49 224.41 175.34 224.41 174.66 218.03 185.93 218.25 185.49 224.41"/><polygon class="cls-4" points="165.67 210.73 155.93 210.73 155.28 204.61 166.1 204.82 165.67 210.73"/><polygon class="cls-4" points="56.22 254.16 45.95 254.16 45.27 247.71 56.67 247.93 56.22 254.16"/><polygon class="cls-4" points="61.1 231.13 50.99 231.13 50.31 224.78 61.54 225 61.1 231.13"/><polygon class="cls-4" points="47.79 217.33 37.45 217.33 36.77 210.84 48.24 211.06 47.79 217.33"/><polygon class="cls-4" points="92.78 220.07 82.28 220.07 81.58 213.48 93.24 213.7 92.78 220.07"/><polygon class="cls-4" points="71.86 206.89 60.84 206.89 60.1 199.97 72.34 200.2 71.86 206.89"/><polygon class="cls-4" points="127.25 362.23 117.22 362.23 116.55 355.92 127.69 356.14 127.25 362.23"/><polygon class="cls-4" points="114.91 355.68 104.5 355.68 103.8 349.14 115.36 349.36 114.91 355.68"/><polygon class="cls-4" points="96.07 347.79 86.22 347.79 85.57 341.61 96.5 341.82 96.07 347.79"/><polygon class="cls-4" points="103.64 331.18 92.78 331.18 92.06 324.36 104.12 324.58 103.64 331.18"/><polygon class="cls-4" points="86.04 317 75.74 317 75.05 310.53 86.49 310.75 86.04 317"/><polygon class="cls-4" points="194.41 471.94 184.83 471.94 184.19 465.93 194.83 466.13 194.41 471.94"/><polygon class="cls-4" points="188.13 477.78 177.09 477.78 176.36 470.85 188.62 471.08 188.13 477.78"/><polygon class="cls-4" points="174.39 462.09 164.55 462.09 163.9 455.91 174.82 456.12 174.39 462.09"/><polygon class="cls-4" points="149.27 474.41 139.72 474.41 139.09 468.42 149.69 468.62 149.27 474.41"/><polygon class="cls-4" points="132.25 475.87 121.28 475.87 120.55 468.98 132.73 469.21 132.25 475.87"/><polygon class="cls-5" points="106.26 451.64 64.67 451.64 58.83 356.84 103.9 356.84 106.26 451.64"/><polygon class="cls-6" points="68.8 447.74 63.44 360.75 99.63 360.75 101.79 447.74 68.8 447.74"/><polygon class="cls-7" points="70.45 446.18 65.28 362.31 97.92 362.31 100 446.18 70.45 446.18"/><polygon class="cls-8" points="69.82 370.18 75.96 443.34 94.25 443.34 93.96 372.6 69.82 370.18"/><polygon class="cls-9" points="84.42 447.1 80.71 361.43 82.2 361.37 85.91 447.04 84.42 447.1"/><rect class="cls-9" x="66.68" y="393.83" width="33.35" height="1.38"/><rect class="cls-9" x="67.92" y="422.7" width="33.35" height="1.38"/><polygon class="cls-5" points="168.37 451.64 126.78 451.64 120.94 356.84 166.02 356.84 168.37 451.64"/><polygon class="cls-6" points="130.91 447.74 125.55 360.75 161.74 360.75 163.9 447.74 130.91 447.74"/><polygon class="cls-7" points="132.57 446.18 127.4 362.31 160.03 362.31 162.12 446.18 132.57 446.18"/><polygon class="cls-8" points="131.93 370.18 138.07 443.34 156.37 443.34 156.08 372.6 131.93 370.18"/><polygon class="cls-9" points="146.53 447.1 142.83 361.43 144.32 361.37 148.02 447.04 146.53 447.1"/><rect class="cls-9" x="128.79" y="393.83" width="33.35" height="1.38"/><rect class="cls-9" x="130.04" y="422.7" width="33.35" height="1.38"/><polygon class="cls-5" points="230.48 451.64 188.9 451.64 183.05 356.84 228.13 356.84 230.48 451.64"/><polygon class="cls-6" points="193.03 447.74 187.66 360.75 223.86 360.75 226.02 447.74 193.03 447.74"/><polygon class="cls-7" points="194.68 446.18 189.51 362.31 222.15 362.31 224.23 446.18 194.68 446.18"/><polygon class="cls-8" points="194.04 370.18 200.18 443.34 218.48 443.34 218.19 372.6 194.04 370.18"/><polygon class="cls-9" points="208.65 447.1 204.94 361.43 206.43 361.37 210.13 447.04 208.65 447.1"/><rect class="cls-9" x="190.9" y="393.83" width="33.35" height="1.38"/><rect class="cls-9" x="192.15" y="422.7" width="33.35" height="1.38"/><polygon class="cls-5" points="100.62 325.45 57.15 325.45 51.04 230.65 98.16 230.65 100.62 325.45"/><polygon class="cls-6" points="61.47 321.55 55.86 234.56 93.69 234.56 95.95 321.55 61.47 321.55"/><polygon class="cls-7" points="63.2 319.98 57.79 236.12 91.91 236.12 94.08 319.98 63.2 319.98"/><polygon class="cls-8" points="62.53 243.98 68.95 317.14 88.08 317.14 87.77 246.41 62.53 243.98"/><polygon class="cls-9" points="77.79 320.9 73.92 235.23 75.48 235.18 79.35 320.85 77.79 320.9"/><rect class="cls-9" x="59.25" y="267.64" width="34.87" height="1.38"/><rect class="cls-9" x="60.55" y="296.5" width="34.87" height="1.38"/><polygon class="cls-5" points="165.55 325.45 122.08 325.45 115.97 230.65 163.09 230.65 165.55 325.45"/><polygon class="cls-6" points="126.4 321.55 120.79 234.56 158.63 234.56 160.88 321.55 126.4 321.55"/><polygon class="cls-7" points="128.13 319.98 122.72 236.12 156.84 236.12 159.01 319.98 128.13 319.98"/><polygon class="cls-8" points="127.46 243.98 133.88 317.14 153.01 317.14 152.7 246.41 127.46 243.98"/><polygon class="cls-9" points="142.72 320.9 138.85 235.23 140.41 235.18 144.28 320.85 142.72 320.9"/><rect class="cls-9" x="124.18" y="267.64" width="34.87" height="1.38"/><rect class="cls-9" x="125.48" y="296.5" width="34.87" height="1.38"/><polygon class="cls-5" points="230.48 325.45 187.01 325.45 180.9 230.65 228.02 230.65 230.48 325.45"/><polygon class="cls-6" points="191.33 321.55 185.72 234.56 223.56 234.56 225.81 321.55 191.33 321.55"/><polygon class="cls-7" points="193.06 319.98 187.65 236.12 221.77 236.12 223.94 319.98 193.06 319.98"/><polygon class="cls-8" points="192.39 243.98 198.81 317.14 217.94 317.14 217.63 246.41 192.39 243.98"/><polygon class="cls-9" points="207.66 320.9 203.78 235.23 205.34 235.18 209.21 320.85 207.66 320.9"/><rect class="cls-9" x="189.11" y="267.64" width="34.87" height="1.38"/><rect class="cls-9" x="190.41" y="296.5" width="34.87" height="1.38"/><polygon class="cls-6" points="20.64 190.28 23.94 200.18 241.3 200.18 241.3 188.57 20.64 190.28"/><polygon class="cls-5" points="12.28 175.85 17.46 191.2 241.3 191.2 241.3 178.35 12.28 175.85"/><polygon class="cls-5" points="30.96 200.18 33.07 215.15 38.54 215.15 38.98 200.18 30.96 200.18"/><polygon class="cls-5" points="48.15 200.18 50.27 215.15 55.73 215.15 56.17 200.18 48.15 200.18"/><polygon class="cls-5" points="65.35 200.18 67.46 215.15 72.92 215.15 73.37 200.18 65.35 200.18"/><polygon class="cls-5" points="82.54 200.18 84.66 215.15 90.12 215.15 90.56 200.18 82.54 200.18"/><polygon class="cls-5" points="99.74 200.18 101.85 215.15 107.31 215.15 107.76 200.18 99.74 200.18"/><polygon class="cls-5" points="116.93 200.18 119.04 215.15 124.5 215.15 124.95 200.18 116.93 200.18"/><polygon class="cls-5" points="134.12 200.18 136.24 215.15 141.7 215.15 142.14 200.18 134.12 200.18"/><polygon class="cls-5" points="151.32 200.18 153.43 215.15 158.89 215.15 159.34 200.18 151.32 200.18"/><polygon class="cls-5" points="168.51 200.18 170.62 215.15 176.09 215.15 176.53 200.18 168.51 200.18"/><polygon class="cls-5" points="185.71 200.18 187.82 215.15 193.28 215.15 193.73 200.18 185.71 200.18"/><polygon class="cls-5" points="202.9 200.18 205.01 215.15 210.47 215.15 210.92 200.18 202.9 200.18"/><polygon class="cls-5" points="220.09 200.18 222.21 215.15 227.67 215.15 228.11 200.18 220.09 200.18"/><polygon class="cls-10" points="30.96 200.18 214.67 200.18 213.4 191.2 220.09 191.2 218.41 178.1 241.3 178.35 251.84 514.75 224.82 514.75 210.92 207.67 31.63 204.95 30.96 200.18"/><polygon class="cls-11" points="74.03 500.75 65.8 500.75 65.25 495.58 74.39 495.75 74.03 500.75"/><polygon class="cls-11" points="83.1 494.99 75.3 494.99 74.78 490.09 83.44 490.26 83.1 494.99"/><polygon class="cls-11" points="86.03 510.42 78.22 510.42 77.7 505.52 86.37 505.69 86.03 510.42"/><polygon class="cls-11" points="69.03 496.2 61.08 496.2 60.55 491.21 69.38 491.38 69.03 496.2"/><polygon class="cls-11" points="56.12 496.89 48.63 496.89 48.13 492.19 56.45 492.35 56.12 496.89"/><polygon class="cls-11" points="161.42 497.61 153.55 497.61 153.02 492.67 161.76 492.84 161.42 497.61"/><polygon class="cls-11" points="140.77 495.99 133.16 495.99 132.66 491.21 141.1 491.37 140.77 495.99"/><polygon class="cls-11" points="145.17 500.71 137.22 500.71 136.69 495.72 145.52 495.89 145.17 500.71"/><polygon class="cls-11" points="121.24 509.11 113.52 509.11 113 504.26 121.58 504.42 121.24 509.11"/><polygon class="cls-11" points="209.39 493.21 202 493.21 201.51 488.56 209.72 488.72 209.39 493.21"/><polygon class="cls-11" points="198.54 497.39 190.81 497.39 190.3 492.54 198.88 492.7 198.54 497.39"/><polygon class="cls-11" points="215.08 506.69 207.35 506.69 206.84 501.83 215.42 502 215.08 506.69"/><polygon class="cls-11" points="221.16 503.17 213.43 503.17 212.92 498.32 221.5 498.49 221.16 503.17"/><polygon class="cls-11" points="152.74 509.3 145 509.3 144.49 504.44 153.08 504.6 152.74 509.3"/><polygon class="cls-11" points="155.93 488.3 147.95 488.3 147.42 483.29 156.28 483.46 155.93 488.3"/><polygon class="cls-2" points="728.84 481.58 734.58 481.58 734.58 514.75 518.1 514.75 521.16 481.58 728.84 481.58"/><polygon class="cls-3" points="527.26 481.58 728.84 481.58 743.71 183.5 527.26 183.5 527.26 481.58"/><polygon class="cls-4" points="698.25 426.06 708.92 426.06 709.63 419.36 697.79 419.58 698.25 426.06"/><polygon class="cls-4" points="710.13 416.3 720.16 416.3 720.83 410.01 709.69 410.22 710.13 416.3"/><polygon class="cls-4" points="721.94 393.25 732.9 393.25 733.63 386.36 721.46 386.59 721.94 393.25"/><polygon class="cls-4" points="723.07 373.13 732.7 373.13 733.34 367.08 722.65 367.29 723.07 373.13"/><polygon class="cls-4" points="664.26 337.2 675.29 337.2 676.02 330.27 663.77 330.5 664.26 337.2"/><polygon class="cls-4" points="654.6 316.95 664.3 316.95 664.94 310.86 654.17 311.07 654.6 316.95"/><polygon class="cls-4" points="660.41 291.82 671.11 291.82 671.82 285.1 659.94 285.33 660.41 291.82"/><polygon class="cls-4" points="669.03 282.86 678.92 282.86 679.58 276.66 668.6 276.87 669.03 282.86"/><polygon class="cls-4" points="685.88 273.33 696.36 273.33 697.06 266.75 685.42 266.97 685.88 273.33"/><polygon class="cls-4" points="664.88 306.03 674.63 306.03 675.28 299.91 664.45 300.11 664.88 306.03"/><polygon class="cls-4" points="578.86 407.56 589.33 407.56 590.02 400.99 578.41 401.21 578.86 407.56"/><polygon class="cls-4" points="588.23 399.59 599.15 399.59 599.87 392.73 587.75 392.96 588.23 399.59"/><polygon class="cls-4" points="590.05 380.9 600.57 380.9 601.27 374.29 589.59 374.51 590.05 380.9"/><polygon class="cls-4" points="592.22 364.88 602.49 364.88 603.18 358.42 591.77 358.64 592.22 364.88"/><polygon class="cls-4" points="602.85 358.12 613.65 358.12 614.37 351.34 602.38 351.57 602.85 358.12"/><polygon class="cls-4" points="622.6 357.73 633.53 357.73 634.25 350.87 622.12 351.1 622.6 357.73"/><polygon class="cls-4" points="590.42 437.39 601.05 437.39 601.76 430.72 589.96 430.94 590.42 437.39"/><polygon class="cls-4" points="609.7 426.22 620.59 426.22 621.32 419.38 609.22 419.61 609.7 426.22"/><polygon class="cls-4" points="712.12 458.68 722.83 458.68 723.55 451.95 711.65 452.17 712.12 458.68"/><polygon class="cls-4" points="698.67 473.08 709.21 473.08 709.91 466.46 698.21 466.69 698.67 473.08"/><polygon class="cls-4" points="694.71 448.48 704.64 448.48 705.3 442.24 694.27 442.45 694.71 448.48"/><polygon class="cls-4" points="562.2 372.22 572.96 372.22 573.68 365.46 561.72 365.68 562.2 372.22"/><polygon class="cls-4" points="561.33 356.99 571.25 356.99 571.9 350.76 560.9 350.97 561.33 356.99"/><polygon class="cls-4" points="572.47 340.5 583.07 340.5 583.78 333.84 572.01 334.06 572.47 340.5"/><polygon class="cls-4" points="571.47 315.86 581.98 315.86 582.67 309.26 571.01 309.49 571.47 315.86"/><polygon class="cls-4" points="578.52 341.89 588.94 341.89 589.63 335.35 578.07 335.57 578.52 341.89"/><polygon class="cls-4" points="580.85 329.72 591.47 329.72 592.17 323.06 580.38 323.28 580.85 329.72"/><polygon class="cls-4" points="598.49 309.91 609.17 309.91 609.88 303.2 598.02 303.43 598.49 309.91"/><polygon class="cls-4" points="610.01 230.31 620.53 230.31 621.24 223.7 609.55 223.92 610.01 230.31"/><polygon class="cls-4" points="629.45 223.02 639.17 223.02 639.82 216.91 629.03 217.12 629.45 223.02"/><polygon class="cls-4" points="627.47 205.37 638.07 205.37 638.78 198.71 627.01 198.94 627.47 205.37"/><polygon class="cls-4" points="644.4 202.81 655.35 202.81 656.08 195.94 643.92 196.17 644.4 202.81"/><polygon class="cls-4" points="563.1 209.59 573.72 209.59 574.43 202.92 562.63 203.14 563.1 209.59"/><polygon class="cls-4" points="579.37 225.4 589.05 225.4 589.7 219.32 578.94 219.52 579.37 225.4"/><polygon class="cls-4" points="590.28 224.41 600.43 224.41 601.11 218.03 589.84 218.25 590.28 224.41"/><polygon class="cls-4" points="610.1 210.73 619.84 210.73 620.49 204.61 609.67 204.82 610.1 210.73"/><polygon class="cls-4" points="719.55 254.16 729.82 254.16 730.5 247.71 719.1 247.93 719.55 254.16"/><polygon class="cls-4" points="714.67 231.13 724.78 231.13 725.46 224.78 714.23 225 714.67 231.13"/><polygon class="cls-4" points="727.98 217.33 738.32 217.33 739 210.84 727.53 211.06 727.98 217.33"/><polygon class="cls-4" points="682.99 220.07 693.49 220.07 694.19 213.48 682.53 213.7 682.99 220.07"/><polygon class="cls-4" points="703.91 206.89 714.93 206.89 715.67 199.97 703.43 200.2 703.91 206.89"/><polygon class="cls-4" points="648.51 362.23 658.55 362.23 659.22 355.92 648.08 356.14 648.51 362.23"/><polygon class="cls-4" points="660.86 355.68 671.27 355.68 671.97 349.14 660.41 349.36 660.86 355.68"/><polygon class="cls-4" points="679.7 347.79 689.54 347.79 690.2 341.61 679.27 341.82 679.7 347.79"/><polygon class="cls-4" points="672.13 331.18 682.99 331.18 683.71 324.36 671.65 324.58 672.13 331.18"/><polygon class="cls-4" points="689.73 317 700.03 317 700.72 310.53 689.28 310.75 689.73 317"/><polygon class="cls-4" points="581.36 471.94 590.94 471.94 591.58 465.93 580.94 466.13 581.36 471.94"/><polygon class="cls-4" points="587.64 477.78 598.68 477.78 599.41 470.85 587.15 471.08 587.64 477.78"/><polygon class="cls-4" points="601.38 462.09 611.22 462.09 611.87 455.91 600.95 456.12 601.38 462.09"/><polygon class="cls-4" points="626.5 474.41 636.05 474.41 636.68 468.42 626.08 468.62 626.5 474.41"/><polygon class="cls-4" points="643.52 475.87 654.49 475.87 655.22 468.98 643.04 469.21 643.52 475.87"/><polygon class="cls-5" points="669.51 451.64 711.1 451.64 716.94 356.84 671.87 356.84 669.51 451.64"/><polygon class="cls-6" points="706.97 447.74 712.33 360.75 676.14 360.75 673.98 447.74 706.97 447.74"/><polygon class="cls-7" points="705.32 446.18 710.49 362.31 677.85 362.31 675.77 446.18 705.32 446.18"/><polygon class="cls-8" points="705.95 370.18 699.81 443.34 681.51 443.34 681.81 372.6 705.95 370.18"/><polygon class="cls-9" points="691.35 447.1 695.05 361.43 693.57 361.37 689.86 447.04 691.35 447.1"/><rect class="cls-9" x="675.74" y="393.83" width="33.35" height="1.38"/><rect class="cls-9" x="674.49" y="422.7" width="33.35" height="1.38"/><polygon class="cls-5" points="607.4 451.64 648.98 451.64 654.83 356.84 609.75 356.84 607.4 451.64"/><polygon class="cls-6" points="644.85 447.74 650.22 360.75 614.02 360.75 611.87 447.74 644.85 447.74"/><polygon class="cls-7" points="643.2 446.18 648.37 362.31 615.74 362.31 613.65 446.18 643.2 446.18"/><polygon class="cls-8" points="643.84 370.18 637.7 443.34 619.4 443.34 619.69 372.6 643.84 370.18"/><polygon class="cls-9" points="629.24 447.1 632.94 361.43 631.45 361.37 627.75 447.04 629.24 447.1"/><rect class="cls-9" x="613.63" y="393.83" width="33.35" height="1.38"/><rect class="cls-9" x="612.38" y="422.7" width="33.35" height="1.38"/><polygon class="cls-5" points="545.28 451.64 586.87 451.64 592.72 356.84 547.64 356.84 545.28 451.64"/><polygon class="cls-6" points="582.74 447.74 588.11 360.75 551.91 360.75 549.75 447.74 582.74 447.74"/><polygon class="cls-7" points="581.09 446.18 586.26 362.31 553.62 362.31 551.54 446.18 581.09 446.18"/><polygon class="cls-8" points="581.73 370.18 575.59 443.34 557.29 443.34 557.58 372.6 581.73 370.18"/><polygon class="cls-9" points="567.12 447.1 570.83 361.43 569.34 361.37 565.63 447.04 567.12 447.1"/><rect class="cls-9" x="551.51" y="393.83" width="33.35" height="1.38"/><rect class="cls-9" x="550.27" y="422.7" width="33.35" height="1.38"/><polygon class="cls-5" points="675.15 325.45 718.62 325.45 724.73 230.65 677.61 230.65 675.15 325.45"/><polygon class="cls-6" points="714.3 321.55 719.91 234.56 682.07 234.56 679.82 321.55 714.3 321.55"/><polygon class="cls-7" points="712.57 319.98 717.98 236.12 683.86 236.12 681.68 319.98 712.57 319.98"/><polygon class="cls-8" points="713.24 243.98 706.82 317.14 687.69 317.14 688 246.41 713.24 243.98"/><polygon class="cls-9" points="697.98 320.9 701.85 235.23 700.29 235.18 696.42 320.85 697.98 320.9"/><rect class="cls-9" x="681.66" y="267.64" width="34.87" height="1.38"/><rect class="cls-9" x="680.35" y="296.5" width="34.87" height="1.38"/><polygon class="cls-5" points="610.22 325.45 653.69 325.45 659.8 230.65 612.68 230.65 610.22 325.45"/><polygon class="cls-6" points="649.37 321.55 654.98 234.56 617.14 234.56 614.89 321.55 649.37 321.55"/><polygon class="cls-7" points="647.64 319.98 653.05 236.12 618.93 236.12 616.75 319.98 647.64 319.98"/><polygon class="cls-8" points="648.31 243.98 641.89 317.14 622.76 317.14 623.07 246.41 648.31 243.98"/><polygon class="cls-9" points="633.04 320.9 636.92 235.23 635.36 235.18 631.49 320.85 633.04 320.9"/><rect class="cls-9" x="616.73" y="267.64" width="34.87" height="1.38"/><rect class="cls-9" x="615.42" y="296.5" width="34.87" height="1.38"/><polygon class="cls-5" points="545.28 325.45 588.76 325.45 594.87 230.65 547.75 230.65 545.28 325.45"/><polygon class="cls-6" points="584.44 321.55 590.05 234.56 552.21 234.56 549.96 321.55 584.44 321.55"/><polygon class="cls-7" points="582.71 319.98 588.12 236.12 554 236.12 551.82 319.98 582.71 319.98"/><polygon class="cls-8" points="583.38 243.98 576.96 317.14 557.83 317.14 558.14 246.41 583.38 243.98"/><polygon class="cls-9" points="568.11 320.9 571.99 235.23 570.43 235.18 566.56 320.85 568.11 320.9"/><rect class="cls-9" x="551.8" y="267.64" width="34.87" height="1.38"/><rect class="cls-9" x="550.49" y="296.5" width="34.87" height="1.38"/><polygon class="cls-6" points="755.13 190.28 751.83 200.18 534.47 200.18 534.47 188.57 755.13 190.28"/><polygon class="cls-5" points="763.49 175.85 758.31 191.2 534.47 191.2 534.47 178.35 763.49 175.85"/><polygon class="cls-5" points="744.81 200.18 742.7 215.15 737.23 215.15 736.79 200.18 744.81 200.18"/><polygon class="cls-5" points="727.62 200.18 725.5 215.15 720.04 215.15 719.59 200.18 727.62 200.18"/><polygon class="cls-5" points="710.42 200.18 708.31 215.15 702.85 215.15 702.4 200.18 710.42 200.18"/><polygon class="cls-5" points="693.23 200.18 691.12 215.15 685.65 215.15 685.21 200.18 693.23 200.18"/><polygon class="cls-5" points="676.03 200.18 673.92 215.15 668.46 215.15 668.01 200.18 676.03 200.18"/><polygon class="cls-5" points="658.84 200.18 656.73 215.15 651.26 215.15 650.82 200.18 658.84 200.18"/><polygon class="cls-5" points="641.65 200.18 639.53 215.15 634.07 215.15 633.63 200.18 641.65 200.18"/><polygon class="cls-5" points="624.45 200.18 622.34 215.15 616.88 215.15 616.43 200.18 624.45 200.18"/><polygon class="cls-5" points="607.26 200.18 605.15 215.15 599.68 215.15 599.24 200.18 607.26 200.18"/><polygon class="cls-5" points="590.06 200.18 587.95 215.15 582.49 215.15 582.04 200.18 590.06 200.18"/><polygon class="cls-5" points="572.87 200.18 570.76 215.15 565.29 215.15 564.85 200.18 572.87 200.18"/><polygon class="cls-5" points="555.68 200.18 553.56 215.15 548.1 215.15 547.66 200.18 555.68 200.18"/><polygon class="cls-10" points="744.81 200.18 561.1 200.18 562.37 191.2 555.68 191.2 557.36 178.1 534.47 178.35 523.92 514.75 550.95 514.75 564.85 207.67 744.14 204.95 744.81 200.18"/><polygon class="cls-11" points="701.74 500.75 709.97 500.75 710.52 495.58 701.38 495.75 701.74 500.75"/><polygon class="cls-11" points="692.66 494.99 700.47 494.99 700.99 490.09 692.32 490.26 692.66 494.99"/><polygon class="cls-11" points="689.74 510.42 697.55 510.42 698.07 505.52 689.4 505.69 689.74 510.42"/><polygon class="cls-11" points="706.74 496.2 714.69 496.2 715.22 491.21 706.39 491.38 706.74 496.2"/><polygon class="cls-11" points="719.65 496.89 727.14 496.89 727.64 492.19 719.32 492.35 719.65 496.89"/><polygon class="cls-11" points="614.35 497.61 622.22 497.61 622.75 492.67 614 492.84 614.35 497.61"/><polygon class="cls-11" points="635 495.99 642.61 495.99 643.11 491.21 634.67 491.37 635 495.99"/><polygon class="cls-11" points="630.6 500.71 638.55 500.71 639.08 495.72 630.25 495.89 630.6 500.71"/><polygon class="cls-11" points="654.53 509.11 662.25 509.11 662.76 504.26 654.19 504.42 654.53 509.11"/><polygon class="cls-11" points="566.38 493.21 573.77 493.21 574.26 488.56 566.05 488.72 566.38 493.21"/><polygon class="cls-11" points="577.23 497.39 584.96 497.39 585.47 492.54 576.89 492.7 577.23 497.39"/><polygon class="cls-11" points="560.69 506.69 568.41 506.69 568.93 501.83 560.35 502 560.69 506.69"/><polygon class="cls-11" points="554.61 503.17 562.34 503.17 562.85 498.32 554.27 498.49 554.61 503.17"/><polygon class="cls-11" points="623.03 509.3 630.77 509.3 631.28 504.44 622.69 504.6 623.03 509.3"/><polygon class="cls-11" points="619.84 488.3 627.82 488.3 628.35 483.29 619.49 483.46 619.84 488.3"/><polygon class="cls-12" points="541.03 472.93 538.75 520.43 238.97 520.43 236.69 472.93 244.02 472.93 533.7 472.93 541.03 472.93"/><polygon class="cls-3" points="482.37 133.87 295.37 133.87 388.87 47.01 482.37 133.87"/><polygon class="cls-5" points="572.9 103.81 568.97 124.72 565.27 124.72 484.57 124.72 388.87 34.37 293.15 124.72 212.47 124.72 208.77 124.72 204.84 103.81 290.53 107.69 388.87 11.91 487.19 107.69 572.9 103.81"/><polygon class="cls-6" points="565.27 124.72 563.21 133.87 559.35 133.87 482.37 133.87 388.87 47.01 295.37 133.87 218.37 133.87 214.51 133.87 212.47 124.72 293.15 124.72 388.87 34.37 484.57 124.72 565.27 124.72"/><polygon class="cls-5" points="559.35 133.87 557.45 144.25 544.43 144.25 233.31 144.25 220.29 144.25 218.37 133.87 295.37 133.87 482.37 133.87 559.35 133.87"/><polygon class="cls-3" points="544.43 144.25 533.7 472.93 244.02 472.93 233.31 144.25 544.43 144.25"/><polygon class="cls-13" points="260.22 244.66 249.24 244.66 248.51 237.77 260.7 238 260.22 244.66"/><polygon class="cls-13" points="254.96 222.85 244.13 222.85 243.41 216.05 255.43 216.28 254.96 222.85"/><polygon class="cls-13" points="261.97 202.15 251.88 202.15 251.21 195.82 262.41 196.03 261.97 202.15"/><polygon class="cls-13" points="267.11 181.65 256.61 181.65 255.91 175.05 267.57 175.28 267.11 181.65"/><polygon class="cls-13" points="273.17 186.59 263.34 186.59 262.68 180.41 273.6 180.62 273.17 186.59"/><polygon class="cls-13" points="281.06 176.05 271.3 176.05 270.64 169.91 281.49 170.12 281.06 176.05"/><polygon class="cls-13" points="278.34 229.76 267.92 229.76 267.22 223.22 278.8 223.44 278.34 229.76"/><polygon class="cls-13" points="525.24 325.27 514.93 325.27 514.25 318.8 525.69 319.02 525.24 325.27"/><polygon class="cls-13" points="509.55 308.56 499.16 308.56 498.46 302.03 510 302.25 509.55 308.56"/><polygon class="cls-13" points="520.02 293.55 510.13 293.55 509.47 287.34 520.45 287.55 520.02 293.55"/><polygon class="cls-13" points="508.25 266.99 498.27 266.99 497.61 260.73 508.68 260.94 508.25 266.99"/><polygon class="cls-13" points="502.43 358.3 491.51 358.3 490.78 351.44 502.9 351.67 502.43 358.3"/><polygon class="cls-13" points="501.09 344.66 491.29 344.66 490.64 338.51 501.52 338.72 501.09 344.66"/><polygon class="cls-13" points="509.38 326.23 498.91 326.23 498.22 319.66 509.83 319.88 509.38 326.23"/><polygon class="cls-13" points="531.31 230.64 521.37 230.64 520.71 224.4 531.74 224.61 531.31 230.64"/><polygon class="cls-13" points="312.83 404.21 302.71 404.21 302.03 397.86 313.27 398.07 312.83 404.21"/><polygon class="cls-13" points="299.87 394.95 289.07 394.95 288.36 388.17 300.34 388.4 299.87 394.95"/><polygon class="cls-13" points="302.43 380.96 292.68 380.96 292.03 374.83 302.86 375.04 302.43 380.96"/><polygon class="cls-13" points="296.74 366.85 286.27 366.85 285.57 360.28 297.2 360.5 296.74 366.85"/><polygon class="cls-13" points="301.78 343.24 291.36 343.24 290.66 336.69 302.23 336.91 301.78 343.24"/><polygon class="cls-13" points="334.66 395.11 323.83 395.11 323.11 388.31 335.13 388.54 334.66 395.11"/><polygon class="cls-13" points="320.06 377.81 310.27 377.81 309.62 371.67 320.49 371.87 320.06 377.81"/><polygon class="cls-13" points="323.62 421.18 313.1 421.18 312.4 414.58 324.08 414.8 323.62 421.18"/><polygon class="cls-13" points="318.47 387.25 307.78 387.25 307.07 380.53 318.94 380.76 318.47 387.25"/><polygon class="cls-13" points="259.38 470.46 248.4 470.46 247.67 463.57 259.86 463.8 259.38 470.46"/><polygon class="cls-13" points="274.77 453.25 265.22 453.25 264.59 447.25 275.18 447.46 274.77 453.25"/><polygon class="cls-13" points="272.38 432.9 261.42 432.9 260.69 426.02 272.86 426.25 272.38 432.9"/><polygon class="cls-13" points="269.29 457.89 258.39 457.89 257.67 451.05 269.76 451.28 269.29 457.89"/><polygon class="cls-13" points="261.48 442.17 250.75 442.17 250.03 435.43 261.95 435.66 261.48 442.17"/><polygon class="cls-13" points="522.73 451.64 512.08 451.64 511.37 444.96 523.2 445.18 522.73 451.64"/><polygon class="cls-13" points="511.02 458.09 500.25 458.09 499.53 451.33 511.49 451.56 511.02 458.09"/><polygon class="cls-13" points="535.14 429.06 527.9 429.06 527.24 422.81 535.34 422.96 535.14 429.06"/><polygon class="cls-13" points="526 435.04 515.82 435.04 515.15 428.65 526.45 428.87 526 435.04"/><polygon class="cls-13" points="352.18 194.08 342.1 194.08 341.43 187.75 352.62 187.96 352.18 194.08"/><polygon class="cls-13" points="344.91 175.83 334.72 175.83 334.04 169.43 345.36 169.65 344.91 175.83"/><polygon class="cls-13" points="371.46 179.06 360.39 179.06 359.65 172.11 371.94 172.34 371.46 179.06"/><polygon class="cls-13" points="450.83 221.38 440.68 221.38 440.01 215.01 451.27 215.22 450.83 221.38"/><polygon class="cls-13" points="444.53 215.85 434.28 215.85 433.59 209.41 444.98 209.62 444.53 215.85"/><polygon class="cls-13" points="450.52 272.97 460.66 272.97 461.34 266.6 450.07 266.82 450.52 272.97"/><polygon class="cls-13" points="456.81 267.44 467.07 267.44 467.75 261 456.37 261.22 456.81 267.44"/><polygon class="cls-13" points="462.51 255.39 472.76 255.39 473.44 248.95 462.06 249.17 462.51 255.39"/><polygon class="cls-13" points="465.15 197.59 455.12 197.59 454.45 191.29 465.59 191.51 465.15 197.59"/><polygon class="cls-13" points="482.67 216.06 473.09 216.06 472.45 210.04 483.09 210.24 482.67 216.06"/><polygon class="cls-13" points="471.22 203.4 460.72 203.4 460.02 196.8 471.68 197.02 471.22 203.4"/><polygon class="cls-13" points="383.24 307.46 372.72 307.46 372.02 300.86 383.7 301.08 383.24 307.46"/><polygon class="cls-13" points="395.73 280.85 384.97 280.85 384.25 274.1 396.2 274.32 395.73 280.85"/><polygon class="cls-13" points="399.49 261.4 388.44 261.4 387.7 254.46 399.97 254.7 399.49 261.4"/><polygon class="cls-13" points="407.04 339.61 396.75 339.61 396.07 333.15 407.49 333.36 407.04 339.61"/><polygon class="cls-13" points="400.26 317.08 389.52 317.08 388.81 310.34 400.73 310.56 400.26 317.08"/><polygon class="cls-13" points="414.85 292.2 403.92 292.2 403.19 285.33 415.33 285.56 414.85 292.2"/><polygon class="cls-13" points="421.88 440.41 410.89 440.41 410.16 433.51 422.36 433.74 421.88 440.41"/><polygon class="cls-13" points="419.66 418.08 408.79 418.08 408.06 411.25 420.13 411.48 419.66 418.08"/><polygon class="cls-13" points="404.28 401.13 394.09 401.13 393.41 394.73 404.73 394.94 404.28 401.13"/><polygon class="cls-13" points="435.4 429.51 424.39 429.51 423.66 422.6 435.88 422.83 435.4 429.51"/><polygon class="cls-13" points="270.86 325.67 260.56 325.67 259.88 319.2 271.31 319.42 270.86 325.67"/><polygon class="cls-13" points="278.93 297.78 268.08 297.78 267.36 290.97 279.4 291.2 278.93 297.78"/><polygon class="cls-13" points="374 409.06 364.36 409.06 363.72 403 374.43 403.2 374 409.06"/><polygon class="cls-13" points="373.38 395.41 363.5 395.41 362.84 389.2 373.81 389.41 373.38 395.41"/><polygon class="cls-13" points="447.55 466.28 437.31 466.28 436.63 459.85 448 460.07 447.55 466.28"/><polygon class="cls-13" points="450.7 443.64 440.43 443.64 439.74 437.19 451.15 437.41 450.7 443.64"/><polygon class="cls-13" points="467.38 449.38 457.54 449.38 456.88 443.2 467.81 443.4 467.38 449.38"/><polygon class="cls-13" points="328.06 240.75 317.6 240.75 316.9 234.18 328.52 234.4 328.06 240.75"/><polygon class="cls-13" points="316.08 221.51 305.96 221.51 305.29 215.15 316.53 215.37 316.08 221.51"/><polygon class="cls-13" points="479.89 388.27 470.01 388.27 469.35 382.07 480.33 382.28 479.89 388.27"/><polygon class="cls-13" points="444.47 132.52 434.46 132.52 433.8 126.23 444.91 126.44 444.47 132.52"/><polygon class="cls-13" points="428.6 112.41 417.59 112.41 416.86 105.5 429.08 105.73 428.6 112.41"/><polygon class="cls-13" points="429.07 93.6 418.61 93.6 417.91 87.03 429.53 87.25 429.07 93.6"/><polygon class="cls-13" points="372.17 131.16 361.31 131.16 360.59 124.34 372.64 124.57 372.17 131.16"/><polygon class="cls-13" points="351.82 120.28 341.9 120.28 341.24 114.04 352.26 114.25 351.82 120.28"/><polygon class="cls-13" points="345.15 111.22 335.55 111.22 334.9 105.19 345.57 105.39 345.15 111.22"/><polygon class="cls-13" points="448.89 120.45 438.32 120.45 437.62 113.82 449.35 114.04 448.89 120.45"/><polygon class="cls-5" points="238.28 157.04 233.16 157.04 232.42 144.25 239.01 144.25 238.28 157.04"/><g class="cls-14"><polygon class="cls-10" points="233.16 157.04 239.01 158.47 241.3 144.25 239.01 144.25 238.28 157.04 233.16 157.04"/></g><polygon class="cls-5" points="255.31 157.04 250.19 157.04 249.45 144.25 256.04 144.25 255.31 157.04"/><g class="cls-14"><polygon class="cls-10" points="250.19 157.04 256.04 158.47 258.33 144.25 256.04 144.25 255.31 157.04 250.19 157.04"/></g><polygon class="cls-5" points="272.34 157.04 267.21 157.04 266.48 144.25 273.07 144.25 272.34 157.04"/><g class="cls-14"><polygon class="cls-10" points="267.21 157.04 273.07 158.47 275.36 144.25 273.07 144.25 272.34 157.04 267.21 157.04"/></g><polygon class="cls-5" points="289.37 157.04 284.24 157.04 283.51 144.25 290.1 144.25 289.37 157.04"/><g class="cls-14"><polygon class="cls-10" points="284.24 157.04 290.1 158.47 292.38 144.25 290.1 144.25 289.37 157.04 284.24 157.04"/></g><polygon class="cls-5" points="306.39 157.04 301.27 157.04 300.54 144.25 307.13 144.25 306.39 157.04"/><g class="cls-14"><polygon class="cls-10" points="301.27 157.04 307.13 158.47 309.41 144.25 307.13 144.25 306.39 157.04 301.27 157.04"/></g><polygon class="cls-5" points="323.42 157.04 318.3 157.04 317.56 144.25 324.16 144.25 323.42 157.04"/><g class="cls-14"><polygon class="cls-10" points="318.3 157.04 324.16 158.47 326.44 144.25 324.16 144.25 323.42 157.04 318.3 157.04"/></g><polygon class="cls-5" points="340.45 157.04 335.33 157.04 334.59 144.25 341.19 144.25 340.45 157.04"/><g class="cls-14"><polygon class="cls-10" points="335.33 157.04 341.19 158.47 343.47 144.25 341.19 144.25 340.45 157.04 335.33 157.04"/></g><polygon class="cls-5" points="357.48 157.04 352.36 157.04 351.62 144.25 358.21 144.25 357.48 157.04"/><g class="cls-14"><polygon class="cls-10" points="352.36 157.04 358.21 158.47 360.5 144.25 358.21 144.25 357.48 157.04 352.36 157.04"/></g><polygon class="cls-5" points="374.51 157.04 369.38 157.04 368.65 144.25 375.24 144.25 374.51 157.04"/><g class="cls-14"><polygon class="cls-10" points="369.38 157.04 375.24 158.47 377.53 144.25 375.24 144.25 374.51 157.04 369.38 157.04"/></g><polygon class="cls-5" points="391.54 157.04 386.41 157.04 385.68 144.25 392.27 144.25 391.54 157.04"/><g class="cls-14"><polygon class="cls-10" points="386.41 157.04 392.27 158.47 394.55 144.25 392.27 144.25 391.54 157.04 386.41 157.04"/></g><polygon class="cls-5" points="408.56 157.04 403.44 157.04 402.71 144.25 409.3 144.25 408.56 157.04"/><g class="cls-14"><polygon class="cls-10" points="403.44 157.04 409.3 158.47 411.58 144.25 409.3 144.25 408.56 157.04 403.44 157.04"/></g><polygon class="cls-5" points="425.59 157.04 420.47 157.04 419.73 144.25 426.33 144.25 425.59 157.04"/><g class="cls-14"><polygon class="cls-10" points="420.47 157.04 426.33 158.47 428.61 144.25 426.33 144.25 425.59 157.04 420.47 157.04"/></g><polygon class="cls-5" points="442.62 157.04 437.5 157.04 436.76 144.25 443.36 144.25 442.62 157.04"/><g class="cls-14"><polygon class="cls-10" points="437.5 157.04 443.36 158.47 445.64 144.25 443.36 144.25 442.62 157.04 437.5 157.04"/></g><polygon class="cls-5" points="459.65 157.04 454.53 157.04 453.79 144.25 460.38 144.25 459.65 157.04"/><g class="cls-14"><polygon class="cls-10" points="454.53 157.04 460.38 158.47 462.67 144.25 460.38 144.25 459.65 157.04 454.53 157.04"/></g><polygon class="cls-5" points="476.68 157.04 471.56 157.04 470.82 144.25 477.41 144.25 476.68 157.04"/><g class="cls-14"><polygon class="cls-10" points="471.56 157.04 477.41 158.47 479.7 144.25 477.41 144.25 476.68 157.04 471.56 157.04"/></g><polygon class="cls-5" points="493.71 157.04 488.58 157.04 487.85 144.25 494.44 144.25 493.71 157.04"/><g class="cls-14"><polygon class="cls-10" points="488.58 157.04 494.44 158.47 496.73 144.25 494.44 144.25 493.71 157.04 488.58 157.04"/></g><polygon class="cls-5" points="510.74 157.04 505.61 157.04 504.88 144.25 511.47 144.25 510.74 157.04"/><g class="cls-14"><polygon class="cls-10" points="505.61 157.04 511.47 158.47 513.75 144.25 511.47 144.25 510.74 157.04 505.61 157.04"/></g><polygon class="cls-5" points="527.76 157.04 522.64 157.04 521.9 144.25 528.5 144.25 527.76 157.04"/><g class="cls-14"><polygon class="cls-10" points="522.64 157.04 528.5 158.47 530.78 144.25 528.5 144.25 527.76 157.04 522.64 157.04"/></g><polygon class="cls-5" points="544.15 157.04 539.03 157.04 538.29 144.25 544.89 144.25 544.15 157.04"/><g class="cls-14"><polygon class="cls-10" points="539.03 157.04 543.97 158.39 544.01 157.04 539.03 157.04"/></g><polygon class="cls-10" points="232.42 144.25 544.89 144.25 544.48 151.36 232.74 149.78 232.42 144.25"/><polygon class="cls-15" points="212.47 124.72 213.14 127.73 294.05 128.8 388.87 39.72 483.93 128.8 564.01 130.31 565.27 124.72 484.57 124.72 388.87 34.37 293.15 124.72 212.47 124.72"/><polygon class="cls-10" points="295.37 133.87 388.87 47.01 482.37 133.87 470.82 133.87 387.08 57.89 303.83 133.87 295.37 133.87"/><g class="cls-14"><path class="cls-10" d="M412.94,98.74c0-14.2-10.15-24-22.73-24A24,24,0,0,0,366.35,99c0,14.21,11.27,27.11,23.86,27.11S412.94,112.94,412.94,98.74Z"/></g><path class="cls-5" d="M411.4,96.05c0-14.2-10.16-24-22.74-24A24,24,0,0,0,364.8,96.34c0,14.2,11.27,27.1,23.86,27.1S411.4,110.25,411.4,96.05Z"/><path class="cls-16" d="M388.8,119.74c-9.72,0-18.91-11-18.91-22.61,0-12.28,9.62-19.62,18.91-19.62,10.29,0,17.76,8.12,17.76,19.31C406.56,109,398.26,119.74,388.8,119.74Z"/><path class="cls-17" d="M388.72,116.72c-8.33,0-16.2-9.42-16.2-19.38a16.34,16.34,0,0,1,16.2-16.81c8.82,0,15.22,7,15.22,16.55C403.94,107.54,396.82,116.72,388.72,116.72Z"/><path class="cls-18" d="M388.5,115.2c-6.8,0-13.23-7.69-13.23-15.83A13.34,13.34,0,0,1,388.5,85.64c7.2,0,12.43,5.69,12.43,13.52C400.93,107.7,395.12,115.2,388.5,115.2Z"/><polygon class="cls-19" points="377.11 98.94 379.91 98.84 379.91 97.92 377.11 97.83 377.11 98.94"/><polygon class="cls-19" points="388.1 108.41 388.01 111.58 389 111.58 388.91 108.41 388.1 108.41"/><polygon class="cls-19" points="388.91 90.14 389 84.48 388.01 84.48 388.1 90.14 388.91 90.14"/><polygon class="cls-19" points="398.12 97.92 398.12 98.84 400.93 98.94 400.93 97.83 398.12 97.92"/><path class="cls-19" d="M389.37,97.52h0l0,0a1.8,1.8,0,0,0-.2-.19L384.68,93l2.42,5.25L381,106.81l8.39-7.49,0,0a1.48,1.48,0,0,0,.32-.91A1.4,1.4,0,0,0,389.37,97.52Z"/><polygon class="cls-5" points="305.75 290.97 258.49 290.97 251.84 168.8 303.08 168.8 305.75 290.97"/><polygon class="cls-6" points="263.18 285.94 257.09 173.83 298.22 173.83 300.68 285.94 263.18 285.94"/><polygon class="cls-7" points="265.06 283.92 259.18 175.85 296.28 175.85 298.64 283.92 265.06 283.92"/><polygon class="cls-8" points="264.34 185.98 271.31 280.26 292.11 280.26 291.78 189.11 264.34 185.98"/><polygon class="cls-9" points="281.03 285.11 276.82 174.7 278.31 174.63 282.52 285.04 281.03 285.11"/><rect class="cls-9" x="260.77" y="216.51" width="37.91" height="1.68"/><rect class="cls-9" x="262.18" y="253.71" width="37.91" height="1.68"/><polygon class="cls-5" points="308.45 429.51 266.86 429.51 261.02 313.71 306.1 313.71 308.45 429.51"/><polygon class="cls-6" points="270.99 424.74 265.63 318.48 301.82 318.48 303.98 424.74 270.99 424.74"/><polygon class="cls-7" points="272.64 422.83 267.47 320.39 300.11 320.39 302.19 422.83 272.64 422.83"/><polygon class="cls-8" points="272.01 329.99 278.15 419.36 296.45 419.36 296.15 332.96 272.01 329.99"/><polygon class="cls-9" points="286.61 423.96 282.9 319.3 284.39 319.24 288.1 423.89 286.61 423.96"/><rect class="cls-9" x="268.87" y="358.89" width="33.35" height="1.68"/><rect class="cls-9" x="270.11" y="394.15" width="33.35" height="1.68"/><polygon class="cls-5" points="471.02 429.51 512.61 429.51 518.45 313.71 473.38 313.71 471.02 429.51"/><polygon class="cls-6" points="508.48 424.74 513.84 318.48 477.65 318.48 475.49 424.74 508.48 424.74"/><polygon class="cls-7" points="506.83 422.83 512 320.39 479.36 320.39 477.28 422.83 506.83 422.83"/><polygon class="cls-8" points="507.46 329.99 501.32 419.36 483.02 419.36 483.32 332.96 507.46 329.99"/><polygon class="cls-9" points="492.86 423.96 491.37 423.89 495.08 319.24 496.57 319.3 492.86 423.96"/><rect class="cls-9" x="477.25" y="358.89" width="33.35" height="1.68"/><rect class="cls-9" x="476" y="394.15" width="33.35" height="1.68"/><polygon class="cls-5" points="519.1 290.97 471.84 290.97 474.29 168.8 525.52 168.8 519.1 290.97"/><polygon class="cls-6" points="476.91 285.94 479.15 173.83 520.29 173.83 514.4 285.94 476.91 285.94"/><polygon class="cls-7" points="478.93 283.92 481.1 175.85 518.2 175.85 512.52 283.92 478.93 283.92"/><polygon class="cls-8" points="485.5 185.98 485.46 280.26 506.26 280.26 512.71 189.11 485.5 185.98"/><polygon class="cls-9" points="496.31 285.11 494.82 285.04 498.83 174.63 500.32 174.7 496.31 285.11"/><rect class="cls-9" x="479.6" y="216.51" width="37.91" height="1.68"/><rect class="cls-9" x="478.24" y="253.71" width="37.91" height="1.68"/><polygon class="cls-5" points="434.19 290.97 343.28 290.97 341.02 168.8 436.45 168.8 434.19 290.97"/><polygon class="cls-6" points="348.85 285.94 346.77 173.83 430.7 173.83 428.63 285.94 348.85 285.94"/><polygon class="cls-7" points="351.08 283.92 349.08 175.85 428.4 175.85 426.4 283.92 351.08 283.92"/><polygon class="cls-8" points="354.51 185.98 358.36 280.26 419.12 280.26 422.7 189.11 354.51 185.98"/><rect class="cls-9" x="370.22" y="174.67" width="1.49" height="110.41"/><rect class="cls-9" x="405.47" y="174.67" width="1.49" height="110.41"/><rect class="cls-9" x="349.08" y="216.51" width="80.25" height="1.68"/><rect class="cls-9" x="349.08" y="253.71" width="80.25" height="1.68"/><polygon class="cls-10" points="463.46 313.71 488.07 337.56 481.52 455.22 515.15 520.43 448 520.43 448 313.71 463.46 313.71"/><polygon class="cls-6" points="304.49 468.93 309.13 468.93 307.89 477.8 305.83 477.8 303.41 528.07 298.98 528.07 299.34 468.93 304.49 468.93"/><polygon class="cls-5" points="298.98 528.07 275.39 528.07 274.05 477.8 300.33 477.8 298.98 528.07"/><polygon class="cls-5" points="304.01 477.8 270.36 477.8 269.89 468.93 304.49 468.93 304.01 477.8"/><ellipse class="cls-5" cx="288.35" cy="455.22" rx="12.15" ry="13.71"/><path class="cls-6" d="M295.91,447.69a12.64,12.64,0,0,1,.54,3.52c0,6.31-4.53,11.42-10.12,11.42a9.63,9.63,0,0,1-7.56-3.89c1.33,4.58,5.09,7.9,9.58,7.9,5.59,0,10.13-5.11,10.13-11.42A12.16,12.16,0,0,0,295.91,447.69Z"/><polygon class="cls-6" points="274.05 477.8 300.33 477.8 300.33 484.24 274.18 482.82 274.05 477.8"/><path class="cls-9" d="M294.72,523.48H279.88l-.87-43h15.71Zm-13.87-1.12h12.88V481.58H280Z"/><polygon class="cls-6" points="476.38 468.93 471.74 468.93 472.97 477.8 475.03 477.8 477.45 528.07 481.88 528.07 481.52 468.93 476.38 468.93"/><polygon class="cls-5" points="481.88 528.07 505.47 528.07 506.82 477.8 480.53 477.8 481.88 528.07"/><polygon class="cls-5" points="476.85 477.8 510.5 477.8 510.97 468.93 476.38 468.93 476.85 477.8"/><ellipse class="cls-5" cx="491.37" cy="455.22" rx="12.15" ry="13.71"/><path class="cls-6" d="M498.38,447.69a12.28,12.28,0,0,1,.54,3.52c0,6.31-4.53,11.42-10.12,11.42a9.59,9.59,0,0,1-7.55-3.89c1.32,4.58,5.09,7.9,9.58,7.9,5.59,0,10.12-5.11,10.12-11.42A12.16,12.16,0,0,0,498.38,447.69Z"/><polygon class="cls-6" points="506.82 477.8 480.53 477.8 480.53 484.24 506.68 482.82 506.82 477.8"/><path class="cls-9" d="M501,523.48H486.14v-43h15.72Zm-13.86-1.12H500l.82-40.78H487.13Z"/><polygon class="cls-5" points="462.72 322.04 315.11 322.04 314.36 313.71 463.46 313.71 462.72 322.04"/><polygon class="cls-5" points="460.35 353.5 317.48 353.5 316.76 345.18 461.07 345.18 460.35 353.5"/><polygon class="cls-5" points="457.26 345.18 320.56 345.18 318.91 322.04 458.91 322.04 457.26 345.18"/><path class="cls-6" d="M323.69,325.59l1.37,15.13,127.83.87,1.5-16ZM452,340.46l-126-.85-1.17-12.9h128.5Z"/><g class="cls-14"><polygon class="cls-20" points="318.91 322.04 458.91 322.04 458.41 329.14 319.29 327.41 318.91 322.04"/></g><polygon class="cls-5" points="455.13 441.01 456.21 447.57 436.67 447.41 437.85 441.01 438.89 441.01 454.38 441.01 455.13 441.01"/><polygon class="cls-6" points="456.19 353.5 455.99 354.45 437.03 354.68 436.78 353.5 456.19 353.5"/><polygon class="cls-5" points="455.99 354.45 455.13 358.63 453.54 358.63 439.73 358.63 437.85 358.63 437.03 354.68 455.99 354.45"/><polygon class="cls-5" points="453.56 360.43 454.38 441.01 438.89 441.01 439.71 360.14 453.56 360.43"/><polygon class="cls-6" points="453.54 358.63 453.56 360.43 439.71 360.14 439.73 358.63 453.54 358.63"/><polygon class="cls-6" points="438.89 441.01 450.5 440.06 450.28 359.91 452.39 360.14 452.86 439.98 454.38 440.6 454.38 441 438.89 441.01"/><polygon class="cls-5" points="340.9 441.01 341.99 447.57 322.44 447.41 323.62 441.01 324.67 441.01 340.15 441.01 340.9 441.01"/><polygon class="cls-6" points="341.97 353.5 341.76 354.45 322.8 354.68 322.55 353.5 341.97 353.5"/><polygon class="cls-5" points="341.76 354.45 340.9 358.63 339.31 358.63 325.51 358.63 323.62 358.63 322.8 354.68 341.76 354.45"/><polygon class="cls-5" points="339.33 360.43 340.15 441.01 324.67 441.01 325.49 360.14 339.33 360.43"/><polygon class="cls-6" points="339.31 358.63 339.33 360.43 325.49 360.14 325.51 358.63 339.31 358.63"/><polygon class="cls-6" points="324.67 441.01 336.28 440.06 336.06 359.91 338.16 360.14 338.63 439.98 340.15 440.6 340.15 441 324.67 441.01"/><polygon class="cls-21" points="462.67 460.89 319.71 460.89 318.91 447.57 463.46 447.57 462.67 460.89"/><polygon class="cls-21" points="467.1 474.32 315.28 474.32 314.43 461 467.95 461 467.1 474.32"/><polygon class="cls-21" points="471.53 487.76 310.84 487.76 309.94 474.44 472.43 474.44 471.53 487.76"/><polygon class="cls-21" points="475.97 501.2 306.41 501.2 305.46 487.88 476.92 487.88 475.97 501.2"/><polygon class="cls-21" points="480.4 514.63 301.98 514.63 300.98 501.31 481.4 501.31 480.4 514.63"/><polygon class="cls-21" points="484.83 528.07 297.54 528.07 296.49 514.75 485.88 514.75 484.83 528.07"/><polygon class="cls-12" points="319.37 455.22 462.82 458.25 462.67 460.89 319.71 460.89 319.37 455.22"/><polygon class="cls-12" points="314.93 468.87 467.28 471.52 467.1 474.32 315.28 474.32 314.93 468.87"/><polygon class="cls-12" points="310.5 482.52 471.74 484.79 471.53 487.76 310.84 487.76 310.5 482.52"/><polygon class="cls-12" points="306.06 496.17 476.19 498.06 475.97 501.2 306.41 501.2 306.06 496.17"/><polygon class="cls-12" points="301.62 509.81 480.65 511.33 480.4 514.63 301.98 514.63 301.62 509.81"/><polygon class="cls-12" points="297.18 523.46 485.11 524.61 484.83 528.07 297.54 528.07 297.18 523.46"/><polygon class="cls-22" points="347.66 447.69 349.84 360.43 429.41 360.43 431.59 447.57 347.66 447.69"/><polygon class="cls-23" points="387.71 365.06 387.71 447.69 388.69 447.69 389.22 365.06 387.71 365.06"/><path class="cls-23" d="M351,447.71l0-.59,3.67-81.83h68.71l0,.54,2.76,81.76h-.52Zm4.64-81.3-3.59,80.18,73.1-.12-2.69-80.06Z"/><polygon class="cls-5" points="347.66 447.69 349.84 360.43 429.41 360.43 431.59 447.57 426.45 447.57 423.66 365.06 354.51 365.06 350.78 447.69 347.66 447.69"/><path class="cls-23" d="M384.21,413.84h-26.8L359,370.22h25.19Zm-25.76-1.12h24.77V371.35H360Z"/><path class="cls-23" d="M384.21,443.76h-27.9l.92-25h27Zm-26.86-1.12h25.87V419.92h-25Z"/><path class="cls-23" d="M419.55,413.84h-26.8V370.22H418Zm-25.8-1.12h24.77L417,371.35H393.75Z"/><path class="cls-23" d="M420.65,443.76h-27.9v-25h27Zm-26.9-1.12h25.87l-.84-22.72h-25Z"/><polygon class="cls-10" points="341.99 447.57 340.9 441.01 340.15 441 339.31 358.63 340.9 358.63 341.97 353.5 436.78 353.5 437.85 358.63 439.73 358.63 438.89 441.01 437.85 441.01 436.67 447.41 435.07 447.41 433.97 369.16 358.45 368.97 354.29 447.71 341.99 447.57"/></g></g></svg>