<?xml version="1.0" encoding="utf-8"?>
<!-- Generator: Adobe Illustrator 24.2.1, SVG Export Plug-In . SVG Version: 6.00 Build 0)  -->
<svg version="1.1" id="Capa_1" xmlns="http://www.w3.org/2000/svg" xmlns:xlink="http://www.w3.org/1999/xlink" x="0px" y="0px"
	 viewBox="0 0 121.5 94.7" style="enable-background:new 0 0 121.5 94.7;" xml:space="preserve">
<style type="text/css">
	.st0{fill:#79C6F2;}
	.st1{fill:#65A9C1;}
	.st2{fill:#FFFFFF;}
</style>
<path class="st0" d="M107.1,2.4L14.9,9.6c-6.2,0-11.3,5.1-11.3,11.3L10.8,66c0,6.2,5,11.3,11.3,11.3l0,0l4.4,0.3l0,0
	c0,0,2.5,9.7-2.5,14.8c0,0,15.1-3.6,17.5-13.9l58.4,3.6c6.2,0,11.3-5.1,11.3-11.3l0,0l7.2-57.1C118.4,7.4,113.4,2.4,107.1,2.4
	L107.1,2.4z"/>
<path class="st1" d="M118.2,11.5c-0.1,3.1-0.4,6.1-0.7,9.2c-0.7,6.3-1.7,12.6-2.8,18.9c-1,5.6-2.2,11.5-4.8,16.6
	c-4.3,8.7-13.7,11.9-22.7,13.2c-9.5,1.4-19,1-28.5,1.5c-5.2,0.4-10.5,0.6-15.8,0.5c-4.5-0.2-9.6-0.6-13.6-2.9
	c-7.7-4.5-9-15.7-10-23.7c-1.2-9.1-3.6-21,2.8-28.8c2.9-3.6,6.7-5.2,11-6.7c1.4-0.5,3.2-1,5-1.6L15,9.6c-6.2,0-11.3,5-11.4,11.2v0.1
	L10.8,66c0,6.2,5,11.3,11.3,11.3l0,0l4.4,0.3l0,0c0,0,2.5,9.7-2.5,14.8c0,0,15.1-3.6,17.5-13.9l58.4,3.6c6.2,0,11.3-5.1,11.3-11.3
	l0,0l7.2-57.1C118.4,13,118.4,12.2,118.2,11.5z"/>
<g>
	<path class="st2" d="M32.2,54l0.1-0.5c-0.1-0.3-0.2-0.7-0.3-1.2c-0.1-0.5-0.3-1.1-0.5-1.8c-0.2-0.7-0.3-1.3-0.4-1.7
		c-0.1-0.4-0.2-0.8-0.2-1c0,0-0.1-0.1-0.2-0.2c-0.1-0.1-0.3-0.3-0.5-0.6c-0.2-0.2-0.4-0.5-0.4-0.7c0-0.1,0-0.2,0-0.2
		c0-0.2,0-0.3,0.2-0.4c0.1-0.1,0.2-0.3,0.4-0.4c-0.2-0.6-0.3-1.2-0.4-1.7c-0.1-0.5-0.3-1-0.4-1.5c-0.4-1.7-0.7-2.9-0.9-3.7
		c-0.2-0.2-0.3-0.4-0.3-0.6c-0.1-0.3,0.1-0.6,0.5-1c0.2-0.1,0.4-0.2,0.8-0.3c1.1-0.3,1.9-0.1,2.3,0.4c0.1,0.1,0.1,0.2,0.1,0.3
		c0,0.2,0,0.5-0.2,1c-0.1,0.5-0.2,0.8-0.1,1.1c0.1,0.7,0.3,1.4,0.4,1.9c0.1,0.6,0.3,1.1,0.4,1.6c0.1,0.3,0.2,0.6,0.2,0.9
		c0.1,0.3,0.1,0.5,0.2,0.7c1.3-0.6,2.2-1,2.6-1.2c-0.1-0.4-0.2-0.8-0.4-1.2s-0.2-0.8-0.3-1.3c-0.3-1.1-0.5-2.3-0.8-3.7
		c-0.2-0.3-0.4-0.6-0.4-0.8c-0.1-0.4,0.1-0.8,0.5-1.2c0.1-0.1,0.2-0.2,0.5-0.2c0.5-0.1,1-0.1,1.5,0c0.6,0.2,1,0.4,1.1,0.9l0,0
		c0,0.2,0,0.5-0.2,0.8c-0.2,0.4-0.2,0.7-0.2,0.9c0.1,0.4,0.2,0.7,0.3,1.1c0.1,0.4,0.2,0.7,0.2,1c0.3,1.2,0.6,2.2,0.8,3
		c0.1,0.1,0.3,0.1,0.4,0.3c0.2,0.1,0.3,0.2,0.5,0.4c0.1,0.1,0.3,0.3,0.4,0.4c0.1,0.1,0.2,0.3,0.2,0.4c0.1,0.2,0,0.4-0.2,0.6
		c-0.2,0.2-0.4,0.3-0.6,0.5c0,0.2,0.1,0.5,0.2,0.7c0.1,0.3,0.1,0.5,0.2,0.8c0.1,0.5,0.2,1,0.4,1.5c0.2,0.6,0.3,1.2,0.5,1.8
		c0,0.1,0.1,0.2,0.1,0.3c0.1,0.1,0.1,0.2,0.2,0.3c0.1,0.1,0.1,0.2,0.2,0.3s0.1,0.2,0.1,0.2c0.1,0.3-0.1,0.6-0.5,0.9
		c-0.1,0.1-0.2,0.1-0.4,0.2c-0.5,0.1-1,0.1-1.6,0c-0.7-0.1-1.1-0.4-1.2-0.8c0-0.2,0-0.4,0-0.8c0.1-0.3,0.1-0.7,0.2-1l-0.9-3.7
		l-2.7,1.3c0.1,0.4,0.2,0.8,0.3,1.3c0.1,0.5,0.3,1,0.4,1.7c0.2,0.6,0.3,1.1,0.4,1.4c0.1,0.3,0.1,0.5,0.1,0.5c0,0.2,0.2,0.4,0.3,0.8
		c0.2,0.3,0.3,0.6,0.3,0.8c0.1,0.3,0,0.5-0.1,0.8c-0.1,0.2-0.4,0.4-0.7,0.5c-0.3,0.1-0.7,0.1-1.1,0c-0.4-0.1-0.7-0.2-0.9-0.4
		C32.4,54.2,32.3,54.1,32.2,54z"/>
	<path class="st2" d="M49.3,49.2c-0.1-0.2-0.4-0.7-0.8-1.6c-0.1,0.9-0.6,1.8-1.3,2.7c-0.8,1-1.6,1.6-2.5,1.8
		c-1.3,0.3-2.3-0.2-3.1-1.6c-0.2-0.4-0.4-0.8-0.5-1.1c-0.3-1,0-2,0.7-3c0.5-0.7,1.3-1.5,2.4-2.4c0.6-0.5,1.2-0.9,1.5-1.2
		c0.4-0.3,0.6-0.5,0.7-0.7c0-0.2,0-0.5-0.1-0.7c-0.1-0.4-0.3-0.7-0.6-0.7c-0.3,0-0.5,0-0.8,0.1c-0.7,0.2-1.4,0.7-2.2,1.6
		c-0.1,0.1-0.3,0.4-0.5,0.9c-0.2,0.4-0.4,0.6-0.7,0.7l-0.1,0c-0.4,0.1-0.7,0-1-0.2c-0.3-0.2-0.6-0.5-0.6-0.9c-0.1-0.2,0-0.4,0-0.7
		c0.2-0.5,0.8-1.2,1.8-2c1.3-1,2.7-1.6,4.2-2c1-0.2,1.7,0.1,2.3,0.9c0.4,0.6,0.9,1.7,1.4,3.3c0.3,1,0.6,1.9,0.9,2.6
		c0.3,0.7,0.5,1.3,0.7,1.8c0.1,0.2,0.2,0.4,0.5,0.6c0.3,0.2,0.5,0.5,0.5,0.7c0,0,0,0.1,0,0.1c0,0,0,0.1,0,0.2c0,0.8-0.4,1.3-1.1,1.5
		c-0.3,0.1-0.7,0.1-0.9,0C49.8,49.6,49.5,49.5,49.3,49.2z M44,47.5c-0.3,0.4-0.4,0.8-0.3,1.1c0.1,0.3,0.2,0.5,0.4,0.6
		c0.2,0.2,0.4,0.2,0.7,0.2c0.6-0.1,1.2-0.7,1.7-1.7c0.6-1.1,0.8-2.4,0.8-3.7c-0.5,0.4-0.9,0.8-1.4,1.2c-0.3,0.2-0.5,0.5-0.7,0.7
		c-0.2,0.2-0.4,0.5-0.5,0.7C44.4,46.9,44.2,47.2,44,47.5z"/>
	<path class="st2" d="M58.5,48.4c-0.3,0.3-0.7,0.5-1.1,0.6c-0.8,0.2-1.4,0-1.8-0.6c-0.1-0.2-0.3-0.8-0.6-1.9l-0.2-0.7
		c-0.1-0.3-0.2-0.7-0.3-1.1c-0.1-0.4-0.2-0.9-0.3-1.5c-0.2-0.9-0.4-1.6-0.5-2.1c-0.1-0.5-0.2-0.9-0.3-1.2c0,0-0.1,0.1-0.1,0.1
		s-0.1,0.2-0.2,0.2c-0.1,0.1-0.2,0.2-0.3,0.2c-0.1,0.1-0.2,0.1-0.3,0.2c-0.2,0-0.4,0-0.6,0c-1.1-0.1-1.7-0.3-1.8-0.7
		c0-0.1,0-0.2,0-0.3c0-0.3,0.2-0.4,0.5-0.5c0.4-0.2,0.7-0.3,0.7-0.3c0.1-0.1,0.3-0.3,0.6-0.5c0.3-0.2,0.6-0.5,1-0.9l-0.5-1.9
		c0-0.1-0.1-0.3-0.3-0.5c-0.1-0.2-0.2-0.4-0.2-0.5c0-0.1,0-0.3,0-0.4c0.2-0.7,0.6-1.1,1.3-1.2c0.7-0.2,1.3,0,1.7,0.5
		c0.2,0.2,0.3,0.4,0.3,0.5c0,0.1,0,0.2,0,0.3c0,0.1-0.1,0.2-0.1,0.3c0,0.1-0.1,0.2-0.1,0.3c0,0.1,0,0.2,0,0.3l0.3,1
		c0.2-0.2,0.5-0.4,0.7-0.8c0.2-0.3,0.4-0.4,0.5-0.5c0,0,0.1,0,0.2,0c1,0,1.5,0.4,1.7,1.3c0.1,0.3,0,0.5-0.1,0.8
		c-0.1,0.3-0.3,0.5-0.5,0.5c-0.1,0-0.1,0-0.2,0c-0.1,0-0.2,0-0.3,0c-0.1,0-0.2,0-0.3,0c-0.1,0-0.2,0-0.2,0c-0.1,0-0.2,0.1-0.3,0.1
		l-0.7,0.6l1.8,7.3c0.1,0.3,0.3,0.6,0.7,0.9c0.3,0.3,0.6,0.6,0.6,0.8c0,0.1,0,0.1,0,0.1C58.9,47.8,58.8,48.1,58.5,48.4z"/>
	<path class="st2" d="M67,45.3c-0.5,0.9-1.3,1.5-2.3,1.7c-0.6,0.2-1.3,0-2.1-0.4c-0.6-0.4-1.3-0.8-1.8-1.4c-0.4-0.4-0.7-0.8-0.7-1
		l0-0.1c0.1-0.4,0.5-0.7,1.3-0.9c0.4-0.1,0.6-0.1,0.8-0.1c0.4,0.1,0.6,0.3,0.8,0.6c0.1,0.3,0.3,0.5,0.4,0.6c0.4,0.4,0.7,0.5,1,0.5
		c0.2,0,0.3-0.2,0.4-0.5c0.1-0.3,0.1-0.6,0-0.9c0-0.2-0.1-0.4-0.3-0.6c-0.1-0.2-0.6-0.4-1.4-0.7c-0.5-0.2-0.9-0.3-1.3-0.5
		c-0.4-0.2-0.7-0.3-0.9-0.5c-0.8-0.5-1.3-1.2-1.5-2.2c-0.3-1.1-0.2-2.1,0.2-3c0.4-1,1.1-1.6,2.1-1.8c1-0.2,1.8-0.1,2.6,0.6
		c0.5,0.4,0.8,0.9,1,1.5c0,0,0,0.1,0,0.1c0,0,0,0.1,0,0.1c0.2,0.1,0.4,0.4,0.4,0.8c0.1,0.2,0.1,0.4,0,0.6c0,0.2-0.1,0.4-0.2,0.6
		c-0.1,0.2-0.2,0.3-0.4,0.4c-0.1,0.1-0.3,0.2-0.5,0.2c-0.5,0.1-1-0.1-1.5-0.6c-0.1-0.1-0.2-0.3-0.3-0.6c0-0.1-0.1-0.3-0.1-0.6
		c0-0.2-0.1-0.4-0.1-0.5c-0.1-0.4-0.3-0.5-0.5-0.5c-0.4,0.1-0.5,0.6-0.3,1.4c0.2,0.8,0.6,1.4,1.3,1.8c0.3,0.2,0.8,0.3,1.6,0.5
		c0.7,0.2,1.2,0.4,1.5,0.6c0.5,0.4,0.9,1,1.1,1.9C67.7,43.5,67.5,44.4,67,45.3z"/>
	<path class="st2" d="M72.4,44.9c-1.1,0.3-2.2-0.1-3.1-1.1c-0.8-0.9-1.4-2.1-1.8-3.7c-0.4-1.8-0.5-3.5-0.2-5
		c0.4-1.7,1.2-2.7,2.4-2.9c1-0.2,1.8,0.1,2.7,1c0.7,0.7,1.2,1.6,1.4,2.7c0.1,0.3,0.1,0.5,0.1,0.8c0,0.5-0.3,0.9-1,1
		c-0.6,0.1-1,0.1-1.4-0.2c-0.2-0.1-0.3-0.5-0.5-1c0-0.1,0-0.2-0.1-0.3c0-0.1,0-0.2-0.1-0.4l-0.2-0.6c-0.2-0.6-0.4-0.9-0.6-0.9
		c-0.2,0.1-0.3,0.8-0.2,2.3c0,0.7,0.1,1.4,0.2,2.1c0.1,0.7,0.2,1.3,0.4,1.9c0.4,1.4,0.7,2.1,1.2,2c0.5-0.1,0.8-0.7,0.9-1.7
		c0.1-0.2,0.1-0.4,0-0.8c-0.1-0.3-0.1-0.6,0.1-0.7c0.1-0.1,0.4-0.3,0.7-0.3c0.4-0.1,0.8-0.1,1.2,0c0.4,0.1,0.6,0.3,0.7,0.7l0,0
		c0.1,0.3,0,0.7-0.2,1.1c-0.3,0.6-0.5,1-0.5,1.3C74.2,43.7,73.4,44.6,72.4,44.9z"/>
	<path class="st2" d="M80.8,32.2c-0.2,0.1-0.5,0.6-0.9,1.5c-0.4,1-0.6,2.1-0.7,3.4c-0.1,1.3-0.1,2.3,0.1,3.2c0,0.1,0,0.1,0.1,0.2
		c0,0.1,0,0.1,0.1,0.2c0,0.1,0,0.2,0,0.3c0,0.1,0.1,0.3,0.3,0.5c0.2,0.2,0.3,0.4,0.3,0.5c0,0.1,0,0.3,0,0.5c-0.2,0.7-0.6,1-0.9,1.1
		c-0.4,0.1-0.9-0.1-1.4-0.7c-0.3-0.3-0.9-2.4-1.9-6.3c-0.2-0.7-0.5-1.9-0.8-3.5c-0.4-1.6-0.9-3.7-1.5-6.2c0-0.1-0.1-0.2-0.1-0.4
		c-0.1-0.2-0.1-0.3-0.1-0.4c0-0.1,0-0.3,0-0.4c0.1-0.3,0.4-0.6,0.9-0.7c0.5-0.1,0.9-0.1,1.3,0.1c0.4,0.1,0.6,0.3,0.6,0.6
		c0,0.1,0,0.1,0,0.2c0,0.1,0,0.2-0.1,0.3c-0.1,0.1-0.1,0.3-0.1,0.4l1.7,6.9c0.4-2,1.3-3.3,2.9-3.8l0.1,0c0.8-0.2,1.6,0.3,2.4,1.4
		c0.8,1.1,1.4,2.5,1.8,4.3c0.3,1.4,0.5,2.6,0.5,3.8c0.2,0.3,0.3,0.6,0.3,0.7c0,0.2,0,0.3,0,0.5c-0.1,0.1-0.2,0.3-0.3,0.4
		c-0.1,0.1-0.3,0.2-0.5,0.3c-0.2,0.1-0.4,0.2-0.6,0.2c-0.6,0.2-1.1,0-1.3-0.4c-0.1-0.2-0.2-0.3-0.2-0.4c0-0.1,0-0.2,0-0.3
		c0-0.1,0.1-0.2,0.1-0.4c0-0.1,0.1-0.2,0.1-0.4c0-0.1,0-0.2,0-0.3c0-0.8-0.2-1.9-0.5-3.3C81.7,33.4,81.2,32.2,80.8,32.2L80.8,32.2z"
		/>
	<path class="st2" d="M89,40.9c-0.5,0.1-1,0-1.3-0.3c-0.4-0.4-0.9-1.7-1.5-4c-0.1-0.3-0.2-0.6-0.3-1c-0.1-0.4-0.2-0.9-0.4-1.5
		c-0.1-0.6-0.2-1.1-0.3-1.5c-0.1-0.4-0.2-0.8-0.2-1c0-0.1-0.1-0.2-0.1-0.4c0-0.1-0.1-0.3-0.1-0.4c0-0.1-0.1-0.3-0.1-0.4
		c0-0.1-0.1-0.2-0.1-0.3c-0.1-0.5,0-0.9,0.2-1.3c0.1-0.2,0.4-0.3,0.7-0.4c0.4-0.1,0.8-0.1,1.2-0.1c0.4,0,0.7,0.1,0.8,0.2
		c0.2,0.1,0.2,0.3,0.3,0.4c0.1,0.2,0,0.6-0.1,1c-0.1,0.5-0.1,0.8-0.1,1.1l1.6,6.3c0.1,0.3,0.2,0.6,0.5,1.2c0.3,0.5,0.5,0.8,0.5,1
		c0.1,0.3,0,0.5-0.2,0.7C89.8,40.6,89.4,40.8,89,40.9z M83.8,26.4c0-0.2,0.1-0.4,0-0.5c0,0,0-0.1,0-0.1c0-0.1,0-0.1,0-0.2
		c0-0.1,0-0.2-0.1-0.2c0-0.1-0.1-0.2-0.1-0.3l0-0.1c-0.1-0.3-0.1-0.5,0.1-0.7c0.2-0.2,0.6-0.4,1.2-0.6c0.6-0.2,1.1-0.1,1.4,0
		c0.1,0,0.1,0.1,0.1,0.2c0,0.1,0,0.4,0,0.7c0,0.4,0,0.7,0,0.8l0,0c0,0,0.1,0.3,0.3,1c0.1,0.3,0,0.5-0.1,0.7
		c-0.2,0.1-0.4,0.2-0.6,0.3c-0.4,0.1-0.8,0.1-1.2,0.1c-0.5-0.1-0.8-0.3-0.9-0.6C83.7,26.8,83.8,26.6,83.8,26.4z"/>
	<path class="st2" d="M98.2,30.8c0.2,0.4,0.3,0.6,0.4,0.7c0.1,0.3,0,0.5-0.2,0.7c-0.2,0.2-0.4,0.4-0.8,0.5c-0.7,0.2-1.4,0.1-1.9-0.3
		c-0.2-0.1-0.3-0.3-0.3-0.5c0-0.1,0-0.2-0.1-0.4c0-0.2,0-0.3-0.1-0.4l0-0.1c-0.6-1.7-1.1-3.6-1.6-5.5c-0.6-2.5-0.8-3.8-0.7-4.1
		c0.1-0.2,0.4-0.4,1-0.5c1-0.3,1.7-0.1,1.9,0.4c0,0.1,0.1,0.1,0.1,0.1c0,0,0,0.1,0,0.1c0,0.1,0,0.4,0,0.7c0,0.3,0,0.5,0,0.7l1.8,7.1
		C97.9,30.2,98,30.4,98.2,30.8z M99.9,37L99.9,37c0.1,0.3,0.1,0.5,0,0.7c-0.1,0.3-0.4,0.5-0.8,0.6c-0.7,0.2-1.4,0.1-1.9-0.3
		c-0.1-0.1-0.2-0.3-0.3-0.6c0-0.1,0-0.1-0.1-0.3c0-0.1-0.1-0.3-0.1-0.5c0-0.1,0-0.2-0.1-0.3c0-0.1-0.1-0.2-0.1-0.3l-0.1-0.2
		c0,0-0.1-0.2-0.2-0.4c0-0.1-0.1-0.1-0.1-0.2c0-0.1,0-0.2,0-0.2c0-0.3,0.3-0.5,0.9-0.6c1-0.2,1.7-0.1,2.1,0.5
		c0.1,0.2,0.2,0.3,0.2,0.5c0,0.1,0,0.2,0,0.3c0,0.1,0,0.2,0,0.4c0,0.1,0,0.3,0,0.4s0,0.2,0.1,0.3C99.6,36.4,99.7,36.6,99.9,37z"/>
</g>
</svg>
