<?xml version="1.0" encoding="utf-8"?>
<!-- Generator: Adobe Illustrator 24.2.1, SVG Export Plug-In . SVG Version: 6.00 Build 0)  -->
<svg version="1.1" id="Capa_1" xmlns="http://www.w3.org/2000/svg" xmlns:xlink="http://www.w3.org/1999/xlink" x="0px" y="0px"
	 viewBox="0 0 121.5 94.7" style="enable-background:new 0 0 121.5 94.7;" xml:space="preserve">
<style type="text/css">
	.st0{fill:#B761CF;}
	.st1{fill:#A45CBC;}
	.st2{fill:#FFFFFF;}
</style>
<path class="st0" d="M107.1,2.4L14.9,9.6c-6.2,0-11.3,5.1-11.3,11.3L10.8,66c0,6.2,5,11.3,11.3,11.3l0,0l4.4,0.3l0,0
	c0,0,2.5,9.7-2.5,14.8c0,0,15.1-3.6,17.5-13.9l58.4,3.6c6.2,0,11.3-5.1,11.3-11.3l0,0l7.2-57.1C118.4,7.4,113.4,2.4,107.1,2.4
	L107.1,2.4z"/>
<path class="st1" d="M118.2,11.5c-0.1,3.1-0.4,6.1-0.7,9.2c-0.7,6.3-1.7,12.6-2.8,18.9c-1,5.6-2.2,11.5-4.8,16.6
	c-4.3,8.7-13.7,11.9-22.7,13.2c-9.5,1.4-19,1-28.5,1.5c-5.2,0.4-10.5,0.6-15.8,0.5c-4.5-0.2-9.6-0.6-13.6-2.9
	c-7.7-4.5-9-15.7-10-23.7c-1.2-9.1-3.6-21,2.8-28.8c2.9-3.6,6.7-5.2,11-6.7c1.4-0.5,3.2-1,5-1.6L15,9.6c-6.2,0-11.3,5-11.4,11.2v0.1
	L10.8,66c0,6.2,5,11.3,11.3,11.3l0,0l4.4,0.3l0,0c0,0,2.5,9.7-2.5,14.8c0,0,15.1-3.6,17.5-13.9l58.4,3.6c6.2,0,11.3-5.1,11.3-11.3
	l0,0l7.2-57.1C118.4,13,118.4,12.2,118.2,11.5z"/>
<path class="st2" d="M96,32.5c0,1.3-1,2.3-2.3,2.3l0,0H28.4c-1.3,0-2.3-1-2.3-2.3l0,0c0-1.3,1-2.3,2.3-2.3h65.3
	C94.9,30.1,96,31.1,96,32.5C96,32.4,96,32.4,96,32.5z"/>
<path class="st2" d="M96,42.2c0,1.3-1,2.3-2.3,2.3l0,0H28.4c-1.3,0-2.3-1-2.3-2.3l0,0c0-1.3,1-2.3,2.3-2.3h65.3
	C94.9,39.9,96,40.9,96,42.2L96,42.2z"/>
<path class="st2" d="M96,52c0,1.3-1,2.3-2.3,2.3l0,0H28.4c-1.3,0-2.3-1-2.3-2.3l0,0l0,0c0-1.3,1-2.3,2.3-2.3h65.3
	C94.9,49.7,96,50.7,96,52L96,52z"/>
</svg>
