<svg id="Ebene_1" data-name="Ebene 1" xmlns="http://www.w3.org/2000/svg" viewBox="0 0 77.36 84.43"><defs><style>.cls-1{fill:#b5b5b5;}.cls-2{fill:#ddd;}.cls-3{fill:#a5a3a3;}.cls-4{fill:#e0e0e0;}.cls-5{fill:#5a5a5a;}</style></defs><rect class="cls-1" width="33.87" height="84.43"/><rect class="cls-2" x="1.7" y="1.7" width="32.17" height="82.72"/><path class="cls-3" d="M19.34,26.68a6.83,6.83,0,1,0,0,13.66H32.55V26.68Z" transform="translate(-1.79 -1.4)"/><path class="cls-1" d="M23.33,25.58a5.07,5.07,0,0,0-.55,0c-4.06,0-7.35,3.8-7.35,8.49s3.29,8.49,7.35,8.49c.17,0,.33,0,.5,0v.06H76.65a2.71,2.71,0,0,0,2.5-2.88V28.46a2.71,2.71,0,0,0-2.5-2.88Z" transform="translate(-1.79 -1.4)"/><path class="cls-4" d="M25.3,27.35a4.75,4.75,0,0,0-.54,0,7.36,7.36,0,0,0-7.09,7.61,7.36,7.36,0,0,0,7.09,7.6l.49,0v.05H76.74A2.5,2.5,0,0,0,79.15,40v-10a2.5,2.5,0,0,0-2.41-2.58Z" transform="translate(-1.79 -1.4)"/><path class="cls-5" d="M24.07,59.39a4.5,4.5,0,1,0-6.84,3.82v7.47A2.35,2.35,0,0,0,19.57,73h0a2.34,2.34,0,0,0,2.34-2.34V63.21A4.48,4.48,0,0,0,24.07,59.39Z" transform="translate(-1.79 -1.4)"/></svg>