<svg xmlns="http://www.w3.org/2000/svg" viewBox="0 0 561 556"><defs><style>.cls-1,.cls-13{fill:#e8792e;}.cls-1,.cls-12,.cls-13,.cls-2,.cls-3,.cls-4,.cls-7{stroke:#965930;}.cls-1,.cls-10,.cls-12,.cls-13,.cls-2,.cls-3,.cls-4,.cls-7{stroke-miterlimit:10;}.cls-1,.cls-12,.cls-13,.cls-3,.cls-4{stroke-width:8.42px;}.cls-2,.cls-7{fill:#965930;}.cls-10,.cls-2,.cls-7{stroke-width:1.68px;}.cls-2{opacity:0.25;}.cls-3{fill:#ffe7d9;}.cls-4{fill:#ffeee3;}.cls-5{fill:#7b5089;}.cls-6{fill:#f9f9f9;}.cls-8{fill:#a51c1c;}.cls-9{fill:#cc3e3e;}.cls-10{fill:#eadfdf;stroke:#7c7c7c;}.cls-11{fill:#fff;opacity:0.5;}.cls-12{fill:none;}.cls-13{stroke-linecap:round;}</style></defs><g id="Layer_5" data-name="Layer 5"><path class="cls-1" d="M274.32,457.23c-21.29-.24-59.78-1.15-98.81-24.87-56.1-34.09-72-90.23-76.25-106-6.36-23.83-17.09-83.82,20-140.91,39-59.91,103.2-74.42,123.86-79.09,18.47-4.17,60.41-13.09,109.19,3.45,64.65,21.92,94.47,72.66,102,86,9.38,16.56,34.57,62.65,21.48,120.54-13.65,60.36-59.65,92.51-75.54,103.61C346.89,457.28,291.3,457.42,274.32,457.23Z"/><path class="cls-2" d="M238.2,401C227.41,395,224,382.79,223,379.46c-7.7-27.36,13.54-60.88,36.72-78.82,42.59-33,95.56-16.32,98-15.5,0,0,46.86,15.57,68,69.39,2.89,7.34,3.95,13.73,1,18.53-4.44,7.27-17,9.27-26.61,6.74C382,375,384,356.2,364.86,346.45c-14-7.15-34.8-7.07-46.82,2.69-11.75,9.54-6.35,21.17-21.56,36.38A61.22,61.22,0,0,1,272.9,400C264.91,402.8,250.43,407.87,238.2,401Z"/><path class="cls-2" d="M208.56,282.11c-3.09-.71-18.1-4.17-25.27-17.52C174,247.33,181.52,220.26,202.5,210c20.61-10.06,45.87.22,54.9,18.53,7.82,15.85.49,31.66,0,32.67C248.52,279.59,225.85,286.09,208.56,282.11Z"/><path class="cls-2" d="M333.28,241.24c-2.31-.61-13.52-3.54-18.87-14.86-6.92-14.65-1.33-37.62,14.34-46.3,15.39-8.53,34.27.19,41,15.72,5.84,13.44.37,26.86,0,27.72C363.13,239.1,346.19,244.61,333.28,241.24Z"/><path class="cls-2" d="M177.9,180c-1.51,2,2.52,8.24,6.74,11.79,5.48,4.6,10.42,4,20.21,6.4,8.42,2.06,6.41,2.91,24.26,9.43,20.07,7.34,23.38,6.55,25.6,5.39,6.26-3.26,9.16-12.1,8.08-19.2-1-6.28-5.24-12.69-7.74-12.13-3.57.8,1.15,14.63-4.72,20.22C237.12,214.49,182.66,173.67,177.9,180Z"/><path class="cls-2" d="M369.58,154.18c2,1.62-.5,8.61-3.77,13-4.23,5.76-9.18,6.34-18.13,11-7.69,4-5.54,4.33-21.35,14.88C308.55,205,305.15,205,302.72,204.36c-6.85-1.68-11.75-9.6-12.38-16.75-.56-6.33,2.1-13.57,4.67-13.61,3.65-.06,2.32,14.49,9.35,18.53C320.15,201.62,363.46,149.11,369.58,154.18Z"/><path class="cls-2" d="M253.7,456.6c-.36-3.55,63.31,1.3,123.29-34,16.81-9.9,56.52-34.06,76.8-83.54,2.16-5.26,23-58.39,3-115.21,0,0-6.94-19.72-56.25-88.93h0l5.73,4.38c25.05,19.17,44.12,49.52,44.12,49.52,6.22,9.89,17.8,28.67,24.26,56.25,2.68,11.45,7.84,34.54,2.69,64a159.62,159.62,0,0,1-19.87,52.55c-15.25,25.75-33.62,40.55-45.81,50.19a210.7,210.7,0,0,1-43.46,26.61c-26.83,12.14-49.34,15.34-63,17.18C281,458.85,253.93,458.92,253.7,456.6Z"/><circle class="cls-3" cx="220.85" cy="244.88" r="35.2"/><circle class="cls-4" cx="341.79" cy="210.86" r="25.43"/><path class="cls-5" d="M354.75,209.54c5,20.09-21.16,26.26-25.67,6.05C324.11,195.5,350.24,189.33,354.75,209.54Z"/><path d="M347.25,211c2.29,9.27-8.71,11.87-10.81,2.54C334.16,204.27,345.16,201.67,347.25,211Z"/><path class="cls-6" d="M339.14,207c1.05,4.25-4,5.44-4.95,1.17S338.19,202.67,339.14,207Z"/><path class="cls-5" d="M237.12,240.73c6,24.17-24.87,31.45-30.3,7.15C200.85,223.71,231.69,216.43,237.12,240.73Z"/><path d="M228.26,242.44c2.75,11.16-10.23,14.23-12.75,3C212.76,234.29,225.75,231.23,228.26,242.44Z"/><path class="cls-6" d="M218.67,237.54c1.26,5.11-4.7,6.52-5.85,1.38S217.51,232.4,218.67,237.54Z"/><path class="cls-7" d="M176.89,179.7a41.53,41.53,0,0,0,10.78,8.42c7.56,4.08,12.87,3.76,19.54,5.06,20.95,4.06,23.64,17.84,38.74,16.5,1.38-.12,11.19-1,14.15-7.41,2.63-5.69-1.36-13.11-3.37-16.84-.92-1.72-1.25-1.71-1.35-1.69-.51.16.13,2.92.34,6.41.26,4.34.44,7.5-1,9.43-2.32,3.08-8.26,2.23-11.79,1.68-10.06-1.56-11.35-5.47-22.91-9.43a122.9,122.9,0,0,0-18.53-4.38c-4.81-.85-7.48-1.1-11.79-2.36A60.42,60.42,0,0,1,176.89,179.7Z"/><path class="cls-7" d="M369.76,152.69a40.18,40.18,0,0,1-8.2,10.55c-6.16,5.62-11.21,6.46-17.18,9.18-18.72,8.52-18.13,22.53-32.59,24.52-1.31.18-10.71,1.47-14.94-4.14-3.75-5-1.69-13.07-.66-17.14.48-1.87.79-1.94.89-1.93.52,0,.53,2.87,1.13,6.31.74,4.28,1.28,7.4,3.08,9,2.88,2.5,8.25.38,11.44-.92,9.08-3.72,9.4-7.81,19.34-14.18a116.21,116.21,0,0,1,16.39-8.31c4.32-1.88,6.76-2.7,10.52-4.86A57.09,57.09,0,0,0,369.76,152.69Z"/><path class="cls-8" d="M228.38,368.88c-1-9.87-3-27.88,8.67-47,18.29-30.08,54.9-38,61.91-39.42,46.61-9.21,83,15.09,88.81,19.1,24,16.61,31.36,36.87,34.5,45.52,4.75,13.08,2.35,17.13.32,18.93-5.15,4.55-17.3,2.88-25.18-1.68-11.09-6.42-7.24-14.81-16.87-25.44-11.3-12.47-32.49-18.47-50.29-16.18A56.77,56.77,0,0,0,301.77,335c-15.28,12.29-23.06,32.82-27.95,45.74-3.12,8.23-4.64,14.16-11,16.82-7.36,3.07-17.55.24-23.82-4.29C236.39,391.34,230.2,386.08,228.38,368.88Z"/><path class="cls-9" d="M273.74,378.28c-3.87,1.61-19.36-15.12-19.87-30.32-.72-21.34,27.95-43.77,54.9-45.81,34.3-2.59,65.26,27.87,64.68,29-.05.09-.31,0-5.39-1.68a100.68,100.68,0,0,0-12.8-5.06,54.79,54.79,0,0,0-23.58-2c-12.35,1.66-21.85,5.69-29.31,11.12-3.36,2.45-7.29,5.9-15.15,17.52-7.43,11-10.47,18.81-11.46,24.25A3.82,3.82,0,0,1,273.74,378.28Z"/><path class="cls-10" d="M344.68,284.1c2.09,2-.2,6.21-2.39,10.23-3.55,6.5-3,4-8.12,10.88-.44.6-4.45,4.67-5.34,4.44s-1.33-4.35-1.6-5.81c-.89-5-1.37-2.36-1.87-6-.71-5.21.49-9.32,1.42-12.54.45-1.54.08-3.73,1.49-4.22.73-.25,1.81.41,4.34.81,1.54.24,4.73.7,6,.84C343.52,283.29,343.38,282.84,344.68,284.1Z"/><path class="cls-10" d="M230.34,372.39c6.31,5.6,18.72-3.33,15.9-11.53-2.21-7.68-15.79-9-18.07-5.72-.5.74-.23,1.38.25,4.48C229.87,368.93,228.57,370.6,230.34,372.39Z"/><path class="cls-11" d="M242.8,361.05c-5.35-2.27-10.62,7.8-5.31,10.65C242.06,374.06,249.37,363.4,242.8,361.05Z"/><path class="cls-10" d="M241.12,319.33c.49,8.42,15.58,10.9,19.38,3.11,3.88-7-4.75-17.55-8.71-16.83-.88.17-1.14.81-3,3.34C243.23,316.55,241.12,316.81,241.12,319.33Z"/><path class="cls-11" d="M258,320.14c-2.18-5.39-13-2-11.3,3.76C248.21,328.81,260.92,326.45,258,320.14Z"/><path class="cls-10" d="M282.3,289.27c-4.14,7.36,7.22,17.59,14.63,13.1,7-3.79,5.49-17.34,1.77-18.87-.83-.34-1.4.07-4.33,1.2C285.58,288.08,283.67,287.16,282.3,289.27Z"/><path class="cls-11" d="M296,299.05c1.09-5.71-9.87-8.73-11.53-2.94C283.15,301.08,295.11,306,296,299.05Z"/><path class="cls-10" d="M375.93,295.84c-8.31,1.48-9,16.75-.82,19.62,7.39,3,16.87-6.78,15.69-10.62-.27-.86-.94-1-3.67-2.59C378.94,297.61,378.42,295.55,375.93,295.84Z"/><path class="cls-11" d="M377,313c5.1-2.79.47-13.18-5.06-10.78C367.27,304.32,371.1,316.67,377,313Z"/><path class="cls-11" d="M328.93,308.53c-.52,0-.21-3.93-2.05-8.5a12.48,12.48,0,0,1-.62-1.71,14.24,14.24,0,0,1-.13-5.73c.34-2.67.51-4,1.18-4.68,1.45-1.46,4.4-1.72,5.75-.47,1.8,1.68.45,5.89-.68,9.41-.45,1.4-.53,1.31-1.12,3C329.43,305.15,329.42,308.54,328.93,308.53Z"/><path class="cls-10" d="M276,368.68c-2.66,1.15-5.66-2.56-8.54-6.13-4.65-5.76-2.55-4.33-6.94-11.66-.39-.64-2.61-5.9-2.06-6.63s4.53.43,6,.75c5,1.08,2.71-.38,6.25.56a28.42,28.42,0,0,1,11,6.11c1.26,1,3.42,1.5,3.33,3-.05.77-1.07,1.52-2.41,3.7-.81,1.33-2.45,4.1-3.08,5.23C277.19,367.92,277.66,368,276,368.68Z"/><path class="cls-11" d="M259.46,344.78c.21-.48,3.71,1.31,8.64,1.35a13.68,13.68,0,0,1,1.81.09,14.14,14.14,0,0,1,5.35,2.07c2.33,1.34,3.5,2,3.87,2.88.79,1.9-.1,4.73-1.77,5.49-2.25,1-5.62-1.83-8.44-4.23-1.12-.94-1-1-2.33-2.17C262.39,346.53,259.26,345.22,259.46,344.78Z"/><path class="cls-10" d="M312.12,326.15c2.67-8-10.42-15.9-16.85-10.08-6.19,5.05-2.1,18.06,1.84,18.85.88.18,1.37-.33,4-2C309.12,328,311.18,328.48,312.12,326.15Z"/><path class="cls-11" d="M296.79,320.5c0,5.81,11.36,6.7,11.89.7C309.05,316.07,296.38,313.54,296.79,320.5Z"/><path class="cls-10" d="M393.42,359c8,2.78,16-10.2,10.31-16.71-5-6.26-18-2.35-18.88,1.58-.19.88.31,1.37,1.94,4.05C391.66,356,391.1,358,393.42,359Z"/><path class="cls-11" d="M400.85,343.87c-5.82-.06-6.86,11.26-.86,11.87C405.11,356.19,407.81,343.55,400.85,343.87Z"/><path class="cls-10" d="M357.71,323.73c6-3.43,2.18-15.18-5-15.08-6.59-.23-11.12,9.82-9.11,12.4.45.58,1,.53,3.58.94C354.88,323.22,355.86,324.64,357.71,323.73Z"/><path class="cls-11" d="M352,311.4c-3.15,3.53,3.41,10.1,7,6.75C362,315.24,355.49,307,352,311.4Z"/><path class="cls-12" d="M258.3,398.55c2.12-.33,7.42-1.18,11.12-5.72a15.33,15.33,0,0,0,3-6.4s2.65-9.32,6.4-20.21c1.8-5.22,5.31-9.16,11.12-17.52,5-7.18,7.48-10.78,9.88-13,7-6.65,14.7-9.05,20.21-10.78a60.1,60.1,0,0,1,29-2.36,55.15,55.15,0,0,1,19.2,7.08,53.85,53.85,0,0,1,10.11,8.08,41.59,41.59,0,0,1,8.42,11.12c2.53,5.09,1.44,6.05,3.7,9.43,3.18,4.76,7.92,6.74,11.12,8.08s10.88,4.56,17.85,1.35a9.27,9.27,0,0,0,4.72-4c.6-1.19,1-2.72.34-7.08a51.44,51.44,0,0,0-2.36-9.76,97.11,97.11,0,0,0-5.05-11.12,111.26,111.26,0,0,0-5.39-10.11,66,66,0,0,0-7.42-9.43,94.17,94.17,0,0,0-16.16-13.81,114.22,114.22,0,0,0-16.17-9.77,115.77,115.77,0,0,0-28-9.43,112.31,112.31,0,0,0-18.53-2.7,105.65,105.65,0,0,0-64.68,17.86c-6.79,4.57-14.81,10-21.89,20.21a65.89,65.89,0,0,0-9.44,20.21,70.71,70.71,0,0,0-2,21.56,74.38,74.38,0,0,0,2,15.83c1.6,6.37,2.52,10,5.73,13.81a25.6,25.6,0,0,0,12.8,7.75A22.74,22.74,0,0,0,258.3,398.55Z"/><path class="cls-13" d="M294,109.38c15.79-3,38.46-29.31,37.06-46.42-32.63-24.34,23.8-42.63,38.06-18.91,6.47,10.5-9.48,22.09-19.2,19.2-14.28,8-12.68,46.87-.67,53.29"/><path class="cls-13" d="M357,47.11c8.35,15.07-30.81,4.87-19.81-5.55"/><path class="cls-13" d="M158.05,166.42c9.54-12.92,8.28-47.64-4.38-59.23-40.47,4.33-11.52-47.45,15.07-39.74,11.88,3.3,8,22.64-1,27.13-5,15.61,22.56,43,35.74,39.54"/><path class="cls-13" d="M162,77.87c16.36,5.38-19.29,24.52-18.31,9.4"/><path class="cls-13" d="M129.18,205.4c-8.66,13.53-41.53,24.76-56.88,17.09-10.43-39.35-48.43,6.21-31.73,28.28,7.33,9.92,24-.57,25-10.67,12.79-10.25,48.22,5.69,49.7,19.24"/><path class="cls-13" d="M47.89,240.75c10.87,13.36,16-26.78,2.23-20.46"/><path class="cls-13" d="M148.2,389.19c-11.42-11.3-46-15-59.25-4.16-1.52,40.67-48.61,4.59-37.17-20.62,5-11.28,23.57-4.72,26.7,4.92,14.74,7.19,45.79-16.16,44.27-29.69"/><path class="cls-13" d="M61.13,372.58c7.67-15.43,21.5,22.61,6.67,19.47"/><path class="cls-13" d="M193.19,425.66c11.73,11,16.79,45.35,6.45,59-40.59,3.09-2.71,48.75,22,36.34,11.08-5.4,3.8-23.73-6-26.49-7.75-14.45,14.37-46.38,28-45.38"/><path class="cls-13" d="M213.15,512c15.12-8.26-23.42-20.61-19.71-5.92"/><path class="cls-13" d="M364.46,426.27C352,436.43,344.64,470.37,354,484.74c40.29,5.83-.59,48.82-24.44,34.78-10.69-6.15-2.19-23.94,7.73-26,8.71-13.9-11.21-47.25-24.83-47.17"/><path class="cls-13" d="M338.7,511.08c-14.52-9.26,24.77-19,20.07-4.56"/><path class="cls-13" d="M446.06,353.05c-7.33,16.86,3.69,55.05,21.32,64.57,45-15.48,26.23,49.61-6.23,48.08-14.46-.53-15.43-23-6.29-30.38,1.39-18.65-37.59-41.76-51.67-34.45"/><path class="cls-13" d="M466,452.36c-20.15-1.65,15.25-32.3,18.29-15.27"/><path class="cls-13" d="M400.77,142.69c13.39,8.88,48,5.87,58.94-7.35-6.36-40.2,46.81-13.89,40.45,13-2.7,12-22.21,9.18-27.15.33-15.85-4.21-41.81,24.69-37.7,37.67"/><path class="cls-13" d="M489.41,142.18c-4.54,16.62-25.45-18-10.3-17.81"/><path class="cls-13" d="M457.29,322.81c7-14.47,38.29-29.54,54.44-23.74,15,37.82,47.35-11.94,28.14-31.87-8.47-9-23.79,3.44-23.52,13.57-11.49,11.71-48.56.1-51.65-13.17"/><path class="cls-13" d="M533.79,278c-12.39-12-12.69,28.5.22,20.58"/></g></svg>