<?xml version="1.0" encoding="utf-8"?>
<!-- Generator: Adobe Illustrator 24.2.1, SVG Export Plug-In . SVG Version: 6.00 Build 0)  -->
<svg version="1.1" id="Ebene_1" xmlns="http://www.w3.org/2000/svg" xmlns:xlink="http://www.w3.org/1999/xlink" x="0px" y="0px"
	 viewBox="0 0 1571.5 1528" style="enable-background:new 0 0 1571.5 1528;" xml:space="preserve">
<style type="text/css">
	.st0{fill:#E8792E;stroke:#965930;stroke-width:25;stroke-miterlimit:10;}
	.st1{opacity:0.25;fill:#965930;stroke:#965930;stroke-width:5;stroke-miterlimit:10;enable-background:new    ;}
	.st2{fill:#FFE7D9;stroke:#965930;stroke-width:25;stroke-miterlimit:10;}
	.st3{fill:#FFEEE3;stroke:#965930;stroke-width:25;stroke-miterlimit:10;}
	.st4{fill:#7B5089;}
	.st5{fill:#F9F9F9;}
	.st6{fill:#965930;}
	.st7{opacity:0.25;fill:#965930;enable-background:new    ;}
	.st8{fill:none;stroke:#965930;stroke-width:25;stroke-linecap:round;stroke-miterlimit:10;}
	.st9{fill:#E8792E;stroke:#965930;stroke-width:30;stroke-linecap:round;stroke-miterlimit:10;}
	.st10{fill:#E8792E;stroke:#965930;stroke-width:25;stroke-linecap:round;stroke-miterlimit:10;}
</style>
<g id="Layer_3">
	<path class="st0" d="M735.2,1299.6c-63.2-0.7-177.5-3.4-293.3-73.8C275.3,1124.6,228,958,215.4,911
		c-18.8-70.8-50.7-248.8,59.5-418.3c115.7-177.8,306.4-220.9,367.7-234.8c54.8-12.4,179.3-38.9,324.1,10.3
		c191.9,65.1,280.4,215.7,302.9,255.3c27.9,49.2,102.6,186,63.8,357.8c-40.5,179.2-177.1,274.6-224.2,307.6
		C950.6,1299.8,785.6,1300.2,735.2,1299.6z"/>
</g>
<g id="Layer_10">
	<path class="st1" d="M539.9,779.8c-9.2-2.1-53.7-12.4-75-52c-27.5-51.2-5.3-131.6,57-162c61.2-29.9,136.2,0.7,163,55
		c23.2,47,1.5,94,0,97C658.6,772.3,591.3,791.6,539.9,779.8z"/>
	<path class="st1" d="M910.2,658.4c-6.8-1.8-40.1-10.5-56-44.1c-20.5-43.5-3.9-111.7,42.6-137.4c45.7-25.3,101.7,0.6,121.8,46.7
		c17.3,39.9,1.1,79.8,0,82.3C998.8,652.1,948.5,668.5,910.2,658.4z"/>
	<path class="st1" d="M673.9,1297.8c-1.1-10.5,188,3.9,366-101c49.9-29.4,167.8-101.1,228-248c6.4-15.6,68.4-173.3,9-342
		c0,0-20.6-58.5-167-264l0,0l17,13c74.4,56.9,131,147,131,147c18.5,29.4,52.8,85.1,72,167c8,34,23.3,102.5,8,190
		c-2.9,16.5-15.3,82.3-59,156c-45.3,76.4-99.8,120.4-136,149c-39.6,31.5-83,58-129,79c-79.6,36-146.5,45.6-187,51
		C754.9,1304.4,674.6,1304.7,673.9,1297.8z"/>
</g>
<g id="Layer_4">
	<circle class="st2" cx="576.4" cy="669.3" r="104.5"/>
	<circle class="st3" cx="935.4" cy="568.3" r="75.5"/>
	<path class="st4" d="M973.9,564.3c14.8,59.6-62.8,78-76.2,18C883,522.7,960.5,504.3,973.9,564.3z"/>
	<path d="M951.7,568.7c6.8,27.5-25.9,35.2-32.1,7.6C912.8,548.7,945.4,541,951.7,568.7z"/>
	<path class="st5" d="M927.6,556.6c3.1,12.6-11.8,16.2-14.7,3.5C909.8,547.5,924.8,544,927.6,556.6z"/>
	<path class="st4" d="M624.7,656.9c17.8,71.7-73.8,93.3-89.9,21.2C517,606.4,608.6,584.8,624.7,656.9z"/>
	<path d="M598.4,662c8.2,33.1-30.4,42.2-37.9,8.9C552.4,637.8,591,628.7,598.4,662z"/>
	<path class="st5" d="M570,647.5c3.7,15.2-13.9,19.3-17.4,4.1C548.9,636.4,566.5,632.2,570,647.5z"/>
</g>
<g id="Layer_6">
	<path class="st6" d="M473,555.9c22.2-20.3,41.4-27.5,50.7-31c12.1-4.5,33.7-12.6,60.2-5.5c48,12.8,72,19.3,76.1,21
		c1,0.4,4.3,1.8,6.3-1.1c2.9-4.1,2-14.2,1.3-18.8c-0.8-4.9-4-18.4-21.6-28.8c-15.8-9.3-27.4-6.8-55.8-3.3
		c-38.8,4.7-35.2,2.2-48.2,5.5c-22,5.6-36,9.2-52,24.3c-21,19.9-35.5,50.2-34.2,53.1C456.7,573,462.8,565.2,473,555.9z"/>
	<path class="st7" d="M471.6,575.6c22.2-20.3,41.4-27.5,50.7-31c12.1-4.5,33.7-12.6,60.2-5.5c48,12.9,72,19.3,76.1,21
		c1,0.4,4.2,1.8,6.3-1.1c2.9-4.1,2-14.2,1.3-18.8c-0.8-4.9-4-18.4-21.6-28.8c-15.8-9.3-27.4-6.8-55.8-3.3
		c-38.8,4.7-35.2,2.2-48.2,5.5c-22,5.6-36,9.2-52,24.3c-21,19.9-35.5,50.2-34.2,53.1C455.3,592.7,461.4,584.9,471.6,575.6z"/>
	<path class="st6" d="M999.5,460c-26.9-12.5-47.2-13.6-57-14.1c-12.8-0.7-35.6-1.9-58.6,12.5c-41.7,26.2-62.5,39.2-65.9,42.1
		c-0.9,0.7-3.5,3-6.3,0.8c-3.9-3-6.1-12.7-6.7-17.2c-0.7-4.8-1.6-18.4,12-33.3c12.2-13.3,23.9-14.4,51.8-19.5c38-7,33.9-8.3,47.2-9
		c22.5-1.2,36.8-2,56.3,7.5c25.6,12.4,48.2,36.6,47.9,39.7C1020,471.3,1011.9,465.8,999.5,460z"/>
	<path class="st7" d="M1006.5,478.1c-26.9-12.5-47.2-13.6-57-14.1c-12.8-0.7-35.6-1.9-58.6,12.5c-41.7,26.2-62.5,39.2-65.9,42.1
		c-0.9,0.7-3.5,3-6.3,0.8c-3.9-3-6-12.7-6.7-17.2c-0.7-4.8-1.6-18.4,12-33.3c12.2-13.3,23.9-14.4,51.8-19.5c38-7,33.9-8.3,47.2-9
		c22.5-1.2,36.8-2,56.3,7.5c25.6,12.4,48.2,36.6,47.9,39.7C1027,489.4,1018.9,483.8,1006.5,478.1z"/>
</g>
<g id="Layer_9">
	<path class="st8" d="M1071.9,849.8c-31.1,31.7-83.8,90.7-160.3,120.2c-156.1,60.3-291.7-12.7-332.7-28.2"/>
	<path class="st7" d="M581.4,954.3c-2,5.4,36.1,26.4,71,40c88.2,34.2,166.2,25.1,188,22c24.6-3.5,150.6-21.4,213-113
		c10.7-15.7,23.9-39.9,21-42c-3.8-2.8-32,37.7-67,67c-64.5,53.8-141.9,60.6-181,64C689.6,1004.2,584.9,945.2,581.4,954.3z"/>
</g>
<g id="Layer_5">
	<path class="st9" d="M793.4,267c46.8-8.9,114.2-87,110-137.8c-96.9-72.2,70.7-126.5,113-56.1c19.2,31.2-28.2,65.6-57,57
		c-42.4,23.9-37.7,139.1-2,158.2"/>
	<path class="st9" d="M980.7,82.2c24.8,44.7-91.5,14.5-58.8-16.5"/>
	<path class="st10" d="M390,436.3c28.3-38.4,24.6-141.4-13-175.8c-120.1,12.9-34.2-140.9,44.7-118c35.3,9.8,23.9,67.2-3.1,80.5
		c-14.8,46.4,67,127.7,106.1,117.4"/>
	<path class="st10" d="M401.7,173.5c48.6,16-57.3,72.8-54.4,27.9"/>
	<path class="st10" d="M304.3,552c-25.7,40.2-123.3,73.5-168.9,50.7c-31-116.8-143.8,18.4-94.2,84c21.8,29.4,71.3-1.7,74.1-31.7
		c38-30.4,143.1,16.9,147.6,57.1"/>
	<path class="st10" d="M63,657c32.3,39.7,47.5-79.5,6.6-60.7"/>
	<path class="st10" d="M360.8,1097.6c-33.9-33.5-136.4-44.6-175.9-12.4c-4.5,120.8-144.3,13.6-110.4-61.2c14.8-33.5,70-14,79.3,14.6
		c43.8,21.3,135.9-48,131.4-88.2"/>
	<path class="st10" d="M102.3,1048.3c22.8-45.8,63.8,67.1,19.8,57.8"/>
	<path class="st10" d="M494.3,1205.9c34.8,32.6,49.8,134.6,19.1,175.3c-120.5,9.2-8,144.7,65.4,107.9c32.9-16,11.3-70.4-17.7-78.6
		c-23-42.9,42.7-137.7,83-134.7"/>
	<path class="st10" d="M553.6,1462.3c44.9-24.5-69.5-61.2-58.5-17.6"/>
	<path class="st10" d="M1002.8,1207.7c-37,30.2-58.8,130.9-31,173.6c119.6,17.3-1.8,144.9-72.6,103.2c-31.7-18.2-6.5-71.1,22.9-77.3
		c25.9-41.2-33.3-140.2-73.7-140"/>
	<path class="st10" d="M926.3,1459.5c-43.1-27.5,73.5-56.3,59.6-13.6"/>
	<path class="st10" d="M1245,990.4c-21.7,50.1,11,163.4,63.3,191.7c133.5-46,77.8,147.3-18.5,142.7c-42.9-1.6-45.8-68.3-18.7-90.2
		c4.1-55.4-111.6-124-153.4-102.3"/>
	<path class="st10" d="M1304.1,1285.2c-59.8-4.9,45.3-95.9,54.3-45.3"/>
	<path class="st10" d="M1110.6,365.9c39.7,26.4,142.5,17.4,175-21.8c-18.9-119.4,139-41.2,120.1,38.8c-8,35.7-65.9,27.3-80.6,1
		c-47-12.5-124.1,73.3-111.9,111.8"/>
	<path class="st10" d="M1373.7,364.4c-13.5,49.3-75.6-53.5-30.6-52.9"/>
	<path class="st10" d="M1278.3,900.6c20.7-42.9,113.7-87.7,161.6-70.5c44.7,112.3,140.6-35.4,83.5-94.6
		c-25.1-26.6-70.6,10.2-69.8,40.3c-34.1,34.8-144.1,0.3-153.3-39.1"/>
	<path class="st10" d="M1505.4,767.6c-36.8-35.5-37.7,84.6,0.7,61.1"/>
</g>
</svg>
