<?xml version="1.0" encoding="utf-8"?>
<!-- Generator: Adobe Illustrator 24.2.1, SVG Export Plug-In . SVG Version: 6.00 Build 0)  -->
<svg version="1.1" id="Capa_1" xmlns="http://www.w3.org/2000/svg" xmlns:xlink="http://www.w3.org/1999/xlink" x="0px" y="0px"
	 viewBox="0 0 121.5 94.7" style="enable-background:new 0 0 121.5 94.7;" xml:space="preserve">
<style type="text/css">
	.st0{fill:#D48342;}
	.st1{fill:#AAC95B;}
</style>
<path class="st0" d="M84.7,30l3.5-4.9c0.6-0.9,0.4-2.1-0.5-2.8l-5.3-3.7c-0.9-0.6-2.1-0.4-2.8,0.5l-3.6,5c-2.6-1.2-5.5-2.1-8.4-2.6
	v-2.1c0-1.3,1.1-2.4,2.4-2.4h1.3c1.3,0,2.4-1.1,2.4-2.4V7.5c0-1.3-1.1-2.4-2.4-2.4H53.9c-1.3,0-2.4,1.1-2.4,2.4v7.3
	c0,1.3,1.1,2.4,2.4,2.4h1.3c1.3,0,2.4,1.1,2.4,2.4v2.1c-3.2,0.5-6.2,1.5-9,2.9l-3.5-5c-0.6-0.9-1.9-1.1-2.8-0.5l-5.3,3.7
	c-0.9,0.6-1.1,1.9-0.5,2.8l3.6,5c-5.8,5.8-9.4,13.7-9.4,22.5c0,17.6,14.3,31.8,31.8,31.8c17.6,0,31.8-14.3,31.8-31.8
	C94.5,44,90.7,35.8,84.7,30z M62.7,77.2c-13.3,0-24.2-10.9-24.2-24.2c0-13.3,10.9-24.2,24.2-24.2C76,28.8,86.9,39.7,86.9,53
	C86.9,66.3,76,77.2,62.7,77.2z"/>
<circle class="st1" cx="62.7" cy="53" r="24.2"/>
</svg>
